%TF.GenerationSoftware,KiCad,Pcbnew,(6.0.4)*%
%TF.CreationDate,2022-09-15T01:26:24+02:00*%
%TF.ProjectId,_autosave-Spikeling_V2.1,5f617574-6f73-4617-9665-2d5370696b65,rev?*%
%TF.SameCoordinates,Original*%
%TF.FileFunction,Legend,Top*%
%TF.FilePolarity,Positive*%
%FSLAX46Y46*%
G04 Gerber Fmt 4.6, Leading zero omitted, Abs format (unit mm)*
G04 Created by KiCad (PCBNEW (6.0.4)) date 2022-09-15 01:26:24*
%MOMM*%
%LPD*%
G01*
G04 APERTURE LIST*
%ADD10C,0.100000*%
%ADD11C,0.150000*%
%ADD12C,0.120000*%
%ADD13C,0.127000*%
G04 APERTURE END LIST*
D10*
X141385714Y-95321250D02*
X141742857Y-95321250D01*
X141314285Y-95535535D02*
X141564285Y-94785535D01*
X141814285Y-95535535D01*
X142064285Y-95535535D02*
X142064285Y-94785535D01*
X142242857Y-94785535D01*
X142350000Y-94821250D01*
X142421428Y-94892678D01*
X142457142Y-94964107D01*
X142492857Y-95106964D01*
X142492857Y-95214107D01*
X142457142Y-95356964D01*
X142421428Y-95428392D01*
X142350000Y-95499821D01*
X142242857Y-95535535D01*
X142064285Y-95535535D01*
X143242857Y-95464107D02*
X143207142Y-95499821D01*
X143100000Y-95535535D01*
X143028571Y-95535535D01*
X142921428Y-95499821D01*
X142850000Y-95428392D01*
X142814285Y-95356964D01*
X142778571Y-95214107D01*
X142778571Y-95106964D01*
X142814285Y-94964107D01*
X142850000Y-94892678D01*
X142921428Y-94821250D01*
X143028571Y-94785535D01*
X143100000Y-94785535D01*
X143207142Y-94821250D01*
X143242857Y-94856964D01*
X140528571Y-96671607D02*
X140492857Y-96707321D01*
X140385714Y-96743035D01*
X140314285Y-96743035D01*
X140207142Y-96707321D01*
X140135714Y-96635892D01*
X140100000Y-96564464D01*
X140064285Y-96421607D01*
X140064285Y-96314464D01*
X140100000Y-96171607D01*
X140135714Y-96100178D01*
X140207142Y-96028750D01*
X140314285Y-95993035D01*
X140385714Y-95993035D01*
X140492857Y-96028750D01*
X140528571Y-96064464D01*
X141171428Y-96743035D02*
X141171428Y-96350178D01*
X141135714Y-96278750D01*
X141064285Y-96243035D01*
X140921428Y-96243035D01*
X140850000Y-96278750D01*
X141171428Y-96707321D02*
X141100000Y-96743035D01*
X140921428Y-96743035D01*
X140850000Y-96707321D01*
X140814285Y-96635892D01*
X140814285Y-96564464D01*
X140850000Y-96493035D01*
X140921428Y-96457321D01*
X141100000Y-96457321D01*
X141171428Y-96421607D01*
X141528571Y-96243035D02*
X141528571Y-96993035D01*
X141528571Y-96278750D02*
X141600000Y-96243035D01*
X141742857Y-96243035D01*
X141814285Y-96278750D01*
X141850000Y-96314464D01*
X141885714Y-96385892D01*
X141885714Y-96600178D01*
X141850000Y-96671607D01*
X141814285Y-96707321D01*
X141742857Y-96743035D01*
X141600000Y-96743035D01*
X141528571Y-96707321D01*
X142528571Y-96743035D02*
X142528571Y-96350178D01*
X142492857Y-96278750D01*
X142421428Y-96243035D01*
X142278571Y-96243035D01*
X142207142Y-96278750D01*
X142528571Y-96707321D02*
X142457142Y-96743035D01*
X142278571Y-96743035D01*
X142207142Y-96707321D01*
X142171428Y-96635892D01*
X142171428Y-96564464D01*
X142207142Y-96493035D01*
X142278571Y-96457321D01*
X142457142Y-96457321D01*
X142528571Y-96421607D01*
X143207142Y-96707321D02*
X143135714Y-96743035D01*
X142992857Y-96743035D01*
X142921428Y-96707321D01*
X142885714Y-96671607D01*
X142850000Y-96600178D01*
X142850000Y-96385892D01*
X142885714Y-96314464D01*
X142921428Y-96278750D01*
X142992857Y-96243035D01*
X143135714Y-96243035D01*
X143207142Y-96278750D01*
X143528571Y-96743035D02*
X143528571Y-96243035D01*
X143528571Y-95993035D02*
X143492857Y-96028750D01*
X143528571Y-96064464D01*
X143564285Y-96028750D01*
X143528571Y-95993035D01*
X143528571Y-96064464D01*
X143778571Y-96243035D02*
X144064285Y-96243035D01*
X143885714Y-95993035D02*
X143885714Y-96635892D01*
X143921428Y-96707321D01*
X143992857Y-96743035D01*
X144064285Y-96743035D01*
X144421428Y-96743035D02*
X144350000Y-96707321D01*
X144314285Y-96671607D01*
X144278571Y-96600178D01*
X144278571Y-96385892D01*
X144314285Y-96314464D01*
X144350000Y-96278750D01*
X144421428Y-96243035D01*
X144528571Y-96243035D01*
X144600000Y-96278750D01*
X144635714Y-96314464D01*
X144671428Y-96385892D01*
X144671428Y-96600178D01*
X144635714Y-96671607D01*
X144600000Y-96707321D01*
X144528571Y-96743035D01*
X144421428Y-96743035D01*
X144992857Y-96743035D02*
X144992857Y-96243035D01*
X144992857Y-96385892D02*
X145028571Y-96314464D01*
X145064285Y-96278750D01*
X145135714Y-96243035D01*
X145207142Y-96243035D01*
X141185714Y-70921250D02*
X141542857Y-70921250D01*
X141114285Y-71135535D02*
X141364285Y-70385535D01*
X141614285Y-71135535D01*
X141864285Y-71135535D02*
X141864285Y-70385535D01*
X142042857Y-70385535D01*
X142150000Y-70421250D01*
X142221428Y-70492678D01*
X142257142Y-70564107D01*
X142292857Y-70706964D01*
X142292857Y-70814107D01*
X142257142Y-70956964D01*
X142221428Y-71028392D01*
X142150000Y-71099821D01*
X142042857Y-71135535D01*
X141864285Y-71135535D01*
X143042857Y-71064107D02*
X143007142Y-71099821D01*
X142900000Y-71135535D01*
X142828571Y-71135535D01*
X142721428Y-71099821D01*
X142650000Y-71028392D01*
X142614285Y-70956964D01*
X142578571Y-70814107D01*
X142578571Y-70706964D01*
X142614285Y-70564107D01*
X142650000Y-70492678D01*
X142721428Y-70421250D01*
X142828571Y-70385535D01*
X142900000Y-70385535D01*
X143007142Y-70421250D01*
X143042857Y-70456964D01*
X140328571Y-72271607D02*
X140292857Y-72307321D01*
X140185714Y-72343035D01*
X140114285Y-72343035D01*
X140007142Y-72307321D01*
X139935714Y-72235892D01*
X139900000Y-72164464D01*
X139864285Y-72021607D01*
X139864285Y-71914464D01*
X139900000Y-71771607D01*
X139935714Y-71700178D01*
X140007142Y-71628750D01*
X140114285Y-71593035D01*
X140185714Y-71593035D01*
X140292857Y-71628750D01*
X140328571Y-71664464D01*
X140971428Y-72343035D02*
X140971428Y-71950178D01*
X140935714Y-71878750D01*
X140864285Y-71843035D01*
X140721428Y-71843035D01*
X140650000Y-71878750D01*
X140971428Y-72307321D02*
X140900000Y-72343035D01*
X140721428Y-72343035D01*
X140650000Y-72307321D01*
X140614285Y-72235892D01*
X140614285Y-72164464D01*
X140650000Y-72093035D01*
X140721428Y-72057321D01*
X140900000Y-72057321D01*
X140971428Y-72021607D01*
X141328571Y-71843035D02*
X141328571Y-72593035D01*
X141328571Y-71878750D02*
X141400000Y-71843035D01*
X141542857Y-71843035D01*
X141614285Y-71878750D01*
X141650000Y-71914464D01*
X141685714Y-71985892D01*
X141685714Y-72200178D01*
X141650000Y-72271607D01*
X141614285Y-72307321D01*
X141542857Y-72343035D01*
X141400000Y-72343035D01*
X141328571Y-72307321D01*
X142328571Y-72343035D02*
X142328571Y-71950178D01*
X142292857Y-71878750D01*
X142221428Y-71843035D01*
X142078571Y-71843035D01*
X142007142Y-71878750D01*
X142328571Y-72307321D02*
X142257142Y-72343035D01*
X142078571Y-72343035D01*
X142007142Y-72307321D01*
X141971428Y-72235892D01*
X141971428Y-72164464D01*
X142007142Y-72093035D01*
X142078571Y-72057321D01*
X142257142Y-72057321D01*
X142328571Y-72021607D01*
X143007142Y-72307321D02*
X142935714Y-72343035D01*
X142792857Y-72343035D01*
X142721428Y-72307321D01*
X142685714Y-72271607D01*
X142650000Y-72200178D01*
X142650000Y-71985892D01*
X142685714Y-71914464D01*
X142721428Y-71878750D01*
X142792857Y-71843035D01*
X142935714Y-71843035D01*
X143007142Y-71878750D01*
X143328571Y-72343035D02*
X143328571Y-71843035D01*
X143328571Y-71593035D02*
X143292857Y-71628750D01*
X143328571Y-71664464D01*
X143364285Y-71628750D01*
X143328571Y-71593035D01*
X143328571Y-71664464D01*
X143578571Y-71843035D02*
X143864285Y-71843035D01*
X143685714Y-71593035D02*
X143685714Y-72235892D01*
X143721428Y-72307321D01*
X143792857Y-72343035D01*
X143864285Y-72343035D01*
X144221428Y-72343035D02*
X144150000Y-72307321D01*
X144114285Y-72271607D01*
X144078571Y-72200178D01*
X144078571Y-71985892D01*
X144114285Y-71914464D01*
X144150000Y-71878750D01*
X144221428Y-71843035D01*
X144328571Y-71843035D01*
X144400000Y-71878750D01*
X144435714Y-71914464D01*
X144471428Y-71985892D01*
X144471428Y-72200178D01*
X144435714Y-72271607D01*
X144400000Y-72307321D01*
X144328571Y-72343035D01*
X144221428Y-72343035D01*
X144792857Y-72343035D02*
X144792857Y-71843035D01*
X144792857Y-71985892D02*
X144828571Y-71914464D01*
X144864285Y-71878750D01*
X144935714Y-71843035D01*
X145007142Y-71843035D01*
X133839285Y-127857142D02*
X133089285Y-127857142D01*
X133089285Y-127571428D01*
X133125000Y-127500000D01*
X133160714Y-127464285D01*
X133232142Y-127428571D01*
X133339285Y-127428571D01*
X133410714Y-127464285D01*
X133446428Y-127500000D01*
X133482142Y-127571428D01*
X133482142Y-127857142D01*
X133839285Y-127107142D02*
X133089285Y-127107142D01*
X133089285Y-126928571D01*
X133125000Y-126821428D01*
X133196428Y-126750000D01*
X133267857Y-126714285D01*
X133410714Y-126678571D01*
X133517857Y-126678571D01*
X133660714Y-126714285D01*
X133732142Y-126750000D01*
X133803571Y-126821428D01*
X133839285Y-126928571D01*
X133839285Y-127107142D01*
X133910714Y-126535714D02*
X133910714Y-125964285D01*
X133339285Y-125785714D02*
X134089285Y-125785714D01*
X133375000Y-125785714D02*
X133339285Y-125714285D01*
X133339285Y-125571428D01*
X133375000Y-125500000D01*
X133410714Y-125464285D01*
X133482142Y-125428571D01*
X133696428Y-125428571D01*
X133767857Y-125464285D01*
X133803571Y-125500000D01*
X133839285Y-125571428D01*
X133839285Y-125714285D01*
X133803571Y-125785714D01*
X133339285Y-124785714D02*
X133839285Y-124785714D01*
X133339285Y-125107142D02*
X133732142Y-125107142D01*
X133803571Y-125071428D01*
X133839285Y-125000000D01*
X133839285Y-124892857D01*
X133803571Y-124821428D01*
X133767857Y-124785714D01*
X133839285Y-124321428D02*
X133803571Y-124392857D01*
X133732142Y-124428571D01*
X133089285Y-124428571D01*
X133839285Y-123928571D02*
X133803571Y-124000000D01*
X133732142Y-124035714D01*
X133089285Y-124035714D01*
X133553571Y-123642857D02*
X133553571Y-123071428D01*
X133839285Y-122392857D02*
X133089285Y-122392857D01*
X133803571Y-122392857D02*
X133839285Y-122464285D01*
X133839285Y-122607142D01*
X133803571Y-122678571D01*
X133767857Y-122714285D01*
X133696428Y-122750000D01*
X133482142Y-122750000D01*
X133410714Y-122714285D01*
X133375000Y-122678571D01*
X133339285Y-122607142D01*
X133339285Y-122464285D01*
X133375000Y-122392857D01*
X133839285Y-121928571D02*
X133803571Y-122000000D01*
X133767857Y-122035714D01*
X133696428Y-122071428D01*
X133482142Y-122071428D01*
X133410714Y-122035714D01*
X133375000Y-122000000D01*
X133339285Y-121928571D01*
X133339285Y-121821428D01*
X133375000Y-121750000D01*
X133410714Y-121714285D01*
X133482142Y-121678571D01*
X133696428Y-121678571D01*
X133767857Y-121714285D01*
X133803571Y-121750000D01*
X133839285Y-121821428D01*
X133839285Y-121928571D01*
X133339285Y-121428571D02*
X133839285Y-121285714D01*
X133482142Y-121142857D01*
X133839285Y-121000000D01*
X133339285Y-120857142D01*
X133339285Y-120571428D02*
X133839285Y-120571428D01*
X133410714Y-120571428D02*
X133375000Y-120535714D01*
X133339285Y-120464285D01*
X133339285Y-120357142D01*
X133375000Y-120285714D01*
X133446428Y-120250000D01*
X133839285Y-120250000D01*
X133839285Y-118892857D02*
X133482142Y-119142857D01*
X133839285Y-119321428D02*
X133089285Y-119321428D01*
X133089285Y-119035714D01*
X133125000Y-118964285D01*
X133160714Y-118928571D01*
X133232142Y-118892857D01*
X133339285Y-118892857D01*
X133410714Y-118928571D01*
X133446428Y-118964285D01*
X133482142Y-119035714D01*
X133482142Y-119321428D01*
X133803571Y-118285714D02*
X133839285Y-118357142D01*
X133839285Y-118500000D01*
X133803571Y-118571428D01*
X133732142Y-118607142D01*
X133446428Y-118607142D01*
X133375000Y-118571428D01*
X133339285Y-118500000D01*
X133339285Y-118357142D01*
X133375000Y-118285714D01*
X133446428Y-118250000D01*
X133517857Y-118250000D01*
X133589285Y-118607142D01*
X133803571Y-117964285D02*
X133839285Y-117892857D01*
X133839285Y-117750000D01*
X133803571Y-117678571D01*
X133732142Y-117642857D01*
X133696428Y-117642857D01*
X133625000Y-117678571D01*
X133589285Y-117750000D01*
X133589285Y-117857142D01*
X133553571Y-117928571D01*
X133482142Y-117964285D01*
X133446428Y-117964285D01*
X133375000Y-117928571D01*
X133339285Y-117857142D01*
X133339285Y-117750000D01*
X133375000Y-117678571D01*
X133839285Y-117321428D02*
X133339285Y-117321428D01*
X133089285Y-117321428D02*
X133125000Y-117357142D01*
X133160714Y-117321428D01*
X133125000Y-117285714D01*
X133089285Y-117321428D01*
X133160714Y-117321428D01*
X133803571Y-117000000D02*
X133839285Y-116928571D01*
X133839285Y-116785714D01*
X133803571Y-116714285D01*
X133732142Y-116678571D01*
X133696428Y-116678571D01*
X133625000Y-116714285D01*
X133589285Y-116785714D01*
X133589285Y-116892857D01*
X133553571Y-116964285D01*
X133482142Y-117000000D01*
X133446428Y-117000000D01*
X133375000Y-116964285D01*
X133339285Y-116892857D01*
X133339285Y-116785714D01*
X133375000Y-116714285D01*
X133339285Y-116464285D02*
X133339285Y-116178571D01*
X133089285Y-116357142D02*
X133732142Y-116357142D01*
X133803571Y-116321428D01*
X133839285Y-116250000D01*
X133839285Y-116178571D01*
X133839285Y-115821428D02*
X133803571Y-115892857D01*
X133767857Y-115928571D01*
X133696428Y-115964285D01*
X133482142Y-115964285D01*
X133410714Y-115928571D01*
X133375000Y-115892857D01*
X133339285Y-115821428D01*
X133339285Y-115714285D01*
X133375000Y-115642857D01*
X133410714Y-115607142D01*
X133482142Y-115571428D01*
X133696428Y-115571428D01*
X133767857Y-115607142D01*
X133803571Y-115642857D01*
X133839285Y-115714285D01*
X133839285Y-115821428D01*
X133839285Y-115250000D02*
X133339285Y-115250000D01*
X133482142Y-115250000D02*
X133410714Y-115214285D01*
X133375000Y-115178571D01*
X133339285Y-115107142D01*
X133339285Y-115035714D01*
X176901428Y-110753571D02*
X177008571Y-110789285D01*
X177187142Y-110789285D01*
X177258571Y-110753571D01*
X177294285Y-110717857D01*
X177330000Y-110646428D01*
X177330000Y-110575000D01*
X177294285Y-110503571D01*
X177258571Y-110467857D01*
X177187142Y-110432142D01*
X177044285Y-110396428D01*
X176972857Y-110360714D01*
X176937142Y-110325000D01*
X176901428Y-110253571D01*
X176901428Y-110182142D01*
X176937142Y-110110714D01*
X176972857Y-110075000D01*
X177044285Y-110039285D01*
X177222857Y-110039285D01*
X177330000Y-110075000D01*
X177544285Y-110289285D02*
X177830000Y-110289285D01*
X177651428Y-110039285D02*
X177651428Y-110682142D01*
X177687142Y-110753571D01*
X177758571Y-110789285D01*
X177830000Y-110789285D01*
X178080000Y-110789285D02*
X178080000Y-110289285D01*
X178080000Y-110039285D02*
X178044285Y-110075000D01*
X178080000Y-110110714D01*
X178115714Y-110075000D01*
X178080000Y-110039285D01*
X178080000Y-110110714D01*
X178437142Y-110789285D02*
X178437142Y-110289285D01*
X178437142Y-110360714D02*
X178472857Y-110325000D01*
X178544285Y-110289285D01*
X178651428Y-110289285D01*
X178722857Y-110325000D01*
X178758571Y-110396428D01*
X178758571Y-110789285D01*
X178758571Y-110396428D02*
X178794285Y-110325000D01*
X178865714Y-110289285D01*
X178972857Y-110289285D01*
X179044285Y-110325000D01*
X179080000Y-110396428D01*
X179080000Y-110789285D01*
X179794285Y-110789285D02*
X179437142Y-110789285D01*
X179437142Y-110039285D01*
X180044285Y-110396428D02*
X180294285Y-110396428D01*
X180401428Y-110789285D02*
X180044285Y-110789285D01*
X180044285Y-110039285D01*
X180401428Y-110039285D01*
X180722857Y-110789285D02*
X180722857Y-110039285D01*
X180901428Y-110039285D01*
X181008571Y-110075000D01*
X181080000Y-110146428D01*
X181115714Y-110217857D01*
X181151428Y-110360714D01*
X181151428Y-110467857D01*
X181115714Y-110610714D01*
X181080000Y-110682142D01*
X181008571Y-110753571D01*
X180901428Y-110789285D01*
X180722857Y-110789285D01*
X182472857Y-110789285D02*
X182222857Y-110432142D01*
X182044285Y-110789285D02*
X182044285Y-110039285D01*
X182330000Y-110039285D01*
X182401428Y-110075000D01*
X182437142Y-110110714D01*
X182472857Y-110182142D01*
X182472857Y-110289285D01*
X182437142Y-110360714D01*
X182401428Y-110396428D01*
X182330000Y-110432142D01*
X182044285Y-110432142D01*
X183080000Y-110753571D02*
X183008571Y-110789285D01*
X182865714Y-110789285D01*
X182794285Y-110753571D01*
X182758571Y-110682142D01*
X182758571Y-110396428D01*
X182794285Y-110325000D01*
X182865714Y-110289285D01*
X183008571Y-110289285D01*
X183080000Y-110325000D01*
X183115714Y-110396428D01*
X183115714Y-110467857D01*
X182758571Y-110539285D01*
X183401428Y-110753571D02*
X183472857Y-110789285D01*
X183615714Y-110789285D01*
X183687142Y-110753571D01*
X183722857Y-110682142D01*
X183722857Y-110646428D01*
X183687142Y-110575000D01*
X183615714Y-110539285D01*
X183508571Y-110539285D01*
X183437142Y-110503571D01*
X183401428Y-110432142D01*
X183401428Y-110396428D01*
X183437142Y-110325000D01*
X183508571Y-110289285D01*
X183615714Y-110289285D01*
X183687142Y-110325000D01*
X184044285Y-110789285D02*
X184044285Y-110289285D01*
X184044285Y-110039285D02*
X184008571Y-110075000D01*
X184044285Y-110110714D01*
X184080000Y-110075000D01*
X184044285Y-110039285D01*
X184044285Y-110110714D01*
X184365714Y-110753571D02*
X184437142Y-110789285D01*
X184580000Y-110789285D01*
X184651428Y-110753571D01*
X184687142Y-110682142D01*
X184687142Y-110646428D01*
X184651428Y-110575000D01*
X184580000Y-110539285D01*
X184472857Y-110539285D01*
X184401428Y-110503571D01*
X184365714Y-110432142D01*
X184365714Y-110396428D01*
X184401428Y-110325000D01*
X184472857Y-110289285D01*
X184580000Y-110289285D01*
X184651428Y-110325000D01*
X184901428Y-110289285D02*
X185187142Y-110289285D01*
X185008571Y-110039285D02*
X185008571Y-110682142D01*
X185044285Y-110753571D01*
X185115714Y-110789285D01*
X185187142Y-110789285D01*
X185544285Y-110789285D02*
X185472857Y-110753571D01*
X185437142Y-110717857D01*
X185401428Y-110646428D01*
X185401428Y-110432142D01*
X185437142Y-110360714D01*
X185472857Y-110325000D01*
X185544285Y-110289285D01*
X185651428Y-110289285D01*
X185722857Y-110325000D01*
X185758571Y-110360714D01*
X185794285Y-110432142D01*
X185794285Y-110646428D01*
X185758571Y-110717857D01*
X185722857Y-110753571D01*
X185651428Y-110789285D01*
X185544285Y-110789285D01*
X186115714Y-110789285D02*
X186115714Y-110289285D01*
X186115714Y-110432142D02*
X186151428Y-110360714D01*
X186187142Y-110325000D01*
X186258571Y-110289285D01*
X186330000Y-110289285D01*
D11*
X210297619Y-113654761D02*
X210440476Y-113702380D01*
X210678571Y-113702380D01*
X210773809Y-113654761D01*
X210821428Y-113607142D01*
X210869047Y-113511904D01*
X210869047Y-113416666D01*
X210821428Y-113321428D01*
X210773809Y-113273809D01*
X210678571Y-113226190D01*
X210488095Y-113178571D01*
X210392857Y-113130952D01*
X210345238Y-113083333D01*
X210297619Y-112988095D01*
X210297619Y-112892857D01*
X210345238Y-112797619D01*
X210392857Y-112750000D01*
X210488095Y-112702380D01*
X210726190Y-112702380D01*
X210869047Y-112750000D01*
X211154761Y-113035714D02*
X211535714Y-113035714D01*
X211297619Y-112702380D02*
X211297619Y-113559523D01*
X211345238Y-113654761D01*
X211440476Y-113702380D01*
X211535714Y-113702380D01*
X211869047Y-113702380D02*
X211869047Y-113035714D01*
X211869047Y-113226190D02*
X211916666Y-113130952D01*
X211964285Y-113083333D01*
X212059523Y-113035714D01*
X212154761Y-113035714D01*
X212869047Y-113654761D02*
X212773809Y-113702380D01*
X212583333Y-113702380D01*
X212488095Y-113654761D01*
X212440476Y-113559523D01*
X212440476Y-113178571D01*
X212488095Y-113083333D01*
X212583333Y-113035714D01*
X212773809Y-113035714D01*
X212869047Y-113083333D01*
X212916666Y-113178571D01*
X212916666Y-113273809D01*
X212440476Y-113369047D01*
X213345238Y-113035714D02*
X213345238Y-113702380D01*
X213345238Y-113130952D02*
X213392857Y-113083333D01*
X213488095Y-113035714D01*
X213630952Y-113035714D01*
X213726190Y-113083333D01*
X213773809Y-113178571D01*
X213773809Y-113702380D01*
X214678571Y-113035714D02*
X214678571Y-113845238D01*
X214630952Y-113940476D01*
X214583333Y-113988095D01*
X214488095Y-114035714D01*
X214345238Y-114035714D01*
X214250000Y-113988095D01*
X214678571Y-113654761D02*
X214583333Y-113702380D01*
X214392857Y-113702380D01*
X214297619Y-113654761D01*
X214250000Y-113607142D01*
X214202380Y-113511904D01*
X214202380Y-113226190D01*
X214250000Y-113130952D01*
X214297619Y-113083333D01*
X214392857Y-113035714D01*
X214583333Y-113035714D01*
X214678571Y-113083333D01*
X215011904Y-113035714D02*
X215392857Y-113035714D01*
X215154761Y-112702380D02*
X215154761Y-113559523D01*
X215202380Y-113654761D01*
X215297619Y-113702380D01*
X215392857Y-113702380D01*
X215726190Y-113702380D02*
X215726190Y-112702380D01*
X216154761Y-113702380D02*
X216154761Y-113178571D01*
X216107142Y-113083333D01*
X216011904Y-113035714D01*
X215869047Y-113035714D01*
X215773809Y-113083333D01*
X215726190Y-113130952D01*
D10*
X174033571Y-105853571D02*
X174140714Y-105889285D01*
X174319285Y-105889285D01*
X174390714Y-105853571D01*
X174426428Y-105817857D01*
X174462142Y-105746428D01*
X174462142Y-105675000D01*
X174426428Y-105603571D01*
X174390714Y-105567857D01*
X174319285Y-105532142D01*
X174176428Y-105496428D01*
X174104999Y-105460714D01*
X174069285Y-105425000D01*
X174033571Y-105353571D01*
X174033571Y-105282142D01*
X174069285Y-105210714D01*
X174104999Y-105175000D01*
X174176428Y-105139285D01*
X174354999Y-105139285D01*
X174462142Y-105175000D01*
X174712142Y-105389285D02*
X174854999Y-105889285D01*
X174997857Y-105532142D01*
X175140714Y-105889285D01*
X175283571Y-105389285D01*
X175569285Y-105889285D02*
X175569285Y-105389285D01*
X175569285Y-105139285D02*
X175533571Y-105175000D01*
X175569285Y-105210714D01*
X175604999Y-105175000D01*
X175569285Y-105139285D01*
X175569285Y-105210714D01*
X175819285Y-105389285D02*
X176104999Y-105389285D01*
X175926428Y-105139285D02*
X175926428Y-105782142D01*
X175962142Y-105853571D01*
X176033571Y-105889285D01*
X176104999Y-105889285D01*
X176676428Y-105853571D02*
X176604999Y-105889285D01*
X176462142Y-105889285D01*
X176390714Y-105853571D01*
X176354999Y-105817857D01*
X176319285Y-105746428D01*
X176319285Y-105532142D01*
X176354999Y-105460714D01*
X176390714Y-105425000D01*
X176462142Y-105389285D01*
X176604999Y-105389285D01*
X176676428Y-105425000D01*
X176997857Y-105889285D02*
X176997857Y-105139285D01*
X177319285Y-105889285D02*
X177319285Y-105496428D01*
X177283571Y-105425000D01*
X177212142Y-105389285D01*
X177104999Y-105389285D01*
X177033571Y-105425000D01*
X176997857Y-105460714D01*
X177497857Y-105960714D02*
X178069285Y-105960714D01*
X178247857Y-105389285D02*
X178247857Y-106139285D01*
X178247857Y-105425000D02*
X178319285Y-105389285D01*
X178462142Y-105389285D01*
X178533571Y-105425000D01*
X178569285Y-105460714D01*
X178604999Y-105532142D01*
X178604999Y-105746428D01*
X178569285Y-105817857D01*
X178533571Y-105853571D01*
X178462142Y-105889285D01*
X178319285Y-105889285D01*
X178247857Y-105853571D01*
X179247857Y-105389285D02*
X179247857Y-105889285D01*
X178926428Y-105389285D02*
X178926428Y-105782142D01*
X178962142Y-105853571D01*
X179033571Y-105889285D01*
X179140714Y-105889285D01*
X179212142Y-105853571D01*
X179247857Y-105817857D01*
X179712142Y-105889285D02*
X179640714Y-105853571D01*
X179604999Y-105782142D01*
X179604999Y-105139285D01*
X180104999Y-105889285D02*
X180033571Y-105853571D01*
X179997857Y-105782142D01*
X179997857Y-105139285D01*
X180390714Y-105603571D02*
X180962142Y-105603571D01*
X181640714Y-105889285D02*
X181640714Y-105139285D01*
X181640714Y-105853571D02*
X181569285Y-105889285D01*
X181426428Y-105889285D01*
X181354999Y-105853571D01*
X181319285Y-105817857D01*
X181283571Y-105746428D01*
X181283571Y-105532142D01*
X181319285Y-105460714D01*
X181354999Y-105425000D01*
X181426428Y-105389285D01*
X181569285Y-105389285D01*
X181640714Y-105425000D01*
X182104999Y-105889285D02*
X182033571Y-105853571D01*
X181997857Y-105817857D01*
X181962142Y-105746428D01*
X181962142Y-105532142D01*
X181997857Y-105460714D01*
X182033571Y-105425000D01*
X182104999Y-105389285D01*
X182212142Y-105389285D01*
X182283571Y-105425000D01*
X182319285Y-105460714D01*
X182354999Y-105532142D01*
X182354999Y-105746428D01*
X182319285Y-105817857D01*
X182283571Y-105853571D01*
X182212142Y-105889285D01*
X182104999Y-105889285D01*
X182604999Y-105389285D02*
X182747857Y-105889285D01*
X182890714Y-105532142D01*
X183033571Y-105889285D01*
X183176428Y-105389285D01*
X183462142Y-105389285D02*
X183462142Y-105889285D01*
X183462142Y-105460714D02*
X183497857Y-105425000D01*
X183569285Y-105389285D01*
X183676428Y-105389285D01*
X183747857Y-105425000D01*
X183783571Y-105496428D01*
X183783571Y-105889285D01*
X185140714Y-105889285D02*
X184890714Y-105532142D01*
X184712142Y-105889285D02*
X184712142Y-105139285D01*
X184997857Y-105139285D01*
X185069285Y-105175000D01*
X185104999Y-105210714D01*
X185140714Y-105282142D01*
X185140714Y-105389285D01*
X185104999Y-105460714D01*
X185069285Y-105496428D01*
X184997857Y-105532142D01*
X184712142Y-105532142D01*
X185747857Y-105853571D02*
X185676428Y-105889285D01*
X185533571Y-105889285D01*
X185462142Y-105853571D01*
X185426428Y-105782142D01*
X185426428Y-105496428D01*
X185462142Y-105425000D01*
X185533571Y-105389285D01*
X185676428Y-105389285D01*
X185747857Y-105425000D01*
X185783571Y-105496428D01*
X185783571Y-105567857D01*
X185426428Y-105639285D01*
X186069285Y-105853571D02*
X186140714Y-105889285D01*
X186283571Y-105889285D01*
X186354999Y-105853571D01*
X186390714Y-105782142D01*
X186390714Y-105746428D01*
X186354999Y-105675000D01*
X186283571Y-105639285D01*
X186176428Y-105639285D01*
X186104999Y-105603571D01*
X186069285Y-105532142D01*
X186069285Y-105496428D01*
X186104999Y-105425000D01*
X186176428Y-105389285D01*
X186283571Y-105389285D01*
X186354999Y-105425000D01*
X186712142Y-105889285D02*
X186712142Y-105389285D01*
X186712142Y-105139285D02*
X186676428Y-105175000D01*
X186712142Y-105210714D01*
X186747857Y-105175000D01*
X186712142Y-105139285D01*
X186712142Y-105210714D01*
X187033571Y-105853571D02*
X187104999Y-105889285D01*
X187247857Y-105889285D01*
X187319285Y-105853571D01*
X187354999Y-105782142D01*
X187354999Y-105746428D01*
X187319285Y-105675000D01*
X187247857Y-105639285D01*
X187140714Y-105639285D01*
X187069285Y-105603571D01*
X187033571Y-105532142D01*
X187033571Y-105496428D01*
X187069285Y-105425000D01*
X187140714Y-105389285D01*
X187247857Y-105389285D01*
X187319285Y-105425000D01*
X187569285Y-105389285D02*
X187854999Y-105389285D01*
X187676428Y-105139285D02*
X187676428Y-105782142D01*
X187712142Y-105853571D01*
X187783571Y-105889285D01*
X187854999Y-105889285D01*
X188212142Y-105889285D02*
X188140714Y-105853571D01*
X188104999Y-105817857D01*
X188069285Y-105746428D01*
X188069285Y-105532142D01*
X188104999Y-105460714D01*
X188140714Y-105425000D01*
X188212142Y-105389285D01*
X188319285Y-105389285D01*
X188390714Y-105425000D01*
X188426428Y-105460714D01*
X188462142Y-105532142D01*
X188462142Y-105746428D01*
X188426428Y-105817857D01*
X188390714Y-105853571D01*
X188319285Y-105889285D01*
X188212142Y-105889285D01*
X188783571Y-105889285D02*
X188783571Y-105389285D01*
X188783571Y-105532142D02*
X188819285Y-105460714D01*
X188854999Y-105425000D01*
X188926428Y-105389285D01*
X188997857Y-105389285D01*
X175997857Y-95567857D02*
X175962142Y-95603571D01*
X175855000Y-95639285D01*
X175783571Y-95639285D01*
X175676428Y-95603571D01*
X175605000Y-95532142D01*
X175569285Y-95460714D01*
X175533571Y-95317857D01*
X175533571Y-95210714D01*
X175569285Y-95067857D01*
X175605000Y-94996428D01*
X175676428Y-94925000D01*
X175783571Y-94889285D01*
X175855000Y-94889285D01*
X175962142Y-94925000D01*
X175997857Y-94960714D01*
X176319285Y-95639285D02*
X176319285Y-94889285D01*
X176640714Y-95639285D02*
X176640714Y-95246428D01*
X176605000Y-95175000D01*
X176533571Y-95139285D01*
X176426428Y-95139285D01*
X176355000Y-95175000D01*
X176319285Y-95210714D01*
X177319285Y-95639285D02*
X177319285Y-95246428D01*
X177283571Y-95175000D01*
X177212142Y-95139285D01*
X177069285Y-95139285D01*
X176997857Y-95175000D01*
X177319285Y-95603571D02*
X177247857Y-95639285D01*
X177069285Y-95639285D01*
X176997857Y-95603571D01*
X176962142Y-95532142D01*
X176962142Y-95460714D01*
X176997857Y-95389285D01*
X177069285Y-95353571D01*
X177247857Y-95353571D01*
X177319285Y-95317857D01*
X177676428Y-95639285D02*
X177676428Y-95139285D01*
X177676428Y-95282142D02*
X177712142Y-95210714D01*
X177747857Y-95175000D01*
X177819285Y-95139285D01*
X177890714Y-95139285D01*
X178247857Y-95639285D02*
X178176428Y-95603571D01*
X178140714Y-95532142D01*
X178140714Y-94889285D01*
X178533571Y-95639285D02*
X178533571Y-95139285D01*
X178533571Y-94889285D02*
X178497857Y-94925000D01*
X178533571Y-94960714D01*
X178569285Y-94925000D01*
X178533571Y-94889285D01*
X178533571Y-94960714D01*
X179176428Y-95603571D02*
X179105000Y-95639285D01*
X178962142Y-95639285D01*
X178890714Y-95603571D01*
X178855000Y-95532142D01*
X178855000Y-95246428D01*
X178890714Y-95175000D01*
X178962142Y-95139285D01*
X179105000Y-95139285D01*
X179176428Y-95175000D01*
X179212142Y-95246428D01*
X179212142Y-95317857D01*
X178855000Y-95389285D01*
X179533571Y-95639285D02*
X179533571Y-94889285D01*
X179819285Y-94889285D01*
X179890714Y-94925000D01*
X179926428Y-94960714D01*
X179962142Y-95032142D01*
X179962142Y-95139285D01*
X179926428Y-95210714D01*
X179890714Y-95246428D01*
X179819285Y-95282142D01*
X179533571Y-95282142D01*
X180390714Y-95639285D02*
X180319285Y-95603571D01*
X180283571Y-95532142D01*
X180283571Y-94889285D01*
X180962142Y-95603571D02*
X180890714Y-95639285D01*
X180747857Y-95639285D01*
X180676428Y-95603571D01*
X180640714Y-95532142D01*
X180640714Y-95246428D01*
X180676428Y-95175000D01*
X180747857Y-95139285D01*
X180890714Y-95139285D01*
X180962142Y-95175000D01*
X180997857Y-95246428D01*
X180997857Y-95317857D01*
X180640714Y-95389285D01*
X181247857Y-95639285D02*
X181640714Y-95139285D01*
X181247857Y-95139285D02*
X181640714Y-95639285D01*
X181855000Y-94889285D02*
X182319285Y-94889285D01*
X182069285Y-95175000D01*
X182176428Y-95175000D01*
X182247857Y-95210714D01*
X182283571Y-95246428D01*
X182319285Y-95317857D01*
X182319285Y-95496428D01*
X182283571Y-95567857D01*
X182247857Y-95603571D01*
X182176428Y-95639285D01*
X181962142Y-95639285D01*
X181890714Y-95603571D01*
X181855000Y-95567857D01*
X183640714Y-95639285D02*
X183390714Y-95282142D01*
X183212142Y-95639285D02*
X183212142Y-94889285D01*
X183497857Y-94889285D01*
X183569285Y-94925000D01*
X183605000Y-94960714D01*
X183640714Y-95032142D01*
X183640714Y-95139285D01*
X183605000Y-95210714D01*
X183569285Y-95246428D01*
X183497857Y-95282142D01*
X183212142Y-95282142D01*
X184247857Y-95603571D02*
X184176428Y-95639285D01*
X184033571Y-95639285D01*
X183962142Y-95603571D01*
X183926428Y-95532142D01*
X183926428Y-95246428D01*
X183962142Y-95175000D01*
X184033571Y-95139285D01*
X184176428Y-95139285D01*
X184247857Y-95175000D01*
X184283571Y-95246428D01*
X184283571Y-95317857D01*
X183926428Y-95389285D01*
X184569285Y-95603571D02*
X184640714Y-95639285D01*
X184783571Y-95639285D01*
X184855000Y-95603571D01*
X184890714Y-95532142D01*
X184890714Y-95496428D01*
X184855000Y-95425000D01*
X184783571Y-95389285D01*
X184676428Y-95389285D01*
X184605000Y-95353571D01*
X184569285Y-95282142D01*
X184569285Y-95246428D01*
X184605000Y-95175000D01*
X184676428Y-95139285D01*
X184783571Y-95139285D01*
X184855000Y-95175000D01*
X185212142Y-95639285D02*
X185212142Y-95139285D01*
X185212142Y-94889285D02*
X185176428Y-94925000D01*
X185212142Y-94960714D01*
X185247857Y-94925000D01*
X185212142Y-94889285D01*
X185212142Y-94960714D01*
X185533571Y-95603571D02*
X185605000Y-95639285D01*
X185747857Y-95639285D01*
X185819285Y-95603571D01*
X185855000Y-95532142D01*
X185855000Y-95496428D01*
X185819285Y-95425000D01*
X185747857Y-95389285D01*
X185640714Y-95389285D01*
X185569285Y-95353571D01*
X185533571Y-95282142D01*
X185533571Y-95246428D01*
X185569285Y-95175000D01*
X185640714Y-95139285D01*
X185747857Y-95139285D01*
X185819285Y-95175000D01*
X186069285Y-95139285D02*
X186355000Y-95139285D01*
X186176428Y-94889285D02*
X186176428Y-95532142D01*
X186212142Y-95603571D01*
X186283571Y-95639285D01*
X186355000Y-95639285D01*
X186712142Y-95639285D02*
X186640714Y-95603571D01*
X186605000Y-95567857D01*
X186569285Y-95496428D01*
X186569285Y-95282142D01*
X186605000Y-95210714D01*
X186640714Y-95175000D01*
X186712142Y-95139285D01*
X186819285Y-95139285D01*
X186890714Y-95175000D01*
X186926428Y-95210714D01*
X186962142Y-95282142D01*
X186962142Y-95496428D01*
X186926428Y-95567857D01*
X186890714Y-95603571D01*
X186819285Y-95639285D01*
X186712142Y-95639285D01*
X187283571Y-95639285D02*
X187283571Y-95139285D01*
X187283571Y-95282142D02*
X187319285Y-95210714D01*
X187355000Y-95175000D01*
X187426428Y-95139285D01*
X187497857Y-95139285D01*
D11*
X210559523Y-94928571D02*
X210226190Y-94928571D01*
X210226190Y-95452380D02*
X210226190Y-94452380D01*
X210702380Y-94452380D01*
X211083333Y-95452380D02*
X211083333Y-94785714D01*
X211083333Y-94976190D02*
X211130952Y-94880952D01*
X211178571Y-94833333D01*
X211273809Y-94785714D01*
X211369047Y-94785714D01*
X212083333Y-95404761D02*
X211988095Y-95452380D01*
X211797619Y-95452380D01*
X211702380Y-95404761D01*
X211654761Y-95309523D01*
X211654761Y-94928571D01*
X211702380Y-94833333D01*
X211797619Y-94785714D01*
X211988095Y-94785714D01*
X212083333Y-94833333D01*
X212130952Y-94928571D01*
X212130952Y-95023809D01*
X211654761Y-95119047D01*
X212988095Y-94785714D02*
X212988095Y-95785714D01*
X212988095Y-95404761D02*
X212892857Y-95452380D01*
X212702380Y-95452380D01*
X212607142Y-95404761D01*
X212559523Y-95357142D01*
X212511904Y-95261904D01*
X212511904Y-94976190D01*
X212559523Y-94880952D01*
X212607142Y-94833333D01*
X212702380Y-94785714D01*
X212892857Y-94785714D01*
X212988095Y-94833333D01*
X213892857Y-94785714D02*
X213892857Y-95452380D01*
X213464285Y-94785714D02*
X213464285Y-95309523D01*
X213511904Y-95404761D01*
X213607142Y-95452380D01*
X213750000Y-95452380D01*
X213845238Y-95404761D01*
X213892857Y-95357142D01*
X214750000Y-95404761D02*
X214654761Y-95452380D01*
X214464285Y-95452380D01*
X214369047Y-95404761D01*
X214321428Y-95309523D01*
X214321428Y-94928571D01*
X214369047Y-94833333D01*
X214464285Y-94785714D01*
X214654761Y-94785714D01*
X214750000Y-94833333D01*
X214797619Y-94928571D01*
X214797619Y-95023809D01*
X214321428Y-95119047D01*
X215226190Y-94785714D02*
X215226190Y-95452380D01*
X215226190Y-94880952D02*
X215273809Y-94833333D01*
X215369047Y-94785714D01*
X215511904Y-94785714D01*
X215607142Y-94833333D01*
X215654761Y-94928571D01*
X215654761Y-95452380D01*
X216559523Y-95404761D02*
X216464285Y-95452380D01*
X216273809Y-95452380D01*
X216178571Y-95404761D01*
X216130952Y-95357142D01*
X216083333Y-95261904D01*
X216083333Y-94976190D01*
X216130952Y-94880952D01*
X216178571Y-94833333D01*
X216273809Y-94785714D01*
X216464285Y-94785714D01*
X216559523Y-94833333D01*
X216892857Y-94785714D02*
X217130952Y-95452380D01*
X217369047Y-94785714D02*
X217130952Y-95452380D01*
X217035714Y-95690476D01*
X216988095Y-95738095D01*
X216892857Y-95785714D01*
D10*
X175997857Y-90317857D02*
X175962142Y-90353571D01*
X175855000Y-90389285D01*
X175783571Y-90389285D01*
X175676428Y-90353571D01*
X175605000Y-90282142D01*
X175569285Y-90210714D01*
X175533571Y-90067857D01*
X175533571Y-89960714D01*
X175569285Y-89817857D01*
X175605000Y-89746428D01*
X175676428Y-89675000D01*
X175783571Y-89639285D01*
X175855000Y-89639285D01*
X175962142Y-89675000D01*
X175997857Y-89710714D01*
X176319285Y-90389285D02*
X176319285Y-89639285D01*
X176640714Y-90389285D02*
X176640714Y-89996428D01*
X176605000Y-89925000D01*
X176533571Y-89889285D01*
X176426428Y-89889285D01*
X176355000Y-89925000D01*
X176319285Y-89960714D01*
X177319285Y-90389285D02*
X177319285Y-89996428D01*
X177283571Y-89925000D01*
X177212142Y-89889285D01*
X177069285Y-89889285D01*
X176997857Y-89925000D01*
X177319285Y-90353571D02*
X177247857Y-90389285D01*
X177069285Y-90389285D01*
X176997857Y-90353571D01*
X176962142Y-90282142D01*
X176962142Y-90210714D01*
X176997857Y-90139285D01*
X177069285Y-90103571D01*
X177247857Y-90103571D01*
X177319285Y-90067857D01*
X177676428Y-90389285D02*
X177676428Y-89889285D01*
X177676428Y-90032142D02*
X177712142Y-89960714D01*
X177747857Y-89925000D01*
X177819285Y-89889285D01*
X177890714Y-89889285D01*
X178247857Y-90389285D02*
X178176428Y-90353571D01*
X178140714Y-90282142D01*
X178140714Y-89639285D01*
X178533571Y-90389285D02*
X178533571Y-89889285D01*
X178533571Y-89639285D02*
X178497857Y-89675000D01*
X178533571Y-89710714D01*
X178569285Y-89675000D01*
X178533571Y-89639285D01*
X178533571Y-89710714D01*
X179176428Y-90353571D02*
X179105000Y-90389285D01*
X178962142Y-90389285D01*
X178890714Y-90353571D01*
X178855000Y-90282142D01*
X178855000Y-89996428D01*
X178890714Y-89925000D01*
X178962142Y-89889285D01*
X179105000Y-89889285D01*
X179176428Y-89925000D01*
X179212142Y-89996428D01*
X179212142Y-90067857D01*
X178855000Y-90139285D01*
X179533571Y-90389285D02*
X179533571Y-89639285D01*
X179819285Y-89639285D01*
X179890714Y-89675000D01*
X179926428Y-89710714D01*
X179962142Y-89782142D01*
X179962142Y-89889285D01*
X179926428Y-89960714D01*
X179890714Y-89996428D01*
X179819285Y-90032142D01*
X179533571Y-90032142D01*
X180390714Y-90389285D02*
X180319285Y-90353571D01*
X180283571Y-90282142D01*
X180283571Y-89639285D01*
X180962142Y-90353571D02*
X180890714Y-90389285D01*
X180747857Y-90389285D01*
X180676428Y-90353571D01*
X180640714Y-90282142D01*
X180640714Y-89996428D01*
X180676428Y-89925000D01*
X180747857Y-89889285D01*
X180890714Y-89889285D01*
X180962142Y-89925000D01*
X180997857Y-89996428D01*
X180997857Y-90067857D01*
X180640714Y-90139285D01*
X181247857Y-90389285D02*
X181640714Y-89889285D01*
X181247857Y-89889285D02*
X181640714Y-90389285D01*
X181890714Y-89710714D02*
X181926428Y-89675000D01*
X181997857Y-89639285D01*
X182176428Y-89639285D01*
X182247857Y-89675000D01*
X182283571Y-89710714D01*
X182319285Y-89782142D01*
X182319285Y-89853571D01*
X182283571Y-89960714D01*
X181855000Y-90389285D01*
X182319285Y-90389285D01*
X183640714Y-90389285D02*
X183390714Y-90032142D01*
X183212142Y-90389285D02*
X183212142Y-89639285D01*
X183497857Y-89639285D01*
X183569285Y-89675000D01*
X183605000Y-89710714D01*
X183640714Y-89782142D01*
X183640714Y-89889285D01*
X183605000Y-89960714D01*
X183569285Y-89996428D01*
X183497857Y-90032142D01*
X183212142Y-90032142D01*
X184247857Y-90353571D02*
X184176428Y-90389285D01*
X184033571Y-90389285D01*
X183962142Y-90353571D01*
X183926428Y-90282142D01*
X183926428Y-89996428D01*
X183962142Y-89925000D01*
X184033571Y-89889285D01*
X184176428Y-89889285D01*
X184247857Y-89925000D01*
X184283571Y-89996428D01*
X184283571Y-90067857D01*
X183926428Y-90139285D01*
X184569285Y-90353571D02*
X184640714Y-90389285D01*
X184783571Y-90389285D01*
X184855000Y-90353571D01*
X184890714Y-90282142D01*
X184890714Y-90246428D01*
X184855000Y-90175000D01*
X184783571Y-90139285D01*
X184676428Y-90139285D01*
X184605000Y-90103571D01*
X184569285Y-90032142D01*
X184569285Y-89996428D01*
X184605000Y-89925000D01*
X184676428Y-89889285D01*
X184783571Y-89889285D01*
X184855000Y-89925000D01*
X185212142Y-90389285D02*
X185212142Y-89889285D01*
X185212142Y-89639285D02*
X185176428Y-89675000D01*
X185212142Y-89710714D01*
X185247857Y-89675000D01*
X185212142Y-89639285D01*
X185212142Y-89710714D01*
X185533571Y-90353571D02*
X185605000Y-90389285D01*
X185747857Y-90389285D01*
X185819285Y-90353571D01*
X185855000Y-90282142D01*
X185855000Y-90246428D01*
X185819285Y-90175000D01*
X185747857Y-90139285D01*
X185640714Y-90139285D01*
X185569285Y-90103571D01*
X185533571Y-90032142D01*
X185533571Y-89996428D01*
X185569285Y-89925000D01*
X185640714Y-89889285D01*
X185747857Y-89889285D01*
X185819285Y-89925000D01*
X186069285Y-89889285D02*
X186355000Y-89889285D01*
X186176428Y-89639285D02*
X186176428Y-90282142D01*
X186212142Y-90353571D01*
X186283571Y-90389285D01*
X186355000Y-90389285D01*
X186712142Y-90389285D02*
X186640714Y-90353571D01*
X186605000Y-90317857D01*
X186569285Y-90246428D01*
X186569285Y-90032142D01*
X186605000Y-89960714D01*
X186640714Y-89925000D01*
X186712142Y-89889285D01*
X186819285Y-89889285D01*
X186890714Y-89925000D01*
X186926428Y-89960714D01*
X186962142Y-90032142D01*
X186962142Y-90246428D01*
X186926428Y-90317857D01*
X186890714Y-90353571D01*
X186819285Y-90389285D01*
X186712142Y-90389285D01*
X187283571Y-90389285D02*
X187283571Y-89889285D01*
X187283571Y-90032142D02*
X187319285Y-89960714D01*
X187355000Y-89925000D01*
X187426428Y-89889285D01*
X187497857Y-89889285D01*
X176265714Y-80103571D02*
X176372857Y-80139285D01*
X176551428Y-80139285D01*
X176622857Y-80103571D01*
X176658571Y-80067857D01*
X176694285Y-79996428D01*
X176694285Y-79925000D01*
X176658571Y-79853571D01*
X176622857Y-79817857D01*
X176551428Y-79782142D01*
X176408571Y-79746428D01*
X176337142Y-79710714D01*
X176301428Y-79675000D01*
X176265714Y-79603571D01*
X176265714Y-79532142D01*
X176301428Y-79460714D01*
X176337142Y-79425000D01*
X176408571Y-79389285D01*
X176587142Y-79389285D01*
X176694285Y-79425000D01*
X177015714Y-79639285D02*
X177015714Y-80389285D01*
X177015714Y-79675000D02*
X177087142Y-79639285D01*
X177230000Y-79639285D01*
X177301428Y-79675000D01*
X177337142Y-79710714D01*
X177372857Y-79782142D01*
X177372857Y-79996428D01*
X177337142Y-80067857D01*
X177301428Y-80103571D01*
X177230000Y-80139285D01*
X177087142Y-80139285D01*
X177015714Y-80103571D01*
X177694285Y-80139285D02*
X177694285Y-79639285D01*
X177694285Y-79389285D02*
X177658571Y-79425000D01*
X177694285Y-79460714D01*
X177730000Y-79425000D01*
X177694285Y-79389285D01*
X177694285Y-79460714D01*
X178051428Y-80139285D02*
X178051428Y-79389285D01*
X178122857Y-79853571D02*
X178337142Y-80139285D01*
X178337142Y-79639285D02*
X178051428Y-79925000D01*
X178944285Y-80103571D02*
X178872857Y-80139285D01*
X178730000Y-80139285D01*
X178658571Y-80103571D01*
X178622857Y-80032142D01*
X178622857Y-79746428D01*
X178658571Y-79675000D01*
X178730000Y-79639285D01*
X178872857Y-79639285D01*
X178944285Y-79675000D01*
X178980000Y-79746428D01*
X178980000Y-79817857D01*
X178622857Y-79889285D01*
X179122857Y-80210714D02*
X179694285Y-80210714D01*
X180230000Y-80139285D02*
X179872857Y-80139285D01*
X179872857Y-79389285D01*
X180480000Y-79746428D02*
X180730000Y-79746428D01*
X180837142Y-80139285D02*
X180480000Y-80139285D01*
X180480000Y-79389285D01*
X180837142Y-79389285D01*
X181158571Y-80139285D02*
X181158571Y-79389285D01*
X181337142Y-79389285D01*
X181444285Y-79425000D01*
X181515714Y-79496428D01*
X181551428Y-79567857D01*
X181587142Y-79710714D01*
X181587142Y-79817857D01*
X181551428Y-79960714D01*
X181515714Y-80032142D01*
X181444285Y-80103571D01*
X181337142Y-80139285D01*
X181158571Y-80139285D01*
X182908571Y-80139285D02*
X182658571Y-79782142D01*
X182480000Y-80139285D02*
X182480000Y-79389285D01*
X182765714Y-79389285D01*
X182837142Y-79425000D01*
X182872857Y-79460714D01*
X182908571Y-79532142D01*
X182908571Y-79639285D01*
X182872857Y-79710714D01*
X182837142Y-79746428D01*
X182765714Y-79782142D01*
X182480000Y-79782142D01*
X183515714Y-80103571D02*
X183444285Y-80139285D01*
X183301428Y-80139285D01*
X183230000Y-80103571D01*
X183194285Y-80032142D01*
X183194285Y-79746428D01*
X183230000Y-79675000D01*
X183301428Y-79639285D01*
X183444285Y-79639285D01*
X183515714Y-79675000D01*
X183551428Y-79746428D01*
X183551428Y-79817857D01*
X183194285Y-79889285D01*
X183837142Y-80103571D02*
X183908571Y-80139285D01*
X184051428Y-80139285D01*
X184122857Y-80103571D01*
X184158571Y-80032142D01*
X184158571Y-79996428D01*
X184122857Y-79925000D01*
X184051428Y-79889285D01*
X183944285Y-79889285D01*
X183872857Y-79853571D01*
X183837142Y-79782142D01*
X183837142Y-79746428D01*
X183872857Y-79675000D01*
X183944285Y-79639285D01*
X184051428Y-79639285D01*
X184122857Y-79675000D01*
X184480000Y-80139285D02*
X184480000Y-79639285D01*
X184480000Y-79389285D02*
X184444285Y-79425000D01*
X184480000Y-79460714D01*
X184515714Y-79425000D01*
X184480000Y-79389285D01*
X184480000Y-79460714D01*
X184801428Y-80103571D02*
X184872857Y-80139285D01*
X185015714Y-80139285D01*
X185087142Y-80103571D01*
X185122857Y-80032142D01*
X185122857Y-79996428D01*
X185087142Y-79925000D01*
X185015714Y-79889285D01*
X184908571Y-79889285D01*
X184837142Y-79853571D01*
X184801428Y-79782142D01*
X184801428Y-79746428D01*
X184837142Y-79675000D01*
X184908571Y-79639285D01*
X185015714Y-79639285D01*
X185087142Y-79675000D01*
X185337142Y-79639285D02*
X185622857Y-79639285D01*
X185444285Y-79389285D02*
X185444285Y-80032142D01*
X185480000Y-80103571D01*
X185551428Y-80139285D01*
X185622857Y-80139285D01*
X185980000Y-80139285D02*
X185908571Y-80103571D01*
X185872857Y-80067857D01*
X185837142Y-79996428D01*
X185837142Y-79782142D01*
X185872857Y-79710714D01*
X185908571Y-79675000D01*
X185980000Y-79639285D01*
X186087142Y-79639285D01*
X186158571Y-79675000D01*
X186194285Y-79710714D01*
X186230000Y-79782142D01*
X186230000Y-79996428D01*
X186194285Y-80067857D01*
X186158571Y-80103571D01*
X186087142Y-80139285D01*
X185980000Y-80139285D01*
X186551428Y-80139285D02*
X186551428Y-79639285D01*
X186551428Y-79782142D02*
X186587142Y-79710714D01*
X186622857Y-79675000D01*
X186694285Y-79639285D01*
X186765714Y-79639285D01*
X176247857Y-85067857D02*
X176212142Y-85103571D01*
X176105000Y-85139285D01*
X176033571Y-85139285D01*
X175926428Y-85103571D01*
X175855000Y-85032142D01*
X175819285Y-84960714D01*
X175783571Y-84817857D01*
X175783571Y-84710714D01*
X175819285Y-84567857D01*
X175855000Y-84496428D01*
X175926428Y-84425000D01*
X176033571Y-84389285D01*
X176105000Y-84389285D01*
X176212142Y-84425000D01*
X176247857Y-84460714D01*
X176569285Y-85139285D02*
X176569285Y-84389285D01*
X176890714Y-85139285D02*
X176890714Y-84746428D01*
X176855000Y-84675000D01*
X176783571Y-84639285D01*
X176676428Y-84639285D01*
X176605000Y-84675000D01*
X176569285Y-84710714D01*
X177569285Y-85139285D02*
X177569285Y-84746428D01*
X177533571Y-84675000D01*
X177462142Y-84639285D01*
X177319285Y-84639285D01*
X177247857Y-84675000D01*
X177569285Y-85103571D02*
X177497857Y-85139285D01*
X177319285Y-85139285D01*
X177247857Y-85103571D01*
X177212142Y-85032142D01*
X177212142Y-84960714D01*
X177247857Y-84889285D01*
X177319285Y-84853571D01*
X177497857Y-84853571D01*
X177569285Y-84817857D01*
X177926428Y-85139285D02*
X177926428Y-84639285D01*
X177926428Y-84782142D02*
X177962142Y-84710714D01*
X177997857Y-84675000D01*
X178069285Y-84639285D01*
X178140714Y-84639285D01*
X178497857Y-85139285D02*
X178426428Y-85103571D01*
X178390714Y-85032142D01*
X178390714Y-84389285D01*
X178783571Y-85139285D02*
X178783571Y-84639285D01*
X178783571Y-84389285D02*
X178747857Y-84425000D01*
X178783571Y-84460714D01*
X178819285Y-84425000D01*
X178783571Y-84389285D01*
X178783571Y-84460714D01*
X179426428Y-85103571D02*
X179355000Y-85139285D01*
X179212142Y-85139285D01*
X179140714Y-85103571D01*
X179105000Y-85032142D01*
X179105000Y-84746428D01*
X179140714Y-84675000D01*
X179212142Y-84639285D01*
X179355000Y-84639285D01*
X179426428Y-84675000D01*
X179462142Y-84746428D01*
X179462142Y-84817857D01*
X179105000Y-84889285D01*
X179783571Y-85139285D02*
X179783571Y-84389285D01*
X180069285Y-84389285D01*
X180140714Y-84425000D01*
X180176428Y-84460714D01*
X180212142Y-84532142D01*
X180212142Y-84639285D01*
X180176428Y-84710714D01*
X180140714Y-84746428D01*
X180069285Y-84782142D01*
X179783571Y-84782142D01*
X180640714Y-85139285D02*
X180569285Y-85103571D01*
X180533571Y-85032142D01*
X180533571Y-84389285D01*
X181212142Y-85103571D02*
X181140714Y-85139285D01*
X180997857Y-85139285D01*
X180926428Y-85103571D01*
X180890714Y-85032142D01*
X180890714Y-84746428D01*
X180926428Y-84675000D01*
X180997857Y-84639285D01*
X181140714Y-84639285D01*
X181212142Y-84675000D01*
X181247857Y-84746428D01*
X181247857Y-84817857D01*
X180890714Y-84889285D01*
X181497857Y-85139285D02*
X181890714Y-84639285D01*
X181497857Y-84639285D02*
X181890714Y-85139285D01*
X182569285Y-85139285D02*
X182140714Y-85139285D01*
X182355000Y-85139285D02*
X182355000Y-84389285D01*
X182283571Y-84496428D01*
X182212142Y-84567857D01*
X182140714Y-84603571D01*
X183890714Y-85139285D02*
X183640714Y-84782142D01*
X183462142Y-85139285D02*
X183462142Y-84389285D01*
X183747857Y-84389285D01*
X183819285Y-84425000D01*
X183855000Y-84460714D01*
X183890714Y-84532142D01*
X183890714Y-84639285D01*
X183855000Y-84710714D01*
X183819285Y-84746428D01*
X183747857Y-84782142D01*
X183462142Y-84782142D01*
X184497857Y-85103571D02*
X184426428Y-85139285D01*
X184283571Y-85139285D01*
X184212142Y-85103571D01*
X184176428Y-85032142D01*
X184176428Y-84746428D01*
X184212142Y-84675000D01*
X184283571Y-84639285D01*
X184426428Y-84639285D01*
X184497857Y-84675000D01*
X184533571Y-84746428D01*
X184533571Y-84817857D01*
X184176428Y-84889285D01*
X184819285Y-85103571D02*
X184890714Y-85139285D01*
X185033571Y-85139285D01*
X185105000Y-85103571D01*
X185140714Y-85032142D01*
X185140714Y-84996428D01*
X185105000Y-84925000D01*
X185033571Y-84889285D01*
X184926428Y-84889285D01*
X184855000Y-84853571D01*
X184819285Y-84782142D01*
X184819285Y-84746428D01*
X184855000Y-84675000D01*
X184926428Y-84639285D01*
X185033571Y-84639285D01*
X185105000Y-84675000D01*
X185462142Y-85139285D02*
X185462142Y-84639285D01*
X185462142Y-84389285D02*
X185426428Y-84425000D01*
X185462142Y-84460714D01*
X185497857Y-84425000D01*
X185462142Y-84389285D01*
X185462142Y-84460714D01*
X185783571Y-85103571D02*
X185855000Y-85139285D01*
X185997857Y-85139285D01*
X186069285Y-85103571D01*
X186105000Y-85032142D01*
X186105000Y-84996428D01*
X186069285Y-84925000D01*
X185997857Y-84889285D01*
X185890714Y-84889285D01*
X185819285Y-84853571D01*
X185783571Y-84782142D01*
X185783571Y-84746428D01*
X185819285Y-84675000D01*
X185890714Y-84639285D01*
X185997857Y-84639285D01*
X186069285Y-84675000D01*
X186319285Y-84639285D02*
X186605000Y-84639285D01*
X186426428Y-84389285D02*
X186426428Y-85032142D01*
X186462142Y-85103571D01*
X186533571Y-85139285D01*
X186605000Y-85139285D01*
X186962142Y-85139285D02*
X186890714Y-85103571D01*
X186855000Y-85067857D01*
X186819285Y-84996428D01*
X186819285Y-84782142D01*
X186855000Y-84710714D01*
X186890714Y-84675000D01*
X186962142Y-84639285D01*
X187069285Y-84639285D01*
X187140714Y-84675000D01*
X187176428Y-84710714D01*
X187212142Y-84782142D01*
X187212142Y-84996428D01*
X187176428Y-85067857D01*
X187140714Y-85103571D01*
X187069285Y-85139285D01*
X186962142Y-85139285D01*
X187533571Y-85139285D02*
X187533571Y-84639285D01*
X187533571Y-84782142D02*
X187569285Y-84710714D01*
X187605000Y-84675000D01*
X187676428Y-84639285D01*
X187747857Y-84639285D01*
X179589285Y-64892857D02*
X179232142Y-65142857D01*
X179589285Y-65321428D02*
X178839285Y-65321428D01*
X178839285Y-65035714D01*
X178875000Y-64964285D01*
X178910714Y-64928571D01*
X178982142Y-64892857D01*
X179089285Y-64892857D01*
X179160714Y-64928571D01*
X179196428Y-64964285D01*
X179232142Y-65035714D01*
X179232142Y-65321428D01*
X179589285Y-64571428D02*
X178839285Y-64571428D01*
X179589285Y-64142857D02*
X179160714Y-64464285D01*
X178839285Y-64142857D02*
X179267857Y-64571428D01*
X178875000Y-63428571D02*
X178839285Y-63500000D01*
X178839285Y-63607142D01*
X178875000Y-63714285D01*
X178946428Y-63785714D01*
X179017857Y-63821428D01*
X179160714Y-63857142D01*
X179267857Y-63857142D01*
X179410714Y-63821428D01*
X179482142Y-63785714D01*
X179553571Y-63714285D01*
X179589285Y-63607142D01*
X179589285Y-63535714D01*
X179553571Y-63428571D01*
X179517857Y-63392857D01*
X179267857Y-63392857D01*
X179267857Y-63535714D01*
X179196428Y-62821428D02*
X179232142Y-62714285D01*
X179267857Y-62678571D01*
X179339285Y-62642857D01*
X179446428Y-62642857D01*
X179517857Y-62678571D01*
X179553571Y-62714285D01*
X179589285Y-62785714D01*
X179589285Y-63071428D01*
X178839285Y-63071428D01*
X178839285Y-62821428D01*
X178875000Y-62750000D01*
X178910714Y-62714285D01*
X178982142Y-62678571D01*
X179053571Y-62678571D01*
X179125000Y-62714285D01*
X179160714Y-62750000D01*
X179196428Y-62821428D01*
X179196428Y-63071428D01*
X184465456Y-69689285D02*
X184215456Y-69332142D01*
X184036884Y-69689285D02*
X184036884Y-68939285D01*
X184322599Y-68939285D01*
X184394027Y-68975000D01*
X184429741Y-69010714D01*
X184465456Y-69082142D01*
X184465456Y-69189285D01*
X184429741Y-69260714D01*
X184394027Y-69296428D01*
X184322599Y-69332142D01*
X184036884Y-69332142D01*
X185215456Y-69617857D02*
X185179741Y-69653571D01*
X185072599Y-69689285D01*
X185001170Y-69689285D01*
X184894027Y-69653571D01*
X184822599Y-69582142D01*
X184786884Y-69510714D01*
X184751170Y-69367857D01*
X184751170Y-69260714D01*
X184786884Y-69117857D01*
X184822599Y-69046428D01*
X184894027Y-68975000D01*
X185001170Y-68939285D01*
X185072599Y-68939285D01*
X185179741Y-68975000D01*
X185215456Y-69010714D01*
X186536884Y-69617857D02*
X186501170Y-69653571D01*
X186394027Y-69689285D01*
X186322599Y-69689285D01*
X186215456Y-69653571D01*
X186144027Y-69582142D01*
X186108313Y-69510714D01*
X186072599Y-69367857D01*
X186072599Y-69260714D01*
X186108313Y-69117857D01*
X186144027Y-69046428D01*
X186215456Y-68975000D01*
X186322599Y-68939285D01*
X186394027Y-68939285D01*
X186501170Y-68975000D01*
X186536884Y-69010714D01*
X187179741Y-69689285D02*
X187179741Y-69296428D01*
X187144027Y-69225000D01*
X187072599Y-69189285D01*
X186929741Y-69189285D01*
X186858313Y-69225000D01*
X187179741Y-69653571D02*
X187108313Y-69689285D01*
X186929741Y-69689285D01*
X186858313Y-69653571D01*
X186822599Y-69582142D01*
X186822599Y-69510714D01*
X186858313Y-69439285D01*
X186929741Y-69403571D01*
X187108313Y-69403571D01*
X187179741Y-69367857D01*
X187536884Y-69189285D02*
X187536884Y-69939285D01*
X187536884Y-69225000D02*
X187608313Y-69189285D01*
X187751170Y-69189285D01*
X187822599Y-69225000D01*
X187858313Y-69260714D01*
X187894027Y-69332142D01*
X187894027Y-69546428D01*
X187858313Y-69617857D01*
X187822599Y-69653571D01*
X187751170Y-69689285D01*
X187608313Y-69689285D01*
X187536884Y-69653571D01*
X188536884Y-69689285D02*
X188536884Y-69296428D01*
X188501170Y-69225000D01*
X188429741Y-69189285D01*
X188286884Y-69189285D01*
X188215456Y-69225000D01*
X188536884Y-69653571D02*
X188465456Y-69689285D01*
X188286884Y-69689285D01*
X188215456Y-69653571D01*
X188179741Y-69582142D01*
X188179741Y-69510714D01*
X188215456Y-69439285D01*
X188286884Y-69403571D01*
X188465456Y-69403571D01*
X188536884Y-69367857D01*
X189215456Y-69653571D02*
X189144027Y-69689285D01*
X189001170Y-69689285D01*
X188929741Y-69653571D01*
X188894027Y-69617857D01*
X188858313Y-69546428D01*
X188858313Y-69332142D01*
X188894027Y-69260714D01*
X188929741Y-69225000D01*
X189001170Y-69189285D01*
X189144027Y-69189285D01*
X189215456Y-69225000D01*
X189536884Y-69689285D02*
X189536884Y-69189285D01*
X189536884Y-68939285D02*
X189501170Y-68975000D01*
X189536884Y-69010714D01*
X189572599Y-68975000D01*
X189536884Y-68939285D01*
X189536884Y-69010714D01*
X189786884Y-69189285D02*
X190072599Y-69189285D01*
X189894027Y-68939285D02*
X189894027Y-69582142D01*
X189929741Y-69653571D01*
X190001170Y-69689285D01*
X190072599Y-69689285D01*
X190429741Y-69689285D02*
X190358313Y-69653571D01*
X190322599Y-69617857D01*
X190286884Y-69546428D01*
X190286884Y-69332142D01*
X190322599Y-69260714D01*
X190358313Y-69225000D01*
X190429741Y-69189285D01*
X190536884Y-69189285D01*
X190608313Y-69225000D01*
X190644027Y-69260714D01*
X190679741Y-69332142D01*
X190679741Y-69546428D01*
X190644027Y-69617857D01*
X190608313Y-69653571D01*
X190536884Y-69689285D01*
X190429741Y-69689285D01*
X191001170Y-69689285D02*
X191001170Y-69189285D01*
X191001170Y-69332142D02*
X191036884Y-69260714D01*
X191072599Y-69225000D01*
X191144027Y-69189285D01*
X191215456Y-69189285D01*
X178783571Y-75139285D02*
X178533571Y-74782142D01*
X178355000Y-75139285D02*
X178355000Y-74389285D01*
X178640714Y-74389285D01*
X178712142Y-74425000D01*
X178747857Y-74460714D01*
X178783571Y-74532142D01*
X178783571Y-74639285D01*
X178747857Y-74710714D01*
X178712142Y-74746428D01*
X178640714Y-74782142D01*
X178355000Y-74782142D01*
X179533571Y-75067857D02*
X179497857Y-75103571D01*
X179390714Y-75139285D01*
X179319285Y-75139285D01*
X179212142Y-75103571D01*
X179140714Y-75032142D01*
X179105000Y-74960714D01*
X179069285Y-74817857D01*
X179069285Y-74710714D01*
X179105000Y-74567857D01*
X179140714Y-74496428D01*
X179212142Y-74425000D01*
X179319285Y-74389285D01*
X179390714Y-74389285D01*
X179497857Y-74425000D01*
X179533571Y-74460714D01*
X180855000Y-75139285D02*
X180605000Y-74782142D01*
X180426428Y-75139285D02*
X180426428Y-74389285D01*
X180712142Y-74389285D01*
X180783571Y-74425000D01*
X180819285Y-74460714D01*
X180855000Y-74532142D01*
X180855000Y-74639285D01*
X180819285Y-74710714D01*
X180783571Y-74746428D01*
X180712142Y-74782142D01*
X180426428Y-74782142D01*
X181462142Y-75103571D02*
X181390714Y-75139285D01*
X181247857Y-75139285D01*
X181176428Y-75103571D01*
X181140714Y-75032142D01*
X181140714Y-74746428D01*
X181176428Y-74675000D01*
X181247857Y-74639285D01*
X181390714Y-74639285D01*
X181462142Y-74675000D01*
X181497857Y-74746428D01*
X181497857Y-74817857D01*
X181140714Y-74889285D01*
X181783571Y-75103571D02*
X181855000Y-75139285D01*
X181997857Y-75139285D01*
X182069285Y-75103571D01*
X182105000Y-75032142D01*
X182105000Y-74996428D01*
X182069285Y-74925000D01*
X181997857Y-74889285D01*
X181890714Y-74889285D01*
X181819285Y-74853571D01*
X181783571Y-74782142D01*
X181783571Y-74746428D01*
X181819285Y-74675000D01*
X181890714Y-74639285D01*
X181997857Y-74639285D01*
X182069285Y-74675000D01*
X182426428Y-75139285D02*
X182426428Y-74639285D01*
X182426428Y-74389285D02*
X182390714Y-74425000D01*
X182426428Y-74460714D01*
X182462142Y-74425000D01*
X182426428Y-74389285D01*
X182426428Y-74460714D01*
X182747857Y-75103571D02*
X182819285Y-75139285D01*
X182962142Y-75139285D01*
X183033571Y-75103571D01*
X183069285Y-75032142D01*
X183069285Y-74996428D01*
X183033571Y-74925000D01*
X182962142Y-74889285D01*
X182855000Y-74889285D01*
X182783571Y-74853571D01*
X182747857Y-74782142D01*
X182747857Y-74746428D01*
X182783571Y-74675000D01*
X182855000Y-74639285D01*
X182962142Y-74639285D01*
X183033571Y-74675000D01*
X183283571Y-74639285D02*
X183569285Y-74639285D01*
X183390714Y-74389285D02*
X183390714Y-75032142D01*
X183426428Y-75103571D01*
X183497857Y-75139285D01*
X183569285Y-75139285D01*
X183926428Y-75139285D02*
X183855000Y-75103571D01*
X183819285Y-75067857D01*
X183783571Y-74996428D01*
X183783571Y-74782142D01*
X183819285Y-74710714D01*
X183855000Y-74675000D01*
X183926428Y-74639285D01*
X184033571Y-74639285D01*
X184105000Y-74675000D01*
X184140714Y-74710714D01*
X184176428Y-74782142D01*
X184176428Y-74996428D01*
X184140714Y-75067857D01*
X184105000Y-75103571D01*
X184033571Y-75139285D01*
X183926428Y-75139285D01*
X184497857Y-75139285D02*
X184497857Y-74639285D01*
X184497857Y-74782142D02*
X184533571Y-74710714D01*
X184569285Y-74675000D01*
X184640714Y-74639285D01*
X184712142Y-74639285D01*
X175997857Y-100817857D02*
X175962142Y-100853571D01*
X175855000Y-100889285D01*
X175783571Y-100889285D01*
X175676428Y-100853571D01*
X175605000Y-100782142D01*
X175569285Y-100710714D01*
X175533571Y-100567857D01*
X175533571Y-100460714D01*
X175569285Y-100317857D01*
X175605000Y-100246428D01*
X175676428Y-100175000D01*
X175783571Y-100139285D01*
X175855000Y-100139285D01*
X175962142Y-100175000D01*
X175997857Y-100210714D01*
X176319285Y-100889285D02*
X176319285Y-100139285D01*
X176640714Y-100889285D02*
X176640714Y-100496428D01*
X176605000Y-100425000D01*
X176533571Y-100389285D01*
X176426428Y-100389285D01*
X176355000Y-100425000D01*
X176319285Y-100460714D01*
X177319285Y-100889285D02*
X177319285Y-100496428D01*
X177283571Y-100425000D01*
X177212142Y-100389285D01*
X177069285Y-100389285D01*
X176997857Y-100425000D01*
X177319285Y-100853571D02*
X177247857Y-100889285D01*
X177069285Y-100889285D01*
X176997857Y-100853571D01*
X176962142Y-100782142D01*
X176962142Y-100710714D01*
X176997857Y-100639285D01*
X177069285Y-100603571D01*
X177247857Y-100603571D01*
X177319285Y-100567857D01*
X177676428Y-100889285D02*
X177676428Y-100389285D01*
X177676428Y-100532142D02*
X177712142Y-100460714D01*
X177747857Y-100425000D01*
X177819285Y-100389285D01*
X177890714Y-100389285D01*
X178247857Y-100889285D02*
X178176428Y-100853571D01*
X178140714Y-100782142D01*
X178140714Y-100139285D01*
X178533571Y-100889285D02*
X178533571Y-100389285D01*
X178533571Y-100139285D02*
X178497857Y-100175000D01*
X178533571Y-100210714D01*
X178569285Y-100175000D01*
X178533571Y-100139285D01*
X178533571Y-100210714D01*
X179176428Y-100853571D02*
X179105000Y-100889285D01*
X178962142Y-100889285D01*
X178890714Y-100853571D01*
X178855000Y-100782142D01*
X178855000Y-100496428D01*
X178890714Y-100425000D01*
X178962142Y-100389285D01*
X179105000Y-100389285D01*
X179176428Y-100425000D01*
X179212142Y-100496428D01*
X179212142Y-100567857D01*
X178855000Y-100639285D01*
X179533571Y-100889285D02*
X179533571Y-100139285D01*
X179819285Y-100139285D01*
X179890714Y-100175000D01*
X179926428Y-100210714D01*
X179962142Y-100282142D01*
X179962142Y-100389285D01*
X179926428Y-100460714D01*
X179890714Y-100496428D01*
X179819285Y-100532142D01*
X179533571Y-100532142D01*
X180390714Y-100889285D02*
X180319285Y-100853571D01*
X180283571Y-100782142D01*
X180283571Y-100139285D01*
X180962142Y-100853571D02*
X180890714Y-100889285D01*
X180747857Y-100889285D01*
X180676428Y-100853571D01*
X180640714Y-100782142D01*
X180640714Y-100496428D01*
X180676428Y-100425000D01*
X180747857Y-100389285D01*
X180890714Y-100389285D01*
X180962142Y-100425000D01*
X180997857Y-100496428D01*
X180997857Y-100567857D01*
X180640714Y-100639285D01*
X181247857Y-100889285D02*
X181640714Y-100389285D01*
X181247857Y-100389285D02*
X181640714Y-100889285D01*
X182247857Y-100389285D02*
X182247857Y-100889285D01*
X182069285Y-100103571D02*
X181890714Y-100639285D01*
X182355000Y-100639285D01*
X183640714Y-100889285D02*
X183390714Y-100532142D01*
X183212142Y-100889285D02*
X183212142Y-100139285D01*
X183497857Y-100139285D01*
X183569285Y-100175000D01*
X183605000Y-100210714D01*
X183640714Y-100282142D01*
X183640714Y-100389285D01*
X183605000Y-100460714D01*
X183569285Y-100496428D01*
X183497857Y-100532142D01*
X183212142Y-100532142D01*
X184247857Y-100853571D02*
X184176428Y-100889285D01*
X184033571Y-100889285D01*
X183962142Y-100853571D01*
X183926428Y-100782142D01*
X183926428Y-100496428D01*
X183962142Y-100425000D01*
X184033571Y-100389285D01*
X184176428Y-100389285D01*
X184247857Y-100425000D01*
X184283571Y-100496428D01*
X184283571Y-100567857D01*
X183926428Y-100639285D01*
X184569285Y-100853571D02*
X184640714Y-100889285D01*
X184783571Y-100889285D01*
X184855000Y-100853571D01*
X184890714Y-100782142D01*
X184890714Y-100746428D01*
X184855000Y-100675000D01*
X184783571Y-100639285D01*
X184676428Y-100639285D01*
X184605000Y-100603571D01*
X184569285Y-100532142D01*
X184569285Y-100496428D01*
X184605000Y-100425000D01*
X184676428Y-100389285D01*
X184783571Y-100389285D01*
X184855000Y-100425000D01*
X185212142Y-100889285D02*
X185212142Y-100389285D01*
X185212142Y-100139285D02*
X185176428Y-100175000D01*
X185212142Y-100210714D01*
X185247857Y-100175000D01*
X185212142Y-100139285D01*
X185212142Y-100210714D01*
X185533571Y-100853571D02*
X185605000Y-100889285D01*
X185747857Y-100889285D01*
X185819285Y-100853571D01*
X185855000Y-100782142D01*
X185855000Y-100746428D01*
X185819285Y-100675000D01*
X185747857Y-100639285D01*
X185640714Y-100639285D01*
X185569285Y-100603571D01*
X185533571Y-100532142D01*
X185533571Y-100496428D01*
X185569285Y-100425000D01*
X185640714Y-100389285D01*
X185747857Y-100389285D01*
X185819285Y-100425000D01*
X186069285Y-100389285D02*
X186355000Y-100389285D01*
X186176428Y-100139285D02*
X186176428Y-100782142D01*
X186212142Y-100853571D01*
X186283571Y-100889285D01*
X186355000Y-100889285D01*
X186712142Y-100889285D02*
X186640714Y-100853571D01*
X186605000Y-100817857D01*
X186569285Y-100746428D01*
X186569285Y-100532142D01*
X186605000Y-100460714D01*
X186640714Y-100425000D01*
X186712142Y-100389285D01*
X186819285Y-100389285D01*
X186890714Y-100425000D01*
X186926428Y-100460714D01*
X186962142Y-100532142D01*
X186962142Y-100746428D01*
X186926428Y-100817857D01*
X186890714Y-100853571D01*
X186819285Y-100889285D01*
X186712142Y-100889285D01*
X187283571Y-100889285D02*
X187283571Y-100389285D01*
X187283571Y-100532142D02*
X187319285Y-100460714D01*
X187355000Y-100425000D01*
X187426428Y-100389285D01*
X187497857Y-100389285D01*
%TO.C,Spike_LED*%
X175089285Y-68303571D02*
X175196428Y-68339285D01*
X175375000Y-68339285D01*
X175446428Y-68303571D01*
X175482142Y-68267857D01*
X175517857Y-68196428D01*
X175517857Y-68125000D01*
X175482142Y-68053571D01*
X175446428Y-68017857D01*
X175375000Y-67982142D01*
X175232142Y-67946428D01*
X175160714Y-67910714D01*
X175125000Y-67875000D01*
X175089285Y-67803571D01*
X175089285Y-67732142D01*
X175125000Y-67660714D01*
X175160714Y-67625000D01*
X175232142Y-67589285D01*
X175410714Y-67589285D01*
X175517857Y-67625000D01*
X175839285Y-67839285D02*
X175839285Y-68589285D01*
X175839285Y-67875000D02*
X175910714Y-67839285D01*
X176053571Y-67839285D01*
X176125000Y-67875000D01*
X176160714Y-67910714D01*
X176196428Y-67982142D01*
X176196428Y-68196428D01*
X176160714Y-68267857D01*
X176125000Y-68303571D01*
X176053571Y-68339285D01*
X175910714Y-68339285D01*
X175839285Y-68303571D01*
X176517857Y-68339285D02*
X176517857Y-67839285D01*
X176517857Y-67589285D02*
X176482142Y-67625000D01*
X176517857Y-67660714D01*
X176553571Y-67625000D01*
X176517857Y-67589285D01*
X176517857Y-67660714D01*
X176875000Y-68339285D02*
X176875000Y-67589285D01*
X176946428Y-68053571D02*
X177160714Y-68339285D01*
X177160714Y-67839285D02*
X176875000Y-68125000D01*
X177767857Y-68303571D02*
X177696428Y-68339285D01*
X177553571Y-68339285D01*
X177482142Y-68303571D01*
X177446428Y-68232142D01*
X177446428Y-67946428D01*
X177482142Y-67875000D01*
X177553571Y-67839285D01*
X177696428Y-67839285D01*
X177767857Y-67875000D01*
X177803571Y-67946428D01*
X177803571Y-68017857D01*
X177446428Y-68089285D01*
X177946428Y-68410714D02*
X178517857Y-68410714D01*
X179053571Y-68339285D02*
X178696428Y-68339285D01*
X178696428Y-67589285D01*
X179303571Y-67946428D02*
X179553571Y-67946428D01*
X179660714Y-68339285D02*
X179303571Y-68339285D01*
X179303571Y-67589285D01*
X179660714Y-67589285D01*
X179982142Y-68339285D02*
X179982142Y-67589285D01*
X180160714Y-67589285D01*
X180267857Y-67625000D01*
X180339285Y-67696428D01*
X180375000Y-67767857D01*
X180410714Y-67910714D01*
X180410714Y-68017857D01*
X180375000Y-68160714D01*
X180339285Y-68232142D01*
X180267857Y-68303571D01*
X180160714Y-68339285D01*
X179982142Y-68339285D01*
D11*
%TO.C, *%
D10*
%TO.C,6*%
X191412857Y-79629285D02*
X191270000Y-79629285D01*
X191198571Y-79665000D01*
X191162857Y-79700714D01*
X191091428Y-79807857D01*
X191055714Y-79950714D01*
X191055714Y-80236428D01*
X191091428Y-80307857D01*
X191127142Y-80343571D01*
X191198571Y-80379285D01*
X191341428Y-80379285D01*
X191412857Y-80343571D01*
X191448571Y-80307857D01*
X191484285Y-80236428D01*
X191484285Y-80057857D01*
X191448571Y-79986428D01*
X191412857Y-79950714D01*
X191341428Y-79915000D01*
X191198571Y-79915000D01*
X191127142Y-79950714D01*
X191091428Y-79986428D01*
X191055714Y-80057857D01*
%TO.C,1*%
X191484285Y-110379285D02*
X191055714Y-110379285D01*
X191270000Y-110379285D02*
X191270000Y-109629285D01*
X191198571Y-109736428D01*
X191127142Y-109807857D01*
X191055714Y-109843571D01*
%TO.C,10k\u03A9*%
X180605000Y-103639285D02*
X180176428Y-103639285D01*
X180390714Y-103639285D02*
X180390714Y-102889285D01*
X180319285Y-102996428D01*
X180247857Y-103067857D01*
X180176428Y-103103571D01*
X181069285Y-102889285D02*
X181140714Y-102889285D01*
X181212142Y-102925000D01*
X181247857Y-102960714D01*
X181283571Y-103032142D01*
X181319285Y-103175000D01*
X181319285Y-103353571D01*
X181283571Y-103496428D01*
X181247857Y-103567857D01*
X181212142Y-103603571D01*
X181140714Y-103639285D01*
X181069285Y-103639285D01*
X180997857Y-103603571D01*
X180962142Y-103567857D01*
X180926428Y-103496428D01*
X180890714Y-103353571D01*
X180890714Y-103175000D01*
X180926428Y-103032142D01*
X180962142Y-102960714D01*
X180997857Y-102925000D01*
X181069285Y-102889285D01*
X181640714Y-103639285D02*
X181640714Y-102889285D01*
X181712142Y-103353571D02*
X181926428Y-103639285D01*
X181926428Y-103139285D02*
X181640714Y-103425000D01*
X182212142Y-103639285D02*
X182390714Y-103639285D01*
X182390714Y-103496428D01*
X182319285Y-103460714D01*
X182247857Y-103389285D01*
X182212142Y-103282142D01*
X182212142Y-103103571D01*
X182247857Y-102996428D01*
X182319285Y-102925000D01*
X182426428Y-102889285D01*
X182569285Y-102889285D01*
X182676428Y-102925000D01*
X182747857Y-102996428D01*
X182783571Y-103103571D01*
X182783571Y-103282142D01*
X182747857Y-103389285D01*
X182676428Y-103460714D01*
X182605000Y-103496428D01*
X182605000Y-103639285D01*
X182783571Y-103639285D01*
%TO.C,MCP3208*%
X131881428Y-87134285D02*
X131881428Y-86384285D01*
X132131428Y-86920000D01*
X132381428Y-86384285D01*
X132381428Y-87134285D01*
X133167142Y-87062857D02*
X133131428Y-87098571D01*
X133024285Y-87134285D01*
X132952857Y-87134285D01*
X132845714Y-87098571D01*
X132774285Y-87027142D01*
X132738571Y-86955714D01*
X132702857Y-86812857D01*
X132702857Y-86705714D01*
X132738571Y-86562857D01*
X132774285Y-86491428D01*
X132845714Y-86420000D01*
X132952857Y-86384285D01*
X133024285Y-86384285D01*
X133131428Y-86420000D01*
X133167142Y-86455714D01*
X133488571Y-87134285D02*
X133488571Y-86384285D01*
X133774285Y-86384285D01*
X133845714Y-86420000D01*
X133881428Y-86455714D01*
X133917142Y-86527142D01*
X133917142Y-86634285D01*
X133881428Y-86705714D01*
X133845714Y-86741428D01*
X133774285Y-86777142D01*
X133488571Y-86777142D01*
X134167142Y-86384285D02*
X134631428Y-86384285D01*
X134381428Y-86670000D01*
X134488571Y-86670000D01*
X134560000Y-86705714D01*
X134595714Y-86741428D01*
X134631428Y-86812857D01*
X134631428Y-86991428D01*
X134595714Y-87062857D01*
X134560000Y-87098571D01*
X134488571Y-87134285D01*
X134274285Y-87134285D01*
X134202857Y-87098571D01*
X134167142Y-87062857D01*
X134917142Y-86455714D02*
X134952857Y-86420000D01*
X135024285Y-86384285D01*
X135202857Y-86384285D01*
X135274285Y-86420000D01*
X135310000Y-86455714D01*
X135345714Y-86527142D01*
X135345714Y-86598571D01*
X135310000Y-86705714D01*
X134881428Y-87134285D01*
X135345714Y-87134285D01*
X135810000Y-86384285D02*
X135881428Y-86384285D01*
X135952857Y-86420000D01*
X135988571Y-86455714D01*
X136024285Y-86527142D01*
X136060000Y-86670000D01*
X136060000Y-86848571D01*
X136024285Y-86991428D01*
X135988571Y-87062857D01*
X135952857Y-87098571D01*
X135881428Y-87134285D01*
X135810000Y-87134285D01*
X135738571Y-87098571D01*
X135702857Y-87062857D01*
X135667142Y-86991428D01*
X135631428Y-86848571D01*
X135631428Y-86670000D01*
X135667142Y-86527142D01*
X135702857Y-86455714D01*
X135738571Y-86420000D01*
X135810000Y-86384285D01*
X136488571Y-86705714D02*
X136417142Y-86670000D01*
X136381428Y-86634285D01*
X136345714Y-86562857D01*
X136345714Y-86527142D01*
X136381428Y-86455714D01*
X136417142Y-86420000D01*
X136488571Y-86384285D01*
X136631428Y-86384285D01*
X136702857Y-86420000D01*
X136738571Y-86455714D01*
X136774285Y-86527142D01*
X136774285Y-86562857D01*
X136738571Y-86634285D01*
X136702857Y-86670000D01*
X136631428Y-86705714D01*
X136488571Y-86705714D01*
X136417142Y-86741428D01*
X136381428Y-86777142D01*
X136345714Y-86848571D01*
X136345714Y-86991428D01*
X136381428Y-87062857D01*
X136417142Y-87098571D01*
X136488571Y-87134285D01*
X136631428Y-87134285D01*
X136702857Y-87098571D01*
X136738571Y-87062857D01*
X136774285Y-86991428D01*
X136774285Y-86848571D01*
X136738571Y-86777142D01*
X136702857Y-86741428D01*
X136631428Y-86705714D01*
D11*
%TO.C,Stimulus*%
X210202380Y-112154761D02*
X210345238Y-112202380D01*
X210583333Y-112202380D01*
X210678571Y-112154761D01*
X210726190Y-112107142D01*
X210773809Y-112011904D01*
X210773809Y-111916666D01*
X210726190Y-111821428D01*
X210678571Y-111773809D01*
X210583333Y-111726190D01*
X210392857Y-111678571D01*
X210297619Y-111630952D01*
X210250000Y-111583333D01*
X210202380Y-111488095D01*
X210202380Y-111392857D01*
X210250000Y-111297619D01*
X210297619Y-111250000D01*
X210392857Y-111202380D01*
X210630952Y-111202380D01*
X210773809Y-111250000D01*
X211059523Y-111535714D02*
X211440476Y-111535714D01*
X211202380Y-111202380D02*
X211202380Y-112059523D01*
X211250000Y-112154761D01*
X211345238Y-112202380D01*
X211440476Y-112202380D01*
X211773809Y-112202380D02*
X211773809Y-111535714D01*
X211773809Y-111202380D02*
X211726190Y-111250000D01*
X211773809Y-111297619D01*
X211821428Y-111250000D01*
X211773809Y-111202380D01*
X211773809Y-111297619D01*
X212250000Y-112202380D02*
X212250000Y-111535714D01*
X212250000Y-111630952D02*
X212297619Y-111583333D01*
X212392857Y-111535714D01*
X212535714Y-111535714D01*
X212630952Y-111583333D01*
X212678571Y-111678571D01*
X212678571Y-112202380D01*
X212678571Y-111678571D02*
X212726190Y-111583333D01*
X212821428Y-111535714D01*
X212964285Y-111535714D01*
X213059523Y-111583333D01*
X213107142Y-111678571D01*
X213107142Y-112202380D01*
X214011904Y-111535714D02*
X214011904Y-112202380D01*
X213583333Y-111535714D02*
X213583333Y-112059523D01*
X213630952Y-112154761D01*
X213726190Y-112202380D01*
X213869047Y-112202380D01*
X213964285Y-112154761D01*
X214011904Y-112107142D01*
X214630952Y-112202380D02*
X214535714Y-112154761D01*
X214488095Y-112059523D01*
X214488095Y-111202380D01*
X215440476Y-111535714D02*
X215440476Y-112202380D01*
X215011904Y-111535714D02*
X215011904Y-112059523D01*
X215059523Y-112154761D01*
X215154761Y-112202380D01*
X215297619Y-112202380D01*
X215392857Y-112154761D01*
X215440476Y-112107142D01*
X215869047Y-112154761D02*
X215964285Y-112202380D01*
X216154761Y-112202380D01*
X216250000Y-112154761D01*
X216297619Y-112059523D01*
X216297619Y-112011904D01*
X216250000Y-111916666D01*
X216154761Y-111869047D01*
X216011904Y-111869047D01*
X215916666Y-111821428D01*
X215869047Y-111726190D01*
X215869047Y-111678571D01*
X215916666Y-111583333D01*
X216011904Y-111535714D01*
X216154761Y-111535714D01*
X216250000Y-111583333D01*
%TO.C,Noise*%
X171790476Y-115102380D02*
X171790476Y-114102380D01*
X172361904Y-115102380D01*
X172361904Y-114102380D01*
X172980952Y-115102380D02*
X172885714Y-115054761D01*
X172838095Y-115007142D01*
X172790476Y-114911904D01*
X172790476Y-114626190D01*
X172838095Y-114530952D01*
X172885714Y-114483333D01*
X172980952Y-114435714D01*
X173123809Y-114435714D01*
X173219047Y-114483333D01*
X173266666Y-114530952D01*
X173314285Y-114626190D01*
X173314285Y-114911904D01*
X173266666Y-115007142D01*
X173219047Y-115054761D01*
X173123809Y-115102380D01*
X172980952Y-115102380D01*
X173742857Y-115102380D02*
X173742857Y-114435714D01*
X173742857Y-114102380D02*
X173695238Y-114150000D01*
X173742857Y-114197619D01*
X173790476Y-114150000D01*
X173742857Y-114102380D01*
X173742857Y-114197619D01*
X174171428Y-115054761D02*
X174266666Y-115102380D01*
X174457142Y-115102380D01*
X174552380Y-115054761D01*
X174600000Y-114959523D01*
X174600000Y-114911904D01*
X174552380Y-114816666D01*
X174457142Y-114769047D01*
X174314285Y-114769047D01*
X174219047Y-114721428D01*
X174171428Y-114626190D01*
X174171428Y-114578571D01*
X174219047Y-114483333D01*
X174314285Y-114435714D01*
X174457142Y-114435714D01*
X174552380Y-114483333D01*
X175409523Y-115054761D02*
X175314285Y-115102380D01*
X175123809Y-115102380D01*
X175028571Y-115054761D01*
X174980952Y-114959523D01*
X174980952Y-114578571D01*
X175028571Y-114483333D01*
X175123809Y-114435714D01*
X175314285Y-114435714D01*
X175409523Y-114483333D01*
X175457142Y-114578571D01*
X175457142Y-114673809D01*
X174980952Y-114769047D01*
%TO.C,Synapse In 1*%
X113414285Y-61204761D02*
X113557142Y-61252380D01*
X113795238Y-61252380D01*
X113890476Y-61204761D01*
X113938095Y-61157142D01*
X113985714Y-61061904D01*
X113985714Y-60966666D01*
X113938095Y-60871428D01*
X113890476Y-60823809D01*
X113795238Y-60776190D01*
X113604761Y-60728571D01*
X113509523Y-60680952D01*
X113461904Y-60633333D01*
X113414285Y-60538095D01*
X113414285Y-60442857D01*
X113461904Y-60347619D01*
X113509523Y-60300000D01*
X113604761Y-60252380D01*
X113842857Y-60252380D01*
X113985714Y-60300000D01*
X114319047Y-60585714D02*
X114557142Y-61252380D01*
X114795238Y-60585714D02*
X114557142Y-61252380D01*
X114461904Y-61490476D01*
X114414285Y-61538095D01*
X114319047Y-61585714D01*
X115176190Y-60585714D02*
X115176190Y-61252380D01*
X115176190Y-60680952D02*
X115223809Y-60633333D01*
X115319047Y-60585714D01*
X115461904Y-60585714D01*
X115557142Y-60633333D01*
X115604761Y-60728571D01*
X115604761Y-61252380D01*
X116509523Y-61252380D02*
X116509523Y-60728571D01*
X116461904Y-60633333D01*
X116366666Y-60585714D01*
X116176190Y-60585714D01*
X116080952Y-60633333D01*
X116509523Y-61204761D02*
X116414285Y-61252380D01*
X116176190Y-61252380D01*
X116080952Y-61204761D01*
X116033333Y-61109523D01*
X116033333Y-61014285D01*
X116080952Y-60919047D01*
X116176190Y-60871428D01*
X116414285Y-60871428D01*
X116509523Y-60823809D01*
X116985714Y-60585714D02*
X116985714Y-61585714D01*
X116985714Y-60633333D02*
X117080952Y-60585714D01*
X117271428Y-60585714D01*
X117366666Y-60633333D01*
X117414285Y-60680952D01*
X117461904Y-60776190D01*
X117461904Y-61061904D01*
X117414285Y-61157142D01*
X117366666Y-61204761D01*
X117271428Y-61252380D01*
X117080952Y-61252380D01*
X116985714Y-61204761D01*
X117842857Y-61204761D02*
X117938095Y-61252380D01*
X118128571Y-61252380D01*
X118223809Y-61204761D01*
X118271428Y-61109523D01*
X118271428Y-61061904D01*
X118223809Y-60966666D01*
X118128571Y-60919047D01*
X117985714Y-60919047D01*
X117890476Y-60871428D01*
X117842857Y-60776190D01*
X117842857Y-60728571D01*
X117890476Y-60633333D01*
X117985714Y-60585714D01*
X118128571Y-60585714D01*
X118223809Y-60633333D01*
X119080952Y-61204761D02*
X118985714Y-61252380D01*
X118795238Y-61252380D01*
X118700000Y-61204761D01*
X118652380Y-61109523D01*
X118652380Y-60728571D01*
X118700000Y-60633333D01*
X118795238Y-60585714D01*
X118985714Y-60585714D01*
X119080952Y-60633333D01*
X119128571Y-60728571D01*
X119128571Y-60823809D01*
X118652380Y-60919047D01*
X120319047Y-61252380D02*
X120319047Y-60252380D01*
X120795238Y-60585714D02*
X120795238Y-61252380D01*
X120795238Y-60680952D02*
X120842857Y-60633333D01*
X120938095Y-60585714D01*
X121080952Y-60585714D01*
X121176190Y-60633333D01*
X121223809Y-60728571D01*
X121223809Y-61252380D01*
X122985714Y-61252380D02*
X122414285Y-61252380D01*
X122700000Y-61252380D02*
X122700000Y-60252380D01*
X122604761Y-60395238D01*
X122509523Y-60490476D01*
X122414285Y-60538095D01*
%TO.C,Synapse Out*%
X209500000Y-71404761D02*
X209642857Y-71452380D01*
X209880952Y-71452380D01*
X209976190Y-71404761D01*
X210023809Y-71357142D01*
X210071428Y-71261904D01*
X210071428Y-71166666D01*
X210023809Y-71071428D01*
X209976190Y-71023809D01*
X209880952Y-70976190D01*
X209690476Y-70928571D01*
X209595238Y-70880952D01*
X209547619Y-70833333D01*
X209500000Y-70738095D01*
X209500000Y-70642857D01*
X209547619Y-70547619D01*
X209595238Y-70500000D01*
X209690476Y-70452380D01*
X209928571Y-70452380D01*
X210071428Y-70500000D01*
X210404761Y-70785714D02*
X210642857Y-71452380D01*
X210880952Y-70785714D02*
X210642857Y-71452380D01*
X210547619Y-71690476D01*
X210500000Y-71738095D01*
X210404761Y-71785714D01*
X211261904Y-70785714D02*
X211261904Y-71452380D01*
X211261904Y-70880952D02*
X211309523Y-70833333D01*
X211404761Y-70785714D01*
X211547619Y-70785714D01*
X211642857Y-70833333D01*
X211690476Y-70928571D01*
X211690476Y-71452380D01*
X212595238Y-71452380D02*
X212595238Y-70928571D01*
X212547619Y-70833333D01*
X212452380Y-70785714D01*
X212261904Y-70785714D01*
X212166666Y-70833333D01*
X212595238Y-71404761D02*
X212500000Y-71452380D01*
X212261904Y-71452380D01*
X212166666Y-71404761D01*
X212119047Y-71309523D01*
X212119047Y-71214285D01*
X212166666Y-71119047D01*
X212261904Y-71071428D01*
X212500000Y-71071428D01*
X212595238Y-71023809D01*
X213071428Y-70785714D02*
X213071428Y-71785714D01*
X213071428Y-70833333D02*
X213166666Y-70785714D01*
X213357142Y-70785714D01*
X213452380Y-70833333D01*
X213500000Y-70880952D01*
X213547619Y-70976190D01*
X213547619Y-71261904D01*
X213500000Y-71357142D01*
X213452380Y-71404761D01*
X213357142Y-71452380D01*
X213166666Y-71452380D01*
X213071428Y-71404761D01*
X213928571Y-71404761D02*
X214023809Y-71452380D01*
X214214285Y-71452380D01*
X214309523Y-71404761D01*
X214357142Y-71309523D01*
X214357142Y-71261904D01*
X214309523Y-71166666D01*
X214214285Y-71119047D01*
X214071428Y-71119047D01*
X213976190Y-71071428D01*
X213928571Y-70976190D01*
X213928571Y-70928571D01*
X213976190Y-70833333D01*
X214071428Y-70785714D01*
X214214285Y-70785714D01*
X214309523Y-70833333D01*
X215166666Y-71404761D02*
X215071428Y-71452380D01*
X214880952Y-71452380D01*
X214785714Y-71404761D01*
X214738095Y-71309523D01*
X214738095Y-70928571D01*
X214785714Y-70833333D01*
X214880952Y-70785714D01*
X215071428Y-70785714D01*
X215166666Y-70833333D01*
X215214285Y-70928571D01*
X215214285Y-71023809D01*
X214738095Y-71119047D01*
X216595238Y-70452380D02*
X216785714Y-70452380D01*
X216880952Y-70500000D01*
X216976190Y-70595238D01*
X217023809Y-70785714D01*
X217023809Y-71119047D01*
X216976190Y-71309523D01*
X216880952Y-71404761D01*
X216785714Y-71452380D01*
X216595238Y-71452380D01*
X216500000Y-71404761D01*
X216404761Y-71309523D01*
X216357142Y-71119047D01*
X216357142Y-70785714D01*
X216404761Y-70595238D01*
X216500000Y-70500000D01*
X216595238Y-70452380D01*
X217880952Y-70785714D02*
X217880952Y-71452380D01*
X217452380Y-70785714D02*
X217452380Y-71309523D01*
X217500000Y-71404761D01*
X217595238Y-71452380D01*
X217738095Y-71452380D01*
X217833333Y-71404761D01*
X217880952Y-71357142D01*
X218214285Y-70785714D02*
X218595238Y-70785714D01*
X218357142Y-70452380D02*
X218357142Y-71309523D01*
X218404761Y-71404761D01*
X218500000Y-71452380D01*
X218595238Y-71452380D01*
%TO.C,Synapse1 Gain*%
X113042857Y-68604761D02*
X113185714Y-68652380D01*
X113423809Y-68652380D01*
X113519047Y-68604761D01*
X113566666Y-68557142D01*
X113614285Y-68461904D01*
X113614285Y-68366666D01*
X113566666Y-68271428D01*
X113519047Y-68223809D01*
X113423809Y-68176190D01*
X113233333Y-68128571D01*
X113138095Y-68080952D01*
X113090476Y-68033333D01*
X113042857Y-67938095D01*
X113042857Y-67842857D01*
X113090476Y-67747619D01*
X113138095Y-67700000D01*
X113233333Y-67652380D01*
X113471428Y-67652380D01*
X113614285Y-67700000D01*
X113947619Y-67985714D02*
X114185714Y-68652380D01*
X114423809Y-67985714D02*
X114185714Y-68652380D01*
X114090476Y-68890476D01*
X114042857Y-68938095D01*
X113947619Y-68985714D01*
X114804761Y-67985714D02*
X114804761Y-68652380D01*
X114804761Y-68080952D02*
X114852380Y-68033333D01*
X114947619Y-67985714D01*
X115090476Y-67985714D01*
X115185714Y-68033333D01*
X115233333Y-68128571D01*
X115233333Y-68652380D01*
X116138095Y-68652380D02*
X116138095Y-68128571D01*
X116090476Y-68033333D01*
X115995238Y-67985714D01*
X115804761Y-67985714D01*
X115709523Y-68033333D01*
X116138095Y-68604761D02*
X116042857Y-68652380D01*
X115804761Y-68652380D01*
X115709523Y-68604761D01*
X115661904Y-68509523D01*
X115661904Y-68414285D01*
X115709523Y-68319047D01*
X115804761Y-68271428D01*
X116042857Y-68271428D01*
X116138095Y-68223809D01*
X116614285Y-67985714D02*
X116614285Y-68985714D01*
X116614285Y-68033333D02*
X116709523Y-67985714D01*
X116900000Y-67985714D01*
X116995238Y-68033333D01*
X117042857Y-68080952D01*
X117090476Y-68176190D01*
X117090476Y-68461904D01*
X117042857Y-68557142D01*
X116995238Y-68604761D01*
X116900000Y-68652380D01*
X116709523Y-68652380D01*
X116614285Y-68604761D01*
X117471428Y-68604761D02*
X117566666Y-68652380D01*
X117757142Y-68652380D01*
X117852380Y-68604761D01*
X117900000Y-68509523D01*
X117900000Y-68461904D01*
X117852380Y-68366666D01*
X117757142Y-68319047D01*
X117614285Y-68319047D01*
X117519047Y-68271428D01*
X117471428Y-68176190D01*
X117471428Y-68128571D01*
X117519047Y-68033333D01*
X117614285Y-67985714D01*
X117757142Y-67985714D01*
X117852380Y-68033333D01*
X118709523Y-68604761D02*
X118614285Y-68652380D01*
X118423809Y-68652380D01*
X118328571Y-68604761D01*
X118280952Y-68509523D01*
X118280952Y-68128571D01*
X118328571Y-68033333D01*
X118423809Y-67985714D01*
X118614285Y-67985714D01*
X118709523Y-68033333D01*
X118757142Y-68128571D01*
X118757142Y-68223809D01*
X118280952Y-68319047D01*
X119709523Y-68652380D02*
X119138095Y-68652380D01*
X119423809Y-68652380D02*
X119423809Y-67652380D01*
X119328571Y-67795238D01*
X119233333Y-67890476D01*
X119138095Y-67938095D01*
X121423809Y-67700000D02*
X121328571Y-67652380D01*
X121185714Y-67652380D01*
X121042857Y-67700000D01*
X120947619Y-67795238D01*
X120900000Y-67890476D01*
X120852380Y-68080952D01*
X120852380Y-68223809D01*
X120900000Y-68414285D01*
X120947619Y-68509523D01*
X121042857Y-68604761D01*
X121185714Y-68652380D01*
X121280952Y-68652380D01*
X121423809Y-68604761D01*
X121471428Y-68557142D01*
X121471428Y-68223809D01*
X121280952Y-68223809D01*
X122328571Y-68652380D02*
X122328571Y-68128571D01*
X122280952Y-68033333D01*
X122185714Y-67985714D01*
X121995238Y-67985714D01*
X121900000Y-68033333D01*
X122328571Y-68604761D02*
X122233333Y-68652380D01*
X121995238Y-68652380D01*
X121900000Y-68604761D01*
X121852380Y-68509523D01*
X121852380Y-68414285D01*
X121900000Y-68319047D01*
X121995238Y-68271428D01*
X122233333Y-68271428D01*
X122328571Y-68223809D01*
X122804761Y-68652380D02*
X122804761Y-67985714D01*
X122804761Y-67652380D02*
X122757142Y-67700000D01*
X122804761Y-67747619D01*
X122852380Y-67700000D01*
X122804761Y-67652380D01*
X122804761Y-67747619D01*
X123280952Y-67985714D02*
X123280952Y-68652380D01*
X123280952Y-68080952D02*
X123328571Y-68033333D01*
X123423809Y-67985714D01*
X123566666Y-67985714D01*
X123661904Y-68033333D01*
X123709523Y-68128571D01*
X123709523Y-68652380D01*
D10*
%TO.C,3*%
X191020000Y-97629285D02*
X191484285Y-97629285D01*
X191234285Y-97915000D01*
X191341428Y-97915000D01*
X191412857Y-97950714D01*
X191448571Y-97986428D01*
X191484285Y-98057857D01*
X191484285Y-98236428D01*
X191448571Y-98307857D01*
X191412857Y-98343571D01*
X191341428Y-98379285D01*
X191127142Y-98379285D01*
X191055714Y-98343571D01*
X191020000Y-98307857D01*
D11*
%TO.C,Voltage Membrane*%
X114440476Y-113952380D02*
X114773809Y-114952380D01*
X115107142Y-113952380D01*
X115583333Y-114952380D02*
X115488095Y-114904761D01*
X115440476Y-114857142D01*
X115392857Y-114761904D01*
X115392857Y-114476190D01*
X115440476Y-114380952D01*
X115488095Y-114333333D01*
X115583333Y-114285714D01*
X115726190Y-114285714D01*
X115821428Y-114333333D01*
X115869047Y-114380952D01*
X115916666Y-114476190D01*
X115916666Y-114761904D01*
X115869047Y-114857142D01*
X115821428Y-114904761D01*
X115726190Y-114952380D01*
X115583333Y-114952380D01*
X116488095Y-114952380D02*
X116392857Y-114904761D01*
X116345238Y-114809523D01*
X116345238Y-113952380D01*
X116726190Y-114285714D02*
X117107142Y-114285714D01*
X116869047Y-113952380D02*
X116869047Y-114809523D01*
X116916666Y-114904761D01*
X117011904Y-114952380D01*
X117107142Y-114952380D01*
X117869047Y-114952380D02*
X117869047Y-114428571D01*
X117821428Y-114333333D01*
X117726190Y-114285714D01*
X117535714Y-114285714D01*
X117440476Y-114333333D01*
X117869047Y-114904761D02*
X117773809Y-114952380D01*
X117535714Y-114952380D01*
X117440476Y-114904761D01*
X117392857Y-114809523D01*
X117392857Y-114714285D01*
X117440476Y-114619047D01*
X117535714Y-114571428D01*
X117773809Y-114571428D01*
X117869047Y-114523809D01*
X118773809Y-114285714D02*
X118773809Y-115095238D01*
X118726190Y-115190476D01*
X118678571Y-115238095D01*
X118583333Y-115285714D01*
X118440476Y-115285714D01*
X118345238Y-115238095D01*
X118773809Y-114904761D02*
X118678571Y-114952380D01*
X118488095Y-114952380D01*
X118392857Y-114904761D01*
X118345238Y-114857142D01*
X118297619Y-114761904D01*
X118297619Y-114476190D01*
X118345238Y-114380952D01*
X118392857Y-114333333D01*
X118488095Y-114285714D01*
X118678571Y-114285714D01*
X118773809Y-114333333D01*
X119630952Y-114904761D02*
X119535714Y-114952380D01*
X119345238Y-114952380D01*
X119250000Y-114904761D01*
X119202380Y-114809523D01*
X119202380Y-114428571D01*
X119250000Y-114333333D01*
X119345238Y-114285714D01*
X119535714Y-114285714D01*
X119630952Y-114333333D01*
X119678571Y-114428571D01*
X119678571Y-114523809D01*
X119202380Y-114619047D01*
X120869047Y-114952380D02*
X120869047Y-113952380D01*
X121202380Y-114666666D01*
X121535714Y-113952380D01*
X121535714Y-114952380D01*
X122392857Y-114904761D02*
X122297619Y-114952380D01*
X122107142Y-114952380D01*
X122011904Y-114904761D01*
X121964285Y-114809523D01*
X121964285Y-114428571D01*
X122011904Y-114333333D01*
X122107142Y-114285714D01*
X122297619Y-114285714D01*
X122392857Y-114333333D01*
X122440476Y-114428571D01*
X122440476Y-114523809D01*
X121964285Y-114619047D01*
X122869047Y-114952380D02*
X122869047Y-114285714D01*
X122869047Y-114380952D02*
X122916666Y-114333333D01*
X123011904Y-114285714D01*
X123154761Y-114285714D01*
X123250000Y-114333333D01*
X123297619Y-114428571D01*
X123297619Y-114952380D01*
X123297619Y-114428571D02*
X123345238Y-114333333D01*
X123440476Y-114285714D01*
X123583333Y-114285714D01*
X123678571Y-114333333D01*
X123726190Y-114428571D01*
X123726190Y-114952380D01*
X124202380Y-114952380D02*
X124202380Y-113952380D01*
X124202380Y-114333333D02*
X124297619Y-114285714D01*
X124488095Y-114285714D01*
X124583333Y-114333333D01*
X124630952Y-114380952D01*
X124678571Y-114476190D01*
X124678571Y-114761904D01*
X124630952Y-114857142D01*
X124583333Y-114904761D01*
X124488095Y-114952380D01*
X124297619Y-114952380D01*
X124202380Y-114904761D01*
X125107142Y-114952380D02*
X125107142Y-114285714D01*
X125107142Y-114476190D02*
X125154761Y-114380952D01*
X125202380Y-114333333D01*
X125297619Y-114285714D01*
X125392857Y-114285714D01*
X126154761Y-114952380D02*
X126154761Y-114428571D01*
X126107142Y-114333333D01*
X126011904Y-114285714D01*
X125821428Y-114285714D01*
X125726190Y-114333333D01*
X126154761Y-114904761D02*
X126059523Y-114952380D01*
X125821428Y-114952380D01*
X125726190Y-114904761D01*
X125678571Y-114809523D01*
X125678571Y-114714285D01*
X125726190Y-114619047D01*
X125821428Y-114571428D01*
X126059523Y-114571428D01*
X126154761Y-114523809D01*
X126630952Y-114285714D02*
X126630952Y-114952380D01*
X126630952Y-114380952D02*
X126678571Y-114333333D01*
X126773809Y-114285714D01*
X126916666Y-114285714D01*
X127011904Y-114333333D01*
X127059523Y-114428571D01*
X127059523Y-114952380D01*
X127916666Y-114904761D02*
X127821428Y-114952380D01*
X127630952Y-114952380D01*
X127535714Y-114904761D01*
X127488095Y-114809523D01*
X127488095Y-114428571D01*
X127535714Y-114333333D01*
X127630952Y-114285714D01*
X127821428Y-114285714D01*
X127916666Y-114333333D01*
X127964285Y-114428571D01*
X127964285Y-114523809D01*
X127488095Y-114619047D01*
D10*
%TO.C,100\u03A9*%
X180651428Y-108739285D02*
X180222857Y-108739285D01*
X180437142Y-108739285D02*
X180437142Y-107989285D01*
X180365714Y-108096428D01*
X180294285Y-108167857D01*
X180222857Y-108203571D01*
X181115714Y-107989285D02*
X181187142Y-107989285D01*
X181258571Y-108025000D01*
X181294285Y-108060714D01*
X181330000Y-108132142D01*
X181365714Y-108275000D01*
X181365714Y-108453571D01*
X181330000Y-108596428D01*
X181294285Y-108667857D01*
X181258571Y-108703571D01*
X181187142Y-108739285D01*
X181115714Y-108739285D01*
X181044285Y-108703571D01*
X181008571Y-108667857D01*
X180972857Y-108596428D01*
X180937142Y-108453571D01*
X180937142Y-108275000D01*
X180972857Y-108132142D01*
X181008571Y-108060714D01*
X181044285Y-108025000D01*
X181115714Y-107989285D01*
X181830000Y-107989285D02*
X181901428Y-107989285D01*
X181972857Y-108025000D01*
X182008571Y-108060714D01*
X182044285Y-108132142D01*
X182080000Y-108275000D01*
X182080000Y-108453571D01*
X182044285Y-108596428D01*
X182008571Y-108667857D01*
X181972857Y-108703571D01*
X181901428Y-108739285D01*
X181830000Y-108739285D01*
X181758571Y-108703571D01*
X181722857Y-108667857D01*
X181687142Y-108596428D01*
X181651428Y-108453571D01*
X181651428Y-108275000D01*
X181687142Y-108132142D01*
X181722857Y-108060714D01*
X181758571Y-108025000D01*
X181830000Y-107989285D01*
X182365714Y-108739285D02*
X182544285Y-108739285D01*
X182544285Y-108596428D01*
X182472857Y-108560714D01*
X182401428Y-108489285D01*
X182365714Y-108382142D01*
X182365714Y-108203571D01*
X182401428Y-108096428D01*
X182472857Y-108025000D01*
X182580000Y-107989285D01*
X182722857Y-107989285D01*
X182830000Y-108025000D01*
X182901428Y-108096428D01*
X182937142Y-108203571D01*
X182937142Y-108382142D01*
X182901428Y-108489285D01*
X182830000Y-108560714D01*
X182758571Y-108596428D01*
X182758571Y-108739285D01*
X182937142Y-108739285D01*
D11*
%TO.C, *%
D10*
%TO.C,MCP3208*%
X131881428Y-63009285D02*
X131881428Y-62259285D01*
X132131428Y-62795000D01*
X132381428Y-62259285D01*
X132381428Y-63009285D01*
X133167142Y-62937857D02*
X133131428Y-62973571D01*
X133024285Y-63009285D01*
X132952857Y-63009285D01*
X132845714Y-62973571D01*
X132774285Y-62902142D01*
X132738571Y-62830714D01*
X132702857Y-62687857D01*
X132702857Y-62580714D01*
X132738571Y-62437857D01*
X132774285Y-62366428D01*
X132845714Y-62295000D01*
X132952857Y-62259285D01*
X133024285Y-62259285D01*
X133131428Y-62295000D01*
X133167142Y-62330714D01*
X133488571Y-63009285D02*
X133488571Y-62259285D01*
X133774285Y-62259285D01*
X133845714Y-62295000D01*
X133881428Y-62330714D01*
X133917142Y-62402142D01*
X133917142Y-62509285D01*
X133881428Y-62580714D01*
X133845714Y-62616428D01*
X133774285Y-62652142D01*
X133488571Y-62652142D01*
X134167142Y-62259285D02*
X134631428Y-62259285D01*
X134381428Y-62545000D01*
X134488571Y-62545000D01*
X134560000Y-62580714D01*
X134595714Y-62616428D01*
X134631428Y-62687857D01*
X134631428Y-62866428D01*
X134595714Y-62937857D01*
X134560000Y-62973571D01*
X134488571Y-63009285D01*
X134274285Y-63009285D01*
X134202857Y-62973571D01*
X134167142Y-62937857D01*
X134917142Y-62330714D02*
X134952857Y-62295000D01*
X135024285Y-62259285D01*
X135202857Y-62259285D01*
X135274285Y-62295000D01*
X135310000Y-62330714D01*
X135345714Y-62402142D01*
X135345714Y-62473571D01*
X135310000Y-62580714D01*
X134881428Y-63009285D01*
X135345714Y-63009285D01*
X135810000Y-62259285D02*
X135881428Y-62259285D01*
X135952857Y-62295000D01*
X135988571Y-62330714D01*
X136024285Y-62402142D01*
X136060000Y-62545000D01*
X136060000Y-62723571D01*
X136024285Y-62866428D01*
X135988571Y-62937857D01*
X135952857Y-62973571D01*
X135881428Y-63009285D01*
X135810000Y-63009285D01*
X135738571Y-62973571D01*
X135702857Y-62937857D01*
X135667142Y-62866428D01*
X135631428Y-62723571D01*
X135631428Y-62545000D01*
X135667142Y-62402142D01*
X135702857Y-62330714D01*
X135738571Y-62295000D01*
X135810000Y-62259285D01*
X136488571Y-62580714D02*
X136417142Y-62545000D01*
X136381428Y-62509285D01*
X136345714Y-62437857D01*
X136345714Y-62402142D01*
X136381428Y-62330714D01*
X136417142Y-62295000D01*
X136488571Y-62259285D01*
X136631428Y-62259285D01*
X136702857Y-62295000D01*
X136738571Y-62330714D01*
X136774285Y-62402142D01*
X136774285Y-62437857D01*
X136738571Y-62509285D01*
X136702857Y-62545000D01*
X136631428Y-62580714D01*
X136488571Y-62580714D01*
X136417142Y-62616428D01*
X136381428Y-62652142D01*
X136345714Y-62723571D01*
X136345714Y-62866428D01*
X136381428Y-62937857D01*
X136417142Y-62973571D01*
X136488571Y-63009285D01*
X136631428Y-63009285D01*
X136702857Y-62973571D01*
X136738571Y-62937857D01*
X136774285Y-62866428D01*
X136774285Y-62723571D01*
X136738571Y-62652142D01*
X136702857Y-62616428D01*
X136631428Y-62580714D01*
%TO.C,1\u03BCF*%
X143700000Y-89139285D02*
X143271428Y-89139285D01*
X143485714Y-89139285D02*
X143485714Y-88389285D01*
X143414285Y-88496428D01*
X143342857Y-88567857D01*
X143271428Y-88603571D01*
X144021428Y-88639285D02*
X144021428Y-89389285D01*
X144378571Y-89032142D02*
X144414285Y-89103571D01*
X144485714Y-89139285D01*
X144021428Y-89032142D02*
X144057142Y-89103571D01*
X144128571Y-89139285D01*
X144271428Y-89139285D01*
X144342857Y-89103571D01*
X144378571Y-89032142D01*
X144378571Y-88639285D01*
X145057142Y-88746428D02*
X144807142Y-88746428D01*
X144807142Y-89139285D02*
X144807142Y-88389285D01*
X145164285Y-88389285D01*
D11*
%TO.C,Stimulus Out*%
X209059523Y-116904761D02*
X209202380Y-116952380D01*
X209440476Y-116952380D01*
X209535714Y-116904761D01*
X209583333Y-116857142D01*
X209630952Y-116761904D01*
X209630952Y-116666666D01*
X209583333Y-116571428D01*
X209535714Y-116523809D01*
X209440476Y-116476190D01*
X209250000Y-116428571D01*
X209154761Y-116380952D01*
X209107142Y-116333333D01*
X209059523Y-116238095D01*
X209059523Y-116142857D01*
X209107142Y-116047619D01*
X209154761Y-116000000D01*
X209250000Y-115952380D01*
X209488095Y-115952380D01*
X209630952Y-116000000D01*
X209916666Y-116285714D02*
X210297619Y-116285714D01*
X210059523Y-115952380D02*
X210059523Y-116809523D01*
X210107142Y-116904761D01*
X210202380Y-116952380D01*
X210297619Y-116952380D01*
X210630952Y-116952380D02*
X210630952Y-116285714D01*
X210630952Y-115952380D02*
X210583333Y-116000000D01*
X210630952Y-116047619D01*
X210678571Y-116000000D01*
X210630952Y-115952380D01*
X210630952Y-116047619D01*
X211107142Y-116952380D02*
X211107142Y-116285714D01*
X211107142Y-116380952D02*
X211154761Y-116333333D01*
X211250000Y-116285714D01*
X211392857Y-116285714D01*
X211488095Y-116333333D01*
X211535714Y-116428571D01*
X211535714Y-116952380D01*
X211535714Y-116428571D02*
X211583333Y-116333333D01*
X211678571Y-116285714D01*
X211821428Y-116285714D01*
X211916666Y-116333333D01*
X211964285Y-116428571D01*
X211964285Y-116952380D01*
X212869047Y-116285714D02*
X212869047Y-116952380D01*
X212440476Y-116285714D02*
X212440476Y-116809523D01*
X212488095Y-116904761D01*
X212583333Y-116952380D01*
X212726190Y-116952380D01*
X212821428Y-116904761D01*
X212869047Y-116857142D01*
X213488095Y-116952380D02*
X213392857Y-116904761D01*
X213345238Y-116809523D01*
X213345238Y-115952380D01*
X214297619Y-116285714D02*
X214297619Y-116952380D01*
X213869047Y-116285714D02*
X213869047Y-116809523D01*
X213916666Y-116904761D01*
X214011904Y-116952380D01*
X214154761Y-116952380D01*
X214250000Y-116904761D01*
X214297619Y-116857142D01*
X214726190Y-116904761D02*
X214821428Y-116952380D01*
X215011904Y-116952380D01*
X215107142Y-116904761D01*
X215154761Y-116809523D01*
X215154761Y-116761904D01*
X215107142Y-116666666D01*
X215011904Y-116619047D01*
X214869047Y-116619047D01*
X214773809Y-116571428D01*
X214726190Y-116476190D01*
X214726190Y-116428571D01*
X214773809Y-116333333D01*
X214869047Y-116285714D01*
X215011904Y-116285714D01*
X215107142Y-116333333D01*
X216535714Y-115952380D02*
X216726190Y-115952380D01*
X216821428Y-116000000D01*
X216916666Y-116095238D01*
X216964285Y-116285714D01*
X216964285Y-116619047D01*
X216916666Y-116809523D01*
X216821428Y-116904761D01*
X216726190Y-116952380D01*
X216535714Y-116952380D01*
X216440476Y-116904761D01*
X216345238Y-116809523D01*
X216297619Y-116619047D01*
X216297619Y-116285714D01*
X216345238Y-116095238D01*
X216440476Y-116000000D01*
X216535714Y-115952380D01*
X217821428Y-116285714D02*
X217821428Y-116952380D01*
X217392857Y-116285714D02*
X217392857Y-116809523D01*
X217440476Y-116904761D01*
X217535714Y-116952380D01*
X217678571Y-116952380D01*
X217773809Y-116904761D01*
X217821428Y-116857142D01*
X218154761Y-116285714D02*
X218535714Y-116285714D01*
X218297619Y-115952380D02*
X218297619Y-116809523D01*
X218345238Y-116904761D01*
X218440476Y-116952380D01*
X218535714Y-116952380D01*
D10*
%TO.C,Reset Button*%
X131214285Y-51139285D02*
X130964285Y-50782142D01*
X130785714Y-51139285D02*
X130785714Y-50389285D01*
X131071428Y-50389285D01*
X131142857Y-50425000D01*
X131178571Y-50460714D01*
X131214285Y-50532142D01*
X131214285Y-50639285D01*
X131178571Y-50710714D01*
X131142857Y-50746428D01*
X131071428Y-50782142D01*
X130785714Y-50782142D01*
X131821428Y-51103571D02*
X131750000Y-51139285D01*
X131607142Y-51139285D01*
X131535714Y-51103571D01*
X131500000Y-51032142D01*
X131500000Y-50746428D01*
X131535714Y-50675000D01*
X131607142Y-50639285D01*
X131750000Y-50639285D01*
X131821428Y-50675000D01*
X131857142Y-50746428D01*
X131857142Y-50817857D01*
X131500000Y-50889285D01*
X132142857Y-51103571D02*
X132214285Y-51139285D01*
X132357142Y-51139285D01*
X132428571Y-51103571D01*
X132464285Y-51032142D01*
X132464285Y-50996428D01*
X132428571Y-50925000D01*
X132357142Y-50889285D01*
X132250000Y-50889285D01*
X132178571Y-50853571D01*
X132142857Y-50782142D01*
X132142857Y-50746428D01*
X132178571Y-50675000D01*
X132250000Y-50639285D01*
X132357142Y-50639285D01*
X132428571Y-50675000D01*
X133071428Y-51103571D02*
X133000000Y-51139285D01*
X132857142Y-51139285D01*
X132785714Y-51103571D01*
X132750000Y-51032142D01*
X132750000Y-50746428D01*
X132785714Y-50675000D01*
X132857142Y-50639285D01*
X133000000Y-50639285D01*
X133071428Y-50675000D01*
X133107142Y-50746428D01*
X133107142Y-50817857D01*
X132750000Y-50889285D01*
X133321428Y-50639285D02*
X133607142Y-50639285D01*
X133428571Y-50389285D02*
X133428571Y-51032142D01*
X133464285Y-51103571D01*
X133535714Y-51139285D01*
X133607142Y-51139285D01*
X134678571Y-50746428D02*
X134785714Y-50782142D01*
X134821428Y-50817857D01*
X134857142Y-50889285D01*
X134857142Y-50996428D01*
X134821428Y-51067857D01*
X134785714Y-51103571D01*
X134714285Y-51139285D01*
X134428571Y-51139285D01*
X134428571Y-50389285D01*
X134678571Y-50389285D01*
X134750000Y-50425000D01*
X134785714Y-50460714D01*
X134821428Y-50532142D01*
X134821428Y-50603571D01*
X134785714Y-50675000D01*
X134750000Y-50710714D01*
X134678571Y-50746428D01*
X134428571Y-50746428D01*
X135500000Y-50639285D02*
X135500000Y-51139285D01*
X135178571Y-50639285D02*
X135178571Y-51032142D01*
X135214285Y-51103571D01*
X135285714Y-51139285D01*
X135392857Y-51139285D01*
X135464285Y-51103571D01*
X135500000Y-51067857D01*
X135750000Y-50639285D02*
X136035714Y-50639285D01*
X135857142Y-50389285D02*
X135857142Y-51032142D01*
X135892857Y-51103571D01*
X135964285Y-51139285D01*
X136035714Y-51139285D01*
X136178571Y-50639285D02*
X136464285Y-50639285D01*
X136285714Y-50389285D02*
X136285714Y-51032142D01*
X136321428Y-51103571D01*
X136392857Y-51139285D01*
X136464285Y-51139285D01*
X136821428Y-51139285D02*
X136750000Y-51103571D01*
X136714285Y-51067857D01*
X136678571Y-50996428D01*
X136678571Y-50782142D01*
X136714285Y-50710714D01*
X136750000Y-50675000D01*
X136821428Y-50639285D01*
X136928571Y-50639285D01*
X137000000Y-50675000D01*
X137035714Y-50710714D01*
X137071428Y-50782142D01*
X137071428Y-50996428D01*
X137035714Y-51067857D01*
X137000000Y-51103571D01*
X136928571Y-51139285D01*
X136821428Y-51139285D01*
X137392857Y-50639285D02*
X137392857Y-51139285D01*
X137392857Y-50710714D02*
X137428571Y-50675000D01*
X137500000Y-50639285D01*
X137607142Y-50639285D01*
X137678571Y-50675000D01*
X137714285Y-50746428D01*
X137714285Y-51139285D01*
%TO.C,10*%
X197127142Y-92379285D02*
X196698571Y-92379285D01*
X196912857Y-92379285D02*
X196912857Y-91629285D01*
X196841428Y-91736428D01*
X196770000Y-91807857D01*
X196698571Y-91843571D01*
X197591428Y-91629285D02*
X197662857Y-91629285D01*
X197734285Y-91665000D01*
X197770000Y-91700714D01*
X197805714Y-91772142D01*
X197841428Y-91915000D01*
X197841428Y-92093571D01*
X197805714Y-92236428D01*
X197770000Y-92307857D01*
X197734285Y-92343571D01*
X197662857Y-92379285D01*
X197591428Y-92379285D01*
X197520000Y-92343571D01*
X197484285Y-92307857D01*
X197448571Y-92236428D01*
X197412857Y-92093571D01*
X197412857Y-91915000D01*
X197448571Y-91772142D01*
X197484285Y-91700714D01*
X197520000Y-91665000D01*
X197591428Y-91629285D01*
%TO.C,8*%
X197198571Y-103950714D02*
X197127142Y-103915000D01*
X197091428Y-103879285D01*
X197055714Y-103807857D01*
X197055714Y-103772142D01*
X197091428Y-103700714D01*
X197127142Y-103665000D01*
X197198571Y-103629285D01*
X197341428Y-103629285D01*
X197412857Y-103665000D01*
X197448571Y-103700714D01*
X197484285Y-103772142D01*
X197484285Y-103807857D01*
X197448571Y-103879285D01*
X197412857Y-103915000D01*
X197341428Y-103950714D01*
X197198571Y-103950714D01*
X197127142Y-103986428D01*
X197091428Y-104022142D01*
X197055714Y-104093571D01*
X197055714Y-104236428D01*
X197091428Y-104307857D01*
X197127142Y-104343571D01*
X197198571Y-104379285D01*
X197341428Y-104379285D01*
X197412857Y-104343571D01*
X197448571Y-104307857D01*
X197484285Y-104236428D01*
X197484285Y-104093571D01*
X197448571Y-104022142D01*
X197412857Y-103986428D01*
X197341428Y-103950714D01*
%TO.C,1\u03BCF*%
X143500000Y-64939285D02*
X143071428Y-64939285D01*
X143285714Y-64939285D02*
X143285714Y-64189285D01*
X143214285Y-64296428D01*
X143142857Y-64367857D01*
X143071428Y-64403571D01*
X143821428Y-64439285D02*
X143821428Y-65189285D01*
X144178571Y-64832142D02*
X144214285Y-64903571D01*
X144285714Y-64939285D01*
X143821428Y-64832142D02*
X143857142Y-64903571D01*
X143928571Y-64939285D01*
X144071428Y-64939285D01*
X144142857Y-64903571D01*
X144178571Y-64832142D01*
X144178571Y-64439285D01*
X144857142Y-64546428D02*
X144607142Y-64546428D01*
X144607142Y-64939285D02*
X144607142Y-64189285D01*
X144964285Y-64189285D01*
%TO.C,100\u03A9*%
X180551428Y-98639285D02*
X180122857Y-98639285D01*
X180337142Y-98639285D02*
X180337142Y-97889285D01*
X180265714Y-97996428D01*
X180194285Y-98067857D01*
X180122857Y-98103571D01*
X181015714Y-97889285D02*
X181087142Y-97889285D01*
X181158571Y-97925000D01*
X181194285Y-97960714D01*
X181230000Y-98032142D01*
X181265714Y-98175000D01*
X181265714Y-98353571D01*
X181230000Y-98496428D01*
X181194285Y-98567857D01*
X181158571Y-98603571D01*
X181087142Y-98639285D01*
X181015714Y-98639285D01*
X180944285Y-98603571D01*
X180908571Y-98567857D01*
X180872857Y-98496428D01*
X180837142Y-98353571D01*
X180837142Y-98175000D01*
X180872857Y-98032142D01*
X180908571Y-97960714D01*
X180944285Y-97925000D01*
X181015714Y-97889285D01*
X181730000Y-97889285D02*
X181801428Y-97889285D01*
X181872857Y-97925000D01*
X181908571Y-97960714D01*
X181944285Y-98032142D01*
X181980000Y-98175000D01*
X181980000Y-98353571D01*
X181944285Y-98496428D01*
X181908571Y-98567857D01*
X181872857Y-98603571D01*
X181801428Y-98639285D01*
X181730000Y-98639285D01*
X181658571Y-98603571D01*
X181622857Y-98567857D01*
X181587142Y-98496428D01*
X181551428Y-98353571D01*
X181551428Y-98175000D01*
X181587142Y-98032142D01*
X181622857Y-97960714D01*
X181658571Y-97925000D01*
X181730000Y-97889285D01*
X182265714Y-98639285D02*
X182444285Y-98639285D01*
X182444285Y-98496428D01*
X182372857Y-98460714D01*
X182301428Y-98389285D01*
X182265714Y-98282142D01*
X182265714Y-98103571D01*
X182301428Y-97996428D01*
X182372857Y-97925000D01*
X182480000Y-97889285D01*
X182622857Y-97889285D01*
X182730000Y-97925000D01*
X182801428Y-97996428D01*
X182837142Y-98103571D01*
X182837142Y-98282142D01*
X182801428Y-98389285D01*
X182730000Y-98460714D01*
X182658571Y-98496428D01*
X182658571Y-98639285D01*
X182837142Y-98639285D01*
%TO.C,12*%
X197127142Y-80379285D02*
X196698571Y-80379285D01*
X196912857Y-80379285D02*
X196912857Y-79629285D01*
X196841428Y-79736428D01*
X196770000Y-79807857D01*
X196698571Y-79843571D01*
X197412857Y-79700714D02*
X197448571Y-79665000D01*
X197520000Y-79629285D01*
X197698571Y-79629285D01*
X197770000Y-79665000D01*
X197805714Y-79700714D01*
X197841428Y-79772142D01*
X197841428Y-79843571D01*
X197805714Y-79950714D01*
X197377142Y-80379285D01*
X197841428Y-80379285D01*
%TO.C,11*%
X197127142Y-86379285D02*
X196698571Y-86379285D01*
X196912857Y-86379285D02*
X196912857Y-85629285D01*
X196841428Y-85736428D01*
X196770000Y-85807857D01*
X196698571Y-85843571D01*
X197841428Y-86379285D02*
X197412857Y-86379285D01*
X197627142Y-86379285D02*
X197627142Y-85629285D01*
X197555714Y-85736428D01*
X197484285Y-85807857D01*
X197412857Y-85843571D01*
%TO.C,9*%
X197127142Y-98379285D02*
X197270000Y-98379285D01*
X197341428Y-98343571D01*
X197377142Y-98307857D01*
X197448571Y-98200714D01*
X197484285Y-98057857D01*
X197484285Y-97772142D01*
X197448571Y-97700714D01*
X197412857Y-97665000D01*
X197341428Y-97629285D01*
X197198571Y-97629285D01*
X197127142Y-97665000D01*
X197091428Y-97700714D01*
X197055714Y-97772142D01*
X197055714Y-97950714D01*
X197091428Y-98022142D01*
X197127142Y-98057857D01*
X197198571Y-98093571D01*
X197341428Y-98093571D01*
X197412857Y-98057857D01*
X197448571Y-98022142D01*
X197484285Y-97950714D01*
%TO.C,10\u03A9*%
X181158571Y-72889285D02*
X180730000Y-72889285D01*
X180944285Y-72889285D02*
X180944285Y-72139285D01*
X180872857Y-72246428D01*
X180801428Y-72317857D01*
X180730000Y-72353571D01*
X181622857Y-72139285D02*
X181694285Y-72139285D01*
X181765714Y-72175000D01*
X181801428Y-72210714D01*
X181837142Y-72282142D01*
X181872857Y-72425000D01*
X181872857Y-72603571D01*
X181837142Y-72746428D01*
X181801428Y-72817857D01*
X181765714Y-72853571D01*
X181694285Y-72889285D01*
X181622857Y-72889285D01*
X181551428Y-72853571D01*
X181515714Y-72817857D01*
X181480000Y-72746428D01*
X181444285Y-72603571D01*
X181444285Y-72425000D01*
X181480000Y-72282142D01*
X181515714Y-72210714D01*
X181551428Y-72175000D01*
X181622857Y-72139285D01*
X182158571Y-72889285D02*
X182337142Y-72889285D01*
X182337142Y-72746428D01*
X182265714Y-72710714D01*
X182194285Y-72639285D01*
X182158571Y-72532142D01*
X182158571Y-72353571D01*
X182194285Y-72246428D01*
X182265714Y-72175000D01*
X182372857Y-72139285D01*
X182515714Y-72139285D01*
X182622857Y-72175000D01*
X182694285Y-72246428D01*
X182730000Y-72353571D01*
X182730000Y-72532142D01*
X182694285Y-72639285D01*
X182622857Y-72710714D01*
X182551428Y-72746428D01*
X182551428Y-72889285D01*
X182730000Y-72889285D01*
%TO.C,Photodiode*%
X137548571Y-117339285D02*
X137548571Y-116589285D01*
X137834285Y-116589285D01*
X137905714Y-116625000D01*
X137941428Y-116660714D01*
X137977142Y-116732142D01*
X137977142Y-116839285D01*
X137941428Y-116910714D01*
X137905714Y-116946428D01*
X137834285Y-116982142D01*
X137548571Y-116982142D01*
X138298571Y-117339285D02*
X138298571Y-116589285D01*
X138620000Y-117339285D02*
X138620000Y-116946428D01*
X138584285Y-116875000D01*
X138512857Y-116839285D01*
X138405714Y-116839285D01*
X138334285Y-116875000D01*
X138298571Y-116910714D01*
X139084285Y-117339285D02*
X139012857Y-117303571D01*
X138977142Y-117267857D01*
X138941428Y-117196428D01*
X138941428Y-116982142D01*
X138977142Y-116910714D01*
X139012857Y-116875000D01*
X139084285Y-116839285D01*
X139191428Y-116839285D01*
X139262857Y-116875000D01*
X139298571Y-116910714D01*
X139334285Y-116982142D01*
X139334285Y-117196428D01*
X139298571Y-117267857D01*
X139262857Y-117303571D01*
X139191428Y-117339285D01*
X139084285Y-117339285D01*
X139548571Y-116839285D02*
X139834285Y-116839285D01*
X139655714Y-116589285D02*
X139655714Y-117232142D01*
X139691428Y-117303571D01*
X139762857Y-117339285D01*
X139834285Y-117339285D01*
X140191428Y-117339285D02*
X140120000Y-117303571D01*
X140084285Y-117267857D01*
X140048571Y-117196428D01*
X140048571Y-116982142D01*
X140084285Y-116910714D01*
X140120000Y-116875000D01*
X140191428Y-116839285D01*
X140298571Y-116839285D01*
X140370000Y-116875000D01*
X140405714Y-116910714D01*
X140441428Y-116982142D01*
X140441428Y-117196428D01*
X140405714Y-117267857D01*
X140370000Y-117303571D01*
X140298571Y-117339285D01*
X140191428Y-117339285D01*
X141084285Y-117339285D02*
X141084285Y-116589285D01*
X141084285Y-117303571D02*
X141012857Y-117339285D01*
X140870000Y-117339285D01*
X140798571Y-117303571D01*
X140762857Y-117267857D01*
X140727142Y-117196428D01*
X140727142Y-116982142D01*
X140762857Y-116910714D01*
X140798571Y-116875000D01*
X140870000Y-116839285D01*
X141012857Y-116839285D01*
X141084285Y-116875000D01*
X141441428Y-117339285D02*
X141441428Y-116839285D01*
X141441428Y-116589285D02*
X141405714Y-116625000D01*
X141441428Y-116660714D01*
X141477142Y-116625000D01*
X141441428Y-116589285D01*
X141441428Y-116660714D01*
X141905714Y-117339285D02*
X141834285Y-117303571D01*
X141798571Y-117267857D01*
X141762857Y-117196428D01*
X141762857Y-116982142D01*
X141798571Y-116910714D01*
X141834285Y-116875000D01*
X141905714Y-116839285D01*
X142012857Y-116839285D01*
X142084285Y-116875000D01*
X142120000Y-116910714D01*
X142155714Y-116982142D01*
X142155714Y-117196428D01*
X142120000Y-117267857D01*
X142084285Y-117303571D01*
X142012857Y-117339285D01*
X141905714Y-117339285D01*
X142798571Y-117339285D02*
X142798571Y-116589285D01*
X142798571Y-117303571D02*
X142727142Y-117339285D01*
X142584285Y-117339285D01*
X142512857Y-117303571D01*
X142477142Y-117267857D01*
X142441428Y-117196428D01*
X142441428Y-116982142D01*
X142477142Y-116910714D01*
X142512857Y-116875000D01*
X142584285Y-116839285D01*
X142727142Y-116839285D01*
X142798571Y-116875000D01*
X143441428Y-117303571D02*
X143370000Y-117339285D01*
X143227142Y-117339285D01*
X143155714Y-117303571D01*
X143120000Y-117232142D01*
X143120000Y-116946428D01*
X143155714Y-116875000D01*
X143227142Y-116839285D01*
X143370000Y-116839285D01*
X143441428Y-116875000D01*
X143477142Y-116946428D01*
X143477142Y-117017857D01*
X143120000Y-117089285D01*
D11*
%TO.C,Stimulus*%
X210952380Y-93904761D02*
X211095238Y-93952380D01*
X211333333Y-93952380D01*
X211428571Y-93904761D01*
X211476190Y-93857142D01*
X211523809Y-93761904D01*
X211523809Y-93666666D01*
X211476190Y-93571428D01*
X211428571Y-93523809D01*
X211333333Y-93476190D01*
X211142857Y-93428571D01*
X211047619Y-93380952D01*
X211000000Y-93333333D01*
X210952380Y-93238095D01*
X210952380Y-93142857D01*
X211000000Y-93047619D01*
X211047619Y-93000000D01*
X211142857Y-92952380D01*
X211380952Y-92952380D01*
X211523809Y-93000000D01*
X211809523Y-93285714D02*
X212190476Y-93285714D01*
X211952380Y-92952380D02*
X211952380Y-93809523D01*
X212000000Y-93904761D01*
X212095238Y-93952380D01*
X212190476Y-93952380D01*
X212523809Y-93952380D02*
X212523809Y-93285714D01*
X212523809Y-92952380D02*
X212476190Y-93000000D01*
X212523809Y-93047619D01*
X212571428Y-93000000D01*
X212523809Y-92952380D01*
X212523809Y-93047619D01*
X213000000Y-93952380D02*
X213000000Y-93285714D01*
X213000000Y-93380952D02*
X213047619Y-93333333D01*
X213142857Y-93285714D01*
X213285714Y-93285714D01*
X213380952Y-93333333D01*
X213428571Y-93428571D01*
X213428571Y-93952380D01*
X213428571Y-93428571D02*
X213476190Y-93333333D01*
X213571428Y-93285714D01*
X213714285Y-93285714D01*
X213809523Y-93333333D01*
X213857142Y-93428571D01*
X213857142Y-93952380D01*
X214761904Y-93285714D02*
X214761904Y-93952380D01*
X214333333Y-93285714D02*
X214333333Y-93809523D01*
X214380952Y-93904761D01*
X214476190Y-93952380D01*
X214619047Y-93952380D01*
X214714285Y-93904761D01*
X214761904Y-93857142D01*
X215380952Y-93952380D02*
X215285714Y-93904761D01*
X215238095Y-93809523D01*
X215238095Y-92952380D01*
X216190476Y-93285714D02*
X216190476Y-93952380D01*
X215761904Y-93285714D02*
X215761904Y-93809523D01*
X215809523Y-93904761D01*
X215904761Y-93952380D01*
X216047619Y-93952380D01*
X216142857Y-93904761D01*
X216190476Y-93857142D01*
X216619047Y-93904761D02*
X216714285Y-93952380D01*
X216904761Y-93952380D01*
X217000000Y-93904761D01*
X217047619Y-93809523D01*
X217047619Y-93761904D01*
X217000000Y-93666666D01*
X216904761Y-93619047D01*
X216761904Y-93619047D01*
X216666666Y-93571428D01*
X216619047Y-93476190D01*
X216619047Y-93428571D01*
X216666666Y-93333333D01*
X216761904Y-93285714D01*
X216904761Y-93285714D01*
X217000000Y-93333333D01*
%TO.C,Synapse2 Gain*%
X113242857Y-102204761D02*
X113385714Y-102252380D01*
X113623809Y-102252380D01*
X113719047Y-102204761D01*
X113766666Y-102157142D01*
X113814285Y-102061904D01*
X113814285Y-101966666D01*
X113766666Y-101871428D01*
X113719047Y-101823809D01*
X113623809Y-101776190D01*
X113433333Y-101728571D01*
X113338095Y-101680952D01*
X113290476Y-101633333D01*
X113242857Y-101538095D01*
X113242857Y-101442857D01*
X113290476Y-101347619D01*
X113338095Y-101300000D01*
X113433333Y-101252380D01*
X113671428Y-101252380D01*
X113814285Y-101300000D01*
X114147619Y-101585714D02*
X114385714Y-102252380D01*
X114623809Y-101585714D02*
X114385714Y-102252380D01*
X114290476Y-102490476D01*
X114242857Y-102538095D01*
X114147619Y-102585714D01*
X115004761Y-101585714D02*
X115004761Y-102252380D01*
X115004761Y-101680952D02*
X115052380Y-101633333D01*
X115147619Y-101585714D01*
X115290476Y-101585714D01*
X115385714Y-101633333D01*
X115433333Y-101728571D01*
X115433333Y-102252380D01*
X116338095Y-102252380D02*
X116338095Y-101728571D01*
X116290476Y-101633333D01*
X116195238Y-101585714D01*
X116004761Y-101585714D01*
X115909523Y-101633333D01*
X116338095Y-102204761D02*
X116242857Y-102252380D01*
X116004761Y-102252380D01*
X115909523Y-102204761D01*
X115861904Y-102109523D01*
X115861904Y-102014285D01*
X115909523Y-101919047D01*
X116004761Y-101871428D01*
X116242857Y-101871428D01*
X116338095Y-101823809D01*
X116814285Y-101585714D02*
X116814285Y-102585714D01*
X116814285Y-101633333D02*
X116909523Y-101585714D01*
X117100000Y-101585714D01*
X117195238Y-101633333D01*
X117242857Y-101680952D01*
X117290476Y-101776190D01*
X117290476Y-102061904D01*
X117242857Y-102157142D01*
X117195238Y-102204761D01*
X117100000Y-102252380D01*
X116909523Y-102252380D01*
X116814285Y-102204761D01*
X117671428Y-102204761D02*
X117766666Y-102252380D01*
X117957142Y-102252380D01*
X118052380Y-102204761D01*
X118100000Y-102109523D01*
X118100000Y-102061904D01*
X118052380Y-101966666D01*
X117957142Y-101919047D01*
X117814285Y-101919047D01*
X117719047Y-101871428D01*
X117671428Y-101776190D01*
X117671428Y-101728571D01*
X117719047Y-101633333D01*
X117814285Y-101585714D01*
X117957142Y-101585714D01*
X118052380Y-101633333D01*
X118909523Y-102204761D02*
X118814285Y-102252380D01*
X118623809Y-102252380D01*
X118528571Y-102204761D01*
X118480952Y-102109523D01*
X118480952Y-101728571D01*
X118528571Y-101633333D01*
X118623809Y-101585714D01*
X118814285Y-101585714D01*
X118909523Y-101633333D01*
X118957142Y-101728571D01*
X118957142Y-101823809D01*
X118480952Y-101919047D01*
X119338095Y-101347619D02*
X119385714Y-101300000D01*
X119480952Y-101252380D01*
X119719047Y-101252380D01*
X119814285Y-101300000D01*
X119861904Y-101347619D01*
X119909523Y-101442857D01*
X119909523Y-101538095D01*
X119861904Y-101680952D01*
X119290476Y-102252380D01*
X119909523Y-102252380D01*
X121623809Y-101300000D02*
X121528571Y-101252380D01*
X121385714Y-101252380D01*
X121242857Y-101300000D01*
X121147619Y-101395238D01*
X121100000Y-101490476D01*
X121052380Y-101680952D01*
X121052380Y-101823809D01*
X121100000Y-102014285D01*
X121147619Y-102109523D01*
X121242857Y-102204761D01*
X121385714Y-102252380D01*
X121480952Y-102252380D01*
X121623809Y-102204761D01*
X121671428Y-102157142D01*
X121671428Y-101823809D01*
X121480952Y-101823809D01*
X122528571Y-102252380D02*
X122528571Y-101728571D01*
X122480952Y-101633333D01*
X122385714Y-101585714D01*
X122195238Y-101585714D01*
X122100000Y-101633333D01*
X122528571Y-102204761D02*
X122433333Y-102252380D01*
X122195238Y-102252380D01*
X122100000Y-102204761D01*
X122052380Y-102109523D01*
X122052380Y-102014285D01*
X122100000Y-101919047D01*
X122195238Y-101871428D01*
X122433333Y-101871428D01*
X122528571Y-101823809D01*
X123004761Y-102252380D02*
X123004761Y-101585714D01*
X123004761Y-101252380D02*
X122957142Y-101300000D01*
X123004761Y-101347619D01*
X123052380Y-101300000D01*
X123004761Y-101252380D01*
X123004761Y-101347619D01*
X123480952Y-101585714D02*
X123480952Y-102252380D01*
X123480952Y-101680952D02*
X123528571Y-101633333D01*
X123623809Y-101585714D01*
X123766666Y-101585714D01*
X123861904Y-101633333D01*
X123909523Y-101728571D01*
X123909523Y-102252380D01*
%TO.C,Synapse In 2*%
X113414285Y-94804761D02*
X113557142Y-94852380D01*
X113795238Y-94852380D01*
X113890476Y-94804761D01*
X113938095Y-94757142D01*
X113985714Y-94661904D01*
X113985714Y-94566666D01*
X113938095Y-94471428D01*
X113890476Y-94423809D01*
X113795238Y-94376190D01*
X113604761Y-94328571D01*
X113509523Y-94280952D01*
X113461904Y-94233333D01*
X113414285Y-94138095D01*
X113414285Y-94042857D01*
X113461904Y-93947619D01*
X113509523Y-93900000D01*
X113604761Y-93852380D01*
X113842857Y-93852380D01*
X113985714Y-93900000D01*
X114319047Y-94185714D02*
X114557142Y-94852380D01*
X114795238Y-94185714D02*
X114557142Y-94852380D01*
X114461904Y-95090476D01*
X114414285Y-95138095D01*
X114319047Y-95185714D01*
X115176190Y-94185714D02*
X115176190Y-94852380D01*
X115176190Y-94280952D02*
X115223809Y-94233333D01*
X115319047Y-94185714D01*
X115461904Y-94185714D01*
X115557142Y-94233333D01*
X115604761Y-94328571D01*
X115604761Y-94852380D01*
X116509523Y-94852380D02*
X116509523Y-94328571D01*
X116461904Y-94233333D01*
X116366666Y-94185714D01*
X116176190Y-94185714D01*
X116080952Y-94233333D01*
X116509523Y-94804761D02*
X116414285Y-94852380D01*
X116176190Y-94852380D01*
X116080952Y-94804761D01*
X116033333Y-94709523D01*
X116033333Y-94614285D01*
X116080952Y-94519047D01*
X116176190Y-94471428D01*
X116414285Y-94471428D01*
X116509523Y-94423809D01*
X116985714Y-94185714D02*
X116985714Y-95185714D01*
X116985714Y-94233333D02*
X117080952Y-94185714D01*
X117271428Y-94185714D01*
X117366666Y-94233333D01*
X117414285Y-94280952D01*
X117461904Y-94376190D01*
X117461904Y-94661904D01*
X117414285Y-94757142D01*
X117366666Y-94804761D01*
X117271428Y-94852380D01*
X117080952Y-94852380D01*
X116985714Y-94804761D01*
X117842857Y-94804761D02*
X117938095Y-94852380D01*
X118128571Y-94852380D01*
X118223809Y-94804761D01*
X118271428Y-94709523D01*
X118271428Y-94661904D01*
X118223809Y-94566666D01*
X118128571Y-94519047D01*
X117985714Y-94519047D01*
X117890476Y-94471428D01*
X117842857Y-94376190D01*
X117842857Y-94328571D01*
X117890476Y-94233333D01*
X117985714Y-94185714D01*
X118128571Y-94185714D01*
X118223809Y-94233333D01*
X119080952Y-94804761D02*
X118985714Y-94852380D01*
X118795238Y-94852380D01*
X118700000Y-94804761D01*
X118652380Y-94709523D01*
X118652380Y-94328571D01*
X118700000Y-94233333D01*
X118795238Y-94185714D01*
X118985714Y-94185714D01*
X119080952Y-94233333D01*
X119128571Y-94328571D01*
X119128571Y-94423809D01*
X118652380Y-94519047D01*
X120319047Y-94852380D02*
X120319047Y-93852380D01*
X120795238Y-94185714D02*
X120795238Y-94852380D01*
X120795238Y-94280952D02*
X120842857Y-94233333D01*
X120938095Y-94185714D01*
X121080952Y-94185714D01*
X121176190Y-94233333D01*
X121223809Y-94328571D01*
X121223809Y-94852380D01*
X122414285Y-93947619D02*
X122461904Y-93900000D01*
X122557142Y-93852380D01*
X122795238Y-93852380D01*
X122890476Y-93900000D01*
X122938095Y-93947619D01*
X122985714Y-94042857D01*
X122985714Y-94138095D01*
X122938095Y-94280952D01*
X122366666Y-94852380D01*
X122985714Y-94852380D01*
D10*
%TO.C,2*%
X191055714Y-103700714D02*
X191091428Y-103665000D01*
X191162857Y-103629285D01*
X191341428Y-103629285D01*
X191412857Y-103665000D01*
X191448571Y-103700714D01*
X191484285Y-103772142D01*
X191484285Y-103843571D01*
X191448571Y-103950714D01*
X191020000Y-104379285D01*
X191484285Y-104379285D01*
D11*
%TO.C, *%
D10*
%TO.C,4*%
X191412857Y-91879285D02*
X191412857Y-92379285D01*
X191234285Y-91593571D02*
X191055714Y-92129285D01*
X191520000Y-92129285D01*
D11*
%TO.C,Current In*%
X102250000Y-117357142D02*
X102202380Y-117404761D01*
X102059523Y-117452380D01*
X101964285Y-117452380D01*
X101821428Y-117404761D01*
X101726190Y-117309523D01*
X101678571Y-117214285D01*
X101630952Y-117023809D01*
X101630952Y-116880952D01*
X101678571Y-116690476D01*
X101726190Y-116595238D01*
X101821428Y-116500000D01*
X101964285Y-116452380D01*
X102059523Y-116452380D01*
X102202380Y-116500000D01*
X102250000Y-116547619D01*
X103107142Y-116785714D02*
X103107142Y-117452380D01*
X102678571Y-116785714D02*
X102678571Y-117309523D01*
X102726190Y-117404761D01*
X102821428Y-117452380D01*
X102964285Y-117452380D01*
X103059523Y-117404761D01*
X103107142Y-117357142D01*
X103583333Y-117452380D02*
X103583333Y-116785714D01*
X103583333Y-116976190D02*
X103630952Y-116880952D01*
X103678571Y-116833333D01*
X103773809Y-116785714D01*
X103869047Y-116785714D01*
X104202380Y-117452380D02*
X104202380Y-116785714D01*
X104202380Y-116976190D02*
X104250000Y-116880952D01*
X104297619Y-116833333D01*
X104392857Y-116785714D01*
X104488095Y-116785714D01*
X105202380Y-117404761D02*
X105107142Y-117452380D01*
X104916666Y-117452380D01*
X104821428Y-117404761D01*
X104773809Y-117309523D01*
X104773809Y-116928571D01*
X104821428Y-116833333D01*
X104916666Y-116785714D01*
X105107142Y-116785714D01*
X105202380Y-116833333D01*
X105250000Y-116928571D01*
X105250000Y-117023809D01*
X104773809Y-117119047D01*
X105678571Y-116785714D02*
X105678571Y-117452380D01*
X105678571Y-116880952D02*
X105726190Y-116833333D01*
X105821428Y-116785714D01*
X105964285Y-116785714D01*
X106059523Y-116833333D01*
X106107142Y-116928571D01*
X106107142Y-117452380D01*
X106440476Y-116785714D02*
X106821428Y-116785714D01*
X106583333Y-116452380D02*
X106583333Y-117309523D01*
X106630952Y-117404761D01*
X106726190Y-117452380D01*
X106821428Y-117452380D01*
X107916666Y-117452380D02*
X107916666Y-116452380D01*
X108392857Y-116785714D02*
X108392857Y-117452380D01*
X108392857Y-116880952D02*
X108440476Y-116833333D01*
X108535714Y-116785714D01*
X108678571Y-116785714D01*
X108773809Y-116833333D01*
X108821428Y-116928571D01*
X108821428Y-117452380D01*
D10*
%TO.C,100\u03A9*%
X180551428Y-93389285D02*
X180122857Y-93389285D01*
X180337142Y-93389285D02*
X180337142Y-92639285D01*
X180265714Y-92746428D01*
X180194285Y-92817857D01*
X180122857Y-92853571D01*
X181015714Y-92639285D02*
X181087142Y-92639285D01*
X181158571Y-92675000D01*
X181194285Y-92710714D01*
X181230000Y-92782142D01*
X181265714Y-92925000D01*
X181265714Y-93103571D01*
X181230000Y-93246428D01*
X181194285Y-93317857D01*
X181158571Y-93353571D01*
X181087142Y-93389285D01*
X181015714Y-93389285D01*
X180944285Y-93353571D01*
X180908571Y-93317857D01*
X180872857Y-93246428D01*
X180837142Y-93103571D01*
X180837142Y-92925000D01*
X180872857Y-92782142D01*
X180908571Y-92710714D01*
X180944285Y-92675000D01*
X181015714Y-92639285D01*
X181730000Y-92639285D02*
X181801428Y-92639285D01*
X181872857Y-92675000D01*
X181908571Y-92710714D01*
X181944285Y-92782142D01*
X181980000Y-92925000D01*
X181980000Y-93103571D01*
X181944285Y-93246428D01*
X181908571Y-93317857D01*
X181872857Y-93353571D01*
X181801428Y-93389285D01*
X181730000Y-93389285D01*
X181658571Y-93353571D01*
X181622857Y-93317857D01*
X181587142Y-93246428D01*
X181551428Y-93103571D01*
X181551428Y-92925000D01*
X181587142Y-92782142D01*
X181622857Y-92710714D01*
X181658571Y-92675000D01*
X181730000Y-92639285D01*
X182265714Y-93389285D02*
X182444285Y-93389285D01*
X182444285Y-93246428D01*
X182372857Y-93210714D01*
X182301428Y-93139285D01*
X182265714Y-93032142D01*
X182265714Y-92853571D01*
X182301428Y-92746428D01*
X182372857Y-92675000D01*
X182480000Y-92639285D01*
X182622857Y-92639285D01*
X182730000Y-92675000D01*
X182801428Y-92746428D01*
X182837142Y-92853571D01*
X182837142Y-93032142D01*
X182801428Y-93139285D01*
X182730000Y-93210714D01*
X182658571Y-93246428D01*
X182658571Y-93389285D01*
X182837142Y-93389285D01*
%TO.C,10k\u03A9*%
X131589285Y-122375000D02*
X131589285Y-122803571D01*
X131589285Y-122589285D02*
X130839285Y-122589285D01*
X130946428Y-122660714D01*
X131017857Y-122732142D01*
X131053571Y-122803571D01*
X130839285Y-121910714D02*
X130839285Y-121839285D01*
X130875000Y-121767857D01*
X130910714Y-121732142D01*
X130982142Y-121696428D01*
X131125000Y-121660714D01*
X131303571Y-121660714D01*
X131446428Y-121696428D01*
X131517857Y-121732142D01*
X131553571Y-121767857D01*
X131589285Y-121839285D01*
X131589285Y-121910714D01*
X131553571Y-121982142D01*
X131517857Y-122017857D01*
X131446428Y-122053571D01*
X131303571Y-122089285D01*
X131125000Y-122089285D01*
X130982142Y-122053571D01*
X130910714Y-122017857D01*
X130875000Y-121982142D01*
X130839285Y-121910714D01*
X131589285Y-121339285D02*
X130839285Y-121339285D01*
X131303571Y-121267857D02*
X131589285Y-121053571D01*
X131089285Y-121053571D02*
X131375000Y-121339285D01*
X131589285Y-120767857D02*
X131589285Y-120589285D01*
X131446428Y-120589285D01*
X131410714Y-120660714D01*
X131339285Y-120732142D01*
X131232142Y-120767857D01*
X131053571Y-120767857D01*
X130946428Y-120732142D01*
X130875000Y-120660714D01*
X130839285Y-120553571D01*
X130839285Y-120410714D01*
X130875000Y-120303571D01*
X130946428Y-120232142D01*
X131053571Y-120196428D01*
X131232142Y-120196428D01*
X131339285Y-120232142D01*
X131410714Y-120303571D01*
X131446428Y-120375000D01*
X131589285Y-120375000D01*
X131589285Y-120196428D01*
D11*
%TO.C,Photodiode Gain*%
X148297619Y-114702380D02*
X148297619Y-113702380D01*
X148678571Y-113702380D01*
X148773809Y-113750000D01*
X148821428Y-113797619D01*
X148869047Y-113892857D01*
X148869047Y-114035714D01*
X148821428Y-114130952D01*
X148773809Y-114178571D01*
X148678571Y-114226190D01*
X148297619Y-114226190D01*
X149297619Y-114702380D02*
X149297619Y-113702380D01*
X149726190Y-114702380D02*
X149726190Y-114178571D01*
X149678571Y-114083333D01*
X149583333Y-114035714D01*
X149440476Y-114035714D01*
X149345238Y-114083333D01*
X149297619Y-114130952D01*
X150345238Y-114702380D02*
X150250000Y-114654761D01*
X150202380Y-114607142D01*
X150154761Y-114511904D01*
X150154761Y-114226190D01*
X150202380Y-114130952D01*
X150250000Y-114083333D01*
X150345238Y-114035714D01*
X150488095Y-114035714D01*
X150583333Y-114083333D01*
X150630952Y-114130952D01*
X150678571Y-114226190D01*
X150678571Y-114511904D01*
X150630952Y-114607142D01*
X150583333Y-114654761D01*
X150488095Y-114702380D01*
X150345238Y-114702380D01*
X150964285Y-114035714D02*
X151345238Y-114035714D01*
X151107142Y-113702380D02*
X151107142Y-114559523D01*
X151154761Y-114654761D01*
X151250000Y-114702380D01*
X151345238Y-114702380D01*
X151821428Y-114702380D02*
X151726190Y-114654761D01*
X151678571Y-114607142D01*
X151630952Y-114511904D01*
X151630952Y-114226190D01*
X151678571Y-114130952D01*
X151726190Y-114083333D01*
X151821428Y-114035714D01*
X151964285Y-114035714D01*
X152059523Y-114083333D01*
X152107142Y-114130952D01*
X152154761Y-114226190D01*
X152154761Y-114511904D01*
X152107142Y-114607142D01*
X152059523Y-114654761D01*
X151964285Y-114702380D01*
X151821428Y-114702380D01*
X153011904Y-114702380D02*
X153011904Y-113702380D01*
X153011904Y-114654761D02*
X152916666Y-114702380D01*
X152726190Y-114702380D01*
X152630952Y-114654761D01*
X152583333Y-114607142D01*
X152535714Y-114511904D01*
X152535714Y-114226190D01*
X152583333Y-114130952D01*
X152630952Y-114083333D01*
X152726190Y-114035714D01*
X152916666Y-114035714D01*
X153011904Y-114083333D01*
X153488095Y-114702380D02*
X153488095Y-114035714D01*
X153488095Y-113702380D02*
X153440476Y-113750000D01*
X153488095Y-113797619D01*
X153535714Y-113750000D01*
X153488095Y-113702380D01*
X153488095Y-113797619D01*
X154107142Y-114702380D02*
X154011904Y-114654761D01*
X153964285Y-114607142D01*
X153916666Y-114511904D01*
X153916666Y-114226190D01*
X153964285Y-114130952D01*
X154011904Y-114083333D01*
X154107142Y-114035714D01*
X154250000Y-114035714D01*
X154345238Y-114083333D01*
X154392857Y-114130952D01*
X154440476Y-114226190D01*
X154440476Y-114511904D01*
X154392857Y-114607142D01*
X154345238Y-114654761D01*
X154250000Y-114702380D01*
X154107142Y-114702380D01*
X155297619Y-114702380D02*
X155297619Y-113702380D01*
X155297619Y-114654761D02*
X155202380Y-114702380D01*
X155011904Y-114702380D01*
X154916666Y-114654761D01*
X154869047Y-114607142D01*
X154821428Y-114511904D01*
X154821428Y-114226190D01*
X154869047Y-114130952D01*
X154916666Y-114083333D01*
X155011904Y-114035714D01*
X155202380Y-114035714D01*
X155297619Y-114083333D01*
X156154761Y-114654761D02*
X156059523Y-114702380D01*
X155869047Y-114702380D01*
X155773809Y-114654761D01*
X155726190Y-114559523D01*
X155726190Y-114178571D01*
X155773809Y-114083333D01*
X155869047Y-114035714D01*
X156059523Y-114035714D01*
X156154761Y-114083333D01*
X156202380Y-114178571D01*
X156202380Y-114273809D01*
X155726190Y-114369047D01*
X157916666Y-113750000D02*
X157821428Y-113702380D01*
X157678571Y-113702380D01*
X157535714Y-113750000D01*
X157440476Y-113845238D01*
X157392857Y-113940476D01*
X157345238Y-114130952D01*
X157345238Y-114273809D01*
X157392857Y-114464285D01*
X157440476Y-114559523D01*
X157535714Y-114654761D01*
X157678571Y-114702380D01*
X157773809Y-114702380D01*
X157916666Y-114654761D01*
X157964285Y-114607142D01*
X157964285Y-114273809D01*
X157773809Y-114273809D01*
X158821428Y-114702380D02*
X158821428Y-114178571D01*
X158773809Y-114083333D01*
X158678571Y-114035714D01*
X158488095Y-114035714D01*
X158392857Y-114083333D01*
X158821428Y-114654761D02*
X158726190Y-114702380D01*
X158488095Y-114702380D01*
X158392857Y-114654761D01*
X158345238Y-114559523D01*
X158345238Y-114464285D01*
X158392857Y-114369047D01*
X158488095Y-114321428D01*
X158726190Y-114321428D01*
X158821428Y-114273809D01*
X159297619Y-114702380D02*
X159297619Y-114035714D01*
X159297619Y-113702380D02*
X159250000Y-113750000D01*
X159297619Y-113797619D01*
X159345238Y-113750000D01*
X159297619Y-113702380D01*
X159297619Y-113797619D01*
X159773809Y-114035714D02*
X159773809Y-114702380D01*
X159773809Y-114130952D02*
X159821428Y-114083333D01*
X159916666Y-114035714D01*
X160059523Y-114035714D01*
X160154761Y-114083333D01*
X160202380Y-114178571D01*
X160202380Y-114702380D01*
D10*
%TO.C,1nF*%
X189876170Y-64939285D02*
X189447599Y-64939285D01*
X189661884Y-64939285D02*
X189661884Y-64189285D01*
X189590456Y-64296428D01*
X189519027Y-64367857D01*
X189447599Y-64403571D01*
X190197599Y-64439285D02*
X190197599Y-64939285D01*
X190197599Y-64510714D02*
X190233313Y-64475000D01*
X190304741Y-64439285D01*
X190411884Y-64439285D01*
X190483313Y-64475000D01*
X190519027Y-64546428D01*
X190519027Y-64939285D01*
X191126170Y-64546428D02*
X190876170Y-64546428D01*
X190876170Y-64939285D02*
X190876170Y-64189285D01*
X191233313Y-64189285D01*
%TO.C,100\u03A9*%
X180551428Y-88139285D02*
X180122857Y-88139285D01*
X180337142Y-88139285D02*
X180337142Y-87389285D01*
X180265714Y-87496428D01*
X180194285Y-87567857D01*
X180122857Y-87603571D01*
X181015714Y-87389285D02*
X181087142Y-87389285D01*
X181158571Y-87425000D01*
X181194285Y-87460714D01*
X181230000Y-87532142D01*
X181265714Y-87675000D01*
X181265714Y-87853571D01*
X181230000Y-87996428D01*
X181194285Y-88067857D01*
X181158571Y-88103571D01*
X181087142Y-88139285D01*
X181015714Y-88139285D01*
X180944285Y-88103571D01*
X180908571Y-88067857D01*
X180872857Y-87996428D01*
X180837142Y-87853571D01*
X180837142Y-87675000D01*
X180872857Y-87532142D01*
X180908571Y-87460714D01*
X180944285Y-87425000D01*
X181015714Y-87389285D01*
X181730000Y-87389285D02*
X181801428Y-87389285D01*
X181872857Y-87425000D01*
X181908571Y-87460714D01*
X181944285Y-87532142D01*
X181980000Y-87675000D01*
X181980000Y-87853571D01*
X181944285Y-87996428D01*
X181908571Y-88067857D01*
X181872857Y-88103571D01*
X181801428Y-88139285D01*
X181730000Y-88139285D01*
X181658571Y-88103571D01*
X181622857Y-88067857D01*
X181587142Y-87996428D01*
X181551428Y-87853571D01*
X181551428Y-87675000D01*
X181587142Y-87532142D01*
X181622857Y-87460714D01*
X181658571Y-87425000D01*
X181730000Y-87389285D01*
X182265714Y-88139285D02*
X182444285Y-88139285D01*
X182444285Y-87996428D01*
X182372857Y-87960714D01*
X182301428Y-87889285D01*
X182265714Y-87782142D01*
X182265714Y-87603571D01*
X182301428Y-87496428D01*
X182372857Y-87425000D01*
X182480000Y-87389285D01*
X182622857Y-87389285D01*
X182730000Y-87425000D01*
X182801428Y-87496428D01*
X182837142Y-87603571D01*
X182837142Y-87782142D01*
X182801428Y-87889285D01*
X182730000Y-87960714D01*
X182658571Y-87996428D01*
X182658571Y-88139285D01*
X182837142Y-88139285D01*
X180501428Y-77889285D02*
X180072857Y-77889285D01*
X180287142Y-77889285D02*
X180287142Y-77139285D01*
X180215714Y-77246428D01*
X180144285Y-77317857D01*
X180072857Y-77353571D01*
X180965714Y-77139285D02*
X181037142Y-77139285D01*
X181108571Y-77175000D01*
X181144285Y-77210714D01*
X181180000Y-77282142D01*
X181215714Y-77425000D01*
X181215714Y-77603571D01*
X181180000Y-77746428D01*
X181144285Y-77817857D01*
X181108571Y-77853571D01*
X181037142Y-77889285D01*
X180965714Y-77889285D01*
X180894285Y-77853571D01*
X180858571Y-77817857D01*
X180822857Y-77746428D01*
X180787142Y-77603571D01*
X180787142Y-77425000D01*
X180822857Y-77282142D01*
X180858571Y-77210714D01*
X180894285Y-77175000D01*
X180965714Y-77139285D01*
X181680000Y-77139285D02*
X181751428Y-77139285D01*
X181822857Y-77175000D01*
X181858571Y-77210714D01*
X181894285Y-77282142D01*
X181930000Y-77425000D01*
X181930000Y-77603571D01*
X181894285Y-77746428D01*
X181858571Y-77817857D01*
X181822857Y-77853571D01*
X181751428Y-77889285D01*
X181680000Y-77889285D01*
X181608571Y-77853571D01*
X181572857Y-77817857D01*
X181537142Y-77746428D01*
X181501428Y-77603571D01*
X181501428Y-77425000D01*
X181537142Y-77282142D01*
X181572857Y-77210714D01*
X181608571Y-77175000D01*
X181680000Y-77139285D01*
X182215714Y-77889285D02*
X182394285Y-77889285D01*
X182394285Y-77746428D01*
X182322857Y-77710714D01*
X182251428Y-77639285D01*
X182215714Y-77532142D01*
X182215714Y-77353571D01*
X182251428Y-77246428D01*
X182322857Y-77175000D01*
X182430000Y-77139285D01*
X182572857Y-77139285D01*
X182680000Y-77175000D01*
X182751428Y-77246428D01*
X182787142Y-77353571D01*
X182787142Y-77532142D01*
X182751428Y-77639285D01*
X182680000Y-77710714D01*
X182608571Y-77746428D01*
X182608571Y-77889285D01*
X182787142Y-77889285D01*
%TO.C,Spike_Buzzer*%
X193482142Y-71053571D02*
X193589285Y-71089285D01*
X193767857Y-71089285D01*
X193839285Y-71053571D01*
X193875000Y-71017857D01*
X193910714Y-70946428D01*
X193910714Y-70875000D01*
X193875000Y-70803571D01*
X193839285Y-70767857D01*
X193767857Y-70732142D01*
X193625000Y-70696428D01*
X193553571Y-70660714D01*
X193517857Y-70625000D01*
X193482142Y-70553571D01*
X193482142Y-70482142D01*
X193517857Y-70410714D01*
X193553571Y-70375000D01*
X193625000Y-70339285D01*
X193803571Y-70339285D01*
X193910714Y-70375000D01*
X194232142Y-70589285D02*
X194232142Y-71339285D01*
X194232142Y-70625000D02*
X194303571Y-70589285D01*
X194446428Y-70589285D01*
X194517857Y-70625000D01*
X194553571Y-70660714D01*
X194589285Y-70732142D01*
X194589285Y-70946428D01*
X194553571Y-71017857D01*
X194517857Y-71053571D01*
X194446428Y-71089285D01*
X194303571Y-71089285D01*
X194232142Y-71053571D01*
X194910714Y-71089285D02*
X194910714Y-70589285D01*
X194910714Y-70339285D02*
X194875000Y-70375000D01*
X194910714Y-70410714D01*
X194946428Y-70375000D01*
X194910714Y-70339285D01*
X194910714Y-70410714D01*
X195267857Y-71089285D02*
X195267857Y-70339285D01*
X195339285Y-70803571D02*
X195553571Y-71089285D01*
X195553571Y-70589285D02*
X195267857Y-70875000D01*
X196160714Y-71053571D02*
X196089285Y-71089285D01*
X195946428Y-71089285D01*
X195875000Y-71053571D01*
X195839285Y-70982142D01*
X195839285Y-70696428D01*
X195875000Y-70625000D01*
X195946428Y-70589285D01*
X196089285Y-70589285D01*
X196160714Y-70625000D01*
X196196428Y-70696428D01*
X196196428Y-70767857D01*
X195839285Y-70839285D01*
X196339285Y-71160714D02*
X196910714Y-71160714D01*
X197339285Y-70696428D02*
X197446428Y-70732142D01*
X197482142Y-70767857D01*
X197517857Y-70839285D01*
X197517857Y-70946428D01*
X197482142Y-71017857D01*
X197446428Y-71053571D01*
X197375000Y-71089285D01*
X197089285Y-71089285D01*
X197089285Y-70339285D01*
X197339285Y-70339285D01*
X197410714Y-70375000D01*
X197446428Y-70410714D01*
X197482142Y-70482142D01*
X197482142Y-70553571D01*
X197446428Y-70625000D01*
X197410714Y-70660714D01*
X197339285Y-70696428D01*
X197089285Y-70696428D01*
X198160714Y-70589285D02*
X198160714Y-71089285D01*
X197839285Y-70589285D02*
X197839285Y-70982142D01*
X197875000Y-71053571D01*
X197946428Y-71089285D01*
X198053571Y-71089285D01*
X198125000Y-71053571D01*
X198160714Y-71017857D01*
X198446428Y-70589285D02*
X198839285Y-70589285D01*
X198446428Y-71089285D01*
X198839285Y-71089285D01*
X199053571Y-70589285D02*
X199446428Y-70589285D01*
X199053571Y-71089285D01*
X199446428Y-71089285D01*
X200017857Y-71053571D02*
X199946428Y-71089285D01*
X199803571Y-71089285D01*
X199732142Y-71053571D01*
X199696428Y-70982142D01*
X199696428Y-70696428D01*
X199732142Y-70625000D01*
X199803571Y-70589285D01*
X199946428Y-70589285D01*
X200017857Y-70625000D01*
X200053571Y-70696428D01*
X200053571Y-70767857D01*
X199696428Y-70839285D01*
X200375000Y-71089285D02*
X200375000Y-70589285D01*
X200375000Y-70732142D02*
X200410714Y-70660714D01*
X200446428Y-70625000D01*
X200517857Y-70589285D01*
X200589285Y-70589285D01*
D11*
X198871428Y-61930952D02*
X198871428Y-61169047D01*
X199252380Y-61550000D02*
X198490476Y-61550000D01*
%TO.C, *%
D10*
%TO.C,100\u03A9*%
X180551428Y-82889285D02*
X180122857Y-82889285D01*
X180337142Y-82889285D02*
X180337142Y-82139285D01*
X180265714Y-82246428D01*
X180194285Y-82317857D01*
X180122857Y-82353571D01*
X181015714Y-82139285D02*
X181087142Y-82139285D01*
X181158571Y-82175000D01*
X181194285Y-82210714D01*
X181230000Y-82282142D01*
X181265714Y-82425000D01*
X181265714Y-82603571D01*
X181230000Y-82746428D01*
X181194285Y-82817857D01*
X181158571Y-82853571D01*
X181087142Y-82889285D01*
X181015714Y-82889285D01*
X180944285Y-82853571D01*
X180908571Y-82817857D01*
X180872857Y-82746428D01*
X180837142Y-82603571D01*
X180837142Y-82425000D01*
X180872857Y-82282142D01*
X180908571Y-82210714D01*
X180944285Y-82175000D01*
X181015714Y-82139285D01*
X181730000Y-82139285D02*
X181801428Y-82139285D01*
X181872857Y-82175000D01*
X181908571Y-82210714D01*
X181944285Y-82282142D01*
X181980000Y-82425000D01*
X181980000Y-82603571D01*
X181944285Y-82746428D01*
X181908571Y-82817857D01*
X181872857Y-82853571D01*
X181801428Y-82889285D01*
X181730000Y-82889285D01*
X181658571Y-82853571D01*
X181622857Y-82817857D01*
X181587142Y-82746428D01*
X181551428Y-82603571D01*
X181551428Y-82425000D01*
X181587142Y-82282142D01*
X181622857Y-82210714D01*
X181658571Y-82175000D01*
X181730000Y-82139285D01*
X182265714Y-82889285D02*
X182444285Y-82889285D01*
X182444285Y-82746428D01*
X182372857Y-82710714D01*
X182301428Y-82639285D01*
X182265714Y-82532142D01*
X182265714Y-82353571D01*
X182301428Y-82246428D01*
X182372857Y-82175000D01*
X182480000Y-82139285D01*
X182622857Y-82139285D01*
X182730000Y-82175000D01*
X182801428Y-82246428D01*
X182837142Y-82353571D01*
X182837142Y-82532142D01*
X182801428Y-82639285D01*
X182730000Y-82710714D01*
X182658571Y-82746428D01*
X182658571Y-82889285D01*
X182837142Y-82889285D01*
D11*
%TO.C,Mode Button*%
X189773809Y-126702380D02*
X189773809Y-125702380D01*
X190107142Y-126416666D01*
X190440476Y-125702380D01*
X190440476Y-126702380D01*
X191059523Y-126702380D02*
X190964285Y-126654761D01*
X190916666Y-126607142D01*
X190869047Y-126511904D01*
X190869047Y-126226190D01*
X190916666Y-126130952D01*
X190964285Y-126083333D01*
X191059523Y-126035714D01*
X191202380Y-126035714D01*
X191297619Y-126083333D01*
X191345238Y-126130952D01*
X191392857Y-126226190D01*
X191392857Y-126511904D01*
X191345238Y-126607142D01*
X191297619Y-126654761D01*
X191202380Y-126702380D01*
X191059523Y-126702380D01*
X192250000Y-126702380D02*
X192250000Y-125702380D01*
X192250000Y-126654761D02*
X192154761Y-126702380D01*
X191964285Y-126702380D01*
X191869047Y-126654761D01*
X191821428Y-126607142D01*
X191773809Y-126511904D01*
X191773809Y-126226190D01*
X191821428Y-126130952D01*
X191869047Y-126083333D01*
X191964285Y-126035714D01*
X192154761Y-126035714D01*
X192250000Y-126083333D01*
X193107142Y-126654761D02*
X193011904Y-126702380D01*
X192821428Y-126702380D01*
X192726190Y-126654761D01*
X192678571Y-126559523D01*
X192678571Y-126178571D01*
X192726190Y-126083333D01*
X192821428Y-126035714D01*
X193011904Y-126035714D01*
X193107142Y-126083333D01*
X193154761Y-126178571D01*
X193154761Y-126273809D01*
X192678571Y-126369047D01*
X194678571Y-126178571D02*
X194821428Y-126226190D01*
X194869047Y-126273809D01*
X194916666Y-126369047D01*
X194916666Y-126511904D01*
X194869047Y-126607142D01*
X194821428Y-126654761D01*
X194726190Y-126702380D01*
X194345238Y-126702380D01*
X194345238Y-125702380D01*
X194678571Y-125702380D01*
X194773809Y-125750000D01*
X194821428Y-125797619D01*
X194869047Y-125892857D01*
X194869047Y-125988095D01*
X194821428Y-126083333D01*
X194773809Y-126130952D01*
X194678571Y-126178571D01*
X194345238Y-126178571D01*
X195773809Y-126035714D02*
X195773809Y-126702380D01*
X195345238Y-126035714D02*
X195345238Y-126559523D01*
X195392857Y-126654761D01*
X195488095Y-126702380D01*
X195630952Y-126702380D01*
X195726190Y-126654761D01*
X195773809Y-126607142D01*
X196107142Y-126035714D02*
X196488095Y-126035714D01*
X196250000Y-125702380D02*
X196250000Y-126559523D01*
X196297619Y-126654761D01*
X196392857Y-126702380D01*
X196488095Y-126702380D01*
X196678571Y-126035714D02*
X197059523Y-126035714D01*
X196821428Y-125702380D02*
X196821428Y-126559523D01*
X196869047Y-126654761D01*
X196964285Y-126702380D01*
X197059523Y-126702380D01*
X197535714Y-126702380D02*
X197440476Y-126654761D01*
X197392857Y-126607142D01*
X197345238Y-126511904D01*
X197345238Y-126226190D01*
X197392857Y-126130952D01*
X197440476Y-126083333D01*
X197535714Y-126035714D01*
X197678571Y-126035714D01*
X197773809Y-126083333D01*
X197821428Y-126130952D01*
X197869047Y-126226190D01*
X197869047Y-126511904D01*
X197821428Y-126607142D01*
X197773809Y-126654761D01*
X197678571Y-126702380D01*
X197535714Y-126702380D01*
X198297619Y-126035714D02*
X198297619Y-126702380D01*
X198297619Y-126130952D02*
X198345238Y-126083333D01*
X198440476Y-126035714D01*
X198583333Y-126035714D01*
X198678571Y-126083333D01*
X198726190Y-126178571D01*
X198726190Y-126702380D01*
%TO.C,ESP32 Wroom-32 Dev Module*%
X159160714Y-93797619D02*
X159160714Y-93380952D01*
X159815476Y-93202380D02*
X159815476Y-93797619D01*
X158565476Y-93797619D01*
X158565476Y-93202380D01*
X159755952Y-92726190D02*
X159815476Y-92547619D01*
X159815476Y-92250000D01*
X159755952Y-92130952D01*
X159696428Y-92071428D01*
X159577380Y-92011904D01*
X159458333Y-92011904D01*
X159339285Y-92071428D01*
X159279761Y-92130952D01*
X159220238Y-92250000D01*
X159160714Y-92488095D01*
X159101190Y-92607142D01*
X159041666Y-92666666D01*
X158922619Y-92726190D01*
X158803571Y-92726190D01*
X158684523Y-92666666D01*
X158625000Y-92607142D01*
X158565476Y-92488095D01*
X158565476Y-92190476D01*
X158625000Y-92011904D01*
X159815476Y-91476190D02*
X158565476Y-91476190D01*
X158565476Y-91000000D01*
X158625000Y-90880952D01*
X158684523Y-90821428D01*
X158803571Y-90761904D01*
X158982142Y-90761904D01*
X159101190Y-90821428D01*
X159160714Y-90880952D01*
X159220238Y-91000000D01*
X159220238Y-91476190D01*
X158565476Y-90345238D02*
X158565476Y-89571428D01*
X159041666Y-89988095D01*
X159041666Y-89809523D01*
X159101190Y-89690476D01*
X159160714Y-89630952D01*
X159279761Y-89571428D01*
X159577380Y-89571428D01*
X159696428Y-89630952D01*
X159755952Y-89690476D01*
X159815476Y-89809523D01*
X159815476Y-90166666D01*
X159755952Y-90285714D01*
X159696428Y-90345238D01*
X158684523Y-89095238D02*
X158625000Y-89035714D01*
X158565476Y-88916666D01*
X158565476Y-88619047D01*
X158625000Y-88500000D01*
X158684523Y-88440476D01*
X158803571Y-88380952D01*
X158922619Y-88380952D01*
X159101190Y-88440476D01*
X159815476Y-89154761D01*
X159815476Y-88380952D01*
X158565476Y-87011904D02*
X159815476Y-86714285D01*
X158922619Y-86476190D01*
X159815476Y-86238095D01*
X158565476Y-85940476D01*
X159815476Y-85464285D02*
X158982142Y-85464285D01*
X159220238Y-85464285D02*
X159101190Y-85404761D01*
X159041666Y-85345238D01*
X158982142Y-85226190D01*
X158982142Y-85107142D01*
X159815476Y-84511904D02*
X159755952Y-84630952D01*
X159696428Y-84690476D01*
X159577380Y-84750000D01*
X159220238Y-84750000D01*
X159101190Y-84690476D01*
X159041666Y-84630952D01*
X158982142Y-84511904D01*
X158982142Y-84333333D01*
X159041666Y-84214285D01*
X159101190Y-84154761D01*
X159220238Y-84095238D01*
X159577380Y-84095238D01*
X159696428Y-84154761D01*
X159755952Y-84214285D01*
X159815476Y-84333333D01*
X159815476Y-84511904D01*
X159815476Y-83380952D02*
X159755952Y-83500000D01*
X159696428Y-83559523D01*
X159577380Y-83619047D01*
X159220238Y-83619047D01*
X159101190Y-83559523D01*
X159041666Y-83500000D01*
X158982142Y-83380952D01*
X158982142Y-83202380D01*
X159041666Y-83083333D01*
X159101190Y-83023809D01*
X159220238Y-82964285D01*
X159577380Y-82964285D01*
X159696428Y-83023809D01*
X159755952Y-83083333D01*
X159815476Y-83202380D01*
X159815476Y-83380952D01*
X159815476Y-82428571D02*
X158982142Y-82428571D01*
X159101190Y-82428571D02*
X159041666Y-82369047D01*
X158982142Y-82250000D01*
X158982142Y-82071428D01*
X159041666Y-81952380D01*
X159160714Y-81892857D01*
X159815476Y-81892857D01*
X159160714Y-81892857D02*
X159041666Y-81833333D01*
X158982142Y-81714285D01*
X158982142Y-81535714D01*
X159041666Y-81416666D01*
X159160714Y-81357142D01*
X159815476Y-81357142D01*
X159339285Y-80761904D02*
X159339285Y-79809523D01*
X158565476Y-79333333D02*
X158565476Y-78559523D01*
X159041666Y-78976190D01*
X159041666Y-78797619D01*
X159101190Y-78678571D01*
X159160714Y-78619047D01*
X159279761Y-78559523D01*
X159577380Y-78559523D01*
X159696428Y-78619047D01*
X159755952Y-78678571D01*
X159815476Y-78797619D01*
X159815476Y-79154761D01*
X159755952Y-79273809D01*
X159696428Y-79333333D01*
X158684523Y-78083333D02*
X158625000Y-78023809D01*
X158565476Y-77904761D01*
X158565476Y-77607142D01*
X158625000Y-77488095D01*
X158684523Y-77428571D01*
X158803571Y-77369047D01*
X158922619Y-77369047D01*
X159101190Y-77428571D01*
X159815476Y-78142857D01*
X159815476Y-77369047D01*
X159815476Y-75880952D02*
X158565476Y-75880952D01*
X158565476Y-75583333D01*
X158625000Y-75404761D01*
X158744047Y-75285714D01*
X158863095Y-75226190D01*
X159101190Y-75166666D01*
X159279761Y-75166666D01*
X159517857Y-75226190D01*
X159636904Y-75285714D01*
X159755952Y-75404761D01*
X159815476Y-75583333D01*
X159815476Y-75880952D01*
X159755952Y-74154761D02*
X159815476Y-74273809D01*
X159815476Y-74511904D01*
X159755952Y-74630952D01*
X159636904Y-74690476D01*
X159160714Y-74690476D01*
X159041666Y-74630952D01*
X158982142Y-74511904D01*
X158982142Y-74273809D01*
X159041666Y-74154761D01*
X159160714Y-74095238D01*
X159279761Y-74095238D01*
X159398809Y-74690476D01*
X158982142Y-73678571D02*
X159815476Y-73380952D01*
X158982142Y-73083333D01*
X159815476Y-71654761D02*
X158565476Y-71654761D01*
X159458333Y-71238095D01*
X158565476Y-70821428D01*
X159815476Y-70821428D01*
X159815476Y-70047619D02*
X159755952Y-70166666D01*
X159696428Y-70226190D01*
X159577380Y-70285714D01*
X159220238Y-70285714D01*
X159101190Y-70226190D01*
X159041666Y-70166666D01*
X158982142Y-70047619D01*
X158982142Y-69869047D01*
X159041666Y-69750000D01*
X159101190Y-69690476D01*
X159220238Y-69630952D01*
X159577380Y-69630952D01*
X159696428Y-69690476D01*
X159755952Y-69750000D01*
X159815476Y-69869047D01*
X159815476Y-70047619D01*
X159815476Y-68559523D02*
X158565476Y-68559523D01*
X159755952Y-68559523D02*
X159815476Y-68678571D01*
X159815476Y-68916666D01*
X159755952Y-69035714D01*
X159696428Y-69095238D01*
X159577380Y-69154761D01*
X159220238Y-69154761D01*
X159101190Y-69095238D01*
X159041666Y-69035714D01*
X158982142Y-68916666D01*
X158982142Y-68678571D01*
X159041666Y-68559523D01*
X158982142Y-67428571D02*
X159815476Y-67428571D01*
X158982142Y-67964285D02*
X159636904Y-67964285D01*
X159755952Y-67904761D01*
X159815476Y-67785714D01*
X159815476Y-67607142D01*
X159755952Y-67488095D01*
X159696428Y-67428571D01*
X159815476Y-66654761D02*
X159755952Y-66773809D01*
X159636904Y-66833333D01*
X158565476Y-66833333D01*
X159755952Y-65702380D02*
X159815476Y-65821428D01*
X159815476Y-66059523D01*
X159755952Y-66178571D01*
X159636904Y-66238095D01*
X159160714Y-66238095D01*
X159041666Y-66178571D01*
X158982142Y-66059523D01*
X158982142Y-65821428D01*
X159041666Y-65702380D01*
X159160714Y-65642857D01*
X159279761Y-65642857D01*
X159398809Y-66238095D01*
D10*
%TO.C,7*%
X197020000Y-109629285D02*
X197520000Y-109629285D01*
X197198571Y-110379285D01*
%TO.C,5*%
X191448571Y-85629285D02*
X191091428Y-85629285D01*
X191055714Y-85986428D01*
X191091428Y-85950714D01*
X191162857Y-85915000D01*
X191341428Y-85915000D01*
X191412857Y-85950714D01*
X191448571Y-85986428D01*
X191484285Y-86057857D01*
X191484285Y-86236428D01*
X191448571Y-86307857D01*
X191412857Y-86343571D01*
X191341428Y-86379285D01*
X191162857Y-86379285D01*
X191091428Y-86343571D01*
X191055714Y-86307857D01*
D12*
%TO.C,Spike_LED*%
X176205000Y-66605000D02*
X176670000Y-66605000D01*
X178830000Y-66605000D02*
X179295000Y-66605000D01*
X179294830Y-66605000D02*
G75*
G03*
X178830827Y-61257185I-1544830J2560000D01*
G01*
X178830000Y-66299684D02*
G75*
G03*
X178830429Y-61790521I-1080000J2254684D01*
G01*
X176669571Y-61790521D02*
G75*
G03*
X176670000Y-66299684I1080429J-2254479D01*
G01*
X176669173Y-61257185D02*
G75*
G03*
X176205170Y-66605000I1080827J-2787815D01*
G01*
%TO.C,6*%
X189710000Y-81764000D02*
X189710000Y-81920000D01*
X189710000Y-84080000D02*
X189710000Y-84236000D01*
X190229039Y-84080000D02*
G75*
G03*
X192311130Y-84079837I1040961J1080000D01*
G01*
X189710000Y-84235516D02*
G75*
G03*
X192942335Y-84078608I1560000J1235516D01*
G01*
X192311130Y-81920163D02*
G75*
G03*
X190229039Y-81920000I-1041130J-1079837D01*
G01*
X192942335Y-81921392D02*
G75*
G03*
X189710000Y-81764484I-1672335J-1078608D01*
G01*
%TO.C,1*%
X189710000Y-111764000D02*
X189710000Y-111920000D01*
X189710000Y-114080000D02*
X189710000Y-114236000D01*
X189710000Y-114235516D02*
G75*
G03*
X192942335Y-114078608I1560000J1235516D01*
G01*
X192942335Y-111921392D02*
G75*
G03*
X189710000Y-111764484I-1672335J-1078608D01*
G01*
X190229039Y-114080000D02*
G75*
G03*
X192311130Y-114079837I1040961J1080000D01*
G01*
X192311130Y-111920163D02*
G75*
G03*
X190229039Y-111920000I-1041130J-1079837D01*
G01*
%TO.C,10k\u03A9*%
X184750000Y-104670000D02*
X184750000Y-101930000D01*
X178210000Y-101930000D02*
X178210000Y-104670000D01*
X178210000Y-104670000D02*
X184750000Y-104670000D01*
X184750000Y-101930000D02*
X178210000Y-101930000D01*
X177440000Y-103300000D02*
X178210000Y-103300000D01*
X185520000Y-103300000D02*
X184750000Y-103300000D01*
%TO.C,MCP3208*%
X131660000Y-87795000D02*
X131660000Y-108235000D01*
X136960000Y-108235000D02*
X136960000Y-87795000D01*
X133310000Y-87795000D02*
X131660000Y-87795000D01*
X131660000Y-108235000D02*
X136960000Y-108235000D01*
X136960000Y-87795000D02*
X135310000Y-87795000D01*
X133310000Y-87795000D02*
G75*
G03*
X135310000Y-87795000I1000000J0D01*
G01*
%TO.C,Stimulus*%
X214121000Y-108870000D02*
X214880000Y-108870000D01*
X212000000Y-108870000D02*
X212380000Y-108870000D01*
X216620000Y-108870000D02*
X218270000Y-108870000D01*
X208229000Y-100566000D02*
X208229000Y-96630000D01*
X208229000Y-96630000D02*
X218270000Y-96630000D01*
X208229000Y-108870000D02*
X208229000Y-104933000D01*
X218270000Y-100566000D02*
X218270000Y-96630000D01*
X218270000Y-108870000D02*
X218270000Y-104933000D01*
X208229000Y-108870000D02*
X209550000Y-108870000D01*
%TO.C,Noise*%
X176970000Y-128020000D02*
X178620000Y-128020000D01*
X178620000Y-128020000D02*
X178620000Y-124083000D01*
X178620000Y-119716000D02*
X178620000Y-115780000D01*
X168579000Y-119716000D02*
X168579000Y-115780000D01*
X168579000Y-128020000D02*
X168579000Y-124083000D01*
X168579000Y-128020000D02*
X169900000Y-128020000D01*
X172350000Y-128020000D02*
X172730000Y-128020000D01*
X168579000Y-115780000D02*
X178620000Y-115780000D01*
X174471000Y-128020000D02*
X175230000Y-128020000D01*
%TO.C,Synapse In 1*%
X100381500Y-62150000D02*
X112181500Y-62150000D01*
X112181500Y-62150000D02*
X112181500Y-50350000D01*
X112181500Y-50350000D02*
X100381500Y-50350000D01*
X100381500Y-50350000D02*
X100381500Y-62150000D01*
%TO.C,Synapse Out*%
X219868500Y-58100000D02*
X208068500Y-58100000D01*
X208068500Y-58100000D02*
X208068500Y-69900000D01*
X208068500Y-69900000D02*
X219868500Y-69900000D01*
X219868500Y-69900000D02*
X219868500Y-58100000D01*
%TO.C,Synapse1 Gain*%
X110120000Y-74620000D02*
X111770000Y-74620000D01*
X105500000Y-74620000D02*
X105880000Y-74620000D01*
X107621000Y-74620000D02*
X108380000Y-74620000D01*
X101729000Y-74620000D02*
X103050000Y-74620000D01*
X111770000Y-66316000D02*
X111770000Y-62380000D01*
X101729000Y-66316000D02*
X101729000Y-62380000D01*
X101729000Y-74620000D02*
X101729000Y-70683000D01*
X101729000Y-62380000D02*
X111770000Y-62380000D01*
X111770000Y-74620000D02*
X111770000Y-70683000D01*
%TO.C,3*%
X189710000Y-102080000D02*
X189710000Y-102236000D01*
X189710000Y-99764000D02*
X189710000Y-99920000D01*
X192311130Y-99920163D02*
G75*
G03*
X190229039Y-99920000I-1041130J-1079837D01*
G01*
X189710000Y-102235516D02*
G75*
G03*
X192942335Y-102078608I1560000J1235516D01*
G01*
X190229039Y-102080000D02*
G75*
G03*
X192311130Y-102079837I1040961J1080000D01*
G01*
X192942335Y-99921392D02*
G75*
G03*
X189710000Y-99764484I-1672335J-1078608D01*
G01*
%TO.C,Voltage Membrane*%
X116229000Y-119566000D02*
X116229000Y-115630000D01*
X124620000Y-127870000D02*
X126270000Y-127870000D01*
X126270000Y-119566000D02*
X126270000Y-115630000D01*
X122121000Y-127870000D02*
X122880000Y-127870000D01*
X116229000Y-127870000D02*
X117550000Y-127870000D01*
X126270000Y-127870000D02*
X126270000Y-123933000D01*
X120000000Y-127870000D02*
X120380000Y-127870000D01*
X116229000Y-115630000D02*
X126270000Y-115630000D01*
X116229000Y-127870000D02*
X116229000Y-123933000D01*
%TO.C,100\u03A9*%
X178310000Y-109770000D02*
X184850000Y-109770000D01*
X184850000Y-107030000D02*
X178310000Y-107030000D01*
X177540000Y-108400000D02*
X178310000Y-108400000D01*
X178310000Y-107030000D02*
X178310000Y-109770000D01*
X184850000Y-109770000D02*
X184850000Y-107030000D01*
X185620000Y-108400000D02*
X184850000Y-108400000D01*
%TO.C,MCP3208*%
X131660000Y-63670000D02*
X131660000Y-84110000D01*
X136960000Y-84110000D02*
X136960000Y-63670000D01*
X136960000Y-63670000D02*
X135310000Y-63670000D01*
X131660000Y-84110000D02*
X136960000Y-84110000D01*
X133310000Y-63670000D02*
X131660000Y-63670000D01*
X133310000Y-63670000D02*
G75*
G03*
X135310000Y-63670000I1000000J0D01*
G01*
%TO.C,1\u03BCF*%
X142032600Y-90910000D02*
X142032600Y-89716000D01*
X141311600Y-90910000D02*
X141311600Y-90015000D01*
X141952600Y-90910000D02*
X141952600Y-89734000D01*
X141671600Y-90910000D02*
X141671600Y-89826000D01*
X142032600Y-93784000D02*
X142032600Y-92590000D01*
X142152600Y-93806000D02*
X142152600Y-92590000D01*
X141231600Y-90910000D02*
X141231600Y-90070000D01*
X142432600Y-93830000D02*
X142432600Y-89670000D01*
X142072600Y-93792000D02*
X142072600Y-92590000D01*
X142072600Y-90910000D02*
X142072600Y-89708000D01*
X141431600Y-93558000D02*
X141431600Y-92590000D01*
X141832600Y-93732000D02*
X141832600Y-92590000D01*
X141271600Y-90910000D02*
X141271600Y-90042000D01*
X141511600Y-93601000D02*
X141511600Y-92590000D01*
X140951600Y-90910000D02*
X140951600Y-90312000D01*
X140471600Y-92414000D02*
X140471600Y-91086000D01*
X141151600Y-90910000D02*
X141151600Y-90131000D01*
X141591600Y-93639000D02*
X141591600Y-92590000D01*
X141792600Y-93718000D02*
X141792600Y-92590000D01*
X140791600Y-90910000D02*
X140791600Y-90496000D01*
X141271600Y-93458000D02*
X141271600Y-92590000D01*
X141551600Y-90910000D02*
X141551600Y-89880000D01*
X142272600Y-90910000D02*
X142272600Y-89679000D01*
X141071600Y-93302000D02*
X141071600Y-92590000D01*
X141191600Y-90910000D02*
X141191600Y-90100000D01*
X142352600Y-93827000D02*
X142352600Y-89673000D01*
X141631600Y-93657000D02*
X141631600Y-92590000D01*
X141471600Y-90910000D02*
X141471600Y-89920000D01*
X142152600Y-90910000D02*
X142152600Y-89694000D01*
X141551600Y-93620000D02*
X141551600Y-92590000D01*
X141191600Y-93400000D02*
X141191600Y-92590000D01*
X142232600Y-90910000D02*
X142232600Y-89683000D01*
X141511600Y-90910000D02*
X141511600Y-89899000D01*
X140631600Y-92763000D02*
X140631600Y-90737000D01*
X141591600Y-90910000D02*
X141591600Y-89861000D01*
X141031600Y-93266000D02*
X141031600Y-92590000D01*
X141912600Y-93755000D02*
X141912600Y-92590000D01*
X141111600Y-93337000D02*
X141111600Y-92590000D01*
X140911600Y-93146000D02*
X140911600Y-92590000D01*
X141231600Y-93430000D02*
X141231600Y-92590000D01*
X141311600Y-93485000D02*
X141311600Y-92590000D01*
X141631600Y-90910000D02*
X141631600Y-89843000D01*
X140711600Y-90910000D02*
X140711600Y-90608000D01*
X141471600Y-93580000D02*
X141471600Y-92590000D01*
X140551600Y-92609000D02*
X140551600Y-90891000D01*
X140831600Y-90910000D02*
X140831600Y-90446000D01*
X142392600Y-93829000D02*
X142392600Y-89671000D01*
X141071600Y-90910000D02*
X141071600Y-90198000D01*
X142272600Y-93821000D02*
X142272600Y-92590000D01*
X141992600Y-90910000D02*
X141992600Y-89725000D01*
X144542401Y-93145000D02*
X144542401Y-92745000D01*
X142192600Y-93812000D02*
X142192600Y-92590000D01*
X140831600Y-93054000D02*
X140831600Y-92590000D01*
X141431600Y-90910000D02*
X141431600Y-89942000D01*
X141751600Y-93704000D02*
X141751600Y-92590000D01*
X140431600Y-92287000D02*
X140431600Y-91213000D01*
X141391600Y-90910000D02*
X141391600Y-89965000D01*
X142312600Y-93824000D02*
X142312600Y-89676000D01*
X141031600Y-90910000D02*
X141031600Y-90234000D01*
X142112600Y-93800000D02*
X142112600Y-92590000D01*
X141151600Y-93369000D02*
X141151600Y-92590000D01*
X140591600Y-92690000D02*
X140591600Y-90810000D01*
X140791600Y-93004000D02*
X140791600Y-92590000D01*
X140871600Y-90910000D02*
X140871600Y-90399000D01*
X140511600Y-92518000D02*
X140511600Y-90982000D01*
X141872600Y-90910000D02*
X141872600Y-89756000D01*
X141751600Y-90910000D02*
X141751600Y-89796000D01*
X141792600Y-90910000D02*
X141792600Y-89782000D01*
X141952600Y-93766000D02*
X141952600Y-92590000D01*
X142232600Y-93817000D02*
X142232600Y-92590000D01*
X141912600Y-90910000D02*
X141912600Y-89745000D01*
X140991600Y-93228000D02*
X140991600Y-92590000D01*
X140671600Y-90910000D02*
X140671600Y-90670000D01*
X140391600Y-92120000D02*
X140391600Y-91380000D01*
X140751600Y-92950000D02*
X140751600Y-92590000D01*
X142112600Y-90910000D02*
X142112600Y-89700000D01*
X140951600Y-93188000D02*
X140951600Y-92590000D01*
X141992600Y-93775000D02*
X141992600Y-92590000D01*
X141832600Y-90910000D02*
X141832600Y-89768000D01*
X141711600Y-90910000D02*
X141711600Y-89810000D01*
X142472600Y-93830000D02*
X142472600Y-89670000D01*
X141351600Y-90910000D02*
X141351600Y-89990000D01*
X142192600Y-90910000D02*
X142192600Y-89688000D01*
X140751600Y-90910000D02*
X140751600Y-90550000D01*
X141111600Y-90910000D02*
X141111600Y-90163000D01*
X140911600Y-90910000D02*
X140911600Y-90354000D01*
X140711600Y-92892000D02*
X140711600Y-92590000D01*
X144742401Y-92945000D02*
X144342401Y-92945000D01*
X141711600Y-93690000D02*
X141711600Y-92590000D01*
X141391600Y-93535000D02*
X141391600Y-92590000D01*
X141671600Y-93674000D02*
X141671600Y-92590000D01*
X140991600Y-90910000D02*
X140991600Y-90272000D01*
X140671600Y-92830000D02*
X140671600Y-92590000D01*
X140871600Y-93101000D02*
X140871600Y-92590000D01*
X141872600Y-93744000D02*
X141872600Y-92590000D01*
X141351600Y-93510000D02*
X141351600Y-92590000D01*
X144592600Y-91750000D02*
G75*
G03*
X144592600Y-91750000I-2120000J0D01*
G01*
%TO.C,Stimulus Out*%
X219650000Y-129618500D02*
X207850000Y-129618500D01*
X207850000Y-129618500D02*
X207850000Y-117818500D01*
X207850000Y-117818500D02*
X219650000Y-117818500D01*
X219650000Y-117818500D02*
X219650000Y-129618500D01*
%TO.C,Reset Button*%
X132550000Y-55410000D02*
X135950000Y-55410000D01*
X137050000Y-55410000D02*
X137590000Y-55410000D01*
X137590000Y-58240000D02*
X137590000Y-58750000D01*
X130910000Y-58240000D02*
X130910000Y-58750000D01*
X130910000Y-55410000D02*
X131450000Y-55410000D01*
X130390000Y-58240000D02*
X130390000Y-58750000D01*
X138110000Y-58240000D02*
X138110000Y-58750000D01*
X130390000Y-58750000D02*
X130910000Y-58750000D01*
X130390000Y-51740000D02*
X138110000Y-51740000D01*
X137590000Y-58750000D02*
X138110000Y-58750000D01*
X137590000Y-55410000D02*
X137590000Y-55640000D01*
X138110000Y-51740000D02*
X138110000Y-55640000D01*
X130910000Y-55410000D02*
X130910000Y-55640000D01*
X130390000Y-51740000D02*
X130390000Y-55640000D01*
%TO.C,10*%
X195710000Y-93764000D02*
X195710000Y-93920000D01*
X195710000Y-96080000D02*
X195710000Y-96236000D01*
X198942335Y-93921392D02*
G75*
G03*
X195710000Y-93764484I-1672335J-1078608D01*
G01*
X196229039Y-96080000D02*
G75*
G03*
X198311130Y-96079837I1040961J1080000D01*
G01*
X198311130Y-93920163D02*
G75*
G03*
X196229039Y-93920000I-1041130J-1079837D01*
G01*
X195710000Y-96235516D02*
G75*
G03*
X198942335Y-96078608I1560000J1235516D01*
G01*
%TO.C,8*%
X195710000Y-108080000D02*
X195710000Y-108236000D01*
X195710000Y-105764000D02*
X195710000Y-105920000D01*
X195710000Y-108235516D02*
G75*
G03*
X198942335Y-108078608I1560000J1235516D01*
G01*
X198311130Y-105920163D02*
G75*
G03*
X196229039Y-105920000I-1041130J-1079837D01*
G01*
X196229039Y-108080000D02*
G75*
G03*
X198311130Y-108079837I1040961J1080000D01*
G01*
X198942335Y-105921392D02*
G75*
G03*
X195710000Y-105764484I-1672335J-1078608D01*
G01*
%TO.C,1\u03BCF*%
X140751600Y-68700000D02*
X140751600Y-68340000D01*
X142112600Y-69550000D02*
X142112600Y-68340000D01*
X142192600Y-66660000D02*
X142192600Y-65438000D01*
X141872600Y-69494000D02*
X141872600Y-68340000D01*
X141631600Y-69407000D02*
X141631600Y-68340000D01*
X141671600Y-66660000D02*
X141671600Y-65576000D01*
X140711600Y-66660000D02*
X140711600Y-66358000D01*
X142072600Y-69542000D02*
X142072600Y-68340000D01*
X141271600Y-69208000D02*
X141271600Y-68340000D01*
X141591600Y-66660000D02*
X141591600Y-65611000D01*
X141751600Y-66660000D02*
X141751600Y-65546000D01*
X140671600Y-66660000D02*
X140671600Y-66420000D01*
X141952600Y-66660000D02*
X141952600Y-65484000D01*
X140991600Y-68978000D02*
X140991600Y-68340000D01*
X141031600Y-66660000D02*
X141031600Y-65984000D01*
X140671600Y-68580000D02*
X140671600Y-68340000D01*
X140791600Y-66660000D02*
X140791600Y-66246000D01*
X141351600Y-66660000D02*
X141351600Y-65740000D01*
X141631600Y-66660000D02*
X141631600Y-65593000D01*
X140911600Y-68896000D02*
X140911600Y-68340000D01*
X141311600Y-66660000D02*
X141311600Y-65765000D01*
X141912600Y-66660000D02*
X141912600Y-65495000D01*
X142272600Y-69571000D02*
X142272600Y-68340000D01*
X141311600Y-69235000D02*
X141311600Y-68340000D01*
X141511600Y-66660000D02*
X141511600Y-65649000D01*
X140431600Y-68037000D02*
X140431600Y-66963000D01*
X142352600Y-69577000D02*
X142352600Y-65423000D01*
X140711600Y-68642000D02*
X140711600Y-68340000D01*
X141151600Y-69119000D02*
X141151600Y-68340000D01*
X141832600Y-69482000D02*
X141832600Y-68340000D01*
X144542401Y-68895000D02*
X144542401Y-68495000D01*
X140991600Y-66660000D02*
X140991600Y-66022000D01*
X141231600Y-66660000D02*
X141231600Y-65820000D01*
X141912600Y-69505000D02*
X141912600Y-68340000D01*
X140831600Y-66660000D02*
X140831600Y-66196000D01*
X141271600Y-66660000D02*
X141271600Y-65792000D01*
X141191600Y-66660000D02*
X141191600Y-65850000D01*
X140871600Y-68851000D02*
X140871600Y-68340000D01*
X141751600Y-69454000D02*
X141751600Y-68340000D01*
X140751600Y-66660000D02*
X140751600Y-66300000D01*
X142232600Y-66660000D02*
X142232600Y-65433000D01*
X140631600Y-68513000D02*
X140631600Y-66487000D01*
X141551600Y-69370000D02*
X141551600Y-68340000D01*
X142152600Y-69556000D02*
X142152600Y-68340000D01*
X141391600Y-66660000D02*
X141391600Y-65715000D01*
X142312600Y-69574000D02*
X142312600Y-65426000D01*
X142192600Y-69562000D02*
X142192600Y-68340000D01*
X141431600Y-69308000D02*
X141431600Y-68340000D01*
X141071600Y-66660000D02*
X141071600Y-65948000D01*
X141071600Y-69052000D02*
X141071600Y-68340000D01*
X141591600Y-69389000D02*
X141591600Y-68340000D01*
X142152600Y-66660000D02*
X142152600Y-65444000D01*
X141711600Y-69440000D02*
X141711600Y-68340000D01*
X144742401Y-68695000D02*
X144342401Y-68695000D01*
X140591600Y-68440000D02*
X140591600Y-66560000D01*
X141792600Y-66660000D02*
X141792600Y-65532000D01*
X140551600Y-68359000D02*
X140551600Y-66641000D01*
X140471600Y-68164000D02*
X140471600Y-66836000D01*
X141431600Y-66660000D02*
X141431600Y-65692000D01*
X141111600Y-69087000D02*
X141111600Y-68340000D01*
X140911600Y-66660000D02*
X140911600Y-66104000D01*
X141992600Y-66660000D02*
X141992600Y-65475000D01*
X142072600Y-66660000D02*
X142072600Y-65458000D01*
X142272600Y-66660000D02*
X142272600Y-65429000D01*
X141992600Y-69525000D02*
X141992600Y-68340000D01*
X141832600Y-66660000D02*
X141832600Y-65518000D01*
X141111600Y-66660000D02*
X141111600Y-65913000D01*
X140871600Y-66660000D02*
X140871600Y-66149000D01*
X141711600Y-66660000D02*
X141711600Y-65560000D01*
X141031600Y-69016000D02*
X141031600Y-68340000D01*
X141872600Y-66660000D02*
X141872600Y-65506000D01*
X141151600Y-66660000D02*
X141151600Y-65881000D01*
X141351600Y-69260000D02*
X141351600Y-68340000D01*
X140951600Y-66660000D02*
X140951600Y-66062000D01*
X142232600Y-69567000D02*
X142232600Y-68340000D01*
X141952600Y-69516000D02*
X141952600Y-68340000D01*
X142472600Y-69580000D02*
X142472600Y-65420000D01*
X140831600Y-68804000D02*
X140831600Y-68340000D01*
X141471600Y-69330000D02*
X141471600Y-68340000D01*
X140511600Y-68268000D02*
X140511600Y-66732000D01*
X140951600Y-68938000D02*
X140951600Y-68340000D01*
X141551600Y-66660000D02*
X141551600Y-65630000D01*
X141391600Y-69285000D02*
X141391600Y-68340000D01*
X141511600Y-69351000D02*
X141511600Y-68340000D01*
X142112600Y-66660000D02*
X142112600Y-65450000D01*
X142032600Y-66660000D02*
X142032600Y-65466000D01*
X141231600Y-69180000D02*
X141231600Y-68340000D01*
X142392600Y-69579000D02*
X142392600Y-65421000D01*
X141471600Y-66660000D02*
X141471600Y-65670000D01*
X140391600Y-67870000D02*
X140391600Y-67130000D01*
X140791600Y-68754000D02*
X140791600Y-68340000D01*
X141671600Y-69424000D02*
X141671600Y-68340000D01*
X141191600Y-69150000D02*
X141191600Y-68340000D01*
X141792600Y-69468000D02*
X141792600Y-68340000D01*
X142432600Y-69580000D02*
X142432600Y-65420000D01*
X142032600Y-69534000D02*
X142032600Y-68340000D01*
X144592600Y-67500000D02*
G75*
G03*
X144592600Y-67500000I-2120000J0D01*
G01*
%TO.C,100\u03A9*%
X178210000Y-99670000D02*
X184750000Y-99670000D01*
X184750000Y-96930000D02*
X178210000Y-96930000D01*
X178210000Y-96930000D02*
X178210000Y-99670000D01*
X184750000Y-99670000D02*
X184750000Y-96930000D01*
X177440000Y-98300000D02*
X178210000Y-98300000D01*
X185520000Y-98300000D02*
X184750000Y-98300000D01*
%TO.C,12*%
X195710000Y-81764000D02*
X195710000Y-81920000D01*
X195710000Y-84080000D02*
X195710000Y-84236000D01*
X196229039Y-84080000D02*
G75*
G03*
X198311130Y-84079837I1040961J1080000D01*
G01*
X195710000Y-84235516D02*
G75*
G03*
X198942335Y-84078608I1560000J1235516D01*
G01*
X198942335Y-81921392D02*
G75*
G03*
X195710000Y-81764484I-1672335J-1078608D01*
G01*
X198311130Y-81920163D02*
G75*
G03*
X196229039Y-81920000I-1041130J-1079837D01*
G01*
%TO.C,11*%
X195710000Y-87764000D02*
X195710000Y-87920000D01*
X195710000Y-90080000D02*
X195710000Y-90236000D01*
X195710000Y-90235516D02*
G75*
G03*
X198942335Y-90078608I1560000J1235516D01*
G01*
X196229039Y-90080000D02*
G75*
G03*
X198311130Y-90079837I1040961J1080000D01*
G01*
X198942335Y-87921392D02*
G75*
G03*
X195710000Y-87764484I-1672335J-1078608D01*
G01*
X198311130Y-87920163D02*
G75*
G03*
X196229039Y-87920000I-1041130J-1079837D01*
G01*
%TO.C,9*%
X195710000Y-99764000D02*
X195710000Y-99920000D01*
X195710000Y-102080000D02*
X195710000Y-102236000D01*
X196229039Y-102080000D02*
G75*
G03*
X198311130Y-102079837I1040961J1080000D01*
G01*
X198311130Y-99920163D02*
G75*
G03*
X196229039Y-99920000I-1041130J-1079837D01*
G01*
X195710000Y-102235516D02*
G75*
G03*
X198942335Y-102078608I1560000J1235516D01*
G01*
X198942335Y-99921392D02*
G75*
G03*
X195710000Y-99764484I-1672335J-1078608D01*
G01*
%TO.C,10\u03A9*%
X178210000Y-71180000D02*
X178210000Y-73920000D01*
X178210000Y-73920000D02*
X184750000Y-73920000D01*
X184750000Y-73920000D02*
X184750000Y-71180000D01*
X177440000Y-72550000D02*
X178210000Y-72550000D01*
X185520000Y-72550000D02*
X184750000Y-72550000D01*
X184750000Y-71180000D02*
X178210000Y-71180000D01*
%TO.C,Photodiode*%
X137935000Y-119705000D02*
X137935000Y-122795000D01*
X143485000Y-121250462D02*
G75*
G03*
X137935000Y-119705170I-2990000J462D01*
G01*
X137935000Y-122794830D02*
G75*
G03*
X143485000Y-121249538I2560000J1544830D01*
G01*
X142995000Y-121250000D02*
G75*
G03*
X142995000Y-121250000I-2500000J0D01*
G01*
%TO.C,Stimulus*%
X208229000Y-82066000D02*
X208229000Y-78130000D01*
X218270000Y-90370000D02*
X218270000Y-86433000D01*
X208229000Y-90370000D02*
X208229000Y-86433000D01*
X212000000Y-90370000D02*
X212380000Y-90370000D01*
X208229000Y-90370000D02*
X209550000Y-90370000D01*
X216620000Y-90370000D02*
X218270000Y-90370000D01*
X218270000Y-82066000D02*
X218270000Y-78130000D01*
X208229000Y-78130000D02*
X218270000Y-78130000D01*
X214121000Y-90370000D02*
X214880000Y-90370000D01*
%TO.C,Synapse2 Gain*%
X112020000Y-108370000D02*
X112020000Y-104433000D01*
X112020000Y-100066000D02*
X112020000Y-96130000D01*
X107871000Y-108370000D02*
X108630000Y-108370000D01*
X105750000Y-108370000D02*
X106130000Y-108370000D01*
X101979000Y-96130000D02*
X112020000Y-96130000D01*
X110370000Y-108370000D02*
X112020000Y-108370000D01*
X101979000Y-108370000D02*
X103300000Y-108370000D01*
X101979000Y-100066000D02*
X101979000Y-96130000D01*
X101979000Y-108370000D02*
X101979000Y-104433000D01*
%TO.C,Synapse In 2*%
X100350000Y-95900000D02*
X112150000Y-95900000D01*
X112150000Y-95900000D02*
X112150000Y-84100000D01*
X112150000Y-84100000D02*
X100350000Y-84100000D01*
X100350000Y-84100000D02*
X100350000Y-95900000D01*
%TO.C,2*%
X189710000Y-108080000D02*
X189710000Y-108236000D01*
X189710000Y-105764000D02*
X189710000Y-105920000D01*
X192942335Y-105921392D02*
G75*
G03*
X189710000Y-105764484I-1672335J-1078608D01*
G01*
X189710000Y-108235516D02*
G75*
G03*
X192942335Y-108078608I1560000J1235516D01*
G01*
X192311130Y-105920163D02*
G75*
G03*
X190229039Y-105920000I-1041130J-1079837D01*
G01*
X190229039Y-108080000D02*
G75*
G03*
X192311130Y-108079837I1040961J1080000D01*
G01*
%TO.C,4*%
X189710000Y-93764000D02*
X189710000Y-93920000D01*
X189710000Y-96080000D02*
X189710000Y-96236000D01*
X190229039Y-96080000D02*
G75*
G03*
X192311130Y-96079837I1040961J1080000D01*
G01*
X192311130Y-93920163D02*
G75*
G03*
X190229039Y-93920000I-1041130J-1079837D01*
G01*
X192942335Y-93921392D02*
G75*
G03*
X189710000Y-93764484I-1672335J-1078608D01*
G01*
X189710000Y-96235516D02*
G75*
G03*
X192942335Y-96078608I1560000J1235516D01*
G01*
%TO.C,Current In*%
X111900000Y-129868500D02*
X100100000Y-129868500D01*
X100100000Y-129868500D02*
X100100000Y-118068500D01*
X100100000Y-118068500D02*
X111900000Y-118068500D01*
X111900000Y-118068500D02*
X111900000Y-129868500D01*
%TO.C,100\u03A9*%
X185520000Y-93050000D02*
X184750000Y-93050000D01*
X184750000Y-94420000D02*
X184750000Y-91680000D01*
X184750000Y-91680000D02*
X178210000Y-91680000D01*
X177440000Y-93050000D02*
X178210000Y-93050000D01*
X178210000Y-91680000D02*
X178210000Y-94420000D01*
X178210000Y-94420000D02*
X184750000Y-94420000D01*
%TO.C,10k\u03A9*%
X132620000Y-124770000D02*
X132620000Y-118230000D01*
X129880000Y-118230000D02*
X129880000Y-124770000D01*
X131250000Y-117460000D02*
X131250000Y-118230000D01*
X131250000Y-125540000D02*
X131250000Y-124770000D01*
X132620000Y-118230000D02*
X129880000Y-118230000D01*
X129880000Y-124770000D02*
X132620000Y-124770000D01*
%TO.C,Photodiode Gain*%
X149229000Y-127870000D02*
X149229000Y-123933000D01*
X159270000Y-119566000D02*
X159270000Y-115630000D01*
X149229000Y-119566000D02*
X149229000Y-115630000D01*
X159270000Y-127870000D02*
X159270000Y-123933000D01*
X155121000Y-127870000D02*
X155880000Y-127870000D01*
X149229000Y-115630000D02*
X159270000Y-115630000D01*
X149229000Y-127870000D02*
X150550000Y-127870000D01*
X157620000Y-127870000D02*
X159270000Y-127870000D01*
X153000000Y-127870000D02*
X153380000Y-127870000D01*
%TO.C,1nF*%
X189720000Y-66600000D02*
G75*
G03*
X189720000Y-66600000I-2120000J0D01*
G01*
X189281000Y-67440000D02*
X189281000Y-67854000D01*
X188601000Y-67440000D02*
X188601000Y-68430000D01*
X189361000Y-65458000D02*
X189361000Y-65760000D01*
X188561000Y-67440000D02*
X188561000Y-68451000D01*
X188441000Y-67440000D02*
X188441000Y-68507000D01*
X188000000Y-67440000D02*
X188000000Y-68642000D01*
X189161000Y-67440000D02*
X189161000Y-67996000D01*
X187800000Y-67440000D02*
X187800000Y-68671000D01*
X185530199Y-65205000D02*
X185530199Y-65605000D01*
X189441000Y-65587000D02*
X189441000Y-67613000D01*
X189681000Y-66230000D02*
X189681000Y-66970000D01*
X188841000Y-67440000D02*
X188841000Y-68280000D01*
X188921000Y-64981000D02*
X188921000Y-65760000D01*
X188401000Y-67440000D02*
X188401000Y-68524000D01*
X188160000Y-64595000D02*
X188160000Y-65760000D01*
X189281000Y-65346000D02*
X189281000Y-65760000D01*
X188401000Y-64676000D02*
X188401000Y-65760000D01*
X187920000Y-67440000D02*
X187920000Y-68656000D01*
X188721000Y-64840000D02*
X188721000Y-65760000D01*
X188040000Y-64566000D02*
X188040000Y-65760000D01*
X187880000Y-64538000D02*
X187880000Y-65760000D01*
X187880000Y-67440000D02*
X187880000Y-68662000D01*
X189561000Y-65832000D02*
X189561000Y-67368000D01*
X188200000Y-67440000D02*
X188200000Y-68594000D01*
X188681000Y-67440000D02*
X188681000Y-68385000D01*
X189481000Y-65660000D02*
X189481000Y-67540000D01*
X188441000Y-64693000D02*
X188441000Y-65760000D01*
X187840000Y-64533000D02*
X187840000Y-65760000D01*
X187960000Y-67440000D02*
X187960000Y-68650000D01*
X188521000Y-67440000D02*
X188521000Y-68470000D01*
X188200000Y-64606000D02*
X188200000Y-65760000D01*
X188641000Y-64792000D02*
X188641000Y-65760000D01*
X187720000Y-64523000D02*
X187720000Y-68677000D01*
X188601000Y-64770000D02*
X188601000Y-65760000D01*
X189241000Y-65296000D02*
X189241000Y-65760000D01*
X188881000Y-64950000D02*
X188881000Y-65760000D01*
X188280000Y-64632000D02*
X188280000Y-65760000D01*
X188080000Y-64575000D02*
X188080000Y-65760000D01*
X185330199Y-65405000D02*
X185730199Y-65405000D01*
X188761000Y-67440000D02*
X188761000Y-68335000D01*
X188280000Y-67440000D02*
X188280000Y-68568000D01*
X189321000Y-67440000D02*
X189321000Y-67800000D01*
X187640000Y-64520000D02*
X187640000Y-68680000D01*
X188521000Y-64730000D02*
X188521000Y-65760000D01*
X187760000Y-64526000D02*
X187760000Y-68674000D01*
X188961000Y-65013000D02*
X188961000Y-65760000D01*
X189201000Y-67440000D02*
X189201000Y-67951000D01*
X188120000Y-67440000D02*
X188120000Y-68616000D01*
X188080000Y-67440000D02*
X188080000Y-68625000D01*
X188120000Y-64584000D02*
X188120000Y-65760000D01*
X189641000Y-66063000D02*
X189641000Y-67137000D01*
X188240000Y-67440000D02*
X188240000Y-68582000D01*
X188641000Y-67440000D02*
X188641000Y-68408000D01*
X188761000Y-64865000D02*
X188761000Y-65760000D01*
X187600000Y-64520000D02*
X187600000Y-68680000D01*
X188240000Y-64618000D02*
X188240000Y-65760000D01*
X187840000Y-67440000D02*
X187840000Y-68667000D01*
X189081000Y-65122000D02*
X189081000Y-65760000D01*
X189041000Y-65084000D02*
X189041000Y-65760000D01*
X187680000Y-64521000D02*
X187680000Y-68679000D01*
X188321000Y-64646000D02*
X188321000Y-65760000D01*
X189521000Y-65741000D02*
X189521000Y-67459000D01*
X187800000Y-64529000D02*
X187800000Y-65760000D01*
X189041000Y-67440000D02*
X189041000Y-68116000D01*
X188361000Y-64660000D02*
X188361000Y-65760000D01*
X189121000Y-65162000D02*
X189121000Y-65760000D01*
X188160000Y-67440000D02*
X188160000Y-68605000D01*
X189601000Y-65936000D02*
X189601000Y-67264000D01*
X189401000Y-67440000D02*
X189401000Y-67680000D01*
X189321000Y-65400000D02*
X189321000Y-65760000D01*
X188801000Y-64892000D02*
X188801000Y-65760000D01*
X187920000Y-64544000D02*
X187920000Y-65760000D01*
X189161000Y-65204000D02*
X189161000Y-65760000D01*
X188841000Y-64920000D02*
X188841000Y-65760000D01*
X189001000Y-65048000D02*
X189001000Y-65760000D01*
X189401000Y-65520000D02*
X189401000Y-65760000D01*
X189081000Y-67440000D02*
X189081000Y-68078000D01*
X187960000Y-64550000D02*
X187960000Y-65760000D01*
X188801000Y-67440000D02*
X188801000Y-68308000D01*
X188321000Y-67440000D02*
X188321000Y-68554000D01*
X188000000Y-64558000D02*
X188000000Y-65760000D01*
X188561000Y-64749000D02*
X188561000Y-65760000D01*
X188361000Y-67440000D02*
X188361000Y-68540000D01*
X188040000Y-67440000D02*
X188040000Y-68634000D01*
X188881000Y-67440000D02*
X188881000Y-68250000D01*
X188481000Y-64711000D02*
X188481000Y-65760000D01*
X188681000Y-64815000D02*
X188681000Y-65760000D01*
X189361000Y-67440000D02*
X189361000Y-67742000D01*
X188921000Y-67440000D02*
X188921000Y-68219000D01*
X188481000Y-67440000D02*
X188481000Y-68489000D01*
X189121000Y-67440000D02*
X189121000Y-68038000D01*
X189201000Y-65249000D02*
X189201000Y-65760000D01*
X188961000Y-67440000D02*
X188961000Y-68187000D01*
X189241000Y-67440000D02*
X189241000Y-67904000D01*
X189001000Y-67440000D02*
X189001000Y-68152000D01*
X188721000Y-67440000D02*
X188721000Y-68360000D01*
%TO.C,100\u03A9*%
X185520000Y-87800000D02*
X184750000Y-87800000D01*
X177440000Y-87800000D02*
X178210000Y-87800000D01*
X184750000Y-86430000D02*
X178210000Y-86430000D01*
X178210000Y-86430000D02*
X178210000Y-89170000D01*
X184750000Y-89170000D02*
X184750000Y-86430000D01*
X178210000Y-89170000D02*
X184750000Y-89170000D01*
X178210000Y-76180000D02*
X178210000Y-78920000D01*
X184750000Y-78920000D02*
X184750000Y-76180000D01*
X185520000Y-77550000D02*
X184750000Y-77550000D01*
X184750000Y-76180000D02*
X178210000Y-76180000D01*
X178210000Y-78920000D02*
X184750000Y-78920000D01*
X177440000Y-77550000D02*
X178210000Y-77550000D01*
%TO.C,Spike_Buzzer*%
X202750000Y-64050000D02*
G75*
G03*
X202750000Y-64050000I-5750000J0D01*
G01*
%TO.C,100\u03A9*%
X178210000Y-81180000D02*
X178210000Y-83920000D01*
X178210000Y-83920000D02*
X184750000Y-83920000D01*
X184750000Y-81180000D02*
X178210000Y-81180000D01*
X177440000Y-82550000D02*
X178210000Y-82550000D01*
X185520000Y-82550000D02*
X184750000Y-82550000D01*
X184750000Y-83920000D02*
X184750000Y-81180000D01*
%TO.C,Mode Button*%
X190750000Y-120750000D02*
X190750000Y-122250000D01*
X192000000Y-124750000D02*
X196500000Y-124750000D01*
X197750000Y-122250000D02*
X197750000Y-120750000D01*
X196500000Y-118250000D02*
X192000000Y-118250000D01*
D13*
%TO.C,ESP32 Wroom-32 Dev Module*%
X145800000Y-53750000D02*
X173700000Y-53750000D01*
X173700000Y-53750000D02*
X173700000Y-108150000D01*
X173700000Y-108150000D02*
X145800000Y-108150000D01*
X145800000Y-108150000D02*
X145800000Y-53750000D01*
D12*
%TO.C,7*%
X195710000Y-114080000D02*
X195710000Y-114236000D01*
X195710000Y-111764000D02*
X195710000Y-111920000D01*
X198311130Y-111920163D02*
G75*
G03*
X196229039Y-111920000I-1041130J-1079837D01*
G01*
X198942335Y-111921392D02*
G75*
G03*
X195710000Y-111764484I-1672335J-1078608D01*
G01*
X195710000Y-114235516D02*
G75*
G03*
X198942335Y-114078608I1560000J1235516D01*
G01*
X196229039Y-114080000D02*
G75*
G03*
X198311130Y-114079837I1040961J1080000D01*
G01*
%TO.C,5*%
X189710000Y-87764000D02*
X189710000Y-87920000D01*
X189710000Y-90080000D02*
X189710000Y-90236000D01*
X190229039Y-90080000D02*
G75*
G03*
X192311130Y-90079837I1040961J1080000D01*
G01*
X192942335Y-87921392D02*
G75*
G03*
X189710000Y-87764484I-1672335J-1078608D01*
G01*
X189710000Y-90235516D02*
G75*
G03*
X192942335Y-90078608I1560000J1235516D01*
G01*
X192311130Y-87920163D02*
G75*
G03*
X190229039Y-87920000I-1041130J-1079837D01*
G01*
%TD*%
M02*
