%TF.GenerationSoftware,KiCad,Pcbnew,(6.0.4)*%
%TF.CreationDate,2022-09-15T01:26:23+02:00*%
%TF.ProjectId,_autosave-Spikeling_V2.1,5f617574-6f73-4617-9665-2d5370696b65,rev?*%
%TF.SameCoordinates,Original*%
%TF.FileFunction,Copper,L1,Top*%
%TF.FilePolarity,Positive*%
%FSLAX46Y46*%
G04 Gerber Fmt 4.6, Leading zero omitted, Abs format (unit mm)*
G04 Created by KiCad (PCBNEW (6.0.4)) date 2022-09-15 01:26:23*
%MOMM*%
%LPD*%
G01*
G04 APERTURE LIST*
G04 Aperture macros list*
%AMRoundRect*
0 Rectangle with rounded corners*
0 $1 Rounding radius*
0 $2 $3 $4 $5 $6 $7 $8 $9 X,Y pos of 4 corners*
0 Add a 4 corners polygon primitive as box body*
4,1,4,$2,$3,$4,$5,$6,$7,$8,$9,$2,$3,0*
0 Add four circle primitives for the rounded corners*
1,1,$1+$1,$2,$3*
1,1,$1+$1,$4,$5*
1,1,$1+$1,$6,$7*
1,1,$1+$1,$8,$9*
0 Add four rect primitives between the rounded corners*
20,1,$1+$1,$2,$3,$4,$5,0*
20,1,$1+$1,$4,$5,$6,$7,0*
20,1,$1+$1,$6,$7,$8,$9,0*
20,1,$1+$1,$8,$9,$2,$3,0*%
G04 Aperture macros list end*
%TA.AperFunction,ComponentPad*%
%ADD10O,1.800000X1.070000*%
%TD*%
%TA.AperFunction,ComponentPad*%
%ADD11R,1.800000X1.070000*%
%TD*%
%TA.AperFunction,ComponentPad*%
%ADD12C,5.600000*%
%TD*%
%TA.AperFunction,ComponentPad*%
%ADD13R,1.800000X1.800000*%
%TD*%
%TA.AperFunction,ComponentPad*%
%ADD14C,1.800000*%
%TD*%
%TA.AperFunction,ComponentPad*%
%ADD15C,1.600000*%
%TD*%
%TA.AperFunction,ComponentPad*%
%ADD16O,1.600000X1.600000*%
%TD*%
%TA.AperFunction,ComponentPad*%
%ADD17R,1.600000X1.600000*%
%TD*%
%TA.AperFunction,ComponentPad*%
%ADD18RoundRect,0.750000X0.750000X-1.250000X0.750000X1.250000X-0.750000X1.250000X-0.750000X-1.250000X0*%
%TD*%
%TA.AperFunction,ComponentPad*%
%ADD19RoundRect,0.381000X0.762000X0.381000X-0.762000X0.381000X-0.762000X-0.381000X0.762000X-0.381000X0*%
%TD*%
%TA.AperFunction,ComponentPad*%
%ADD20RoundRect,0.381000X0.381000X-0.762000X0.381000X0.762000X-0.381000X0.762000X-0.381000X-0.762000X0*%
%TD*%
%TA.AperFunction,ComponentPad*%
%ADD21RoundRect,0.381000X-0.381000X0.762000X-0.381000X-0.762000X0.381000X-0.762000X0.381000X0.762000X0*%
%TD*%
%TA.AperFunction,ComponentPad*%
%ADD22RoundRect,0.381000X-0.762000X-0.381000X0.762000X-0.381000X0.762000X0.381000X-0.762000X0.381000X0*%
%TD*%
%TA.AperFunction,ComponentPad*%
%ADD23R,1.200000X1.200000*%
%TD*%
%TA.AperFunction,ComponentPad*%
%ADD24C,1.200000*%
%TD*%
%TA.AperFunction,ComponentPad*%
%ADD25C,1.750000*%
%TD*%
%TA.AperFunction,ComponentPad*%
%ADD26C,2.100000*%
%TD*%
%TA.AperFunction,ComponentPad*%
%ADD27R,2.000000X2.000000*%
%TD*%
%TA.AperFunction,ComponentPad*%
%ADD28C,2.000000*%
%TD*%
%TA.AperFunction,ComponentPad*%
%ADD29R,1.560000X1.560000*%
%TD*%
%TA.AperFunction,ComponentPad*%
%ADD30C,1.560000*%
%TD*%
%TA.AperFunction,ViaPad*%
%ADD31C,0.800000*%
%TD*%
%TA.AperFunction,Conductor*%
%ADD32C,0.250000*%
%TD*%
G04 APERTURE END LIST*
D10*
%TO.P,Spike_LED,1,RA*%
%TO.N,/27*%
X177750000Y-64680000D03*
D11*
%TO.P,Spike_LED,2,K*%
%TO.N,Net-(100\u03A9_Spike-LED1-Pad2)*%
X177750000Y-65950000D03*
D10*
%TO.P,Spike_LED,3,GA*%
%TO.N,/14*%
X177750000Y-63410000D03*
%TO.P,Spike_LED,4,BA*%
%TO.N,/12*%
X177750000Y-62140000D03*
%TD*%
D12*
%TO.P, ,1*%
%TO.N,N/C*%
X120000000Y-55000000D03*
%TD*%
D13*
%TO.P,6,1,K*%
%TO.N,Net-(100\u03A9_CharliePlex3-Pad2)*%
X190000000Y-83000000D03*
D14*
%TO.P,6,2,A*%
%TO.N,Net-(100\u03A9_CharliePlex4-Pad2)*%
X192540000Y-83000000D03*
%TD*%
D13*
%TO.P,1,1,K*%
%TO.N,Net-(100\u03A9_CharliePlex2-Pad2)*%
X190000000Y-113000000D03*
D14*
%TO.P,1,2,A*%
%TO.N,Net-(100\u03A9_CharliePlex1-Pad2)*%
X192540000Y-113000000D03*
%TD*%
D15*
%TO.P,10k\u03A9,1*%
%TO.N,/39*%
X186560000Y-103300000D03*
D16*
%TO.P,10k\u03A9,2*%
%TO.N,GNDREF*%
X176400000Y-103300000D03*
%TD*%
D17*
%TO.P,MCP3208,1,CH0*%
%TO.N,/200*%
X130500000Y-89125000D03*
D16*
%TO.P,MCP3208,2,CH1*%
%TO.N,/201*%
X130500000Y-91665000D03*
%TO.P,MCP3208,3,CH2*%
%TO.N,/202*%
X130500000Y-94205000D03*
%TO.P,MCP3208,4,CH3*%
%TO.N,/203*%
X130500000Y-96745000D03*
%TO.P,MCP3208,5,CH4*%
%TO.N,/204*%
X130500000Y-99285000D03*
%TO.P,MCP3208,6,CH5*%
%TO.N,/205*%
X130500000Y-101825000D03*
%TO.P,MCP3208,7,CH6*%
%TO.N,/206*%
X130500000Y-104365000D03*
%TO.P,MCP3208,8,CH7*%
%TO.N,/207*%
X130500000Y-106905000D03*
%TO.P,MCP3208,9,DGND*%
%TO.N,GNDREF*%
X138120000Y-106905000D03*
%TO.P,MCP3208,10,~{CS}/SHDN*%
%TO.N,/04*%
X138120000Y-104365000D03*
%TO.P,MCP3208,11,Din*%
%TO.N,/32*%
X138120000Y-101825000D03*
%TO.P,MCP3208,12,Dout*%
%TO.N,/33*%
X138120000Y-99285000D03*
%TO.P,MCP3208,13,CLK*%
%TO.N,/18*%
X138120000Y-96745000D03*
%TO.P,MCP3208,14,AGND*%
%TO.N,GNDREF*%
X138120000Y-94205000D03*
%TO.P,MCP3208,15,Vref*%
%TO.N,VCC*%
X138120000Y-91665000D03*
%TO.P,MCP3208,16,Vdd*%
X138120000Y-89125000D03*
%TD*%
D13*
%TO.P,Stimulus,1,1*%
%TO.N,GNDREF*%
X210750000Y-109750000D03*
D14*
%TO.P,Stimulus,2,2*%
%TO.N,/104*%
X213250000Y-109750000D03*
%TO.P,Stimulus,3,3*%
%TO.N,VCC*%
X215750000Y-109750000D03*
D18*
%TO.P,Stimulus,MP*%
%TO.N,N/C*%
X217650000Y-102750000D03*
X208850000Y-102750000D03*
%TD*%
D13*
%TO.P,Noise,1,1*%
%TO.N,GNDREF*%
X171100000Y-128900000D03*
D14*
%TO.P,Noise,2,2*%
%TO.N,/106*%
X173600000Y-128900000D03*
%TO.P,Noise,3,3*%
%TO.N,VCC*%
X176100000Y-128900000D03*
D18*
%TO.P,Noise,MP*%
%TO.N,N/C*%
X169200000Y-121900000D03*
X178000000Y-121900000D03*
%TD*%
D19*
%TO.P,Synapse In 1,*%
%TO.N,*%
X109781500Y-58650000D03*
D20*
%TO.P,Synapse In 1,R*%
%TO.N,/200*%
X111981500Y-60750000D03*
D21*
%TO.P,Synapse In 1,S*%
%TO.N,GNDREF*%
X102781500Y-58450000D03*
D20*
%TO.P,Synapse In 1,T*%
%TO.N,/35*%
X110781500Y-51750000D03*
%TD*%
D22*
%TO.P,Synapse Out,*%
%TO.N,*%
X210468500Y-61600000D03*
D21*
%TO.P,Synapse Out,R*%
%TO.N,Net-(10\u03A9_RC1-Pad2)*%
X208268500Y-59500000D03*
D20*
%TO.P,Synapse Out,S*%
%TO.N,GNDREF*%
X217468500Y-61800000D03*
D21*
%TO.P,Synapse Out,T*%
%TO.N,/15*%
X209468500Y-68500000D03*
%TD*%
D13*
%TO.P,Synapse1 Gain,1,1*%
%TO.N,GNDREF*%
X104250000Y-75500000D03*
D14*
%TO.P,Synapse1 Gain,2,2*%
%TO.N,/101*%
X106750000Y-75500000D03*
%TO.P,Synapse1 Gain,3,3*%
%TO.N,VCC*%
X109250000Y-75500000D03*
D18*
%TO.P,Synapse1 Gain,MP*%
%TO.N,N/C*%
X111150000Y-68500000D03*
X102350000Y-68500000D03*
%TD*%
D13*
%TO.P,3,1,K*%
%TO.N,Net-(100\u03A9_CharliePlex3-Pad2)*%
X190000000Y-101000000D03*
D14*
%TO.P,3,2,A*%
%TO.N,Net-(100\u03A9_CharliePlex2-Pad2)*%
X192540000Y-101000000D03*
%TD*%
D13*
%TO.P,Voltage Membrane,1,1*%
%TO.N,GNDREF*%
X118750000Y-128750000D03*
D14*
%TO.P,Voltage Membrane,2,2*%
%TO.N,/100*%
X121250000Y-128750000D03*
%TO.P,Voltage Membrane,3,3*%
%TO.N,VCC*%
X123750000Y-128750000D03*
D18*
%TO.P,Voltage Membrane,MP*%
%TO.N,N/C*%
X116850000Y-121750000D03*
X125650000Y-121750000D03*
%TD*%
D15*
%TO.P,100\u03A9,1*%
%TO.N,/22*%
X176500000Y-108400000D03*
D16*
%TO.P,100\u03A9,2*%
%TO.N,Net-(100\u03A9_Stim-LED1-Pad2)*%
X186660000Y-108400000D03*
%TD*%
D12*
%TO.P, ,1*%
%TO.N,N/C*%
X204000000Y-55000000D03*
%TD*%
D17*
%TO.P,MCP3208,1,CH0*%
%TO.N,/100*%
X130500000Y-65000000D03*
D16*
%TO.P,MCP3208,2,CH1*%
%TO.N,/101*%
X130500000Y-67540000D03*
%TO.P,MCP3208,3,CH2*%
%TO.N,/102*%
X130500000Y-70080000D03*
%TO.P,MCP3208,4,CH3*%
%TO.N,/103*%
X130500000Y-72620000D03*
%TO.P,MCP3208,5,CH4*%
%TO.N,/104*%
X130500000Y-75160000D03*
%TO.P,MCP3208,6,CH5*%
%TO.N,/105*%
X130500000Y-77700000D03*
%TO.P,MCP3208,7,CH6*%
%TO.N,/106*%
X130500000Y-80240000D03*
%TO.P,MCP3208,8,CH7*%
%TO.N,/107*%
X130500000Y-82780000D03*
%TO.P,MCP3208,9,DGND*%
%TO.N,GNDREF*%
X138120000Y-82780000D03*
%TO.P,MCP3208,10,~{CS}/SHDN*%
%TO.N,/00*%
X138120000Y-80240000D03*
%TO.P,MCP3208,11,Din*%
%TO.N,/32*%
X138120000Y-77700000D03*
%TO.P,MCP3208,12,Dout*%
%TO.N,/33*%
X138120000Y-75160000D03*
%TO.P,MCP3208,13,CLK*%
%TO.N,/18*%
X138120000Y-72620000D03*
%TO.P,MCP3208,14,AGND*%
%TO.N,GNDREF*%
X138120000Y-70080000D03*
%TO.P,MCP3208,15,Vref*%
%TO.N,VCC*%
X138120000Y-67540000D03*
%TO.P,MCP3208,16,Vdd*%
X138120000Y-65000000D03*
%TD*%
D23*
%TO.P,1\u03BCF,1*%
%TO.N,GNDREF*%
X143472600Y-91750000D03*
D24*
%TO.P,1\u03BCF,2*%
%TO.N,VCC*%
X141472600Y-91750000D03*
%TD*%
D21*
%TO.P,Stimulus Out,*%
%TO.N,*%
X216150000Y-120218500D03*
D19*
%TO.P,Stimulus Out,R*%
%TO.N,/26*%
X218250000Y-118018500D03*
D22*
%TO.P,Stimulus Out,S*%
%TO.N,GNDREF*%
X215950000Y-127218500D03*
D19*
%TO.P,Stimulus Out,T*%
%TO.N,Net-(100\u03A9_Stim-LED1-Pad2)*%
X209250000Y-119218500D03*
%TD*%
D25*
%TO.P,Reset Button,2,2*%
%TO.N,Net-(Reset_Button1-Pad2)*%
X136500000Y-54440000D03*
%TO.P,Reset Button,1,1*%
%TO.N,GNDREF*%
X132000000Y-54440000D03*
D26*
%TO.P,Reset Button,*%
%TO.N,*%
X130750000Y-56930000D03*
X137760000Y-56930000D03*
%TD*%
D13*
%TO.P,10,1,K*%
%TO.N,Net-(100\u03A9_CharliePlex2-Pad2)*%
X196000000Y-95000000D03*
D14*
%TO.P,10,2,A*%
%TO.N,Net-(100\u03A9_CharliePlex4-Pad2)*%
X198540000Y-95000000D03*
%TD*%
D13*
%TO.P,8,1,K*%
%TO.N,Net-(100\u03A9_CharliePlex1-Pad2)*%
X196000000Y-107000000D03*
D14*
%TO.P,8,2,A*%
%TO.N,Net-(100\u03A9_CharliePlex3-Pad2)*%
X198540000Y-107000000D03*
%TD*%
D23*
%TO.P,1\u03BCF,1*%
%TO.N,GNDREF*%
X143472600Y-67500000D03*
D24*
%TO.P,1\u03BCF,2*%
%TO.N,VCC*%
X141472600Y-67500000D03*
%TD*%
D15*
%TO.P,100\u03A9,1*%
%TO.N,/21*%
X176400000Y-98300000D03*
D16*
%TO.P,100\u03A9,2*%
%TO.N,Net-(100\u03A9_CharliePlex4-Pad2)*%
X186560000Y-98300000D03*
%TD*%
D13*
%TO.P,12,1,K*%
%TO.N,Net-(100\u03A9_CharliePlex1-Pad2)*%
X196000000Y-83000000D03*
D14*
%TO.P,12,2,A*%
%TO.N,Net-(100\u03A9_CharliePlex4-Pad2)*%
X198540000Y-83000000D03*
%TD*%
D13*
%TO.P,11,1,K*%
%TO.N,Net-(100\u03A9_CharliePlex4-Pad2)*%
X196000000Y-89000000D03*
D14*
%TO.P,11,2,A*%
%TO.N,Net-(100\u03A9_CharliePlex1-Pad2)*%
X198540000Y-89000000D03*
%TD*%
D13*
%TO.P,9,1,K*%
%TO.N,Net-(100\u03A9_CharliePlex4-Pad2)*%
X196000000Y-101000000D03*
D14*
%TO.P,9,2,A*%
%TO.N,Net-(100\u03A9_CharliePlex2-Pad2)*%
X198540000Y-101000000D03*
%TD*%
D16*
%TO.P,10\u03A9,2*%
%TO.N,Net-(10\u03A9_RC1-Pad2)*%
X186560000Y-72550000D03*
D15*
%TO.P,10\u03A9,1*%
%TO.N,/25*%
X176400000Y-72550000D03*
%TD*%
D13*
%TO.P,Photodiode,1,K*%
%TO.N,GNDREF*%
X139225000Y-121250000D03*
D14*
%TO.P,Photodiode,2,A*%
%TO.N,/202*%
X141765000Y-121250000D03*
%TD*%
D13*
%TO.P,Stimulus,1,1*%
%TO.N,GNDREF*%
X210750000Y-91250000D03*
D14*
%TO.P,Stimulus,2,2*%
%TO.N,/105*%
X213250000Y-91250000D03*
%TO.P,Stimulus,3,3*%
%TO.N,VCC*%
X215750000Y-91250000D03*
D18*
%TO.P,Stimulus,MP*%
%TO.N,N/C*%
X217650000Y-84250000D03*
X208850000Y-84250000D03*
%TD*%
D13*
%TO.P,Synapse2 Gain,1,1*%
%TO.N,GNDREF*%
X104500000Y-109250000D03*
D14*
%TO.P,Synapse2 Gain,2,2*%
%TO.N,/102*%
X107000000Y-109250000D03*
%TO.P,Synapse2 Gain,3,3*%
%TO.N,VCC*%
X109500000Y-109250000D03*
D18*
%TO.P,Synapse2 Gain,MP*%
%TO.N,N/C*%
X102600000Y-102250000D03*
X111400000Y-102250000D03*
%TD*%
D19*
%TO.P,Synapse In 2,*%
%TO.N,*%
X109750000Y-92400000D03*
D20*
%TO.P,Synapse In 2,R*%
%TO.N,/201*%
X111950000Y-94500000D03*
D21*
%TO.P,Synapse In 2,S*%
%TO.N,GNDREF*%
X102750000Y-92200000D03*
D20*
%TO.P,Synapse In 2,T*%
%TO.N,/34*%
X110750000Y-85500000D03*
%TD*%
D13*
%TO.P,2,1,K*%
%TO.N,Net-(100\u03A9_CharliePlex1-Pad2)*%
X190000000Y-107000000D03*
D14*
%TO.P,2,2,A*%
%TO.N,Net-(100\u03A9_CharliePlex2-Pad2)*%
X192540000Y-107000000D03*
%TD*%
D12*
%TO.P, ,1*%
%TO.N,N/C*%
X204000000Y-110000000D03*
%TD*%
D13*
%TO.P,4,1,K*%
%TO.N,Net-(100\u03A9_CharliePlex2-Pad2)*%
X190000000Y-95000000D03*
D14*
%TO.P,4,2,A*%
%TO.N,Net-(100\u03A9_CharliePlex3-Pad2)*%
X192540000Y-95000000D03*
%TD*%
D21*
%TO.P,Current In,*%
%TO.N,*%
X108400000Y-120468500D03*
D19*
%TO.P,Current In,R*%
%TO.N,/203*%
X110500000Y-118268500D03*
D22*
%TO.P,Current In,S*%
%TO.N,GNDREF*%
X108200000Y-127468500D03*
D19*
%TO.P,Current In,T*%
%TO.N,unconnected-(Current_In1-PadT)*%
X101500000Y-119468500D03*
%TD*%
D15*
%TO.P,100\u03A9,1*%
%TO.N,/19*%
X176400000Y-93050000D03*
D16*
%TO.P,100\u03A9,2*%
%TO.N,Net-(100\u03A9_CharliePlex3-Pad2)*%
X186560000Y-93050000D03*
%TD*%
D15*
%TO.P,10k\u03A9,1*%
%TO.N,/202*%
X131250000Y-116420000D03*
D16*
%TO.P,10k\u03A9,2*%
%TO.N,GNDREF*%
X131250000Y-126580000D03*
%TD*%
D13*
%TO.P,Photodiode Gain,1,1*%
%TO.N,GNDREF*%
X151750000Y-128750000D03*
D14*
%TO.P,Photodiode Gain,2,2*%
%TO.N,/103*%
X154250000Y-128750000D03*
%TO.P,Photodiode Gain,3,3*%
%TO.N,VCC*%
X156750000Y-128750000D03*
D18*
%TO.P,Photodiode Gain,MP*%
%TO.N,N/C*%
X158650000Y-121750000D03*
X149850000Y-121750000D03*
%TD*%
D24*
%TO.P,1nF,2*%
%TO.N,GNDREF*%
X188600000Y-66600000D03*
D23*
%TO.P,1nF,1*%
%TO.N,Net-(10\u03A9_RC1-Pad2)*%
X186600000Y-66600000D03*
%TD*%
D15*
%TO.P,100\u03A9,1*%
%TO.N,/05*%
X176400000Y-87800000D03*
D16*
%TO.P,100\u03A9,2*%
%TO.N,Net-(100\u03A9_CharliePlex2-Pad2)*%
X186560000Y-87800000D03*
%TD*%
D15*
%TO.P,100\u03A9,1*%
%TO.N,GNDREF*%
X186560000Y-77550000D03*
D16*
%TO.P,100\u03A9,2*%
%TO.N,Net-(100\u03A9_Spike-LED1-Pad2)*%
X176400000Y-77550000D03*
%TD*%
D27*
%TO.P,Spike_Buzzer,1,-*%
%TO.N,/13*%
X197000000Y-61550000D03*
D28*
%TO.P,Spike_Buzzer,2,+*%
%TO.N,GNDREF*%
X197000000Y-66550000D03*
%TD*%
D12*
%TO.P, ,1*%
%TO.N,N/C*%
X120000000Y-110000000D03*
%TD*%
D15*
%TO.P,100\u03A9,1*%
%TO.N,/02*%
X176400000Y-82550000D03*
D16*
%TO.P,100\u03A9,2*%
%TO.N,Net-(100\u03A9_CharliePlex1-Pad2)*%
X186560000Y-82550000D03*
%TD*%
D28*
%TO.P,Mode Button,1,1*%
%TO.N,/39*%
X191000000Y-119250000D03*
X197500000Y-119250000D03*
%TO.P,Mode Button,2,2*%
%TO.N,VCC*%
X197500000Y-123750000D03*
X191000000Y-123750000D03*
%TD*%
D29*
%TO.P,ESP32 Wroom-32 Dev Module,1,3V3*%
%TO.N,+3V3*%
X172450000Y-100760000D03*
D30*
%TO.P,ESP32 Wroom-32 Dev Module,2,EN*%
%TO.N,Net-(Reset_Button1-Pad2)*%
X172450000Y-98220000D03*
%TO.P,ESP32 Wroom-32 Dev Module,3,SENSOR_VP*%
%TO.N,unconnected-(U1-Pad3)*%
X172450000Y-95680000D03*
%TO.P,ESP32 Wroom-32 Dev Module,4,SENSOR_VN*%
%TO.N,/39*%
X172450000Y-93140000D03*
%TO.P,ESP32 Wroom-32 Dev Module,5,IO34*%
%TO.N,/34*%
X172450000Y-90600000D03*
%TO.P,ESP32 Wroom-32 Dev Module,6,IO35*%
%TO.N,/35*%
X172450000Y-88060000D03*
%TO.P,ESP32 Wroom-32 Dev Module,7,IO32*%
%TO.N,/32*%
X172450000Y-85520000D03*
%TO.P,ESP32 Wroom-32 Dev Module,8,IO33*%
%TO.N,/33*%
X172450000Y-82980000D03*
%TO.P,ESP32 Wroom-32 Dev Module,9,IO25*%
%TO.N,/25*%
X172450000Y-80440000D03*
%TO.P,ESP32 Wroom-32 Dev Module,10,IO26*%
%TO.N,/26*%
X172450000Y-77900000D03*
%TO.P,ESP32 Wroom-32 Dev Module,11,IO27*%
%TO.N,/27*%
X172450000Y-75360000D03*
%TO.P,ESP32 Wroom-32 Dev Module,12,IO14*%
%TO.N,/14*%
X172450000Y-72820000D03*
%TO.P,ESP32 Wroom-32 Dev Module,13,IO12*%
%TO.N,/12*%
X172450000Y-70280000D03*
%TO.P,ESP32 Wroom-32 Dev Module,14,GND1*%
%TO.N,GNDREF*%
X172450000Y-67740000D03*
%TO.P,ESP32 Wroom-32 Dev Module,15,IO13*%
%TO.N,/13*%
X172450000Y-65200000D03*
%TO.P,ESP32 Wroom-32 Dev Module,16,SD2*%
%TO.N,unconnected-(U1-Pad16)*%
X172450000Y-62660000D03*
%TO.P,ESP32 Wroom-32 Dev Module,17,SD3*%
%TO.N,unconnected-(U1-Pad17)*%
X172450000Y-60120000D03*
%TO.P,ESP32 Wroom-32 Dev Module,18,CMD*%
%TO.N,unconnected-(U1-Pad18)*%
X172450000Y-57580000D03*
%TO.P,ESP32 Wroom-32 Dev Module,19,EXT_5V*%
%TO.N,VCC*%
X172450000Y-55040000D03*
%TO.P,ESP32 Wroom-32 Dev Module,20,GND3*%
%TO.N,GNDREF*%
X147050000Y-100760000D03*
%TO.P,ESP32 Wroom-32 Dev Module,21,IO23*%
%TO.N,/23*%
X147050000Y-98220000D03*
%TO.P,ESP32 Wroom-32 Dev Module,22,IO22*%
%TO.N,/22*%
X147050000Y-95680000D03*
%TO.P,ESP32 Wroom-32 Dev Module,23,TXD0*%
%TO.N,unconnected-(U1-Pad23)*%
X147050000Y-93140000D03*
%TO.P,ESP32 Wroom-32 Dev Module,24,RXD0*%
%TO.N,unconnected-(U1-Pad24)*%
X147050000Y-90600000D03*
%TO.P,ESP32 Wroom-32 Dev Module,25,IO21*%
%TO.N,/21*%
X147050000Y-88060000D03*
%TO.P,ESP32 Wroom-32 Dev Module,26,GND2*%
%TO.N,GNDREF*%
X147050000Y-85520000D03*
%TO.P,ESP32 Wroom-32 Dev Module,27,IO19*%
%TO.N,/19*%
X147050000Y-82980000D03*
%TO.P,ESP32 Wroom-32 Dev Module,28,IO18*%
%TO.N,/18*%
X147050000Y-80440000D03*
%TO.P,ESP32 Wroom-32 Dev Module,29,IO5*%
%TO.N,/05*%
X147050000Y-77900000D03*
%TO.P,ESP32 Wroom-32 Dev Module,30,IO17*%
%TO.N,/17*%
X147050000Y-75360000D03*
%TO.P,ESP32 Wroom-32 Dev Module,31,IO16*%
%TO.N,/16*%
X147050000Y-72820000D03*
%TO.P,ESP32 Wroom-32 Dev Module,32,IO4*%
%TO.N,/04*%
X147050000Y-70280000D03*
%TO.P,ESP32 Wroom-32 Dev Module,33,IO0*%
%TO.N,/00*%
X147050000Y-67740000D03*
%TO.P,ESP32 Wroom-32 Dev Module,34,IO2*%
%TO.N,/02*%
X147050000Y-65200000D03*
%TO.P,ESP32 Wroom-32 Dev Module,35,IO15*%
%TO.N,/15*%
X147050000Y-62660000D03*
%TO.P,ESP32 Wroom-32 Dev Module,36,SD1*%
%TO.N,unconnected-(U1-Pad36)*%
X147050000Y-60120000D03*
%TO.P,ESP32 Wroom-32 Dev Module,37,SD0*%
%TO.N,unconnected-(U1-Pad37)*%
X147050000Y-57580000D03*
%TO.P,ESP32 Wroom-32 Dev Module,38,CLK*%
%TO.N,unconnected-(U1-Pad38)*%
X147050000Y-55040000D03*
%TD*%
D13*
%TO.P,7,1,K*%
%TO.N,Net-(100\u03A9_CharliePlex3-Pad2)*%
X196000000Y-113000000D03*
D14*
%TO.P,7,2,A*%
%TO.N,Net-(100\u03A9_CharliePlex1-Pad2)*%
X198540000Y-113000000D03*
%TD*%
D13*
%TO.P,5,1,K*%
%TO.N,Net-(100\u03A9_CharliePlex4-Pad2)*%
X190000000Y-89000000D03*
D14*
%TO.P,5,2,A*%
%TO.N,Net-(100\u03A9_CharliePlex3-Pad2)*%
X192540000Y-89000000D03*
%TD*%
D31*
%TO.N,/02*%
X150000000Y-65200000D03*
X162800000Y-76600000D03*
%TO.N,/21*%
X174800000Y-106000000D03*
%TO.N,/34*%
X117800000Y-101400000D03*
%TO.N,/35*%
X154800000Y-53000000D03*
%TO.N,Net-(Reset_Button1-Pad2)*%
X151200000Y-53000000D03*
%TD*%
D32*
%TO.N,/02*%
X151400000Y-65200000D02*
X150000000Y-65200000D01*
X162800000Y-76600000D02*
X151400000Y-65200000D01*
%TO.N,/21*%
X176400000Y-106000000D02*
X174800000Y-106000000D01*
X178400000Y-100300000D02*
X178400000Y-104000000D01*
X178400000Y-104000000D02*
X176400000Y-106000000D01*
X176400000Y-98300000D02*
X178400000Y-100300000D01*
%TO.N,/39*%
X188775489Y-117025489D02*
X191000000Y-119250000D01*
X188775489Y-105515489D02*
X188775489Y-117025489D01*
X186560000Y-103300000D02*
X188775489Y-105515489D01*
X191000000Y-119250000D02*
X197500000Y-119250000D01*
%TO.N,VCC*%
X191000000Y-123750000D02*
X197500000Y-123750000D01*
%TO.N,Net-(100\u03A9_CharliePlex2-Pad2)*%
X193764511Y-102224511D02*
X192540000Y-101000000D01*
X198540000Y-101000000D02*
X197315489Y-102224511D01*
X197315489Y-102224511D02*
X193764511Y-102224511D01*
X192540000Y-110460000D02*
X190000000Y-113000000D01*
X192540000Y-107000000D02*
X192540000Y-110460000D01*
%TO.N,Net-(100\u03A9_CharliePlex3-Pad2)*%
X186560000Y-89390300D02*
X186560000Y-93050000D01*
X190000000Y-83000000D02*
X190000000Y-85950300D01*
X190000000Y-85950300D02*
X186560000Y-89390300D01*
X192540000Y-95000000D02*
X192540000Y-89000000D01*
X197315489Y-105775489D02*
X198540000Y-107000000D01*
X194775489Y-105775489D02*
X197315489Y-105775489D01*
X190000000Y-101000000D02*
X194775489Y-105775489D01*
X190000000Y-97540000D02*
X192540000Y-95000000D01*
X190000000Y-101000000D02*
X190000000Y-97540000D01*
X196000000Y-113000000D02*
X196000000Y-109540000D01*
X196000000Y-109540000D02*
X198540000Y-107000000D01*
%TO.N,Net-(100\u03A9_CharliePlex4-Pad2)*%
X188775489Y-96084511D02*
X186560000Y-98300000D01*
X188775489Y-90224511D02*
X188775489Y-96084511D01*
X190000000Y-89000000D02*
X188775489Y-90224511D01*
X198540000Y-98460000D02*
X196000000Y-101000000D01*
X198540000Y-95000000D02*
X198540000Y-98460000D01*
X196000000Y-92460000D02*
X198540000Y-95000000D01*
X196000000Y-89000000D02*
X196000000Y-92460000D01*
X192540000Y-86460000D02*
X190000000Y-89000000D01*
X192540000Y-83000000D02*
X192540000Y-86460000D01*
X198540000Y-83000000D02*
X198540000Y-86460000D01*
X198540000Y-86460000D02*
X196000000Y-89000000D01*
X193764511Y-81775489D02*
X192540000Y-83000000D01*
X197315489Y-81775489D02*
X193764511Y-81775489D01*
X198540000Y-83000000D02*
X197315489Y-81775489D01*
%TO.N,/25*%
X171345489Y-79335489D02*
X172450000Y-80440000D01*
X171345489Y-77254511D02*
X171345489Y-79335489D01*
X173204511Y-76795489D02*
X171804511Y-76795489D01*
X176400000Y-73600000D02*
X173204511Y-76795489D01*
X176400000Y-72550000D02*
X176400000Y-73600000D01*
X171804511Y-76795489D02*
X171345489Y-77254511D01*
%TO.N,Net-(100\u03A9_Spike-LED1-Pad2)*%
X177750000Y-76200000D02*
X177750000Y-65950000D01*
X176400000Y-77550000D02*
X177750000Y-76200000D01*
%TO.N,Net-(10\u03A9_RC1-Pad2)*%
X186600000Y-72510000D02*
X186560000Y-72550000D01*
X186600000Y-66600000D02*
X186600000Y-72510000D01*
X203768500Y-64000000D02*
X208268500Y-59500000D01*
X189200000Y-64000000D02*
X203768500Y-64000000D01*
X186600000Y-66600000D02*
X189200000Y-64000000D01*
%TO.N,/27*%
X173600000Y-72800000D02*
X173600000Y-74210000D01*
X173600000Y-74210000D02*
X172450000Y-75360000D01*
X175750000Y-65500000D02*
X175750000Y-70650000D01*
X176570000Y-64680000D02*
X175750000Y-65500000D01*
X175750000Y-70650000D02*
X173600000Y-72800000D01*
X177750000Y-64680000D02*
X176570000Y-64680000D01*
%TO.N,/34*%
X125800000Y-109400000D02*
X117800000Y-101400000D01*
X168000000Y-109400000D02*
X125800000Y-109400000D01*
X174000000Y-92150000D02*
X174000000Y-103400000D01*
X174000000Y-103400000D02*
X168000000Y-109400000D01*
X172450000Y-90600000D02*
X174000000Y-92150000D01*
%TO.N,/35*%
X152400000Y-50600000D02*
X149200000Y-50600000D01*
X154800000Y-53000000D02*
X152400000Y-50600000D01*
X111931500Y-50600000D02*
X149200000Y-50600000D01*
%TO.N,Net-(Reset_Button1-Pad2)*%
X137940000Y-53000000D02*
X151200000Y-53000000D01*
X136500000Y-54440000D02*
X137940000Y-53000000D01*
%TO.N,/35*%
X110781500Y-51750000D02*
X111931500Y-50600000D01*
%TO.N,/04*%
X148600000Y-64800000D02*
X148600000Y-68730000D01*
X148600000Y-68730000D02*
X147050000Y-70280000D01*
X147675489Y-63875489D02*
X148600000Y-64800000D01*
X136924511Y-63875489D02*
X147675489Y-63875489D01*
X134600000Y-66200000D02*
X136924511Y-63875489D01*
X134600000Y-100845000D02*
X134600000Y-66200000D01*
X138120000Y-104365000D02*
X134600000Y-100845000D01*
%TO.N,/00*%
X136200000Y-78320000D02*
X138120000Y-80240000D01*
X136200000Y-72949700D02*
X136200000Y-78320000D01*
X137654211Y-71495489D02*
X136200000Y-72949700D01*
X143294511Y-71495489D02*
X137654211Y-71495489D01*
X147050000Y-67740000D02*
X143294511Y-71495489D01*
%TO.N,/32*%
X170080000Y-85520000D02*
X172450000Y-85520000D01*
X166000000Y-89600000D02*
X170080000Y-85520000D01*
X166000000Y-99200000D02*
X166000000Y-89600000D01*
X138919999Y-102624999D02*
X162575001Y-102624999D01*
X138120000Y-101825000D02*
X138919999Y-102624999D01*
X162575001Y-102624999D02*
X166000000Y-99200000D01*
%TO.N,/33*%
X144800000Y-95200000D02*
X144800000Y-81840000D01*
X144800000Y-81840000D02*
X144760000Y-81800000D01*
X140715000Y-99285000D02*
X144800000Y-95200000D01*
X138120000Y-99285000D02*
X140715000Y-99285000D01*
%TO.N,/18*%
X145940000Y-80440000D02*
X147050000Y-80440000D01*
X138120000Y-72620000D02*
X145940000Y-80440000D01*
%TO.N,/33*%
X171270000Y-81800000D02*
X172450000Y-82980000D01*
X144760000Y-81800000D02*
X171270000Y-81800000D01*
X138120000Y-75160000D02*
X144760000Y-81800000D01*
%TO.N,/101*%
X124140000Y-67540000D02*
X130500000Y-67540000D01*
X113200000Y-56600000D02*
X124140000Y-67540000D01*
X106750000Y-57850000D02*
X108000000Y-56600000D01*
X108000000Y-56600000D02*
X113200000Y-56600000D01*
X106750000Y-75500000D02*
X106750000Y-57850000D01*
%TO.N,/12*%
X174750000Y-67980000D02*
X172450000Y-70280000D01*
X174750000Y-63500000D02*
X174750000Y-67980000D01*
%TO.N,GNDREF*%
X141017600Y-94205000D02*
X143472600Y-91750000D01*
X140892600Y-70080000D02*
X143472600Y-67500000D01*
X138120000Y-94205000D02*
X141017600Y-94205000D01*
X138120000Y-70080000D02*
X140892600Y-70080000D01*
%TO.N,/27*%
X172450000Y-75360000D02*
X172450000Y-74879700D01*
%TO.N,/26*%
X218250000Y-118018500D02*
X218250000Y-118118500D01*
%TO.N,/34*%
X111250000Y-86000000D02*
X110750000Y-85500000D01*
X109750000Y-92400000D02*
X109850000Y-92400000D01*
%TO.N,unconnected-(U1-Pad3)*%
X109781500Y-58650000D02*
X109881500Y-58650000D01*
%TO.N,/14*%
X172450000Y-72820000D02*
X175250000Y-70020000D01*
X175250000Y-64500000D02*
X176340000Y-63410000D01*
X176340000Y-63410000D02*
X177750000Y-63410000D01*
X175250000Y-70020000D02*
X175250000Y-64500000D01*
%TO.N,/12*%
X176110000Y-62140000D02*
X174750000Y-63500000D01*
X177750000Y-62140000D02*
X176110000Y-62140000D01*
%TO.N,/13*%
X180000000Y-57250000D02*
X193500000Y-57250000D01*
X172450000Y-65200000D02*
X172450000Y-64800000D01*
X193500000Y-57250000D02*
X197000000Y-60750000D01*
X172450000Y-64800000D02*
X180000000Y-57250000D01*
X197000000Y-60750000D02*
X197000000Y-61550000D01*
%TO.N,/15*%
X147050000Y-62660000D02*
X158460000Y-51250000D01*
X158460000Y-51250000D02*
X208000000Y-51250000D01*
X214000000Y-57250000D02*
X214000000Y-63968500D01*
X214000000Y-63968500D02*
X209468500Y-68500000D01*
X208000000Y-51250000D02*
X214000000Y-57250000D01*
%TO.N,Net-(100\u03A9_CharliePlex2-Pad2)*%
X198540000Y-100080000D02*
X198540000Y-101000000D01*
%TO.N,VCC*%
X141432600Y-67540000D02*
X141472600Y-67500000D01*
X138120000Y-89125000D02*
X138120000Y-91665000D01*
X138120000Y-65000000D02*
X138120000Y-67540000D01*
X138120000Y-67540000D02*
X141432600Y-67540000D01*
X107250000Y-87250000D02*
X107250000Y-107000000D01*
X109250000Y-85250000D02*
X107250000Y-87250000D01*
X138120000Y-91665000D02*
X141387600Y-91665000D01*
X109250000Y-75500000D02*
X109250000Y-85250000D01*
X107250000Y-107000000D02*
X109500000Y-109250000D01*
X141387600Y-91665000D02*
X141472600Y-91750000D01*
%TO.N,/203*%
X115250000Y-113518500D02*
X115250000Y-97500000D01*
X110500000Y-118268500D02*
X115250000Y-113518500D01*
X115250000Y-97500000D02*
X116005000Y-96745000D01*
X116005000Y-96745000D02*
X130500000Y-96745000D01*
%TO.N,/200*%
X117125000Y-89125000D02*
X130500000Y-89125000D01*
X115000000Y-63768500D02*
X115000000Y-87000000D01*
X111981500Y-60750000D02*
X115000000Y-63768500D01*
X115000000Y-87000000D02*
X117125000Y-89125000D01*
%TO.N,/201*%
X111950000Y-94500000D02*
X114785000Y-91665000D01*
X114785000Y-91665000D02*
X130500000Y-91665000D01*
X111950000Y-94500000D02*
X112450000Y-95000000D01*
%TD*%
M02*
