M48
; DRILL file {KiCad (6.0.4)} date Wed Sep 14 23:35:35 2022
; FORMAT={-:-/ absolute / inch / decimal}
; #@! TF.CreationDate,2022-09-14T23:35:35+02:00
; #@! TF.GenerationSoftware,Kicad,Pcbnew,(6.0.4)
; #@! TF.FileFunction,Plated,1,2,PTH
FMAT,2
INCH
; #@! TA.AperFunction,Plated,PTH,ComponentDrill
T1C0.0236
; #@! TA.AperFunction,Plated,PTH,ComponentDrill
T2C0.0295
; #@! TA.AperFunction,Plated,PTH,ComponentDrill
T3C0.0315
; #@! TA.AperFunction,Plated,PTH,ComponentDrill
T4C0.0354
; #@! TA.AperFunction,Plated,PTH,ComponentDrill
T5C0.0390
; #@! TA.AperFunction,Plated,PTH,ComponentDrill
T6C0.0394
; #@! TA.AperFunction,Plated,PTH,ComponentDrill
T7C0.0409
; #@! TA.AperFunction,Plated,PTH,ComponentDrill
T8C0.0433
; #@! TA.AperFunction,Plated,PTH,ComponentDrill
T9C0.0512
; #@! TA.AperFunction,Plated,PTH,ComponentDrill
T10C0.0709
; #@! TA.AperFunction,Plated,PTH,ComponentDrill
T11C0.1260
%
G90
G05
T1
X5.5698Y-2.6575
X5.5698Y-3.6122
X5.6485Y-2.6575
X5.6485Y-3.6122
X7.8357Y-2.9035
X7.9145Y-2.9035
T3
X5.1378Y-2.5591
X5.1378Y-2.6591
X5.1378Y-2.7591
X5.1378Y-2.8591
X5.1378Y-2.9591
X5.1378Y-3.0591
X5.1378Y-3.1591
X5.1378Y-3.2591
X5.1378Y-3.5089
X5.1378Y-3.6089
X5.1378Y-3.7089
X5.1378Y-3.8089
X5.1378Y-3.9089
X5.1378Y-4.0089
X5.1378Y-4.1089
X5.1378Y-4.2089
X5.1673Y-4.5835
X5.1673Y-4.9835
X5.4378Y-2.5591
X5.4378Y-2.6591
X5.4378Y-2.7591
X5.4378Y-2.8591
X5.4378Y-2.9591
X5.4378Y-3.0591
X5.4378Y-3.1591
X5.4378Y-3.2591
X5.4378Y-3.5089
X5.4378Y-3.6089
X5.4378Y-3.7089
X5.4378Y-3.8089
X5.4378Y-3.9089
X5.4378Y-4.0089
X5.4378Y-4.1089
X5.4378Y-4.2089
X6.8472Y-4.4094
X6.926Y-2.7165
X6.9457Y-3.4547
X6.9457Y-3.6614
X6.9457Y-3.8681
X6.9457Y-4.0748
X7.2472Y-4.4094
X7.3098Y-2.9035
X7.326Y-2.7165
X7.3457Y-3.4547
X7.3457Y-3.6614
X7.3457Y-3.8681
X7.3457Y-4.0748
X7.7098Y-2.9035
X8.0413Y-4.6524
X8.0413Y-5.0524
T4
X5.4813Y-4.7736
X5.5813Y-4.7736
X7.126Y-2.3657
X7.126Y-2.4157
X7.126Y-2.4657
X7.126Y-2.5157
X7.4803Y-3.2677
X7.4803Y-3.5039
X7.4803Y-3.7402
X7.4803Y-3.9764
X7.4803Y-4.2126
X7.4803Y-4.4488
X7.5803Y-3.2677
X7.5803Y-3.5039
X7.5803Y-3.7402
X7.5803Y-3.9764
X7.5803Y-4.2126
X7.5803Y-4.4488
X7.7165Y-3.2677
X7.7165Y-3.5039
X7.7165Y-3.7402
X7.7165Y-3.9764
X7.7165Y-4.2126
X7.7165Y-4.4488
X7.8165Y-3.2677
X7.8165Y-3.5039
X7.8165Y-3.7402
X7.8165Y-3.9764
X7.8165Y-4.2126
X7.8165Y-4.4488
T5
X5.1969Y-2.1433
X5.374Y-2.1433
T6
X4.1043Y-2.9724
X4.1142Y-4.3012
X4.2028Y-2.9724
X4.2126Y-4.3012
X4.3012Y-2.9724
X4.311Y-4.3012
X4.6752Y-5.0689
X4.7736Y-5.0689
X4.872Y-5.0689
X5.9744Y-5.0689
X6.0728Y-5.0689
X6.1713Y-5.0689
X6.752Y-5.0787
X6.8504Y-5.0787
X6.9488Y-5.0787
X7.7559Y-2.4429
X7.7559Y-2.6398
X8.2972Y-3.5925
X8.2972Y-4.3209
X8.3957Y-3.5925
X8.3957Y-4.3209
X8.4941Y-3.5925
X8.4941Y-4.3209
T7
X5.7894Y-2.1669
X5.7894Y-2.2669
X5.7894Y-2.3669
X5.7894Y-2.4669
X5.7894Y-2.5669
X5.7894Y-2.6669
X5.7894Y-2.7669
X5.7894Y-2.8669
X5.7894Y-2.9669
X5.7894Y-3.0669
X5.7894Y-3.1669
X5.7894Y-3.2669
X5.7894Y-3.3669
X5.7894Y-3.4669
X5.7894Y-3.5669
X5.7894Y-3.6669
X5.7894Y-3.7669
X5.7894Y-3.8669
X5.7894Y-3.9669
X6.7894Y-2.1669
X6.7894Y-2.2669
X6.7894Y-2.3669
X6.7894Y-2.4669
X6.7894Y-2.5669
X6.7894Y-2.6669
X6.7894Y-2.7669
X6.7894Y-2.8669
X6.7894Y-2.9669
X6.7894Y-3.0669
X6.7894Y-3.1669
X6.7894Y-3.2669
X6.7894Y-3.3669
X6.7894Y-3.4669
X6.7894Y-3.5669
X6.7894Y-3.6669
X6.7894Y-3.7669
X6.7894Y-3.8669
X6.7894Y-3.9669
T8
X7.5197Y-4.6949
X7.5197Y-4.872
X7.7756Y-4.6949
X7.7756Y-4.872
T9
X5.1476Y-2.2413
X5.4236Y-2.2413
T11
X4.7244Y-2.1654
X4.7244Y-4.3307
X8.0315Y-2.1654
X8.0315Y-4.3307
T2
G00X4.0118Y-4.7035
M15
G01X3.9803Y-4.7035
M16
G05
G00X4.0453Y-3.6024
M15
G01X4.0453Y-3.6575
M16
G05
G00X4.0465Y-2.2736
M15
G01X4.0465Y-2.3287
M16
G05
G00X4.2323Y-5.0184
M15
G01X4.2874Y-5.0184
M16
G05
G00X4.2677Y-4.7153
M15
G01X4.2677Y-4.7704
M16
G05
G00X4.3484Y-3.6378
M15
G01X4.2933Y-3.6378
M16
G05
G00X4.3497Y-2.3091
M15
G01X4.2945Y-2.3091
M16
G05
G00X4.3661Y-4.6562
M15
G01X4.3346Y-4.6562
M16
G05
G00X4.3602Y-3.3819
M15
G01X4.3602Y-3.3504
M16
G05
G00X4.3615Y-2.0531
M15
G01X4.3615Y-2.0217
M16
G05
G00X4.4075Y-3.7362
M15
G01X4.4075Y-3.7047
M16
G05
G00X4.4087Y-2.4075
M15
G01X4.4087Y-2.376
M16
G05
G00X8.1995Y-2.3268
M15
G01X8.1995Y-2.3583
M16
G05
G00X8.2539Y-4.6936
M15
G01X8.2224Y-4.6936
M16
G05
G00X8.2468Y-2.6811
M15
G01X8.2468Y-2.7126
M16
G05
G00X8.2586Y-2.4252
M15
G01X8.3137Y-2.4252
M16
G05
G00X8.4744Y-5.0086
M15
G01X8.5295Y-5.0086
M16
G05
G00X8.5098Y-4.7055
M15
G01X8.5098Y-4.7606
M16
G05
G00X8.5618Y-2.4606
M15
G01X8.5618Y-2.4055
M16
G05
G00X8.6083Y-4.6464
M15
G01X8.5768Y-4.6464
M16
G05
T10
G00X4.0295Y-2.7028
M15
G01X4.0295Y-2.6909
M16
G05
G00X4.0394Y-4.0315
M15
G01X4.0394Y-4.0197
M16
G05
G00X4.376Y-2.7028
M15
G01X4.376Y-2.6909
M16
G05
G00X4.3858Y-4.0315
M15
G01X4.3858Y-4.0197
M16
G05
G00X4.6004Y-4.7992
M15
G01X4.6004Y-4.7874
M16
G05
G00X4.9469Y-4.7992
M15
G01X4.9469Y-4.7874
M16
G05
G00X5.8996Y-4.7992
M15
G01X5.8996Y-4.7874
M16
G05
G00X6.2461Y-4.7992
M15
G01X6.2461Y-4.7874
M16
G05
G00X6.6772Y-4.8091
M15
G01X6.6772Y-4.7972
M16
G05
G00X7.0236Y-4.8091
M15
G01X7.0236Y-4.7972
M16
G05
G00X8.2224Y-3.3228
M15
G01X8.2224Y-3.311
M16
G05
G00X8.2224Y-4.0512
M15
G01X8.2224Y-4.0394
M16
G05
G00X8.5689Y-3.3228
M15
G01X8.5689Y-3.311
M16
G05
G00X8.5689Y-4.0512
M15
G01X8.5689Y-4.0394
M16
G05
T0
M30
