%TF.GenerationSoftware,KiCad,Pcbnew,(6.0.4)*%
%TF.CreationDate,2022-09-14T23:52:42+02:00*%
%TF.ProjectId,Spikeling_V2.1,5370696b-656c-4696-9e67-5f56322e312e,rev?*%
%TF.SameCoordinates,Original*%
%TF.FileFunction,Copper,L1,Top*%
%TF.FilePolarity,Positive*%
%FSLAX46Y46*%
G04 Gerber Fmt 4.6, Leading zero omitted, Abs format (unit mm)*
G04 Created by KiCad (PCBNEW (6.0.4)) date 2022-09-14 23:52:42*
%MOMM*%
%LPD*%
G01*
G04 APERTURE LIST*
G04 Aperture macros list*
%AMRoundRect*
0 Rectangle with rounded corners*
0 $1 Rounding radius*
0 $2 $3 $4 $5 $6 $7 $8 $9 X,Y pos of 4 corners*
0 Add a 4 corners polygon primitive as box body*
4,1,4,$2,$3,$4,$5,$6,$7,$8,$9,$2,$3,0*
0 Add four circle primitives for the rounded corners*
1,1,$1+$1,$2,$3*
1,1,$1+$1,$4,$5*
1,1,$1+$1,$6,$7*
1,1,$1+$1,$8,$9*
0 Add four rect primitives between the rounded corners*
20,1,$1+$1,$2,$3,$4,$5,0*
20,1,$1+$1,$4,$5,$6,$7,0*
20,1,$1+$1,$6,$7,$8,$9,0*
20,1,$1+$1,$8,$9,$2,$3,0*%
G04 Aperture macros list end*
%TA.AperFunction,ComponentPad*%
%ADD10C,1.560000*%
%TD*%
%TA.AperFunction,ComponentPad*%
%ADD11R,1.560000X1.560000*%
%TD*%
%TA.AperFunction,ComponentPad*%
%ADD12R,1.200000X1.200000*%
%TD*%
%TA.AperFunction,ComponentPad*%
%ADD13C,1.200000*%
%TD*%
%TA.AperFunction,ComponentPad*%
%ADD14C,2.100000*%
%TD*%
%TA.AperFunction,ComponentPad*%
%ADD15C,1.750000*%
%TD*%
%TA.AperFunction,ComponentPad*%
%ADD16RoundRect,0.381000X-0.762000X-0.381000X0.762000X-0.381000X0.762000X0.381000X-0.762000X0.381000X0*%
%TD*%
%TA.AperFunction,ComponentPad*%
%ADD17RoundRect,0.381000X-0.381000X0.762000X-0.381000X-0.762000X0.381000X-0.762000X0.381000X0.762000X0*%
%TD*%
%TA.AperFunction,ComponentPad*%
%ADD18RoundRect,0.381000X0.381000X-0.762000X0.381000X0.762000X-0.381000X0.762000X-0.381000X-0.762000X0*%
%TD*%
%TA.AperFunction,ComponentPad*%
%ADD19RoundRect,0.381000X0.762000X0.381000X-0.762000X0.381000X-0.762000X-0.381000X0.762000X-0.381000X0*%
%TD*%
%TA.AperFunction,ComponentPad*%
%ADD20C,1.600000*%
%TD*%
%TA.AperFunction,ComponentPad*%
%ADD21O,1.600000X1.600000*%
%TD*%
%TA.AperFunction,ComponentPad*%
%ADD22R,1.800000X1.800000*%
%TD*%
%TA.AperFunction,ComponentPad*%
%ADD23C,1.800000*%
%TD*%
%TA.AperFunction,ComponentPad*%
%ADD24RoundRect,0.750000X0.750000X-1.250000X0.750000X1.250000X-0.750000X1.250000X-0.750000X-1.250000X0*%
%TD*%
%TA.AperFunction,ComponentPad*%
%ADD25R,1.600000X1.600000*%
%TD*%
%TA.AperFunction,ComponentPad*%
%ADD26R,1.800000X1.070000*%
%TD*%
%TA.AperFunction,ComponentPad*%
%ADD27O,1.800000X1.070000*%
%TD*%
%TA.AperFunction,ComponentPad*%
%ADD28R,2.000000X2.000000*%
%TD*%
%TA.AperFunction,ComponentPad*%
%ADD29C,2.000000*%
%TD*%
%TA.AperFunction,ComponentPad*%
%ADD30C,5.600000*%
%TD*%
%TA.AperFunction,Conductor*%
%ADD31C,0.250000*%
%TD*%
G04 APERTURE END LIST*
D10*
%TO.P,U1,38,CLK*%
%TO.N,unconnected-(U1-Pad38)*%
X147050000Y-55040000D03*
%TO.P,U1,37,SD0*%
%TO.N,unconnected-(U1-Pad37)*%
X147050000Y-57580000D03*
%TO.P,U1,36,SD1*%
%TO.N,unconnected-(U1-Pad36)*%
X147050000Y-60120000D03*
%TO.P,U1,35,IO15*%
%TO.N,/15*%
X147050000Y-62660000D03*
%TO.P,U1,34,IO2*%
%TO.N,/02*%
X147050000Y-65200000D03*
%TO.P,U1,33,IO0*%
%TO.N,/00*%
X147050000Y-67740000D03*
%TO.P,U1,32,IO4*%
%TO.N,/04*%
X147050000Y-70280000D03*
%TO.P,U1,31,IO16*%
%TO.N,/16*%
X147050000Y-72820000D03*
%TO.P,U1,30,IO17*%
%TO.N,/17*%
X147050000Y-75360000D03*
%TO.P,U1,29,IO5*%
%TO.N,/05*%
X147050000Y-77900000D03*
%TO.P,U1,28,IO18*%
%TO.N,/18*%
X147050000Y-80440000D03*
%TO.P,U1,27,IO19*%
%TO.N,/19*%
X147050000Y-82980000D03*
%TO.P,U1,26,GND2*%
%TO.N,GNDREF*%
X147050000Y-85520000D03*
%TO.P,U1,25,IO21*%
%TO.N,/21*%
X147050000Y-88060000D03*
%TO.P,U1,24,RXD0*%
%TO.N,unconnected-(U1-Pad24)*%
X147050000Y-90600000D03*
%TO.P,U1,23,TXD0*%
%TO.N,unconnected-(U1-Pad23)*%
X147050000Y-93140000D03*
%TO.P,U1,22,IO22*%
%TO.N,/22*%
X147050000Y-95680000D03*
%TO.P,U1,21,IO23*%
%TO.N,/23*%
X147050000Y-98220000D03*
%TO.P,U1,20,GND3*%
%TO.N,GNDREF*%
X147050000Y-100760000D03*
%TO.P,U1,18,CMD*%
%TO.N,unconnected-(U1-Pad18)*%
X172450000Y-57580000D03*
%TO.P,U1,17,SD3*%
%TO.N,unconnected-(U1-Pad17)*%
X172450000Y-60120000D03*
%TO.P,U1,16,SD2*%
%TO.N,unconnected-(U1-Pad16)*%
X172450000Y-62660000D03*
%TO.P,U1,15,IO13*%
%TO.N,/13*%
X172450000Y-65200000D03*
%TO.P,U1,14,GND1*%
%TO.N,GNDREF*%
X172450000Y-67740000D03*
%TO.P,U1,13,IO12*%
%TO.N,/12*%
X172450000Y-70280000D03*
%TO.P,U1,12,IO14*%
%TO.N,/14*%
X172450000Y-72820000D03*
%TO.P,U1,11,IO27*%
%TO.N,/27*%
X172450000Y-75360000D03*
%TO.P,U1,10,IO26*%
%TO.N,/26*%
X172450000Y-77900000D03*
%TO.P,U1,9,IO25*%
%TO.N,/25*%
X172450000Y-80440000D03*
%TO.P,U1,8,IO33*%
%TO.N,/33*%
X172450000Y-82980000D03*
%TO.P,U1,7,IO32*%
%TO.N,/32*%
X172450000Y-85520000D03*
%TO.P,U1,6,IO35*%
%TO.N,/35*%
X172450000Y-88060000D03*
%TO.P,U1,5,IO34*%
%TO.N,/34*%
X172450000Y-90600000D03*
%TO.P,U1,4,SENSOR_VN*%
%TO.N,/39*%
X172450000Y-93140000D03*
%TO.P,U1,3,SENSOR_VP*%
%TO.N,unconnected-(U1-Pad3)*%
X172450000Y-95680000D03*
%TO.P,U1,19,EXT_5V*%
%TO.N,VCC*%
X172450000Y-55040000D03*
%TO.P,U1,2,EN*%
%TO.N,Net-(Reset_Button1-Pad2)*%
X172450000Y-98220000D03*
D11*
%TO.P,U1,1,3V3*%
%TO.N,+3V3*%
X172450000Y-100760000D03*
%TD*%
D12*
%TO.P,C2,1*%
%TO.N,GNDREF*%
X143472600Y-91750000D03*
D13*
%TO.P,C2,2*%
%TO.N,VCC*%
X141472600Y-91750000D03*
%TD*%
D12*
%TO.P,C1,1*%
%TO.N,GNDREF*%
X143472600Y-67500000D03*
D13*
%TO.P,C1,2*%
%TO.N,VCC*%
X141472600Y-67500000D03*
%TD*%
D14*
%TO.P,Reset_Button1,*%
%TO.N,*%
X130750000Y-56930000D03*
X137760000Y-56930000D03*
D15*
%TO.P,Reset_Button1,1,1*%
%TO.N,GNDREF*%
X132000000Y-54440000D03*
%TO.P,Reset_Button1,2,2*%
%TO.N,Net-(Reset_Button1-Pad2)*%
X136500000Y-54440000D03*
%TD*%
D16*
%TO.P,Synapse Out,*%
%TO.N,*%
X210468500Y-61600000D03*
D17*
%TO.P,Synapse Out,R*%
%TO.N,Net-(10\u03A9_RC1-Pad2)*%
X208268500Y-59500000D03*
D18*
%TO.P,Synapse Out,S*%
%TO.N,GNDREF*%
X217468500Y-61800000D03*
D17*
%TO.P,Synapse Out,T*%
%TO.N,/15*%
X209468500Y-68500000D03*
%TD*%
D19*
%TO.P,Synapse_in_2,*%
%TO.N,*%
X109750000Y-92400000D03*
D18*
%TO.P,Synapse_in_2,R*%
%TO.N,/201*%
X111950000Y-94500000D03*
D17*
%TO.P,Synapse_in_2,S*%
%TO.N,GNDREF*%
X102750000Y-92200000D03*
D18*
%TO.P,Synapse_in_2,T*%
%TO.N,/34*%
X110750000Y-85500000D03*
%TD*%
D19*
%TO.P,Synapse_In_1,*%
%TO.N,*%
X109781500Y-58650000D03*
D18*
%TO.P,Synapse_In_1,R*%
%TO.N,/200*%
X111981500Y-60750000D03*
D17*
%TO.P,Synapse_In_1,S*%
%TO.N,GNDREF*%
X102781500Y-58450000D03*
D18*
%TO.P,Synapse_In_1,T*%
%TO.N,/35*%
X110781500Y-51750000D03*
%TD*%
D17*
%TO.P,Stimulus_Out1,*%
%TO.N,*%
X216150000Y-120218500D03*
D19*
%TO.P,Stimulus_Out1,R*%
%TO.N,/26*%
X218250000Y-118018500D03*
D16*
%TO.P,Stimulus_Out1,S*%
%TO.N,GNDREF*%
X215950000Y-127218500D03*
D19*
%TO.P,Stimulus_Out1,T*%
%TO.N,Net-(100\u03A9_Stim-LED1-Pad2)*%
X209250000Y-119218500D03*
%TD*%
D17*
%TO.P,Current_In1,*%
%TO.N,*%
X108400000Y-120468500D03*
D19*
%TO.P,Current_In1,R*%
%TO.N,/203*%
X110500000Y-118268500D03*
D16*
%TO.P,Current_In1,S*%
%TO.N,GNDREF*%
X108200000Y-127468500D03*
D19*
%TO.P,Current_In1,T*%
%TO.N,unconnected-(Current_In1-PadT)*%
X101500000Y-119468500D03*
%TD*%
D20*
%TO.P,100\u03A9_Stim-LED1,1*%
%TO.N,/22*%
X204250000Y-128330000D03*
D21*
%TO.P,100\u03A9_Stim-LED1,2*%
%TO.N,Net-(100\u03A9_Stim-LED1-Pad2)*%
X204250000Y-118170000D03*
%TD*%
D20*
%TO.P,100\u03A9,1*%
%TO.N,GNDREF*%
X185250000Y-69130000D03*
D21*
%TO.P,100\u03A9,2*%
%TO.N,Net-(Spike_LED1-Pad1)*%
X185250000Y-58970000D03*
%TD*%
D20*
%TO.P,100\u03A9_CharliePlex4,1*%
%TO.N,/21*%
X176420000Y-103500000D03*
D21*
%TO.P,100\u03A9_CharliePlex4,2*%
%TO.N,Net-(100\u03A9_CharliePlex4-Pad2)*%
X186580000Y-103500000D03*
%TD*%
D20*
%TO.P,100\u03A9_CharliePlex3,1*%
%TO.N,/19*%
X176420000Y-98250000D03*
D21*
%TO.P,100\u03A9_CharliePlex3,2*%
%TO.N,Net-(100\u03A9_CharliePlex3-Pad2)*%
X186580000Y-98250000D03*
%TD*%
D20*
%TO.P,100\u03A9_CharliePlex2,1*%
%TO.N,/05*%
X176420000Y-93000000D03*
D21*
%TO.P,100\u03A9_CharliePlex2,2*%
%TO.N,Net-(100\u03A9_CharliePlex2-Pad2)*%
X186580000Y-93000000D03*
%TD*%
D20*
%TO.P,100\u03A9_CharliePlex1,1*%
%TO.N,/02*%
X176420000Y-87750000D03*
D21*
%TO.P,100\u03A9_CharliePlex1,2*%
%TO.N,Net-(100\u03A9_CharliePlex1-Pad2)*%
X186580000Y-87750000D03*
%TD*%
D20*
%TO.P,10\u03A9,1*%
%TO.N,/25*%
X175670000Y-73250000D03*
D21*
%TO.P,10\u03A9,2*%
%TO.N,Net-(10\u03A9_RC1-Pad2)*%
X185830000Y-73250000D03*
%TD*%
D20*
%TO.P,10k\u03A9_SW_pull-down1,1*%
%TO.N,/39*%
X184080000Y-112000000D03*
D21*
%TO.P,10k\u03A9_SW_pull-down1,2*%
%TO.N,GNDREF*%
X173920000Y-112000000D03*
%TD*%
D20*
%TO.P,10k\u03A9_PD_pull-down1,1*%
%TO.N,/202*%
X131250000Y-116420000D03*
D21*
%TO.P,10k\u03A9_PD_pull-down1,2*%
%TO.N,GNDREF*%
X131250000Y-126580000D03*
%TD*%
D22*
%TO.P,Mode4,1,K*%
%TO.N,Net-(100\u03A9_CharliePlex2-Pad2)*%
X190000000Y-95000000D03*
D23*
%TO.P,Mode4,2,A*%
%TO.N,Net-(100\u03A9_CharliePlex3-Pad2)*%
X192540000Y-95000000D03*
%TD*%
D22*
%TO.P,Noise1,1,1*%
%TO.N,GNDREF*%
X171500000Y-129000000D03*
D23*
%TO.P,Noise1,2,2*%
%TO.N,/106*%
X174000000Y-129000000D03*
%TO.P,Noise1,3,3*%
%TO.N,VCC*%
X176500000Y-129000000D03*
D24*
%TO.P,Noise1,MP*%
%TO.N,N/C*%
X169600000Y-122000000D03*
X178400000Y-122000000D03*
%TD*%
D22*
%TO.P,Voltage_Membrane1,1,1*%
%TO.N,GNDREF*%
X118750000Y-128750000D03*
D23*
%TO.P,Voltage_Membrane1,2,2*%
%TO.N,/100*%
X121250000Y-128750000D03*
%TO.P,Voltage_Membrane1,3,3*%
%TO.N,VCC*%
X123750000Y-128750000D03*
D24*
%TO.P,Voltage_Membrane1,MP*%
%TO.N,N/C*%
X116850000Y-121750000D03*
X125650000Y-121750000D03*
%TD*%
D25*
%TO.P,U3,1,CH0*%
%TO.N,/200*%
X130500000Y-89125000D03*
D21*
%TO.P,U3,2,CH1*%
%TO.N,/201*%
X130500000Y-91665000D03*
%TO.P,U3,3,CH2*%
%TO.N,/202*%
X130500000Y-94205000D03*
%TO.P,U3,4,CH3*%
%TO.N,/203*%
X130500000Y-96745000D03*
%TO.P,U3,5,CH4*%
%TO.N,/204*%
X130500000Y-99285000D03*
%TO.P,U3,6,CH5*%
%TO.N,/205*%
X130500000Y-101825000D03*
%TO.P,U3,7,CH6*%
%TO.N,/206*%
X130500000Y-104365000D03*
%TO.P,U3,8,CH7*%
%TO.N,/207*%
X130500000Y-106905000D03*
%TO.P,U3,9,DGND*%
%TO.N,GNDREF*%
X138120000Y-106905000D03*
%TO.P,U3,10,~{CS}/SHDN*%
%TO.N,/04*%
X138120000Y-104365000D03*
%TO.P,U3,11,Din*%
%TO.N,/32*%
X138120000Y-101825000D03*
%TO.P,U3,12,Dout*%
%TO.N,/33*%
X138120000Y-99285000D03*
%TO.P,U3,13,CLK*%
%TO.N,/18*%
X138120000Y-96745000D03*
%TO.P,U3,14,AGND*%
%TO.N,GNDREF*%
X138120000Y-94205000D03*
%TO.P,U3,15,Vref*%
%TO.N,VCC*%
X138120000Y-91665000D03*
%TO.P,U3,16,Vdd*%
X138120000Y-89125000D03*
%TD*%
D25*
%TO.P,U2,1,CH0*%
%TO.N,/100*%
X130500000Y-65000000D03*
D21*
%TO.P,U2,2,CH1*%
%TO.N,/101*%
X130500000Y-67540000D03*
%TO.P,U2,3,CH2*%
%TO.N,/102*%
X130500000Y-70080000D03*
%TO.P,U2,4,CH3*%
%TO.N,/103*%
X130500000Y-72620000D03*
%TO.P,U2,5,CH4*%
%TO.N,/104*%
X130500000Y-75160000D03*
%TO.P,U2,6,CH5*%
%TO.N,/105*%
X130500000Y-77700000D03*
%TO.P,U2,7,CH6*%
%TO.N,/106*%
X130500000Y-80240000D03*
%TO.P,U2,8,CH7*%
%TO.N,/107*%
X130500000Y-82780000D03*
%TO.P,U2,9,DGND*%
%TO.N,GNDREF*%
X138120000Y-82780000D03*
%TO.P,U2,10,~{CS}/SHDN*%
%TO.N,/00*%
X138120000Y-80240000D03*
%TO.P,U2,11,Din*%
%TO.N,/32*%
X138120000Y-77700000D03*
%TO.P,U2,12,Dout*%
%TO.N,/33*%
X138120000Y-75160000D03*
%TO.P,U2,13,CLK*%
%TO.N,/18*%
X138120000Y-72620000D03*
%TO.P,U2,14,AGND*%
%TO.N,GNDREF*%
X138120000Y-70080000D03*
%TO.P,U2,15,Vref*%
%TO.N,VCC*%
X138120000Y-67540000D03*
%TO.P,U2,16,Vdd*%
X138120000Y-65000000D03*
%TD*%
D22*
%TO.P,Synapse_2_Gain1,1,1*%
%TO.N,GNDREF*%
X104500000Y-109250000D03*
D23*
%TO.P,Synapse_2_Gain1,2,2*%
%TO.N,/102*%
X107000000Y-109250000D03*
%TO.P,Synapse_2_Gain1,3,3*%
%TO.N,VCC*%
X109500000Y-109250000D03*
D24*
%TO.P,Synapse_2_Gain1,MP*%
%TO.N,N/C*%
X102600000Y-102250000D03*
X111400000Y-102250000D03*
%TD*%
D22*
%TO.P,Synapse_1_Gain1,1,1*%
%TO.N,GNDREF*%
X104250000Y-75500000D03*
D23*
%TO.P,Synapse_1_Gain1,2,2*%
%TO.N,/101*%
X106750000Y-75500000D03*
%TO.P,Synapse_1_Gain1,3,3*%
%TO.N,VCC*%
X109250000Y-75500000D03*
D24*
%TO.P,Synapse_1_Gain1,MP*%
%TO.N,N/C*%
X102350000Y-68500000D03*
X111150000Y-68500000D03*
%TD*%
D22*
%TO.P,Stimulus_Strength1,1,1*%
%TO.N,GNDREF*%
X210750000Y-109750000D03*
D23*
%TO.P,Stimulus_Strength1,2,2*%
%TO.N,/104*%
X213250000Y-109750000D03*
%TO.P,Stimulus_Strength1,3,3*%
%TO.N,VCC*%
X215750000Y-109750000D03*
D24*
%TO.P,Stimulus_Strength1,MP*%
%TO.N,N/C*%
X208850000Y-102750000D03*
X217650000Y-102750000D03*
%TD*%
D22*
%TO.P,Stimulus_Frequency1,1,1*%
%TO.N,GNDREF*%
X210750000Y-91250000D03*
D23*
%TO.P,Stimulus_Frequency1,2,2*%
%TO.N,/105*%
X213250000Y-91250000D03*
%TO.P,Stimulus_Frequency1,3,3*%
%TO.N,VCC*%
X215750000Y-91250000D03*
D24*
%TO.P,Stimulus_Frequency1,MP*%
%TO.N,N/C*%
X208850000Y-84250000D03*
X217650000Y-84250000D03*
%TD*%
D26*
%TO.P,Spike_LED,1,K*%
%TO.N,Net-(Spike_LED1-Pad1)*%
X177750000Y-65950000D03*
D27*
%TO.P,Spike_LED,2,RA*%
%TO.N,/27*%
X177750000Y-64680000D03*
%TO.P,Spike_LED,3,GA*%
%TO.N,/14*%
X177750000Y-63410000D03*
%TO.P,Spike_LED,4,BA*%
%TO.N,/12*%
X177750000Y-62140000D03*
%TD*%
D28*
%TO.P,Spike_Buzzer,1,-*%
%TO.N,/13*%
X197000000Y-61550000D03*
D29*
%TO.P,Spike_Buzzer,2,+*%
%TO.N,GNDREF*%
X197000000Y-66550000D03*
%TD*%
D22*
%TO.P,Photodiode_Gain1,1,1*%
%TO.N,GNDREF*%
X151750000Y-128750000D03*
D23*
%TO.P,Photodiode_Gain1,2,2*%
%TO.N,/103*%
X154250000Y-128750000D03*
%TO.P,Photodiode_Gain1,3,3*%
%TO.N,VCC*%
X156750000Y-128750000D03*
D24*
%TO.P,Photodiode_Gain1,MP*%
%TO.N,N/C*%
X149850000Y-121750000D03*
X158650000Y-121750000D03*
%TD*%
D30*
%TO.P, ,1*%
%TO.N,N/C*%
X120000000Y-55000000D03*
%TD*%
D22*
%TO.P,Mode6,1,K*%
%TO.N,Net-(100\u03A9_CharliePlex3-Pad2)*%
X190000000Y-83000000D03*
D23*
%TO.P,Mode6,2,A*%
%TO.N,Net-(100\u03A9_CharliePlex4-Pad2)*%
X192540000Y-83000000D03*
%TD*%
D22*
%TO.P,Mode1,1,K*%
%TO.N,Net-(100\u03A9_CharliePlex2-Pad2)*%
X190000000Y-113000000D03*
D23*
%TO.P,Mode1,2,A*%
%TO.N,Net-(100\u03A9_CharliePlex1-Pad2)*%
X192540000Y-113000000D03*
%TD*%
D22*
%TO.P,Mode3,1,K*%
%TO.N,Net-(100\u03A9_CharliePlex3-Pad2)*%
X190000000Y-101000000D03*
D23*
%TO.P,Mode3,2,A*%
%TO.N,Net-(100\u03A9_CharliePlex2-Pad2)*%
X192540000Y-101000000D03*
%TD*%
D30*
%TO.P, ,1*%
%TO.N,N/C*%
X204000000Y-55000000D03*
%TD*%
D22*
%TO.P,Mode10,1,K*%
%TO.N,Net-(100\u03A9_CharliePlex2-Pad2)*%
X196000000Y-95000000D03*
D23*
%TO.P,Mode10,2,A*%
%TO.N,Net-(100\u03A9_CharliePlex4-Pad2)*%
X198540000Y-95000000D03*
%TD*%
D22*
%TO.P,Mode8,1,K*%
%TO.N,Net-(100\u03A9_CharliePlex1-Pad2)*%
X196000000Y-107000000D03*
D23*
%TO.P,Mode8,2,A*%
%TO.N,Net-(100\u03A9_CharliePlex3-Pad2)*%
X198540000Y-107000000D03*
%TD*%
D22*
%TO.P,Mode12,1,K*%
%TO.N,Net-(100\u03A9_CharliePlex1-Pad2)*%
X196000000Y-83000000D03*
D23*
%TO.P,Mode12,2,A*%
%TO.N,Net-(100\u03A9_CharliePlex4-Pad2)*%
X198540000Y-83000000D03*
%TD*%
D22*
%TO.P,Mode11,1,K*%
%TO.N,Net-(100\u03A9_CharliePlex4-Pad2)*%
X196000000Y-89000000D03*
D23*
%TO.P,Mode11,2,A*%
%TO.N,Net-(100\u03A9_CharliePlex1-Pad2)*%
X198540000Y-89000000D03*
%TD*%
D22*
%TO.P,Mode9,1,K*%
%TO.N,Net-(100\u03A9_CharliePlex4-Pad2)*%
X196000000Y-101000000D03*
D23*
%TO.P,Mode9,2,A*%
%TO.N,Net-(100\u03A9_CharliePlex2-Pad2)*%
X198540000Y-101000000D03*
%TD*%
D22*
%TO.P,Photodiode1,1,K*%
%TO.N,GNDREF*%
X139225000Y-121250000D03*
D23*
%TO.P,Photodiode1,2,A*%
%TO.N,/202*%
X141765000Y-121250000D03*
%TD*%
D22*
%TO.P,Mode2,1,K*%
%TO.N,Net-(100\u03A9_CharliePlex1-Pad2)*%
X190000000Y-107000000D03*
D23*
%TO.P,Mode2,2,A*%
%TO.N,Net-(100\u03A9_CharliePlex2-Pad2)*%
X192540000Y-107000000D03*
%TD*%
D30*
%TO.P, ,1*%
%TO.N,N/C*%
X204000000Y-110000000D03*
%TD*%
D12*
%TO.P,1nF,1*%
%TO.N,Net-(10\u03A9_RC1-Pad2)*%
X188750000Y-73250000D03*
D13*
%TO.P,1nF,2*%
%TO.N,GNDREF*%
X190750000Y-73250000D03*
%TD*%
D30*
%TO.P, ,1*%
%TO.N,N/C*%
X120000000Y-110000000D03*
%TD*%
D29*
%TO.P,Mode_Button1,1,1*%
%TO.N,/39*%
X191000000Y-119250000D03*
X197500000Y-119250000D03*
%TO.P,Mode_Button1,2,2*%
%TO.N,VCC*%
X197500000Y-123750000D03*
X191000000Y-123750000D03*
%TD*%
D22*
%TO.P,Mode7,1,K*%
%TO.N,Net-(100\u03A9_CharliePlex3-Pad2)*%
X196000000Y-113000000D03*
D23*
%TO.P,Mode7,2,A*%
%TO.N,Net-(100\u03A9_CharliePlex1-Pad2)*%
X198540000Y-113000000D03*
%TD*%
D22*
%TO.P,Mode5,1,K*%
%TO.N,Net-(100\u03A9_CharliePlex4-Pad2)*%
X190000000Y-89000000D03*
D23*
%TO.P,Mode5,2,A*%
%TO.N,Net-(100\u03A9_CharliePlex3-Pad2)*%
X192540000Y-89000000D03*
%TD*%
D31*
%TO.N,/203*%
X115250000Y-97500000D02*
X116005000Y-96745000D01*
X115250000Y-113518500D02*
X115250000Y-97500000D01*
X116005000Y-96745000D02*
X130500000Y-96745000D01*
X110500000Y-118268500D02*
X115250000Y-113518500D01*
%TO.N,VCC*%
X107250000Y-87250000D02*
X107250000Y-107000000D01*
X107250000Y-107000000D02*
X109500000Y-109250000D01*
X109250000Y-85250000D02*
X107250000Y-87250000D01*
X109250000Y-75500000D02*
X109250000Y-85250000D01*
%TO.N,/200*%
X117125000Y-89125000D02*
X130500000Y-89125000D01*
X115000000Y-63768500D02*
X115000000Y-87000000D01*
X115000000Y-87000000D02*
X117125000Y-89125000D01*
X111981500Y-60750000D02*
X115000000Y-63768500D01*
%TO.N,/201*%
X114785000Y-91665000D02*
X130500000Y-91665000D01*
X111950000Y-94500000D02*
X114785000Y-91665000D01*
%TO.N,GNDREF*%
X141017600Y-94205000D02*
X143472600Y-91750000D01*
X138120000Y-94205000D02*
X141017600Y-94205000D01*
%TO.N,VCC*%
X138120000Y-91665000D02*
X141387600Y-91665000D01*
X141387600Y-91665000D02*
X141472600Y-91750000D01*
X138120000Y-89125000D02*
X138120000Y-91665000D01*
%TO.N,GNDREF*%
X138120000Y-70080000D02*
X140892600Y-70080000D01*
X140892600Y-70080000D02*
X143472600Y-67500000D01*
%TO.N,VCC*%
X141432600Y-67540000D02*
X141472600Y-67500000D01*
X138120000Y-67540000D02*
X141432600Y-67540000D01*
X138120000Y-65000000D02*
X138120000Y-67540000D01*
%TO.N,/35*%
X109781500Y-58650000D02*
X109881500Y-58650000D01*
%TO.N,/34*%
X111250000Y-86000000D02*
X110750000Y-85500000D01*
%TO.N,/201*%
X111950000Y-94500000D02*
X112450000Y-95000000D01*
%TO.N,/34*%
X109750000Y-92400000D02*
X109850000Y-92400000D01*
%TO.N,/25*%
X172347500Y-79690000D02*
X171674282Y-79690000D01*
%TO.N,Net-(100\u03A9_CharliePlex2-Pad2)*%
X198540000Y-100080000D02*
X198540000Y-101000000D01*
%TO.N,/26*%
X218250000Y-118018500D02*
X218250000Y-118118500D01*
%TD*%
M02*
