%TF.GenerationSoftware,KiCad,Pcbnew,(6.0.4)*%
%TF.CreationDate,2022-09-22T00:21:37+02:00*%
%TF.ProjectId,Spikeling_V2.2,5370696b-656c-4696-9e67-5f56322e322e,rev?*%
%TF.SameCoordinates,Original*%
%TF.FileFunction,Legend,Top*%
%TF.FilePolarity,Positive*%
%FSLAX46Y46*%
G04 Gerber Fmt 4.6, Leading zero omitted, Abs format (unit mm)*
G04 Created by KiCad (PCBNEW (6.0.4)) date 2022-09-22 00:21:37*
%MOMM*%
%LPD*%
G01*
G04 APERTURE LIST*
%ADD10C,0.100000*%
%ADD11C,0.150000*%
%ADD12C,0.120000*%
%ADD13C,0.127000*%
G04 APERTURE END LIST*
D10*
X141185714Y-70921250D02*
X141542857Y-70921250D01*
X141114285Y-71135535D02*
X141364285Y-70385535D01*
X141614285Y-71135535D01*
X141864285Y-71135535D02*
X141864285Y-70385535D01*
X142042857Y-70385535D01*
X142150000Y-70421250D01*
X142221428Y-70492678D01*
X142257142Y-70564107D01*
X142292857Y-70706964D01*
X142292857Y-70814107D01*
X142257142Y-70956964D01*
X142221428Y-71028392D01*
X142150000Y-71099821D01*
X142042857Y-71135535D01*
X141864285Y-71135535D01*
X143042857Y-71064107D02*
X143007142Y-71099821D01*
X142900000Y-71135535D01*
X142828571Y-71135535D01*
X142721428Y-71099821D01*
X142650000Y-71028392D01*
X142614285Y-70956964D01*
X142578571Y-70814107D01*
X142578571Y-70706964D01*
X142614285Y-70564107D01*
X142650000Y-70492678D01*
X142721428Y-70421250D01*
X142828571Y-70385535D01*
X142900000Y-70385535D01*
X143007142Y-70421250D01*
X143042857Y-70456964D01*
X140328571Y-72271607D02*
X140292857Y-72307321D01*
X140185714Y-72343035D01*
X140114285Y-72343035D01*
X140007142Y-72307321D01*
X139935714Y-72235892D01*
X139900000Y-72164464D01*
X139864285Y-72021607D01*
X139864285Y-71914464D01*
X139900000Y-71771607D01*
X139935714Y-71700178D01*
X140007142Y-71628750D01*
X140114285Y-71593035D01*
X140185714Y-71593035D01*
X140292857Y-71628750D01*
X140328571Y-71664464D01*
X140971428Y-72343035D02*
X140971428Y-71950178D01*
X140935714Y-71878750D01*
X140864285Y-71843035D01*
X140721428Y-71843035D01*
X140650000Y-71878750D01*
X140971428Y-72307321D02*
X140900000Y-72343035D01*
X140721428Y-72343035D01*
X140650000Y-72307321D01*
X140614285Y-72235892D01*
X140614285Y-72164464D01*
X140650000Y-72093035D01*
X140721428Y-72057321D01*
X140900000Y-72057321D01*
X140971428Y-72021607D01*
X141328571Y-71843035D02*
X141328571Y-72593035D01*
X141328571Y-71878750D02*
X141400000Y-71843035D01*
X141542857Y-71843035D01*
X141614285Y-71878750D01*
X141650000Y-71914464D01*
X141685714Y-71985892D01*
X141685714Y-72200178D01*
X141650000Y-72271607D01*
X141614285Y-72307321D01*
X141542857Y-72343035D01*
X141400000Y-72343035D01*
X141328571Y-72307321D01*
X142328571Y-72343035D02*
X142328571Y-71950178D01*
X142292857Y-71878750D01*
X142221428Y-71843035D01*
X142078571Y-71843035D01*
X142007142Y-71878750D01*
X142328571Y-72307321D02*
X142257142Y-72343035D01*
X142078571Y-72343035D01*
X142007142Y-72307321D01*
X141971428Y-72235892D01*
X141971428Y-72164464D01*
X142007142Y-72093035D01*
X142078571Y-72057321D01*
X142257142Y-72057321D01*
X142328571Y-72021607D01*
X143007142Y-72307321D02*
X142935714Y-72343035D01*
X142792857Y-72343035D01*
X142721428Y-72307321D01*
X142685714Y-72271607D01*
X142650000Y-72200178D01*
X142650000Y-71985892D01*
X142685714Y-71914464D01*
X142721428Y-71878750D01*
X142792857Y-71843035D01*
X142935714Y-71843035D01*
X143007142Y-71878750D01*
X143328571Y-72343035D02*
X143328571Y-71843035D01*
X143328571Y-71593035D02*
X143292857Y-71628750D01*
X143328571Y-71664464D01*
X143364285Y-71628750D01*
X143328571Y-71593035D01*
X143328571Y-71664464D01*
X143578571Y-71843035D02*
X143864285Y-71843035D01*
X143685714Y-71593035D02*
X143685714Y-72235892D01*
X143721428Y-72307321D01*
X143792857Y-72343035D01*
X143864285Y-72343035D01*
X144221428Y-72343035D02*
X144150000Y-72307321D01*
X144114285Y-72271607D01*
X144078571Y-72200178D01*
X144078571Y-71985892D01*
X144114285Y-71914464D01*
X144150000Y-71878750D01*
X144221428Y-71843035D01*
X144328571Y-71843035D01*
X144400000Y-71878750D01*
X144435714Y-71914464D01*
X144471428Y-71985892D01*
X144471428Y-72200178D01*
X144435714Y-72271607D01*
X144400000Y-72307321D01*
X144328571Y-72343035D01*
X144221428Y-72343035D01*
X144792857Y-72343035D02*
X144792857Y-71843035D01*
X144792857Y-71985892D02*
X144828571Y-71914464D01*
X144864285Y-71878750D01*
X144935714Y-71843035D01*
X145007142Y-71843035D01*
X177185714Y-100403571D02*
X177292857Y-100439285D01*
X177471428Y-100439285D01*
X177542857Y-100403571D01*
X177578571Y-100367857D01*
X177614285Y-100296428D01*
X177614285Y-100225000D01*
X177578571Y-100153571D01*
X177542857Y-100117857D01*
X177471428Y-100082142D01*
X177328571Y-100046428D01*
X177257142Y-100010714D01*
X177221428Y-99975000D01*
X177185714Y-99903571D01*
X177185714Y-99832142D01*
X177221428Y-99760714D01*
X177257142Y-99725000D01*
X177328571Y-99689285D01*
X177507142Y-99689285D01*
X177614285Y-99725000D01*
X177864285Y-99939285D02*
X178007142Y-100439285D01*
X178150000Y-100082142D01*
X178292857Y-100439285D01*
X178435714Y-99939285D01*
X178721428Y-100439285D02*
X178721428Y-99939285D01*
X178721428Y-99689285D02*
X178685714Y-99725000D01*
X178721428Y-99760714D01*
X178757142Y-99725000D01*
X178721428Y-99689285D01*
X178721428Y-99760714D01*
X178971428Y-99939285D02*
X179257142Y-99939285D01*
X179078571Y-99689285D02*
X179078571Y-100332142D01*
X179114285Y-100403571D01*
X179185714Y-100439285D01*
X179257142Y-100439285D01*
X179828571Y-100403571D02*
X179757142Y-100439285D01*
X179614285Y-100439285D01*
X179542857Y-100403571D01*
X179507142Y-100367857D01*
X179471428Y-100296428D01*
X179471428Y-100082142D01*
X179507142Y-100010714D01*
X179542857Y-99975000D01*
X179614285Y-99939285D01*
X179757142Y-99939285D01*
X179828571Y-99975000D01*
X180150000Y-100439285D02*
X180150000Y-99689285D01*
X180471428Y-100439285D02*
X180471428Y-100046428D01*
X180435714Y-99975000D01*
X180364285Y-99939285D01*
X180257142Y-99939285D01*
X180185714Y-99975000D01*
X180150000Y-100010714D01*
X181828571Y-100439285D02*
X181578571Y-100082142D01*
X181400000Y-100439285D02*
X181400000Y-99689285D01*
X181685714Y-99689285D01*
X181757142Y-99725000D01*
X181792857Y-99760714D01*
X181828571Y-99832142D01*
X181828571Y-99939285D01*
X181792857Y-100010714D01*
X181757142Y-100046428D01*
X181685714Y-100082142D01*
X181400000Y-100082142D01*
X182435714Y-100403571D02*
X182364285Y-100439285D01*
X182221428Y-100439285D01*
X182150000Y-100403571D01*
X182114285Y-100332142D01*
X182114285Y-100046428D01*
X182150000Y-99975000D01*
X182221428Y-99939285D01*
X182364285Y-99939285D01*
X182435714Y-99975000D01*
X182471428Y-100046428D01*
X182471428Y-100117857D01*
X182114285Y-100189285D01*
X182757142Y-100403571D02*
X182828571Y-100439285D01*
X182971428Y-100439285D01*
X183042857Y-100403571D01*
X183078571Y-100332142D01*
X183078571Y-100296428D01*
X183042857Y-100225000D01*
X182971428Y-100189285D01*
X182864285Y-100189285D01*
X182792857Y-100153571D01*
X182757142Y-100082142D01*
X182757142Y-100046428D01*
X182792857Y-99975000D01*
X182864285Y-99939285D01*
X182971428Y-99939285D01*
X183042857Y-99975000D01*
X183400000Y-100439285D02*
X183400000Y-99939285D01*
X183400000Y-99689285D02*
X183364285Y-99725000D01*
X183400000Y-99760714D01*
X183435714Y-99725000D01*
X183400000Y-99689285D01*
X183400000Y-99760714D01*
X183721428Y-100403571D02*
X183792857Y-100439285D01*
X183935714Y-100439285D01*
X184007142Y-100403571D01*
X184042857Y-100332142D01*
X184042857Y-100296428D01*
X184007142Y-100225000D01*
X183935714Y-100189285D01*
X183828571Y-100189285D01*
X183757142Y-100153571D01*
X183721428Y-100082142D01*
X183721428Y-100046428D01*
X183757142Y-99975000D01*
X183828571Y-99939285D01*
X183935714Y-99939285D01*
X184007142Y-99975000D01*
X184257142Y-99939285D02*
X184542857Y-99939285D01*
X184364285Y-99689285D02*
X184364285Y-100332142D01*
X184400000Y-100403571D01*
X184471428Y-100439285D01*
X184542857Y-100439285D01*
X184900000Y-100439285D02*
X184828571Y-100403571D01*
X184792857Y-100367857D01*
X184757142Y-100296428D01*
X184757142Y-100082142D01*
X184792857Y-100010714D01*
X184828571Y-99975000D01*
X184900000Y-99939285D01*
X185007142Y-99939285D01*
X185078571Y-99975000D01*
X185114285Y-100010714D01*
X185150000Y-100082142D01*
X185150000Y-100296428D01*
X185114285Y-100367857D01*
X185078571Y-100403571D01*
X185007142Y-100439285D01*
X184900000Y-100439285D01*
X185471428Y-100439285D02*
X185471428Y-99939285D01*
X185471428Y-100082142D02*
X185507142Y-100010714D01*
X185542857Y-99975000D01*
X185614285Y-99939285D01*
X185685714Y-99939285D01*
X176097857Y-91367857D02*
X176062142Y-91403571D01*
X175955000Y-91439285D01*
X175883571Y-91439285D01*
X175776428Y-91403571D01*
X175705000Y-91332142D01*
X175669285Y-91260714D01*
X175633571Y-91117857D01*
X175633571Y-91010714D01*
X175669285Y-90867857D01*
X175705000Y-90796428D01*
X175776428Y-90725000D01*
X175883571Y-90689285D01*
X175955000Y-90689285D01*
X176062142Y-90725000D01*
X176097857Y-90760714D01*
X176419285Y-91439285D02*
X176419285Y-90689285D01*
X176740714Y-91439285D02*
X176740714Y-91046428D01*
X176705000Y-90975000D01*
X176633571Y-90939285D01*
X176526428Y-90939285D01*
X176455000Y-90975000D01*
X176419285Y-91010714D01*
X177419285Y-91439285D02*
X177419285Y-91046428D01*
X177383571Y-90975000D01*
X177312142Y-90939285D01*
X177169285Y-90939285D01*
X177097857Y-90975000D01*
X177419285Y-91403571D02*
X177347857Y-91439285D01*
X177169285Y-91439285D01*
X177097857Y-91403571D01*
X177062142Y-91332142D01*
X177062142Y-91260714D01*
X177097857Y-91189285D01*
X177169285Y-91153571D01*
X177347857Y-91153571D01*
X177419285Y-91117857D01*
X177776428Y-91439285D02*
X177776428Y-90939285D01*
X177776428Y-91082142D02*
X177812142Y-91010714D01*
X177847857Y-90975000D01*
X177919285Y-90939285D01*
X177990714Y-90939285D01*
X178347857Y-91439285D02*
X178276428Y-91403571D01*
X178240714Y-91332142D01*
X178240714Y-90689285D01*
X178633571Y-91439285D02*
X178633571Y-90939285D01*
X178633571Y-90689285D02*
X178597857Y-90725000D01*
X178633571Y-90760714D01*
X178669285Y-90725000D01*
X178633571Y-90689285D01*
X178633571Y-90760714D01*
X179276428Y-91403571D02*
X179205000Y-91439285D01*
X179062142Y-91439285D01*
X178990714Y-91403571D01*
X178955000Y-91332142D01*
X178955000Y-91046428D01*
X178990714Y-90975000D01*
X179062142Y-90939285D01*
X179205000Y-90939285D01*
X179276428Y-90975000D01*
X179312142Y-91046428D01*
X179312142Y-91117857D01*
X178955000Y-91189285D01*
X179633571Y-91439285D02*
X179633571Y-90689285D01*
X179919285Y-90689285D01*
X179990714Y-90725000D01*
X180026428Y-90760714D01*
X180062142Y-90832142D01*
X180062142Y-90939285D01*
X180026428Y-91010714D01*
X179990714Y-91046428D01*
X179919285Y-91082142D01*
X179633571Y-91082142D01*
X180490714Y-91439285D02*
X180419285Y-91403571D01*
X180383571Y-91332142D01*
X180383571Y-90689285D01*
X181062142Y-91403571D02*
X180990714Y-91439285D01*
X180847857Y-91439285D01*
X180776428Y-91403571D01*
X180740714Y-91332142D01*
X180740714Y-91046428D01*
X180776428Y-90975000D01*
X180847857Y-90939285D01*
X180990714Y-90939285D01*
X181062142Y-90975000D01*
X181097857Y-91046428D01*
X181097857Y-91117857D01*
X180740714Y-91189285D01*
X181347857Y-91439285D02*
X181740714Y-90939285D01*
X181347857Y-90939285D02*
X181740714Y-91439285D01*
X181955000Y-90689285D02*
X182419285Y-90689285D01*
X182169285Y-90975000D01*
X182276428Y-90975000D01*
X182347857Y-91010714D01*
X182383571Y-91046428D01*
X182419285Y-91117857D01*
X182419285Y-91296428D01*
X182383571Y-91367857D01*
X182347857Y-91403571D01*
X182276428Y-91439285D01*
X182062142Y-91439285D01*
X181990714Y-91403571D01*
X181955000Y-91367857D01*
X183740714Y-91439285D02*
X183490714Y-91082142D01*
X183312142Y-91439285D02*
X183312142Y-90689285D01*
X183597857Y-90689285D01*
X183669285Y-90725000D01*
X183705000Y-90760714D01*
X183740714Y-90832142D01*
X183740714Y-90939285D01*
X183705000Y-91010714D01*
X183669285Y-91046428D01*
X183597857Y-91082142D01*
X183312142Y-91082142D01*
X184347857Y-91403571D02*
X184276428Y-91439285D01*
X184133571Y-91439285D01*
X184062142Y-91403571D01*
X184026428Y-91332142D01*
X184026428Y-91046428D01*
X184062142Y-90975000D01*
X184133571Y-90939285D01*
X184276428Y-90939285D01*
X184347857Y-90975000D01*
X184383571Y-91046428D01*
X184383571Y-91117857D01*
X184026428Y-91189285D01*
X184669285Y-91403571D02*
X184740714Y-91439285D01*
X184883571Y-91439285D01*
X184955000Y-91403571D01*
X184990714Y-91332142D01*
X184990714Y-91296428D01*
X184955000Y-91225000D01*
X184883571Y-91189285D01*
X184776428Y-91189285D01*
X184705000Y-91153571D01*
X184669285Y-91082142D01*
X184669285Y-91046428D01*
X184705000Y-90975000D01*
X184776428Y-90939285D01*
X184883571Y-90939285D01*
X184955000Y-90975000D01*
X185312142Y-91439285D02*
X185312142Y-90939285D01*
X185312142Y-90689285D02*
X185276428Y-90725000D01*
X185312142Y-90760714D01*
X185347857Y-90725000D01*
X185312142Y-90689285D01*
X185312142Y-90760714D01*
X185633571Y-91403571D02*
X185705000Y-91439285D01*
X185847857Y-91439285D01*
X185919285Y-91403571D01*
X185955000Y-91332142D01*
X185955000Y-91296428D01*
X185919285Y-91225000D01*
X185847857Y-91189285D01*
X185740714Y-91189285D01*
X185669285Y-91153571D01*
X185633571Y-91082142D01*
X185633571Y-91046428D01*
X185669285Y-90975000D01*
X185740714Y-90939285D01*
X185847857Y-90939285D01*
X185919285Y-90975000D01*
X186169285Y-90939285D02*
X186455000Y-90939285D01*
X186276428Y-90689285D02*
X186276428Y-91332142D01*
X186312142Y-91403571D01*
X186383571Y-91439285D01*
X186455000Y-91439285D01*
X186812142Y-91439285D02*
X186740714Y-91403571D01*
X186705000Y-91367857D01*
X186669285Y-91296428D01*
X186669285Y-91082142D01*
X186705000Y-91010714D01*
X186740714Y-90975000D01*
X186812142Y-90939285D01*
X186919285Y-90939285D01*
X186990714Y-90975000D01*
X187026428Y-91010714D01*
X187062142Y-91082142D01*
X187062142Y-91296428D01*
X187026428Y-91367857D01*
X186990714Y-91403571D01*
X186919285Y-91439285D01*
X186812142Y-91439285D01*
X187383571Y-91439285D02*
X187383571Y-90939285D01*
X187383571Y-91082142D02*
X187419285Y-91010714D01*
X187455000Y-90975000D01*
X187526428Y-90939285D01*
X187597857Y-90939285D01*
D11*
X210109523Y-79328571D02*
X209776190Y-79328571D01*
X209776190Y-79852380D02*
X209776190Y-78852380D01*
X210252380Y-78852380D01*
X210633333Y-79852380D02*
X210633333Y-79185714D01*
X210633333Y-79376190D02*
X210680952Y-79280952D01*
X210728571Y-79233333D01*
X210823809Y-79185714D01*
X210919047Y-79185714D01*
X211633333Y-79804761D02*
X211538095Y-79852380D01*
X211347619Y-79852380D01*
X211252380Y-79804761D01*
X211204761Y-79709523D01*
X211204761Y-79328571D01*
X211252380Y-79233333D01*
X211347619Y-79185714D01*
X211538095Y-79185714D01*
X211633333Y-79233333D01*
X211680952Y-79328571D01*
X211680952Y-79423809D01*
X211204761Y-79519047D01*
X212538095Y-79185714D02*
X212538095Y-80185714D01*
X212538095Y-79804761D02*
X212442857Y-79852380D01*
X212252380Y-79852380D01*
X212157142Y-79804761D01*
X212109523Y-79757142D01*
X212061904Y-79661904D01*
X212061904Y-79376190D01*
X212109523Y-79280952D01*
X212157142Y-79233333D01*
X212252380Y-79185714D01*
X212442857Y-79185714D01*
X212538095Y-79233333D01*
X213442857Y-79185714D02*
X213442857Y-79852380D01*
X213014285Y-79185714D02*
X213014285Y-79709523D01*
X213061904Y-79804761D01*
X213157142Y-79852380D01*
X213300000Y-79852380D01*
X213395238Y-79804761D01*
X213442857Y-79757142D01*
X214300000Y-79804761D02*
X214204761Y-79852380D01*
X214014285Y-79852380D01*
X213919047Y-79804761D01*
X213871428Y-79709523D01*
X213871428Y-79328571D01*
X213919047Y-79233333D01*
X214014285Y-79185714D01*
X214204761Y-79185714D01*
X214300000Y-79233333D01*
X214347619Y-79328571D01*
X214347619Y-79423809D01*
X213871428Y-79519047D01*
X214776190Y-79185714D02*
X214776190Y-79852380D01*
X214776190Y-79280952D02*
X214823809Y-79233333D01*
X214919047Y-79185714D01*
X215061904Y-79185714D01*
X215157142Y-79233333D01*
X215204761Y-79328571D01*
X215204761Y-79852380D01*
X216109523Y-79804761D02*
X216014285Y-79852380D01*
X215823809Y-79852380D01*
X215728571Y-79804761D01*
X215680952Y-79757142D01*
X215633333Y-79661904D01*
X215633333Y-79376190D01*
X215680952Y-79280952D01*
X215728571Y-79233333D01*
X215823809Y-79185714D01*
X216014285Y-79185714D01*
X216109523Y-79233333D01*
X216442857Y-79185714D02*
X216680952Y-79852380D01*
X216919047Y-79185714D02*
X216680952Y-79852380D01*
X216585714Y-80090476D01*
X216538095Y-80138095D01*
X216442857Y-80185714D01*
X210547619Y-102004761D02*
X210690476Y-102052380D01*
X210928571Y-102052380D01*
X211023809Y-102004761D01*
X211071428Y-101957142D01*
X211119047Y-101861904D01*
X211119047Y-101766666D01*
X211071428Y-101671428D01*
X211023809Y-101623809D01*
X210928571Y-101576190D01*
X210738095Y-101528571D01*
X210642857Y-101480952D01*
X210595238Y-101433333D01*
X210547619Y-101338095D01*
X210547619Y-101242857D01*
X210595238Y-101147619D01*
X210642857Y-101100000D01*
X210738095Y-101052380D01*
X210976190Y-101052380D01*
X211119047Y-101100000D01*
X211404761Y-101385714D02*
X211785714Y-101385714D01*
X211547619Y-101052380D02*
X211547619Y-101909523D01*
X211595238Y-102004761D01*
X211690476Y-102052380D01*
X211785714Y-102052380D01*
X212119047Y-102052380D02*
X212119047Y-101385714D01*
X212119047Y-101576190D02*
X212166666Y-101480952D01*
X212214285Y-101433333D01*
X212309523Y-101385714D01*
X212404761Y-101385714D01*
X213119047Y-102004761D02*
X213023809Y-102052380D01*
X212833333Y-102052380D01*
X212738095Y-102004761D01*
X212690476Y-101909523D01*
X212690476Y-101528571D01*
X212738095Y-101433333D01*
X212833333Y-101385714D01*
X213023809Y-101385714D01*
X213119047Y-101433333D01*
X213166666Y-101528571D01*
X213166666Y-101623809D01*
X212690476Y-101719047D01*
X213595238Y-101385714D02*
X213595238Y-102052380D01*
X213595238Y-101480952D02*
X213642857Y-101433333D01*
X213738095Y-101385714D01*
X213880952Y-101385714D01*
X213976190Y-101433333D01*
X214023809Y-101528571D01*
X214023809Y-102052380D01*
X214928571Y-101385714D02*
X214928571Y-102195238D01*
X214880952Y-102290476D01*
X214833333Y-102338095D01*
X214738095Y-102385714D01*
X214595238Y-102385714D01*
X214500000Y-102338095D01*
X214928571Y-102004761D02*
X214833333Y-102052380D01*
X214642857Y-102052380D01*
X214547619Y-102004761D01*
X214500000Y-101957142D01*
X214452380Y-101861904D01*
X214452380Y-101576190D01*
X214500000Y-101480952D01*
X214547619Y-101433333D01*
X214642857Y-101385714D01*
X214833333Y-101385714D01*
X214928571Y-101433333D01*
X215261904Y-101385714D02*
X215642857Y-101385714D01*
X215404761Y-101052380D02*
X215404761Y-101909523D01*
X215452380Y-102004761D01*
X215547619Y-102052380D01*
X215642857Y-102052380D01*
X215976190Y-102052380D02*
X215976190Y-101052380D01*
X216404761Y-102052380D02*
X216404761Y-101528571D01*
X216357142Y-101433333D01*
X216261904Y-101385714D01*
X216119047Y-101385714D01*
X216023809Y-101433333D01*
X215976190Y-101480952D01*
D10*
X176017857Y-86867857D02*
X175982142Y-86903571D01*
X175875000Y-86939285D01*
X175803571Y-86939285D01*
X175696428Y-86903571D01*
X175625000Y-86832142D01*
X175589285Y-86760714D01*
X175553571Y-86617857D01*
X175553571Y-86510714D01*
X175589285Y-86367857D01*
X175625000Y-86296428D01*
X175696428Y-86225000D01*
X175803571Y-86189285D01*
X175875000Y-86189285D01*
X175982142Y-86225000D01*
X176017857Y-86260714D01*
X176339285Y-86939285D02*
X176339285Y-86189285D01*
X176660714Y-86939285D02*
X176660714Y-86546428D01*
X176625000Y-86475000D01*
X176553571Y-86439285D01*
X176446428Y-86439285D01*
X176375000Y-86475000D01*
X176339285Y-86510714D01*
X177339285Y-86939285D02*
X177339285Y-86546428D01*
X177303571Y-86475000D01*
X177232142Y-86439285D01*
X177089285Y-86439285D01*
X177017857Y-86475000D01*
X177339285Y-86903571D02*
X177267857Y-86939285D01*
X177089285Y-86939285D01*
X177017857Y-86903571D01*
X176982142Y-86832142D01*
X176982142Y-86760714D01*
X177017857Y-86689285D01*
X177089285Y-86653571D01*
X177267857Y-86653571D01*
X177339285Y-86617857D01*
X177696428Y-86939285D02*
X177696428Y-86439285D01*
X177696428Y-86582142D02*
X177732142Y-86510714D01*
X177767857Y-86475000D01*
X177839285Y-86439285D01*
X177910714Y-86439285D01*
X178267857Y-86939285D02*
X178196428Y-86903571D01*
X178160714Y-86832142D01*
X178160714Y-86189285D01*
X178553571Y-86939285D02*
X178553571Y-86439285D01*
X178553571Y-86189285D02*
X178517857Y-86225000D01*
X178553571Y-86260714D01*
X178589285Y-86225000D01*
X178553571Y-86189285D01*
X178553571Y-86260714D01*
X179196428Y-86903571D02*
X179125000Y-86939285D01*
X178982142Y-86939285D01*
X178910714Y-86903571D01*
X178875000Y-86832142D01*
X178875000Y-86546428D01*
X178910714Y-86475000D01*
X178982142Y-86439285D01*
X179125000Y-86439285D01*
X179196428Y-86475000D01*
X179232142Y-86546428D01*
X179232142Y-86617857D01*
X178875000Y-86689285D01*
X179553571Y-86939285D02*
X179553571Y-86189285D01*
X179839285Y-86189285D01*
X179910714Y-86225000D01*
X179946428Y-86260714D01*
X179982142Y-86332142D01*
X179982142Y-86439285D01*
X179946428Y-86510714D01*
X179910714Y-86546428D01*
X179839285Y-86582142D01*
X179553571Y-86582142D01*
X180410714Y-86939285D02*
X180339285Y-86903571D01*
X180303571Y-86832142D01*
X180303571Y-86189285D01*
X180982142Y-86903571D02*
X180910714Y-86939285D01*
X180767857Y-86939285D01*
X180696428Y-86903571D01*
X180660714Y-86832142D01*
X180660714Y-86546428D01*
X180696428Y-86475000D01*
X180767857Y-86439285D01*
X180910714Y-86439285D01*
X180982142Y-86475000D01*
X181017857Y-86546428D01*
X181017857Y-86617857D01*
X180660714Y-86689285D01*
X181267857Y-86939285D02*
X181660714Y-86439285D01*
X181267857Y-86439285D02*
X181660714Y-86939285D01*
X181910714Y-86260714D02*
X181946428Y-86225000D01*
X182017857Y-86189285D01*
X182196428Y-86189285D01*
X182267857Y-86225000D01*
X182303571Y-86260714D01*
X182339285Y-86332142D01*
X182339285Y-86403571D01*
X182303571Y-86510714D01*
X181875000Y-86939285D01*
X182339285Y-86939285D01*
X183660714Y-86939285D02*
X183410714Y-86582142D01*
X183232142Y-86939285D02*
X183232142Y-86189285D01*
X183517857Y-86189285D01*
X183589285Y-86225000D01*
X183625000Y-86260714D01*
X183660714Y-86332142D01*
X183660714Y-86439285D01*
X183625000Y-86510714D01*
X183589285Y-86546428D01*
X183517857Y-86582142D01*
X183232142Y-86582142D01*
X184267857Y-86903571D02*
X184196428Y-86939285D01*
X184053571Y-86939285D01*
X183982142Y-86903571D01*
X183946428Y-86832142D01*
X183946428Y-86546428D01*
X183982142Y-86475000D01*
X184053571Y-86439285D01*
X184196428Y-86439285D01*
X184267857Y-86475000D01*
X184303571Y-86546428D01*
X184303571Y-86617857D01*
X183946428Y-86689285D01*
X184589285Y-86903571D02*
X184660714Y-86939285D01*
X184803571Y-86939285D01*
X184875000Y-86903571D01*
X184910714Y-86832142D01*
X184910714Y-86796428D01*
X184875000Y-86725000D01*
X184803571Y-86689285D01*
X184696428Y-86689285D01*
X184625000Y-86653571D01*
X184589285Y-86582142D01*
X184589285Y-86546428D01*
X184625000Y-86475000D01*
X184696428Y-86439285D01*
X184803571Y-86439285D01*
X184875000Y-86475000D01*
X185232142Y-86939285D02*
X185232142Y-86439285D01*
X185232142Y-86189285D02*
X185196428Y-86225000D01*
X185232142Y-86260714D01*
X185267857Y-86225000D01*
X185232142Y-86189285D01*
X185232142Y-86260714D01*
X185553571Y-86903571D02*
X185625000Y-86939285D01*
X185767857Y-86939285D01*
X185839285Y-86903571D01*
X185875000Y-86832142D01*
X185875000Y-86796428D01*
X185839285Y-86725000D01*
X185767857Y-86689285D01*
X185660714Y-86689285D01*
X185589285Y-86653571D01*
X185553571Y-86582142D01*
X185553571Y-86546428D01*
X185589285Y-86475000D01*
X185660714Y-86439285D01*
X185767857Y-86439285D01*
X185839285Y-86475000D01*
X186089285Y-86439285D02*
X186375000Y-86439285D01*
X186196428Y-86189285D02*
X186196428Y-86832142D01*
X186232142Y-86903571D01*
X186303571Y-86939285D01*
X186375000Y-86939285D01*
X186732142Y-86939285D02*
X186660714Y-86903571D01*
X186625000Y-86867857D01*
X186589285Y-86796428D01*
X186589285Y-86582142D01*
X186625000Y-86510714D01*
X186660714Y-86475000D01*
X186732142Y-86439285D01*
X186839285Y-86439285D01*
X186910714Y-86475000D01*
X186946428Y-86510714D01*
X186982142Y-86582142D01*
X186982142Y-86796428D01*
X186946428Y-86867857D01*
X186910714Y-86903571D01*
X186839285Y-86939285D01*
X186732142Y-86939285D01*
X187303571Y-86939285D02*
X187303571Y-86439285D01*
X187303571Y-86582142D02*
X187339285Y-86510714D01*
X187375000Y-86475000D01*
X187446428Y-86439285D01*
X187517857Y-86439285D01*
X176365714Y-77903571D02*
X176472857Y-77939285D01*
X176651428Y-77939285D01*
X176722857Y-77903571D01*
X176758571Y-77867857D01*
X176794285Y-77796428D01*
X176794285Y-77725000D01*
X176758571Y-77653571D01*
X176722857Y-77617857D01*
X176651428Y-77582142D01*
X176508571Y-77546428D01*
X176437142Y-77510714D01*
X176401428Y-77475000D01*
X176365714Y-77403571D01*
X176365714Y-77332142D01*
X176401428Y-77260714D01*
X176437142Y-77225000D01*
X176508571Y-77189285D01*
X176687142Y-77189285D01*
X176794285Y-77225000D01*
X177115714Y-77439285D02*
X177115714Y-78189285D01*
X177115714Y-77475000D02*
X177187142Y-77439285D01*
X177330000Y-77439285D01*
X177401428Y-77475000D01*
X177437142Y-77510714D01*
X177472857Y-77582142D01*
X177472857Y-77796428D01*
X177437142Y-77867857D01*
X177401428Y-77903571D01*
X177330000Y-77939285D01*
X177187142Y-77939285D01*
X177115714Y-77903571D01*
X177794285Y-77939285D02*
X177794285Y-77439285D01*
X177794285Y-77189285D02*
X177758571Y-77225000D01*
X177794285Y-77260714D01*
X177830000Y-77225000D01*
X177794285Y-77189285D01*
X177794285Y-77260714D01*
X178151428Y-77939285D02*
X178151428Y-77189285D01*
X178222857Y-77653571D02*
X178437142Y-77939285D01*
X178437142Y-77439285D02*
X178151428Y-77725000D01*
X179044285Y-77903571D02*
X178972857Y-77939285D01*
X178830000Y-77939285D01*
X178758571Y-77903571D01*
X178722857Y-77832142D01*
X178722857Y-77546428D01*
X178758571Y-77475000D01*
X178830000Y-77439285D01*
X178972857Y-77439285D01*
X179044285Y-77475000D01*
X179080000Y-77546428D01*
X179080000Y-77617857D01*
X178722857Y-77689285D01*
X179222857Y-78010714D02*
X179794285Y-78010714D01*
X180330000Y-77939285D02*
X179972857Y-77939285D01*
X179972857Y-77189285D01*
X180580000Y-77546428D02*
X180830000Y-77546428D01*
X180937142Y-77939285D02*
X180580000Y-77939285D01*
X180580000Y-77189285D01*
X180937142Y-77189285D01*
X181258571Y-77939285D02*
X181258571Y-77189285D01*
X181437142Y-77189285D01*
X181544285Y-77225000D01*
X181615714Y-77296428D01*
X181651428Y-77367857D01*
X181687142Y-77510714D01*
X181687142Y-77617857D01*
X181651428Y-77760714D01*
X181615714Y-77832142D01*
X181544285Y-77903571D01*
X181437142Y-77939285D01*
X181258571Y-77939285D01*
X183008571Y-77939285D02*
X182758571Y-77582142D01*
X182580000Y-77939285D02*
X182580000Y-77189285D01*
X182865714Y-77189285D01*
X182937142Y-77225000D01*
X182972857Y-77260714D01*
X183008571Y-77332142D01*
X183008571Y-77439285D01*
X182972857Y-77510714D01*
X182937142Y-77546428D01*
X182865714Y-77582142D01*
X182580000Y-77582142D01*
X183615714Y-77903571D02*
X183544285Y-77939285D01*
X183401428Y-77939285D01*
X183330000Y-77903571D01*
X183294285Y-77832142D01*
X183294285Y-77546428D01*
X183330000Y-77475000D01*
X183401428Y-77439285D01*
X183544285Y-77439285D01*
X183615714Y-77475000D01*
X183651428Y-77546428D01*
X183651428Y-77617857D01*
X183294285Y-77689285D01*
X183937142Y-77903571D02*
X184008571Y-77939285D01*
X184151428Y-77939285D01*
X184222857Y-77903571D01*
X184258571Y-77832142D01*
X184258571Y-77796428D01*
X184222857Y-77725000D01*
X184151428Y-77689285D01*
X184044285Y-77689285D01*
X183972857Y-77653571D01*
X183937142Y-77582142D01*
X183937142Y-77546428D01*
X183972857Y-77475000D01*
X184044285Y-77439285D01*
X184151428Y-77439285D01*
X184222857Y-77475000D01*
X184580000Y-77939285D02*
X184580000Y-77439285D01*
X184580000Y-77189285D02*
X184544285Y-77225000D01*
X184580000Y-77260714D01*
X184615714Y-77225000D01*
X184580000Y-77189285D01*
X184580000Y-77260714D01*
X184901428Y-77903571D02*
X184972857Y-77939285D01*
X185115714Y-77939285D01*
X185187142Y-77903571D01*
X185222857Y-77832142D01*
X185222857Y-77796428D01*
X185187142Y-77725000D01*
X185115714Y-77689285D01*
X185008571Y-77689285D01*
X184937142Y-77653571D01*
X184901428Y-77582142D01*
X184901428Y-77546428D01*
X184937142Y-77475000D01*
X185008571Y-77439285D01*
X185115714Y-77439285D01*
X185187142Y-77475000D01*
X185437142Y-77439285D02*
X185722857Y-77439285D01*
X185544285Y-77189285D02*
X185544285Y-77832142D01*
X185580000Y-77903571D01*
X185651428Y-77939285D01*
X185722857Y-77939285D01*
X186080000Y-77939285D02*
X186008571Y-77903571D01*
X185972857Y-77867857D01*
X185937142Y-77796428D01*
X185937142Y-77582142D01*
X185972857Y-77510714D01*
X186008571Y-77475000D01*
X186080000Y-77439285D01*
X186187142Y-77439285D01*
X186258571Y-77475000D01*
X186294285Y-77510714D01*
X186330000Y-77582142D01*
X186330000Y-77796428D01*
X186294285Y-77867857D01*
X186258571Y-77903571D01*
X186187142Y-77939285D01*
X186080000Y-77939285D01*
X186651428Y-77939285D02*
X186651428Y-77439285D01*
X186651428Y-77582142D02*
X186687142Y-77510714D01*
X186722857Y-77475000D01*
X186794285Y-77439285D01*
X186865714Y-77439285D01*
X176117857Y-82367857D02*
X176082142Y-82403571D01*
X175975000Y-82439285D01*
X175903571Y-82439285D01*
X175796428Y-82403571D01*
X175725000Y-82332142D01*
X175689285Y-82260714D01*
X175653571Y-82117857D01*
X175653571Y-82010714D01*
X175689285Y-81867857D01*
X175725000Y-81796428D01*
X175796428Y-81725000D01*
X175903571Y-81689285D01*
X175975000Y-81689285D01*
X176082142Y-81725000D01*
X176117857Y-81760714D01*
X176439285Y-82439285D02*
X176439285Y-81689285D01*
X176760714Y-82439285D02*
X176760714Y-82046428D01*
X176725000Y-81975000D01*
X176653571Y-81939285D01*
X176546428Y-81939285D01*
X176475000Y-81975000D01*
X176439285Y-82010714D01*
X177439285Y-82439285D02*
X177439285Y-82046428D01*
X177403571Y-81975000D01*
X177332142Y-81939285D01*
X177189285Y-81939285D01*
X177117857Y-81975000D01*
X177439285Y-82403571D02*
X177367857Y-82439285D01*
X177189285Y-82439285D01*
X177117857Y-82403571D01*
X177082142Y-82332142D01*
X177082142Y-82260714D01*
X177117857Y-82189285D01*
X177189285Y-82153571D01*
X177367857Y-82153571D01*
X177439285Y-82117857D01*
X177796428Y-82439285D02*
X177796428Y-81939285D01*
X177796428Y-82082142D02*
X177832142Y-82010714D01*
X177867857Y-81975000D01*
X177939285Y-81939285D01*
X178010714Y-81939285D01*
X178367857Y-82439285D02*
X178296428Y-82403571D01*
X178260714Y-82332142D01*
X178260714Y-81689285D01*
X178653571Y-82439285D02*
X178653571Y-81939285D01*
X178653571Y-81689285D02*
X178617857Y-81725000D01*
X178653571Y-81760714D01*
X178689285Y-81725000D01*
X178653571Y-81689285D01*
X178653571Y-81760714D01*
X179296428Y-82403571D02*
X179225000Y-82439285D01*
X179082142Y-82439285D01*
X179010714Y-82403571D01*
X178975000Y-82332142D01*
X178975000Y-82046428D01*
X179010714Y-81975000D01*
X179082142Y-81939285D01*
X179225000Y-81939285D01*
X179296428Y-81975000D01*
X179332142Y-82046428D01*
X179332142Y-82117857D01*
X178975000Y-82189285D01*
X179653571Y-82439285D02*
X179653571Y-81689285D01*
X179939285Y-81689285D01*
X180010714Y-81725000D01*
X180046428Y-81760714D01*
X180082142Y-81832142D01*
X180082142Y-81939285D01*
X180046428Y-82010714D01*
X180010714Y-82046428D01*
X179939285Y-82082142D01*
X179653571Y-82082142D01*
X180510714Y-82439285D02*
X180439285Y-82403571D01*
X180403571Y-82332142D01*
X180403571Y-81689285D01*
X181082142Y-82403571D02*
X181010714Y-82439285D01*
X180867857Y-82439285D01*
X180796428Y-82403571D01*
X180760714Y-82332142D01*
X180760714Y-82046428D01*
X180796428Y-81975000D01*
X180867857Y-81939285D01*
X181010714Y-81939285D01*
X181082142Y-81975000D01*
X181117857Y-82046428D01*
X181117857Y-82117857D01*
X180760714Y-82189285D01*
X181367857Y-82439285D02*
X181760714Y-81939285D01*
X181367857Y-81939285D02*
X181760714Y-82439285D01*
X182439285Y-82439285D02*
X182010714Y-82439285D01*
X182225000Y-82439285D02*
X182225000Y-81689285D01*
X182153571Y-81796428D01*
X182082142Y-81867857D01*
X182010714Y-81903571D01*
X183760714Y-82439285D02*
X183510714Y-82082142D01*
X183332142Y-82439285D02*
X183332142Y-81689285D01*
X183617857Y-81689285D01*
X183689285Y-81725000D01*
X183725000Y-81760714D01*
X183760714Y-81832142D01*
X183760714Y-81939285D01*
X183725000Y-82010714D01*
X183689285Y-82046428D01*
X183617857Y-82082142D01*
X183332142Y-82082142D01*
X184367857Y-82403571D02*
X184296428Y-82439285D01*
X184153571Y-82439285D01*
X184082142Y-82403571D01*
X184046428Y-82332142D01*
X184046428Y-82046428D01*
X184082142Y-81975000D01*
X184153571Y-81939285D01*
X184296428Y-81939285D01*
X184367857Y-81975000D01*
X184403571Y-82046428D01*
X184403571Y-82117857D01*
X184046428Y-82189285D01*
X184689285Y-82403571D02*
X184760714Y-82439285D01*
X184903571Y-82439285D01*
X184975000Y-82403571D01*
X185010714Y-82332142D01*
X185010714Y-82296428D01*
X184975000Y-82225000D01*
X184903571Y-82189285D01*
X184796428Y-82189285D01*
X184725000Y-82153571D01*
X184689285Y-82082142D01*
X184689285Y-82046428D01*
X184725000Y-81975000D01*
X184796428Y-81939285D01*
X184903571Y-81939285D01*
X184975000Y-81975000D01*
X185332142Y-82439285D02*
X185332142Y-81939285D01*
X185332142Y-81689285D02*
X185296428Y-81725000D01*
X185332142Y-81760714D01*
X185367857Y-81725000D01*
X185332142Y-81689285D01*
X185332142Y-81760714D01*
X185653571Y-82403571D02*
X185725000Y-82439285D01*
X185867857Y-82439285D01*
X185939285Y-82403571D01*
X185975000Y-82332142D01*
X185975000Y-82296428D01*
X185939285Y-82225000D01*
X185867857Y-82189285D01*
X185760714Y-82189285D01*
X185689285Y-82153571D01*
X185653571Y-82082142D01*
X185653571Y-82046428D01*
X185689285Y-81975000D01*
X185760714Y-81939285D01*
X185867857Y-81939285D01*
X185939285Y-81975000D01*
X186189285Y-81939285D02*
X186475000Y-81939285D01*
X186296428Y-81689285D02*
X186296428Y-82332142D01*
X186332142Y-82403571D01*
X186403571Y-82439285D01*
X186475000Y-82439285D01*
X186832142Y-82439285D02*
X186760714Y-82403571D01*
X186725000Y-82367857D01*
X186689285Y-82296428D01*
X186689285Y-82082142D01*
X186725000Y-82010714D01*
X186760714Y-81975000D01*
X186832142Y-81939285D01*
X186939285Y-81939285D01*
X187010714Y-81975000D01*
X187046428Y-82010714D01*
X187082142Y-82082142D01*
X187082142Y-82296428D01*
X187046428Y-82367857D01*
X187010714Y-82403571D01*
X186939285Y-82439285D01*
X186832142Y-82439285D01*
X187403571Y-82439285D02*
X187403571Y-81939285D01*
X187403571Y-82082142D02*
X187439285Y-82010714D01*
X187475000Y-81975000D01*
X187546428Y-81939285D01*
X187617857Y-81939285D01*
X179589285Y-64892857D02*
X179232142Y-65142857D01*
X179589285Y-65321428D02*
X178839285Y-65321428D01*
X178839285Y-65035714D01*
X178875000Y-64964285D01*
X178910714Y-64928571D01*
X178982142Y-64892857D01*
X179089285Y-64892857D01*
X179160714Y-64928571D01*
X179196428Y-64964285D01*
X179232142Y-65035714D01*
X179232142Y-65321428D01*
X179589285Y-64571428D02*
X178839285Y-64571428D01*
X179589285Y-64142857D02*
X179160714Y-64464285D01*
X178839285Y-64142857D02*
X179267857Y-64571428D01*
X178875000Y-63428571D02*
X178839285Y-63500000D01*
X178839285Y-63607142D01*
X178875000Y-63714285D01*
X178946428Y-63785714D01*
X179017857Y-63821428D01*
X179160714Y-63857142D01*
X179267857Y-63857142D01*
X179410714Y-63821428D01*
X179482142Y-63785714D01*
X179553571Y-63714285D01*
X179589285Y-63607142D01*
X179589285Y-63535714D01*
X179553571Y-63428571D01*
X179517857Y-63392857D01*
X179267857Y-63392857D01*
X179267857Y-63535714D01*
X179196428Y-62821428D02*
X179232142Y-62714285D01*
X179267857Y-62678571D01*
X179339285Y-62642857D01*
X179446428Y-62642857D01*
X179517857Y-62678571D01*
X179553571Y-62714285D01*
X179589285Y-62785714D01*
X179589285Y-63071428D01*
X178839285Y-63071428D01*
X178839285Y-62821428D01*
X178875000Y-62750000D01*
X178910714Y-62714285D01*
X178982142Y-62678571D01*
X179053571Y-62678571D01*
X179125000Y-62714285D01*
X179160714Y-62750000D01*
X179196428Y-62821428D01*
X179196428Y-63071428D01*
X196592857Y-64639285D02*
X196342857Y-64282142D01*
X196164285Y-64639285D02*
X196164285Y-63889285D01*
X196450000Y-63889285D01*
X196521428Y-63925000D01*
X196557142Y-63960714D01*
X196592857Y-64032142D01*
X196592857Y-64139285D01*
X196557142Y-64210714D01*
X196521428Y-64246428D01*
X196450000Y-64282142D01*
X196164285Y-64282142D01*
X197342857Y-64567857D02*
X197307142Y-64603571D01*
X197200000Y-64639285D01*
X197128571Y-64639285D01*
X197021428Y-64603571D01*
X196950000Y-64532142D01*
X196914285Y-64460714D01*
X196878571Y-64317857D01*
X196878571Y-64210714D01*
X196914285Y-64067857D01*
X196950000Y-63996428D01*
X197021428Y-63925000D01*
X197128571Y-63889285D01*
X197200000Y-63889285D01*
X197307142Y-63925000D01*
X197342857Y-63960714D01*
X198664285Y-64567857D02*
X198628571Y-64603571D01*
X198521428Y-64639285D01*
X198450000Y-64639285D01*
X198342857Y-64603571D01*
X198271428Y-64532142D01*
X198235714Y-64460714D01*
X198200000Y-64317857D01*
X198200000Y-64210714D01*
X198235714Y-64067857D01*
X198271428Y-63996428D01*
X198342857Y-63925000D01*
X198450000Y-63889285D01*
X198521428Y-63889285D01*
X198628571Y-63925000D01*
X198664285Y-63960714D01*
X199307142Y-64639285D02*
X199307142Y-64246428D01*
X199271428Y-64175000D01*
X199200000Y-64139285D01*
X199057142Y-64139285D01*
X198985714Y-64175000D01*
X199307142Y-64603571D02*
X199235714Y-64639285D01*
X199057142Y-64639285D01*
X198985714Y-64603571D01*
X198950000Y-64532142D01*
X198950000Y-64460714D01*
X198985714Y-64389285D01*
X199057142Y-64353571D01*
X199235714Y-64353571D01*
X199307142Y-64317857D01*
X199664285Y-64139285D02*
X199664285Y-64889285D01*
X199664285Y-64175000D02*
X199735714Y-64139285D01*
X199878571Y-64139285D01*
X199950000Y-64175000D01*
X199985714Y-64210714D01*
X200021428Y-64282142D01*
X200021428Y-64496428D01*
X199985714Y-64567857D01*
X199950000Y-64603571D01*
X199878571Y-64639285D01*
X199735714Y-64639285D01*
X199664285Y-64603571D01*
X200664285Y-64639285D02*
X200664285Y-64246428D01*
X200628571Y-64175000D01*
X200557142Y-64139285D01*
X200414285Y-64139285D01*
X200342857Y-64175000D01*
X200664285Y-64603571D02*
X200592857Y-64639285D01*
X200414285Y-64639285D01*
X200342857Y-64603571D01*
X200307142Y-64532142D01*
X200307142Y-64460714D01*
X200342857Y-64389285D01*
X200414285Y-64353571D01*
X200592857Y-64353571D01*
X200664285Y-64317857D01*
X201342857Y-64603571D02*
X201271428Y-64639285D01*
X201128571Y-64639285D01*
X201057142Y-64603571D01*
X201021428Y-64567857D01*
X200985714Y-64496428D01*
X200985714Y-64282142D01*
X201021428Y-64210714D01*
X201057142Y-64175000D01*
X201128571Y-64139285D01*
X201271428Y-64139285D01*
X201342857Y-64175000D01*
X201664285Y-64639285D02*
X201664285Y-64139285D01*
X201664285Y-63889285D02*
X201628571Y-63925000D01*
X201664285Y-63960714D01*
X201700000Y-63925000D01*
X201664285Y-63889285D01*
X201664285Y-63960714D01*
X201914285Y-64139285D02*
X202200000Y-64139285D01*
X202021428Y-63889285D02*
X202021428Y-64532142D01*
X202057142Y-64603571D01*
X202128571Y-64639285D01*
X202200000Y-64639285D01*
X202557142Y-64639285D02*
X202485714Y-64603571D01*
X202450000Y-64567857D01*
X202414285Y-64496428D01*
X202414285Y-64282142D01*
X202450000Y-64210714D01*
X202485714Y-64175000D01*
X202557142Y-64139285D01*
X202664285Y-64139285D01*
X202735714Y-64175000D01*
X202771428Y-64210714D01*
X202807142Y-64282142D01*
X202807142Y-64496428D01*
X202771428Y-64567857D01*
X202735714Y-64603571D01*
X202664285Y-64639285D01*
X202557142Y-64639285D01*
X203128571Y-64639285D02*
X203128571Y-64139285D01*
X203128571Y-64282142D02*
X203164285Y-64210714D01*
X203200000Y-64175000D01*
X203271428Y-64139285D01*
X203342857Y-64139285D01*
X197103571Y-69739285D02*
X196853571Y-69382142D01*
X196675000Y-69739285D02*
X196675000Y-68989285D01*
X196960714Y-68989285D01*
X197032142Y-69025000D01*
X197067857Y-69060714D01*
X197103571Y-69132142D01*
X197103571Y-69239285D01*
X197067857Y-69310714D01*
X197032142Y-69346428D01*
X196960714Y-69382142D01*
X196675000Y-69382142D01*
X197853571Y-69667857D02*
X197817857Y-69703571D01*
X197710714Y-69739285D01*
X197639285Y-69739285D01*
X197532142Y-69703571D01*
X197460714Y-69632142D01*
X197425000Y-69560714D01*
X197389285Y-69417857D01*
X197389285Y-69310714D01*
X197425000Y-69167857D01*
X197460714Y-69096428D01*
X197532142Y-69025000D01*
X197639285Y-68989285D01*
X197710714Y-68989285D01*
X197817857Y-69025000D01*
X197853571Y-69060714D01*
X199175000Y-69739285D02*
X198925000Y-69382142D01*
X198746428Y-69739285D02*
X198746428Y-68989285D01*
X199032142Y-68989285D01*
X199103571Y-69025000D01*
X199139285Y-69060714D01*
X199175000Y-69132142D01*
X199175000Y-69239285D01*
X199139285Y-69310714D01*
X199103571Y-69346428D01*
X199032142Y-69382142D01*
X198746428Y-69382142D01*
X199782142Y-69703571D02*
X199710714Y-69739285D01*
X199567857Y-69739285D01*
X199496428Y-69703571D01*
X199460714Y-69632142D01*
X199460714Y-69346428D01*
X199496428Y-69275000D01*
X199567857Y-69239285D01*
X199710714Y-69239285D01*
X199782142Y-69275000D01*
X199817857Y-69346428D01*
X199817857Y-69417857D01*
X199460714Y-69489285D01*
X200103571Y-69703571D02*
X200175000Y-69739285D01*
X200317857Y-69739285D01*
X200389285Y-69703571D01*
X200425000Y-69632142D01*
X200425000Y-69596428D01*
X200389285Y-69525000D01*
X200317857Y-69489285D01*
X200210714Y-69489285D01*
X200139285Y-69453571D01*
X200103571Y-69382142D01*
X200103571Y-69346428D01*
X200139285Y-69275000D01*
X200210714Y-69239285D01*
X200317857Y-69239285D01*
X200389285Y-69275000D01*
X200746428Y-69739285D02*
X200746428Y-69239285D01*
X200746428Y-68989285D02*
X200710714Y-69025000D01*
X200746428Y-69060714D01*
X200782142Y-69025000D01*
X200746428Y-68989285D01*
X200746428Y-69060714D01*
X201067857Y-69703571D02*
X201139285Y-69739285D01*
X201282142Y-69739285D01*
X201353571Y-69703571D01*
X201389285Y-69632142D01*
X201389285Y-69596428D01*
X201353571Y-69525000D01*
X201282142Y-69489285D01*
X201175000Y-69489285D01*
X201103571Y-69453571D01*
X201067857Y-69382142D01*
X201067857Y-69346428D01*
X201103571Y-69275000D01*
X201175000Y-69239285D01*
X201282142Y-69239285D01*
X201353571Y-69275000D01*
X201603571Y-69239285D02*
X201889285Y-69239285D01*
X201710714Y-68989285D02*
X201710714Y-69632142D01*
X201746428Y-69703571D01*
X201817857Y-69739285D01*
X201889285Y-69739285D01*
X202246428Y-69739285D02*
X202175000Y-69703571D01*
X202139285Y-69667857D01*
X202103571Y-69596428D01*
X202103571Y-69382142D01*
X202139285Y-69310714D01*
X202175000Y-69275000D01*
X202246428Y-69239285D01*
X202353571Y-69239285D01*
X202425000Y-69275000D01*
X202460714Y-69310714D01*
X202496428Y-69382142D01*
X202496428Y-69596428D01*
X202460714Y-69667857D01*
X202425000Y-69703571D01*
X202353571Y-69739285D01*
X202246428Y-69739285D01*
X202817857Y-69739285D02*
X202817857Y-69239285D01*
X202817857Y-69382142D02*
X202853571Y-69310714D01*
X202889285Y-69275000D01*
X202960714Y-69239285D01*
X203032142Y-69239285D01*
X177001428Y-104903571D02*
X177108571Y-104939285D01*
X177287142Y-104939285D01*
X177358571Y-104903571D01*
X177394285Y-104867857D01*
X177430000Y-104796428D01*
X177430000Y-104725000D01*
X177394285Y-104653571D01*
X177358571Y-104617857D01*
X177287142Y-104582142D01*
X177144285Y-104546428D01*
X177072857Y-104510714D01*
X177037142Y-104475000D01*
X177001428Y-104403571D01*
X177001428Y-104332142D01*
X177037142Y-104260714D01*
X177072857Y-104225000D01*
X177144285Y-104189285D01*
X177322857Y-104189285D01*
X177430000Y-104225000D01*
X177644285Y-104439285D02*
X177930000Y-104439285D01*
X177751428Y-104189285D02*
X177751428Y-104832142D01*
X177787142Y-104903571D01*
X177858571Y-104939285D01*
X177930000Y-104939285D01*
X178180000Y-104939285D02*
X178180000Y-104439285D01*
X178180000Y-104189285D02*
X178144285Y-104225000D01*
X178180000Y-104260714D01*
X178215714Y-104225000D01*
X178180000Y-104189285D01*
X178180000Y-104260714D01*
X178537142Y-104939285D02*
X178537142Y-104439285D01*
X178537142Y-104510714D02*
X178572857Y-104475000D01*
X178644285Y-104439285D01*
X178751428Y-104439285D01*
X178822857Y-104475000D01*
X178858571Y-104546428D01*
X178858571Y-104939285D01*
X178858571Y-104546428D02*
X178894285Y-104475000D01*
X178965714Y-104439285D01*
X179072857Y-104439285D01*
X179144285Y-104475000D01*
X179180000Y-104546428D01*
X179180000Y-104939285D01*
X179894285Y-104939285D02*
X179537142Y-104939285D01*
X179537142Y-104189285D01*
X180144285Y-104546428D02*
X180394285Y-104546428D01*
X180501428Y-104939285D02*
X180144285Y-104939285D01*
X180144285Y-104189285D01*
X180501428Y-104189285D01*
X180822857Y-104939285D02*
X180822857Y-104189285D01*
X181001428Y-104189285D01*
X181108571Y-104225000D01*
X181180000Y-104296428D01*
X181215714Y-104367857D01*
X181251428Y-104510714D01*
X181251428Y-104617857D01*
X181215714Y-104760714D01*
X181180000Y-104832142D01*
X181108571Y-104903571D01*
X181001428Y-104939285D01*
X180822857Y-104939285D01*
X182572857Y-104939285D02*
X182322857Y-104582142D01*
X182144285Y-104939285D02*
X182144285Y-104189285D01*
X182430000Y-104189285D01*
X182501428Y-104225000D01*
X182537142Y-104260714D01*
X182572857Y-104332142D01*
X182572857Y-104439285D01*
X182537142Y-104510714D01*
X182501428Y-104546428D01*
X182430000Y-104582142D01*
X182144285Y-104582142D01*
X183180000Y-104903571D02*
X183108571Y-104939285D01*
X182965714Y-104939285D01*
X182894285Y-104903571D01*
X182858571Y-104832142D01*
X182858571Y-104546428D01*
X182894285Y-104475000D01*
X182965714Y-104439285D01*
X183108571Y-104439285D01*
X183180000Y-104475000D01*
X183215714Y-104546428D01*
X183215714Y-104617857D01*
X182858571Y-104689285D01*
X183501428Y-104903571D02*
X183572857Y-104939285D01*
X183715714Y-104939285D01*
X183787142Y-104903571D01*
X183822857Y-104832142D01*
X183822857Y-104796428D01*
X183787142Y-104725000D01*
X183715714Y-104689285D01*
X183608571Y-104689285D01*
X183537142Y-104653571D01*
X183501428Y-104582142D01*
X183501428Y-104546428D01*
X183537142Y-104475000D01*
X183608571Y-104439285D01*
X183715714Y-104439285D01*
X183787142Y-104475000D01*
X184144285Y-104939285D02*
X184144285Y-104439285D01*
X184144285Y-104189285D02*
X184108571Y-104225000D01*
X184144285Y-104260714D01*
X184180000Y-104225000D01*
X184144285Y-104189285D01*
X184144285Y-104260714D01*
X184465714Y-104903571D02*
X184537142Y-104939285D01*
X184680000Y-104939285D01*
X184751428Y-104903571D01*
X184787142Y-104832142D01*
X184787142Y-104796428D01*
X184751428Y-104725000D01*
X184680000Y-104689285D01*
X184572857Y-104689285D01*
X184501428Y-104653571D01*
X184465714Y-104582142D01*
X184465714Y-104546428D01*
X184501428Y-104475000D01*
X184572857Y-104439285D01*
X184680000Y-104439285D01*
X184751428Y-104475000D01*
X185001428Y-104439285D02*
X185287142Y-104439285D01*
X185108571Y-104189285D02*
X185108571Y-104832142D01*
X185144285Y-104903571D01*
X185215714Y-104939285D01*
X185287142Y-104939285D01*
X185644285Y-104939285D02*
X185572857Y-104903571D01*
X185537142Y-104867857D01*
X185501428Y-104796428D01*
X185501428Y-104582142D01*
X185537142Y-104510714D01*
X185572857Y-104475000D01*
X185644285Y-104439285D01*
X185751428Y-104439285D01*
X185822857Y-104475000D01*
X185858571Y-104510714D01*
X185894285Y-104582142D01*
X185894285Y-104796428D01*
X185858571Y-104867857D01*
X185822857Y-104903571D01*
X185751428Y-104939285D01*
X185644285Y-104939285D01*
X186215714Y-104939285D02*
X186215714Y-104439285D01*
X186215714Y-104582142D02*
X186251428Y-104510714D01*
X186287142Y-104475000D01*
X186358571Y-104439285D01*
X186430000Y-104439285D01*
X176200000Y-109439285D02*
X176200000Y-108689285D01*
X176485714Y-108689285D01*
X176557142Y-108725000D01*
X176592857Y-108760714D01*
X176628571Y-108832142D01*
X176628571Y-108939285D01*
X176592857Y-109010714D01*
X176557142Y-109046428D01*
X176485714Y-109082142D01*
X176200000Y-109082142D01*
X176950000Y-109439285D02*
X176950000Y-108689285D01*
X177271428Y-109439285D02*
X177271428Y-109046428D01*
X177235714Y-108975000D01*
X177164285Y-108939285D01*
X177057142Y-108939285D01*
X176985714Y-108975000D01*
X176950000Y-109010714D01*
X177735714Y-109439285D02*
X177664285Y-109403571D01*
X177628571Y-109367857D01*
X177592857Y-109296428D01*
X177592857Y-109082142D01*
X177628571Y-109010714D01*
X177664285Y-108975000D01*
X177735714Y-108939285D01*
X177842857Y-108939285D01*
X177914285Y-108975000D01*
X177950000Y-109010714D01*
X177985714Y-109082142D01*
X177985714Y-109296428D01*
X177950000Y-109367857D01*
X177914285Y-109403571D01*
X177842857Y-109439285D01*
X177735714Y-109439285D01*
X178200000Y-108939285D02*
X178485714Y-108939285D01*
X178307142Y-108689285D02*
X178307142Y-109332142D01*
X178342857Y-109403571D01*
X178414285Y-109439285D01*
X178485714Y-109439285D01*
X178842857Y-109439285D02*
X178771428Y-109403571D01*
X178735714Y-109367857D01*
X178700000Y-109296428D01*
X178700000Y-109082142D01*
X178735714Y-109010714D01*
X178771428Y-108975000D01*
X178842857Y-108939285D01*
X178950000Y-108939285D01*
X179021428Y-108975000D01*
X179057142Y-109010714D01*
X179092857Y-109082142D01*
X179092857Y-109296428D01*
X179057142Y-109367857D01*
X179021428Y-109403571D01*
X178950000Y-109439285D01*
X178842857Y-109439285D01*
X179735714Y-109439285D02*
X179735714Y-108689285D01*
X179735714Y-109403571D02*
X179664285Y-109439285D01*
X179521428Y-109439285D01*
X179450000Y-109403571D01*
X179414285Y-109367857D01*
X179378571Y-109296428D01*
X179378571Y-109082142D01*
X179414285Y-109010714D01*
X179450000Y-108975000D01*
X179521428Y-108939285D01*
X179664285Y-108939285D01*
X179735714Y-108975000D01*
X180092857Y-109439285D02*
X180092857Y-108939285D01*
X180092857Y-108689285D02*
X180057142Y-108725000D01*
X180092857Y-108760714D01*
X180128571Y-108725000D01*
X180092857Y-108689285D01*
X180092857Y-108760714D01*
X180557142Y-109439285D02*
X180485714Y-109403571D01*
X180450000Y-109367857D01*
X180414285Y-109296428D01*
X180414285Y-109082142D01*
X180450000Y-109010714D01*
X180485714Y-108975000D01*
X180557142Y-108939285D01*
X180664285Y-108939285D01*
X180735714Y-108975000D01*
X180771428Y-109010714D01*
X180807142Y-109082142D01*
X180807142Y-109296428D01*
X180771428Y-109367857D01*
X180735714Y-109403571D01*
X180664285Y-109439285D01*
X180557142Y-109439285D01*
X181450000Y-109439285D02*
X181450000Y-108689285D01*
X181450000Y-109403571D02*
X181378571Y-109439285D01*
X181235714Y-109439285D01*
X181164285Y-109403571D01*
X181128571Y-109367857D01*
X181092857Y-109296428D01*
X181092857Y-109082142D01*
X181128571Y-109010714D01*
X181164285Y-108975000D01*
X181235714Y-108939285D01*
X181378571Y-108939285D01*
X181450000Y-108975000D01*
X182092857Y-109403571D02*
X182021428Y-109439285D01*
X181878571Y-109439285D01*
X181807142Y-109403571D01*
X181771428Y-109332142D01*
X181771428Y-109046428D01*
X181807142Y-108975000D01*
X181878571Y-108939285D01*
X182021428Y-108939285D01*
X182092857Y-108975000D01*
X182128571Y-109046428D01*
X182128571Y-109117857D01*
X181771428Y-109189285D01*
X183450000Y-109439285D02*
X183200000Y-109082142D01*
X183021428Y-109439285D02*
X183021428Y-108689285D01*
X183307142Y-108689285D01*
X183378571Y-108725000D01*
X183414285Y-108760714D01*
X183450000Y-108832142D01*
X183450000Y-108939285D01*
X183414285Y-109010714D01*
X183378571Y-109046428D01*
X183307142Y-109082142D01*
X183021428Y-109082142D01*
X184057142Y-109403571D02*
X183985714Y-109439285D01*
X183842857Y-109439285D01*
X183771428Y-109403571D01*
X183735714Y-109332142D01*
X183735714Y-109046428D01*
X183771428Y-108975000D01*
X183842857Y-108939285D01*
X183985714Y-108939285D01*
X184057142Y-108975000D01*
X184092857Y-109046428D01*
X184092857Y-109117857D01*
X183735714Y-109189285D01*
X184378571Y-109403571D02*
X184450000Y-109439285D01*
X184592857Y-109439285D01*
X184664285Y-109403571D01*
X184700000Y-109332142D01*
X184700000Y-109296428D01*
X184664285Y-109225000D01*
X184592857Y-109189285D01*
X184485714Y-109189285D01*
X184414285Y-109153571D01*
X184378571Y-109082142D01*
X184378571Y-109046428D01*
X184414285Y-108975000D01*
X184485714Y-108939285D01*
X184592857Y-108939285D01*
X184664285Y-108975000D01*
X185021428Y-109439285D02*
X185021428Y-108939285D01*
X185021428Y-108689285D02*
X184985714Y-108725000D01*
X185021428Y-108760714D01*
X185057142Y-108725000D01*
X185021428Y-108689285D01*
X185021428Y-108760714D01*
X185342857Y-109403571D02*
X185414285Y-109439285D01*
X185557142Y-109439285D01*
X185628571Y-109403571D01*
X185664285Y-109332142D01*
X185664285Y-109296428D01*
X185628571Y-109225000D01*
X185557142Y-109189285D01*
X185450000Y-109189285D01*
X185378571Y-109153571D01*
X185342857Y-109082142D01*
X185342857Y-109046428D01*
X185378571Y-108975000D01*
X185450000Y-108939285D01*
X185557142Y-108939285D01*
X185628571Y-108975000D01*
X185878571Y-108939285D02*
X186164285Y-108939285D01*
X185985714Y-108689285D02*
X185985714Y-109332142D01*
X186021428Y-109403571D01*
X186092857Y-109439285D01*
X186164285Y-109439285D01*
X186521428Y-109439285D02*
X186450000Y-109403571D01*
X186414285Y-109367857D01*
X186378571Y-109296428D01*
X186378571Y-109082142D01*
X186414285Y-109010714D01*
X186450000Y-108975000D01*
X186521428Y-108939285D01*
X186628571Y-108939285D01*
X186700000Y-108975000D01*
X186735714Y-109010714D01*
X186771428Y-109082142D01*
X186771428Y-109296428D01*
X186735714Y-109367857D01*
X186700000Y-109403571D01*
X186628571Y-109439285D01*
X186521428Y-109439285D01*
X187092857Y-109439285D02*
X187092857Y-108939285D01*
X187092857Y-109082142D02*
X187128571Y-109010714D01*
X187164285Y-108975000D01*
X187235714Y-108939285D01*
X187307142Y-108939285D01*
X141385714Y-95321250D02*
X141742857Y-95321250D01*
X141314285Y-95535535D02*
X141564285Y-94785535D01*
X141814285Y-95535535D01*
X142064285Y-95535535D02*
X142064285Y-94785535D01*
X142242857Y-94785535D01*
X142350000Y-94821250D01*
X142421428Y-94892678D01*
X142457142Y-94964107D01*
X142492857Y-95106964D01*
X142492857Y-95214107D01*
X142457142Y-95356964D01*
X142421428Y-95428392D01*
X142350000Y-95499821D01*
X142242857Y-95535535D01*
X142064285Y-95535535D01*
X143242857Y-95464107D02*
X143207142Y-95499821D01*
X143100000Y-95535535D01*
X143028571Y-95535535D01*
X142921428Y-95499821D01*
X142850000Y-95428392D01*
X142814285Y-95356964D01*
X142778571Y-95214107D01*
X142778571Y-95106964D01*
X142814285Y-94964107D01*
X142850000Y-94892678D01*
X142921428Y-94821250D01*
X143028571Y-94785535D01*
X143100000Y-94785535D01*
X143207142Y-94821250D01*
X143242857Y-94856964D01*
X140528571Y-96671607D02*
X140492857Y-96707321D01*
X140385714Y-96743035D01*
X140314285Y-96743035D01*
X140207142Y-96707321D01*
X140135714Y-96635892D01*
X140100000Y-96564464D01*
X140064285Y-96421607D01*
X140064285Y-96314464D01*
X140100000Y-96171607D01*
X140135714Y-96100178D01*
X140207142Y-96028750D01*
X140314285Y-95993035D01*
X140385714Y-95993035D01*
X140492857Y-96028750D01*
X140528571Y-96064464D01*
X141171428Y-96743035D02*
X141171428Y-96350178D01*
X141135714Y-96278750D01*
X141064285Y-96243035D01*
X140921428Y-96243035D01*
X140850000Y-96278750D01*
X141171428Y-96707321D02*
X141100000Y-96743035D01*
X140921428Y-96743035D01*
X140850000Y-96707321D01*
X140814285Y-96635892D01*
X140814285Y-96564464D01*
X140850000Y-96493035D01*
X140921428Y-96457321D01*
X141100000Y-96457321D01*
X141171428Y-96421607D01*
X141528571Y-96243035D02*
X141528571Y-96993035D01*
X141528571Y-96278750D02*
X141600000Y-96243035D01*
X141742857Y-96243035D01*
X141814285Y-96278750D01*
X141850000Y-96314464D01*
X141885714Y-96385892D01*
X141885714Y-96600178D01*
X141850000Y-96671607D01*
X141814285Y-96707321D01*
X141742857Y-96743035D01*
X141600000Y-96743035D01*
X141528571Y-96707321D01*
X142528571Y-96743035D02*
X142528571Y-96350178D01*
X142492857Y-96278750D01*
X142421428Y-96243035D01*
X142278571Y-96243035D01*
X142207142Y-96278750D01*
X142528571Y-96707321D02*
X142457142Y-96743035D01*
X142278571Y-96743035D01*
X142207142Y-96707321D01*
X142171428Y-96635892D01*
X142171428Y-96564464D01*
X142207142Y-96493035D01*
X142278571Y-96457321D01*
X142457142Y-96457321D01*
X142528571Y-96421607D01*
X143207142Y-96707321D02*
X143135714Y-96743035D01*
X142992857Y-96743035D01*
X142921428Y-96707321D01*
X142885714Y-96671607D01*
X142850000Y-96600178D01*
X142850000Y-96385892D01*
X142885714Y-96314464D01*
X142921428Y-96278750D01*
X142992857Y-96243035D01*
X143135714Y-96243035D01*
X143207142Y-96278750D01*
X143528571Y-96743035D02*
X143528571Y-96243035D01*
X143528571Y-95993035D02*
X143492857Y-96028750D01*
X143528571Y-96064464D01*
X143564285Y-96028750D01*
X143528571Y-95993035D01*
X143528571Y-96064464D01*
X143778571Y-96243035D02*
X144064285Y-96243035D01*
X143885714Y-95993035D02*
X143885714Y-96635892D01*
X143921428Y-96707321D01*
X143992857Y-96743035D01*
X144064285Y-96743035D01*
X144421428Y-96743035D02*
X144350000Y-96707321D01*
X144314285Y-96671607D01*
X144278571Y-96600178D01*
X144278571Y-96385892D01*
X144314285Y-96314464D01*
X144350000Y-96278750D01*
X144421428Y-96243035D01*
X144528571Y-96243035D01*
X144600000Y-96278750D01*
X144635714Y-96314464D01*
X144671428Y-96385892D01*
X144671428Y-96600178D01*
X144635714Y-96671607D01*
X144600000Y-96707321D01*
X144528571Y-96743035D01*
X144421428Y-96743035D01*
X144992857Y-96743035D02*
X144992857Y-96243035D01*
X144992857Y-96385892D02*
X145028571Y-96314464D01*
X145064285Y-96278750D01*
X145135714Y-96243035D01*
X145207142Y-96243035D01*
X176097857Y-95867857D02*
X176062142Y-95903571D01*
X175955000Y-95939285D01*
X175883571Y-95939285D01*
X175776428Y-95903571D01*
X175705000Y-95832142D01*
X175669285Y-95760714D01*
X175633571Y-95617857D01*
X175633571Y-95510714D01*
X175669285Y-95367857D01*
X175705000Y-95296428D01*
X175776428Y-95225000D01*
X175883571Y-95189285D01*
X175955000Y-95189285D01*
X176062142Y-95225000D01*
X176097857Y-95260714D01*
X176419285Y-95939285D02*
X176419285Y-95189285D01*
X176740714Y-95939285D02*
X176740714Y-95546428D01*
X176705000Y-95475000D01*
X176633571Y-95439285D01*
X176526428Y-95439285D01*
X176455000Y-95475000D01*
X176419285Y-95510714D01*
X177419285Y-95939285D02*
X177419285Y-95546428D01*
X177383571Y-95475000D01*
X177312142Y-95439285D01*
X177169285Y-95439285D01*
X177097857Y-95475000D01*
X177419285Y-95903571D02*
X177347857Y-95939285D01*
X177169285Y-95939285D01*
X177097857Y-95903571D01*
X177062142Y-95832142D01*
X177062142Y-95760714D01*
X177097857Y-95689285D01*
X177169285Y-95653571D01*
X177347857Y-95653571D01*
X177419285Y-95617857D01*
X177776428Y-95939285D02*
X177776428Y-95439285D01*
X177776428Y-95582142D02*
X177812142Y-95510714D01*
X177847857Y-95475000D01*
X177919285Y-95439285D01*
X177990714Y-95439285D01*
X178347857Y-95939285D02*
X178276428Y-95903571D01*
X178240714Y-95832142D01*
X178240714Y-95189285D01*
X178633571Y-95939285D02*
X178633571Y-95439285D01*
X178633571Y-95189285D02*
X178597857Y-95225000D01*
X178633571Y-95260714D01*
X178669285Y-95225000D01*
X178633571Y-95189285D01*
X178633571Y-95260714D01*
X179276428Y-95903571D02*
X179205000Y-95939285D01*
X179062142Y-95939285D01*
X178990714Y-95903571D01*
X178955000Y-95832142D01*
X178955000Y-95546428D01*
X178990714Y-95475000D01*
X179062142Y-95439285D01*
X179205000Y-95439285D01*
X179276428Y-95475000D01*
X179312142Y-95546428D01*
X179312142Y-95617857D01*
X178955000Y-95689285D01*
X179633571Y-95939285D02*
X179633571Y-95189285D01*
X179919285Y-95189285D01*
X179990714Y-95225000D01*
X180026428Y-95260714D01*
X180062142Y-95332142D01*
X180062142Y-95439285D01*
X180026428Y-95510714D01*
X179990714Y-95546428D01*
X179919285Y-95582142D01*
X179633571Y-95582142D01*
X180490714Y-95939285D02*
X180419285Y-95903571D01*
X180383571Y-95832142D01*
X180383571Y-95189285D01*
X181062142Y-95903571D02*
X180990714Y-95939285D01*
X180847857Y-95939285D01*
X180776428Y-95903571D01*
X180740714Y-95832142D01*
X180740714Y-95546428D01*
X180776428Y-95475000D01*
X180847857Y-95439285D01*
X180990714Y-95439285D01*
X181062142Y-95475000D01*
X181097857Y-95546428D01*
X181097857Y-95617857D01*
X180740714Y-95689285D01*
X181347857Y-95939285D02*
X181740714Y-95439285D01*
X181347857Y-95439285D02*
X181740714Y-95939285D01*
X182347857Y-95439285D02*
X182347857Y-95939285D01*
X182169285Y-95153571D02*
X181990714Y-95689285D01*
X182455000Y-95689285D01*
X183740714Y-95939285D02*
X183490714Y-95582142D01*
X183312142Y-95939285D02*
X183312142Y-95189285D01*
X183597857Y-95189285D01*
X183669285Y-95225000D01*
X183705000Y-95260714D01*
X183740714Y-95332142D01*
X183740714Y-95439285D01*
X183705000Y-95510714D01*
X183669285Y-95546428D01*
X183597857Y-95582142D01*
X183312142Y-95582142D01*
X184347857Y-95903571D02*
X184276428Y-95939285D01*
X184133571Y-95939285D01*
X184062142Y-95903571D01*
X184026428Y-95832142D01*
X184026428Y-95546428D01*
X184062142Y-95475000D01*
X184133571Y-95439285D01*
X184276428Y-95439285D01*
X184347857Y-95475000D01*
X184383571Y-95546428D01*
X184383571Y-95617857D01*
X184026428Y-95689285D01*
X184669285Y-95903571D02*
X184740714Y-95939285D01*
X184883571Y-95939285D01*
X184955000Y-95903571D01*
X184990714Y-95832142D01*
X184990714Y-95796428D01*
X184955000Y-95725000D01*
X184883571Y-95689285D01*
X184776428Y-95689285D01*
X184705000Y-95653571D01*
X184669285Y-95582142D01*
X184669285Y-95546428D01*
X184705000Y-95475000D01*
X184776428Y-95439285D01*
X184883571Y-95439285D01*
X184955000Y-95475000D01*
X185312142Y-95939285D02*
X185312142Y-95439285D01*
X185312142Y-95189285D02*
X185276428Y-95225000D01*
X185312142Y-95260714D01*
X185347857Y-95225000D01*
X185312142Y-95189285D01*
X185312142Y-95260714D01*
X185633571Y-95903571D02*
X185705000Y-95939285D01*
X185847857Y-95939285D01*
X185919285Y-95903571D01*
X185955000Y-95832142D01*
X185955000Y-95796428D01*
X185919285Y-95725000D01*
X185847857Y-95689285D01*
X185740714Y-95689285D01*
X185669285Y-95653571D01*
X185633571Y-95582142D01*
X185633571Y-95546428D01*
X185669285Y-95475000D01*
X185740714Y-95439285D01*
X185847857Y-95439285D01*
X185919285Y-95475000D01*
X186169285Y-95439285D02*
X186455000Y-95439285D01*
X186276428Y-95189285D02*
X186276428Y-95832142D01*
X186312142Y-95903571D01*
X186383571Y-95939285D01*
X186455000Y-95939285D01*
X186812142Y-95939285D02*
X186740714Y-95903571D01*
X186705000Y-95867857D01*
X186669285Y-95796428D01*
X186669285Y-95582142D01*
X186705000Y-95510714D01*
X186740714Y-95475000D01*
X186812142Y-95439285D01*
X186919285Y-95439285D01*
X186990714Y-95475000D01*
X187026428Y-95510714D01*
X187062142Y-95582142D01*
X187062142Y-95796428D01*
X187026428Y-95867857D01*
X186990714Y-95903571D01*
X186919285Y-95939285D01*
X186812142Y-95939285D01*
X187383571Y-95939285D02*
X187383571Y-95439285D01*
X187383571Y-95582142D02*
X187419285Y-95510714D01*
X187455000Y-95475000D01*
X187526428Y-95439285D01*
X187597857Y-95439285D01*
%TO.C,Spike_LED*%
X174539285Y-65653571D02*
X174646428Y-65689285D01*
X174825000Y-65689285D01*
X174896428Y-65653571D01*
X174932142Y-65617857D01*
X174967857Y-65546428D01*
X174967857Y-65475000D01*
X174932142Y-65403571D01*
X174896428Y-65367857D01*
X174825000Y-65332142D01*
X174682142Y-65296428D01*
X174610714Y-65260714D01*
X174575000Y-65225000D01*
X174539285Y-65153571D01*
X174539285Y-65082142D01*
X174575000Y-65010714D01*
X174610714Y-64975000D01*
X174682142Y-64939285D01*
X174860714Y-64939285D01*
X174967857Y-64975000D01*
X175289285Y-65189285D02*
X175289285Y-65939285D01*
X175289285Y-65225000D02*
X175360714Y-65189285D01*
X175503571Y-65189285D01*
X175575000Y-65225000D01*
X175610714Y-65260714D01*
X175646428Y-65332142D01*
X175646428Y-65546428D01*
X175610714Y-65617857D01*
X175575000Y-65653571D01*
X175503571Y-65689285D01*
X175360714Y-65689285D01*
X175289285Y-65653571D01*
X175967857Y-65689285D02*
X175967857Y-65189285D01*
X175967857Y-64939285D02*
X175932142Y-64975000D01*
X175967857Y-65010714D01*
X176003571Y-64975000D01*
X175967857Y-64939285D01*
X175967857Y-65010714D01*
X176325000Y-65689285D02*
X176325000Y-64939285D01*
X176396428Y-65403571D02*
X176610714Y-65689285D01*
X176610714Y-65189285D02*
X176325000Y-65475000D01*
X177217857Y-65653571D02*
X177146428Y-65689285D01*
X177003571Y-65689285D01*
X176932142Y-65653571D01*
X176896428Y-65582142D01*
X176896428Y-65296428D01*
X176932142Y-65225000D01*
X177003571Y-65189285D01*
X177146428Y-65189285D01*
X177217857Y-65225000D01*
X177253571Y-65296428D01*
X177253571Y-65367857D01*
X176896428Y-65439285D01*
X177396428Y-65760714D02*
X177967857Y-65760714D01*
X178503571Y-65689285D02*
X178146428Y-65689285D01*
X178146428Y-64939285D01*
X178753571Y-65296428D02*
X179003571Y-65296428D01*
X179110714Y-65689285D02*
X178753571Y-65689285D01*
X178753571Y-64939285D01*
X179110714Y-64939285D01*
X179432142Y-65689285D02*
X179432142Y-64939285D01*
X179610714Y-64939285D01*
X179717857Y-64975000D01*
X179789285Y-65046428D01*
X179825000Y-65117857D01*
X179860714Y-65260714D01*
X179860714Y-65367857D01*
X179825000Y-65510714D01*
X179789285Y-65582142D01*
X179717857Y-65653571D01*
X179610714Y-65689285D01*
X179432142Y-65689285D01*
D11*
%TO.C, *%
D10*
%TO.C,6*%
X191412857Y-73408285D02*
X191270000Y-73408285D01*
X191198571Y-73444000D01*
X191162857Y-73479714D01*
X191091428Y-73586857D01*
X191055714Y-73729714D01*
X191055714Y-74015428D01*
X191091428Y-74086857D01*
X191127142Y-74122571D01*
X191198571Y-74158285D01*
X191341428Y-74158285D01*
X191412857Y-74122571D01*
X191448571Y-74086857D01*
X191484285Y-74015428D01*
X191484285Y-73836857D01*
X191448571Y-73765428D01*
X191412857Y-73729714D01*
X191341428Y-73694000D01*
X191198571Y-73694000D01*
X191127142Y-73729714D01*
X191091428Y-73765428D01*
X191055714Y-73836857D01*
%TO.C,1*%
X191484285Y-111883285D02*
X191055714Y-111883285D01*
X191270000Y-111883285D02*
X191270000Y-111133285D01*
X191198571Y-111240428D01*
X191127142Y-111311857D01*
X191055714Y-111347571D01*
%TO.C,10k\u03A9*%
X180705000Y-98439285D02*
X180276428Y-98439285D01*
X180490714Y-98439285D02*
X180490714Y-97689285D01*
X180419285Y-97796428D01*
X180347857Y-97867857D01*
X180276428Y-97903571D01*
X181169285Y-97689285D02*
X181240714Y-97689285D01*
X181312142Y-97725000D01*
X181347857Y-97760714D01*
X181383571Y-97832142D01*
X181419285Y-97975000D01*
X181419285Y-98153571D01*
X181383571Y-98296428D01*
X181347857Y-98367857D01*
X181312142Y-98403571D01*
X181240714Y-98439285D01*
X181169285Y-98439285D01*
X181097857Y-98403571D01*
X181062142Y-98367857D01*
X181026428Y-98296428D01*
X180990714Y-98153571D01*
X180990714Y-97975000D01*
X181026428Y-97832142D01*
X181062142Y-97760714D01*
X181097857Y-97725000D01*
X181169285Y-97689285D01*
X181740714Y-98439285D02*
X181740714Y-97689285D01*
X181812142Y-98153571D02*
X182026428Y-98439285D01*
X182026428Y-97939285D02*
X181740714Y-98225000D01*
X182312142Y-98439285D02*
X182490714Y-98439285D01*
X182490714Y-98296428D01*
X182419285Y-98260714D01*
X182347857Y-98189285D01*
X182312142Y-98082142D01*
X182312142Y-97903571D01*
X182347857Y-97796428D01*
X182419285Y-97725000D01*
X182526428Y-97689285D01*
X182669285Y-97689285D01*
X182776428Y-97725000D01*
X182847857Y-97796428D01*
X182883571Y-97903571D01*
X182883571Y-98082142D01*
X182847857Y-98189285D01*
X182776428Y-98260714D01*
X182705000Y-98296428D01*
X182705000Y-98439285D01*
X182883571Y-98439285D01*
%TO.C,MCP3208*%
X131881428Y-87134285D02*
X131881428Y-86384285D01*
X132131428Y-86920000D01*
X132381428Y-86384285D01*
X132381428Y-87134285D01*
X133167142Y-87062857D02*
X133131428Y-87098571D01*
X133024285Y-87134285D01*
X132952857Y-87134285D01*
X132845714Y-87098571D01*
X132774285Y-87027142D01*
X132738571Y-86955714D01*
X132702857Y-86812857D01*
X132702857Y-86705714D01*
X132738571Y-86562857D01*
X132774285Y-86491428D01*
X132845714Y-86420000D01*
X132952857Y-86384285D01*
X133024285Y-86384285D01*
X133131428Y-86420000D01*
X133167142Y-86455714D01*
X133488571Y-87134285D02*
X133488571Y-86384285D01*
X133774285Y-86384285D01*
X133845714Y-86420000D01*
X133881428Y-86455714D01*
X133917142Y-86527142D01*
X133917142Y-86634285D01*
X133881428Y-86705714D01*
X133845714Y-86741428D01*
X133774285Y-86777142D01*
X133488571Y-86777142D01*
X134167142Y-86384285D02*
X134631428Y-86384285D01*
X134381428Y-86670000D01*
X134488571Y-86670000D01*
X134560000Y-86705714D01*
X134595714Y-86741428D01*
X134631428Y-86812857D01*
X134631428Y-86991428D01*
X134595714Y-87062857D01*
X134560000Y-87098571D01*
X134488571Y-87134285D01*
X134274285Y-87134285D01*
X134202857Y-87098571D01*
X134167142Y-87062857D01*
X134917142Y-86455714D02*
X134952857Y-86420000D01*
X135024285Y-86384285D01*
X135202857Y-86384285D01*
X135274285Y-86420000D01*
X135310000Y-86455714D01*
X135345714Y-86527142D01*
X135345714Y-86598571D01*
X135310000Y-86705714D01*
X134881428Y-87134285D01*
X135345714Y-87134285D01*
X135810000Y-86384285D02*
X135881428Y-86384285D01*
X135952857Y-86420000D01*
X135988571Y-86455714D01*
X136024285Y-86527142D01*
X136060000Y-86670000D01*
X136060000Y-86848571D01*
X136024285Y-86991428D01*
X135988571Y-87062857D01*
X135952857Y-87098571D01*
X135881428Y-87134285D01*
X135810000Y-87134285D01*
X135738571Y-87098571D01*
X135702857Y-87062857D01*
X135667142Y-86991428D01*
X135631428Y-86848571D01*
X135631428Y-86670000D01*
X135667142Y-86527142D01*
X135702857Y-86455714D01*
X135738571Y-86420000D01*
X135810000Y-86384285D01*
X136488571Y-86705714D02*
X136417142Y-86670000D01*
X136381428Y-86634285D01*
X136345714Y-86562857D01*
X136345714Y-86527142D01*
X136381428Y-86455714D01*
X136417142Y-86420000D01*
X136488571Y-86384285D01*
X136631428Y-86384285D01*
X136702857Y-86420000D01*
X136738571Y-86455714D01*
X136774285Y-86527142D01*
X136774285Y-86562857D01*
X136738571Y-86634285D01*
X136702857Y-86670000D01*
X136631428Y-86705714D01*
X136488571Y-86705714D01*
X136417142Y-86741428D01*
X136381428Y-86777142D01*
X136345714Y-86848571D01*
X136345714Y-86991428D01*
X136381428Y-87062857D01*
X136417142Y-87098571D01*
X136488571Y-87134285D01*
X136631428Y-87134285D01*
X136702857Y-87098571D01*
X136738571Y-87062857D01*
X136774285Y-86991428D01*
X136774285Y-86848571D01*
X136738571Y-86777142D01*
X136702857Y-86741428D01*
X136631428Y-86705714D01*
D11*
%TO.C,Stimulus*%
X210552380Y-100604761D02*
X210695238Y-100652380D01*
X210933333Y-100652380D01*
X211028571Y-100604761D01*
X211076190Y-100557142D01*
X211123809Y-100461904D01*
X211123809Y-100366666D01*
X211076190Y-100271428D01*
X211028571Y-100223809D01*
X210933333Y-100176190D01*
X210742857Y-100128571D01*
X210647619Y-100080952D01*
X210600000Y-100033333D01*
X210552380Y-99938095D01*
X210552380Y-99842857D01*
X210600000Y-99747619D01*
X210647619Y-99700000D01*
X210742857Y-99652380D01*
X210980952Y-99652380D01*
X211123809Y-99700000D01*
X211409523Y-99985714D02*
X211790476Y-99985714D01*
X211552380Y-99652380D02*
X211552380Y-100509523D01*
X211600000Y-100604761D01*
X211695238Y-100652380D01*
X211790476Y-100652380D01*
X212123809Y-100652380D02*
X212123809Y-99985714D01*
X212123809Y-99652380D02*
X212076190Y-99700000D01*
X212123809Y-99747619D01*
X212171428Y-99700000D01*
X212123809Y-99652380D01*
X212123809Y-99747619D01*
X212600000Y-100652380D02*
X212600000Y-99985714D01*
X212600000Y-100080952D02*
X212647619Y-100033333D01*
X212742857Y-99985714D01*
X212885714Y-99985714D01*
X212980952Y-100033333D01*
X213028571Y-100128571D01*
X213028571Y-100652380D01*
X213028571Y-100128571D02*
X213076190Y-100033333D01*
X213171428Y-99985714D01*
X213314285Y-99985714D01*
X213409523Y-100033333D01*
X213457142Y-100128571D01*
X213457142Y-100652380D01*
X214361904Y-99985714D02*
X214361904Y-100652380D01*
X213933333Y-99985714D02*
X213933333Y-100509523D01*
X213980952Y-100604761D01*
X214076190Y-100652380D01*
X214219047Y-100652380D01*
X214314285Y-100604761D01*
X214361904Y-100557142D01*
X214980952Y-100652380D02*
X214885714Y-100604761D01*
X214838095Y-100509523D01*
X214838095Y-99652380D01*
X215790476Y-99985714D02*
X215790476Y-100652380D01*
X215361904Y-99985714D02*
X215361904Y-100509523D01*
X215409523Y-100604761D01*
X215504761Y-100652380D01*
X215647619Y-100652380D01*
X215742857Y-100604761D01*
X215790476Y-100557142D01*
X216219047Y-100604761D02*
X216314285Y-100652380D01*
X216504761Y-100652380D01*
X216600000Y-100604761D01*
X216647619Y-100509523D01*
X216647619Y-100461904D01*
X216600000Y-100366666D01*
X216504761Y-100319047D01*
X216361904Y-100319047D01*
X216266666Y-100271428D01*
X216219047Y-100176190D01*
X216219047Y-100128571D01*
X216266666Y-100033333D01*
X216361904Y-99985714D01*
X216504761Y-99985714D01*
X216600000Y-100033333D01*
%TO.C,Noise*%
X176190476Y-115002380D02*
X176190476Y-114002380D01*
X176761904Y-115002380D01*
X176761904Y-114002380D01*
X177380952Y-115002380D02*
X177285714Y-114954761D01*
X177238095Y-114907142D01*
X177190476Y-114811904D01*
X177190476Y-114526190D01*
X177238095Y-114430952D01*
X177285714Y-114383333D01*
X177380952Y-114335714D01*
X177523809Y-114335714D01*
X177619047Y-114383333D01*
X177666666Y-114430952D01*
X177714285Y-114526190D01*
X177714285Y-114811904D01*
X177666666Y-114907142D01*
X177619047Y-114954761D01*
X177523809Y-115002380D01*
X177380952Y-115002380D01*
X178142857Y-115002380D02*
X178142857Y-114335714D01*
X178142857Y-114002380D02*
X178095238Y-114050000D01*
X178142857Y-114097619D01*
X178190476Y-114050000D01*
X178142857Y-114002380D01*
X178142857Y-114097619D01*
X178571428Y-114954761D02*
X178666666Y-115002380D01*
X178857142Y-115002380D01*
X178952380Y-114954761D01*
X179000000Y-114859523D01*
X179000000Y-114811904D01*
X178952380Y-114716666D01*
X178857142Y-114669047D01*
X178714285Y-114669047D01*
X178619047Y-114621428D01*
X178571428Y-114526190D01*
X178571428Y-114478571D01*
X178619047Y-114383333D01*
X178714285Y-114335714D01*
X178857142Y-114335714D01*
X178952380Y-114383333D01*
X179809523Y-114954761D02*
X179714285Y-115002380D01*
X179523809Y-115002380D01*
X179428571Y-114954761D01*
X179380952Y-114859523D01*
X179380952Y-114478571D01*
X179428571Y-114383333D01*
X179523809Y-114335714D01*
X179714285Y-114335714D01*
X179809523Y-114383333D01*
X179857142Y-114478571D01*
X179857142Y-114573809D01*
X179380952Y-114669047D01*
%TO.C,Photodiode Gain*%
X153647619Y-122852380D02*
X153647619Y-121852380D01*
X154028571Y-121852380D01*
X154123809Y-121900000D01*
X154171428Y-121947619D01*
X154219047Y-122042857D01*
X154219047Y-122185714D01*
X154171428Y-122280952D01*
X154123809Y-122328571D01*
X154028571Y-122376190D01*
X153647619Y-122376190D01*
X154647619Y-122852380D02*
X154647619Y-121852380D01*
X155076190Y-122852380D02*
X155076190Y-122328571D01*
X155028571Y-122233333D01*
X154933333Y-122185714D01*
X154790476Y-122185714D01*
X154695238Y-122233333D01*
X154647619Y-122280952D01*
X155695238Y-122852380D02*
X155600000Y-122804761D01*
X155552380Y-122757142D01*
X155504761Y-122661904D01*
X155504761Y-122376190D01*
X155552380Y-122280952D01*
X155600000Y-122233333D01*
X155695238Y-122185714D01*
X155838095Y-122185714D01*
X155933333Y-122233333D01*
X155980952Y-122280952D01*
X156028571Y-122376190D01*
X156028571Y-122661904D01*
X155980952Y-122757142D01*
X155933333Y-122804761D01*
X155838095Y-122852380D01*
X155695238Y-122852380D01*
X156314285Y-122185714D02*
X156695238Y-122185714D01*
X156457142Y-121852380D02*
X156457142Y-122709523D01*
X156504761Y-122804761D01*
X156600000Y-122852380D01*
X156695238Y-122852380D01*
X157171428Y-122852380D02*
X157076190Y-122804761D01*
X157028571Y-122757142D01*
X156980952Y-122661904D01*
X156980952Y-122376190D01*
X157028571Y-122280952D01*
X157076190Y-122233333D01*
X157171428Y-122185714D01*
X157314285Y-122185714D01*
X157409523Y-122233333D01*
X157457142Y-122280952D01*
X157504761Y-122376190D01*
X157504761Y-122661904D01*
X157457142Y-122757142D01*
X157409523Y-122804761D01*
X157314285Y-122852380D01*
X157171428Y-122852380D01*
X158361904Y-122852380D02*
X158361904Y-121852380D01*
X158361904Y-122804761D02*
X158266666Y-122852380D01*
X158076190Y-122852380D01*
X157980952Y-122804761D01*
X157933333Y-122757142D01*
X157885714Y-122661904D01*
X157885714Y-122376190D01*
X157933333Y-122280952D01*
X157980952Y-122233333D01*
X158076190Y-122185714D01*
X158266666Y-122185714D01*
X158361904Y-122233333D01*
X158838095Y-122852380D02*
X158838095Y-122185714D01*
X158838095Y-121852380D02*
X158790476Y-121900000D01*
X158838095Y-121947619D01*
X158885714Y-121900000D01*
X158838095Y-121852380D01*
X158838095Y-121947619D01*
X159457142Y-122852380D02*
X159361904Y-122804761D01*
X159314285Y-122757142D01*
X159266666Y-122661904D01*
X159266666Y-122376190D01*
X159314285Y-122280952D01*
X159361904Y-122233333D01*
X159457142Y-122185714D01*
X159600000Y-122185714D01*
X159695238Y-122233333D01*
X159742857Y-122280952D01*
X159790476Y-122376190D01*
X159790476Y-122661904D01*
X159742857Y-122757142D01*
X159695238Y-122804761D01*
X159600000Y-122852380D01*
X159457142Y-122852380D01*
X160647619Y-122852380D02*
X160647619Y-121852380D01*
X160647619Y-122804761D02*
X160552380Y-122852380D01*
X160361904Y-122852380D01*
X160266666Y-122804761D01*
X160219047Y-122757142D01*
X160171428Y-122661904D01*
X160171428Y-122376190D01*
X160219047Y-122280952D01*
X160266666Y-122233333D01*
X160361904Y-122185714D01*
X160552380Y-122185714D01*
X160647619Y-122233333D01*
X161504761Y-122804761D02*
X161409523Y-122852380D01*
X161219047Y-122852380D01*
X161123809Y-122804761D01*
X161076190Y-122709523D01*
X161076190Y-122328571D01*
X161123809Y-122233333D01*
X161219047Y-122185714D01*
X161409523Y-122185714D01*
X161504761Y-122233333D01*
X161552380Y-122328571D01*
X161552380Y-122423809D01*
X161076190Y-122519047D01*
X163266666Y-121900000D02*
X163171428Y-121852380D01*
X163028571Y-121852380D01*
X162885714Y-121900000D01*
X162790476Y-121995238D01*
X162742857Y-122090476D01*
X162695238Y-122280952D01*
X162695238Y-122423809D01*
X162742857Y-122614285D01*
X162790476Y-122709523D01*
X162885714Y-122804761D01*
X163028571Y-122852380D01*
X163123809Y-122852380D01*
X163266666Y-122804761D01*
X163314285Y-122757142D01*
X163314285Y-122423809D01*
X163123809Y-122423809D01*
X164171428Y-122852380D02*
X164171428Y-122328571D01*
X164123809Y-122233333D01*
X164028571Y-122185714D01*
X163838095Y-122185714D01*
X163742857Y-122233333D01*
X164171428Y-122804761D02*
X164076190Y-122852380D01*
X163838095Y-122852380D01*
X163742857Y-122804761D01*
X163695238Y-122709523D01*
X163695238Y-122614285D01*
X163742857Y-122519047D01*
X163838095Y-122471428D01*
X164076190Y-122471428D01*
X164171428Y-122423809D01*
X164647619Y-122852380D02*
X164647619Y-122185714D01*
X164647619Y-121852380D02*
X164600000Y-121900000D01*
X164647619Y-121947619D01*
X164695238Y-121900000D01*
X164647619Y-121852380D01*
X164647619Y-121947619D01*
X165123809Y-122185714D02*
X165123809Y-122852380D01*
X165123809Y-122280952D02*
X165171428Y-122233333D01*
X165266666Y-122185714D01*
X165409523Y-122185714D01*
X165504761Y-122233333D01*
X165552380Y-122328571D01*
X165552380Y-122852380D01*
%TO.C,Synapse In 1*%
X112696785Y-61504761D02*
X112839642Y-61552380D01*
X113077738Y-61552380D01*
X113172976Y-61504761D01*
X113220595Y-61457142D01*
X113268214Y-61361904D01*
X113268214Y-61266666D01*
X113220595Y-61171428D01*
X113172976Y-61123809D01*
X113077738Y-61076190D01*
X112887261Y-61028571D01*
X112792023Y-60980952D01*
X112744404Y-60933333D01*
X112696785Y-60838095D01*
X112696785Y-60742857D01*
X112744404Y-60647619D01*
X112792023Y-60600000D01*
X112887261Y-60552380D01*
X113125357Y-60552380D01*
X113268214Y-60600000D01*
X113601547Y-60885714D02*
X113839642Y-61552380D01*
X114077738Y-60885714D02*
X113839642Y-61552380D01*
X113744404Y-61790476D01*
X113696785Y-61838095D01*
X113601547Y-61885714D01*
X114458690Y-60885714D02*
X114458690Y-61552380D01*
X114458690Y-60980952D02*
X114506309Y-60933333D01*
X114601547Y-60885714D01*
X114744404Y-60885714D01*
X114839642Y-60933333D01*
X114887261Y-61028571D01*
X114887261Y-61552380D01*
X115792023Y-61552380D02*
X115792023Y-61028571D01*
X115744404Y-60933333D01*
X115649166Y-60885714D01*
X115458690Y-60885714D01*
X115363452Y-60933333D01*
X115792023Y-61504761D02*
X115696785Y-61552380D01*
X115458690Y-61552380D01*
X115363452Y-61504761D01*
X115315833Y-61409523D01*
X115315833Y-61314285D01*
X115363452Y-61219047D01*
X115458690Y-61171428D01*
X115696785Y-61171428D01*
X115792023Y-61123809D01*
X116268214Y-60885714D02*
X116268214Y-61885714D01*
X116268214Y-60933333D02*
X116363452Y-60885714D01*
X116553928Y-60885714D01*
X116649166Y-60933333D01*
X116696785Y-60980952D01*
X116744404Y-61076190D01*
X116744404Y-61361904D01*
X116696785Y-61457142D01*
X116649166Y-61504761D01*
X116553928Y-61552380D01*
X116363452Y-61552380D01*
X116268214Y-61504761D01*
X117125357Y-61504761D02*
X117220595Y-61552380D01*
X117411071Y-61552380D01*
X117506309Y-61504761D01*
X117553928Y-61409523D01*
X117553928Y-61361904D01*
X117506309Y-61266666D01*
X117411071Y-61219047D01*
X117268214Y-61219047D01*
X117172976Y-61171428D01*
X117125357Y-61076190D01*
X117125357Y-61028571D01*
X117172976Y-60933333D01*
X117268214Y-60885714D01*
X117411071Y-60885714D01*
X117506309Y-60933333D01*
X118363452Y-61504761D02*
X118268214Y-61552380D01*
X118077738Y-61552380D01*
X117982500Y-61504761D01*
X117934880Y-61409523D01*
X117934880Y-61028571D01*
X117982500Y-60933333D01*
X118077738Y-60885714D01*
X118268214Y-60885714D01*
X118363452Y-60933333D01*
X118411071Y-61028571D01*
X118411071Y-61123809D01*
X117934880Y-61219047D01*
X119601547Y-61552380D02*
X119601547Y-60552380D01*
X120077738Y-60885714D02*
X120077738Y-61552380D01*
X120077738Y-60980952D02*
X120125357Y-60933333D01*
X120220595Y-60885714D01*
X120363452Y-60885714D01*
X120458690Y-60933333D01*
X120506309Y-61028571D01*
X120506309Y-61552380D01*
X122268214Y-61552380D02*
X121696785Y-61552380D01*
X121982500Y-61552380D02*
X121982500Y-60552380D01*
X121887261Y-60695238D01*
X121792023Y-60790476D01*
X121696785Y-60838095D01*
%TO.C,Synapse Out*%
X209600000Y-57404761D02*
X209742857Y-57452380D01*
X209980952Y-57452380D01*
X210076190Y-57404761D01*
X210123809Y-57357142D01*
X210171428Y-57261904D01*
X210171428Y-57166666D01*
X210123809Y-57071428D01*
X210076190Y-57023809D01*
X209980952Y-56976190D01*
X209790476Y-56928571D01*
X209695238Y-56880952D01*
X209647619Y-56833333D01*
X209600000Y-56738095D01*
X209600000Y-56642857D01*
X209647619Y-56547619D01*
X209695238Y-56500000D01*
X209790476Y-56452380D01*
X210028571Y-56452380D01*
X210171428Y-56500000D01*
X210504761Y-56785714D02*
X210742857Y-57452380D01*
X210980952Y-56785714D02*
X210742857Y-57452380D01*
X210647619Y-57690476D01*
X210600000Y-57738095D01*
X210504761Y-57785714D01*
X211361904Y-56785714D02*
X211361904Y-57452380D01*
X211361904Y-56880952D02*
X211409523Y-56833333D01*
X211504761Y-56785714D01*
X211647619Y-56785714D01*
X211742857Y-56833333D01*
X211790476Y-56928571D01*
X211790476Y-57452380D01*
X212695238Y-57452380D02*
X212695238Y-56928571D01*
X212647619Y-56833333D01*
X212552380Y-56785714D01*
X212361904Y-56785714D01*
X212266666Y-56833333D01*
X212695238Y-57404761D02*
X212600000Y-57452380D01*
X212361904Y-57452380D01*
X212266666Y-57404761D01*
X212219047Y-57309523D01*
X212219047Y-57214285D01*
X212266666Y-57119047D01*
X212361904Y-57071428D01*
X212600000Y-57071428D01*
X212695238Y-57023809D01*
X213171428Y-56785714D02*
X213171428Y-57785714D01*
X213171428Y-56833333D02*
X213266666Y-56785714D01*
X213457142Y-56785714D01*
X213552380Y-56833333D01*
X213600000Y-56880952D01*
X213647619Y-56976190D01*
X213647619Y-57261904D01*
X213600000Y-57357142D01*
X213552380Y-57404761D01*
X213457142Y-57452380D01*
X213266666Y-57452380D01*
X213171428Y-57404761D01*
X214028571Y-57404761D02*
X214123809Y-57452380D01*
X214314285Y-57452380D01*
X214409523Y-57404761D01*
X214457142Y-57309523D01*
X214457142Y-57261904D01*
X214409523Y-57166666D01*
X214314285Y-57119047D01*
X214171428Y-57119047D01*
X214076190Y-57071428D01*
X214028571Y-56976190D01*
X214028571Y-56928571D01*
X214076190Y-56833333D01*
X214171428Y-56785714D01*
X214314285Y-56785714D01*
X214409523Y-56833333D01*
X215266666Y-57404761D02*
X215171428Y-57452380D01*
X214980952Y-57452380D01*
X214885714Y-57404761D01*
X214838095Y-57309523D01*
X214838095Y-56928571D01*
X214885714Y-56833333D01*
X214980952Y-56785714D01*
X215171428Y-56785714D01*
X215266666Y-56833333D01*
X215314285Y-56928571D01*
X215314285Y-57023809D01*
X214838095Y-57119047D01*
X216695238Y-56452380D02*
X216885714Y-56452380D01*
X216980952Y-56500000D01*
X217076190Y-56595238D01*
X217123809Y-56785714D01*
X217123809Y-57119047D01*
X217076190Y-57309523D01*
X216980952Y-57404761D01*
X216885714Y-57452380D01*
X216695238Y-57452380D01*
X216600000Y-57404761D01*
X216504761Y-57309523D01*
X216457142Y-57119047D01*
X216457142Y-56785714D01*
X216504761Y-56595238D01*
X216600000Y-56500000D01*
X216695238Y-56452380D01*
X217980952Y-56785714D02*
X217980952Y-57452380D01*
X217552380Y-56785714D02*
X217552380Y-57309523D01*
X217600000Y-57404761D01*
X217695238Y-57452380D01*
X217838095Y-57452380D01*
X217933333Y-57404761D01*
X217980952Y-57357142D01*
X218314285Y-56785714D02*
X218695238Y-56785714D01*
X218457142Y-56452380D02*
X218457142Y-57309523D01*
X218504761Y-57404761D01*
X218600000Y-57452380D01*
X218695238Y-57452380D01*
%TO.C,Synapse1 Gain*%
X113042857Y-68604761D02*
X113185714Y-68652380D01*
X113423809Y-68652380D01*
X113519047Y-68604761D01*
X113566666Y-68557142D01*
X113614285Y-68461904D01*
X113614285Y-68366666D01*
X113566666Y-68271428D01*
X113519047Y-68223809D01*
X113423809Y-68176190D01*
X113233333Y-68128571D01*
X113138095Y-68080952D01*
X113090476Y-68033333D01*
X113042857Y-67938095D01*
X113042857Y-67842857D01*
X113090476Y-67747619D01*
X113138095Y-67700000D01*
X113233333Y-67652380D01*
X113471428Y-67652380D01*
X113614285Y-67700000D01*
X113947619Y-67985714D02*
X114185714Y-68652380D01*
X114423809Y-67985714D02*
X114185714Y-68652380D01*
X114090476Y-68890476D01*
X114042857Y-68938095D01*
X113947619Y-68985714D01*
X114804761Y-67985714D02*
X114804761Y-68652380D01*
X114804761Y-68080952D02*
X114852380Y-68033333D01*
X114947619Y-67985714D01*
X115090476Y-67985714D01*
X115185714Y-68033333D01*
X115233333Y-68128571D01*
X115233333Y-68652380D01*
X116138095Y-68652380D02*
X116138095Y-68128571D01*
X116090476Y-68033333D01*
X115995238Y-67985714D01*
X115804761Y-67985714D01*
X115709523Y-68033333D01*
X116138095Y-68604761D02*
X116042857Y-68652380D01*
X115804761Y-68652380D01*
X115709523Y-68604761D01*
X115661904Y-68509523D01*
X115661904Y-68414285D01*
X115709523Y-68319047D01*
X115804761Y-68271428D01*
X116042857Y-68271428D01*
X116138095Y-68223809D01*
X116614285Y-67985714D02*
X116614285Y-68985714D01*
X116614285Y-68033333D02*
X116709523Y-67985714D01*
X116900000Y-67985714D01*
X116995238Y-68033333D01*
X117042857Y-68080952D01*
X117090476Y-68176190D01*
X117090476Y-68461904D01*
X117042857Y-68557142D01*
X116995238Y-68604761D01*
X116900000Y-68652380D01*
X116709523Y-68652380D01*
X116614285Y-68604761D01*
X117471428Y-68604761D02*
X117566666Y-68652380D01*
X117757142Y-68652380D01*
X117852380Y-68604761D01*
X117900000Y-68509523D01*
X117900000Y-68461904D01*
X117852380Y-68366666D01*
X117757142Y-68319047D01*
X117614285Y-68319047D01*
X117519047Y-68271428D01*
X117471428Y-68176190D01*
X117471428Y-68128571D01*
X117519047Y-68033333D01*
X117614285Y-67985714D01*
X117757142Y-67985714D01*
X117852380Y-68033333D01*
X118709523Y-68604761D02*
X118614285Y-68652380D01*
X118423809Y-68652380D01*
X118328571Y-68604761D01*
X118280952Y-68509523D01*
X118280952Y-68128571D01*
X118328571Y-68033333D01*
X118423809Y-67985714D01*
X118614285Y-67985714D01*
X118709523Y-68033333D01*
X118757142Y-68128571D01*
X118757142Y-68223809D01*
X118280952Y-68319047D01*
X119709523Y-68652380D02*
X119138095Y-68652380D01*
X119423809Y-68652380D02*
X119423809Y-67652380D01*
X119328571Y-67795238D01*
X119233333Y-67890476D01*
X119138095Y-67938095D01*
X121423809Y-67700000D02*
X121328571Y-67652380D01*
X121185714Y-67652380D01*
X121042857Y-67700000D01*
X120947619Y-67795238D01*
X120900000Y-67890476D01*
X120852380Y-68080952D01*
X120852380Y-68223809D01*
X120900000Y-68414285D01*
X120947619Y-68509523D01*
X121042857Y-68604761D01*
X121185714Y-68652380D01*
X121280952Y-68652380D01*
X121423809Y-68604761D01*
X121471428Y-68557142D01*
X121471428Y-68223809D01*
X121280952Y-68223809D01*
X122328571Y-68652380D02*
X122328571Y-68128571D01*
X122280952Y-68033333D01*
X122185714Y-67985714D01*
X121995238Y-67985714D01*
X121900000Y-68033333D01*
X122328571Y-68604761D02*
X122233333Y-68652380D01*
X121995238Y-68652380D01*
X121900000Y-68604761D01*
X121852380Y-68509523D01*
X121852380Y-68414285D01*
X121900000Y-68319047D01*
X121995238Y-68271428D01*
X122233333Y-68271428D01*
X122328571Y-68223809D01*
X122804761Y-68652380D02*
X122804761Y-67985714D01*
X122804761Y-67652380D02*
X122757142Y-67700000D01*
X122804761Y-67747619D01*
X122852380Y-67700000D01*
X122804761Y-67652380D01*
X122804761Y-67747619D01*
X123280952Y-67985714D02*
X123280952Y-68652380D01*
X123280952Y-68080952D02*
X123328571Y-68033333D01*
X123423809Y-67985714D01*
X123566666Y-67985714D01*
X123661904Y-68033333D01*
X123709523Y-68128571D01*
X123709523Y-68652380D01*
%TO.C,REF\u002A\u002A*%
X124566666Y-107252380D02*
X124233333Y-106776190D01*
X123995238Y-107252380D02*
X123995238Y-106252380D01*
X124376190Y-106252380D01*
X124471428Y-106300000D01*
X124519047Y-106347619D01*
X124566666Y-106442857D01*
X124566666Y-106585714D01*
X124519047Y-106680952D01*
X124471428Y-106728571D01*
X124376190Y-106776190D01*
X123995238Y-106776190D01*
X124995238Y-106728571D02*
X125328571Y-106728571D01*
X125471428Y-107252380D02*
X124995238Y-107252380D01*
X124995238Y-106252380D01*
X125471428Y-106252380D01*
X126233333Y-106728571D02*
X125900000Y-106728571D01*
X125900000Y-107252380D02*
X125900000Y-106252380D01*
X126376190Y-106252380D01*
X126900000Y-106252380D02*
X126900000Y-106490476D01*
X126661904Y-106395238D02*
X126900000Y-106490476D01*
X127138095Y-106395238D01*
X126757142Y-106680952D02*
X126900000Y-106490476D01*
X127042857Y-106680952D01*
X127661904Y-106252380D02*
X127661904Y-106490476D01*
X127423809Y-106395238D02*
X127661904Y-106490476D01*
X127900000Y-106395238D01*
X127519047Y-106680952D02*
X127661904Y-106490476D01*
X127804761Y-106680952D01*
D10*
%TO.C,3*%
X191020000Y-96043285D02*
X191484285Y-96043285D01*
X191234285Y-96329000D01*
X191341428Y-96329000D01*
X191412857Y-96364714D01*
X191448571Y-96400428D01*
X191484285Y-96471857D01*
X191484285Y-96650428D01*
X191448571Y-96721857D01*
X191412857Y-96757571D01*
X191341428Y-96793285D01*
X191127142Y-96793285D01*
X191055714Y-96757571D01*
X191020000Y-96721857D01*
D11*
%TO.C,Voltage Membrane*%
X111790476Y-114002380D02*
X112123809Y-115002380D01*
X112457142Y-114002380D01*
X112933333Y-115002380D02*
X112838095Y-114954761D01*
X112790476Y-114907142D01*
X112742857Y-114811904D01*
X112742857Y-114526190D01*
X112790476Y-114430952D01*
X112838095Y-114383333D01*
X112933333Y-114335714D01*
X113076190Y-114335714D01*
X113171428Y-114383333D01*
X113219047Y-114430952D01*
X113266666Y-114526190D01*
X113266666Y-114811904D01*
X113219047Y-114907142D01*
X113171428Y-114954761D01*
X113076190Y-115002380D01*
X112933333Y-115002380D01*
X113838095Y-115002380D02*
X113742857Y-114954761D01*
X113695238Y-114859523D01*
X113695238Y-114002380D01*
X114076190Y-114335714D02*
X114457142Y-114335714D01*
X114219047Y-114002380D02*
X114219047Y-114859523D01*
X114266666Y-114954761D01*
X114361904Y-115002380D01*
X114457142Y-115002380D01*
X115219047Y-115002380D02*
X115219047Y-114478571D01*
X115171428Y-114383333D01*
X115076190Y-114335714D01*
X114885714Y-114335714D01*
X114790476Y-114383333D01*
X115219047Y-114954761D02*
X115123809Y-115002380D01*
X114885714Y-115002380D01*
X114790476Y-114954761D01*
X114742857Y-114859523D01*
X114742857Y-114764285D01*
X114790476Y-114669047D01*
X114885714Y-114621428D01*
X115123809Y-114621428D01*
X115219047Y-114573809D01*
X116123809Y-114335714D02*
X116123809Y-115145238D01*
X116076190Y-115240476D01*
X116028571Y-115288095D01*
X115933333Y-115335714D01*
X115790476Y-115335714D01*
X115695238Y-115288095D01*
X116123809Y-114954761D02*
X116028571Y-115002380D01*
X115838095Y-115002380D01*
X115742857Y-114954761D01*
X115695238Y-114907142D01*
X115647619Y-114811904D01*
X115647619Y-114526190D01*
X115695238Y-114430952D01*
X115742857Y-114383333D01*
X115838095Y-114335714D01*
X116028571Y-114335714D01*
X116123809Y-114383333D01*
X116980952Y-114954761D02*
X116885714Y-115002380D01*
X116695238Y-115002380D01*
X116600000Y-114954761D01*
X116552380Y-114859523D01*
X116552380Y-114478571D01*
X116600000Y-114383333D01*
X116695238Y-114335714D01*
X116885714Y-114335714D01*
X116980952Y-114383333D01*
X117028571Y-114478571D01*
X117028571Y-114573809D01*
X116552380Y-114669047D01*
X118219047Y-115002380D02*
X118219047Y-114002380D01*
X118552380Y-114716666D01*
X118885714Y-114002380D01*
X118885714Y-115002380D01*
X119742857Y-114954761D02*
X119647619Y-115002380D01*
X119457142Y-115002380D01*
X119361904Y-114954761D01*
X119314285Y-114859523D01*
X119314285Y-114478571D01*
X119361904Y-114383333D01*
X119457142Y-114335714D01*
X119647619Y-114335714D01*
X119742857Y-114383333D01*
X119790476Y-114478571D01*
X119790476Y-114573809D01*
X119314285Y-114669047D01*
X120219047Y-115002380D02*
X120219047Y-114335714D01*
X120219047Y-114430952D02*
X120266666Y-114383333D01*
X120361904Y-114335714D01*
X120504761Y-114335714D01*
X120600000Y-114383333D01*
X120647619Y-114478571D01*
X120647619Y-115002380D01*
X120647619Y-114478571D02*
X120695238Y-114383333D01*
X120790476Y-114335714D01*
X120933333Y-114335714D01*
X121028571Y-114383333D01*
X121076190Y-114478571D01*
X121076190Y-115002380D01*
X121552380Y-115002380D02*
X121552380Y-114002380D01*
X121552380Y-114383333D02*
X121647619Y-114335714D01*
X121838095Y-114335714D01*
X121933333Y-114383333D01*
X121980952Y-114430952D01*
X122028571Y-114526190D01*
X122028571Y-114811904D01*
X121980952Y-114907142D01*
X121933333Y-114954761D01*
X121838095Y-115002380D01*
X121647619Y-115002380D01*
X121552380Y-114954761D01*
X122457142Y-115002380D02*
X122457142Y-114335714D01*
X122457142Y-114526190D02*
X122504761Y-114430952D01*
X122552380Y-114383333D01*
X122647619Y-114335714D01*
X122742857Y-114335714D01*
X123504761Y-115002380D02*
X123504761Y-114478571D01*
X123457142Y-114383333D01*
X123361904Y-114335714D01*
X123171428Y-114335714D01*
X123076190Y-114383333D01*
X123504761Y-114954761D02*
X123409523Y-115002380D01*
X123171428Y-115002380D01*
X123076190Y-114954761D01*
X123028571Y-114859523D01*
X123028571Y-114764285D01*
X123076190Y-114669047D01*
X123171428Y-114621428D01*
X123409523Y-114621428D01*
X123504761Y-114573809D01*
X123980952Y-114335714D02*
X123980952Y-115002380D01*
X123980952Y-114430952D02*
X124028571Y-114383333D01*
X124123809Y-114335714D01*
X124266666Y-114335714D01*
X124361904Y-114383333D01*
X124409523Y-114478571D01*
X124409523Y-115002380D01*
X125266666Y-114954761D02*
X125171428Y-115002380D01*
X124980952Y-115002380D01*
X124885714Y-114954761D01*
X124838095Y-114859523D01*
X124838095Y-114478571D01*
X124885714Y-114383333D01*
X124980952Y-114335714D01*
X125171428Y-114335714D01*
X125266666Y-114383333D01*
X125314285Y-114478571D01*
X125314285Y-114573809D01*
X124838095Y-114669047D01*
D10*
%TO.C,100\u03A9*%
X180751428Y-102939285D02*
X180322857Y-102939285D01*
X180537142Y-102939285D02*
X180537142Y-102189285D01*
X180465714Y-102296428D01*
X180394285Y-102367857D01*
X180322857Y-102403571D01*
X181215714Y-102189285D02*
X181287142Y-102189285D01*
X181358571Y-102225000D01*
X181394285Y-102260714D01*
X181430000Y-102332142D01*
X181465714Y-102475000D01*
X181465714Y-102653571D01*
X181430000Y-102796428D01*
X181394285Y-102867857D01*
X181358571Y-102903571D01*
X181287142Y-102939285D01*
X181215714Y-102939285D01*
X181144285Y-102903571D01*
X181108571Y-102867857D01*
X181072857Y-102796428D01*
X181037142Y-102653571D01*
X181037142Y-102475000D01*
X181072857Y-102332142D01*
X181108571Y-102260714D01*
X181144285Y-102225000D01*
X181215714Y-102189285D01*
X181930000Y-102189285D02*
X182001428Y-102189285D01*
X182072857Y-102225000D01*
X182108571Y-102260714D01*
X182144285Y-102332142D01*
X182180000Y-102475000D01*
X182180000Y-102653571D01*
X182144285Y-102796428D01*
X182108571Y-102867857D01*
X182072857Y-102903571D01*
X182001428Y-102939285D01*
X181930000Y-102939285D01*
X181858571Y-102903571D01*
X181822857Y-102867857D01*
X181787142Y-102796428D01*
X181751428Y-102653571D01*
X181751428Y-102475000D01*
X181787142Y-102332142D01*
X181822857Y-102260714D01*
X181858571Y-102225000D01*
X181930000Y-102189285D01*
X182465714Y-102939285D02*
X182644285Y-102939285D01*
X182644285Y-102796428D01*
X182572857Y-102760714D01*
X182501428Y-102689285D01*
X182465714Y-102582142D01*
X182465714Y-102403571D01*
X182501428Y-102296428D01*
X182572857Y-102225000D01*
X182680000Y-102189285D01*
X182822857Y-102189285D01*
X182930000Y-102225000D01*
X183001428Y-102296428D01*
X183037142Y-102403571D01*
X183037142Y-102582142D01*
X183001428Y-102689285D01*
X182930000Y-102760714D01*
X182858571Y-102796428D01*
X182858571Y-102939285D01*
X183037142Y-102939285D01*
D11*
%TO.C, *%
D10*
%TO.C,MCP3208*%
X131881428Y-63009285D02*
X131881428Y-62259285D01*
X132131428Y-62795000D01*
X132381428Y-62259285D01*
X132381428Y-63009285D01*
X133167142Y-62937857D02*
X133131428Y-62973571D01*
X133024285Y-63009285D01*
X132952857Y-63009285D01*
X132845714Y-62973571D01*
X132774285Y-62902142D01*
X132738571Y-62830714D01*
X132702857Y-62687857D01*
X132702857Y-62580714D01*
X132738571Y-62437857D01*
X132774285Y-62366428D01*
X132845714Y-62295000D01*
X132952857Y-62259285D01*
X133024285Y-62259285D01*
X133131428Y-62295000D01*
X133167142Y-62330714D01*
X133488571Y-63009285D02*
X133488571Y-62259285D01*
X133774285Y-62259285D01*
X133845714Y-62295000D01*
X133881428Y-62330714D01*
X133917142Y-62402142D01*
X133917142Y-62509285D01*
X133881428Y-62580714D01*
X133845714Y-62616428D01*
X133774285Y-62652142D01*
X133488571Y-62652142D01*
X134167142Y-62259285D02*
X134631428Y-62259285D01*
X134381428Y-62545000D01*
X134488571Y-62545000D01*
X134560000Y-62580714D01*
X134595714Y-62616428D01*
X134631428Y-62687857D01*
X134631428Y-62866428D01*
X134595714Y-62937857D01*
X134560000Y-62973571D01*
X134488571Y-63009285D01*
X134274285Y-63009285D01*
X134202857Y-62973571D01*
X134167142Y-62937857D01*
X134917142Y-62330714D02*
X134952857Y-62295000D01*
X135024285Y-62259285D01*
X135202857Y-62259285D01*
X135274285Y-62295000D01*
X135310000Y-62330714D01*
X135345714Y-62402142D01*
X135345714Y-62473571D01*
X135310000Y-62580714D01*
X134881428Y-63009285D01*
X135345714Y-63009285D01*
X135810000Y-62259285D02*
X135881428Y-62259285D01*
X135952857Y-62295000D01*
X135988571Y-62330714D01*
X136024285Y-62402142D01*
X136060000Y-62545000D01*
X136060000Y-62723571D01*
X136024285Y-62866428D01*
X135988571Y-62937857D01*
X135952857Y-62973571D01*
X135881428Y-63009285D01*
X135810000Y-63009285D01*
X135738571Y-62973571D01*
X135702857Y-62937857D01*
X135667142Y-62866428D01*
X135631428Y-62723571D01*
X135631428Y-62545000D01*
X135667142Y-62402142D01*
X135702857Y-62330714D01*
X135738571Y-62295000D01*
X135810000Y-62259285D01*
X136488571Y-62580714D02*
X136417142Y-62545000D01*
X136381428Y-62509285D01*
X136345714Y-62437857D01*
X136345714Y-62402142D01*
X136381428Y-62330714D01*
X136417142Y-62295000D01*
X136488571Y-62259285D01*
X136631428Y-62259285D01*
X136702857Y-62295000D01*
X136738571Y-62330714D01*
X136774285Y-62402142D01*
X136774285Y-62437857D01*
X136738571Y-62509285D01*
X136702857Y-62545000D01*
X136631428Y-62580714D01*
X136488571Y-62580714D01*
X136417142Y-62616428D01*
X136381428Y-62652142D01*
X136345714Y-62723571D01*
X136345714Y-62866428D01*
X136381428Y-62937857D01*
X136417142Y-62973571D01*
X136488571Y-63009285D01*
X136631428Y-63009285D01*
X136702857Y-62973571D01*
X136738571Y-62937857D01*
X136774285Y-62866428D01*
X136774285Y-62723571D01*
X136738571Y-62652142D01*
X136702857Y-62616428D01*
X136631428Y-62580714D01*
%TO.C,1\u03BCF*%
X143700000Y-89139285D02*
X143271428Y-89139285D01*
X143485714Y-89139285D02*
X143485714Y-88389285D01*
X143414285Y-88496428D01*
X143342857Y-88567857D01*
X143271428Y-88603571D01*
X144021428Y-88639285D02*
X144021428Y-89389285D01*
X144378571Y-89032142D02*
X144414285Y-89103571D01*
X144485714Y-89139285D01*
X144021428Y-89032142D02*
X144057142Y-89103571D01*
X144128571Y-89139285D01*
X144271428Y-89139285D01*
X144342857Y-89103571D01*
X144378571Y-89032142D01*
X144378571Y-88639285D01*
X145057142Y-88746428D02*
X144807142Y-88746428D01*
X144807142Y-89139285D02*
X144807142Y-88389285D01*
X145164285Y-88389285D01*
D11*
%TO.C,Stimulus Out*%
X209459523Y-117704761D02*
X209602380Y-117752380D01*
X209840476Y-117752380D01*
X209935714Y-117704761D01*
X209983333Y-117657142D01*
X210030952Y-117561904D01*
X210030952Y-117466666D01*
X209983333Y-117371428D01*
X209935714Y-117323809D01*
X209840476Y-117276190D01*
X209650000Y-117228571D01*
X209554761Y-117180952D01*
X209507142Y-117133333D01*
X209459523Y-117038095D01*
X209459523Y-116942857D01*
X209507142Y-116847619D01*
X209554761Y-116800000D01*
X209650000Y-116752380D01*
X209888095Y-116752380D01*
X210030952Y-116800000D01*
X210316666Y-117085714D02*
X210697619Y-117085714D01*
X210459523Y-116752380D02*
X210459523Y-117609523D01*
X210507142Y-117704761D01*
X210602380Y-117752380D01*
X210697619Y-117752380D01*
X211030952Y-117752380D02*
X211030952Y-117085714D01*
X211030952Y-116752380D02*
X210983333Y-116800000D01*
X211030952Y-116847619D01*
X211078571Y-116800000D01*
X211030952Y-116752380D01*
X211030952Y-116847619D01*
X211507142Y-117752380D02*
X211507142Y-117085714D01*
X211507142Y-117180952D02*
X211554761Y-117133333D01*
X211650000Y-117085714D01*
X211792857Y-117085714D01*
X211888095Y-117133333D01*
X211935714Y-117228571D01*
X211935714Y-117752380D01*
X211935714Y-117228571D02*
X211983333Y-117133333D01*
X212078571Y-117085714D01*
X212221428Y-117085714D01*
X212316666Y-117133333D01*
X212364285Y-117228571D01*
X212364285Y-117752380D01*
X213269047Y-117085714D02*
X213269047Y-117752380D01*
X212840476Y-117085714D02*
X212840476Y-117609523D01*
X212888095Y-117704761D01*
X212983333Y-117752380D01*
X213126190Y-117752380D01*
X213221428Y-117704761D01*
X213269047Y-117657142D01*
X213888095Y-117752380D02*
X213792857Y-117704761D01*
X213745238Y-117609523D01*
X213745238Y-116752380D01*
X214697619Y-117085714D02*
X214697619Y-117752380D01*
X214269047Y-117085714D02*
X214269047Y-117609523D01*
X214316666Y-117704761D01*
X214411904Y-117752380D01*
X214554761Y-117752380D01*
X214650000Y-117704761D01*
X214697619Y-117657142D01*
X215126190Y-117704761D02*
X215221428Y-117752380D01*
X215411904Y-117752380D01*
X215507142Y-117704761D01*
X215554761Y-117609523D01*
X215554761Y-117561904D01*
X215507142Y-117466666D01*
X215411904Y-117419047D01*
X215269047Y-117419047D01*
X215173809Y-117371428D01*
X215126190Y-117276190D01*
X215126190Y-117228571D01*
X215173809Y-117133333D01*
X215269047Y-117085714D01*
X215411904Y-117085714D01*
X215507142Y-117133333D01*
X216935714Y-116752380D02*
X217126190Y-116752380D01*
X217221428Y-116800000D01*
X217316666Y-116895238D01*
X217364285Y-117085714D01*
X217364285Y-117419047D01*
X217316666Y-117609523D01*
X217221428Y-117704761D01*
X217126190Y-117752380D01*
X216935714Y-117752380D01*
X216840476Y-117704761D01*
X216745238Y-117609523D01*
X216697619Y-117419047D01*
X216697619Y-117085714D01*
X216745238Y-116895238D01*
X216840476Y-116800000D01*
X216935714Y-116752380D01*
X218221428Y-117085714D02*
X218221428Y-117752380D01*
X217792857Y-117085714D02*
X217792857Y-117609523D01*
X217840476Y-117704761D01*
X217935714Y-117752380D01*
X218078571Y-117752380D01*
X218173809Y-117704761D01*
X218221428Y-117657142D01*
X218554761Y-117085714D02*
X218935714Y-117085714D01*
X218697619Y-116752380D02*
X218697619Y-117609523D01*
X218745238Y-117704761D01*
X218840476Y-117752380D01*
X218935714Y-117752380D01*
D10*
%TO.C,Reset Button*%
X131214285Y-51139285D02*
X130964285Y-50782142D01*
X130785714Y-51139285D02*
X130785714Y-50389285D01*
X131071428Y-50389285D01*
X131142857Y-50425000D01*
X131178571Y-50460714D01*
X131214285Y-50532142D01*
X131214285Y-50639285D01*
X131178571Y-50710714D01*
X131142857Y-50746428D01*
X131071428Y-50782142D01*
X130785714Y-50782142D01*
X131821428Y-51103571D02*
X131750000Y-51139285D01*
X131607142Y-51139285D01*
X131535714Y-51103571D01*
X131500000Y-51032142D01*
X131500000Y-50746428D01*
X131535714Y-50675000D01*
X131607142Y-50639285D01*
X131750000Y-50639285D01*
X131821428Y-50675000D01*
X131857142Y-50746428D01*
X131857142Y-50817857D01*
X131500000Y-50889285D01*
X132142857Y-51103571D02*
X132214285Y-51139285D01*
X132357142Y-51139285D01*
X132428571Y-51103571D01*
X132464285Y-51032142D01*
X132464285Y-50996428D01*
X132428571Y-50925000D01*
X132357142Y-50889285D01*
X132250000Y-50889285D01*
X132178571Y-50853571D01*
X132142857Y-50782142D01*
X132142857Y-50746428D01*
X132178571Y-50675000D01*
X132250000Y-50639285D01*
X132357142Y-50639285D01*
X132428571Y-50675000D01*
X133071428Y-51103571D02*
X133000000Y-51139285D01*
X132857142Y-51139285D01*
X132785714Y-51103571D01*
X132750000Y-51032142D01*
X132750000Y-50746428D01*
X132785714Y-50675000D01*
X132857142Y-50639285D01*
X133000000Y-50639285D01*
X133071428Y-50675000D01*
X133107142Y-50746428D01*
X133107142Y-50817857D01*
X132750000Y-50889285D01*
X133321428Y-50639285D02*
X133607142Y-50639285D01*
X133428571Y-50389285D02*
X133428571Y-51032142D01*
X133464285Y-51103571D01*
X133535714Y-51139285D01*
X133607142Y-51139285D01*
X134678571Y-50746428D02*
X134785714Y-50782142D01*
X134821428Y-50817857D01*
X134857142Y-50889285D01*
X134857142Y-50996428D01*
X134821428Y-51067857D01*
X134785714Y-51103571D01*
X134714285Y-51139285D01*
X134428571Y-51139285D01*
X134428571Y-50389285D01*
X134678571Y-50389285D01*
X134750000Y-50425000D01*
X134785714Y-50460714D01*
X134821428Y-50532142D01*
X134821428Y-50603571D01*
X134785714Y-50675000D01*
X134750000Y-50710714D01*
X134678571Y-50746428D01*
X134428571Y-50746428D01*
X135500000Y-50639285D02*
X135500000Y-51139285D01*
X135178571Y-50639285D02*
X135178571Y-51032142D01*
X135214285Y-51103571D01*
X135285714Y-51139285D01*
X135392857Y-51139285D01*
X135464285Y-51103571D01*
X135500000Y-51067857D01*
X135750000Y-50639285D02*
X136035714Y-50639285D01*
X135857142Y-50389285D02*
X135857142Y-51032142D01*
X135892857Y-51103571D01*
X135964285Y-51139285D01*
X136035714Y-51139285D01*
X136178571Y-50639285D02*
X136464285Y-50639285D01*
X136285714Y-50389285D02*
X136285714Y-51032142D01*
X136321428Y-51103571D01*
X136392857Y-51139285D01*
X136464285Y-51139285D01*
X136821428Y-51139285D02*
X136750000Y-51103571D01*
X136714285Y-51067857D01*
X136678571Y-50996428D01*
X136678571Y-50782142D01*
X136714285Y-50710714D01*
X136750000Y-50675000D01*
X136821428Y-50639285D01*
X136928571Y-50639285D01*
X137000000Y-50675000D01*
X137035714Y-50710714D01*
X137071428Y-50782142D01*
X137071428Y-50996428D01*
X137035714Y-51067857D01*
X137000000Y-51103571D01*
X136928571Y-51139285D01*
X136821428Y-51139285D01*
X137392857Y-50639285D02*
X137392857Y-51139285D01*
X137392857Y-50710714D02*
X137428571Y-50675000D01*
X137500000Y-50639285D01*
X137607142Y-50639285D01*
X137678571Y-50675000D01*
X137714285Y-50746428D01*
X137714285Y-51139285D01*
%TO.C,10*%
X197127142Y-89248285D02*
X196698571Y-89248285D01*
X196912857Y-89248285D02*
X196912857Y-88498285D01*
X196841428Y-88605428D01*
X196770000Y-88676857D01*
X196698571Y-88712571D01*
X197591428Y-88498285D02*
X197662857Y-88498285D01*
X197734285Y-88534000D01*
X197770000Y-88569714D01*
X197805714Y-88641142D01*
X197841428Y-88784000D01*
X197841428Y-88962571D01*
X197805714Y-89105428D01*
X197770000Y-89176857D01*
X197734285Y-89212571D01*
X197662857Y-89248285D01*
X197591428Y-89248285D01*
X197520000Y-89212571D01*
X197484285Y-89176857D01*
X197448571Y-89105428D01*
X197412857Y-88962571D01*
X197412857Y-88784000D01*
X197448571Y-88641142D01*
X197484285Y-88569714D01*
X197520000Y-88534000D01*
X197591428Y-88498285D01*
%TO.C,8*%
X197198571Y-103909714D02*
X197127142Y-103874000D01*
X197091428Y-103838285D01*
X197055714Y-103766857D01*
X197055714Y-103731142D01*
X197091428Y-103659714D01*
X197127142Y-103624000D01*
X197198571Y-103588285D01*
X197341428Y-103588285D01*
X197412857Y-103624000D01*
X197448571Y-103659714D01*
X197484285Y-103731142D01*
X197484285Y-103766857D01*
X197448571Y-103838285D01*
X197412857Y-103874000D01*
X197341428Y-103909714D01*
X197198571Y-103909714D01*
X197127142Y-103945428D01*
X197091428Y-103981142D01*
X197055714Y-104052571D01*
X197055714Y-104195428D01*
X197091428Y-104266857D01*
X197127142Y-104302571D01*
X197198571Y-104338285D01*
X197341428Y-104338285D01*
X197412857Y-104302571D01*
X197448571Y-104266857D01*
X197484285Y-104195428D01*
X197484285Y-104052571D01*
X197448571Y-103981142D01*
X197412857Y-103945428D01*
X197341428Y-103909714D01*
%TO.C,1\u03BCF*%
X143500000Y-64939285D02*
X143071428Y-64939285D01*
X143285714Y-64939285D02*
X143285714Y-64189285D01*
X143214285Y-64296428D01*
X143142857Y-64367857D01*
X143071428Y-64403571D01*
X143821428Y-64439285D02*
X143821428Y-65189285D01*
X144178571Y-64832142D02*
X144214285Y-64903571D01*
X144285714Y-64939285D01*
X143821428Y-64832142D02*
X143857142Y-64903571D01*
X143928571Y-64939285D01*
X144071428Y-64939285D01*
X144142857Y-64903571D01*
X144178571Y-64832142D01*
X144178571Y-64439285D01*
X144857142Y-64546428D02*
X144607142Y-64546428D01*
X144607142Y-64939285D02*
X144607142Y-64189285D01*
X144964285Y-64189285D01*
%TO.C,100\u03A9*%
X180651428Y-93939285D02*
X180222857Y-93939285D01*
X180437142Y-93939285D02*
X180437142Y-93189285D01*
X180365714Y-93296428D01*
X180294285Y-93367857D01*
X180222857Y-93403571D01*
X181115714Y-93189285D02*
X181187142Y-93189285D01*
X181258571Y-93225000D01*
X181294285Y-93260714D01*
X181330000Y-93332142D01*
X181365714Y-93475000D01*
X181365714Y-93653571D01*
X181330000Y-93796428D01*
X181294285Y-93867857D01*
X181258571Y-93903571D01*
X181187142Y-93939285D01*
X181115714Y-93939285D01*
X181044285Y-93903571D01*
X181008571Y-93867857D01*
X180972857Y-93796428D01*
X180937142Y-93653571D01*
X180937142Y-93475000D01*
X180972857Y-93332142D01*
X181008571Y-93260714D01*
X181044285Y-93225000D01*
X181115714Y-93189285D01*
X181830000Y-93189285D02*
X181901428Y-93189285D01*
X181972857Y-93225000D01*
X182008571Y-93260714D01*
X182044285Y-93332142D01*
X182080000Y-93475000D01*
X182080000Y-93653571D01*
X182044285Y-93796428D01*
X182008571Y-93867857D01*
X181972857Y-93903571D01*
X181901428Y-93939285D01*
X181830000Y-93939285D01*
X181758571Y-93903571D01*
X181722857Y-93867857D01*
X181687142Y-93796428D01*
X181651428Y-93653571D01*
X181651428Y-93475000D01*
X181687142Y-93332142D01*
X181722857Y-93260714D01*
X181758571Y-93225000D01*
X181830000Y-93189285D01*
X182365714Y-93939285D02*
X182544285Y-93939285D01*
X182544285Y-93796428D01*
X182472857Y-93760714D01*
X182401428Y-93689285D01*
X182365714Y-93582142D01*
X182365714Y-93403571D01*
X182401428Y-93296428D01*
X182472857Y-93225000D01*
X182580000Y-93189285D01*
X182722857Y-93189285D01*
X182830000Y-93225000D01*
X182901428Y-93296428D01*
X182937142Y-93403571D01*
X182937142Y-93582142D01*
X182901428Y-93689285D01*
X182830000Y-93760714D01*
X182758571Y-93796428D01*
X182758571Y-93939285D01*
X182937142Y-93939285D01*
%TO.C,12*%
X197127142Y-74158285D02*
X196698571Y-74158285D01*
X196912857Y-74158285D02*
X196912857Y-73408285D01*
X196841428Y-73515428D01*
X196770000Y-73586857D01*
X196698571Y-73622571D01*
X197412857Y-73479714D02*
X197448571Y-73444000D01*
X197520000Y-73408285D01*
X197698571Y-73408285D01*
X197770000Y-73444000D01*
X197805714Y-73479714D01*
X197841428Y-73551142D01*
X197841428Y-73622571D01*
X197805714Y-73729714D01*
X197377142Y-74158285D01*
X197841428Y-74158285D01*
%TO.C,11*%
X197127142Y-81703285D02*
X196698571Y-81703285D01*
X196912857Y-81703285D02*
X196912857Y-80953285D01*
X196841428Y-81060428D01*
X196770000Y-81131857D01*
X196698571Y-81167571D01*
X197841428Y-81703285D02*
X197412857Y-81703285D01*
X197627142Y-81703285D02*
X197627142Y-80953285D01*
X197555714Y-81060428D01*
X197484285Y-81131857D01*
X197412857Y-81167571D01*
%TO.C,9*%
X197127142Y-96793285D02*
X197270000Y-96793285D01*
X197341428Y-96757571D01*
X197377142Y-96721857D01*
X197448571Y-96614714D01*
X197484285Y-96471857D01*
X197484285Y-96186142D01*
X197448571Y-96114714D01*
X197412857Y-96079000D01*
X197341428Y-96043285D01*
X197198571Y-96043285D01*
X197127142Y-96079000D01*
X197091428Y-96114714D01*
X197055714Y-96186142D01*
X197055714Y-96364714D01*
X197091428Y-96436142D01*
X197127142Y-96471857D01*
X197198571Y-96507571D01*
X197341428Y-96507571D01*
X197412857Y-96471857D01*
X197448571Y-96436142D01*
X197484285Y-96364714D01*
%TO.C,10\u03A9*%
X199478571Y-67639285D02*
X199050000Y-67639285D01*
X199264285Y-67639285D02*
X199264285Y-66889285D01*
X199192857Y-66996428D01*
X199121428Y-67067857D01*
X199050000Y-67103571D01*
X199942857Y-66889285D02*
X200014285Y-66889285D01*
X200085714Y-66925000D01*
X200121428Y-66960714D01*
X200157142Y-67032142D01*
X200192857Y-67175000D01*
X200192857Y-67353571D01*
X200157142Y-67496428D01*
X200121428Y-67567857D01*
X200085714Y-67603571D01*
X200014285Y-67639285D01*
X199942857Y-67639285D01*
X199871428Y-67603571D01*
X199835714Y-67567857D01*
X199800000Y-67496428D01*
X199764285Y-67353571D01*
X199764285Y-67175000D01*
X199800000Y-67032142D01*
X199835714Y-66960714D01*
X199871428Y-66925000D01*
X199942857Y-66889285D01*
X200478571Y-67639285D02*
X200657142Y-67639285D01*
X200657142Y-67496428D01*
X200585714Y-67460714D01*
X200514285Y-67389285D01*
X200478571Y-67282142D01*
X200478571Y-67103571D01*
X200514285Y-66996428D01*
X200585714Y-66925000D01*
X200692857Y-66889285D01*
X200835714Y-66889285D01*
X200942857Y-66925000D01*
X201014285Y-66996428D01*
X201050000Y-67103571D01*
X201050000Y-67282142D01*
X201014285Y-67389285D01*
X200942857Y-67460714D01*
X200871428Y-67496428D01*
X200871428Y-67639285D01*
X201050000Y-67639285D01*
%TO.C,Photodiode*%
X144298571Y-117389285D02*
X144298571Y-116639285D01*
X144584285Y-116639285D01*
X144655714Y-116675000D01*
X144691428Y-116710714D01*
X144727142Y-116782142D01*
X144727142Y-116889285D01*
X144691428Y-116960714D01*
X144655714Y-116996428D01*
X144584285Y-117032142D01*
X144298571Y-117032142D01*
X145048571Y-117389285D02*
X145048571Y-116639285D01*
X145370000Y-117389285D02*
X145370000Y-116996428D01*
X145334285Y-116925000D01*
X145262857Y-116889285D01*
X145155714Y-116889285D01*
X145084285Y-116925000D01*
X145048571Y-116960714D01*
X145834285Y-117389285D02*
X145762857Y-117353571D01*
X145727142Y-117317857D01*
X145691428Y-117246428D01*
X145691428Y-117032142D01*
X145727142Y-116960714D01*
X145762857Y-116925000D01*
X145834285Y-116889285D01*
X145941428Y-116889285D01*
X146012857Y-116925000D01*
X146048571Y-116960714D01*
X146084285Y-117032142D01*
X146084285Y-117246428D01*
X146048571Y-117317857D01*
X146012857Y-117353571D01*
X145941428Y-117389285D01*
X145834285Y-117389285D01*
X146298571Y-116889285D02*
X146584285Y-116889285D01*
X146405714Y-116639285D02*
X146405714Y-117282142D01*
X146441428Y-117353571D01*
X146512857Y-117389285D01*
X146584285Y-117389285D01*
X146941428Y-117389285D02*
X146870000Y-117353571D01*
X146834285Y-117317857D01*
X146798571Y-117246428D01*
X146798571Y-117032142D01*
X146834285Y-116960714D01*
X146870000Y-116925000D01*
X146941428Y-116889285D01*
X147048571Y-116889285D01*
X147120000Y-116925000D01*
X147155714Y-116960714D01*
X147191428Y-117032142D01*
X147191428Y-117246428D01*
X147155714Y-117317857D01*
X147120000Y-117353571D01*
X147048571Y-117389285D01*
X146941428Y-117389285D01*
X147834285Y-117389285D02*
X147834285Y-116639285D01*
X147834285Y-117353571D02*
X147762857Y-117389285D01*
X147620000Y-117389285D01*
X147548571Y-117353571D01*
X147512857Y-117317857D01*
X147477142Y-117246428D01*
X147477142Y-117032142D01*
X147512857Y-116960714D01*
X147548571Y-116925000D01*
X147620000Y-116889285D01*
X147762857Y-116889285D01*
X147834285Y-116925000D01*
X148191428Y-117389285D02*
X148191428Y-116889285D01*
X148191428Y-116639285D02*
X148155714Y-116675000D01*
X148191428Y-116710714D01*
X148227142Y-116675000D01*
X148191428Y-116639285D01*
X148191428Y-116710714D01*
X148655714Y-117389285D02*
X148584285Y-117353571D01*
X148548571Y-117317857D01*
X148512857Y-117246428D01*
X148512857Y-117032142D01*
X148548571Y-116960714D01*
X148584285Y-116925000D01*
X148655714Y-116889285D01*
X148762857Y-116889285D01*
X148834285Y-116925000D01*
X148870000Y-116960714D01*
X148905714Y-117032142D01*
X148905714Y-117246428D01*
X148870000Y-117317857D01*
X148834285Y-117353571D01*
X148762857Y-117389285D01*
X148655714Y-117389285D01*
X149548571Y-117389285D02*
X149548571Y-116639285D01*
X149548571Y-117353571D02*
X149477142Y-117389285D01*
X149334285Y-117389285D01*
X149262857Y-117353571D01*
X149227142Y-117317857D01*
X149191428Y-117246428D01*
X149191428Y-117032142D01*
X149227142Y-116960714D01*
X149262857Y-116925000D01*
X149334285Y-116889285D01*
X149477142Y-116889285D01*
X149548571Y-116925000D01*
X150191428Y-117353571D02*
X150120000Y-117389285D01*
X149977142Y-117389285D01*
X149905714Y-117353571D01*
X149870000Y-117282142D01*
X149870000Y-116996428D01*
X149905714Y-116925000D01*
X149977142Y-116889285D01*
X150120000Y-116889285D01*
X150191428Y-116925000D01*
X150227142Y-116996428D01*
X150227142Y-117067857D01*
X149870000Y-117139285D01*
D11*
%TO.C,Stimulus*%
X210352380Y-78304761D02*
X210495238Y-78352380D01*
X210733333Y-78352380D01*
X210828571Y-78304761D01*
X210876190Y-78257142D01*
X210923809Y-78161904D01*
X210923809Y-78066666D01*
X210876190Y-77971428D01*
X210828571Y-77923809D01*
X210733333Y-77876190D01*
X210542857Y-77828571D01*
X210447619Y-77780952D01*
X210400000Y-77733333D01*
X210352380Y-77638095D01*
X210352380Y-77542857D01*
X210400000Y-77447619D01*
X210447619Y-77400000D01*
X210542857Y-77352380D01*
X210780952Y-77352380D01*
X210923809Y-77400000D01*
X211209523Y-77685714D02*
X211590476Y-77685714D01*
X211352380Y-77352380D02*
X211352380Y-78209523D01*
X211400000Y-78304761D01*
X211495238Y-78352380D01*
X211590476Y-78352380D01*
X211923809Y-78352380D02*
X211923809Y-77685714D01*
X211923809Y-77352380D02*
X211876190Y-77400000D01*
X211923809Y-77447619D01*
X211971428Y-77400000D01*
X211923809Y-77352380D01*
X211923809Y-77447619D01*
X212400000Y-78352380D02*
X212400000Y-77685714D01*
X212400000Y-77780952D02*
X212447619Y-77733333D01*
X212542857Y-77685714D01*
X212685714Y-77685714D01*
X212780952Y-77733333D01*
X212828571Y-77828571D01*
X212828571Y-78352380D01*
X212828571Y-77828571D02*
X212876190Y-77733333D01*
X212971428Y-77685714D01*
X213114285Y-77685714D01*
X213209523Y-77733333D01*
X213257142Y-77828571D01*
X213257142Y-78352380D01*
X214161904Y-77685714D02*
X214161904Y-78352380D01*
X213733333Y-77685714D02*
X213733333Y-78209523D01*
X213780952Y-78304761D01*
X213876190Y-78352380D01*
X214019047Y-78352380D01*
X214114285Y-78304761D01*
X214161904Y-78257142D01*
X214780952Y-78352380D02*
X214685714Y-78304761D01*
X214638095Y-78209523D01*
X214638095Y-77352380D01*
X215590476Y-77685714D02*
X215590476Y-78352380D01*
X215161904Y-77685714D02*
X215161904Y-78209523D01*
X215209523Y-78304761D01*
X215304761Y-78352380D01*
X215447619Y-78352380D01*
X215542857Y-78304761D01*
X215590476Y-78257142D01*
X216019047Y-78304761D02*
X216114285Y-78352380D01*
X216304761Y-78352380D01*
X216400000Y-78304761D01*
X216447619Y-78209523D01*
X216447619Y-78161904D01*
X216400000Y-78066666D01*
X216304761Y-78019047D01*
X216161904Y-78019047D01*
X216066666Y-77971428D01*
X216019047Y-77876190D01*
X216019047Y-77828571D01*
X216066666Y-77733333D01*
X216161904Y-77685714D01*
X216304761Y-77685714D01*
X216400000Y-77733333D01*
%TO.C,Synapse2 Gain*%
X112992857Y-94954761D02*
X113135714Y-95002380D01*
X113373809Y-95002380D01*
X113469047Y-94954761D01*
X113516666Y-94907142D01*
X113564285Y-94811904D01*
X113564285Y-94716666D01*
X113516666Y-94621428D01*
X113469047Y-94573809D01*
X113373809Y-94526190D01*
X113183333Y-94478571D01*
X113088095Y-94430952D01*
X113040476Y-94383333D01*
X112992857Y-94288095D01*
X112992857Y-94192857D01*
X113040476Y-94097619D01*
X113088095Y-94050000D01*
X113183333Y-94002380D01*
X113421428Y-94002380D01*
X113564285Y-94050000D01*
X113897619Y-94335714D02*
X114135714Y-95002380D01*
X114373809Y-94335714D02*
X114135714Y-95002380D01*
X114040476Y-95240476D01*
X113992857Y-95288095D01*
X113897619Y-95335714D01*
X114754761Y-94335714D02*
X114754761Y-95002380D01*
X114754761Y-94430952D02*
X114802380Y-94383333D01*
X114897619Y-94335714D01*
X115040476Y-94335714D01*
X115135714Y-94383333D01*
X115183333Y-94478571D01*
X115183333Y-95002380D01*
X116088095Y-95002380D02*
X116088095Y-94478571D01*
X116040476Y-94383333D01*
X115945238Y-94335714D01*
X115754761Y-94335714D01*
X115659523Y-94383333D01*
X116088095Y-94954761D02*
X115992857Y-95002380D01*
X115754761Y-95002380D01*
X115659523Y-94954761D01*
X115611904Y-94859523D01*
X115611904Y-94764285D01*
X115659523Y-94669047D01*
X115754761Y-94621428D01*
X115992857Y-94621428D01*
X116088095Y-94573809D01*
X116564285Y-94335714D02*
X116564285Y-95335714D01*
X116564285Y-94383333D02*
X116659523Y-94335714D01*
X116850000Y-94335714D01*
X116945238Y-94383333D01*
X116992857Y-94430952D01*
X117040476Y-94526190D01*
X117040476Y-94811904D01*
X116992857Y-94907142D01*
X116945238Y-94954761D01*
X116850000Y-95002380D01*
X116659523Y-95002380D01*
X116564285Y-94954761D01*
X117421428Y-94954761D02*
X117516666Y-95002380D01*
X117707142Y-95002380D01*
X117802380Y-94954761D01*
X117850000Y-94859523D01*
X117850000Y-94811904D01*
X117802380Y-94716666D01*
X117707142Y-94669047D01*
X117564285Y-94669047D01*
X117469047Y-94621428D01*
X117421428Y-94526190D01*
X117421428Y-94478571D01*
X117469047Y-94383333D01*
X117564285Y-94335714D01*
X117707142Y-94335714D01*
X117802380Y-94383333D01*
X118659523Y-94954761D02*
X118564285Y-95002380D01*
X118373809Y-95002380D01*
X118278571Y-94954761D01*
X118230952Y-94859523D01*
X118230952Y-94478571D01*
X118278571Y-94383333D01*
X118373809Y-94335714D01*
X118564285Y-94335714D01*
X118659523Y-94383333D01*
X118707142Y-94478571D01*
X118707142Y-94573809D01*
X118230952Y-94669047D01*
X119088095Y-94097619D02*
X119135714Y-94050000D01*
X119230952Y-94002380D01*
X119469047Y-94002380D01*
X119564285Y-94050000D01*
X119611904Y-94097619D01*
X119659523Y-94192857D01*
X119659523Y-94288095D01*
X119611904Y-94430952D01*
X119040476Y-95002380D01*
X119659523Y-95002380D01*
X121373809Y-94050000D02*
X121278571Y-94002380D01*
X121135714Y-94002380D01*
X120992857Y-94050000D01*
X120897619Y-94145238D01*
X120850000Y-94240476D01*
X120802380Y-94430952D01*
X120802380Y-94573809D01*
X120850000Y-94764285D01*
X120897619Y-94859523D01*
X120992857Y-94954761D01*
X121135714Y-95002380D01*
X121230952Y-95002380D01*
X121373809Y-94954761D01*
X121421428Y-94907142D01*
X121421428Y-94573809D01*
X121230952Y-94573809D01*
X122278571Y-95002380D02*
X122278571Y-94478571D01*
X122230952Y-94383333D01*
X122135714Y-94335714D01*
X121945238Y-94335714D01*
X121850000Y-94383333D01*
X122278571Y-94954761D02*
X122183333Y-95002380D01*
X121945238Y-95002380D01*
X121850000Y-94954761D01*
X121802380Y-94859523D01*
X121802380Y-94764285D01*
X121850000Y-94669047D01*
X121945238Y-94621428D01*
X122183333Y-94621428D01*
X122278571Y-94573809D01*
X122754761Y-95002380D02*
X122754761Y-94335714D01*
X122754761Y-94002380D02*
X122707142Y-94050000D01*
X122754761Y-94097619D01*
X122802380Y-94050000D01*
X122754761Y-94002380D01*
X122754761Y-94097619D01*
X123230952Y-94335714D02*
X123230952Y-95002380D01*
X123230952Y-94430952D02*
X123278571Y-94383333D01*
X123373809Y-94335714D01*
X123516666Y-94335714D01*
X123611904Y-94383333D01*
X123659523Y-94478571D01*
X123659523Y-95002380D01*
%TO.C,Synapse In 2*%
X112396785Y-88104761D02*
X112539642Y-88152380D01*
X112777738Y-88152380D01*
X112872976Y-88104761D01*
X112920595Y-88057142D01*
X112968214Y-87961904D01*
X112968214Y-87866666D01*
X112920595Y-87771428D01*
X112872976Y-87723809D01*
X112777738Y-87676190D01*
X112587261Y-87628571D01*
X112492023Y-87580952D01*
X112444404Y-87533333D01*
X112396785Y-87438095D01*
X112396785Y-87342857D01*
X112444404Y-87247619D01*
X112492023Y-87200000D01*
X112587261Y-87152380D01*
X112825357Y-87152380D01*
X112968214Y-87200000D01*
X113301547Y-87485714D02*
X113539642Y-88152380D01*
X113777738Y-87485714D02*
X113539642Y-88152380D01*
X113444404Y-88390476D01*
X113396785Y-88438095D01*
X113301547Y-88485714D01*
X114158690Y-87485714D02*
X114158690Y-88152380D01*
X114158690Y-87580952D02*
X114206309Y-87533333D01*
X114301547Y-87485714D01*
X114444404Y-87485714D01*
X114539642Y-87533333D01*
X114587261Y-87628571D01*
X114587261Y-88152380D01*
X115492023Y-88152380D02*
X115492023Y-87628571D01*
X115444404Y-87533333D01*
X115349166Y-87485714D01*
X115158690Y-87485714D01*
X115063452Y-87533333D01*
X115492023Y-88104761D02*
X115396785Y-88152380D01*
X115158690Y-88152380D01*
X115063452Y-88104761D01*
X115015833Y-88009523D01*
X115015833Y-87914285D01*
X115063452Y-87819047D01*
X115158690Y-87771428D01*
X115396785Y-87771428D01*
X115492023Y-87723809D01*
X115968214Y-87485714D02*
X115968214Y-88485714D01*
X115968214Y-87533333D02*
X116063452Y-87485714D01*
X116253928Y-87485714D01*
X116349166Y-87533333D01*
X116396785Y-87580952D01*
X116444404Y-87676190D01*
X116444404Y-87961904D01*
X116396785Y-88057142D01*
X116349166Y-88104761D01*
X116253928Y-88152380D01*
X116063452Y-88152380D01*
X115968214Y-88104761D01*
X116825357Y-88104761D02*
X116920595Y-88152380D01*
X117111071Y-88152380D01*
X117206309Y-88104761D01*
X117253928Y-88009523D01*
X117253928Y-87961904D01*
X117206309Y-87866666D01*
X117111071Y-87819047D01*
X116968214Y-87819047D01*
X116872976Y-87771428D01*
X116825357Y-87676190D01*
X116825357Y-87628571D01*
X116872976Y-87533333D01*
X116968214Y-87485714D01*
X117111071Y-87485714D01*
X117206309Y-87533333D01*
X118063452Y-88104761D02*
X117968214Y-88152380D01*
X117777738Y-88152380D01*
X117682500Y-88104761D01*
X117634880Y-88009523D01*
X117634880Y-87628571D01*
X117682500Y-87533333D01*
X117777738Y-87485714D01*
X117968214Y-87485714D01*
X118063452Y-87533333D01*
X118111071Y-87628571D01*
X118111071Y-87723809D01*
X117634880Y-87819047D01*
X119301547Y-88152380D02*
X119301547Y-87152380D01*
X119777738Y-87485714D02*
X119777738Y-88152380D01*
X119777738Y-87580952D02*
X119825357Y-87533333D01*
X119920595Y-87485714D01*
X120063452Y-87485714D01*
X120158690Y-87533333D01*
X120206309Y-87628571D01*
X120206309Y-88152380D01*
X121396785Y-87247619D02*
X121444404Y-87200000D01*
X121539642Y-87152380D01*
X121777738Y-87152380D01*
X121872976Y-87200000D01*
X121920595Y-87247619D01*
X121968214Y-87342857D01*
X121968214Y-87438095D01*
X121920595Y-87580952D01*
X121349166Y-88152380D01*
X121968214Y-88152380D01*
D10*
%TO.C,2*%
X191055714Y-103659714D02*
X191091428Y-103624000D01*
X191162857Y-103588285D01*
X191341428Y-103588285D01*
X191412857Y-103624000D01*
X191448571Y-103659714D01*
X191484285Y-103731142D01*
X191484285Y-103802571D01*
X191448571Y-103909714D01*
X191020000Y-104338285D01*
X191484285Y-104338285D01*
D11*
%TO.C, *%
D10*
%TO.C,4*%
X191412857Y-88748285D02*
X191412857Y-89248285D01*
X191234285Y-88462571D02*
X191055714Y-88998285D01*
X191520000Y-88998285D01*
D11*
%TO.C,Current In*%
X102400000Y-117406142D02*
X102352380Y-117453761D01*
X102209523Y-117501380D01*
X102114285Y-117501380D01*
X101971428Y-117453761D01*
X101876190Y-117358523D01*
X101828571Y-117263285D01*
X101780952Y-117072809D01*
X101780952Y-116929952D01*
X101828571Y-116739476D01*
X101876190Y-116644238D01*
X101971428Y-116549000D01*
X102114285Y-116501380D01*
X102209523Y-116501380D01*
X102352380Y-116549000D01*
X102400000Y-116596619D01*
X103257142Y-116834714D02*
X103257142Y-117501380D01*
X102828571Y-116834714D02*
X102828571Y-117358523D01*
X102876190Y-117453761D01*
X102971428Y-117501380D01*
X103114285Y-117501380D01*
X103209523Y-117453761D01*
X103257142Y-117406142D01*
X103733333Y-117501380D02*
X103733333Y-116834714D01*
X103733333Y-117025190D02*
X103780952Y-116929952D01*
X103828571Y-116882333D01*
X103923809Y-116834714D01*
X104019047Y-116834714D01*
X104352380Y-117501380D02*
X104352380Y-116834714D01*
X104352380Y-117025190D02*
X104400000Y-116929952D01*
X104447619Y-116882333D01*
X104542857Y-116834714D01*
X104638095Y-116834714D01*
X105352380Y-117453761D02*
X105257142Y-117501380D01*
X105066666Y-117501380D01*
X104971428Y-117453761D01*
X104923809Y-117358523D01*
X104923809Y-116977571D01*
X104971428Y-116882333D01*
X105066666Y-116834714D01*
X105257142Y-116834714D01*
X105352380Y-116882333D01*
X105400000Y-116977571D01*
X105400000Y-117072809D01*
X104923809Y-117168047D01*
X105828571Y-116834714D02*
X105828571Y-117501380D01*
X105828571Y-116929952D02*
X105876190Y-116882333D01*
X105971428Y-116834714D01*
X106114285Y-116834714D01*
X106209523Y-116882333D01*
X106257142Y-116977571D01*
X106257142Y-117501380D01*
X106590476Y-116834714D02*
X106971428Y-116834714D01*
X106733333Y-116501380D02*
X106733333Y-117358523D01*
X106780952Y-117453761D01*
X106876190Y-117501380D01*
X106971428Y-117501380D01*
X108066666Y-117501380D02*
X108066666Y-116501380D01*
X108542857Y-116834714D02*
X108542857Y-117501380D01*
X108542857Y-116929952D02*
X108590476Y-116882333D01*
X108685714Y-116834714D01*
X108828571Y-116834714D01*
X108923809Y-116882333D01*
X108971428Y-116977571D01*
X108971428Y-117501380D01*
D10*
%TO.C,100\u03A9*%
X180651428Y-89439285D02*
X180222857Y-89439285D01*
X180437142Y-89439285D02*
X180437142Y-88689285D01*
X180365714Y-88796428D01*
X180294285Y-88867857D01*
X180222857Y-88903571D01*
X181115714Y-88689285D02*
X181187142Y-88689285D01*
X181258571Y-88725000D01*
X181294285Y-88760714D01*
X181330000Y-88832142D01*
X181365714Y-88975000D01*
X181365714Y-89153571D01*
X181330000Y-89296428D01*
X181294285Y-89367857D01*
X181258571Y-89403571D01*
X181187142Y-89439285D01*
X181115714Y-89439285D01*
X181044285Y-89403571D01*
X181008571Y-89367857D01*
X180972857Y-89296428D01*
X180937142Y-89153571D01*
X180937142Y-88975000D01*
X180972857Y-88832142D01*
X181008571Y-88760714D01*
X181044285Y-88725000D01*
X181115714Y-88689285D01*
X181830000Y-88689285D02*
X181901428Y-88689285D01*
X181972857Y-88725000D01*
X182008571Y-88760714D01*
X182044285Y-88832142D01*
X182080000Y-88975000D01*
X182080000Y-89153571D01*
X182044285Y-89296428D01*
X182008571Y-89367857D01*
X181972857Y-89403571D01*
X181901428Y-89439285D01*
X181830000Y-89439285D01*
X181758571Y-89403571D01*
X181722857Y-89367857D01*
X181687142Y-89296428D01*
X181651428Y-89153571D01*
X181651428Y-88975000D01*
X181687142Y-88832142D01*
X181722857Y-88760714D01*
X181758571Y-88725000D01*
X181830000Y-88689285D01*
X182365714Y-89439285D02*
X182544285Y-89439285D01*
X182544285Y-89296428D01*
X182472857Y-89260714D01*
X182401428Y-89189285D01*
X182365714Y-89082142D01*
X182365714Y-88903571D01*
X182401428Y-88796428D01*
X182472857Y-88725000D01*
X182580000Y-88689285D01*
X182722857Y-88689285D01*
X182830000Y-88725000D01*
X182901428Y-88796428D01*
X182937142Y-88903571D01*
X182937142Y-89082142D01*
X182901428Y-89189285D01*
X182830000Y-89260714D01*
X182758571Y-89296428D01*
X182758571Y-89439285D01*
X182937142Y-89439285D01*
%TO.C,10k\u03A9*%
X180805000Y-107439285D02*
X180376428Y-107439285D01*
X180590714Y-107439285D02*
X180590714Y-106689285D01*
X180519285Y-106796428D01*
X180447857Y-106867857D01*
X180376428Y-106903571D01*
X181269285Y-106689285D02*
X181340714Y-106689285D01*
X181412142Y-106725000D01*
X181447857Y-106760714D01*
X181483571Y-106832142D01*
X181519285Y-106975000D01*
X181519285Y-107153571D01*
X181483571Y-107296428D01*
X181447857Y-107367857D01*
X181412142Y-107403571D01*
X181340714Y-107439285D01*
X181269285Y-107439285D01*
X181197857Y-107403571D01*
X181162142Y-107367857D01*
X181126428Y-107296428D01*
X181090714Y-107153571D01*
X181090714Y-106975000D01*
X181126428Y-106832142D01*
X181162142Y-106760714D01*
X181197857Y-106725000D01*
X181269285Y-106689285D01*
X181840714Y-107439285D02*
X181840714Y-106689285D01*
X181912142Y-107153571D02*
X182126428Y-107439285D01*
X182126428Y-106939285D02*
X181840714Y-107225000D01*
X182412142Y-107439285D02*
X182590714Y-107439285D01*
X182590714Y-107296428D01*
X182519285Y-107260714D01*
X182447857Y-107189285D01*
X182412142Y-107082142D01*
X182412142Y-106903571D01*
X182447857Y-106796428D01*
X182519285Y-106725000D01*
X182626428Y-106689285D01*
X182769285Y-106689285D01*
X182876428Y-106725000D01*
X182947857Y-106796428D01*
X182983571Y-106903571D01*
X182983571Y-107082142D01*
X182947857Y-107189285D01*
X182876428Y-107260714D01*
X182805000Y-107296428D01*
X182805000Y-107439285D01*
X182983571Y-107439285D01*
D11*
%TO.C,Photodiode Gain*%
X154047619Y-114752380D02*
X154047619Y-113752380D01*
X154428571Y-113752380D01*
X154523809Y-113800000D01*
X154571428Y-113847619D01*
X154619047Y-113942857D01*
X154619047Y-114085714D01*
X154571428Y-114180952D01*
X154523809Y-114228571D01*
X154428571Y-114276190D01*
X154047619Y-114276190D01*
X155047619Y-114752380D02*
X155047619Y-113752380D01*
X155476190Y-114752380D02*
X155476190Y-114228571D01*
X155428571Y-114133333D01*
X155333333Y-114085714D01*
X155190476Y-114085714D01*
X155095238Y-114133333D01*
X155047619Y-114180952D01*
X156095238Y-114752380D02*
X156000000Y-114704761D01*
X155952380Y-114657142D01*
X155904761Y-114561904D01*
X155904761Y-114276190D01*
X155952380Y-114180952D01*
X156000000Y-114133333D01*
X156095238Y-114085714D01*
X156238095Y-114085714D01*
X156333333Y-114133333D01*
X156380952Y-114180952D01*
X156428571Y-114276190D01*
X156428571Y-114561904D01*
X156380952Y-114657142D01*
X156333333Y-114704761D01*
X156238095Y-114752380D01*
X156095238Y-114752380D01*
X156714285Y-114085714D02*
X157095238Y-114085714D01*
X156857142Y-113752380D02*
X156857142Y-114609523D01*
X156904761Y-114704761D01*
X157000000Y-114752380D01*
X157095238Y-114752380D01*
X157571428Y-114752380D02*
X157476190Y-114704761D01*
X157428571Y-114657142D01*
X157380952Y-114561904D01*
X157380952Y-114276190D01*
X157428571Y-114180952D01*
X157476190Y-114133333D01*
X157571428Y-114085714D01*
X157714285Y-114085714D01*
X157809523Y-114133333D01*
X157857142Y-114180952D01*
X157904761Y-114276190D01*
X157904761Y-114561904D01*
X157857142Y-114657142D01*
X157809523Y-114704761D01*
X157714285Y-114752380D01*
X157571428Y-114752380D01*
X158761904Y-114752380D02*
X158761904Y-113752380D01*
X158761904Y-114704761D02*
X158666666Y-114752380D01*
X158476190Y-114752380D01*
X158380952Y-114704761D01*
X158333333Y-114657142D01*
X158285714Y-114561904D01*
X158285714Y-114276190D01*
X158333333Y-114180952D01*
X158380952Y-114133333D01*
X158476190Y-114085714D01*
X158666666Y-114085714D01*
X158761904Y-114133333D01*
X159238095Y-114752380D02*
X159238095Y-114085714D01*
X159238095Y-113752380D02*
X159190476Y-113800000D01*
X159238095Y-113847619D01*
X159285714Y-113800000D01*
X159238095Y-113752380D01*
X159238095Y-113847619D01*
X159857142Y-114752380D02*
X159761904Y-114704761D01*
X159714285Y-114657142D01*
X159666666Y-114561904D01*
X159666666Y-114276190D01*
X159714285Y-114180952D01*
X159761904Y-114133333D01*
X159857142Y-114085714D01*
X160000000Y-114085714D01*
X160095238Y-114133333D01*
X160142857Y-114180952D01*
X160190476Y-114276190D01*
X160190476Y-114561904D01*
X160142857Y-114657142D01*
X160095238Y-114704761D01*
X160000000Y-114752380D01*
X159857142Y-114752380D01*
X161047619Y-114752380D02*
X161047619Y-113752380D01*
X161047619Y-114704761D02*
X160952380Y-114752380D01*
X160761904Y-114752380D01*
X160666666Y-114704761D01*
X160619047Y-114657142D01*
X160571428Y-114561904D01*
X160571428Y-114276190D01*
X160619047Y-114180952D01*
X160666666Y-114133333D01*
X160761904Y-114085714D01*
X160952380Y-114085714D01*
X161047619Y-114133333D01*
X161904761Y-114704761D02*
X161809523Y-114752380D01*
X161619047Y-114752380D01*
X161523809Y-114704761D01*
X161476190Y-114609523D01*
X161476190Y-114228571D01*
X161523809Y-114133333D01*
X161619047Y-114085714D01*
X161809523Y-114085714D01*
X161904761Y-114133333D01*
X161952380Y-114228571D01*
X161952380Y-114323809D01*
X161476190Y-114419047D01*
X163666666Y-113800000D02*
X163571428Y-113752380D01*
X163428571Y-113752380D01*
X163285714Y-113800000D01*
X163190476Y-113895238D01*
X163142857Y-113990476D01*
X163095238Y-114180952D01*
X163095238Y-114323809D01*
X163142857Y-114514285D01*
X163190476Y-114609523D01*
X163285714Y-114704761D01*
X163428571Y-114752380D01*
X163523809Y-114752380D01*
X163666666Y-114704761D01*
X163714285Y-114657142D01*
X163714285Y-114323809D01*
X163523809Y-114323809D01*
X164571428Y-114752380D02*
X164571428Y-114228571D01*
X164523809Y-114133333D01*
X164428571Y-114085714D01*
X164238095Y-114085714D01*
X164142857Y-114133333D01*
X164571428Y-114704761D02*
X164476190Y-114752380D01*
X164238095Y-114752380D01*
X164142857Y-114704761D01*
X164095238Y-114609523D01*
X164095238Y-114514285D01*
X164142857Y-114419047D01*
X164238095Y-114371428D01*
X164476190Y-114371428D01*
X164571428Y-114323809D01*
X165047619Y-114752380D02*
X165047619Y-114085714D01*
X165047619Y-113752380D02*
X165000000Y-113800000D01*
X165047619Y-113847619D01*
X165095238Y-113800000D01*
X165047619Y-113752380D01*
X165047619Y-113847619D01*
X165523809Y-114085714D02*
X165523809Y-114752380D01*
X165523809Y-114180952D02*
X165571428Y-114133333D01*
X165666666Y-114085714D01*
X165809523Y-114085714D01*
X165904761Y-114133333D01*
X165952380Y-114228571D01*
X165952380Y-114752380D01*
D10*
%TO.C,1nF*%
X202353571Y-60739285D02*
X201925000Y-60739285D01*
X202139285Y-60739285D02*
X202139285Y-59989285D01*
X202067857Y-60096428D01*
X201996428Y-60167857D01*
X201925000Y-60203571D01*
X202675000Y-60239285D02*
X202675000Y-60739285D01*
X202675000Y-60310714D02*
X202710714Y-60275000D01*
X202782142Y-60239285D01*
X202889285Y-60239285D01*
X202960714Y-60275000D01*
X202996428Y-60346428D01*
X202996428Y-60739285D01*
X203603571Y-60346428D02*
X203353571Y-60346428D01*
X203353571Y-60739285D02*
X203353571Y-59989285D01*
X203710714Y-59989285D01*
%TO.C,100\u03A9*%
X180651428Y-84939285D02*
X180222857Y-84939285D01*
X180437142Y-84939285D02*
X180437142Y-84189285D01*
X180365714Y-84296428D01*
X180294285Y-84367857D01*
X180222857Y-84403571D01*
X181115714Y-84189285D02*
X181187142Y-84189285D01*
X181258571Y-84225000D01*
X181294285Y-84260714D01*
X181330000Y-84332142D01*
X181365714Y-84475000D01*
X181365714Y-84653571D01*
X181330000Y-84796428D01*
X181294285Y-84867857D01*
X181258571Y-84903571D01*
X181187142Y-84939285D01*
X181115714Y-84939285D01*
X181044285Y-84903571D01*
X181008571Y-84867857D01*
X180972857Y-84796428D01*
X180937142Y-84653571D01*
X180937142Y-84475000D01*
X180972857Y-84332142D01*
X181008571Y-84260714D01*
X181044285Y-84225000D01*
X181115714Y-84189285D01*
X181830000Y-84189285D02*
X181901428Y-84189285D01*
X181972857Y-84225000D01*
X182008571Y-84260714D01*
X182044285Y-84332142D01*
X182080000Y-84475000D01*
X182080000Y-84653571D01*
X182044285Y-84796428D01*
X182008571Y-84867857D01*
X181972857Y-84903571D01*
X181901428Y-84939285D01*
X181830000Y-84939285D01*
X181758571Y-84903571D01*
X181722857Y-84867857D01*
X181687142Y-84796428D01*
X181651428Y-84653571D01*
X181651428Y-84475000D01*
X181687142Y-84332142D01*
X181722857Y-84260714D01*
X181758571Y-84225000D01*
X181830000Y-84189285D01*
X182365714Y-84939285D02*
X182544285Y-84939285D01*
X182544285Y-84796428D01*
X182472857Y-84760714D01*
X182401428Y-84689285D01*
X182365714Y-84582142D01*
X182365714Y-84403571D01*
X182401428Y-84296428D01*
X182472857Y-84225000D01*
X182580000Y-84189285D01*
X182722857Y-84189285D01*
X182830000Y-84225000D01*
X182901428Y-84296428D01*
X182937142Y-84403571D01*
X182937142Y-84582142D01*
X182901428Y-84689285D01*
X182830000Y-84760714D01*
X182758571Y-84796428D01*
X182758571Y-84939285D01*
X182937142Y-84939285D01*
X180621428Y-75939285D02*
X180192857Y-75939285D01*
X180407142Y-75939285D02*
X180407142Y-75189285D01*
X180335714Y-75296428D01*
X180264285Y-75367857D01*
X180192857Y-75403571D01*
X181085714Y-75189285D02*
X181157142Y-75189285D01*
X181228571Y-75225000D01*
X181264285Y-75260714D01*
X181300000Y-75332142D01*
X181335714Y-75475000D01*
X181335714Y-75653571D01*
X181300000Y-75796428D01*
X181264285Y-75867857D01*
X181228571Y-75903571D01*
X181157142Y-75939285D01*
X181085714Y-75939285D01*
X181014285Y-75903571D01*
X180978571Y-75867857D01*
X180942857Y-75796428D01*
X180907142Y-75653571D01*
X180907142Y-75475000D01*
X180942857Y-75332142D01*
X180978571Y-75260714D01*
X181014285Y-75225000D01*
X181085714Y-75189285D01*
X181800000Y-75189285D02*
X181871428Y-75189285D01*
X181942857Y-75225000D01*
X181978571Y-75260714D01*
X182014285Y-75332142D01*
X182050000Y-75475000D01*
X182050000Y-75653571D01*
X182014285Y-75796428D01*
X181978571Y-75867857D01*
X181942857Y-75903571D01*
X181871428Y-75939285D01*
X181800000Y-75939285D01*
X181728571Y-75903571D01*
X181692857Y-75867857D01*
X181657142Y-75796428D01*
X181621428Y-75653571D01*
X181621428Y-75475000D01*
X181657142Y-75332142D01*
X181692857Y-75260714D01*
X181728571Y-75225000D01*
X181800000Y-75189285D01*
X182335714Y-75939285D02*
X182514285Y-75939285D01*
X182514285Y-75796428D01*
X182442857Y-75760714D01*
X182371428Y-75689285D01*
X182335714Y-75582142D01*
X182335714Y-75403571D01*
X182371428Y-75296428D01*
X182442857Y-75225000D01*
X182550000Y-75189285D01*
X182692857Y-75189285D01*
X182800000Y-75225000D01*
X182871428Y-75296428D01*
X182907142Y-75403571D01*
X182907142Y-75582142D01*
X182871428Y-75689285D01*
X182800000Y-75760714D01*
X182728571Y-75796428D01*
X182728571Y-75939285D01*
X182907142Y-75939285D01*
%TO.C,Spike Buzzer*%
X183382142Y-69303571D02*
X183489285Y-69339285D01*
X183667857Y-69339285D01*
X183739285Y-69303571D01*
X183775000Y-69267857D01*
X183810714Y-69196428D01*
X183810714Y-69125000D01*
X183775000Y-69053571D01*
X183739285Y-69017857D01*
X183667857Y-68982142D01*
X183525000Y-68946428D01*
X183453571Y-68910714D01*
X183417857Y-68875000D01*
X183382142Y-68803571D01*
X183382142Y-68732142D01*
X183417857Y-68660714D01*
X183453571Y-68625000D01*
X183525000Y-68589285D01*
X183703571Y-68589285D01*
X183810714Y-68625000D01*
X184132142Y-68839285D02*
X184132142Y-69589285D01*
X184132142Y-68875000D02*
X184203571Y-68839285D01*
X184346428Y-68839285D01*
X184417857Y-68875000D01*
X184453571Y-68910714D01*
X184489285Y-68982142D01*
X184489285Y-69196428D01*
X184453571Y-69267857D01*
X184417857Y-69303571D01*
X184346428Y-69339285D01*
X184203571Y-69339285D01*
X184132142Y-69303571D01*
X184810714Y-69339285D02*
X184810714Y-68839285D01*
X184810714Y-68589285D02*
X184775000Y-68625000D01*
X184810714Y-68660714D01*
X184846428Y-68625000D01*
X184810714Y-68589285D01*
X184810714Y-68660714D01*
X185167857Y-69339285D02*
X185167857Y-68589285D01*
X185239285Y-69053571D02*
X185453571Y-69339285D01*
X185453571Y-68839285D02*
X185167857Y-69125000D01*
X186060714Y-69303571D02*
X185989285Y-69339285D01*
X185846428Y-69339285D01*
X185775000Y-69303571D01*
X185739285Y-69232142D01*
X185739285Y-68946428D01*
X185775000Y-68875000D01*
X185846428Y-68839285D01*
X185989285Y-68839285D01*
X186060714Y-68875000D01*
X186096428Y-68946428D01*
X186096428Y-69017857D01*
X185739285Y-69089285D01*
X187239285Y-68946428D02*
X187346428Y-68982142D01*
X187382142Y-69017857D01*
X187417857Y-69089285D01*
X187417857Y-69196428D01*
X187382142Y-69267857D01*
X187346428Y-69303571D01*
X187275000Y-69339285D01*
X186989285Y-69339285D01*
X186989285Y-68589285D01*
X187239285Y-68589285D01*
X187310714Y-68625000D01*
X187346428Y-68660714D01*
X187382142Y-68732142D01*
X187382142Y-68803571D01*
X187346428Y-68875000D01*
X187310714Y-68910714D01*
X187239285Y-68946428D01*
X186989285Y-68946428D01*
X188060714Y-68839285D02*
X188060714Y-69339285D01*
X187739285Y-68839285D02*
X187739285Y-69232142D01*
X187775000Y-69303571D01*
X187846428Y-69339285D01*
X187953571Y-69339285D01*
X188025000Y-69303571D01*
X188060714Y-69267857D01*
X188346428Y-68839285D02*
X188739285Y-68839285D01*
X188346428Y-69339285D01*
X188739285Y-69339285D01*
X188953571Y-68839285D02*
X189346428Y-68839285D01*
X188953571Y-69339285D01*
X189346428Y-69339285D01*
X189917857Y-69303571D02*
X189846428Y-69339285D01*
X189703571Y-69339285D01*
X189632142Y-69303571D01*
X189596428Y-69232142D01*
X189596428Y-68946428D01*
X189632142Y-68875000D01*
X189703571Y-68839285D01*
X189846428Y-68839285D01*
X189917857Y-68875000D01*
X189953571Y-68946428D01*
X189953571Y-69017857D01*
X189596428Y-69089285D01*
X190275000Y-69339285D02*
X190275000Y-68839285D01*
X190275000Y-68982142D02*
X190310714Y-68910714D01*
X190346428Y-68875000D01*
X190417857Y-68839285D01*
X190489285Y-68839285D01*
D11*
X188771428Y-60180952D02*
X188771428Y-59419047D01*
X189152380Y-59800000D02*
X188390476Y-59800000D01*
%TO.C, *%
%TO.C,ESP32*%
X155928571Y-81242857D02*
X155928571Y-80909523D01*
X156452380Y-80766666D02*
X156452380Y-81242857D01*
X155452380Y-81242857D01*
X155452380Y-80766666D01*
X156404761Y-80385714D02*
X156452380Y-80242857D01*
X156452380Y-80004761D01*
X156404761Y-79909523D01*
X156357142Y-79861904D01*
X156261904Y-79814285D01*
X156166666Y-79814285D01*
X156071428Y-79861904D01*
X156023809Y-79909523D01*
X155976190Y-80004761D01*
X155928571Y-80195238D01*
X155880952Y-80290476D01*
X155833333Y-80338095D01*
X155738095Y-80385714D01*
X155642857Y-80385714D01*
X155547619Y-80338095D01*
X155500000Y-80290476D01*
X155452380Y-80195238D01*
X155452380Y-79957142D01*
X155500000Y-79814285D01*
X156452380Y-79385714D02*
X155452380Y-79385714D01*
X155452380Y-79004761D01*
X155500000Y-78909523D01*
X155547619Y-78861904D01*
X155642857Y-78814285D01*
X155785714Y-78814285D01*
X155880952Y-78861904D01*
X155928571Y-78909523D01*
X155976190Y-79004761D01*
X155976190Y-79385714D01*
X155452380Y-78480952D02*
X155452380Y-77861904D01*
X155833333Y-78195238D01*
X155833333Y-78052380D01*
X155880952Y-77957142D01*
X155928571Y-77909523D01*
X156023809Y-77861904D01*
X156261904Y-77861904D01*
X156357142Y-77909523D01*
X156404761Y-77957142D01*
X156452380Y-78052380D01*
X156452380Y-78338095D01*
X156404761Y-78433333D01*
X156357142Y-78480952D01*
X155547619Y-77480952D02*
X155500000Y-77433333D01*
X155452380Y-77338095D01*
X155452380Y-77100000D01*
X155500000Y-77004761D01*
X155547619Y-76957142D01*
X155642857Y-76909523D01*
X155738095Y-76909523D01*
X155880952Y-76957142D01*
X156452380Y-77528571D01*
X156452380Y-76909523D01*
D10*
%TO.C,100\u03A9*%
X180651428Y-80439285D02*
X180222857Y-80439285D01*
X180437142Y-80439285D02*
X180437142Y-79689285D01*
X180365714Y-79796428D01*
X180294285Y-79867857D01*
X180222857Y-79903571D01*
X181115714Y-79689285D02*
X181187142Y-79689285D01*
X181258571Y-79725000D01*
X181294285Y-79760714D01*
X181330000Y-79832142D01*
X181365714Y-79975000D01*
X181365714Y-80153571D01*
X181330000Y-80296428D01*
X181294285Y-80367857D01*
X181258571Y-80403571D01*
X181187142Y-80439285D01*
X181115714Y-80439285D01*
X181044285Y-80403571D01*
X181008571Y-80367857D01*
X180972857Y-80296428D01*
X180937142Y-80153571D01*
X180937142Y-79975000D01*
X180972857Y-79832142D01*
X181008571Y-79760714D01*
X181044285Y-79725000D01*
X181115714Y-79689285D01*
X181830000Y-79689285D02*
X181901428Y-79689285D01*
X181972857Y-79725000D01*
X182008571Y-79760714D01*
X182044285Y-79832142D01*
X182080000Y-79975000D01*
X182080000Y-80153571D01*
X182044285Y-80296428D01*
X182008571Y-80367857D01*
X181972857Y-80403571D01*
X181901428Y-80439285D01*
X181830000Y-80439285D01*
X181758571Y-80403571D01*
X181722857Y-80367857D01*
X181687142Y-80296428D01*
X181651428Y-80153571D01*
X181651428Y-79975000D01*
X181687142Y-79832142D01*
X181722857Y-79760714D01*
X181758571Y-79725000D01*
X181830000Y-79689285D01*
X182365714Y-80439285D02*
X182544285Y-80439285D01*
X182544285Y-80296428D01*
X182472857Y-80260714D01*
X182401428Y-80189285D01*
X182365714Y-80082142D01*
X182365714Y-79903571D01*
X182401428Y-79796428D01*
X182472857Y-79725000D01*
X182580000Y-79689285D01*
X182722857Y-79689285D01*
X182830000Y-79725000D01*
X182901428Y-79796428D01*
X182937142Y-79903571D01*
X182937142Y-80082142D01*
X182901428Y-80189285D01*
X182830000Y-80260714D01*
X182758571Y-80296428D01*
X182758571Y-80439285D01*
X182937142Y-80439285D01*
D11*
%TO.C,Mode Button*%
X189773809Y-126702380D02*
X189773809Y-125702380D01*
X190107142Y-126416666D01*
X190440476Y-125702380D01*
X190440476Y-126702380D01*
X191059523Y-126702380D02*
X190964285Y-126654761D01*
X190916666Y-126607142D01*
X190869047Y-126511904D01*
X190869047Y-126226190D01*
X190916666Y-126130952D01*
X190964285Y-126083333D01*
X191059523Y-126035714D01*
X191202380Y-126035714D01*
X191297619Y-126083333D01*
X191345238Y-126130952D01*
X191392857Y-126226190D01*
X191392857Y-126511904D01*
X191345238Y-126607142D01*
X191297619Y-126654761D01*
X191202380Y-126702380D01*
X191059523Y-126702380D01*
X192250000Y-126702380D02*
X192250000Y-125702380D01*
X192250000Y-126654761D02*
X192154761Y-126702380D01*
X191964285Y-126702380D01*
X191869047Y-126654761D01*
X191821428Y-126607142D01*
X191773809Y-126511904D01*
X191773809Y-126226190D01*
X191821428Y-126130952D01*
X191869047Y-126083333D01*
X191964285Y-126035714D01*
X192154761Y-126035714D01*
X192250000Y-126083333D01*
X193107142Y-126654761D02*
X193011904Y-126702380D01*
X192821428Y-126702380D01*
X192726190Y-126654761D01*
X192678571Y-126559523D01*
X192678571Y-126178571D01*
X192726190Y-126083333D01*
X192821428Y-126035714D01*
X193011904Y-126035714D01*
X193107142Y-126083333D01*
X193154761Y-126178571D01*
X193154761Y-126273809D01*
X192678571Y-126369047D01*
X194678571Y-126178571D02*
X194821428Y-126226190D01*
X194869047Y-126273809D01*
X194916666Y-126369047D01*
X194916666Y-126511904D01*
X194869047Y-126607142D01*
X194821428Y-126654761D01*
X194726190Y-126702380D01*
X194345238Y-126702380D01*
X194345238Y-125702380D01*
X194678571Y-125702380D01*
X194773809Y-125750000D01*
X194821428Y-125797619D01*
X194869047Y-125892857D01*
X194869047Y-125988095D01*
X194821428Y-126083333D01*
X194773809Y-126130952D01*
X194678571Y-126178571D01*
X194345238Y-126178571D01*
X195773809Y-126035714D02*
X195773809Y-126702380D01*
X195345238Y-126035714D02*
X195345238Y-126559523D01*
X195392857Y-126654761D01*
X195488095Y-126702380D01*
X195630952Y-126702380D01*
X195726190Y-126654761D01*
X195773809Y-126607142D01*
X196107142Y-126035714D02*
X196488095Y-126035714D01*
X196250000Y-125702380D02*
X196250000Y-126559523D01*
X196297619Y-126654761D01*
X196392857Y-126702380D01*
X196488095Y-126702380D01*
X196678571Y-126035714D02*
X197059523Y-126035714D01*
X196821428Y-125702380D02*
X196821428Y-126559523D01*
X196869047Y-126654761D01*
X196964285Y-126702380D01*
X197059523Y-126702380D01*
X197535714Y-126702380D02*
X197440476Y-126654761D01*
X197392857Y-126607142D01*
X197345238Y-126511904D01*
X197345238Y-126226190D01*
X197392857Y-126130952D01*
X197440476Y-126083333D01*
X197535714Y-126035714D01*
X197678571Y-126035714D01*
X197773809Y-126083333D01*
X197821428Y-126130952D01*
X197869047Y-126226190D01*
X197869047Y-126511904D01*
X197821428Y-126607142D01*
X197773809Y-126654761D01*
X197678571Y-126702380D01*
X197535714Y-126702380D01*
X198297619Y-126035714D02*
X198297619Y-126702380D01*
X198297619Y-126130952D02*
X198345238Y-126083333D01*
X198440476Y-126035714D01*
X198583333Y-126035714D01*
X198678571Y-126083333D01*
X198726190Y-126178571D01*
X198726190Y-126702380D01*
%TO.C,ESP32 Wroom-32 Dev Module*%
X159510714Y-93647619D02*
X159510714Y-93230952D01*
X160165476Y-93052380D02*
X160165476Y-93647619D01*
X158915476Y-93647619D01*
X158915476Y-93052380D01*
X160105952Y-92576190D02*
X160165476Y-92397619D01*
X160165476Y-92100000D01*
X160105952Y-91980952D01*
X160046428Y-91921428D01*
X159927380Y-91861904D01*
X159808333Y-91861904D01*
X159689285Y-91921428D01*
X159629761Y-91980952D01*
X159570238Y-92100000D01*
X159510714Y-92338095D01*
X159451190Y-92457142D01*
X159391666Y-92516666D01*
X159272619Y-92576190D01*
X159153571Y-92576190D01*
X159034523Y-92516666D01*
X158975000Y-92457142D01*
X158915476Y-92338095D01*
X158915476Y-92040476D01*
X158975000Y-91861904D01*
X160165476Y-91326190D02*
X158915476Y-91326190D01*
X158915476Y-90850000D01*
X158975000Y-90730952D01*
X159034523Y-90671428D01*
X159153571Y-90611904D01*
X159332142Y-90611904D01*
X159451190Y-90671428D01*
X159510714Y-90730952D01*
X159570238Y-90850000D01*
X159570238Y-91326190D01*
X158915476Y-90195238D02*
X158915476Y-89421428D01*
X159391666Y-89838095D01*
X159391666Y-89659523D01*
X159451190Y-89540476D01*
X159510714Y-89480952D01*
X159629761Y-89421428D01*
X159927380Y-89421428D01*
X160046428Y-89480952D01*
X160105952Y-89540476D01*
X160165476Y-89659523D01*
X160165476Y-90016666D01*
X160105952Y-90135714D01*
X160046428Y-90195238D01*
X159034523Y-88945238D02*
X158975000Y-88885714D01*
X158915476Y-88766666D01*
X158915476Y-88469047D01*
X158975000Y-88350000D01*
X159034523Y-88290476D01*
X159153571Y-88230952D01*
X159272619Y-88230952D01*
X159451190Y-88290476D01*
X160165476Y-89004761D01*
X160165476Y-88230952D01*
X158915476Y-86861904D02*
X160165476Y-86564285D01*
X159272619Y-86326190D01*
X160165476Y-86088095D01*
X158915476Y-85790476D01*
X160165476Y-85314285D02*
X159332142Y-85314285D01*
X159570238Y-85314285D02*
X159451190Y-85254761D01*
X159391666Y-85195238D01*
X159332142Y-85076190D01*
X159332142Y-84957142D01*
X160165476Y-84361904D02*
X160105952Y-84480952D01*
X160046428Y-84540476D01*
X159927380Y-84600000D01*
X159570238Y-84600000D01*
X159451190Y-84540476D01*
X159391666Y-84480952D01*
X159332142Y-84361904D01*
X159332142Y-84183333D01*
X159391666Y-84064285D01*
X159451190Y-84004761D01*
X159570238Y-83945238D01*
X159927380Y-83945238D01*
X160046428Y-84004761D01*
X160105952Y-84064285D01*
X160165476Y-84183333D01*
X160165476Y-84361904D01*
X160165476Y-83230952D02*
X160105952Y-83350000D01*
X160046428Y-83409523D01*
X159927380Y-83469047D01*
X159570238Y-83469047D01*
X159451190Y-83409523D01*
X159391666Y-83350000D01*
X159332142Y-83230952D01*
X159332142Y-83052380D01*
X159391666Y-82933333D01*
X159451190Y-82873809D01*
X159570238Y-82814285D01*
X159927380Y-82814285D01*
X160046428Y-82873809D01*
X160105952Y-82933333D01*
X160165476Y-83052380D01*
X160165476Y-83230952D01*
X160165476Y-82278571D02*
X159332142Y-82278571D01*
X159451190Y-82278571D02*
X159391666Y-82219047D01*
X159332142Y-82100000D01*
X159332142Y-81921428D01*
X159391666Y-81802380D01*
X159510714Y-81742857D01*
X160165476Y-81742857D01*
X159510714Y-81742857D02*
X159391666Y-81683333D01*
X159332142Y-81564285D01*
X159332142Y-81385714D01*
X159391666Y-81266666D01*
X159510714Y-81207142D01*
X160165476Y-81207142D01*
X159689285Y-80611904D02*
X159689285Y-79659523D01*
X158915476Y-79183333D02*
X158915476Y-78409523D01*
X159391666Y-78826190D01*
X159391666Y-78647619D01*
X159451190Y-78528571D01*
X159510714Y-78469047D01*
X159629761Y-78409523D01*
X159927380Y-78409523D01*
X160046428Y-78469047D01*
X160105952Y-78528571D01*
X160165476Y-78647619D01*
X160165476Y-79004761D01*
X160105952Y-79123809D01*
X160046428Y-79183333D01*
X159034523Y-77933333D02*
X158975000Y-77873809D01*
X158915476Y-77754761D01*
X158915476Y-77457142D01*
X158975000Y-77338095D01*
X159034523Y-77278571D01*
X159153571Y-77219047D01*
X159272619Y-77219047D01*
X159451190Y-77278571D01*
X160165476Y-77992857D01*
X160165476Y-77219047D01*
X160165476Y-75730952D02*
X158915476Y-75730952D01*
X158915476Y-75433333D01*
X158975000Y-75254761D01*
X159094047Y-75135714D01*
X159213095Y-75076190D01*
X159451190Y-75016666D01*
X159629761Y-75016666D01*
X159867857Y-75076190D01*
X159986904Y-75135714D01*
X160105952Y-75254761D01*
X160165476Y-75433333D01*
X160165476Y-75730952D01*
X160105952Y-74004761D02*
X160165476Y-74123809D01*
X160165476Y-74361904D01*
X160105952Y-74480952D01*
X159986904Y-74540476D01*
X159510714Y-74540476D01*
X159391666Y-74480952D01*
X159332142Y-74361904D01*
X159332142Y-74123809D01*
X159391666Y-74004761D01*
X159510714Y-73945238D01*
X159629761Y-73945238D01*
X159748809Y-74540476D01*
X159332142Y-73528571D02*
X160165476Y-73230952D01*
X159332142Y-72933333D01*
X160165476Y-71504761D02*
X158915476Y-71504761D01*
X159808333Y-71088095D01*
X158915476Y-70671428D01*
X160165476Y-70671428D01*
X160165476Y-69897619D02*
X160105952Y-70016666D01*
X160046428Y-70076190D01*
X159927380Y-70135714D01*
X159570238Y-70135714D01*
X159451190Y-70076190D01*
X159391666Y-70016666D01*
X159332142Y-69897619D01*
X159332142Y-69719047D01*
X159391666Y-69600000D01*
X159451190Y-69540476D01*
X159570238Y-69480952D01*
X159927380Y-69480952D01*
X160046428Y-69540476D01*
X160105952Y-69600000D01*
X160165476Y-69719047D01*
X160165476Y-69897619D01*
X160165476Y-68409523D02*
X158915476Y-68409523D01*
X160105952Y-68409523D02*
X160165476Y-68528571D01*
X160165476Y-68766666D01*
X160105952Y-68885714D01*
X160046428Y-68945238D01*
X159927380Y-69004761D01*
X159570238Y-69004761D01*
X159451190Y-68945238D01*
X159391666Y-68885714D01*
X159332142Y-68766666D01*
X159332142Y-68528571D01*
X159391666Y-68409523D01*
X159332142Y-67278571D02*
X160165476Y-67278571D01*
X159332142Y-67814285D02*
X159986904Y-67814285D01*
X160105952Y-67754761D01*
X160165476Y-67635714D01*
X160165476Y-67457142D01*
X160105952Y-67338095D01*
X160046428Y-67278571D01*
X160165476Y-66504761D02*
X160105952Y-66623809D01*
X159986904Y-66683333D01*
X158915476Y-66683333D01*
X160105952Y-65552380D02*
X160165476Y-65671428D01*
X160165476Y-65909523D01*
X160105952Y-66028571D01*
X159986904Y-66088095D01*
X159510714Y-66088095D01*
X159391666Y-66028571D01*
X159332142Y-65909523D01*
X159332142Y-65671428D01*
X159391666Y-65552380D01*
X159510714Y-65492857D01*
X159629761Y-65492857D01*
X159748809Y-66088095D01*
D10*
%TO.C,7*%
X197020000Y-111133285D02*
X197520000Y-111133285D01*
X197198571Y-111883285D01*
%TO.C,5*%
X191448571Y-80953285D02*
X191091428Y-80953285D01*
X191055714Y-81310428D01*
X191091428Y-81274714D01*
X191162857Y-81239000D01*
X191341428Y-81239000D01*
X191412857Y-81274714D01*
X191448571Y-81310428D01*
X191484285Y-81381857D01*
X191484285Y-81560428D01*
X191448571Y-81631857D01*
X191412857Y-81667571D01*
X191341428Y-81703285D01*
X191162857Y-81703285D01*
X191091428Y-81667571D01*
X191055714Y-81631857D01*
D12*
%TO.C,Spike_LED*%
X175655000Y-63955000D02*
X176120000Y-63955000D01*
X178280000Y-63955000D02*
X178745000Y-63955000D01*
X178744830Y-63955000D02*
G75*
G03*
X178280827Y-58607185I-1544830J2560000D01*
G01*
X178280000Y-63649684D02*
G75*
G03*
X178280429Y-59140521I-1080000J2254684D01*
G01*
X176119571Y-59140521D02*
G75*
G03*
X176120000Y-63649684I1080429J-2254479D01*
G01*
X176119173Y-58607185D02*
G75*
G03*
X175655170Y-63955000I1080827J-2787815D01*
G01*
%TO.C,6*%
X189710000Y-75543000D02*
X189710000Y-75699000D01*
X189710000Y-77859000D02*
X189710000Y-78015000D01*
X190229039Y-77859000D02*
G75*
G03*
X192311130Y-77858837I1040961J1080000D01*
G01*
X189710000Y-78014516D02*
G75*
G03*
X192942335Y-77857608I1560000J1235516D01*
G01*
X192311130Y-75699163D02*
G75*
G03*
X190229039Y-75699000I-1041130J-1079837D01*
G01*
X192942335Y-75700392D02*
G75*
G03*
X189710000Y-75543484I-1672335J-1078608D01*
G01*
%TO.C,1*%
X192311130Y-113424163D02*
G75*
G03*
X190229039Y-113424000I-1041130J-1079837D01*
G01*
X190229039Y-115584000D02*
G75*
G03*
X192311130Y-115583837I1040961J1080000D01*
G01*
X192942335Y-113425392D02*
G75*
G03*
X189710000Y-113268484I-1672335J-1078608D01*
G01*
X189710000Y-115739516D02*
G75*
G03*
X192942335Y-115582608I1560000J1235516D01*
G01*
X189710000Y-115584000D02*
X189710000Y-115740000D01*
X189710000Y-113268000D02*
X189710000Y-113424000D01*
%TO.C,10k\u03A9*%
X184850000Y-99470000D02*
X184850000Y-96730000D01*
X178310000Y-96730000D02*
X178310000Y-99470000D01*
X178310000Y-99470000D02*
X184850000Y-99470000D01*
X184850000Y-96730000D02*
X178310000Y-96730000D01*
X177540000Y-98100000D02*
X178310000Y-98100000D01*
X185620000Y-98100000D02*
X184850000Y-98100000D01*
%TO.C,MCP3208*%
X131660000Y-87795000D02*
X131660000Y-108235000D01*
X136960000Y-108235000D02*
X136960000Y-87795000D01*
X133310000Y-87795000D02*
X131660000Y-87795000D01*
X131660000Y-108235000D02*
X136960000Y-108235000D01*
X136960000Y-87795000D02*
X135310000Y-87795000D01*
X133310000Y-87795000D02*
G75*
G03*
X135310000Y-87795000I1000000J0D01*
G01*
%TO.C,Stimulus*%
X214271000Y-114620000D02*
X215030000Y-114620000D01*
X212150000Y-114620000D02*
X212530000Y-114620000D01*
X216770000Y-114620000D02*
X218420000Y-114620000D01*
X208379000Y-106316000D02*
X208379000Y-102380000D01*
X208379000Y-102380000D02*
X218420000Y-102380000D01*
X208379000Y-114620000D02*
X208379000Y-110683000D01*
X218420000Y-106316000D02*
X218420000Y-102380000D01*
X218420000Y-114620000D02*
X218420000Y-110683000D01*
X208379000Y-114620000D02*
X209700000Y-114620000D01*
%TO.C,Noise*%
X181370000Y-127920000D02*
X183020000Y-127920000D01*
X183020000Y-127920000D02*
X183020000Y-123983000D01*
X183020000Y-119616000D02*
X183020000Y-115680000D01*
X172979000Y-119616000D02*
X172979000Y-115680000D01*
X172979000Y-127920000D02*
X172979000Y-123983000D01*
X172979000Y-127920000D02*
X174300000Y-127920000D01*
X176750000Y-127920000D02*
X177130000Y-127920000D01*
X172979000Y-115680000D02*
X183020000Y-115680000D01*
X178871000Y-127920000D02*
X179630000Y-127920000D01*
%TO.C,Synapse In 1*%
X99982500Y-62000000D02*
X111982500Y-62000000D01*
X111982500Y-62000000D02*
X111982500Y-50200000D01*
X111982500Y-50200000D02*
X99982500Y-50200000D01*
X99982500Y-50200000D02*
X99982500Y-62000000D01*
%TO.C,Synapse Out*%
X220000000Y-58100000D02*
X208000000Y-58100000D01*
X208000000Y-58100000D02*
X208000000Y-69900000D01*
X208000000Y-69900000D02*
X220000000Y-69900000D01*
X220000000Y-69900000D02*
X220000000Y-58100000D01*
%TO.C,Synapse1 Gain*%
X110120000Y-74620000D02*
X111770000Y-74620000D01*
X105500000Y-74620000D02*
X105880000Y-74620000D01*
X107621000Y-74620000D02*
X108380000Y-74620000D01*
X101729000Y-74620000D02*
X103050000Y-74620000D01*
X111770000Y-66316000D02*
X111770000Y-62380000D01*
X101729000Y-66316000D02*
X101729000Y-62380000D01*
X101729000Y-74620000D02*
X101729000Y-70683000D01*
X101729000Y-62380000D02*
X111770000Y-62380000D01*
X111770000Y-74620000D02*
X111770000Y-70683000D01*
%TO.C,3*%
X192942335Y-98335392D02*
G75*
G03*
X189710000Y-98178484I-1672335J-1078608D01*
G01*
X190229039Y-100494000D02*
G75*
G03*
X192311130Y-100493837I1040961J1080000D01*
G01*
X189710000Y-100649516D02*
G75*
G03*
X192942335Y-100492608I1560000J1235516D01*
G01*
X192311130Y-98334163D02*
G75*
G03*
X190229039Y-98334000I-1041130J-1079837D01*
G01*
X189710000Y-98178000D02*
X189710000Y-98334000D01*
X189710000Y-100494000D02*
X189710000Y-100650000D01*
%TO.C,Voltage Membrane*%
X113579000Y-119616000D02*
X113579000Y-115680000D01*
X121970000Y-127920000D02*
X123620000Y-127920000D01*
X123620000Y-119616000D02*
X123620000Y-115680000D01*
X119471000Y-127920000D02*
X120230000Y-127920000D01*
X113579000Y-127920000D02*
X114900000Y-127920000D01*
X123620000Y-127920000D02*
X123620000Y-123983000D01*
X117350000Y-127920000D02*
X117730000Y-127920000D01*
X113579000Y-115680000D02*
X123620000Y-115680000D01*
X113579000Y-127920000D02*
X113579000Y-123983000D01*
%TO.C,100\u03A9*%
X178410000Y-103970000D02*
X184950000Y-103970000D01*
X184950000Y-101230000D02*
X178410000Y-101230000D01*
X177640000Y-102600000D02*
X178410000Y-102600000D01*
X178410000Y-101230000D02*
X178410000Y-103970000D01*
X184950000Y-103970000D02*
X184950000Y-101230000D01*
X185720000Y-102600000D02*
X184950000Y-102600000D01*
%TO.C,MCP3208*%
X131660000Y-63670000D02*
X131660000Y-84110000D01*
X136960000Y-84110000D02*
X136960000Y-63670000D01*
X136960000Y-63670000D02*
X135310000Y-63670000D01*
X131660000Y-84110000D02*
X136960000Y-84110000D01*
X133310000Y-63670000D02*
X131660000Y-63670000D01*
X133310000Y-63670000D02*
G75*
G03*
X135310000Y-63670000I1000000J0D01*
G01*
%TO.C,1\u03BCF*%
X142032600Y-90910000D02*
X142032600Y-89716000D01*
X141311600Y-90910000D02*
X141311600Y-90015000D01*
X141952600Y-90910000D02*
X141952600Y-89734000D01*
X141671600Y-90910000D02*
X141671600Y-89826000D01*
X142032600Y-93784000D02*
X142032600Y-92590000D01*
X142152600Y-93806000D02*
X142152600Y-92590000D01*
X141231600Y-90910000D02*
X141231600Y-90070000D01*
X142432600Y-93830000D02*
X142432600Y-89670000D01*
X142072600Y-93792000D02*
X142072600Y-92590000D01*
X142072600Y-90910000D02*
X142072600Y-89708000D01*
X141431600Y-93558000D02*
X141431600Y-92590000D01*
X141832600Y-93732000D02*
X141832600Y-92590000D01*
X141271600Y-90910000D02*
X141271600Y-90042000D01*
X141511600Y-93601000D02*
X141511600Y-92590000D01*
X140951600Y-90910000D02*
X140951600Y-90312000D01*
X140471600Y-92414000D02*
X140471600Y-91086000D01*
X141151600Y-90910000D02*
X141151600Y-90131000D01*
X141591600Y-93639000D02*
X141591600Y-92590000D01*
X141792600Y-93718000D02*
X141792600Y-92590000D01*
X140791600Y-90910000D02*
X140791600Y-90496000D01*
X141271600Y-93458000D02*
X141271600Y-92590000D01*
X141551600Y-90910000D02*
X141551600Y-89880000D01*
X142272600Y-90910000D02*
X142272600Y-89679000D01*
X141071600Y-93302000D02*
X141071600Y-92590000D01*
X141191600Y-90910000D02*
X141191600Y-90100000D01*
X142352600Y-93827000D02*
X142352600Y-89673000D01*
X141631600Y-93657000D02*
X141631600Y-92590000D01*
X141471600Y-90910000D02*
X141471600Y-89920000D01*
X142152600Y-90910000D02*
X142152600Y-89694000D01*
X141551600Y-93620000D02*
X141551600Y-92590000D01*
X141191600Y-93400000D02*
X141191600Y-92590000D01*
X142232600Y-90910000D02*
X142232600Y-89683000D01*
X141511600Y-90910000D02*
X141511600Y-89899000D01*
X140631600Y-92763000D02*
X140631600Y-90737000D01*
X141591600Y-90910000D02*
X141591600Y-89861000D01*
X141031600Y-93266000D02*
X141031600Y-92590000D01*
X141912600Y-93755000D02*
X141912600Y-92590000D01*
X141111600Y-93337000D02*
X141111600Y-92590000D01*
X140911600Y-93146000D02*
X140911600Y-92590000D01*
X141231600Y-93430000D02*
X141231600Y-92590000D01*
X141311600Y-93485000D02*
X141311600Y-92590000D01*
X141631600Y-90910000D02*
X141631600Y-89843000D01*
X140711600Y-90910000D02*
X140711600Y-90608000D01*
X141471600Y-93580000D02*
X141471600Y-92590000D01*
X140551600Y-92609000D02*
X140551600Y-90891000D01*
X140831600Y-90910000D02*
X140831600Y-90446000D01*
X142392600Y-93829000D02*
X142392600Y-89671000D01*
X141071600Y-90910000D02*
X141071600Y-90198000D01*
X142272600Y-93821000D02*
X142272600Y-92590000D01*
X141992600Y-90910000D02*
X141992600Y-89725000D01*
X144542401Y-93145000D02*
X144542401Y-92745000D01*
X142192600Y-93812000D02*
X142192600Y-92590000D01*
X140831600Y-93054000D02*
X140831600Y-92590000D01*
X141431600Y-90910000D02*
X141431600Y-89942000D01*
X141751600Y-93704000D02*
X141751600Y-92590000D01*
X140431600Y-92287000D02*
X140431600Y-91213000D01*
X141391600Y-90910000D02*
X141391600Y-89965000D01*
X142312600Y-93824000D02*
X142312600Y-89676000D01*
X141031600Y-90910000D02*
X141031600Y-90234000D01*
X142112600Y-93800000D02*
X142112600Y-92590000D01*
X141151600Y-93369000D02*
X141151600Y-92590000D01*
X140591600Y-92690000D02*
X140591600Y-90810000D01*
X140791600Y-93004000D02*
X140791600Y-92590000D01*
X140871600Y-90910000D02*
X140871600Y-90399000D01*
X140511600Y-92518000D02*
X140511600Y-90982000D01*
X141872600Y-90910000D02*
X141872600Y-89756000D01*
X141751600Y-90910000D02*
X141751600Y-89796000D01*
X141792600Y-90910000D02*
X141792600Y-89782000D01*
X141952600Y-93766000D02*
X141952600Y-92590000D01*
X142232600Y-93817000D02*
X142232600Y-92590000D01*
X141912600Y-90910000D02*
X141912600Y-89745000D01*
X140991600Y-93228000D02*
X140991600Y-92590000D01*
X140671600Y-90910000D02*
X140671600Y-90670000D01*
X140391600Y-92120000D02*
X140391600Y-91380000D01*
X140751600Y-92950000D02*
X140751600Y-92590000D01*
X142112600Y-90910000D02*
X142112600Y-89700000D01*
X140951600Y-93188000D02*
X140951600Y-92590000D01*
X141992600Y-93775000D02*
X141992600Y-92590000D01*
X141832600Y-90910000D02*
X141832600Y-89768000D01*
X141711600Y-90910000D02*
X141711600Y-89810000D01*
X142472600Y-93830000D02*
X142472600Y-89670000D01*
X141351600Y-90910000D02*
X141351600Y-89990000D01*
X142192600Y-90910000D02*
X142192600Y-89688000D01*
X140751600Y-90910000D02*
X140751600Y-90550000D01*
X141111600Y-90910000D02*
X141111600Y-90163000D01*
X140911600Y-90910000D02*
X140911600Y-90354000D01*
X140711600Y-92892000D02*
X140711600Y-92590000D01*
X144742401Y-92945000D02*
X144342401Y-92945000D01*
X141711600Y-93690000D02*
X141711600Y-92590000D01*
X141391600Y-93535000D02*
X141391600Y-92590000D01*
X141671600Y-93674000D02*
X141671600Y-92590000D01*
X140991600Y-90910000D02*
X140991600Y-90272000D01*
X140671600Y-92830000D02*
X140671600Y-92590000D01*
X140871600Y-93101000D02*
X140871600Y-92590000D01*
X141872600Y-93744000D02*
X141872600Y-92590000D01*
X141351600Y-93510000D02*
X141351600Y-92590000D01*
X144592600Y-91750000D02*
G75*
G03*
X144592600Y-91750000I-2120000J0D01*
G01*
%TO.C,Stimulus Out*%
X219900000Y-130017500D02*
X208100000Y-130017500D01*
X208100000Y-130017500D02*
X208100000Y-118017500D01*
X208100000Y-118017500D02*
X219900000Y-118017500D01*
X219900000Y-118017500D02*
X219900000Y-130017500D01*
%TO.C,Reset Button*%
X130390000Y-51740000D02*
X130390000Y-55640000D01*
X130910000Y-55410000D02*
X130910000Y-55640000D01*
X138110000Y-51740000D02*
X138110000Y-55640000D01*
X137590000Y-55410000D02*
X137590000Y-55640000D01*
X137590000Y-58750000D02*
X138110000Y-58750000D01*
X130390000Y-51740000D02*
X138110000Y-51740000D01*
X130390000Y-58750000D02*
X130910000Y-58750000D01*
X138110000Y-58240000D02*
X138110000Y-58750000D01*
X130390000Y-58240000D02*
X130390000Y-58750000D01*
X130910000Y-55410000D02*
X131450000Y-55410000D01*
X130910000Y-58240000D02*
X130910000Y-58750000D01*
X137590000Y-58240000D02*
X137590000Y-58750000D01*
X137050000Y-55410000D02*
X137590000Y-55410000D01*
X132550000Y-55410000D02*
X135950000Y-55410000D01*
%TO.C,10*%
X195710000Y-90633000D02*
X195710000Y-90789000D01*
X195710000Y-92949000D02*
X195710000Y-93105000D01*
X198942335Y-90790392D02*
G75*
G03*
X195710000Y-90633484I-1672335J-1078608D01*
G01*
X196229039Y-92949000D02*
G75*
G03*
X198311130Y-92948837I1040961J1080000D01*
G01*
X198311130Y-90789163D02*
G75*
G03*
X196229039Y-90789000I-1041130J-1079837D01*
G01*
X195710000Y-93104516D02*
G75*
G03*
X198942335Y-92947608I1560000J1235516D01*
G01*
%TO.C,8*%
X198942335Y-105880392D02*
G75*
G03*
X195710000Y-105723484I-1672335J-1078608D01*
G01*
X196229039Y-108039000D02*
G75*
G03*
X198311130Y-108038837I1040961J1080000D01*
G01*
X198311130Y-105879163D02*
G75*
G03*
X196229039Y-105879000I-1041130J-1079837D01*
G01*
X195710000Y-108194516D02*
G75*
G03*
X198942335Y-108037608I1560000J1235516D01*
G01*
X195710000Y-105723000D02*
X195710000Y-105879000D01*
X195710000Y-108039000D02*
X195710000Y-108195000D01*
%TO.C,1\u03BCF*%
X140751600Y-68700000D02*
X140751600Y-68340000D01*
X142112600Y-69550000D02*
X142112600Y-68340000D01*
X142192600Y-66660000D02*
X142192600Y-65438000D01*
X141872600Y-69494000D02*
X141872600Y-68340000D01*
X141631600Y-69407000D02*
X141631600Y-68340000D01*
X141671600Y-66660000D02*
X141671600Y-65576000D01*
X140711600Y-66660000D02*
X140711600Y-66358000D01*
X142072600Y-69542000D02*
X142072600Y-68340000D01*
X141271600Y-69208000D02*
X141271600Y-68340000D01*
X141591600Y-66660000D02*
X141591600Y-65611000D01*
X141751600Y-66660000D02*
X141751600Y-65546000D01*
X140671600Y-66660000D02*
X140671600Y-66420000D01*
X141952600Y-66660000D02*
X141952600Y-65484000D01*
X140991600Y-68978000D02*
X140991600Y-68340000D01*
X141031600Y-66660000D02*
X141031600Y-65984000D01*
X140671600Y-68580000D02*
X140671600Y-68340000D01*
X140791600Y-66660000D02*
X140791600Y-66246000D01*
X141351600Y-66660000D02*
X141351600Y-65740000D01*
X141631600Y-66660000D02*
X141631600Y-65593000D01*
X140911600Y-68896000D02*
X140911600Y-68340000D01*
X141311600Y-66660000D02*
X141311600Y-65765000D01*
X141912600Y-66660000D02*
X141912600Y-65495000D01*
X142272600Y-69571000D02*
X142272600Y-68340000D01*
X141311600Y-69235000D02*
X141311600Y-68340000D01*
X141511600Y-66660000D02*
X141511600Y-65649000D01*
X140431600Y-68037000D02*
X140431600Y-66963000D01*
X142352600Y-69577000D02*
X142352600Y-65423000D01*
X140711600Y-68642000D02*
X140711600Y-68340000D01*
X141151600Y-69119000D02*
X141151600Y-68340000D01*
X141832600Y-69482000D02*
X141832600Y-68340000D01*
X144542401Y-68895000D02*
X144542401Y-68495000D01*
X140991600Y-66660000D02*
X140991600Y-66022000D01*
X141231600Y-66660000D02*
X141231600Y-65820000D01*
X141912600Y-69505000D02*
X141912600Y-68340000D01*
X140831600Y-66660000D02*
X140831600Y-66196000D01*
X141271600Y-66660000D02*
X141271600Y-65792000D01*
X141191600Y-66660000D02*
X141191600Y-65850000D01*
X140871600Y-68851000D02*
X140871600Y-68340000D01*
X141751600Y-69454000D02*
X141751600Y-68340000D01*
X140751600Y-66660000D02*
X140751600Y-66300000D01*
X142232600Y-66660000D02*
X142232600Y-65433000D01*
X140631600Y-68513000D02*
X140631600Y-66487000D01*
X141551600Y-69370000D02*
X141551600Y-68340000D01*
X142152600Y-69556000D02*
X142152600Y-68340000D01*
X141391600Y-66660000D02*
X141391600Y-65715000D01*
X142312600Y-69574000D02*
X142312600Y-65426000D01*
X142192600Y-69562000D02*
X142192600Y-68340000D01*
X141431600Y-69308000D02*
X141431600Y-68340000D01*
X141071600Y-66660000D02*
X141071600Y-65948000D01*
X141071600Y-69052000D02*
X141071600Y-68340000D01*
X141591600Y-69389000D02*
X141591600Y-68340000D01*
X142152600Y-66660000D02*
X142152600Y-65444000D01*
X141711600Y-69440000D02*
X141711600Y-68340000D01*
X144742401Y-68695000D02*
X144342401Y-68695000D01*
X140591600Y-68440000D02*
X140591600Y-66560000D01*
X141792600Y-66660000D02*
X141792600Y-65532000D01*
X140551600Y-68359000D02*
X140551600Y-66641000D01*
X140471600Y-68164000D02*
X140471600Y-66836000D01*
X141431600Y-66660000D02*
X141431600Y-65692000D01*
X141111600Y-69087000D02*
X141111600Y-68340000D01*
X140911600Y-66660000D02*
X140911600Y-66104000D01*
X141992600Y-66660000D02*
X141992600Y-65475000D01*
X142072600Y-66660000D02*
X142072600Y-65458000D01*
X142272600Y-66660000D02*
X142272600Y-65429000D01*
X141992600Y-69525000D02*
X141992600Y-68340000D01*
X141832600Y-66660000D02*
X141832600Y-65518000D01*
X141111600Y-66660000D02*
X141111600Y-65913000D01*
X140871600Y-66660000D02*
X140871600Y-66149000D01*
X141711600Y-66660000D02*
X141711600Y-65560000D01*
X141031600Y-69016000D02*
X141031600Y-68340000D01*
X141872600Y-66660000D02*
X141872600Y-65506000D01*
X141151600Y-66660000D02*
X141151600Y-65881000D01*
X141351600Y-69260000D02*
X141351600Y-68340000D01*
X140951600Y-66660000D02*
X140951600Y-66062000D01*
X142232600Y-69567000D02*
X142232600Y-68340000D01*
X141952600Y-69516000D02*
X141952600Y-68340000D01*
X142472600Y-69580000D02*
X142472600Y-65420000D01*
X140831600Y-68804000D02*
X140831600Y-68340000D01*
X141471600Y-69330000D02*
X141471600Y-68340000D01*
X140511600Y-68268000D02*
X140511600Y-66732000D01*
X140951600Y-68938000D02*
X140951600Y-68340000D01*
X141551600Y-66660000D02*
X141551600Y-65630000D01*
X141391600Y-69285000D02*
X141391600Y-68340000D01*
X141511600Y-69351000D02*
X141511600Y-68340000D01*
X142112600Y-66660000D02*
X142112600Y-65450000D01*
X142032600Y-66660000D02*
X142032600Y-65466000D01*
X141231600Y-69180000D02*
X141231600Y-68340000D01*
X142392600Y-69579000D02*
X142392600Y-65421000D01*
X141471600Y-66660000D02*
X141471600Y-65670000D01*
X140391600Y-67870000D02*
X140391600Y-67130000D01*
X140791600Y-68754000D02*
X140791600Y-68340000D01*
X141671600Y-69424000D02*
X141671600Y-68340000D01*
X141191600Y-69150000D02*
X141191600Y-68340000D01*
X141792600Y-69468000D02*
X141792600Y-68340000D01*
X142432600Y-69580000D02*
X142432600Y-65420000D01*
X142032600Y-69534000D02*
X142032600Y-68340000D01*
X144592600Y-67500000D02*
G75*
G03*
X144592600Y-67500000I-2120000J0D01*
G01*
%TO.C,100\u03A9*%
X178310000Y-94970000D02*
X184850000Y-94970000D01*
X184850000Y-92230000D02*
X178310000Y-92230000D01*
X178310000Y-92230000D02*
X178310000Y-94970000D01*
X184850000Y-94970000D02*
X184850000Y-92230000D01*
X177540000Y-93600000D02*
X178310000Y-93600000D01*
X185620000Y-93600000D02*
X184850000Y-93600000D01*
%TO.C,12*%
X195710000Y-75543000D02*
X195710000Y-75699000D01*
X195710000Y-77859000D02*
X195710000Y-78015000D01*
X196229039Y-77859000D02*
G75*
G03*
X198311130Y-77858837I1040961J1080000D01*
G01*
X195710000Y-78014516D02*
G75*
G03*
X198942335Y-77857608I1560000J1235516D01*
G01*
X198942335Y-75700392D02*
G75*
G03*
X195710000Y-75543484I-1672335J-1078608D01*
G01*
X198311130Y-75699163D02*
G75*
G03*
X196229039Y-75699000I-1041130J-1079837D01*
G01*
%TO.C,11*%
X195710000Y-83088000D02*
X195710000Y-83244000D01*
X195710000Y-85404000D02*
X195710000Y-85560000D01*
X195710000Y-85559516D02*
G75*
G03*
X198942335Y-85402608I1560000J1235516D01*
G01*
X196229039Y-85404000D02*
G75*
G03*
X198311130Y-85403837I1040961J1080000D01*
G01*
X198942335Y-83245392D02*
G75*
G03*
X195710000Y-83088484I-1672335J-1078608D01*
G01*
X198311130Y-83244163D02*
G75*
G03*
X196229039Y-83244000I-1041130J-1079837D01*
G01*
%TO.C,9*%
X195710000Y-98178000D02*
X195710000Y-98334000D01*
X195710000Y-100494000D02*
X195710000Y-100650000D01*
X196229039Y-100494000D02*
G75*
G03*
X198311130Y-100493837I1040961J1080000D01*
G01*
X198311130Y-98334163D02*
G75*
G03*
X196229039Y-98334000I-1041130J-1079837D01*
G01*
X195710000Y-100649516D02*
G75*
G03*
X198942335Y-100492608I1560000J1235516D01*
G01*
X198942335Y-98335392D02*
G75*
G03*
X195710000Y-98178484I-1672335J-1078608D01*
G01*
%TO.C,10\u03A9*%
X203070000Y-65930000D02*
X196530000Y-65930000D01*
X203840000Y-67300000D02*
X203070000Y-67300000D01*
X195760000Y-67300000D02*
X196530000Y-67300000D01*
X203070000Y-68670000D02*
X203070000Y-65930000D01*
X196530000Y-68670000D02*
X203070000Y-68670000D01*
X196530000Y-65930000D02*
X196530000Y-68670000D01*
%TO.C,Photodiode*%
X144685000Y-119755000D02*
X144685000Y-122845000D01*
X150235000Y-121300462D02*
G75*
G03*
X144685000Y-119755170I-2990000J462D01*
G01*
X144685000Y-122844830D02*
G75*
G03*
X150235000Y-121299538I2560000J1544830D01*
G01*
X149745000Y-121300000D02*
G75*
G03*
X149745000Y-121300000I-2500000J0D01*
G01*
%TO.C,Stimulus*%
X208379000Y-84316000D02*
X208379000Y-80380000D01*
X218420000Y-92620000D02*
X218420000Y-88683000D01*
X208379000Y-92620000D02*
X208379000Y-88683000D01*
X212150000Y-92620000D02*
X212530000Y-92620000D01*
X208379000Y-92620000D02*
X209700000Y-92620000D01*
X216770000Y-92620000D02*
X218420000Y-92620000D01*
X218420000Y-84316000D02*
X218420000Y-80380000D01*
X208379000Y-80380000D02*
X218420000Y-80380000D01*
X214271000Y-92620000D02*
X215030000Y-92620000D01*
%TO.C,Synapse2 Gain*%
X111770000Y-101120000D02*
X111770000Y-97183000D01*
X111770000Y-92816000D02*
X111770000Y-88880000D01*
X107621000Y-101120000D02*
X108380000Y-101120000D01*
X105500000Y-101120000D02*
X105880000Y-101120000D01*
X101729000Y-88880000D02*
X111770000Y-88880000D01*
X110120000Y-101120000D02*
X111770000Y-101120000D01*
X101729000Y-101120000D02*
X103050000Y-101120000D01*
X101729000Y-92816000D02*
X101729000Y-88880000D01*
X101729000Y-101120000D02*
X101729000Y-97183000D01*
%TO.C,Synapse In 2*%
X99982500Y-88700000D02*
X111982500Y-88700000D01*
X111982500Y-88700000D02*
X111982500Y-76900000D01*
X111982500Y-76900000D02*
X99982500Y-76900000D01*
X99982500Y-76900000D02*
X99982500Y-88700000D01*
%TO.C,2*%
X190229039Y-108039000D02*
G75*
G03*
X192311130Y-108038837I1040961J1080000D01*
G01*
X192311130Y-105879163D02*
G75*
G03*
X190229039Y-105879000I-1041130J-1079837D01*
G01*
X189710000Y-108194516D02*
G75*
G03*
X192942335Y-108037608I1560000J1235516D01*
G01*
X192942335Y-105880392D02*
G75*
G03*
X189710000Y-105723484I-1672335J-1078608D01*
G01*
X189710000Y-105723000D02*
X189710000Y-105879000D01*
X189710000Y-108039000D02*
X189710000Y-108195000D01*
%TO.C,4*%
X189710000Y-90633000D02*
X189710000Y-90789000D01*
X189710000Y-92949000D02*
X189710000Y-93105000D01*
X190229039Y-92949000D02*
G75*
G03*
X192311130Y-92948837I1040961J1080000D01*
G01*
X192311130Y-90789163D02*
G75*
G03*
X190229039Y-90789000I-1041130J-1079837D01*
G01*
X192942335Y-90790392D02*
G75*
G03*
X189710000Y-90633484I-1672335J-1078608D01*
G01*
X189710000Y-93104516D02*
G75*
G03*
X192942335Y-92947608I1560000J1235516D01*
G01*
%TO.C,Current In*%
X111900000Y-130017500D02*
X100100000Y-130017500D01*
X100100000Y-130017500D02*
X100100000Y-118017500D01*
X100100000Y-118017500D02*
X111900000Y-118017500D01*
X111900000Y-118017500D02*
X111900000Y-130017500D01*
%TO.C,100\u03A9*%
X185620000Y-89100000D02*
X184850000Y-89100000D01*
X184850000Y-90470000D02*
X184850000Y-87730000D01*
X184850000Y-87730000D02*
X178310000Y-87730000D01*
X177540000Y-89100000D02*
X178310000Y-89100000D01*
X178310000Y-87730000D02*
X178310000Y-90470000D01*
X178310000Y-90470000D02*
X184850000Y-90470000D01*
%TO.C,10k\u03A9*%
X184950000Y-105730000D02*
X178410000Y-105730000D01*
X178410000Y-108470000D02*
X184950000Y-108470000D01*
X177640000Y-107100000D02*
X178410000Y-107100000D01*
X185720000Y-107100000D02*
X184950000Y-107100000D01*
X178410000Y-105730000D02*
X178410000Y-108470000D01*
X184950000Y-108470000D02*
X184950000Y-105730000D01*
%TO.C,Photodiode Gain*%
X154979000Y-127920000D02*
X154979000Y-123983000D01*
X165020000Y-119616000D02*
X165020000Y-115680000D01*
X154979000Y-119616000D02*
X154979000Y-115680000D01*
X165020000Y-127920000D02*
X165020000Y-123983000D01*
X160871000Y-127920000D02*
X161630000Y-127920000D01*
X154979000Y-115680000D02*
X165020000Y-115680000D01*
X154979000Y-127920000D02*
X156300000Y-127920000D01*
X163370000Y-127920000D02*
X165020000Y-127920000D01*
X158750000Y-127920000D02*
X159130000Y-127920000D01*
%TO.C,1nF*%
X198451600Y-60560000D02*
X198451600Y-59640000D01*
X198171600Y-60560000D02*
X198171600Y-59848000D01*
X197931600Y-60560000D02*
X197931600Y-60096000D01*
X198211600Y-60560000D02*
X198211600Y-59813000D01*
X197971600Y-62751000D02*
X197971600Y-62240000D01*
X198051600Y-60560000D02*
X198051600Y-59962000D01*
X198691600Y-60560000D02*
X198691600Y-59511000D01*
X198251600Y-60560000D02*
X198251600Y-59781000D01*
X197811600Y-60560000D02*
X197811600Y-60258000D01*
X198491600Y-63185000D02*
X198491600Y-62240000D01*
X198691600Y-63289000D02*
X198691600Y-62240000D01*
X198291600Y-60560000D02*
X198291600Y-59750000D01*
X199132600Y-60560000D02*
X199132600Y-59366000D01*
X198811600Y-60560000D02*
X198811600Y-59460000D01*
X198611600Y-63251000D02*
X198611600Y-62240000D01*
X199172600Y-63442000D02*
X199172600Y-62240000D01*
X198851600Y-60560000D02*
X198851600Y-59446000D01*
X198371600Y-60560000D02*
X198371600Y-59692000D01*
X199212600Y-63450000D02*
X199212600Y-62240000D01*
X198091600Y-60560000D02*
X198091600Y-59922000D01*
X197771600Y-62480000D02*
X197771600Y-62240000D01*
X198171600Y-62952000D02*
X198171600Y-62240000D01*
X198331600Y-63080000D02*
X198331600Y-62240000D01*
X198011600Y-62796000D02*
X198011600Y-62240000D01*
X199252600Y-63456000D02*
X199252600Y-62240000D01*
X198371600Y-63108000D02*
X198371600Y-62240000D01*
X197851600Y-62600000D02*
X197851600Y-62240000D01*
X197771600Y-60560000D02*
X197771600Y-60320000D01*
X197571600Y-62064000D02*
X197571600Y-60736000D01*
X199012600Y-60560000D02*
X199012600Y-59395000D01*
X198051600Y-62838000D02*
X198051600Y-62240000D01*
X198811600Y-63340000D02*
X198811600Y-62240000D01*
X198131600Y-60560000D02*
X198131600Y-59884000D01*
X199372600Y-63471000D02*
X199372600Y-62240000D01*
X197651600Y-62259000D02*
X197651600Y-60541000D01*
X198851600Y-63354000D02*
X198851600Y-62240000D01*
X199492600Y-63479000D02*
X199492600Y-59321000D01*
X198131600Y-62916000D02*
X198131600Y-62240000D01*
X198091600Y-62878000D02*
X198091600Y-62240000D01*
X199332600Y-60560000D02*
X199332600Y-59333000D01*
X198932600Y-63382000D02*
X198932600Y-62240000D01*
X199572600Y-63480000D02*
X199572600Y-59320000D01*
X198411600Y-63135000D02*
X198411600Y-62240000D01*
X198531600Y-60560000D02*
X198531600Y-59592000D01*
X198932600Y-60560000D02*
X198932600Y-59418000D01*
X197531600Y-61937000D02*
X197531600Y-60863000D01*
X199052600Y-63416000D02*
X199052600Y-62240000D01*
X199092600Y-60560000D02*
X199092600Y-59375000D01*
X199052600Y-60560000D02*
X199052600Y-59384000D01*
X197971600Y-60560000D02*
X197971600Y-60049000D01*
X198211600Y-62987000D02*
X198211600Y-62240000D01*
X199412600Y-63474000D02*
X199412600Y-59326000D01*
X198651600Y-63270000D02*
X198651600Y-62240000D01*
X199532600Y-63480000D02*
X199532600Y-59320000D01*
X197851600Y-60560000D02*
X197851600Y-60200000D01*
X198892600Y-60560000D02*
X198892600Y-59432000D01*
X198411600Y-60560000D02*
X198411600Y-59665000D01*
X201842401Y-62595000D02*
X201442401Y-62595000D01*
X199092600Y-63425000D02*
X199092600Y-62240000D01*
X198892600Y-63368000D02*
X198892600Y-62240000D01*
X198291600Y-63050000D02*
X198291600Y-62240000D01*
X197931600Y-62704000D02*
X197931600Y-62240000D01*
X198571600Y-63230000D02*
X198571600Y-62240000D01*
X199452600Y-63477000D02*
X199452600Y-59323000D01*
X198531600Y-63208000D02*
X198531600Y-62240000D01*
X198972600Y-63394000D02*
X198972600Y-62240000D01*
X198651600Y-60560000D02*
X198651600Y-59530000D01*
X199212600Y-60560000D02*
X199212600Y-59350000D01*
X199332600Y-63467000D02*
X199332600Y-62240000D01*
X198731600Y-63307000D02*
X198731600Y-62240000D01*
X197691600Y-62340000D02*
X197691600Y-60460000D01*
X198491600Y-60560000D02*
X198491600Y-59615000D01*
X198972600Y-60560000D02*
X198972600Y-59406000D01*
X197611600Y-62168000D02*
X197611600Y-60632000D01*
X199292600Y-60560000D02*
X199292600Y-59338000D01*
X199292600Y-63462000D02*
X199292600Y-62240000D01*
X199132600Y-63434000D02*
X199132600Y-62240000D01*
X198451600Y-63160000D02*
X198451600Y-62240000D01*
X199252600Y-60560000D02*
X199252600Y-59344000D01*
X198771600Y-63324000D02*
X198771600Y-62240000D01*
X197891600Y-62654000D02*
X197891600Y-62240000D01*
X199012600Y-63405000D02*
X199012600Y-62240000D01*
X198771600Y-60560000D02*
X198771600Y-59476000D01*
X198251600Y-63019000D02*
X198251600Y-62240000D01*
X198331600Y-60560000D02*
X198331600Y-59720000D01*
X197491600Y-61770000D02*
X197491600Y-61030000D01*
X197731600Y-62413000D02*
X197731600Y-60387000D01*
X201642401Y-62795000D02*
X201642401Y-62395000D01*
X199372600Y-60560000D02*
X199372600Y-59329000D01*
X198011600Y-60560000D02*
X198011600Y-60004000D01*
X199172600Y-60560000D02*
X199172600Y-59358000D01*
X198731600Y-60560000D02*
X198731600Y-59493000D01*
X198611600Y-60560000D02*
X198611600Y-59549000D01*
X197811600Y-62542000D02*
X197811600Y-62240000D01*
X198571600Y-60560000D02*
X198571600Y-59570000D01*
X197891600Y-60560000D02*
X197891600Y-60146000D01*
X201692600Y-61400000D02*
G75*
G03*
X201692600Y-61400000I-2120000J0D01*
G01*
%TO.C,100\u03A9*%
X185620000Y-84600000D02*
X184850000Y-84600000D01*
X177540000Y-84600000D02*
X178310000Y-84600000D01*
X184850000Y-83230000D02*
X178310000Y-83230000D01*
X178310000Y-83230000D02*
X178310000Y-85970000D01*
X184850000Y-85970000D02*
X184850000Y-83230000D01*
X178310000Y-85970000D02*
X184850000Y-85970000D01*
X178330000Y-74230000D02*
X178330000Y-76970000D01*
X184870000Y-76970000D02*
X184870000Y-74230000D01*
X185640000Y-75600000D02*
X184870000Y-75600000D01*
X184870000Y-74230000D02*
X178330000Y-74230000D01*
X178330000Y-76970000D02*
X184870000Y-76970000D01*
X177560000Y-75600000D02*
X178330000Y-75600000D01*
%TO.C,Spike Buzzer*%
X192650000Y-62300000D02*
G75*
G03*
X192650000Y-62300000I-5750000J0D01*
G01*
%TO.C,100\u03A9*%
X178310000Y-78730000D02*
X178310000Y-81470000D01*
X178310000Y-81470000D02*
X184850000Y-81470000D01*
X184850000Y-78730000D02*
X178310000Y-78730000D01*
X177540000Y-80100000D02*
X178310000Y-80100000D01*
X185620000Y-80100000D02*
X184850000Y-80100000D01*
X184850000Y-81470000D02*
X184850000Y-78730000D01*
%TO.C,Mode Button*%
X196500000Y-118250000D02*
X192000000Y-118250000D01*
X197750000Y-122250000D02*
X197750000Y-120750000D01*
X192000000Y-124750000D02*
X196500000Y-124750000D01*
X190750000Y-120750000D02*
X190750000Y-122250000D01*
D13*
%TO.C,ESP32 Wroom-32 Dev Module*%
X145800000Y-53750000D02*
X173700000Y-53750000D01*
X173700000Y-53750000D02*
X173700000Y-108150000D01*
X173700000Y-108150000D02*
X145800000Y-108150000D01*
X145800000Y-108150000D02*
X145800000Y-53750000D01*
D12*
%TO.C,7*%
X196229039Y-115584000D02*
G75*
G03*
X198311130Y-115583837I1040961J1080000D01*
G01*
X195710000Y-115739516D02*
G75*
G03*
X198942335Y-115582608I1560000J1235516D01*
G01*
X198942335Y-113425392D02*
G75*
G03*
X195710000Y-113268484I-1672335J-1078608D01*
G01*
X198311130Y-113424163D02*
G75*
G03*
X196229039Y-113424000I-1041130J-1079837D01*
G01*
X195710000Y-113268000D02*
X195710000Y-113424000D01*
X195710000Y-115584000D02*
X195710000Y-115740000D01*
%TO.C,5*%
X189710000Y-83088000D02*
X189710000Y-83244000D01*
X189710000Y-85404000D02*
X189710000Y-85560000D01*
X190229039Y-85404000D02*
G75*
G03*
X192311130Y-85403837I1040961J1080000D01*
G01*
X192942335Y-83245392D02*
G75*
G03*
X189710000Y-83088484I-1672335J-1078608D01*
G01*
X189710000Y-85559516D02*
G75*
G03*
X192942335Y-85402608I1560000J1235516D01*
G01*
X192311130Y-83244163D02*
G75*
G03*
X190229039Y-83244000I-1041130J-1079837D01*
G01*
%TD*%
M02*
