%TF.GenerationSoftware,KiCad,Pcbnew,(6.0.4)*%
%TF.CreationDate,2022-09-22T00:21:37+02:00*%
%TF.ProjectId,Spikeling_V2.2,5370696b-656c-4696-9e67-5f56322e322e,rev?*%
%TF.SameCoordinates,Original*%
%TF.FileFunction,Soldermask,Top*%
%TF.FilePolarity,Negative*%
%FSLAX46Y46*%
G04 Gerber Fmt 4.6, Leading zero omitted, Abs format (unit mm)*
G04 Created by KiCad (PCBNEW (6.0.4)) date 2022-09-22 00:21:37*
%MOMM*%
%LPD*%
G01*
G04 APERTURE LIST*
G04 Aperture macros list*
%AMRoundRect*
0 Rectangle with rounded corners*
0 $1 Rounding radius*
0 $2 $3 $4 $5 $6 $7 $8 $9 X,Y pos of 4 corners*
0 Add a 4 corners polygon primitive as box body*
4,1,4,$2,$3,$4,$5,$6,$7,$8,$9,$2,$3,0*
0 Add four circle primitives for the rounded corners*
1,1,$1+$1,$2,$3*
1,1,$1+$1,$4,$5*
1,1,$1+$1,$6,$7*
1,1,$1+$1,$8,$9*
0 Add four rect primitives between the rounded corners*
20,1,$1+$1,$2,$3,$4,$5,0*
20,1,$1+$1,$4,$5,$6,$7,0*
20,1,$1+$1,$6,$7,$8,$9,0*
20,1,$1+$1,$8,$9,$2,$3,0*%
G04 Aperture macros list end*
%ADD10O,1.800000X1.070000*%
%ADD11R,1.800000X1.070000*%
%ADD12C,5.600000*%
%ADD13R,1.800000X1.800000*%
%ADD14C,1.800000*%
%ADD15C,1.600000*%
%ADD16O,1.600000X1.600000*%
%ADD17R,1.600000X1.600000*%
%ADD18RoundRect,0.750000X0.750000X-1.250000X0.750000X1.250000X-0.750000X1.250000X-0.750000X-1.250000X0*%
%ADD19C,1.300000*%
%ADD20RoundRect,0.200000X0.550000X0.200000X-0.550000X0.200000X-0.550000X-0.200000X0.550000X-0.200000X0*%
%ADD21RoundRect,0.200000X-0.200000X0.550000X-0.200000X-0.550000X0.200000X-0.550000X0.200000X0.550000X0*%
%ADD22RoundRect,0.200000X-0.550000X-0.200000X0.550000X-0.200000X0.550000X0.200000X-0.550000X0.200000X0*%
%ADD23RoundRect,0.200000X0.200000X-0.550000X0.200000X0.550000X-0.200000X0.550000X-0.200000X-0.550000X0*%
%ADD24R,1.200000X1.200000*%
%ADD25C,1.200000*%
%ADD26C,2.100000*%
%ADD27C,1.750000*%
%ADD28R,2.000000X2.000000*%
%ADD29C,2.000000*%
%ADD30R,1.560000X1.560000*%
%ADD31C,1.560000*%
G04 APERTURE END LIST*
D10*
%TO.C,Spike_LED*%
X177200000Y-62030000D03*
D11*
X177200000Y-63300000D03*
D10*
X177200000Y-60760000D03*
X177200000Y-59490000D03*
%TD*%
D12*
%TO.C, *%
X120000000Y-55000000D03*
%TD*%
D13*
%TO.C,6*%
X190000000Y-76779000D03*
D14*
X192540000Y-76779000D03*
%TD*%
%TO.C,1*%
X192540000Y-114504000D03*
D13*
X190000000Y-114504000D03*
%TD*%
D15*
%TO.C,10k\u03A9*%
X186660000Y-98100000D03*
D16*
X176500000Y-98100000D03*
%TD*%
D17*
%TO.C,MCP3208*%
X130500000Y-89125000D03*
D16*
X130500000Y-91665000D03*
X130500000Y-94205000D03*
X130500000Y-96745000D03*
X130500000Y-99285000D03*
X130500000Y-101825000D03*
X130500000Y-104365000D03*
X130500000Y-106905000D03*
X138120000Y-106905000D03*
X138120000Y-104365000D03*
X138120000Y-101825000D03*
X138120000Y-99285000D03*
X138120000Y-96745000D03*
X138120000Y-94205000D03*
X138120000Y-91665000D03*
X138120000Y-89125000D03*
%TD*%
D13*
%TO.C,Stimulus*%
X210900000Y-115500000D03*
D14*
X213400000Y-115500000D03*
X215900000Y-115500000D03*
D18*
X217800000Y-108500000D03*
X209000000Y-108500000D03*
%TD*%
D13*
%TO.C,Noise*%
X175500000Y-128800000D03*
D14*
X178000000Y-128800000D03*
X180500000Y-128800000D03*
D18*
X173600000Y-121800000D03*
X182400000Y-121800000D03*
%TD*%
D19*
%TO.C,Synapse In 1*%
X101882500Y-51100000D03*
X104382500Y-51100000D03*
X108382500Y-56100000D03*
X101882500Y-61100000D03*
X104382500Y-61100000D03*
D20*
X108382500Y-61100000D03*
D21*
X104382500Y-56100000D03*
D20*
X108382500Y-51100000D03*
%TD*%
D19*
%TO.C,Synapse Out*%
X215600000Y-59000000D03*
X215600000Y-69000000D03*
X218100000Y-59000000D03*
X211600000Y-64000000D03*
X218100000Y-69000000D03*
D22*
X211600000Y-59000000D03*
D23*
X215600000Y-64000000D03*
D22*
X211600000Y-69000000D03*
%TD*%
D13*
%TO.C,Synapse1 Gain*%
X104250000Y-75500000D03*
D14*
X106750000Y-75500000D03*
X109250000Y-75500000D03*
D18*
X111150000Y-68500000D03*
X102350000Y-68500000D03*
%TD*%
D14*
%TO.C,3*%
X192540000Y-99414000D03*
D13*
X190000000Y-99414000D03*
%TD*%
%TO.C,Voltage Membrane*%
X116100000Y-128800000D03*
D14*
X118600000Y-128800000D03*
X121100000Y-128800000D03*
D18*
X114200000Y-121800000D03*
X123000000Y-121800000D03*
%TD*%
D15*
%TO.C,100\u03A9*%
X176600000Y-102600000D03*
D16*
X186760000Y-102600000D03*
%TD*%
D12*
%TO.C, *%
X204000000Y-55000000D03*
%TD*%
D17*
%TO.C,MCP3208*%
X130500000Y-65000000D03*
D16*
X130500000Y-67540000D03*
X130500000Y-70080000D03*
X130500000Y-72620000D03*
X130500000Y-75160000D03*
X130500000Y-77700000D03*
X130500000Y-80240000D03*
X130500000Y-82780000D03*
X138120000Y-82780000D03*
X138120000Y-80240000D03*
X138120000Y-77700000D03*
X138120000Y-75160000D03*
X138120000Y-72620000D03*
X138120000Y-70080000D03*
X138120000Y-67540000D03*
X138120000Y-65000000D03*
%TD*%
D24*
%TO.C,1\u03BCF*%
X143472600Y-91750000D03*
D25*
X141472600Y-91750000D03*
%TD*%
D19*
%TO.C,Stimulus Out*%
X219000000Y-125617500D03*
X219000000Y-128117500D03*
X209000000Y-128117500D03*
X214000000Y-121617500D03*
X209000000Y-125617500D03*
D21*
X219000000Y-121617500D03*
D22*
X214000000Y-125617500D03*
D21*
X209000000Y-121617500D03*
%TD*%
D26*
%TO.C,Reset Button*%
X137760000Y-56930000D03*
X130750000Y-56930000D03*
D27*
X132000000Y-54440000D03*
X136500000Y-54440000D03*
%TD*%
D13*
%TO.C,10*%
X196000000Y-91869000D03*
D14*
X198540000Y-91869000D03*
%TD*%
%TO.C,8*%
X198540000Y-106959000D03*
D13*
X196000000Y-106959000D03*
%TD*%
D24*
%TO.C,1\u03BCF*%
X143472600Y-67500000D03*
D25*
X141472600Y-67500000D03*
%TD*%
D15*
%TO.C,100\u03A9*%
X176500000Y-93600000D03*
D16*
X186660000Y-93600000D03*
%TD*%
D13*
%TO.C,12*%
X196000000Y-76779000D03*
D14*
X198540000Y-76779000D03*
%TD*%
D13*
%TO.C,11*%
X196000000Y-84324000D03*
D14*
X198540000Y-84324000D03*
%TD*%
D13*
%TO.C,9*%
X196000000Y-99414000D03*
D14*
X198540000Y-99414000D03*
%TD*%
D15*
%TO.C,10\u03A9*%
X194720000Y-67300000D03*
D16*
X204880000Y-67300000D03*
%TD*%
D13*
%TO.C,Photodiode*%
X145975000Y-121300000D03*
D14*
X148515000Y-121300000D03*
%TD*%
D13*
%TO.C,Stimulus*%
X210900000Y-93500000D03*
D14*
X213400000Y-93500000D03*
X215900000Y-93500000D03*
D18*
X217800000Y-86500000D03*
X209000000Y-86500000D03*
%TD*%
D13*
%TO.C,Synapse2 Gain*%
X104250000Y-102000000D03*
D14*
X106750000Y-102000000D03*
X109250000Y-102000000D03*
D18*
X102350000Y-95000000D03*
X111150000Y-95000000D03*
%TD*%
D19*
%TO.C,Synapse In 2*%
X104382500Y-77800000D03*
X101882500Y-87800000D03*
X101882500Y-77800000D03*
X108382500Y-82800000D03*
X104382500Y-87800000D03*
D20*
X108382500Y-87800000D03*
D21*
X104382500Y-82800000D03*
D20*
X108382500Y-77800000D03*
%TD*%
D14*
%TO.C,2*%
X192540000Y-106959000D03*
D13*
X190000000Y-106959000D03*
%TD*%
D12*
%TO.C, *%
X204000000Y-110000000D03*
%TD*%
D13*
%TO.C,4*%
X190000000Y-91869000D03*
D14*
X192540000Y-91869000D03*
%TD*%
D19*
%TO.C,Current In*%
X101000000Y-128117500D03*
X111000000Y-125617500D03*
X101000000Y-125617500D03*
X111000000Y-128117500D03*
X106000000Y-121617500D03*
D21*
X111000000Y-121617500D03*
D22*
X106000000Y-125617500D03*
D21*
X101000000Y-121617500D03*
%TD*%
D15*
%TO.C,100\u03A9*%
X176500000Y-89100000D03*
D16*
X186660000Y-89100000D03*
%TD*%
D15*
%TO.C,10k\u03A9*%
X176600000Y-107100000D03*
D16*
X186760000Y-107100000D03*
%TD*%
D13*
%TO.C,Photodiode Gain*%
X157500000Y-128800000D03*
D14*
X160000000Y-128800000D03*
X162500000Y-128800000D03*
D18*
X164400000Y-121800000D03*
X155600000Y-121800000D03*
%TD*%
D24*
%TO.C,1nF*%
X200572600Y-61400000D03*
D25*
X198572600Y-61400000D03*
%TD*%
D15*
%TO.C,100\u03A9*%
X176500000Y-84600000D03*
D16*
X186660000Y-84600000D03*
%TD*%
D15*
%TO.C,100\u03A9*%
X186680000Y-75600000D03*
D16*
X176520000Y-75600000D03*
%TD*%
D28*
%TO.C,Spike Buzzer*%
X186900000Y-59800000D03*
D29*
X186900000Y-64800000D03*
%TD*%
D12*
%TO.C, *%
X120000000Y-110000000D03*
%TD*%
D15*
%TO.C,100\u03A9*%
X176500000Y-80100000D03*
D16*
X186660000Y-80100000D03*
%TD*%
D29*
%TO.C,Mode Button*%
X191000000Y-123750000D03*
X197500000Y-123750000D03*
X197500000Y-119250000D03*
X191000000Y-119250000D03*
%TD*%
D30*
%TO.C,ESP32 Wroom-32 Dev Module*%
X172450000Y-100760000D03*
D31*
X172450000Y-98220000D03*
X172450000Y-95680000D03*
X172450000Y-93140000D03*
X172450000Y-90600000D03*
X172450000Y-88060000D03*
X172450000Y-85520000D03*
X172450000Y-82980000D03*
X172450000Y-80440000D03*
X172450000Y-77900000D03*
X172450000Y-75360000D03*
X172450000Y-72820000D03*
X172450000Y-70280000D03*
X172450000Y-67740000D03*
X172450000Y-65200000D03*
X172450000Y-62660000D03*
X172450000Y-60120000D03*
X172450000Y-57580000D03*
X172450000Y-55040000D03*
X147050000Y-100760000D03*
X147050000Y-98220000D03*
X147050000Y-95680000D03*
X147050000Y-93140000D03*
X147050000Y-90600000D03*
X147050000Y-88060000D03*
X147050000Y-85520000D03*
X147050000Y-82980000D03*
X147050000Y-80440000D03*
X147050000Y-77900000D03*
X147050000Y-75360000D03*
X147050000Y-72820000D03*
X147050000Y-70280000D03*
X147050000Y-67740000D03*
X147050000Y-65200000D03*
X147050000Y-62660000D03*
X147050000Y-60120000D03*
X147050000Y-57580000D03*
X147050000Y-55040000D03*
%TD*%
D14*
%TO.C,7*%
X198540000Y-114504000D03*
D13*
X196000000Y-114504000D03*
%TD*%
%TO.C,5*%
X190000000Y-84324000D03*
D14*
X192540000Y-84324000D03*
%TD*%
M02*
