<svg id="Layer_1" data-name="Layer 1" xmlns="http://www.w3.org/2000/svg" viewBox="0 0 800.19 200.19"><title>Lab Logo</title><path d="M50.5,151q-197.5,0-395,.09c-3.75,0-4.6-.84-4.6-4.59q.2-95.75,0-191.5c0-3.42.67-4.1,4.1-4.09q396,.15,792,0c3.42,0,4.1.67,4.1,4.09q-.2,96,0,192c0,3.42-.67,4.1-4.1,4.1Q248.75,150.93,50.5,151Z" transform="translate(349.1 49.09)" style="fill:none"/><path d="M-193.87,13.69c3.15-.55,4.88,1,6.72,1.91A289.32,289.32,0,0,1-136.94,48c1.63,1.29,3.69,2.39,1.24,5.07-24.82,27.22-53.55,48.46-89.88,57.45-22.3,5.52-44.25,4.92-64.46-7.92a67.86,67.86,0,0,1-23.08-24.4c-3.59-6.39-3.47-7,2.41-11.29.93-.68,2.07-1.14,2.32-2.45-9.5-5.9-9.57-6.5-1.14-14.17,2.07-1.88,4.44-5.06,6.73-4.49s1.49,4.61,2,7.12c5.76,26.16,30.18,45.52,56.84,45,27.22-.51,50.78-20.39,55.68-47C-185.88,38.08-188,25.82-193.87,13.69Z" transform="translate(349.1 49.09)" style="fill:#00c600"/><path d="M-244.69-4.18A44.36,44.36,0,0,1-200,40.44,44.33,44.33,0,0,1-244.7,85a44.77,44.77,0,0,1-44.87-44.6C-289.63,15.94-269.4-4.17-244.69-4.18Z" transform="translate(349.1 49.09)" style="fill:#007ffe"/><path d="M-2.59,32.14C2.68,34.31,7,36.58,9,41.49c3.48,8.62-2.27,19.77-13.72,21.25-8.75,1.13-17.75.2-26.65.25C-33.77,63-34,61.57-34,59.73Q-34,34-34,8.31c0-1.8.14-3.39,2.57-3.28,8.6.37,17.23-.85,25.81.7C.31,6.8,5.33,9.32,6.83,15.48c1.64,6.75-1.66,11.74-7.3,15.33Z" transform="translate(349.1 49.09)" style="fill:#829395"/><path d="M92,26c0-7.16.22-13.28-.08-19.37-.18-3.82,1.16-4.85,4.84-4.72,9.74.35,8.11-1,8.17,8.23.1,15.81-.1,31.62.11,47.43.06,4.07-.56,6.4-5.27,5.44a9.86,9.86,0,0,0-3.48,0c-3.38.56-5-.73-4.29-4.89-4.26,3.38-7.93,6.15-13.19,6-8.37-.32-13.89-4-16.13-12a31.05,31.05,0,0,1,.66-19.43A17.63,17.63,0,0,1,92,26Z" transform="translate(349.1 49.09)" style="fill:#829395"/><path d="M174.47,28c5.49-6.49,11.85-8.63,19.38-6,6,2.11,7.92,7.24,8.08,13,.23,7.81-.09,15.64.13,23.45.09,3.4-.84,4.69-4.43,4.57-9.81-.32-8.28.93-8.42-8.08-.09-5.32-.07-10.65-.1-16,0-4.25-1.25-7.57-6.19-8-4.23-.36-7,2.13-8.11,6.89-1.56,6.75-.87,13.59-.67,20.35.14,4.85-2.27,5-5.77,4.76-3.09-.22-6.69,1.22-6.48-4.53.4-10.63.29-21.29,0-31.93-.1-3.92,1.33-4.91,4.9-4.61C170.59,22.26,175.48,20.65,174.47,28Z" transform="translate(349.1 49.09)" style="fill:#829395"/><path d="M139.54,46c-2.83,0-5.67-.09-8.5,0-1.36.06-3.27-.76-3.91,1.16a4.67,4.67,0,0,0,1.45,5c4.57,4.59,10,3,15.42,2.54,1.61-.14,3.95-3.18,4.7-.08.67,2.76,2,7-2.8,8.2-7.69,1.86-15.5,2.49-22.85-1.1-4.72-2.3-7.36-6.65-8.43-11.73-1.79-8.5-1.08-16.72,5.38-23.13,5.85-5.81,13.15-7.39,21.15-4.87,8.57,2.71,14.14,13.27,11.84,22.1-.48,1.83-1.6,1.87-2.95,1.88-3.5,0-7,0-10.5,0Z" transform="translate(349.1 49.09)" style="fill:#829395"/><path d="M41,57.23c-4.13,5.33-8.29,7.33-13.77,6.86-5.63-.48-10-3.29-11.13-8.14-1.64-6.87.41-12.07,5.47-15.19,4.89-3,10.51-2.43,15.74-3.74,1.3-.33,3.31.7,3.57-1.59a4.47,4.47,0,0,0-2.65-4.84c-4-2-8-1.09-11.88.26-2,.68-3.93,1.48-6,2.25-1.1-9.52.46-11,12.32-12.07C46.1,19.85,53,26.15,53,39.59c0,6.48-.13,13,.05,19.45.08,3-.88,4.35-4,4a13.09,13.09,0,0,0-3,0C42.86,63.37,40.2,63,41,57.23Z" transform="translate(349.1 49.09)" style="fill:#829395"/><path d="M284.69,58.82c-.09,3.79-1.85,4.47-4.85,4.23-3.66-.28-2.6-2.89-2.61-4.77-.07-17.15,0-34.3,0-51.45,0-2.52-.42-5,3.61-4.92S284,4.45,284,6.65c0,6.78,0,13.56,0,21.11,2.58-1.87,4.34-3.62,6.46-4.62,11.63-5.49,21.77-.31,24.72,12.46s-2.33,24.51-12.82,27.6C296,65.09,289.87,64.81,284.69,58.82Z" transform="translate(349.1 49.09)" style="fill:#829395"/><path d="M-79.33,25.16c-2.71,5.1-7.16,8.46-10.49,12.7a146.2,146.2,0,0,1-11,12.25c-2.94,3-3.62,5.86-1.95,9.82,2.22,5.25,3.83,10.76,5.7,16.16l-1.07.71-33.42-25.66C-125.92,46.86-83.17,25.53-79.33,25.16Z" transform="translate(349.1 49.09)" style="fill:#c60000"/><path d="M257.79,58.35C253,63.46,248,64.41,242.44,64c-5-.35-9.49-3.58-10.36-7.78-1.37-6.63.52-11.45,5.23-14.35,5.34-3.29,11.43-3.12,17.25-3.74,3.52-.38,3.7-2,3.38-4.51-.63-5-5.73-8.57-11-7.52a25.1,25.1,0,0,0-10.21,4.22c-1.65-4.38-.33-6.41,3.88-7.71,5.23-1.62,10.33-2.52,15.55-.61,4.77,1.75,7.26,5.25,7.92,10.39,1.11,8.62.64,17.26.69,25.89,0,1.89,1,4.62-2.64,4.71C259.36,63.08,256.66,63.41,257.79,58.35Z" transform="translate(349.1 49.09)" style="fill:#829395"/><path d="M213,29.84c0-7.82,0-15.64,0-23.46,0-2.47-.15-4.55,3.48-4.45,3.33.09,3.24,2,3.24,4.29,0,15.14.11,30.29-.14,45.43-.07,4,1,6.82,5,6.88,2.22,0,2.47.43,2.51,2.22s-.43,3.21-2.7,3.25c-6.31.1-11.09-2.31-11.28-10.69C212.86,45.48,213,37.66,213,29.84Z" transform="translate(349.1 49.09)" style="fill:#819295"/><path d="M286.34,119.64c9.11.69,9.93.2,11.26-6-.54-.7-1.14-.42-1.74-.11-3.49,1.78-6.71,2.05-9-1.89s-.87-9.77,2.14-12.2c3.6-2.91,6.81.85,10.33.31,1-.15.52,3.24.58,5a64.14,64.14,0,0,1-.08,9.48C299,121.18,293.68,123.66,286.34,119.64Z" transform="translate(349.1 49.09)" style="fill:#7e9092"/><path d="M105,91.58c0,6.74,0,13.47,0,20.21,0,.93.06,2.06-1.53,1.86-3.67-.47-8,3.17-11-1.74-2.06-3.39-2.42-7.05-.14-10.24,2.4-3.35,5.78-5,9.88-2,1.55-2.8-.07-5.82,1.39-8.17Z" transform="translate(349.1 49.09)" style="fill:#809193"/><path d="M12,106.31c.08-4.82,3.47-8.23,8.09-8.13,4.1.08,7,3.74,6.94,8.61s-3.21,8.11-7.52,8.13C15,114.92,11.9,111.34,12,106.31Z" transform="translate(349.1 49.09)" style="fill:#7d8f91"/><path d="M267,106.66c0-5,2.94-8.44,7.09-8.44s8,4.19,7.86,8.51c-.15,4.7-3.46,8.17-7.66,8C269.79,114.63,266.93,111.45,267,106.66Z" transform="translate(349.1 49.09)" style="fill:#7d8f91"/><path d="M126.58,110.38c1.91-2.79,2.25-6.17,3.59-9.14,1.23-2.71,1.49-6,4.36-7.87-1.17,6.81-3.76,13.14-6.55,19.37-.92,2-2.68,1.59-3.34-.07-2.32-5.82-4.37-11.76-6.46-17.67-.27-.76-.29-1.79.86-2s1.36.92,1.6,1.58c1.45,4,2.84,8.08,4.13,12.16A7.25,7.25,0,0,0,126.58,110.38Z" transform="translate(349.1 49.09)" style="fill:#7f9193"/><path d="M255,106.59c0,4.75-3.21,8.68-7.22,8.26-4.84-.52-7.81-2.7-7.79-8.39,0-5,3.2-8.33,7.95-8.32C252,98.14,255,101.75,255,106.59Z" transform="translate(349.1 49.09)" style="fill:#809294"/><path d="M59.3,100.1c6-3.15,9.58-1.27,9.72,5,0,.83,0,1.66,0,2.48-.12,2-.29,3.9-.44,5.85-2.67-.72-4.95,1.28-7.42,1.15-1.89-.1-4-.92-4.13-3.49-.13-2.22-.15-4.4,2.65-5.14,1.11-.29,2.18-.7,3.29-1,1.41-.34,3.81.55,3.38-2.18-.37-2.34-2.18-3.13-4.49-2.73C61,100.26,60.17,101.32,59.3,100.1Z" transform="translate(349.1 49.09)" style="fill:#7e9092"/><path d="M183.8,113.08c-2.43,3.68-5,1.29-6.25-.6s-1.42-4.93,1.66-6.32A21.61,21.61,0,0,1,183,105c1.41-.35,3.82.54,3.35-2.21-.4-2.37-2.22-3.11-4.54-2.68-.74.14-1.41,1-2.26.29,2.68-2.38,3.46-2.54,6-1.58A5,5,0,0,1,189,104.2c-.08,2.49,0,5-.06,7.48a12.17,12.17,0,0,1-.35,1.95c-1.75.07-3.28-1.11-4.95-.45l-.22-.41Z" transform="translate(349.1 49.09)" style="fill:#7e9092"/><path d="M-35.32,92.74l6.8,18.58,7-18.27c1.76,3.34-.21,5.81-1,8.46-.87,3-2.41,5.76-3.39,8.72-.52,1.56-.4,3.57-2.59,3.61-1.88,0-2.15-1.9-2.55-3.2-1.78-5.83-4.74-11.3-5.86-17.33Z" transform="translate(349.1 49.09)" style="fill:#809194"/><path d="M221.52,93.24c-3,2.06-8.46-1.82-8.56,4.78-.1,6.32,5.25,2.74,8.06,4.92-2.57,2.26-9.52-.93-8,6.15,1.2,5.75,6.63.94,9.59,4.85-3.64,0-6.59,0-9.55,0-1.88,0-2-1.38-2-2.78q0-4.25,0-8.49C211,92.6,211,92.6,221.52,93.24Z" transform="translate(349.1 49.09)" style="fill:#819395"/><path d="M307.27,119.82c5.19-7.91-4.23-13.57-3.17-21.15,3.68,3.12,2.71,8.21,5.86,11.28,3.34-2.91,2.71-8,6.49-10.52C313.92,106.5,312.28,114,307.27,119.82Z" transform="translate(349.1 49.09)" style="fill:#809193"/><path d="M154.65,100.11c-.89,1.15-1.78,0-2.65,0a3.35,3.35,0,0,0-3.56,2.16c-.81,2,1.06,2.41,2.31,3.1a6.88,6.88,0,0,0,1.34.61c2.47.73,4.43,2.16,3.73,4.93-.75,3-3.44,3.87-6.2,3.87-1.15,0-2.31-.83-3.33-1.23.14-1,.5-1.31,1-1.12,2.34.83,5,1.3,5.94-1.44.83-2.46-2.1-2.9-3.7-3.74-2.6-1.36-4.63-2.94-3-6.14C148,98.28,151.52,98,154.65,100.11Z" transform="translate(349.1 49.09)" style="fill:#7d8f92"/><path d="M-8.8,113c.82-1.12,1.54-.43,2.28-.26,2.12.5,4.33.27,4.94-2s-1.81-2.68-3.37-3.38c-2.58-1.15-5.24-2.73-3.64-5.85s4.71-4.28,8.33-1.94c-1.14,1-2.3.41-3.3.38a2.85,2.85,0,0,0-3.16,2.49c-.37,1.65,1,2.22,2.26,2.75a8.34,8.34,0,0,0,.86.49c2.32.67,4.45,1.53,4.54,4.44.06,1.95-1.3,3-2.78,3.75C-4.3,115.14-6.72,115.36-8.8,113Z" transform="translate(349.1 49.09)" style="fill:#7e9092"/><path d="M236.82,113.33c-4,2.67-7.24,1.49-9.54-1.74a8.4,8.4,0,0,1,.52-10.57c2.34-2.91,5.54-3.69,9.58-1-2.53.92-4.74-1-6.5.67a7.72,7.72,0,0,0-2.84,5.56C227.9,110.77,230.15,112.65,236.82,113.33Z" transform="translate(349.1 49.09)" style="fill:#7e9092"/><path d="M194.4,91.7c3,7.07-.65,14.88,3.86,21.79-2.14,1.22-3.68-.16-3.75-1.89C194.24,105,194.4,98.33,194.4,91.7Z" transform="translate(349.1 49.09)" style="fill:#809294"/><path d="M261.39,91.35c2.41,7.27-2.15,15.36,2.89,22.23-2.64,1.38-4-.63-4.09-2.78-.23-6.25,0-12.51.15-18.77C260.34,91.8,261,91.59,261.39,91.35Z" transform="translate(349.1 49.09)" style="fill:#829395"/><path d="M78.84,99.93c-3.49,4-1,9.51-3.61,13.83a25.87,25.87,0,0,1-.81-13.45c.43-2.58,2.74.09,4.16-.29Z" transform="translate(349.1 49.09)" style="fill:#6b8285"/><path d="M36.08,100.29c3.42-2.55,6.76-2.13,7.57,1.4a23.13,23.13,0,0,1-.59,11.89c-1.48-2.72-1-5.63-1-8.45-.08-4.14-1.92-5.77-6-4.61Z" transform="translate(349.1 49.09)" style="fill:#809194"/><path d="M168,112.9c3.93-3.71,2.53-8.89,3.4-13.45h1.4c0,4.44.39,8.93-.14,13.3-.32,2.63-3.31-.49-4.63,1.08Q167,113.39,168,112.9Z" transform="translate(349.1 49.09)" style="fill:#7d8f92"/><path d="M78.84,99.93l-.27.09c5-2.58,8.31-.94,8.39,4.38,0,3,.49,6.16-.63,9.87-2.17-2.76-1.37-5.43-1.26-7.78C85.29,101.9,83.56,99.61,78.84,99.93Z" transform="translate(349.1 49.09)" style="fill:#809294"/><path d="M168,112.9q0,.47,0,.93c-4.9,1.56-7.8-.28-8-5.21a36,36,0,0,1,.67-9.22c1.9,2.42,1.32,5.2,1.27,7.8C161.87,111.48,163.65,113.43,168,112.9Z" transform="translate(349.1 49.09)" style="fill:#809294"/><path d="M36.08,100.29l-.07.24c-3.79,3.6-2.44,8.6-3.84,13-1.65-4.28-1.35-8.83-.68-13.14C31.76,98.63,34.49,101.43,36.08,100.29Z" transform="translate(349.1 49.09)" style="fill:#7f9193"/><path d="M-15,98.88c2.74,4.92-1.59,10.79,3.32,14.52C-16.31,113.89-17.73,108.49-15,98.88Z" transform="translate(349.1 49.09)" style="fill:#829395"/><path d="M5.79,98c2.7,5.91-1.08,11.58,3.46,15.63-1.6.74-3.61.56-3.88-1.29A37.92,37.92,0,0,1,5.79,98Z" transform="translate(349.1 49.09)" style="fill:#829395"/><path d="M143.64,113.78c-5-.42-6.14-5.41-3.77-14.85C142.94,103.58,138.4,109.73,143.64,113.78Z" transform="translate(349.1 49.09)" style="fill:#819294"/><path d="M-13.33,93.25a5.52,5.52,0,0,1-1.57.59c-.4,0-1-.23-1.13-.52-.27-.71.2-1.21.92-1.19C-14.77,92.13-14.43,92.53-13.33,93.25Z" transform="translate(349.1 49.09)" style="fill:#6c8387"/><path d="M-216.8,37.13a30.85,30.85,0,0,1-31.33,30.8,31.17,31.17,0,0,1-30.72-31.07,31.1,31.1,0,0,1,31.23-31A30.79,30.79,0,0,1-216.8,37.13Z" transform="translate(349.1 49.09)" style="fill:#0b1e26"/><path d="M-15.13,38.91c7.39.06,11.26,2.84,11,7.4-.23,4.77-4.66,7.56-11.52,7.73-8.1.21-4.09-5.82-4.77-9.21C-21.31,40.27-19.49,37.72-15.13,38.91Z" transform="translate(349.1 49.09)" style="fill:#0b1e26"/><path d="M-20.45,21.82c.24-3.28-1.34-7.37,4.71-7S-7,16.83-7,21.11c0,4.95-2.88,7.08-9.05,7.36C-21.7,28.72-20.17,24.74-20.45,21.82Z" transform="translate(349.1 49.09)" style="fill:#0b1e26"/><path d="M92.14,42.29c-.06,7.24-2.82,11.44-7.92,11.91-3.38.31-6.43-.54-8-3.74a16.19,16.19,0,0,1,.22-15.29c1.67-3.23,4.75-4.54,8.39-4.1C89.61,31.65,92.19,35.65,92.14,42.29Z" transform="translate(349.1 49.09)" style="fill:#0b1e26"/><path d="M134.19,38.55c-2.32-1.09-5.77,1.49-6.9-2-.88-2.7,3.8-6.68,7.31-6.69,4,0,6.73,2,6.5,5.9C140.81,40.8,136.34,37,134.19,38.55Z" transform="translate(349.1 49.09)" style="fill:#0b1e26"/><path d="M41,47.32a7.84,7.84,0,0,1-8.45,7.79c-3.13-.17-5-1.69-5.11-4.86-.08-3.66,4.21-5.76,11.09-6C41.25,44.12,41,45.62,41,47.32Z" transform="translate(349.1 49.09)" style="fill:#0b1e26"/><path d="M284,42.91c-.75-12.45,5.35-15.48,11.45-16.79A11,11,0,0,1,308,33.44a26,26,0,0,1-.11,17.49c-2.25,6.34-8.26,9.32-14.71,8-5.33-1.09-9-6.13-9.13-12.54C284,45.24,284,44.07,284,42.91Z" transform="translate(349.1 49.09)" style="fill:#0b1e26"/><path d="M244.81,59a7,7,0,0,1-6.71-5.68c-1-4.21,1.21-6.78,6-8.63,2.56-1,5.2-.64,7.77-1.27,5.56-1.37,7,.11,6,5.63C256.8,55.31,252.35,59.13,244.81,59Z" transform="translate(349.1 49.09)" style="fill:#0b1e26"/><path d="M297.24,106.15c.14,3.31-.71,6.19-4.57,6.26-3.6.06-4.61-2.76-4.58-5.79s.9-5.76,4.51-6S297.33,102.93,297.24,106.15Z" transform="translate(349.1 49.09)" style="fill:#0b1e26"/><path d="M102.91,106.61c-.11,2.9-.92,5.81-4.87,5.74-3.41-.06-4.23-2.62-4.24-5.56,0-3.32.84-6.11,4.83-6C102.07,100.82,102.89,103.32,102.91,106.61Z" transform="translate(349.1 49.09)" style="fill:#0b1e26"/><path d="M24.31,105.77c0,4.09-1,6.63-4.67,6.63-3.83,0-5.06-2.62-5-6,0-3.12,1.19-5.64,4.79-5.71C23.4,100.63,24.28,103.39,24.31,105.77Z" transform="translate(349.1 49.09)" style="fill:#0b1e26"/><path d="M279.12,106.28c.09,3.37-.93,6.11-4.78,6.17s-5.25-2.59-5.22-5.91,1.37-5.95,5.22-5.91C277.94,100.67,279.1,103.06,279.12,106.28Z" transform="translate(349.1 49.09)" style="fill:#0b1e26"/><path d="M253.08,106.5c-.58,3-1.33,6.11-5,6.38-3.93.28-5.83-2.7-5.73-5.94.09-2.93,1.06-6.72,5.09-6.74C251.15,100.18,252.72,103,253.08,106.5Z" transform="translate(349.1 49.09)" style="fill:#0b1e26"/><path d="M62.64,112.47c-1.61,0-3-.49-3-2.39,0-2.32,1.7-2.92,3.62-3.08,1.54-.13,3.09-.18,2.92,2.08S64.62,112.17,62.64,112.47Z" transform="translate(349.1 49.09)" style="fill:#0b1e26"/><path d="M183.8,113.08c-2-.6-4.66-.64-4-3.77.45-2.23,2.51-2.29,4.36-2.32.83,0,1.66.07,1.93,1.09.61,2.35-1.33,3.51-2.38,5.1Z" transform="translate(349.1 49.09)" style="fill:#0b1e26"/><path d="M-240.8,29.79A14.07,14.07,0,0,1-255.11,43.9a14.13,14.13,0,0,1-13.82-14.11,14,14,0,0,1,14.32-14.07A14,14,0,0,1-240.8,29.79Z" transform="translate(349.1 49.09)" style="fill:#a900a9"/></svg>