<svg xmlns="http://www.w3.org/2000/svg" xmlns:xlink="http://www.w3.org/1999/xlink" viewBox="0 0 351.78 238.18"><defs><pattern id="Burlap" data-name="Burlap" width="72" height="72" patternTransform="translate(-28.34 10.15) rotate(-90) scale(0.1)" patternUnits="userSpaceOnUse" viewBox="0 0 72 72"><rect width="72" height="72" style="fill:none"/><line x1="70.33" y1="72.17" x2="85" y2="72.17" style="fill:none;stroke:#000;stroke-width:0.5px"/><line x1="-1.67" y1="72.17" x2="13" y2="72.17" style="fill:none;stroke:#000;stroke-width:0.5px"/><line x1="68.5" y1="7" x2="83.16" y2="7" style="fill:none;stroke:#000;stroke-width:0.5px"/><line x1="66.83" y1="13.67" x2="81.5" y2="13.67" style="fill:none;stroke:#000;stroke-width:0.5px"/><line x1="70.33" y1="0.17" x2="85" y2="0.17" style="fill:none;stroke:#000;stroke-width:0.5px"/><line x1="71.33" y1="31" x2="86" y2="31" style="fill:none;stroke:#000;stroke-width:0.5px"/><line x1="75.83" y1="2.83" x2="61.16" y2="2.83" style="fill:none;stroke:#000;stroke-width:0.5px"/><line x1="79.33" y1="8.33" x2="64.66" y2="8.33" style="fill:none;stroke:#000;stroke-width:0.5px"/><line x1="61.5" y1="16.51" x2="76.16" y2="16.51" style="fill:none;stroke:#000;stroke-width:0.5px"/><line x1="65.16" y1="65.51" x2="79.83" y2="65.51" style="fill:none;stroke:#000;stroke-width:0.5px"/><line x1="61.5" y1="70.18" x2="76.16" y2="70.18" style="fill:none;stroke:#000;stroke-width:0.5px"/><line x1="66.83" y1="68.18" x2="81.5" y2="68.18" style="fill:none;stroke:#000;stroke-width:0.5px"/><line x1="62.16" y1="63.18" x2="76.83" y2="63.18" style="fill:none;stroke:#000;stroke-width:0.5px"/><line x1="66.83" y1="54.51" x2="81.5" y2="54.51" style="fill:none;stroke:#000;stroke-width:0.5px"/><line x1="63.5" y1="58.84" x2="78.16" y2="58.84" style="fill:none;stroke:#000;stroke-width:0.5px"/><line x1="77" y1="23.33" x2="62.33" y2="23.33" style="fill:none;stroke:#000;stroke-width:0.5px"/><line x1="77.5" y1="26.83" x2="62.83" y2="26.83" style="fill:none;stroke:#000;stroke-width:0.5px"/><line x1="80.5" y1="28.83" x2="65.83" y2="28.83" style="fill:none;stroke:#000;stroke-width:0.5px"/><line x1="66.16" y1="18.67" x2="80.83" y2="18.67" style="fill:none;stroke:#000;stroke-width:0.5px"/><line x1="76.66" y1="32.84" x2="62" y2="32.84" style="fill:none;stroke:#000;stroke-width:0.5px"/><line x1="80.66" y1="34.84" x2="66" y2="34.84" style="fill:none;stroke:#000;stroke-width:0.5px"/><line x1="75" y1="37.17" x2="60.33" y2="37.17" style="fill:none;stroke:#000;stroke-width:0.5px"/><line x1="63.16" y1="51.51" x2="77.83" y2="51.51" style="fill:none;stroke:#000;stroke-width:0.5px"/><line x1="65.16" y1="47.17" x2="79.83" y2="47.17" style="fill:none;stroke:#000;stroke-width:0.5px"/><line x1="65.16" y1="41.84" x2="79.83" y2="41.84" style="fill:none;stroke:#000;stroke-width:0.5px"/><line x1="67.83" y1="44.51" x2="82.5" y2="44.51" style="fill:none;stroke:#000;stroke-width:0.5px"/><line x1="69.83" y1="39.51" x2="84.5" y2="39.51" style="fill:none;stroke:#000;stroke-width:0.5px"/><line x1="9.67" y1="5.67" x2="9.67" y2="20.33" style="fill:none;stroke:#000;stroke-width:0.5px"/><line x1="12.17" y1="8.67" x2="12.17" y2="23.34" style="fill:none;stroke:#000;stroke-width:0.5px"/><line x1="8.5" y1="18.33" x2="8.5" y2="33" style="fill:none;stroke:#000;stroke-width:0.5px"/><line x1="15.83" y1="18.67" x2="15.83" y2="33.34" style="fill:none;stroke:#000;stroke-width:0.5px"/><line x1="6.17" y1="11.67" x2="6.17" y2="26.34" style="fill:none;stroke:#000;stroke-width:0.5px"/><line x1="18.17" y1="8.67" x2="18.17" y2="23.34" style="fill:none;stroke:#000;stroke-width:0.5px"/><line x1="23.67" y1="8.67" x2="23.67" y2="23.34" style="fill:none;stroke:#000;stroke-width:0.5px"/><line x1="25" y1="12.33" x2="25" y2="27" style="fill:none;stroke:#000;stroke-width:0.5px"/><line x1="21.17" y1="3.17" x2="21.17" y2="17.83" style="fill:none;stroke:#000;stroke-width:0.5px"/><line x1="14.67" y1="5.17" x2="14.67" y2="19.83" style="fill:none;stroke:#000;stroke-width:0.5px"/><line x1="1.17" y1="11" x2="15.83" y2="11" style="fill:none;stroke:#000;stroke-width:0.5px"/><line x1="-3.5" y1="7" x2="11.17" y2="7" style="fill:none;stroke:#000;stroke-width:0.5px"/><line x1="-5.17" y1="13.67" x2="9.5" y2="13.67" style="fill:none;stroke:#000;stroke-width:0.5px"/><line x1="13.17" y1="7.33" x2="27.83" y2="7.33" style="fill:none;stroke:#000;stroke-width:0.5px"/><line x1="8" y1="9.17" x2="22.67" y2="9.17" style="fill:none;stroke:#000;stroke-width:0.5px"/><line x1="11.67" y1="17.34" x2="26.33" y2="17.34" style="fill:none;stroke:#000;stroke-width:0.5px"/><line x1="5" y1="14.83" x2="19.67" y2="14.83" style="fill:none;stroke:#000;stroke-width:0.5px"/><line x1="38.5" y1="10" x2="38.5" y2="24.67" style="fill:none;stroke:#000;stroke-width:0.5px"/><line x1="36" y1="13" x2="36" y2="27.67" style="fill:none;stroke:#000;stroke-width:0.5px"/><line x1="42" y1="16" x2="42" y2="30.67" style="fill:none;stroke:#000;stroke-width:0.5px"/><line x1="43.33" y1="23.34" x2="43.33" y2="38" style="fill:none;stroke:#000;stroke-width:0.5px"/><line x1="44.67" y1="16" x2="44.67" y2="30.67" style="fill:none;stroke:#000;stroke-width:0.5px"/><line x1="30" y1="13" x2="30" y2="27.67" style="fill:none;stroke:#000;stroke-width:0.5px"/><line x1="19.83" y1="16.33" x2="19.83" y2="31" style="fill:none;stroke:#000;stroke-width:0.5px"/><line x1="28.33" y1="6.5" x2="28.33" y2="21.17" style="fill:none;stroke:#000;stroke-width:0.5px"/><line x1="26.67" y1="3.17" x2="26.67" y2="17.83" style="fill:none;stroke:#000;stroke-width:0.5px"/><line x1="33.5" y1="8.17" x2="33.5" y2="22.84" style="fill:none;stroke:#000;stroke-width:0.5px"/><line x1="42" y1="14.67" x2="27.33" y2="14.67" style="fill:none;stroke:#000;stroke-width:0.5px"/><line x1="33.67" y1="12.67" x2="19" y2="12.67" style="fill:none;stroke:#000;stroke-width:0.5px"/><line x1="42.5" y1="18.17" x2="27.83" y2="18.17" style="fill:none;stroke:#000;stroke-width:0.5px"/><line x1="36.83" y1="22.01" x2="22.17" y2="22.01" style="fill:none;stroke:#000;stroke-width:0.5px"/><line x1="45.5" y1="20.17" x2="30.83" y2="20.17" style="fill:none;stroke:#000;stroke-width:0.5px"/><line x1="70.84" y1="1.17" x2="70.84" y2="15.83" style="fill:none;stroke:#000;stroke-width:0.5px"/><line x1="66.17" y1="1.17" x2="66.17" y2="15.83" style="fill:none;stroke:#000;stroke-width:0.5px"/><line x1="58.33" y1="1.17" x2="58.33" y2="15.83" style="fill:none;stroke:#000;stroke-width:0.5px"/><line x1="75.83" y1="2.83" x2="61.17" y2="2.83" style="fill:none;stroke:#000;stroke-width:0.5px"/><line x1="74.33" y1="5.33" x2="59.67" y2="5.33" style="fill:none;stroke:#000;stroke-width:0.5px"/><line x1="70.33" y1="9.84" x2="55.67" y2="9.84" style="fill:none;stroke:#000;stroke-width:0.5px"/><line x1="62.33" y1="8.51" x2="47.67" y2="8.51" style="fill:none;stroke:#000;stroke-width:0.5px"/><line x1="79.33" y1="8.33" x2="64.67" y2="8.33" style="fill:none;stroke:#000;stroke-width:0.5px"/><line x1="41.5" y1="2.5" x2="41.5" y2="17.17" style="fill:none;stroke:#000;stroke-width:0.5px"/><line x1="46" y1="5.5" x2="46" y2="20.17" style="fill:none;stroke:#000;stroke-width:0.5px"/><line x1="40" y1="8.5" x2="40" y2="23.17" style="fill:none;stroke:#000;stroke-width:0.5px"/><line x1="52.67" y1="4.84" x2="52.67" y2="19.5" style="fill:none;stroke:#000;stroke-width:0.5px"/><line x1="62.17" y1="8.83" x2="62.17" y2="23.5" style="fill:none;stroke:#000;stroke-width:0.5px"/><line x1="55" x2="55" y2="14.67" style="fill:none;stroke:#000;stroke-width:0.5px"/><line x1="50.16" y1="1" x2="50.16" y2="15.67" style="fill:none;stroke:#000;stroke-width:0.5px"/><line x1="39.83" y1="2.33" x2="54.5" y2="2.33" style="fill:none;stroke:#000;stroke-width:0.5px"/><line x1="47" y1="4.17" x2="61.67" y2="4.17" style="fill:none;stroke:#000;stroke-width:0.5px"/><line x1="38.67" y1="5.83" x2="53.33" y2="5.83" style="fill:none;stroke:#000;stroke-width:0.5px"/><line x1="39.5" y1="10.67" x2="54.17" y2="10.67" style="fill:none;stroke:#000;stroke-width:0.5px"/><line x1="45.17" y1="15.51" x2="59.83" y2="15.51" style="fill:none;stroke:#000;stroke-width:0.5px"/><line x1="48.83" y1="13.51" x2="63.5" y2="13.51" style="fill:none;stroke:#000;stroke-width:0.5px"/><line x1="36.5" y1="12.67" x2="51.17" y2="12.67" style="fill:none;stroke:#000;stroke-width:0.5px"/><line x1="31.5" y1="1.67" x2="31.5" y2="16.33" style="fill:none;stroke:#000;stroke-width:0.5px"/><line x1="29.83" y1="1" x2="29.83" y2="15.67" style="fill:none;stroke:#000;stroke-width:0.5px"/><line x1="23.83" y1="1.67" x2="23.83" y2="16.33" style="fill:none;stroke:#000;stroke-width:0.5px"/><line x1="2" y1="38.34" x2="2" y2="53" style="fill:none;stroke:#000;stroke-width:0.5px"/><line x1="1.5" y1="21.84" x2="1.5" y2="36.5" style="fill:none;stroke:#000;stroke-width:0.5px"/><line x1="2.67" y1="9.83" x2="2.67" y2="24.5" style="fill:none;stroke:#000;stroke-width:0.5px"/><line x1="0.67" y1="7.33" x2="0.67" y2="22" style="fill:none;stroke:#000;stroke-width:0.5px"/><line x1="-1.67" y1="0.17" x2="13" y2="0.17" style="fill:none;stroke:#000;stroke-width:0.5px"/><line x1="6.67" y1="1.83" x2="21.33" y2="1.83" style="fill:none;stroke:#000;stroke-width:0.5px"/><line x1="1.17" y1="4.33" x2="15.83" y2="4.33" style="fill:none;stroke:#000;stroke-width:0.5px"/><line x1="23.17" y1="5" x2="37.83" y2="5" style="fill:none;stroke:#000;stroke-width:0.5px"/><line x1="18.17" y1="3.67" x2="32.83" y2="3.67" style="fill:none;stroke:#000;stroke-width:0.5px"/><line x1="20.17" y1="1" x2="34.83" y2="1" style="fill:none;stroke:#000;stroke-width:0.5px"/><line x1="25.5" y1="9.33" x2="40.17" y2="9.33" style="fill:none;stroke:#000;stroke-width:0.5px"/><line x1="41.67" y1="24.17" x2="27" y2="24.17" style="fill:none;stroke:#000;stroke-width:0.5px"/><line x1="45.67" y1="26.17" x2="31" y2="26.17" style="fill:none;stroke:#000;stroke-width:0.5px"/><line x1="40" y1="28.51" x2="25.33" y2="28.51" style="fill:none;stroke:#000;stroke-width:0.5px"/><line x1="18.17" y1="34.34" x2="18.17" y2="49" style="fill:none;stroke:#000;stroke-width:0.5px"/><line x1="21.67" y1="40.34" x2="21.67" y2="55" style="fill:none;stroke:#000;stroke-width:0.5px"/><line x1="16" y1="36.67" x2="1.33" y2="36.67" style="fill:none;stroke:#000;stroke-width:0.5px"/><line x1="27" y1="40.67" x2="12.33" y2="40.67" style="fill:none;stroke:#000;stroke-width:0.5px"/><line x1="22.17" y1="42.5" x2="7.5" y2="42.5" style="fill:none;stroke:#000;stroke-width:0.5px"/><line x1="25.17" y1="44.5" x2="10.5" y2="44.5" style="fill:none;stroke:#000;stroke-width:0.5px"/><line x1="38" y1="25.5" x2="38" y2="40.17" style="fill:none;stroke:#000;stroke-width:0.5px"/><line x1="39.33" y1="31.34" x2="39.33" y2="46" style="fill:none;stroke:#000;stroke-width:0.5px"/><line x1="23.17" y1="26.84" x2="23.17" y2="41.5" style="fill:none;stroke:#000;stroke-width:0.5px"/><line x1="26.33" y1="21.5" x2="26.33" y2="36.17" style="fill:none;stroke:#000;stroke-width:0.5px"/><line x1="31.67" y1="29.84" x2="31.67" y2="44.5" style="fill:none;stroke:#000;stroke-width:0.5px"/><line x1="34.67" y1="24.34" x2="34.67" y2="39" style="fill:none;stroke:#000;stroke-width:0.5px"/><line x1="33" y1="24" x2="33" y2="38.67" style="fill:none;stroke:#000;stroke-width:0.5px"/><line x1="28.17" y1="26.34" x2="28.17" y2="41" style="fill:none;stroke:#000;stroke-width:0.5px"/><line x1="24.83" y1="39.84" x2="39.5" y2="39.84" style="fill:none;stroke:#000;stroke-width:0.5px"/><line x1="27.5" y1="41.17" x2="42.17" y2="41.17" style="fill:none;stroke:#000;stroke-width:0.5px"/><line x1="30.17" y1="38.51" x2="44.83" y2="38.51" style="fill:none;stroke:#000;stroke-width:0.5px"/><line x1="30.17" y1="33.17" x2="44.83" y2="33.17" style="fill:none;stroke:#000;stroke-width:0.5px"/><line x1="32.83" y1="35.84" x2="47.5" y2="35.84" style="fill:none;stroke:#000;stroke-width:0.5px"/><line x1="46.16" y1="33.17" x2="60.83" y2="33.17" style="fill:none;stroke:#000;stroke-width:0.5px"/><line x1="34.83" y1="30.84" x2="49.5" y2="30.84" style="fill:none;stroke:#000;stroke-width:0.5px"/><line x1="61.5" y1="16.51" x2="76.16" y2="16.51" style="fill:none;stroke:#000;stroke-width:0.5px"/><line x1="45.5" y1="23.51" x2="60.16" y2="23.51" style="fill:none;stroke:#000;stroke-width:0.5px"/><line x1="43.5" y1="21.17" x2="58.16" y2="21.17" style="fill:none;stroke:#000;stroke-width:0.5px"/><line x1="16.17" y1="37" x2="30.83" y2="37" style="fill:none;stroke:#000;stroke-width:0.5px"/><line x1="16.5" y1="35" x2="31.17" y2="35" style="fill:none;stroke:#000;stroke-width:0.5px"/><line x1="30.33" y1="45.84" x2="15.67" y2="45.84" style="fill:none;stroke:#000;stroke-width:0.5px"/><line x1="22" y1="20.84" x2="22" y2="35.5" style="fill:none;stroke:#000;stroke-width:0.5px"/><line x1="19.83" y1="17.33" x2="19.83" y2="32" style="fill:none;stroke:#000;stroke-width:0.5px"/><line x1="10.83" y1="26" x2="25.5" y2="26" style="fill:none;stroke:#000;stroke-width:0.5px"/><line x1="3.83" y1="24.67" x2="18.5" y2="24.67" style="fill:none;stroke:#000;stroke-width:0.5px"/><line x1="5.5" y1="22.67" x2="20.17" y2="22.67" style="fill:none;stroke:#000;stroke-width:0.5px"/><line x1="4.17" y1="20" x2="18.83" y2="20" style="fill:none;stroke:#000;stroke-width:0.5px"/><line x1="13.5" y1="20" x2="28.17" y2="20" style="fill:none;stroke:#000;stroke-width:0.5px"/><line x1="7" y1="43.67" x2="7" y2="58.34" style="fill:none;stroke:#000;stroke-width:0.5px"/><line x1="9.5" y1="46.67" x2="9.5" y2="61.34" style="fill:none;stroke:#000;stroke-width:0.5px"/><line x1="5.83" y1="56.34" x2="5.83" y2="71" style="fill:none;stroke:#000;stroke-width:0.5px"/><line x1="2.83" y1="54" x2="2.83" y2="68.67" style="fill:none;stroke:#000;stroke-width:0.5px"/><line x1="13.17" y1="56.67" x2="13.17" y2="71.34" style="fill:none;stroke:#000;stroke-width:0.5px"/><line x1="15.5" y1="46.67" x2="15.5" y2="61.34" style="fill:none;stroke:#000;stroke-width:0.5px"/><line x1="25" y1="38.33" x2="25" y2="53" style="fill:none;stroke:#000;stroke-width:0.5px"/><line x1="58.5" y1="60" x2="58.5" y2="74.67" style="fill:none;stroke:#000;stroke-width:0.5px"/><line x1="61.33" y1="47.34" x2="61.33" y2="62" style="fill:none;stroke:#000;stroke-width:0.5px"/><line x1="58" y1="64" x2="43.33" y2="64" style="fill:none;stroke:#000;stroke-width:0.5px"/><line x1="62.5" y1="68.17" x2="47.83" y2="68.17" style="fill:none;stroke:#000;stroke-width:0.5px"/><line x1="59.83" y1="70.17" x2="45.17" y2="70.17" style="fill:none;stroke:#000;stroke-width:0.5px"/><line x1="63.83" y1="66.5" x2="49.17" y2="66.5" style="fill:none;stroke:#000;stroke-width:0.5px"/><line x1="63.5" y1="52.5" x2="63.5" y2="67.17" style="fill:none;stroke:#000;stroke-width:0.5px"/><line x1="60" y1="58.5" x2="60" y2="73.17" style="fill:none;stroke:#000;stroke-width:0.5px"/><line x1="48.66" y1="47.84" x2="48.66" y2="62.5" style="fill:none;stroke:#000;stroke-width:0.5px"/><line x1="47" y1="50.5" x2="47" y2="65.17" style="fill:none;stroke:#000;stroke-width:0.5px"/><line x1="45" y1="56.34" x2="45" y2="71" style="fill:none;stroke:#000;stroke-width:0.5px"/><line x1="67.16" y1="54.33" x2="67.16" y2="69" style="fill:none;stroke:#000;stroke-width:0.5px"/><line x1="68.83" y1="48.33" x2="68.83" y2="63" style="fill:none;stroke:#000;stroke-width:0.5px"/><line x1="71.16" y1="46" x2="71.16" y2="60.67" style="fill:none;stroke:#000;stroke-width:0.5px"/><line x1="65.16" y1="65.51" x2="79.83" y2="65.51" style="fill:none;stroke:#000;stroke-width:0.5px"/><line x1="61.5" y1="70.18" x2="76.16" y2="70.18" style="fill:none;stroke:#000;stroke-width:0.5px"/><line x1="66.83" y1="68.18" x2="81.5" y2="68.18" style="fill:none;stroke:#000;stroke-width:0.5px"/><line x1="62.16" y1="63.18" x2="76.83" y2="63.18" style="fill:none;stroke:#000;stroke-width:0.5px"/><line x1="59.16" y1="56.51" x2="73.83" y2="56.51" style="fill:none;stroke:#000;stroke-width:0.5px"/><line x1="66.83" y1="54.51" x2="81.5" y2="54.51" style="fill:none;stroke:#000;stroke-width:0.5px"/><line x1="63.5" y1="58.84" x2="78.16" y2="58.84" style="fill:none;stroke:#000;stroke-width:0.5px"/><line x1="65.33" y1="64" x2="65.33" y2="78.67" style="fill:none;stroke:#000;stroke-width:0.5px"/><line x1="69.67" y1="61.33" x2="69.67" y2="76" style="fill:none;stroke:#000;stroke-width:0.5px"/><line x1="3.5" y1="48.34" x2="18.17" y2="48.34" style="fill:none;stroke:#000;stroke-width:0.5px"/><line x1="8.17" y1="67.67" x2="22.83" y2="67.67" style="fill:none;stroke:#000;stroke-width:0.5px"/><line x1="5" y1="50.84" x2="19.67" y2="50.84" style="fill:none;stroke:#000;stroke-width:0.5px"/><line x1="9" y1="55.34" x2="23.67" y2="55.34" style="fill:none;stroke:#000;stroke-width:0.5px"/><line x1="20" y1="52.34" x2="34.67" y2="52.34" style="fill:none;stroke:#000;stroke-width:0.5px"/><line x1="0.83" y1="52.5" x2="15.5" y2="52.5" style="fill:none;stroke:#000;stroke-width:0.5px"/><line x1="17.67" y1="52" x2="17.67" y2="66.67" style="fill:none;stroke:#000;stroke-width:0.5px"/><line x1="32.33" y1="49.67" x2="17.67" y2="49.67" style="fill:none;stroke:#000;stroke-width:0.5px"/><line x1="34.17" y1="60.01" x2="19.5" y2="60.01" style="fill:none;stroke:#000;stroke-width:0.5px"/><line x1="35.83" y1="61.68" x2="21.17" y2="61.68" style="fill:none;stroke:#000;stroke-width:0.5px"/><line x1="34.34" y1="56.68" x2="19.67" y2="56.68" style="fill:none;stroke:#000;stroke-width:0.5px"/><line x1="39" y1="54.01" x2="24.33" y2="54.01" style="fill:none;stroke:#000;stroke-width:0.5px"/><line x1="19.33" y1="58.84" x2="19.33" y2="73.5" style="fill:none;stroke:#000;stroke-width:0.5px"/><line x1="12.5" y1="38" x2="12.5" y2="52.67" style="fill:none;stroke:#000;stroke-width:0.5px"/><line x1="10.83" y1="32.67" x2="10.83" y2="47.34" style="fill:none;stroke:#000;stroke-width:0.5px"/><line x1="13.83" y1="29.67" x2="13.83" y2="44.34" style="fill:none;stroke:#000;stroke-width:0.5px"/><line x1="8.5" y1="31.34" x2="8.5" y2="46" style="fill:none;stroke:#000;stroke-width:0.5px"/><line x1="4.83" y1="32.34" x2="4.83" y2="47" style="fill:none;stroke:#000;stroke-width:0.5px"/><line x1="6.83" y1="27.67" x2="6.83" y2="42.34" style="fill:none;stroke:#000;stroke-width:0.5px"/><line x1="8.17" y1="64" x2="22.83" y2="64" style="fill:none;stroke:#000;stroke-width:0.5px"/><line x1="1" y1="62.34" x2="15.67" y2="62.34" style="fill:none;stroke:#000;stroke-width:0.5px"/><line x1="2.83" y1="60.67" x2="17.5" y2="60.67" style="fill:none;stroke:#000;stroke-width:0.5px"/><line x1="29.5" y1="50" x2="29.5" y2="64.67" style="fill:none;stroke:#000;stroke-width:0.5px"/><line x1="26.49" y1="43" x2="26.49" y2="57.67" style="fill:none;stroke:#000;stroke-width:0.5px"/><line x1="25.83" y1="59.67" x2="25.83" y2="74.34" style="fill:none;stroke:#000;stroke-width:0.5px"/><line x1="33.17" y1="60" x2="33.17" y2="74.67" style="fill:none;stroke:#000;stroke-width:0.5px"/><line x1="23.5" y1="53" x2="23.5" y2="67.67" style="fill:none;stroke:#000;stroke-width:0.5px"/><line x1="35.5" y1="50" x2="35.5" y2="64.67" style="fill:none;stroke:#000;stroke-width:0.5px"/><line x1="31" y1="58.84" x2="31" y2="73.5" style="fill:none;stroke:#000;stroke-width:0.5px"/><line x1="28" y1="54.84" x2="28" y2="69.5" style="fill:none;stroke:#000;stroke-width:0.5px"/><line x1="28.17" y1="71" x2="42.83" y2="71" style="fill:none;stroke:#000;stroke-width:0.5px"/><line x1="30.17" y1="68.67" x2="44.83" y2="68.67" style="fill:none;stroke:#000;stroke-width:0.5px"/><line x1="37.17" y1="57.67" x2="37.17" y2="72.34" style="fill:none;stroke:#000;stroke-width:0.5px"/><line x1="32.5" y1="45.34" x2="32.5" y2="60" style="fill:none;stroke:#000;stroke-width:0.5px"/><line x1="55" y1="57.67" x2="55" y2="72.34" style="fill:none;stroke:#000;stroke-width:0.5px"/><line x1="48" y1="65.67" x2="48" y2="80.34" style="fill:none;stroke:#000;stroke-width:0.5px"/><line x1="34.17" y1="40.67" x2="34.17" y2="55.34" style="fill:none;stroke:#000;stroke-width:0.5px"/><line x1="28.17" y1="67.34" x2="42.83" y2="67.34" style="fill:none;stroke:#000;stroke-width:0.5px"/><line x1="21.17" y1="66" x2="35.83" y2="66" style="fill:none;stroke:#000;stroke-width:0.5px"/><line x1="13.17" y1="69.34" x2="27.83" y2="69.34" style="fill:none;stroke:#000;stroke-width:0.5px"/><line x1="7.83" y1="70.67" x2="22.5" y2="70.67" style="fill:none;stroke:#000;stroke-width:0.5px"/><line x1="22.83" y1="64" x2="37.5" y2="64" style="fill:none;stroke:#000;stroke-width:0.5px"/><line x1="1.5" y1="58" x2="16.17" y2="58" style="fill:none;stroke:#000;stroke-width:0.5px"/><line x1="10.83" y1="58" x2="25.5" y2="58" style="fill:none;stroke:#000;stroke-width:0.5px"/><line x1="16.5" y1="30.84" x2="31.17" y2="30.84" style="fill:none;stroke:#000;stroke-width:0.5px"/><line x1="7.83" y1="28" x2="22.5" y2="28" style="fill:none;stroke:#000;stroke-width:0.5px"/><line x1="6.67" y1="33.34" x2="21.33" y2="33.34" style="fill:none;stroke:#000;stroke-width:0.5px"/><line x1="-0.67" y1="31" x2="14" y2="31" style="fill:none;stroke:#000;stroke-width:0.5px"/><line x1="47.17" y1="17.33" x2="47.17" y2="32" style="fill:none;stroke:#000;stroke-width:0.5px"/><line x1="50.83" y1="27.34" x2="50.83" y2="42" style="fill:none;stroke:#000;stroke-width:0.5px"/><line x1="52.82" y1="20" x2="52.82" y2="34.67" style="fill:none;stroke:#000;stroke-width:0.5px"/><line x1="58.67" y1="17.33" x2="58.67" y2="32" style="fill:none;stroke:#000;stroke-width:0.5px"/><line x1="60" y1="21" x2="60" y2="35.67" style="fill:none;stroke:#000;stroke-width:0.5px"/><line x1="56.17" y1="11.83" x2="56.17" y2="26.5" style="fill:none;stroke:#000;stroke-width:0.5px"/><line x1="48.67" y1="13.83" x2="48.67" y2="28.5" style="fill:none;stroke:#000;stroke-width:0.5px"/><line x1="46.67" y1="26.01" x2="61.33" y2="26.01" style="fill:none;stroke:#000;stroke-width:0.5px"/><line x1="40.33" y1="48.34" x2="40.33" y2="63" style="fill:none;stroke:#000;stroke-width:0.5px"/><line x1="41.67" y1="55.67" x2="41.67" y2="70.34" style="fill:none;stroke:#000;stroke-width:0.5px"/><line x1="38.34" y1="45.34" x2="38.34" y2="60" style="fill:none;stroke:#000;stroke-width:0.5px"/><line x1="43" y1="48.34" x2="43" y2="63" style="fill:none;stroke:#000;stroke-width:0.5px"/><line x1="65" y1="21.67" x2="65" y2="36.34" style="fill:none;stroke:#000;stroke-width:0.5px"/><line x1="54.83" y1="25" x2="54.83" y2="39.67" style="fill:none;stroke:#000;stroke-width:0.5px"/><line x1="63.33" y1="15.17" x2="63.33" y2="29.84" style="fill:none;stroke:#000;stroke-width:0.5px"/><line x1="67" y1="10.5" x2="67" y2="25.17" style="fill:none;stroke:#000;stroke-width:0.5px"/><line x1="68.51" y1="12.67" x2="68.51" y2="27.33" style="fill:none;stroke:#000;stroke-width:0.5px"/><line x1="70.5" y1="17.5" x2="70.5" y2="32.17" style="fill:none;stroke:#000;stroke-width:0.5px"/><line x1="77" y1="23.33" x2="62.33" y2="23.33" style="fill:none;stroke:#000;stroke-width:0.5px"/><line x1="70" y1="20.33" x2="55.33" y2="20.33" style="fill:none;stroke:#000;stroke-width:0.5px"/><line x1="64.33" y1="18" x2="49.67" y2="18" style="fill:none;stroke:#000;stroke-width:0.5px"/><line x1="68.67" y1="11.67" x2="54" y2="11.67" style="fill:none;stroke:#000;stroke-width:0.5px"/><line x1="77.5" y1="26.83" x2="62.83" y2="26.83" style="fill:none;stroke:#000;stroke-width:0.5px"/><line x1="71.83" y1="30.67" x2="57.17" y2="30.67" style="fill:none;stroke:#000;stroke-width:0.5px"/><line x1="80.5" y1="28.83" x2="65.83" y2="28.83" style="fill:none;stroke:#000;stroke-width:0.5px"/><line x1="41.83" y1="34.84" x2="41.83" y2="49.5" style="fill:none;stroke:#000;stroke-width:0.5px"/><line x1="44.33" y1="37.84" x2="44.33" y2="52.5" style="fill:none;stroke:#000;stroke-width:0.5px"/><line x1="59.67" y1="40.84" x2="59.67" y2="55.5" style="fill:none;stroke:#000;stroke-width:0.5px"/><line x1="46.83" y1="34.34" x2="46.83" y2="49" style="fill:none;stroke:#000;stroke-width:0.5px"/><line x1="37.83" y1="43" x2="52.5" y2="43" style="fill:none;stroke:#000;stroke-width:0.5px"/><line x1="43.5" y1="47.84" x2="58.17" y2="47.84" style="fill:none;stroke:#000;stroke-width:0.5px"/><line x1="66.17" y1="18.67" x2="80.83" y2="18.67" style="fill:none;stroke:#000;stroke-width:0.5px"/><line x1="76.67" y1="32.84" x2="62" y2="32.84" style="fill:none;stroke:#000;stroke-width:0.5px"/><line x1="80.67" y1="34.84" x2="66" y2="34.84" style="fill:none;stroke:#000;stroke-width:0.5px"/><line x1="75" y1="37.17" x2="60.33" y2="37.17" style="fill:none;stroke:#000;stroke-width:0.5px"/><line x1="53.17" y1="43" x2="53.17" y2="57.67" style="fill:none;stroke:#000;stroke-width:0.5px"/><line x1="56.67" y1="49" x2="56.67" y2="63.67" style="fill:none;stroke:#000;stroke-width:0.5px"/><line x1="52.67" y1="56.67" x2="52.67" y2="71.33" style="fill:none;stroke:#000;stroke-width:0.5px"/><line x1="50.33" y1="54.34" x2="50.33" y2="69" style="fill:none;stroke:#000;stroke-width:0.5px"/><line x1="60.17" y1="53.17" x2="45.5" y2="53.17" style="fill:none;stroke:#000;stroke-width:0.5px"/><line x1="52.17" y1="50.5" x2="37.5" y2="50.5" style="fill:none;stroke:#000;stroke-width:0.5px"/><line x1="41.83" y1="47.5" x2="27.17" y2="47.5" style="fill:none;stroke:#000;stroke-width:0.5px"/><line x1="52" y1="31.84" x2="52" y2="46.5" style="fill:none;stroke:#000;stroke-width:0.5px"/><line x1="39" y1="63.67" x2="39" y2="78.34" style="fill:none;stroke:#000;stroke-width:0.5px"/><line x1="65" y1="46.84" x2="65" y2="61.5" style="fill:none;stroke:#000;stroke-width:0.5px"/><line x1="58.16" y1="35.5" x2="58.16" y2="50.17" style="fill:none;stroke:#000;stroke-width:0.5px"/><line x1="61.33" y1="30.17" x2="61.33" y2="44.83" style="fill:none;stroke:#000;stroke-width:0.5px"/><line x1="54.66" y1="41.5" x2="54.66" y2="56.17" style="fill:none;stroke:#000;stroke-width:0.5px"/><line x1="66.66" y1="38.5" x2="66.66" y2="53.17" style="fill:none;stroke:#000;stroke-width:0.5px"/><line x1="69.66" y1="33" x2="69.66" y2="47.67" style="fill:none;stroke:#000;stroke-width:0.5px"/><line x1="68" y1="32.67" x2="68" y2="47.34" style="fill:none;stroke:#000;stroke-width:0.5px"/><line x1="63.16" y1="35" x2="63.16" y2="49.67" style="fill:none;stroke:#000;stroke-width:0.5px"/><line x1="59.83" y1="48.51" x2="74.5" y2="48.51" style="fill:none;stroke:#000;stroke-width:0.5px"/><line x1="63.17" y1="51.51" x2="77.83" y2="51.51" style="fill:none;stroke:#000;stroke-width:0.5px"/><line x1="65.16" y1="47.17" x2="79.83" y2="47.17" style="fill:none;stroke:#000;stroke-width:0.5px"/><line x1="65.16" y1="41.84" x2="79.83" y2="41.84" style="fill:none;stroke:#000;stroke-width:0.5px"/><line x1="67.83" y1="44.51" x2="82.5" y2="44.51" style="fill:none;stroke:#000;stroke-width:0.5px"/><line x1="69.83" y1="39.51" x2="84.5" y2="39.51" style="fill:none;stroke:#000;stroke-width:0.5px"/><line x1="38.17" y1="61.84" x2="52.83" y2="61.84" style="fill:none;stroke:#000;stroke-width:0.5px"/><line x1="42.5" y1="59.18" x2="57.16" y2="59.18" style="fill:none;stroke:#000;stroke-width:0.5px"/><line x1="41.83" y1="54.51" x2="56.5" y2="54.51" style="fill:none;stroke:#000;stroke-width:0.5px"/><line x1="26.17" y1="44.51" x2="40.83" y2="44.51" style="fill:none;stroke:#000;stroke-width:0.5px"/><line x1="51.16" y1="45.67" x2="65.83" y2="45.67" style="fill:none;stroke:#000;stroke-width:0.5px"/><line x1="51.5" y1="43.67" x2="66.16" y2="43.67" style="fill:none;stroke:#000;stroke-width:0.5px"/><line x1="57" y1="29.5" x2="57" y2="44.17" style="fill:none;stroke:#000;stroke-width:0.5px"/><line x1="54.83" y1="26" x2="54.83" y2="40.67" style="fill:none;stroke:#000;stroke-width:0.5px"/><line x1="48.5" y1="31.67" x2="48.5" y2="46.34" style="fill:none;stroke:#000;stroke-width:0.5px"/><line x1="45.83" y1="37.34" x2="60.5" y2="37.34" style="fill:none;stroke:#000;stroke-width:0.5px"/><line x1="48.5" y1="28.67" x2="63.17" y2="28.67" style="fill:none;stroke:#000;stroke-width:0.5px"/><line x1="51.5" y1="39.51" x2="66.17" y2="39.51" style="fill:none;stroke:#000;stroke-width:0.5px"/><line x1="68.5" y1="7" x2="83.17" y2="7" style="fill:none;stroke:#000;stroke-width:0.5px"/><line x1="66.83" y1="13.67" x2="81.5" y2="13.67" style="fill:none;stroke:#000;stroke-width:0.5px"/><line x1="3.83" y1="2.83" x2="-10.83" y2="2.83" style="fill:none;stroke:#000;stroke-width:0.5px"/><line x1="7.33" y1="8.33" x2="-7.33" y2="8.33" style="fill:none;stroke:#000;stroke-width:0.5px"/><line x1="-10.5" y1="16.51" x2="4.16" y2="16.51" style="fill:none;stroke:#000;stroke-width:0.5px"/><line x1="-6.83" y1="65.51" x2="7.83" y2="65.51" style="fill:none;stroke:#000;stroke-width:0.5px"/><line x1="-10.5" y1="70.18" x2="4.17" y2="70.18" style="fill:none;stroke:#000;stroke-width:0.5px"/><line x1="-5.17" y1="68.18" x2="9.5" y2="68.18" style="fill:none;stroke:#000;stroke-width:0.5px"/><line x1="-9.83" y1="63.18" x2="4.83" y2="63.18" style="fill:none;stroke:#000;stroke-width:0.5px"/><line x1="-5.17" y1="54.51" x2="9.5" y2="54.51" style="fill:none;stroke:#000;stroke-width:0.5px"/><line x1="-8.5" y1="58.84" x2="6.17" y2="58.84" style="fill:none;stroke:#000;stroke-width:0.5px"/><line x1="5" y1="23.33" x2="-9.67" y2="23.33" style="fill:none;stroke:#000;stroke-width:0.5px"/><line x1="5.5" y1="26.83" x2="-9.17" y2="26.83" style="fill:none;stroke:#000;stroke-width:0.5px"/><line x1="8.5" y1="28.83" x2="-6.17" y2="28.83" style="fill:none;stroke:#000;stroke-width:0.5px"/><line x1="-5.83" y1="18.67" x2="8.83" y2="18.67" style="fill:none;stroke:#000;stroke-width:0.5px"/><line x1="4.67" y1="32.84" x2="-10" y2="32.84" style="fill:none;stroke:#000;stroke-width:0.5px"/><line x1="8.67" y1="34.84" x2="-6" y2="34.84" style="fill:none;stroke:#000;stroke-width:0.5px"/><line x1="3" y1="37.17" x2="-11.67" y2="37.17" style="fill:none;stroke:#000;stroke-width:0.5px"/><line x1="-8.83" y1="51.51" x2="5.83" y2="51.51" style="fill:none;stroke:#000;stroke-width:0.5px"/><line x1="-6.83" y1="47.17" x2="7.83" y2="47.17" style="fill:none;stroke:#000;stroke-width:0.5px"/><line x1="-6.83" y1="41.84" x2="7.83" y2="41.84" style="fill:none;stroke:#000;stroke-width:0.5px"/><line x1="-4.17" y1="44.51" x2="10.5" y2="44.51" style="fill:none;stroke:#000;stroke-width:0.5px"/><line x1="-2.17" y1="39.51" x2="12.5" y2="39.51" style="fill:none;stroke:#000;stroke-width:0.5px"/><line x1="13" y1="64.84" x2="13" y2="79.5" style="fill:none;stroke:#000;stroke-width:0.5px"/><line x1="10.33" y1="62.5" x2="10.33" y2="77.17" style="fill:none;stroke:#000;stroke-width:0.5px"/><line x1="63.33" y1="68.34" x2="63.33" y2="83" style="fill:none;stroke:#000;stroke-width:0.5px"/><line x1="60.83" y1="67.67" x2="60.83" y2="82.34" style="fill:none;stroke:#000;stroke-width:0.5px"/><line x1="37.5" y1="68.34" x2="37.5" y2="83" style="fill:none;stroke:#000;stroke-width:0.5px"/><line x1="68.67" y1="68.34" x2="68.67" y2="83" style="fill:none;stroke:#000;stroke-width:0.5px"/><line x1="43.17" y1="66.5" x2="43.17" y2="81.17" style="fill:none;stroke:#000;stroke-width:0.5px"/><line x1="16.83" y1="67.67" x2="16.83" y2="82.34" style="fill:none;stroke:#000;stroke-width:0.5px"/><line x1="1.83" y1="67.5" x2="1.83" y2="82.17" style="fill:none;stroke:#000;stroke-width:0.5px"/><line x1="6.83" y1="65.5" x2="6.83" y2="80.17" style="fill:none;stroke:#000;stroke-width:0.5px"/><line x1="34.83" y1="68.34" x2="34.83" y2="83" style="fill:none;stroke:#000;stroke-width:0.5px"/><line x1="58.5" y1="60" x2="58.5" y2="74.67" style="fill:none;stroke:#000;stroke-width:0.5px"/><line x1="33.17" y1="60" x2="33.17" y2="74.67" style="fill:none;stroke:#000;stroke-width:0.5px"/><line x1="3.83" y1="2.83" x2="-10.83" y2="2.83" style="fill:none;stroke:#000;stroke-width:0.5px"/><line x1="2.33" y1="5.33" x2="-12.33" y2="5.33" style="fill:none;stroke:#000;stroke-width:0.5px"/><line x1="7.33" y1="8.33" x2="-7.33" y2="8.33" style="fill:none;stroke:#000;stroke-width:0.5px"/><line x1="-10.5" y1="16.51" x2="4.17" y2="16.51" style="fill:none;stroke:#000;stroke-width:0.5px"/><line x1="-6.83" y1="65.51" x2="7.83" y2="65.51" style="fill:none;stroke:#000;stroke-width:0.5px"/><line x1="-10.5" y1="70.18" x2="4.17" y2="70.18" style="fill:none;stroke:#000;stroke-width:0.5px"/><line x1="-5.17" y1="68.18" x2="9.5" y2="68.18" style="fill:none;stroke:#000;stroke-width:0.5px"/><line x1="-9.83" y1="63.18" x2="4.83" y2="63.18" style="fill:none;stroke:#000;stroke-width:0.5px"/><line x1="-12.83" y1="56.51" x2="1.83" y2="56.51" style="fill:none;stroke:#000;stroke-width:0.5px"/><line x1="-5.17" y1="54.51" x2="9.5" y2="54.51" style="fill:none;stroke:#000;stroke-width:0.5px"/><line x1="-8.5" y1="58.84" x2="6.17" y2="58.84" style="fill:none;stroke:#000;stroke-width:0.5px"/><line x1="5" y1="23.33" x2="-9.67" y2="23.33" style="fill:none;stroke:#000;stroke-width:0.5px"/><line x1="5.5" y1="26.83" x2="-9.17" y2="26.83" style="fill:none;stroke:#000;stroke-width:0.5px"/><line x1="8.5" y1="28.83" x2="-6.17" y2="28.83" style="fill:none;stroke:#000;stroke-width:0.5px"/><line x1="-5.83" y1="18.67" x2="8.83" y2="18.67" style="fill:none;stroke:#000;stroke-width:0.5px"/><line x1="4.67" y1="32.84" x2="-10" y2="32.84" style="fill:none;stroke:#000;stroke-width:0.5px"/><line x1="8.67" y1="34.84" x2="-6" y2="34.84" style="fill:none;stroke:#000;stroke-width:0.5px"/><line x1="3" y1="37.17" x2="-11.67" y2="37.17" style="fill:none;stroke:#000;stroke-width:0.5px"/><line x1="-12.17" y1="48.51" x2="2.5" y2="48.51" style="fill:none;stroke:#000;stroke-width:0.5px"/><line x1="-8.83" y1="51.51" x2="5.83" y2="51.51" style="fill:none;stroke:#000;stroke-width:0.5px"/><line x1="-6.83" y1="47.17" x2="7.83" y2="47.17" style="fill:none;stroke:#000;stroke-width:0.5px"/><line x1="-6.83" y1="41.84" x2="7.83" y2="41.84" style="fill:none;stroke:#000;stroke-width:0.5px"/><line x1="-4.17" y1="44.51" x2="10.5" y2="44.51" style="fill:none;stroke:#000;stroke-width:0.5px"/><line x1="-2.17" y1="39.51" x2="12.5" y2="39.51" style="fill:none;stroke:#000;stroke-width:0.5px"/><line x1="-3.5" y1="7" x2="11.17" y2="7" style="fill:none;stroke:#000;stroke-width:0.5px"/><line x1="-5.17" y1="13.67" x2="9.5" y2="13.67" style="fill:none;stroke:#000;stroke-width:0.5px"/><line x1="58.5" y1="-12" x2="58.5" y2="2.67" style="fill:none;stroke:#000;stroke-width:0.5px"/><line x1="60" y1="-13.5" x2="60" y2="1.17" style="fill:none;stroke:#000;stroke-width:0.5px"/><line x1="65.33" y1="-8" x2="65.33" y2="6.67" style="fill:none;stroke:#000;stroke-width:0.5px"/><line x1="69.67" y1="-10.67" x2="69.67" y2="4" style="fill:none;stroke:#000;stroke-width:0.5px"/><line x1="19.33" y1="-13.17" x2="19.33" y2="1.5" style="fill:none;stroke:#000;stroke-width:0.5px"/><line x1="25.83" y1="-12.33" x2="25.83" y2="2.33" style="fill:none;stroke:#000;stroke-width:0.5px"/><line x1="33.17" y1="-12" x2="33.17" y2="2.67" style="fill:none;stroke:#000;stroke-width:0.5px"/><line x1="31" y1="-13.17" x2="31" y2="1.5" style="fill:none;stroke:#000;stroke-width:0.5px"/><line x1="37.17" y1="-14.33" x2="37.17" y2="0.33" style="fill:none;stroke:#000;stroke-width:0.5px"/><line x1="55" y1="-14.33" x2="55" y2="0.33" style="fill:none;stroke:#000;stroke-width:0.5px"/><line x1="48" y1="-6.33" x2="48" y2="8.33" style="fill:none;stroke:#000;stroke-width:0.5px"/><line x1="39" y1="-8.33" x2="39" y2="6.33" style="fill:none;stroke:#000;stroke-width:0.5px"/><line x1="13" y1="-7.17" x2="13" y2="7.5" style="fill:none;stroke:#000;stroke-width:0.5px"/><line x1="10.33" y1="-9.5" x2="10.33" y2="5.17" style="fill:none;stroke:#000;stroke-width:0.5px"/><line x1="63.33" y1="-3.67" x2="63.33" y2="11" style="fill:none;stroke:#000;stroke-width:0.5px"/><line x1="60.83" y1="-4.33" x2="60.83" y2="10.33" style="fill:none;stroke:#000;stroke-width:0.5px"/><line x1="37.5" y1="-3.67" x2="37.5" y2="11" style="fill:none;stroke:#000;stroke-width:0.5px"/><line x1="68.67" y1="-3.67" x2="68.67" y2="11" style="fill:none;stroke:#000;stroke-width:0.5px"/><line x1="43.17" y1="-5.5" x2="43.17" y2="9.17" style="fill:none;stroke:#000;stroke-width:0.5px"/><line x1="16.83" y1="-4.33" x2="16.83" y2="10.33" style="fill:none;stroke:#000;stroke-width:0.5px"/><line x1="1.83" y1="-4.5" x2="1.83" y2="10.17" style="fill:none;stroke:#000;stroke-width:0.5px"/><line x1="6.83" y1="-6.5" x2="6.83" y2="8.17" style="fill:none;stroke:#000;stroke-width:0.5px"/><line x1="34.83" y1="-3.67" x2="34.83" y2="11" style="fill:none;stroke:#000;stroke-width:0.5px"/><line x1="58.5" y1="-12" x2="58.5" y2="2.67" style="fill:none;stroke:#000;stroke-width:0.5px"/><line x1="33.17" y1="-12" x2="33.17" y2="2.67" style="fill:none;stroke:#000;stroke-width:0.5px"/></pattern></defs><title>spikeling</title><g id="Layer_2" data-name="Layer 2"><rect x="0.03" width="351.5" height="238.18" style="fill:#0c3742"/></g><g id="Layer_1" data-name="Layer 1"><g id="Board_cut" data-name="Board cut"><rect x="0.63" y="0.6" width="350.55" height="236.98" rx="11.4" ry="11.4" style="fill:#0e1e26"/><path d="M339.75,1.2A10.81,10.81,0,0,1,350.55,12V226.18a10.81,10.81,0,0,1-10.8,10.8H12a10.81,10.81,0,0,1-10.8-10.8V12A10.81,10.81,0,0,1,12,1.2H339.75m0-1.2H12A12,12,0,0,0,0,12V226.18a12,12,0,0,0,12,12H339.75a12,12,0,0,0,12-12V12a12,12,0,0,0-12-12Z" transform="translate(0.03 0)" style="fill:#93a1a1"/></g><g id="Drawing:_Pipette" data-name="Drawing: Pipette"><path d="M52.74,237.6l100-125.46c9.42-11.07,1.88-15.62,1-11.25a7.15,7.15,0,0,1-1.37,4.42c-1.62,2.5-13.21,15.46-13.21,15.46l-104,116.89Z" transform="translate(0.03 0)" style="fill:none;stroke:#93a1a1"/><path d="M.63,220.55,139.91,100.41c7.62-7,12.27-5.3,12.74-3.35.19.78-.3,1.61-1.54,1.91a9.43,9.43,0,0,0-4.67,1.8c-2.43,1.72-14.12,12.44-14.12,12.44L5.14,235.27" transform="translate(0.03 0)" style="fill:none;stroke:#93a1a1"/></g><g id="Glass_pipette_right" data-name="Glass pipette right"><path d="M154.53,100.91c.44,1.49-.75,5.19-5.07,9.56L37.25,237" transform="translate(0.03 0)" style="fill:none;stroke:#9d9d9d;stroke-width:0.2px"/><path d="M155,101.93c-.43,3.48-1.84,5-5.12,8.67" transform="translate(0.03 0)" style="fill:none;stroke:#000;stroke-width:0.2px"/><line x1="148.38" y1="112.37" x2="40.72" y2="234.64" style="fill:none;stroke:#9d9d9d;stroke-width:0.2px"/><line x1="148.34" y1="113.04" x2="43.5" y2="233.14" style="fill:none;stroke:#9d9d9d;stroke-width:0.2px"/><path d="M155.48,102.62c-.23,3.15-4.54,7.58-4.54,7.58" transform="translate(0.03 0)" style="fill:none;stroke:#000;stroke-width:0.2px"/><path d="M155.67,104.2c-.4,1.9-3.56,5.42-3.56,5.5" transform="translate(0.03 0)" style="fill:none;stroke:#000;stroke-width:0.2px"/><line x1="148.09" y1="114.14" x2="46.03" y2="232.02" style="fill:none;stroke:#9d9d9d;stroke-width:0.2px"/><line x1="147.8" y1="115.35" x2="48.09" y2="231.45" style="fill:none;stroke:#9d9d9d;stroke-width:0.2px"/><line x1="147.68" y1="116.31" x2="50.97" y2="230.19" style="fill:none;stroke:#9d9d9d;stroke-width:0.2px"/><line x1="147.49" y1="117.44" x2="53.72" y2="228.72" style="fill:none;stroke:#9d9d9d;stroke-width:0.2px"/><line x1="147.49" y1="118.78" x2="56.34" y2="227.14" style="fill:none;stroke:#9d9d9d;stroke-width:0.2px"/></g><g id="Glass_pipette_left" data-name="Glass pipette left"><path d="M151.27,97.77c-3-1-6.65,1.71-11.63,6.85L9.68,227.22" transform="translate(0.03 0)" style="fill:none;stroke:#93a1a1;stroke-width:0.2px"/><line x1="112.75" y1="124.73" x2="0.07" y2="226.35" style="fill:none;stroke:#93a1a1;stroke-width:0.2px"/><line x1="97.59" y1="137.83" x2="0.08" y2="224.8" style="fill:none;stroke:#93a1a1;stroke-width:0.2px"/><line x1="123.2" y1="115.79" x2="0.48" y2="227.47" style="fill:none;stroke:#93a1a1;stroke-width:0.2px"/><line x1="72.25" y1="159.73" x2="0.1" y2="223.16" style="fill:none;stroke:#93a1a1;stroke-width:0.2px"/><line x1="142.59" y1="99.1" x2="0.96" y2="229.88" style="fill:none;stroke:#93a1a1;stroke-width:0.2px"/><path d="M-.09,222.43" transform="translate(0.03 0)" style="fill:none;stroke:#000;stroke-width:0.2px"/><path d="M125.74,108.81" transform="translate(0.03 0)" style="fill:none;stroke:#000;stroke-width:0.2px"/><line x1="134.18" y1="106.26" x2="0.75" y2="228.67" style="fill:none;stroke:#93a1a1;stroke-width:0.2px"/><path d="M150.94,97.21c-2.11-.54-5.11.91-7.84,3.4L6.65,228.77" transform="translate(0.03 0)" style="fill:none;stroke:#93a1a1;stroke-width:0.2px"/><path d="M150.62,96.8c-3-.84-6.1,1.87-11.57,7L3.79,230.12" transform="translate(0.03 0)" style="fill:none;stroke:#93a1a1;stroke-width:0.2px"/><path d="M150.46,96.33c-2.86-.83-6.54,1.87-11.71,7L1.39,230.86" transform="translate(0.03 0)" style="fill:none;stroke:#93a1a1;stroke-width:0.2px"/></g><g id="Drawing:_Photoreceptor" data-name="Drawing: Photoreceptor"><path d="M83.6,213.41c-.07.43.69.88,1.1,1.12a7.65,7.65,0,0,0,1,.5c.83.37.78.43,1.78.91,1.29.63,1.4.53,2.53,1.12.34.18.57.31,1,.5s.59.22,1.33.5c.59.22.88.33,1.2.47.79.35.85.48,1.44.68s.44.08,1,.26.51.2,1.33.55l1.15.47c.41.16.75.28,1.44.52l1.12.39c.93.32,1,.32,1.28.44.62.24.58.28,1.1.47s.65.18,1.33.42.62.27,1.12.44a11,11,0,0,0,1.36.37c.39.09.5.13,2.4.78l2.64.89c.67.21.58.16,2.27.65s1.72.52,2.43.7c1.16.3,1.26.28,2.3.57.26.07.54.15.94.23a11.47,11.47,0,0,0,1.41.18c.22,0,.73.05,1.38.05l1.41-.05c1,0,1,0,1.15-.05a12,12,0,0,0,1.46-.29c.56-.13.85-.2,1.23-.31a12.24,12.24,0,0,0,1.46-.55c.27-.12.61-.31,1.28-.68.44-.24.7-.4,1.23-.7a3.37,3.37,0,0,0,1.12-.86l.26-.39a2.49,2.49,0,0,0,.29-.5c0-.14,0-.14.05-.26a1.36,1.36,0,0,1,.26-.39,3.32,3.32,0,0,0,.23-.29c.12-.21,0-.33.13-.52s.19-.18.37-.37a1.86,1.86,0,0,0,.42-.94,1.61,1.61,0,0,1,.21-.7c.09-.13.12-.1.18-.21.18-.31-.05-.57.1-.81s.22-.09.39-.26a1,1,0,0,0,.26-.6,6.66,6.66,0,0,0,.08-1.54c-.11-1.14-.29-.95-.34-1.83a1.7,1.7,0,0,0-.31-1.15c-.12-.14-.16-.1-.26-.23-.25-.34,0-.61-.21-1.17a2.21,2.21,0,0,0-.29-.57,3.29,3.29,0,0,0-.5-.57c-.91-.82-4.36-2.32-6.55-4.23a4.64,4.64,0,0,0-2.06-1.31l-1.75-.18c-.84-.09-1.08-.11-1.49-.13-.65,0-1.15,0-1.36,0-.38,0-.73.06-1.44.13s-.93.1-1.28.16-.65.12-1.28.26l-1.25.29c-.65.16-.67.19-1.28.34l-1.17.26-1.31.26-1.2.26c-.22.05-.7.16-1.25.31-1.3.35-1.33.46-2.35.7-.49.12-.67.14-1.17.29s-.57.2-1.07.34c-.67.19-.71.14-1.31.31s-.54.21-1,.34-.49.08-1.07.21-.51.15-1.2.31-.64.13-1.31.29l-1.1.29c-.82.22-.81.24-1.23.34s-.41.08-1.2.26l-1,.23c-.94.21-.92.19-1.41.31-.74.18-.74.22-1.23.31s-.55.07-1.15.18-.64.17-1.25.29c-.32.06-.35.05-1.25.18l-1.23.18c-1,.18-1,.28-1.7.34a5.83,5.83,0,0,1-1,.05c-.12,0-.27,0-.57,0a.64.64,0,0,0-.31.05A.54.54,0,0,0,83.6,213.41Z" transform="translate(0.03 0)" style="fill:#0e1e26"/><path d="M170,222.1s-.12.21-.27.44c-.26.41-.51.74-.75,1a12.1,12.1,0,0,1-1.75,2,17.51,17.51,0,0,1-1.46,1.1c-.57.4-.94.63-1.23.81-.13.08-.46.28-.78.44a9.11,9.11,0,0,1-2.38.81,11.38,11.38,0,0,1-2.3.23,13.4,13.4,0,0,1-2.14-.13,12.28,12.28,0,0,1-4-1.36,7.06,7.06,0,0,1-2.35-1.67c-.94-1.14-1.41-1.71-1.59-2a1.87,1.87,0,0,0-.37-.42,2.06,2.06,0,0,0-.52-.31,7.36,7.36,0,0,0-1-.37c-.58-.17-.59-.2-1.07-.34a20.45,20.45,0,0,0-3.89-.84,10.11,10.11,0,0,0-2.24-.1,6.07,6.07,0,0,1-2.22,0,2.56,2.56,0,0,0-.42-.13,1,1,0,0,0-.57-.05c-.19.07-.23.27-.34.44-.19.33-.43.34-1,.68a13.52,13.52,0,0,0-1.7,1.33c-.18.15-.39.34-.42.31s.24-.31.57-.84a5.66,5.66,0,0,0,.44-.81c.15-.35.11-.35.23-.63.23-.5.39-.52.57-.94a5.87,5.87,0,0,0,.21-.86,7.49,7.49,0,0,1,.37-1c.47-1.14.57-1,.68-1.46a3.92,3.92,0,0,0-.13-2c-.18-.73-.34-.74-.37-1.25a1.45,1.45,0,0,0-.21-.91c-.11-.14-.16-.12-.26-.23-.34-.38-.09-.92-.18-1.41s-.64-.87-1.15-1.17c-1.21-.73-2.36-1.59-3.6-2.27a28.4,28.4,0,0,1-3.29-2,4.46,4.46,0,0,0-.65-.47c-.2-.12-.31-.16-.52-.29a4.22,4.22,0,0,1-.57-.42,12.53,12.53,0,0,1,2.24.39,17.92,17.92,0,0,1,3,1.17c.54.25.89.44.89.44.55.28.73.42,1.59.79a17.16,17.16,0,0,1,1.78.78,8.16,8.16,0,0,1,1.88,1.49c.36.41.54.62.57.86s0,.3.16.39a.27.27,0,0,0,.31,0c.09-.08,0-.21.05-.44a.7.7,0,0,1,.16-.29.74.74,0,0,1,.57-.18,2.11,2.11,0,0,1,.89.21,5.2,5.2,0,0,0,1.59.29,7.86,7.86,0,0,0,2-.08,10.84,10.84,0,0,0,1.83-.42,18.75,18.75,0,0,0,2.66-1.23,10.92,10.92,0,0,0,1.72-1c.51-.38.48-.45,1.15-1a12.72,12.72,0,0,1,1.93-1.38A15.79,15.79,0,0,1,154,205c.59-.26,1-.39,1.12-.44s.68-.23,1.2-.37a9.58,9.58,0,0,1,1.51-.31,8.61,8.61,0,0,1,1.85,0c.42,0,.7.09,1.25.18a13.32,13.32,0,0,1,1.83.39,11.27,11.27,0,0,1,1.28.5,9.08,9.08,0,0,1,1.75.89c.09.06.45.38,1.17,1,.92.81,1,.87,1.1,1a9.12,9.12,0,0,1,1,1.31,12.17,12.17,0,0,0,3.25,3.42,6.55,6.55,0,0,0,4,.71c6.13-.36,10.31-2.5,12.67-6.08s6.07-8.81,6.08-13.08a57.57,57.57,0,0,0-5.33-23.5c-2.08-4-11.06-21.13-14.92-24.75a70.33,70.33,0,0,0-10.08-7.33,1.12,1.12,0,0,0-.27-.15.92.92,0,0,0-.4,0,1,1,0,0,0-.52.25,1.92,1.92,0,0,0-.56.94,33.59,33.59,0,0,1-1.1,4.71,4.3,4.3,0,0,1-3.71,2.58c-.93,0-2.16-.39-2.33-1.08-.08-.32,0-.81.29-.9s.24,0,.46.15c.72.41.83.55,1,.65a2,2,0,0,0,1.6-.33,3.51,3.51,0,0,0,1.46-1.44,2.88,2.88,0,0,0,.42-1.62c-.13-1.57-1.92-2.94-3-2.73a1.73,1.73,0,0,1-.94,0,1.07,1.07,0,0,1-.69-.52,1.27,1.27,0,0,1,.54-1.37,1.3,1.3,0,0,1,.69-.27c.55,0,.84.33,1.4.63a3.09,3.09,0,0,0,2.1.31,2.56,2.56,0,0,0,1.58-2,3.13,3.13,0,0,0-1-2.73,2.58,2.58,0,0,0-1.85-.87,1.25,1.25,0,0,1-.73,0,.82.82,0,0,1-.52-.62c0-.43.48-.81.92-.87s.55.09,1.17.46c1.55.95,1.74,1.14,2.15,1.13a1.52,1.52,0,0,0,1.25-.77,2.11,2.11,0,0,0-.23-1.83c-.74-1.57-1.7-1.38-2.77-3.1a7.21,7.21,0,0,1-.85-2.08,4.84,4.84,0,0,1-.15-1.17,2.14,2.14,0,0,1,.46-1.69,1.06,1.06,0,0,1,1.06-.18c.36.27.21,1.6.21,1.6a6.68,6.68,0,0,0,.67,3.13c.56.85.73.64,1.69,1.85a5.75,5.75,0,0,1,1.27,2.19,7,7,0,0,1,.08,2c-.06,1.71-.24,2-.19,2.54.14,1.59,2,2.51,2.89,3C171,140,171.13,140,176,144.12s13.21,20.48,15.92,25.21,7.15,11.79,6.58,24.79c-.32,7.5-3.58,11.59-6.08,14.69s-8.22,9.21-14.71,9.31a8.83,8.83,0,0,0-4.46,1A10.11,10.11,0,0,0,170,222.1Z" transform="translate(0.03 0)" style="fill:#93a1a1;stroke:#93a1a1;stroke-width:0.5px"/><path d="M171.25,218.16" transform="translate(0.03 0)" style="stroke:#000;stroke-width:0.5px;fill:url(#Burlap)"/><path d="M171.36,217.18" transform="translate(0.03 0)" style="stroke:#000;stroke-width:0.5px;fill:url(#Burlap)"/><path d="M85.28,215.43c-.21-.7.2-1.1.1-2a2.82,2.82,0,0,1-.05-.94.88.88,0,0,1,.31-.63.84.84,0,0,1,.52-.1.76.76,0,0,1,.39.1,1,1,0,0,1,.31.42,2.58,2.58,0,0,1,.16.34,7,7,0,0,1,.08,1.83,1.44,1.44,0,0,1,0,.57,1.47,1.47,0,0,1-.47.63c-.24.22-.38.35-.6.37a.71.71,0,0,1-.44-.13A.81.81,0,0,1,85.28,215.43Z" transform="translate(0.03 0)" style="fill:#93a1a1"/><path d="M88.1,216.4c0-.34.13-.47.23-.86a3,3,0,0,0,.08-.7c0-.2,0-.21,0-.78,0-.9,0-1-.13-1.2a.55.55,0,0,1-.1-.26.59.59,0,0,1,.1-.37.62.62,0,0,1,.26-.23.69.69,0,0,1,.44,0,1,1,0,0,1,.44.21,1.29,1.29,0,0,1,.37.55,2.7,2.7,0,0,1,.18.63,6,6,0,0,1,.08,1.07,3.37,3.37,0,0,1-.13,1.41c-.08.17-.13.19-.29.5a2.93,2.93,0,0,1-.34.6.82.82,0,0,1-.29.26.64.64,0,0,1-.57,0,.74.74,0,0,1-.26-.47A1.34,1.34,0,0,1,88.1,216.4Z" transform="translate(0.03 0)" style="fill:#93a1a1"/><path d="M90.63,217.26a3.66,3.66,0,0,1,.18-1,6.58,6.58,0,0,0,.08-1,5.48,5.48,0,0,0,0-1.17c-.05-.32-.09-.29-.16-.68s0-.31-.08-1c0-.34-.06-.46,0-.6a1.31,1.31,0,0,1,.31-.29.76.76,0,0,1,.26-.16.58.58,0,0,1,.31,0,.85.85,0,0,1,.26.16l.31.23a1,1,0,0,1,.21.44,3.36,3.36,0,0,1,.1.68c0,.54.05.43.08.76a12,12,0,0,1,0,1.33c0,.49-.07.85-.1,1.12,0,0-.06.43-.18.94a1.53,1.53,0,0,1-.23.6,1.13,1.13,0,0,1-.44.37.66.66,0,0,1-.31.08.67.67,0,0,1-.47-.26A.87.87,0,0,1,90.63,217.26Z" transform="translate(0.03 0)" style="fill:#93a1a1"/><path d="M93.06,218.54c0-.2,0-.34.18-.94l.13-.44a3.74,3.74,0,0,0,.08-.84c0-.59,0-.38.05-1.15,0-.62,0-.93,0-1.31a6.38,6.38,0,0,0-.1-.89c-.08-.39-.16-.68-.16-.68-.06-.22-.08-.33-.13-.55a.73.73,0,0,1,0-.39.7.7,0,0,1,.23-.31.74.74,0,0,1,.29-.18.73.73,0,0,1,.57.1,1,1,0,0,1,.29.31,3.45,3.45,0,0,1,.37.73,5.41,5.41,0,0,1,.31,1.17c0,.14,0,.39.05.89a13.68,13.68,0,0,1,0,1.38,8,8,0,0,1-.13.91c-.07.35-.1.36-.16.68s0,.28-.13,1c-.07.52-.09.66-.21.81a1,1,0,0,1-.39.29.84.84,0,0,1-1.15-.6Z" transform="translate(0.03 0)" style="fill:#93a1a1"/><path d="M95.51,219.35a1.46,1.46,0,0,1,.1-.78c0-.06.08-.52.18-1.44a16.88,16.88,0,0,0,.16-2.06c0-.26,0-.81-.13-1.91a4.61,4.61,0,0,0-.18-1.41,1.25,1.25,0,0,1-.18-.73,1,1,0,0,1,.18-.44.65.65,0,0,1,.31-.26.62.62,0,0,1,.37,0,1,1,0,0,1,.42.23,1.3,1.3,0,0,1,.26.26,1.51,1.51,0,0,1,.18.76c0,.37.1.33.18.76a12.08,12.08,0,0,1,.1,1.51c0,.52.06.43.08.81a16.48,16.48,0,0,1-.08,2c0,.7-.06.81-.08.91-.1.59-.19.6-.23,1.1a2,2,0,0,1-.13.73.9.9,0,0,1-.31.42.82.82,0,0,1-.76.08.69.69,0,0,1-.44-.55Z" transform="translate(0.03 0)" style="fill:#93a1a1"/><path d="M98,220.29a2.05,2.05,0,0,1,.1-.63l.08-.47c.09-.54.13-.81.16-1.07s0-.32,0-.81,0-.5.1-1.38c0-.63.07-.95.08-1.25a10.65,10.65,0,0,0,0-1.1c0-.57-.09-.5-.21-1.44s-.07-.89-.18-1.12a1.4,1.4,0,0,1-.18-.57A.71.71,0,0,1,98,210a.64.64,0,0,1,.26-.21,1.22,1.22,0,0,1,.37-.08h0a1.42,1.42,0,0,1,.52.31c.13.15.11.27.18.63,0,.15,0,0,.23.81.15.53.23.8.31,1.17,0,.12.08.36.13.63a11.79,11.79,0,0,1,.16,2,9.67,9.67,0,0,1,0,1.33c0,.27,0,.26-.16,1s-.11.89-.18,1.2a7.25,7.25,0,0,0-.26,1,2,2,0,0,1-.13.73.8.8,0,0,1-.26.37.71.71,0,0,1-.44.13.77.77,0,0,1-.52-.26A.9.9,0,0,1,98,220.29Z" transform="translate(0.03 0)" style="fill:#93a1a1"/><path d="M100.4,221.17a4.54,4.54,0,0,1,.26-1.57,6.72,6.72,0,0,0,.18-1.15c0-.46,0-.54.05-1.59,0-.65,0-.63.05-1.51,0-.61,0-.91,0-1.2a11.17,11.17,0,0,0-.08-1.78,13,13,0,0,0-.31-1.41c-.08-.28-.11-.57-.21-.84a1.1,1.1,0,0,1-.1-.55.59.59,0,0,1,.13-.34.6.6,0,0,1,.47-.18.83.83,0,0,1,.52.29,1.6,1.6,0,0,1,.37.52,3.85,3.85,0,0,1,.23,1.28c.08.73.19.64.34,1.59,0,.27.07.57.13,1.17,0,.41.06.69.1,1.2a10.53,10.53,0,0,1,.08,1.38c0,.35-.06.29-.18,1.12,0,.26-.07.51-.13,1-.1.78-.09.79-.13,1-.07.45-.09.39-.18.94a3.47,3.47,0,0,1-.13.6c-.1.3-.17.51-.37.6a.79.79,0,0,1-.6-.08.8.8,0,0,1-.42-.29A.67.67,0,0,1,100.4,221.17Z" transform="translate(0.03 0)" style="fill:#93a1a1"/><path d="M103,222.09a1.5,1.5,0,0,1,.18-.89,8.07,8.07,0,0,0,.21-1.49c.08-.78,0-.91.1-2.35a21.42,21.42,0,0,0,.08-2.19,13.53,13.53,0,0,1-.1-1.46,4.41,4.41,0,0,0,0-1.17c-.08-.41-.17-.37-.26-.81-.14-.64,0-.75-.16-1.2a3.78,3.78,0,0,1-.29-.65c0-.19-.1-.52-.1-.52h0a1,1,0,0,1,0-.39.67.67,0,0,1,.34-.34.65.65,0,0,1,.37-.1.64.64,0,0,1,.37.16,1,1,0,0,1,.29.39,3.16,3.16,0,0,1,.23.76l.16.7c.11.54.15.62.23,1,0,.17.15.67.23,1.31s.12,1.09.16,1.59c0,.24,0,.54.05.94,0,1.08,0,1.91,0,2.17a13.3,13.3,0,0,1-.16,1.51c-.07.41-.16.86-.16.86a6.62,6.62,0,0,0-.13.7c0,.55.15.67,0,1a5,5,0,0,1-.23.47,1.22,1.22,0,0,1-.26.39.7.7,0,0,1-.37.18.69.69,0,0,1-.47-.1A.78.78,0,0,1,103,222.09Z" transform="translate(0.03 0)" style="fill:#93a1a1"/><path d="M105.49,223.05a2.59,2.59,0,0,1,.08-1,11,11,0,0,0,.16-1.46c0-.67,0-.82,0-1.49,0-1.09.16-1.13.26-2.51a8.7,8.7,0,0,0,0-2.09c-.09-.64-.19-.67-.31-1.51a9.19,9.19,0,0,0-.21-1.51,5.47,5.47,0,0,1-.31-1c-.06-.44,0-.46-.05-.84s-.3-.63-.23-1a1,1,0,0,1,.26-.47.68.68,0,0,1,.34-.21.8.8,0,0,1,.42.05,1,1,0,0,1,.37.16c.18.15.17.37.21.73s.16.7.23,1c.12.52.15.58.23,1a15.25,15.25,0,0,1,.29,1.62c.09.72,0,.78.13,1.75.07.66.09.59.13,1.07a14.14,14.14,0,0,1,0,1.93c0,.42-.06.74-.1,1.17-.09.86-.13.89-.16,1.36a9,9,0,0,1,0,1.23c-.09.52-.21.53-.23,1a7.65,7.65,0,0,1,0,.94,1,1,0,0,1-.16.5.79.79,0,0,1-.47.31.74.74,0,0,1-.6-.13A.78.78,0,0,1,105.49,223.05Z" transform="translate(0.03 0)" style="fill:#93a1a1"/><path d="M107.86,223.81a6.76,6.76,0,0,1,.21-2.66,12.67,12.67,0,0,0,.42-3.29c0-.48-.05-1.44-.21-3.34,0,0-.13-1.65-.42-3.6a5.56,5.56,0,0,0-.31-1.49,7.26,7.26,0,0,1-.39-1.12.94.94,0,0,1,0-.63.87.87,0,0,1,.16-.23.86.86,0,0,1,.26-.18.71.71,0,0,1,.39-.1c.07,0,.1,0,.31.13l.37.18c.21.17.18.51.18.73s0-.06.31,1.38c.23,1.1.35,1.64.44,2.22.05.32.2,1.26.29,2.48,0,.67.06,1.14.08,2.09a17.14,17.14,0,0,1,0,2.32c-.07.53-.16.8-.23,1.59-.05.53,0,.51-.08,1-.12,1.16-.24,1-.23,1.64a1.93,1.93,0,0,1-.13.94.7.7,0,0,1-.37.39,1,1,0,0,1-.42,0,.86.86,0,0,1-.37-.08A.61.61,0,0,1,107.86,223.81Z" transform="translate(0.03 0)" style="fill:#93a1a1"/><path d="M110.37,224.57a4.48,4.48,0,0,1,.16-2.45c.09-.44.16-1.28.31-2.95.1-1.07.14-1.61.16-2.3a25.64,25.64,0,0,0-.16-3.16c-.1-1-.21-1.68-.23-1.83a14.24,14.24,0,0,0-.44-2.14c-.19-.59-.32-1.2-.55-1.78a1.76,1.76,0,0,1-.13-.7,1.68,1.68,0,0,1,.08-.44.87.87,0,0,1,.18-.37.55.55,0,0,1,.29-.18.62.62,0,0,1,.47.13,2.38,2.38,0,0,1,.21.18h0s.25.71.42,1.25c.11.36.17.62.34,1.36.26,1.16.39,1.74.47,2.11a26.46,26.46,0,0,1,.5,3,20.68,20.68,0,0,1,.08,2.4c0,1.07-.09,1.88-.21,3.05-.13,1.36-.16,1.21-.23,2.17-.13,1.64-.19,2.45-.18,2.48a.78.78,0,0,1-.05.57.82.82,0,0,1-.21.21.78.78,0,0,1-.34.16.73.73,0,0,1-.34,0,1.75,1.75,0,0,1-.5-.31s.1.22.13.21A3.21,3.21,0,0,0,110.37,224.57Z" transform="translate(0.03 0)" style="fill:#93a1a1"/><path d="M112.74,225.24a9.71,9.71,0,0,1,.21-2.4,18.53,18.53,0,0,0,.26-2.56c0-.39,0-.33.05-1.17.09-1.87.13-1.95.16-2.9a20.9,20.9,0,0,0-.05-2.48c0-.52-.11-.95-.23-1.8-.18-1.22-.27-1.84-.42-2.4-.3-1.16-.45-1.74-.52-1.91a2.1,2.1,0,0,1-.21-1,.9.9,0,0,1,.21-.55.6.6,0,0,1,.34-.21.59.59,0,0,1,.44.1.79.79,0,0,1,.23.31c.23.43.27.42.37.63a4.42,4.42,0,0,1,.34,1.36c.14,1.36.33,1.23.55,3.05,0,.23.07.77.16,1.85.11,1.43.17,2.14.18,2.43,0,.8,0,1.66-.05,3.39,0,1.4-.09,1.9-.1,2.11-.12,1.47-.22,1.25-.23,2a6.11,6.11,0,0,1-.31,2.48,1.53,1.53,0,0,1-.37.29.76.76,0,0,1-.29.1.55.55,0,0,1-.39-.08.71.71,0,0,1-.21-.34A2,2,0,0,1,112.74,225.24Z" transform="translate(0.03 0)" style="fill:#93a1a1"/><path d="M115,225.92a14,14,0,0,1,.5-2.92,18.71,18.71,0,0,0,.18-2.61c.19-3.09.24-3,.26-4.12a32.07,32.07,0,0,0-.1-3.32c-.07-.8-.16-1.45-.26-2.14a19.74,19.74,0,0,0-.34-2,9.66,9.66,0,0,0-.5-1.72,3.36,3.36,0,0,1-.26-.81,1,1,0,0,1,0-.63.76.76,0,0,1,.29-.31.65.65,0,0,1,.84.1,1.21,1.21,0,0,1,.16.29,4.37,4.37,0,0,0,.23.39,2.17,2.17,0,0,1,.23.78c.1.59.06.75.13,1.25a7.7,7.7,0,0,0,.21.91c.2.8.31,1.43.39,1.93.15.9.21,1.6.26,2.19s.09,1,.1,1.78c0,.9,0,1.06-.08,2.77,0,1.06,0,1.14-.05,2.11,0,1.3-.1,1.74-.13,2-.13,1-.2.83-.29,1.64-.15,1.48-.22,2.21-.21,2.38a.73.73,0,0,1-.1.52,1.12,1.12,0,0,1-.26.21c-.17.12-.26.18-.34.18s-.12,0-.44-.23-.26-.15-.31-.21A.68.68,0,0,1,115,225.92Z" transform="translate(0.03 0)" style="fill:#93a1a1"/><path d="M117.39,226.6a26.73,26.73,0,0,1,.52-3.63,16.07,16.07,0,0,0,.23-2.09c.05-.86,0-1.05,0-2.17,0-1.49.12-1.48.13-2.64,0-.77,0-1.46-.13-2.82,0-.26,0,0-.23-2.69a11.13,11.13,0,0,0-.26-2c-.19-.74-.37-1.31-.37-1.31-.06-.21-.15-.48-.23-.86a3.59,3.59,0,0,1-.1-.94.94.94,0,0,1,.18-.63.61.61,0,0,1,.21-.16.58.58,0,0,1,.39,0,.81.81,0,0,1,.34.26,2.08,2.08,0,0,1,.23.29,2.16,2.16,0,0,1,.29.91c.05.44.18.87.23,1.31.12,1.05.24,1.16.44,2.43a31.53,31.53,0,0,1,.31,3.39c0,.57,0,.37.08,2,.1,2.43.13,2.55.1,3.21s0,.2-.23,2.45c-.11,1.26-.14,1.73-.26,2.66-.09.67-.13,1-.21,1.46s-.16.84-.23,1.38l-.08.6h0a.93.93,0,0,1-.44.39.65.65,0,0,1-.42-.05.83.83,0,0,1-.34-.23A.89.89,0,0,1,117.39,226.6Z" transform="translate(0.03 0)" style="fill:#93a1a1"/><path d="M119.74,227a2,2,0,0,1,.13-.89,14.25,14.25,0,0,0,.29-2.35c.23-2.09.28-1.91.42-3.34.07-.75.16-1.7.18-3s0-2.14-.05-2.56c-.05-.9-.09-1-.13-1.85-.06-1.28,0-1.31-.05-2.19,0-.62-.14-1.16-.31-2.24a10.77,10.77,0,0,0-.39-1.91,4.76,4.76,0,0,1-.26-.86,1.89,1.89,0,0,1-.05-.63,1.1,1.1,0,0,1,.08-.34,1.06,1.06,0,0,1,.21-.31.68.68,0,0,1,.23-.18.63.63,0,0,1,.44,0,.76.76,0,0,1,.31.21,1,1,0,0,1,.21.34,3.77,3.77,0,0,1,.23,1.23,15.76,15.76,0,0,0,.29,2.14c.08.66.08.58.23,1.75.23,1.76.35,2.64.39,3.05a39.6,39.6,0,0,1,.05,5.64c0,.77-.06,1.29-.08,1.54-.07,1-.16,1.79-.29,2.9-.15,1.27-.22,1.66-.26,1.88-.12.62-.18.93-.26,1.23-.17.62-.36,1.09-.26,1.15s.21-.11.21-.1a3.46,3.46,0,0,1-.5.31,1.12,1.12,0,0,1-.39.16.5.5,0,0,1-.37-.05.55.55,0,0,1-.18-.31A1.45,1.45,0,0,1,119.74,227Z" transform="translate(0.03 0)" style="fill:#93a1a1"/><path d="M122.48,227.33c-.16-.45.61-3.4.78-5,0-.45,0-.2.05-1.64s.14-1.91.18-3.13c0-.19,0-1.07,0-2.24,0-.57,0-1.47-.16-2.64s-.18-1.17-.29-2.4c-.07-.8-.06-1-.16-1.57-.13-.74-.21-.78-.34-1.59a3.07,3.07,0,0,0-.21-.91,1.63,1.63,0,0,1-.18-.5,1.24,1.24,0,0,1,0-.52,1.23,1.23,0,0,1,.29-.5.75.75,0,0,1,.29-.23.58.58,0,0,1,.39,0,.71.71,0,0,1,.31.23,1.32,1.32,0,0,1,.16.21,1.12,1.12,0,0,1,.08.7c-.05.36.09.44.29,1.31.06.26,0,.24.29,1.93.09.65.14,1,.18,1.25.15,1,.24,1.34.31,1.83a19.43,19.43,0,0,1,.18,2.51c.08,2.15.12,3.22.1,3.94,0,0,0,1.76-.29,3.65-.1.77-.21,1.46-.21,1.46-.09.56-.11.58-.23,1.36-.1.6-.18,1.15-.23,1.49l-.13.86h0a1,1,0,0,1-.23.6,3.83,3.83,0,0,1-.57.16c-.18,0-.26.06-.34,0s-.08,0-.21-.29A2.77,2.77,0,0,1,122.48,227.33Z" transform="translate(0.03 0)" style="fill:#93a1a1"/><path d="M125.09,227.33c.11-.62.25-1.52.39-2.61s.21-2,.37-3.76.23-2.74.23-3.39c0-1.14-.08-.94-.16-3-.07-1.88,0-2.19-.13-3.39-.08-.73-.21-1.66-.26-2s-.11-.74-.21-1.31a6.51,6.51,0,0,0-.26-1.25c-.14-.36-.25-.46-.23-.7a1.51,1.51,0,0,1,.42-.78s-.2.19-.18.21.33-.32.55-.23c.07,0,.05.06.23.23a1,1,0,0,0,.23.18c.13.07.19,0,.26.1a.42.42,0,0,1,.13.29,7.52,7.52,0,0,1,.18,1.2,21.85,21.85,0,0,0,.37,2.32c.09.63.14,1.07.23,1.91.13,1.12.2,2,.23,2.3.1,1.07.14,1.62.16,2.27s0,1,0,1.54c0,.92-.08,1.31-.21,2.82-.07.81-.08,1-.23,2.92-.06.79-.12,1.4-.23,2.11a13.17,13.17,0,0,1-.37,1.62c0,.07,0,.14-.08.26s0,.3-.1.39a.58.58,0,0,1-.26.18,1.51,1.51,0,0,1-.29.08,1.07,1.07,0,0,1-.37.05.53.53,0,0,1-.29-.26A.77.77,0,0,1,125.09,227.33Z" transform="translate(0.03 0)" style="fill:#93a1a1"/><path d="M127.78,226.6h0c0-.13,0-.32,0-.55a6.52,6.52,0,0,1,.18-1.51c.09-.43.19-1,.39-2.27.1-.61.19-1.18.26-1.91s.09-1.39.1-2.53c0-1.38,0-2.4,0-2.71,0-.82-.08-1.47-.1-1.85-.07-.94-.11-1.4-.21-2.06,0-.2-.13-.73-.34-1.8-.13-.7-.17-.87-.21-1s-.18-.81-.37-1.46l-.1-.37h0c0-.15,0-.22,0-.26.21-.2,1.24.24,1.72,1a3.89,3.89,0,0,1,.34,1.2c.16.79.22,1.36.29,1.93.16,1.32.18,1.16.29,2.14,0,.41.15,1.34.21,2.45a38.56,38.56,0,0,1,0,3.92c-.07,1.6-.1,2.4-.21,3.16-.28,2-.78,3.4-.78,4a1.08,1.08,0,0,1-.1.47.84.84,0,0,1-.29.34.56.56,0,0,1-.26.1,1.43,1.43,0,0,1-.39-.08h0" transform="translate(0.03 0)" style="fill:#93a1a1"/><path d="M130.36,225h0a.74.74,0,0,1-.21-.29,1.18,1.18,0,0,1,.16-.91,10.32,10.32,0,0,0,.39-1.59A15.88,15.88,0,0,0,131,219a26.74,26.74,0,0,0,.13-4.49c-.09-.83-.23-1.7-.23-1.7-.12-.75-.17-.89-.31-1.75-.17-1.07-.13-1-.23-1.51-.24-1.06-.49-1.35-.34-1.49s1.25.23,1.72,1a3.91,3.91,0,0,1,.31,1.17c.13.72.16,1.16.26,2.06s.12.87.18,1.51c0,.33.12,1.25.13,2.45,0,1,0,.74-.05,2.32a15.66,15.66,0,0,1-.08,2.09c0,.22,0,.07-.21,1.23-.1.6-.24,1.2-.31,1.8,0,.13-.09.43-.23,1a1,1,0,0,1-.13.31.89.89,0,0,1-.21.23,1,1,0,0,1-.44.18,1.35,1.35,0,0,1-.29,0" transform="translate(0.03 0)" style="fill:#93a1a1"/><path d="M133,223.65a1.61,1.61,0,0,0,.25-.33,1.77,1.77,0,0,0,.17-.43,1.84,1.84,0,0,0-.05-.89,2.81,2.81,0,0,1,.26-1.54c.55-1.79.4-5.75.16-7.52a11.88,11.88,0,0,0-.34-1.93c-.15-.46-.32-.8-.21-.89s.83.41,1,.55a1.79,1.79,0,0,1,.57.65,4.66,4.66,0,0,1,.16.78c.09.39.14.43.21.76a4.69,4.69,0,0,1,.1.91c.11,2.71.11,2.72.1,3a10.52,10.52,0,0,0-.05,2.14.61.61,0,0,1,0,.5c-.09.14-.25.14-.37.34a1.34,1.34,0,0,0-.08.26,5.44,5.44,0,0,1-.16.53,2.19,2.19,0,0,1-.16.31c-.17.3-.25.31-.37.55a1.37,1.37,0,0,0-.13.37c0,.19,0,.26-.05.37a.53.53,0,0,1-.37.26" transform="translate(0.03 0)" style="fill:#93a1a1"/></g><g id="Drawing:_Axon_Input2" data-name="Drawing: Axon Input2"><path id="Axon2" d="M67.16,100.73a9.6,9.6,0,0,1,6.15,1.77c.9.63.77,2.05.63,2.77s-.39,2-.45,2.4a25.23,25.23,0,0,0-.37,3,3.73,3.73,0,0,0,4,3.44c1.65-.09,9.71-5.28,10-7.18.24-.76.11-1.6-.89-2.76-1.39-1.62-3.83-1.69-5.36-1.81-2,.13-3.89-2.17-5.47-3.09-4.12-2.41-9.09-2.18-11.41-2-5,.4-4.37.78-7.12,1.49-6.53,2.1-15.08,1.42-17.44,1.42H0v4H39c1.11,0,6.91.61,12-.38,4.7-.91,6.82-1.71,9.5-2.38A28.66,28.66,0,0,1,67.16,100.73Z" transform="translate(0.03 0)" style="fill:#93a1a1"/><g id="Vesicles"><ellipse cx="85.07" cy="108.51" rx="1.62" ry="1.21" transform="translate(-52.72 112.7) rotate(-53.65)" style="fill:#0e1e26"/><ellipse cx="78.88" cy="106.42" rx="1.42" ry="1.06" transform="translate(-46.9 64.96) rotate(-35.21)" style="fill:#0e1e26"/><ellipse cx="79.96" cy="111.85" rx="1.63" ry="1.22" transform="translate(-56.8 125.7) rotate(-60.22)" style="fill:#0e1e26"/><ellipse cx="83.77" cy="104.4" rx="0.8" ry="1.07" transform="translate(-21.1 187.55) rotate(-89.66)" style="fill:#0e1e26"/><ellipse cx="82.17" cy="106.14" rx="0.8" ry="1.07" transform="translate(-24.43 187.68) rotate(-89.66)" style="fill:#0e1e26"/><ellipse cx="76.22" cy="112.69" rx="1.5" ry="1.13" transform="translate(-15.23 12) rotate(-8.18)" style="fill:#0e1e26"/><ellipse cx="81.86" cy="108.93" rx="1.2" ry="0.9" transform="translate(-28.28 189.1) rotate(-89.12)" style="fill:#0e1e26"/><ellipse cx="77.72" cy="109.89" rx="1.21" ry="0.9" transform="translate(-38.86 42.67) rotate(-24.77)" style="fill:#0e1e26"/><ellipse cx="74.54" cy="109.89" rx="1.07" ry="0.8" transform="translate(-49.96 63.81) rotate(-35.54)" style="fill:#0e1e26"/></g><g id="Myelin"><rect x="1" y="97.57" width="12.51" height="8.07" rx="4.04" ry="4.04" style="fill:#0e1e26;stroke:#93a1a1"/><rect x="1" y="97.57" width="12.51" height="8.07" rx="4.04" ry="4.04" style="fill:#0e1e26;stroke:#93a1a1"/><rect x="15.24" y="97.57" width="12.51" height="8.07" rx="4.04" ry="4.04" style="fill:#0e1e26;stroke:#93a1a1"/><rect x="15.24" y="97.57" width="12.51" height="8.07" rx="4.04" ry="4.04" style="fill:#0e1e26;stroke:#93a1a1"/><rect x="30.6" y="97.89" width="12.51" height="8.07" rx="4.04" ry="4.04" style="fill:#0e1e26;stroke:#93a1a1"/><rect x="30.6" y="97.89" width="12.51" height="8.07" rx="4.04" ry="4.04" style="fill:#0e1e26;stroke:#93a1a1"/></g></g><g id="Drawing:_Axon_Input_1" data-name="Drawing: Axon Input 1"><path id="Axon_in_1" data-name="Axon in 1" d="M102.25,23a5.34,5.34,0,0,1,3.42,0,28.15,28.15,0,0,1,2.88,1.5,7.08,7.08,0,0,0,3.75.23,3.32,3.32,0,0,0,2.83-2.52c.52-1.89-5-9.12-6.54-10.27a2.71,2.71,0,0,0-2.86-.48A4.62,4.62,0,0,0,103,13.3c-.63.75-.69,1.27-1.16,3.26S98.06,21,96.13,22.15s-13.21,7-25,6.81c-8.63-.15-21-8.2-26.44-9.67a40.09,40.09,0,0,0-6.42-.39L0,18.92v4H38.37s3.67-.26,5.08.25c4.88,1.74,15.92,9,27.29,9.45,9,.38,13.15-.86,18.33-3.17S101.46,23.19,102.25,23Z" transform="translate(0.03 0)" style="fill:#93a1a1"/><g id="Vesicles-2" data-name="Vesicles"><ellipse cx="108.45" cy="13.29" rx="1.21" ry="1.62" transform="translate(62.5 112.4) rotate(-72.1)" style="fill:#0e1e26"/><ellipse cx="108.45" cy="13.29" rx="1.21" ry="1.62" transform="translate(62.5 112.4) rotate(-72.1)" style="fill:#0e1e26"/><ellipse cx="108.2" cy="17.27" rx="1.06" ry="1.42" transform="translate(8.88 63.47) rotate(-34.01)" style="fill:#0e1e26"/><ellipse cx="108.2" cy="17.27" rx="1.06" ry="1.42" transform="translate(8.88 63.47) rotate(-34.01)" style="fill:#0e1e26"/><ellipse cx="112.82" cy="20.86" rx="1.13" ry="1.5" transform="translate(-1.67 13.86) rotate(-6.98)" style="fill:#0e1e26"/><ellipse cx="112.82" cy="20.86" rx="1.13" ry="1.5" transform="translate(-1.67 13.86) rotate(-6.98)" style="fill:#0e1e26"/><ellipse cx="110.54" cy="20.3" rx="1.07" ry="0.8" transform="translate(87.3 130.25) rotate(-88.46)" style="fill:#0e1e26"/><ellipse cx="110.54" cy="20.3" rx="1.07" ry="0.8" transform="translate(87.3 130.25) rotate(-88.46)" style="fill:#0e1e26"/><ellipse cx="105.44" cy="14.97" rx="0.9" ry="1.2" transform="translate(86.67 119.79) rotate(-87.91)" style="fill:#0e1e26"/><ellipse cx="105.44" cy="14.97" rx="0.9" ry="1.2" transform="translate(86.67 119.79) rotate(-87.91)" style="fill:#0e1e26"/><ellipse cx="111.22" cy="23.31" rx="0.9" ry="1.21" transform="translate(-0.01 46.41) rotate(-23.56)" style="fill:#0e1e26"/><ellipse cx="111.22" cy="23.31" rx="0.9" ry="1.21" transform="translate(-0.01 46.41) rotate(-23.56)" style="fill:#0e1e26"/><ellipse cx="108.27" cy="20.73" rx="0.8" ry="1.07" transform="translate(7.21 64.69) rotate(-34.34)" style="fill:#0e1e26"/><ellipse cx="108.27" cy="20.73" rx="0.8" ry="1.07" transform="translate(7.21 64.69) rotate(-34.34)" style="fill:#0e1e26"/><ellipse cx="111.85" cy="16.94" rx="1.21" ry="1.62" transform="translate(61.38 118.17) rotate(-72.1)" style="fill:#0e1e26"/><ellipse cx="111.85" cy="16.94" rx="1.21" ry="1.62" transform="translate(61.38 118.17) rotate(-72.1)" style="fill:#0e1e26"/></g><g id="Myelin-2" data-name="Myelin"><rect x="1" y="16.82" width="12.51" height="8.07" rx="4.04" ry="4.04" style="fill:#0e1e26;stroke:#93a1a1"/><rect x="1" y="16.82" width="12.51" height="8.07" rx="4.04" ry="4.04" style="fill:#0e1e26;stroke:#93a1a1"/><rect x="15.8" y="16.82" width="12.51" height="8.07" rx="4.04" ry="4.04" style="fill:#0e1e26;stroke:#93a1a1"/><rect x="15.8" y="16.82" width="12.51" height="8.07" rx="4.04" ry="4.04" style="fill:#0e1e26;stroke:#93a1a1"/><rect x="30.6" y="16.7" width="12.51" height="8.07" rx="4.04" ry="4.04" style="fill:#0e1e26;stroke:#93a1a1"/><rect x="30.6" y="16.7" width="12.51" height="8.07" rx="4.04" ry="4.04" style="fill:#0e1e26;stroke:#93a1a1"/></g></g><g id="Drawing:_Neuron" data-name="Drawing: Neuron"><path id="Neuron" d="M149.5,0h11.33c-2.87,15,21.18,28.62,36,0h7.71c-2.29,11.39-1,14.32,7.75,19.27,12.08,6.79,35.54,11.61,47.13,14.35,9.45,2.23,36.87,9,92.11,10.67v6.29h-4.37c-47.08,0-82.5-4.19-91.12-4.19H225.63c-11.87,0-18.25,2.38-22.5,6.63-6.5,7.13-7.87,25.06,7,36.44,3.18,2.81,4.74,4.06,7.4,5.25s8.91,3.59,16.1-1.92c2.34-1.36,3.08-1.55,4.67-.83s2.28,3.09,2.33,3.33a5.33,5.33,0,0,1-.17,2.92c-.3.83-.8,1.51-.92,1.46a8.86,8.86,0,0,0,.33-2.29,3.21,3.21,0,0,0-1.71-2.62c-2.24-1-4.71,1.51-7,2.63S224.68,99,222,98.91s-4.53-.43-5.87-1.42c-.46-.31-.79-.61-1-.5-.55.35.69,4,2.75,7l1.08,1.46c3,4,3,4.06,3.38,4.54a24.92,24.92,0,0,0,4.5,4.29,30.84,30.84,0,0,0,5.79,3.42c4.09,1.87,5.73,1.63,7,3.38s.9,6,.65,6.1-1-3.14-1.94-4.21c-1.21-1.37-2.37-1.46-4.81-2.67s-5.21-1.72-4.37.56c1.25,3.43,5,6.73,8,13.19s3.7,10.49,1.39,16.27a12,12,0,0,1-1.75,3.08c-2.45,2.89-6,3.52-6.08,3.33s3.16-.94,4.75-3.92a9.58,9.58,0,0,0,.92-3.33,21,21,0,0,0,0-6.25,24.84,24.84,0,0,0-2.5-7.58c-2.14-4.17-1.35-3.79-4.29-7.42s-3.78-3.84-6.13-6.25a29.8,29.8,0,0,1-5.67-7.17c-1.29-2.45-1.91-4.69-2.58-4.58-.36.06-.52.75-.67,1.42a39.82,39.82,0,0,0-1,7.5,37.64,37.64,0,0,0,.42,6.33c.38,2.41.57,3.62,1.33,5,.35.63.78,1.24,3.67,4s2.9,2.57,3.75,3.5a19.56,19.56,0,0,1,4,6.75c1.4,4.12,1,8,.75,8s-.19-2.43-1.58-5.75a20.22,20.22,0,0,0-3.83-5.92c-2.24-2.4-5.42-4.62-6-4.08-.22.2,0,.72.33,1.58a29.07,29.07,0,0,1,1.33,6.83,27.85,27.85,0,0,1,0,5.92,43.9,43.9,0,0,1-1.17,7.42,41.28,41.28,0,0,1-2.5,7.33c-1,1.91-2.06,3.07-2.5,5s-.23,3.59.17,6.75.94,4.82.67,4.92-1.85-2.32-2.67-5.08a18.35,18.35,0,0,1-.5-7.75c.66-4.86,2.41-5.62,4.17-11.33a29,29,0,0,0,1.58-9.08c0-5.42-2-5.87-3.25-13.17-1-5.72-.8-11.05-1.92-11.17-3.39,1.65-6.17,5.6-7.5,7.75-2.83,4.71-3.4,11.93-3.25,14.25.24,3.59,1.63,5.82,1.42,5.92s-2.61-3.19-3.5-7.67a20.44,20.44,0,0,1,.17-8.42c.7-3.35,1.94-5.59,3.67-8.67,2.94-5.23,4.08-5.47,7.17-10.75,2.59-4.43,3.89-6.7,3.92-9.42,0-.87.84-2.41-2.33-9.73a17.7,17.7,0,0,0-6.92-8.17c-28.92-18.65-34,5.12-42.75,31.08-4.9,14.55-7.25,26.5-3.09,30.48.32.37.14.07,2.83,2.33a43.37,43.37,0,0,1,3.68,3.08c2.24,2.57,1.22,10.56.72,10.5s.22-5.54-4.4-7.92c-2.29-1.18-5.08-2.62-6.17-1.67-1.88,1.64,1.13,4.9,4.57,7.46a12,12,0,0,1,4.5,5.25,6,6,0,0,1,.27,4.91c-1.42,4-5,7-5.77,6.91s3.94-3.91,1.6-9a11.11,11.11,0,0,0-3.91-5.29c-2.31-1.77-4.93-3-5.59-9.38a81.27,81.27,0,0,1,0-11.5c.17-3.3.35-4,0-4.17-2-.88-13.52,21.33-17.83,30.83-2.38,5.24-3.57,7.86-4.83,11.5s-1.81,5.9-2.17,5.83c-.53-.09-.49-5.19.67-10.33a42.41,42.41,0,0,1,6-14.83c1.1-1.65,1.75-2.34,1.5-2.67-.77-1-9.68,2.52-15,9.83-3.08,4.23-3.56,7.8-4,7.67-.68-.2-.52-8.95,5-15.33a26.79,26.79,0,0,1,7.33-5.67c3.28-1.85,4-1.48,6.5-2.83,5.42-2.9,8.13-7.74,10.33-11.67.5-.88,5-9,3.33-10.33-1.05-.84-3.54,2.82-6.93,5.1a33.25,33.25,0,0,0-6.17,5C128,150.62,131,157,130.63,157.16s-2.61-10.27.13-14.44,5.62-6,7.13-7.5,10.71-9.62,11.26-10.1c1.39-1.22,3.92-4.81,5.92-7.65,4.73-7.95,7.93-12.35,4.48-18.08-.86-1.42-4.1,0-5.68-1.34-1.26-1-.75-4.79-2.32-5.69a42.5,42.5,0,0,0-14.44-5.09c-9-1.3-14.94-1.23-19.3,2.19A17.55,17.55,0,0,0,112.5,94c-1.92,2.49-5.45,9.82-5.43,12.06,0,4.52,2.31,4.56,3.44,7.25s.41,6.06-1.46,8.92a8.37,8.37,0,0,1-9.32,3c-.37-.16,7.58-2,7.78-6.62.13-2.87-.37-4.31-3-7.62s-1-6.34-.67-9.27c.11-1,.24-1.61-.17-2-1.36-1.3-7.13,6.74-10.83,10.83a15.11,15.11,0,0,0-4,6.5c-1.48,5.67,2.56,7.69,2.33,16.17-.09,3.58.08,4.81-2.17,8.17-3,4.1-20.67,6.88-21,6.1s15.06-4.47,16.29-6.8a24.78,24.78,0,0,0,1.17-2.2,17.84,17.84,0,0,0,.79-2.5c.9-2.78.91-4.07.08-9.54s-4.16-6.6-5.53-7a3.55,3.55,0,0,0-2.89.48c-2.79,1.74-3.83,7.2-7.79,8.19a14.76,14.76,0,0,1-7,.23,8.34,8.34,0,0,1-4.81-2.85A24.53,24.53,0,0,1,62,126.51a13.76,13.76,0,0,0,5.46.13c4.48-1.46,5.21-4.33,5.21-4.33a5.4,5.4,0,0,1-4.34,2.15,6.51,6.51,0,0,1-6-3.3c-1-1.61-1.38-3.3-2.47-5-.82-1.29-2.42-1.54-4.08-.75s-5.5,5.29-5.5,5.29,4.67-9.5,8.45-8.84c3.95.69,4.74,5.45,5.93,7.38a4.59,4.59,0,0,0,5.46,1.67A4.82,4.82,0,0,0,72.71,117c.23-1.69-1.11-2.08-.11-2.82s2.42,1.16,3.25,1.21c2,.13,3.38-.21,7.25-2.67s4.91-4.18,5.38-5.58-1.75-3.26-1-4c1-1,4.59-.47,7.78-1.91,0,0-11.06-.44-23.75-14.75a30.23,30.23,0,0,1-6.83-12,30.7,30.7,0,0,1-1-8.5s1.05,2.85,3.18,7.59a36.85,36.85,0,0,0,8,10.91c2.47,2.5,4.88,4.94,6.11,4.88s2.72-4.84,2.69-9.31-1.34-6.22-4-9.75-5.3-6.65-5.3-6.65a55.31,55.31,0,0,1,8,5.93,13.45,13.45,0,0,1,4.53,11.06c-.38,3.63-2,6-1,8.63.86,2.4,4.85,6.21,5.82,6.88,3.57,2.47,9.19-2.37,11.09-3.85s3.62-2.75,6.81-5.31c4-3.25,8.94-6.94,8.94-6.94,34.33-24.5,11.65-49.11,6.71-51s-9.63-2-10.1-2.92.12-1.1.85-2c1.08-1.25.72-4-1.62-7.42a45.4,45.4,0,0,0-4.5-5.71c-2.17-2.5-4.86-.29-5.62-.58-1.19-.46-.5-.85-1.54-1.55s-1.27-1.37-2.48-1.76A23.36,23.36,0,0,0,94,5.83c-2.58-.09-5.75-.17-5.87,2.23a6.2,6.2,0,0,1-2.69,5.33c-3.27,2.41-9.29-.94-9.29-.94s4.26.29,5.2.25a3.26,3.26,0,0,0,2.38-1.31c1.14-1.3,1.7-2.43,1.06-5.22S83.53,3.1,82.5,2.45s-2.8.15-4,2.17-.9,2.57-2.17,4.5c-2.83,3.76-7.62,3.07-8.5,3-5-.88-9.67-6.1-9.67-6.1S68,10.88,72.16,8c3-2.1.39-2.64,4.72-8H88.31c4.06,1.36,14.27,2.57,17.13,3.81,4.07,1.75,20.07,11.1,25.18,12,4.71.79,14.29-1.87,16.71-4.51,2.73-3,2.75-7.74,2.16-11.26h0" transform="translate(0.03 0)" style="fill:#93a1a1"/><ellipse id="Nucleus" cx="169" cy="51.71" rx="14.97" ry="11.46" transform="translate(117.01 220.61) rotate(-89.89)" style="fill:#0e1e26;stroke:#93a1a1;stroke-width:0.5px"/><g id="Myelin-3" data-name="Myelin"><g id="Myelin3"><rect x="323.3" y="37.83" width="26.54" height="17.13" rx="8.56" ry="8.56" style="fill:#0e1e26;stroke:#93a1a1"/><rect x="323.3" y="37.83" width="26.54" height="17.13" rx="8.56" ry="8.56" style="fill:#0e1e26;stroke:#93a1a1"/></g><g id="Myelin2"><rect x="291" y="36.33" width="26.54" height="17.13" rx="8.56" ry="8.56" transform="translate(4.98 -25.84) rotate(4.9)" style="fill:#0e1e26;stroke:#93a1a1"/><rect x="291" y="36.33" width="26.54" height="17.13" rx="8.56" ry="8.56" transform="translate(4.98 -25.84) rotate(4.9)" style="fill:#0e1e26;stroke:#93a1a1"/></g><g id="Myelin1"><rect x="259.32" y="32.7" width="26.54" height="17.13" rx="8.56" ry="8.56" transform="translate(6.04 -29.03) rotate(6.16)" style="fill:#0e1e26;stroke:#93a1a1"/><rect x="259.32" y="32.7" width="26.54" height="17.13" rx="8.56" ry="8.56" transform="translate(6.04 -29.03) rotate(6.16)" style="fill:#0e1e26;stroke:#93a1a1"/></g></g></g><g id="Pot_PhotoGain"><path d="M159.08,225.49a8.92,8.92,0,1,1,8.92-8.92A8.93,8.93,0,0,1,159.08,225.49Z" transform="translate(0.03 0)" style="fill:#0e1e26"/><path d="M159.08,208.65a7.92,7.92,0,1,1-7.92,7.92,7.93,7.93,0,0,1,7.92-7.92m0-2a9.92,9.92,0,1,0,9.92,9.92,9.92,9.92,0,0,0-9.92-9.92Z" transform="translate(0.03 0)" style="fill:#93a1a1"/></g></g></svg>