<svg id="Layer_1" data-name="Layer 1" xmlns="http://www.w3.org/2000/svg" viewBox="0 0 200.16 164.23"><title>TReND Logo</title><path d="M-49,72c0-33,0-65.92-.08-98.88,0-3.16.28-4.24,4-4.23q96.13.23,192.27,0c3.7,0,3.94,1.12,3.93,4.25C151,10.09,151,47,151,84c-2,.83-3.08-.5-4-1.92-3.57-5.38-8.64-7.38-14.94-6.84a81,81,0,0,1-9,.1c-3.41-.09-4.77,1.5-4.73,4.83.07,6.47,0,13,0,19.43,0,3.23,1.31,4.94,4.7,5a66.13,66.13,0,0,0,14.87-.92,11.22,11.22,0,0,0,8-5.37C147,96.45,148.26,94.48,151,96c0,11.5-.07,23,.06,34.5,0,2.15-.42,2.56-2.56,2.56q-97.5-.11-195,.05c-3.12,0-2.49-1.46-2.49-3.11q0-25.5,0-51c2.95-3.31,6.7-2.66,10.15-1.55s3.07,4.38,3.17,7.2c.17,4.81,0,9.63.14,14.45.06,1.47,0,3.51,1.84,3.62,2.32.13,2.15-2.12,2.23-3.7.18-3.48.06-7,.08-10.46.05-9.25,0-9.25,8.14-13.3-3.19-1.38-6.17-.76-9-.85-3.65-.12-7.31,0-11-.08C-45.48,74.29-47.55,73.93-49,72Z" transform="translate(49.08 31.11)" style="fill:none"/><path d="M151,96c-2.76,1.25-2.87,4.54-5.08,6.37-4.83,4-10.46,4.58-16.32,4.65-13.46.16-13.46.16-13.46-13.06,0-6,0-12,0-17.95,0-1.4-.44-3.38,1.85-3.36,6.61.07,13.27-.78,19.83.28s10,5.9,13.15,11.06Z" transform="translate(49.08 31.11)" style="fill:#92a0a0"/><path d="M-49,72c8.78,1,17.59.15,26.38.4,2.06.06,4.36-.6,4.44,3s-2.16,3.38-4.55,3.42c-6.6.12-6.6.15-6.61,6.93,0,5.32,0,10.64,0,16,0,2.8.62,5.6-4.06,5.54-4.26-.06-4.43-2.17-4.36-5.32.12-5.82-.24-11.65.12-17.45.29-4.63-1.35-6.45-5.91-5.82-1.8.25-3.63.26-5.44.39Z" transform="translate(49.08 31.11)" style="fill:#909e9e"/><path d="M85.72,88.73c0,4.93-.15,9.87.05,14.8.13,3.29-1.51,3.86-4.28,3.85s-4.38-.5-4.31-3.82c.16-8.65,0-17.31.11-26,0-1.76-1.24-4.52,1.47-5.09s5.53-1,7.71,1.83c3.71,4.9,7.66,9.6,11.55,14.36a34.36,34.36,0,0,0,2.65,2.53c1.09-5.4.56-10.31.48-15.15-.05-3.25,1.28-3.89,4.14-3.83s4.69.17,4.57,3.92c-.26,8.32,0,16.65-.14,25,0,2,1.33,4.88-1.46,5.67-3,.86-6,.56-8.33-2.63-4-5.47-8.62-10.54-13-15.77Z" transform="translate(49.08 31.11)" style="fill:#929fa0"/><path d="M-11,106.95c-1.5-10.75-.33-21.56-.63-32.33,0-1.42.68-2.22,2.11-2.15,6.28.29,12.69-1.17,18.83.7,9.94,3,12.59,13.65,5,20.62-2.64,2.43-1.95,3.92-.31,6.11s3.64,3.9,3.92,6.73C9.61,109.64,7.34,103,4,98c-1-.83-2.21-.36-3.33-.53-3.12-.46-4.35.59-4.27,4C-3.43,107.74-4.26,108.18-11,106.95Z" transform="translate(49.08 31.11)" style="fill:#919f9f"/><path d="M36.85,123l-1.49-1c-1.84-.27-2.28-1.56-2.29-3.16a.55.55,0,0,0-.26-.65c-1.29-3-1.84-6.29-3.28-9.26a28.56,28.56,0,0,1-1.28-6.09,14.27,14.27,0,0,1-.52-8A3.1,3.1,0,0,1,30.8,94a6.45,6.45,0,0,1,3.1,2.46c3.85,7.66,8,9.71,16.4,8.2,1.78-.32,3.44-1.28,5.33-1,1.48.75,3.25,1,4.13,2.7.26,2.5-2,3.71-2.91,5.6l.06-.1c-.87,2-2.77,3.28-3.81,5.18L52,118.24a13.21,13.21,0,0,1-4.38,2.54A25.5,25.5,0,0,1,36.85,123Z" transform="translate(49.08 31.11)" style="fill:#dfa216"/><path d="M30.8,94.84l-3.05.3-.2.43-.46-.1c-1.18-.4-1.3-1.31-1.13-2.35-.74-1.91-2.21-3.43-2.86-5.38a27.6,27.6,0,0,1,.13-6.09,37.35,37.35,0,0,1,1.18-3.59c.73-1.29.67-3,2.24-3.84a3.43,3.43,0,0,1,1.44-.36c3.45,1.68,6.63.94,9.83-.89,1.82-1,3.68-2.32,6-1.92a3.66,3.66,0,0,1,1.87,1.16c.54,2.5,2.46,4.06,4,5.89a3.06,3.06,0,0,1,0,1.5c-1.15,2.22-3.26,3-5.47,3.66-4.91,1.11-9.52,2.6-10.38,8.61A4.82,4.82,0,0,1,30.8,94.84Z" transform="translate(49.08 31.11)" style="fill:#eaba16"/><path d="M22.17-26.14a.45.45,0,0,0,.67.06c1.86.75,3.87,1.22,5.18,2.94.78,3.18-2.21,4.49-3.35,6.72a3.36,3.36,0,0,1-1.45.62,8.25,8.25,0,0,1-3-.57c-1.81-1.3-3.63-2.53-6-1.12a7.47,7.47,0,0,0-2.36,2.23,3.91,3.91,0,0,1-1.19.69c-2.66.56-4.44,2.64-6.7,3.91a8.26,8.26,0,0,1-1.52.1c-4.27-.06-3-3.39-3.41-5.75a13.15,13.15,0,0,1-.55-2.25c.1-1.24-.11-2.56.72-3.66A2.86,2.86,0,0,1,.5-23c2.53-1,5.59.1,7.88-1.93,2.78-.46,5.5-1.16,8.26-1.68C18.54-27.1,20.41-27.3,22.17-26.14Z" transform="translate(49.08 31.11)" style="fill:#da9d16"/><path d="M58.88,106c-1.46.65-2.38,0-3-1.28-2.06-1.78-4.49-1.81-7-1.62-2.3.17-4.67.39-6.83-.74-1.71-.9-3-2.27-2.78-4.33s1.9-2.94,3.88-3.16a59.11,59.11,0,0,1,8-.21,9.7,9.7,0,0,0,7.28-2.61,5.81,5.81,0,0,1,6.19.83c.74,1.53.42,3.16.43,4.76C64.66,99,63.58,99.87,63,101l-.83.91a18.51,18.51,0,0,1-2.2,3.34A2,2,0,0,1,58.88,106Z" transform="translate(49.08 31.11)" style="fill:#dda516"/><path d="M9.15,48.85,8.07,47A7.68,7.68,0,0,1,8,41c1.41-2.15,1-3.34-1.74-3.16-1.71.11-3.35,1.54-5.12.22-1.08.71-1.88.55-2.31-.75.24-1.42,1.33-2,2.47-2.59a37.13,37.13,0,0,0,6.4-1.65,3.22,3.22,0,0,1,1.53.27,5.5,5.5,0,0,1,2.22,4.07c.11,2.68.06,5.37,0,8a13.66,13.66,0,0,1-.13,1.62C11,48.14,10.6,49.14,9.15,48.85Z" transform="translate(49.08 31.11)" style="fill:#060606"/><path d="M9.15,48.85l1-2.13c2.13-.27,3.84.77,5.55,1.81.81,1.34,1.43,2.79,2.26,4.12.24,1.61,1.45,2.72,2.17,4.08a3.86,3.86,0,0,1,.08,1.4A2.7,2.7,0,0,1,19,59.79C15.16,56.65,10.89,53.89,9.15,48.85Z" transform="translate(49.08 31.11)" style="fill:#1a1710"/><path d="M74.07-10C76.49-8.77,78.73-7.31,80-4.74c-.21,1.47,1.06,2.3,1.5,3.5S83.09.38,83.34,1.56a2.29,2.29,0,0,1-1.68,2.21c-4.2-1.68-8.87-8.45-8.78-12.71A2.6,2.6,0,0,1,74.07-10Z" transform="translate(49.08 31.11)" style="fill:#2e2718"/><path d="M-31.11,13.14c1.53-5.08,2.39-10.38,5.25-15a2.16,2.16,0,0,1,1.8.93,3.28,3.28,0,0,1,.39,2,29.67,29.67,0,0,0-.93,4A10.64,10.64,0,0,1-25.36,7c-.17.44-.36.86-.57,1.27-1.72,2.33-.54,5.22-1.51,7.7-1,1.11-1.74,2.86-3.81,2A8.09,8.09,0,0,1-31.11,13.14Z" transform="translate(49.08 31.11)" style="fill:#0f0e0d"/><path d="M75,66.11l-.08,1c-1,1.51-.11,3.25-.6,4.82-1.2.86-.2,3-2.08,3.48-3.47-.71-3.37-3.82-4.24-6.29a3.5,3.5,0,0,1,.31-1.44c1.28-1.32,3.4-1.94,3.52-4.24A2.91,2.91,0,0,1,73,62.53a2.19,2.19,0,0,1,1.47.2A2.4,2.4,0,0,1,75,66.11Z" transform="translate(49.08 31.11)" style="fill:#19170f"/><path d="M16-25.94,8.17-23.7c-2.08,1.35-4.43,1.17-6.74,1.19-.81-.07-1.54-.22-1.37-1.31C5.22-26,10.79-26.15,16.22-26.95Q17-26.27,16-25.94Z" transform="translate(49.08 31.11)" style="fill:#1b170d"/><path d="M-25.22-1.05l-.64-.8C-22.55-5-22-10.14-18-12.83a9.37,9.37,0,0,1,1.06.71,2.81,2.81,0,0,1,.85,1.73A3.89,3.89,0,0,1-17-7.92a8.91,8.91,0,0,0-2.48,3c-.69,1.16-.68,2.66-1.76,3.63a3.33,3.33,0,0,1-1.25.62A7,7,0,0,1-25.22-1.05Z" transform="translate(49.08 31.11)" style="fill:#050606"/><path d="M-1,37l2.12,1q-.06.43-.08.86c-1.6,1.24-3.54.19-5.24.77-2.7.32-5.42.93-8-.67-2.1-.27-4.53.53-5.94-1.9a2.29,2.29,0,0,1,1.65-1.43,9.93,9.93,0,0,1,1.5-.15,15.25,15.25,0,0,1,2.22.1c2.85,1.23,5.68.1,8.51-.11a4.06,4.06,0,0,1,2.82.85Z" transform="translate(49.08 31.11)" style="fill:#111"/><path d="M-11,106.95c4.61.28,7.13-.8,7.22-6.5S.89,97.3,4,98c-4.78-.64-7.32.32-7.29,6.27C-3.25,109.78-7.76,107.73-11,106.95Z" transform="translate(49.08 31.11)" style="fill:#656d6e"/><path d="M90,15l.1,1.11c-.57,1.19.46,2.46-.16,3.65-.68,1.37-.35,3.45-2.63,3.67-4.4-2.39-3.35-6.28-2.75-10a3.23,3.23,0,0,1,2.65-1.86C89.22,11.76,88.76,14,90,15Z" transform="translate(49.08 31.11)" style="fill:#8c6816"/><path d="M91.16,20.86c2.36,3.36,3.09,7.3,3.95,11.2L95,32.8c-.31,1.49.48,3.83-2.51,3.24-1.06-.89-1-2.15-1.09-3.34,0-2.45-1.35-4.39-2.48-6.41a3.58,3.58,0,0,1-.29-2.15c.16-.46.31-.93.45-1.4A2.74,2.74,0,0,1,91.16,20.86Z" transform="translate(49.08 31.11)" style="fill:#15130c"/><path d="M89,49.12c-2.77,1.58-6.25,2.5-6.19,6.69-2.85,1.61-3-1-3.77-2.47a3.62,3.62,0,0,1,.45-2.41,5.35,5.35,0,0,1,3.5-3.28,13.52,13.52,0,0,1,4.08,0A3.8,3.8,0,0,1,89,49.12Z" transform="translate(49.08 31.11)" style="fill:#13110b"/><path d="M72.18,75,73.89,72c.36.09.5.23.43.41s-.17.31-.27.31v1.37a14.34,14.34,0,0,1,0,7.75l-1.3,2c-2.69-1.09-3.4-3.45-3.85-6a3.82,3.82,0,0,1,.56-2.23A2.09,2.09,0,0,1,72.18,75Z" transform="translate(49.08 31.11)" style="fill:#272111"/><path d="M82,2.46l1-1.37a.67.67,0,0,1-.28-.74Q82.85,0,83,0C85,2.46,87.47,4.64,88,8c.39.93-.19,1.3-.92,1.59A2.59,2.59,0,0,1,85,9.05a20.74,20.74,0,0,1-3.31-3.85A2.73,2.73,0,0,1,82,2.46Z" transform="translate(49.08 31.11)" style="fill:#1e1a12"/><path d="M-23,35.09c-2.88-2.35-3.78-5.8-5.08-9a.91.91,0,0,1,0-1.4c1.34-.9,2.54-.52,3.68.42a4.54,4.54,0,0,1,1,2.05c.52,1.62,1.16,3.19,1.74,4.8a5.87,5.87,0,0,1,0,1.46A2.34,2.34,0,0,1-23,35.09Z" transform="translate(49.08 31.11)" style="fill:#090906"/><path d="M80.25,53c.79,1,.86,2.62,2.52,2.83A12.45,12.45,0,0,1,79.11,61c-1,.66-1.78,0-2.53-.56a3,3,0,0,1-.46-1.34c.27-2.21,1.66-3.85,2.86-5.59A2.66,2.66,0,0,1,80.25,53Z" transform="translate(49.08 31.11)" style="fill:#1e1d1a"/><path d="M27,75l-2,3a.93.93,0,0,1-.75-.72l-.14-3.37c.88-1.54,0-3.32.67-4.87q0-.48.08-1a1.64,1.64,0,0,1,1.57-.34,3.25,3.25,0,0,1,2,2.58C28.55,72.07,28.4,73.73,27,75Z" transform="translate(49.08 31.11)" style="fill:#161510"/><path d="M89,49.12l-2.17-.26c-.47-3.52,2.75-4,4.61-5.57a2.62,2.62,0,0,1,2.11.21l.47.56C95.45,48.87,91.22,48,89,49.12Z" transform="translate(49.08 31.11)" style="fill:#1d1b14"/><path d="M19,59.79l.07-2a3.22,3.22,0,0,1,4.49-.09,8.38,8.38,0,0,1,2.2,4.18,2.63,2.63,0,0,1-.44,1.47,1.86,1.86,0,0,1-2.08.53Z" transform="translate(49.08 31.11)" style="fill:#18160f"/><path d="M36.85,123c3.56-1.62,7.43-2,11.17-2.94.87-.63,1,0,1.08.65L43.92,123a6.61,6.61,0,0,1-4.78.16Z" transform="translate(49.08 31.11)" style="fill:#1b170a"/><path d="M29.84-25l1.25-1a8.24,8.24,0,0,1,5.68,0L39-24a2.07,2.07,0,0,1-1.09,1.74,5.35,5.35,0,0,1-2.85,0c-1.43-.28-3,0-4.32-.76A2.41,2.41,0,0,1,29.84-25Z" transform="translate(49.08 31.11)" style="fill:#1e1b14"/><path d="M30.17,108.69c2,2.83,2.37,6.11,2.65,9.43-2.67-2.14-2.07-5.65-3.46-8.33C29.53,109.34,29.37,108.67,30.17,108.69Z" transform="translate(49.08 31.11)" style="fill:#0c0c09"/><path d="M64,97.9,63.83,93c-1.35-1.47-1.26-2.81.36-4,1.55,0,1.34,1.29,1.66,2.21V97C65.51,97.86,65.07,98.52,64,97.9Z" transform="translate(49.08 31.11)" style="fill:#d9a017"/><path d="M57.84-20.82,61-18.88a2.43,2.43,0,0,1-.85,2.51,3.29,3.29,0,0,1-1.35.42c-1.18-.18-2.33-.53-3.5-.8a2.77,2.77,0,0,1-1.79-2.88,1.88,1.88,0,0,1,.89-1C55.56-21.12,56.74-20.11,57.84-20.82Z" transform="translate(49.08 31.11)" style="fill:#362d19"/><path d="M-28,24.84-28,26.06c-2.27-1.81-1.39-4.94-3-7q-.81-.66.17-1L-29,15c1.4.68,1.7,1.91,1.66,3.31s.5,2.54.64,3.82A3.47,3.47,0,0,1-28,24.84Z" transform="translate(49.08 31.11)" style="fill:#12110e"/><path d="M27.08,95.47a1.14,1.14,0,0,1,.67-.33c.49,2.61,1.57,5.13,1.16,7.87q-.37,1-1,.14L27,103a7.13,7.13,0,0,1-.18-5A2.27,2.27,0,0,1,27.08,95.47Z" transform="translate(49.08 31.11)" style="fill:#19150a"/><path d="M29.84-25l1.22,1.16a1.27,1.27,0,0,1-.14,1.37,2.61,2.61,0,0,1-2.06.67A4.15,4.15,0,0,1,27-23l-4.16-3.08C25.31-26.65,27.32-24.14,29.84-25Z" transform="translate(49.08 31.11)" style="fill:#080806"/><path d="M58.88,106l.47-.93c1.19-.12,1.07.9,1.36,1.57-.07,2.65-1.79,4.12-3.85,5.35C56.42,109.61,59,108.26,58.88,106Z" transform="translate(49.08 31.11)" style="fill:#201c11"/><path d="M53.11,117.06c-.16-2.78,1.28-4.38,3.81-5.18C58,115.37,54.86,115.69,53.11,117.06Z" transform="translate(49.08 31.11)" style="fill:#29220e"/><path d="M38-23.28,39-24c2.71-.09,5.64-1.91,8,1l-.4.66a3.47,3.47,0,0,1-2.15.78,34.51,34.51,0,0,1-3.95,0C39.39-21.71,38.41-22,38-23.28Z" transform="translate(49.08 31.11)" style="fill:#0b0a06"/><path d="M64.79-17.8A6,6,0,0,1,68.07-15a1.93,1.93,0,0,1,.15,2.21,2.81,2.81,0,0,1-3.65,0,4.51,4.51,0,0,1-1.29-3.48A2.18,2.18,0,0,1,64.79-17.8Z" transform="translate(49.08 31.11)" style="fill:#252114"/><path d="M86.85,9,88,8A17.23,17.23,0,0,1,90,15c-1.79-.15-1.92-1.57-2.18-2.88C86.61,11.35,85.87,10.47,86.85,9Z" transform="translate(49.08 31.11)" style="fill:#1e1b10"/><path d="M16-25.94l.2-1c2.17-1.11,4.3-1.95,5.95.8Z" transform="translate(49.08 31.11)" style="fill:#080a0a"/><path d="M60.71,106.63l-1.36-1.57a4,4,0,0,1,2.81-3.12C63.12,103.95,61.15,105.05,60.71,106.63Z" transform="translate(49.08 31.11)" style="fill:#0b0a07"/><path d="M91.16,20.86l-1,2.15c-1.73-1-1-2.62-1.16-4,.05-1.07-.31-2.3,1-2.9C90.91,17.57,92.43,18.9,91.16,20.86Z" transform="translate(49.08 31.11)" style="fill:#18150b"/><path d="M77.22,60.11l1.89.9L75,66.11,74,63.5C74.2,61.53,74.9,60.06,77.22,60.11Z" transform="translate(49.08 31.11)" style="fill:#060706"/><path d="M23.85,81l.25,7a3,3,0,0,1,0,3.16L23,90.06A19.31,19.31,0,0,1,23,81l0,0Q23.45,80.22,23.85,81Z" transform="translate(49.08 31.11)" style="fill:#2f2b1c"/><path d="M-9.11-20.18a10.41,10.41,0,0,1,6-1.91,1.83,1.83,0,0,1,.6,1.42c-1.09,3.25-3.18,3.33-5.78,1.85A2.55,2.55,0,0,1-9.11-20.18Z" transform="translate(49.08 31.11)" style="fill:#090908"/><path d="M95.11,32.06a12,12,0,0,1,0,9.79,2.77,2.77,0,0,1-1.18-1.26c-.85-3,.8-5.71,1-8.58Z" transform="translate(49.08 31.11)" style="fill:#47676f"/><path d="M-17.1-12.94c.77-1.45,2.71-1.89,3.11-3.65.39-1,.78-1.94,2.15-1.62a2.8,2.8,0,0,1,1,1.23A3.42,3.42,0,0,1-11-14.63c-1.43,1.71-2.93,3.26-5.48,2.26Z" transform="translate(49.08 31.11)" style="fill:#191815"/><path d="M64,97.9,65.84,97c1.94,3.38-2,2.67-2.85,4.05C63.07,99.91,62.91,98.71,64,97.9Z" transform="translate(49.08 31.11)" style="fill:#0b0a06"/><path d="M23.25,63.89,25,63c1.94,1.39,2.79,3,.83,5q-.49,0-1,.07A6.39,6.39,0,0,1,23.25,63.89Z" transform="translate(49.08 31.11)" style="fill:#1e1b0d"/><path d="M23,81q0,4.55,0,9.1A10.05,10.05,0,0,1,23,81Z" transform="translate(49.08 31.11)" style="fill:#060707"/><path d="M27.91,103.15q.49-.09,1-.14l1.26,5.68-.81,1.1A13,13,0,0,1,27.91,103.15Z" transform="translate(49.08 31.11)" style="fill:#0a0a09"/><path d="M67.88-12.77,68.07-15l3.79,3.15c.27,1-.32,1.36-1.07,1.67C68.93-10.05,67.8-10.73,67.88-12.77Z" transform="translate(49.08 31.11)" style="fill:#110f09"/><path d="M94.87,41a2.68,2.68,0,0,1,.21.89L94,44.06l-.15-.2c-2.31-.93-2.49-2.93-2.54-5a2,2,0,0,1,.81-1.23C95.22,36.92,94.05,39.75,94.87,41Z" transform="translate(49.08 31.11)" style="fill:#262114"/><path d="M71,77.12c2.44,1.77-.33,4.89,1.75,6.75L72,84.93a1.39,1.39,0,0,1-1.72-.24C68.48,82,68.09,79.38,71,77.12Z" transform="translate(49.08 31.11)" style="fill:#dda516"/><path d="M-3-21l-.1-1.1A3.36,3.36,0,0,1,.05-23.82l1.27,1c.2.41.07.68-.36.82a4.12,4.12,0,0,1-.91.12c-.6.56-.93,1.49-2,1.5A1.75,1.75,0,0,1-3-21Z" transform="translate(49.08 31.11)" style="fill:#12110d"/><path d="M49.11,120.66,48,120c1.14-1,2.21-2.1,3.93-1.77A2.49,2.49,0,0,1,49.11,120.66Z" transform="translate(49.08 31.11)" style="fill:#070706"/><path d="M64.79-17.8l-1,1a2.16,2.16,0,0,1-1.86.85,2,2,0,0,1-1.63-1.2L61-18.88Z" transform="translate(49.08 31.11)" style="fill:#080806"/><path d="M65.84,91.16c-1-.43-.77-1.36-.84-2.16l0-.7a2.34,2.34,0,0,1,2.6-1.86,1.94,1.94,0,0,1,1.31,1.49Z" transform="translate(49.08 31.11)" style="fill:#1a150a"/><path d="M-4,40c-2.72,1.49-5.41,1.66-8-.23C-9.36,39.47-6.67,39.13-4,40Z" transform="translate(49.08 31.11)" style="fill:#234d58"/><path d="M-4,40l-8-.23a4.7,4.7,0,0,0-.1-.72l8.39.15c.3.39.19.65-.27.79Z" transform="translate(49.08 31.11)" style="fill:#252116"/><path d="M74,81.88q0-3.88,0-7.75A7.3,7.3,0,0,1,74,81.88Z" transform="translate(49.08 31.11)" style="fill:#496970"/><path d="M48-23.2c2.16-.75,4.45-2.19,5.85,1.09a2,2,0,0,1-1.32.63C50.92-21.69,48.92-21,48-23.2Z" transform="translate(49.08 31.11)" style="fill:#59696c"/><path d="M48-23.2c1.64.5,3.62-.43,5,1.15l-.33.66A6.52,6.52,0,0,1,47.82-20a2.52,2.52,0,0,1-1.19-.89A1.83,1.83,0,0,1,47-23h0Z" transform="translate(49.08 31.11)" style="fill:#080806"/><path d="M-11.83-16.64l-.31-1.78c0-1.13.88-1.32,1.68-1.59l1.35-.17,1.44.39C-7.71-17-9.16-16-11.83-16.64Z" transform="translate(49.08 31.11)" style="fill:#1f1909"/><path d="M68.94,87.93l-1-1.06a1.55,1.55,0,0,1-.11-1.39A2.13,2.13,0,0,1,71,84.71a3.4,3.4,0,0,1,1,.21Z" transform="translate(49.08 31.11)" style="fill:#080808"/><path d="M24.09,91.17V88A6.44,6.44,0,0,1,26,93.12Z" transform="translate(49.08 31.11)" style="fill:#d4a318"/><path d="M33.08,118.76l2.29,3.16C32.57,122.34,32,121.11,33.08,118.76Z" transform="translate(49.08 31.11)" style="fill:#1e1a0e"/><path d="M-23,35.09l.06-2.22a2.47,2.47,0,0,1,2.65.13,2.41,2.41,0,0,1,.9,1.83A2.06,2.06,0,0,1-20,36Z" transform="translate(49.08 31.11)" style="fill:#201b0c"/><path d="M53-22q.42,0,.84-.06l4,1.29-2.72.7C54.43-20.76,52.49-20,53-22Z" transform="translate(49.08 31.11)" style="fill:#0a0907"/><path d="M74.06,72.76a1.48,1.48,0,0,0-.16-.73c.48-1.61-.58-3.54,1.06-4.9C74.85,69,75.63,71.09,74.06,72.76Z" transform="translate(49.08 31.11)" style="fill:#576e73"/><path d="M36.77-26.09l-5.68,0C33-27.15,34.86-27.6,36.77-26.09Z" transform="translate(49.08 31.11)" style="fill:#496870"/><path d="M80.92-.93c-.79-1.16-2.18-2.17-.94-3.82l1.91,2.86A1.55,1.55,0,0,1,80.92-.93Z" transform="translate(49.08 31.11)" style="fill:#12100d"/><path d="M-30.84,18-31,19a4.62,4.62,0,0,1-.1-5.88Z" transform="translate(49.08 31.11)" style="fill:#536f76"/><path d="M8,41l.09,6C6.37,45,6.74,43,8,41Z" transform="translate(49.08 31.11)" style="fill:#42636c"/><path d="M23.85,81a8,8,0,0,1-.93-.08l1.34-3.65L25,78Z" transform="translate(49.08 31.11)" style="fill:#060706"/><path d="M-10.45-20l-1.68,1.59L-14-16.6A3.4,3.4,0,0,1-10.45-20Z" transform="translate(49.08 31.11)" style="fill:#515455"/><path d="M24.78,69c0,1.65.87,3.43-.67,4.87C24.09,72.26,23.59,70.54,24.78,69Z" transform="translate(49.08 31.11)" style="fill:#606d70"/><path d="M-4,40a7.7,7.7,0,0,1,.27-.79L1,38.91C-.4,40.46-2.27,39.93-4,40Z" transform="translate(49.08 31.11)" style="fill:#516367"/><path d="M-20,36V35a2.34,2.34,0,0,1,1.28-.64c1.5.23,3,.43,3,2.49l-2.39.28Z" transform="translate(49.08 31.11)" style="fill:#17140b"/><path d="M39.13,123.19l4.78-.16C42.36,124.22,40.77,124.49,39.13,123.19Z" transform="translate(49.08 31.11)" style="fill:#4c666c"/><path d="M80.92-.93l1-1L83,0q0,.56,0,1.11A3,3,0,0,1,80.92-.93Z" transform="translate(49.08 31.11)" style="fill:#070807"/><path d="M26.81,98l.18,5C25.83,101.35,25.48,99.69,26.81,98Z" transform="translate(49.08 31.11)" style="fill:#50686d"/><path d="M70.9-10.95l1-.91L74.07-10l-.17,1.34C72.11-8.4,70.83-8.79,70.9-10.95Z" transform="translate(49.08 31.11)" style="fill:#2b220d"/><path d="M-17.81-11.73l-.17-1.1a6.55,6.55,0,0,1,.89-.11l.06,0a.62.62,0,0,1,.3.57q0,.34-.12.34A1,1,0,0,1-17.81-11.73Z" transform="translate(49.08 31.11)" style="fill:#060706"/><path d="M124.25,89.62a12.43,12.43,0,0,1,0-3c.71-2.78-2.22-7.12,3.09-8,6.28-1,14.12,2.56,14.74,7.09.56,4.11,1.14,8.54-2.93,11.86s-8.59,2.91-13.19,2.52c-1.79-.15-1.69-1.79-1.72-3.09-.05-2.48,0-5,0-7.45Z" transform="translate(49.08 31.11)" style="fill:#0b1e26"/><path d="M-3.05,84.91c0-3.32-.87-6.58,4.09-6.28s9.3,3,9.13,6.46S6.41,90.48,1,90.82-2.83,87.32-3.05,84.91Z" transform="translate(49.08 31.11)" style="fill:#0b1e26"/><path d="M59,93c-.11,2.54-1.13,3.83-4,3.69-4.29-.21-8.59-.07-12.89,0-.75,0-1.73-.17-2,1-.23,1,.41,1.55,1.06,2a8.54,8.54,0,0,0,8.46,1.1c4-1.54,5.67-.62,6.22,4C45.6,110.32,37,107.9,31.95,98a12.85,12.85,0,0,1-.06-7c.78-6.58,5.74-8.5,11.11-10a20.62,20.62,0,0,1,10.73.13C60.19,86.35,60.88,87.92,59,93Z" transform="translate(49.08 31.11)" style="fill:#020201"/><path d="M31.89,91l.06,7L30.8,94.84C30.91,93.49,30.92,92.1,31.89,91Z" transform="translate(49.08 31.11)" style="fill:#d4a318"/><path d="M25.84,68,25,63l.08.07a5.74,5.74,0,0,1,2.83-2.39,41.2,41.2,0,0,0,7.26-2.26,7.3,7.3,0,0,1,5.28,1.24,3.47,3.47,0,0,1,1.06,1.13,33.84,33.84,0,0,0,2.88,7c.14,1.43,1.25,3-.42,4.21l-8.51,4.76c-3,1.68-5.6,1.47-7.47-1.75-1.4-1.37.59-3.66-1.34-4.89Z" transform="translate(49.08 31.11)" style="fill:#ecc317"/><path d="M53,83a26.15,26.15,0,0,0-10-2l6-2c1-1.13,2.25-2.08,3.32-3.18.88-.79,1.53-1.88,2.81-2.15,2.51.1,5.23-1.06,7.37,1.23C62.72,80.6,59,83.8,53,83Z" transform="translate(49.08 31.11)" style="fill:#e5b316"/><path d="M49,78.17C47,76.93,43.84,76.65,45,73c-.32-1.6.81-1.7,1.9-1.83,2.27.72,3.35,2.52,4.17,4.57A2.75,2.75,0,0,1,50.43,78,1.17,1.17,0,0,1,49,78.17Z" transform="translate(49.08 31.11)" style="fill:#43381e"/><path d="M47,72,45,73l-1-1c.14-1.46-1.43-2.55-.88-4.09s1.71-1.65,3.06-1.09a3,3,0,0,1,1,1.07,5.5,5.5,0,0,1,.65,2.89A2.15,2.15,0,0,1,47,72Z" transform="translate(49.08 31.11)" style="fill:#92771a"/><path d="M49,78.17a3.37,3.37,0,0,1,.89-.28c.78-.54,1.13-1.8,2.43-1.48a1,1,0,0,1,.7.87c-.8,1.81-2.43,1.7-4,1.7Q49,78.58,49,78.17Z" transform="translate(49.08 31.11)" style="fill:#dba816"/><path d="M26.66,70.11C28.27,71.42,27.94,73.27,28,75H27Z" transform="translate(49.08 31.11)" style="fill:#e7bb17"/><path d="M31-23.11a3.89,3.89,0,0,1,.11-.74l4.79,0c.76.39.84,1.19,1.15,1.87.18.35.35.7.55,1a4.62,4.62,0,0,1,.67,1.78,3.72,3.72,0,0,1-.08,1.36c-.62,1.24-1.45,2.35-2,3.65-1.52,1.19-2.41,2.89-3.5,4.43a3.62,3.62,0,0,1-1.25.84A5.36,5.36,0,0,1,30-8.55a5.9,5.9,0,0,1-2.18-.1c-4.21-2.66-5.4,1.59-7.66,3.37-.7.49-1.56.63-2.28,1.06a4.48,4.48,0,0,0-1.44,2.7,15.49,15.49,0,0,0-.85,4,6.29,6.29,0,0,1-1.29,4.08A6.83,6.83,0,0,1,12.67,8c-1.85.73-4,.59-5.62,2-.74.44-1.47.9-2.21,1.35-1.38,1-3.24.88-4.58,2-.5.37-1,.77-1.45,1.16-1.3,1-1.92,2.68-3.43,3.46a4.34,4.34,0,0,1-.95.34,6.68,6.68,0,0,0-.78.37s-.27.36-.25.39A5,5,0,0,1-7.9,20.91a3.77,3.77,0,0,1-2,.54,6.87,6.87,0,0,1-4.88-1.24c-.82-.5-1.77-.76-2.55-1.34a3.49,3.49,0,0,1-.77-1.13c-.57-1.47.53-2.92.06-4.39-.32-1.3-1.52-1.93-2.25-2.91a3.53,3.53,0,0,1-.66-2.67,2.83,2.83,0,0,1,1.28-1.7c1.83-1,3.33.77,5,.63A3,3,0,0,1-14,6.51c-.06,0,0-.21,0-.19A1.77,1.77,0,0,1-15,6.75a10,10,0,0,1-2.93-1.27,3,3,0,0,1-.32-4A9.26,9.26,0,0,0-16-1.87c.8-1.24,1.67-2.41,3.31-2.55,1.9-.08,3.17-.85,3.13-3A11.51,11.51,0,0,1-8-13a3.48,3.48,0,0,1,2.53-1.31c1.88,0,3.25,1.25,4.65,2.24a3.34,3.34,0,0,0,4.37,0l-.1.06c2.61-1.21,4.92-3,7.6-4.06L11-16c1.42-1.08,2.08-3.28,4.43-3,2,.15,4.13-.56,5.85,1l1.49.87c.35.69.92.69,1.55.47a12.25,12.25,0,0,1,3.4-3.59A14.23,14.23,0,0,1,31-23.11Z" transform="translate(49.08 31.11)" style="fill:#e0a416"/><path d="M-4.95-13-7-11.93A7.93,7.93,0,0,0-8.78-9.14c-.71,1.72.62,3.7-.67,5.34a2.1,2.1,0,0,1-2,.36,3.4,3.4,0,0,0-4,1.92c-.76.89-.42,2.42-1.77,3-.74.21-1.44.53-2.17.76a3.14,3.14,0,0,1-2.32-.53,2.75,2.75,0,0,1-.55-3.78A5.63,5.63,0,0,1-20.79-6c.74-.37,1.58-.45,2.32-.83A8.33,8.33,0,0,0-15.31-10a33.86,33.86,0,0,0,3.19-5l.3-1.66,4.16-3.15C-6.06-20-4.09-18.81-3-21a1.57,1.57,0,0,0,.82.16,9.17,9.17,0,0,1,3.22,2L.8-16.66C-.59-14.61-1.13-11.23-4.95-13Z" transform="translate(49.08 31.11)" style="fill:#cb9417"/><path d="M-4.95-13C-2-12.64-1.88-16.63.8-16.66,1.68-15.09-.82-11.52,3.55-12,.19-7.67-2.2-11.94-4.95-13Z" transform="translate(49.08 31.11)" style="fill:#6a511c"/><path d="M28.82-19c-2.23.59-3.15,2.76-4.82,4A1.26,1.26,0,0,1,24-17c.36-2.33,3-3.55,3-6l2.23.17A4.88,4.88,0,0,1,28.82-19Z" transform="translate(49.08 31.11)" style="fill:#4e3e1d"/><path d="M21.26-17.93l-7.31-.22c-.48-.16-1-.28-1.07-.91C15.88-20.26,18.88-21.43,21.26-17.93Z" transform="translate(49.08 31.11)" style="fill:#8b681a"/><path d="M11-16C9.21-13.37,6.48-12.38,3.45-12,5.17-14.84,7.93-15.76,11-16Z" transform="translate(49.08 31.11)" style="fill:#654d1c"/><path d="M1-22a8.3,8.3,0,0,1,.36-.82l6.84-.84C8-22,8-20.23,5.28-21.37A17.41,17.41,0,0,0,1-22Z" transform="translate(49.08 31.11)" style="fill:#8b6817"/><path d="M12.87-19.07l1.07.91c-1.13.53.13,4.31-3,2.18A2.93,2.93,0,0,1,12.87-19.07Z" transform="translate(49.08 31.11)" style="fill:#87651a"/><path d="M24-17,24-15c-.21.8-.78,1.85-1.48,1.32-1.33-1-.09-2.24.23-3.36Z" transform="translate(49.08 31.11)" style="fill:#493a1e"/><path d="M1-18.86c-1.45-.06-2.3-1.08-3.22-2L.05-21.92Z" transform="translate(49.08 31.11)" style="fill:#352c1f"/><path d="M53,83c3.76-1.82,7.13-4.08,9-8a2.41,2.41,0,0,1,1.27-2.06,8.85,8.85,0,0,1,5.8.09,3,3,0,0,1,1.23,3L71,77.12q0,3.8,0,7.6l-2.8,1.36A7,7,0,0,0,65,89h0c-1.07,1.12-1.06,2.57-1.17,4A4.44,4.44,0,0,1,59,93C57.76,89.21,56.55,85.41,53,83Z" transform="translate(49.08 31.11)" style="fill:#e5ae16"/><path d="M10.05,37,8,34a2.62,2.62,0,0,1-1-.66A6.88,6.88,0,0,1,6,31a3.64,3.64,0,0,1,.11-1.35A5.62,5.62,0,0,1,7.3,28a10.19,10.19,0,0,1,1.81-1,8.42,8.42,0,0,1,2.44-1.34,5.19,5.19,0,0,1,1.4-.14c1.17.18,2.35.1,3.53.16a8.9,8.9,0,0,1,4,1.77,3.28,3.28,0,0,1,.63,1.37,5,5,0,0,1-.95,3.53c-1.06,1.41-2.65,2.47-3,4.4a3.44,3.44,0,0,1-.93,1,3.51,3.51,0,0,1-2.64.35c-.84-.21-1.73-.11-2.58-.31A3.22,3.22,0,0,1,10.05,37Z" transform="translate(49.08 31.11)" style="fill:#2c261f"/><path d="M11,37c.59-.95.77-2.41,2.2-2.4.76,0,.67.94.62,1.58-.22.92.41,1.68.49,2.55a5.71,5.71,0,0,1-.18,1.3c-.26,2.1-.87,4.24.69,6.14a3.5,3.5,0,0,1,.81,1.8,2.48,2.48,0,0,1-.33,1.28c-2.31.4-4.24,0-5.14-2.51a.76.76,0,0,0-.1-.53C11.27,43.22,9.64,40,11,37Z" transform="translate(49.08 31.11)" style="fill:#80691b"/><path d="M8.14,33.18A6.9,6.9,0,0,1,8,34H8c-1.88,1.19-4.34.45-6.15,1.86L-1,37l.1-.12a3.9,3.9,0,0,1-1-1.43A3.23,3.23,0,0,1,0,31.86a13.94,13.94,0,0,1,6-.05A3.89,3.89,0,0,1,8.14,33.18Z" transform="translate(49.08 31.11)" style="fill:#7b631b"/><path d="M1.87,35.89C3.29,33.18,5.84,34.23,8,34A7,7,0,0,1,1.87,35.89Z" transform="translate(49.08 31.11)" style="fill:#2c261f"/><path d="M11,37c-.12,3.08.51,6.24-.93,9.2q0-4.62,0-9.24Z" transform="translate(49.08 31.11)" style="fill:#1a1710"/><path d="M23,59l-3.9-1.22a1,1,0,0,0-.25-.78c-.42-1.5-1.63-2.26-2.83-3-1.46-1.41-1.08-3.08-.67-4.75l.25.12c.42-1.65,1.69-2,3.15-2.11a3.59,3.59,0,0,0,1.7-.62c1-1,1-2.25,1.17-3.51a3,3,0,0,1,1.29-1.78c1.39-.71,2.61-.2,3.8.52a5.9,5.9,0,0,1,1.55,1.82,9.8,9.8,0,0,1,1.14,6.06c-.7,2.12-2.16,4-1.94,6.4A4,4,0,0,1,27,57.56C25.92,58.77,24.74,59.71,23,59Z" transform="translate(49.08 31.11)" style="fill:#e8c518"/><path d="M16,54c1.83.18,3.55.47,2.83,3Z" transform="translate(49.08 31.11)" style="fill:#403711"/><path d="M70.9-10.95l3,2.26c1.92,4.3,4,8.48,8.15,11.15l1,2.51a1.48,1.48,0,0,1-.52,2.43c-2,.39-3-1.29-4.32-2.17Q76.12,3,74,.88c-1.22-2-3.22-3-5-4.35C67.77-6.71,64.1-7,62.09-9.32c-.51-1.79-1.59-3.52-.57-5.48,1.6-1.65,2.61-.23,3.72.71a2.82,2.82,0,0,0,2.65,1.32C68.5-11.51,69.74-11.29,70.9-10.95Z" transform="translate(49.08 31.11)" style="fill:#c48f17"/><path d="M-28.94,19q0-2,0-4c0-2.84-.26-5.75,1.86-8.1,1.48.29,2.17,1.57,3.12,2.52a4.22,4.22,0,0,1,.41,1.31l.13,1.4c-.1,1.67,1.38,3.11.7,4.86-.44,1.17-1.51,1.84-2.24,2.78a3.29,3.29,0,0,1-1.89.9C-28,20.67-28.45,19.83-28.94,19Z" transform="translate(49.08 31.11)" style="fill:#362d1d"/><path d="M-24.94,11.14-25,9.88c-1.28-.92-1.19-2.51-1.83-3.74l1-1.14a1.93,1.93,0,0,1,2.21-.33c1.36,1.16,1.4,2.81,1.64,4.39C-22.44,10.56-23.24,11.48-24.94,11.14Z" transform="translate(49.08 31.11)" style="fill:#392f1d"/><path d="M-23.75,5l-2.17,0c.06-1.41-.26-2.9.87-4.08,1.4-.79,2.19.29,3.1,1a3,3,0,0,1,.77,1.22,2.37,2.37,0,0,1-.57,2A1.55,1.55,0,0,1-23.75,5Z" transform="translate(49.08 31.11)" style="fill:#53411b"/><path d="M-23,2.93c-1.37,0-1.34-1.33-2-2q-.08-1-.17-2L-23-2C-22.26-.34-21.64,1.31-23,2.93Z" transform="translate(49.08 31.11)" style="fill:#3b301b"/><path d="M-26.88,6.14A6.05,6.05,0,0,1-25,9.88c-1.67-.31-1.82-1.67-2.05-3A4.35,4.35,0,0,1-26.88,6.14Z" transform="translate(49.08 31.11)" style="fill:#5c471c"/><path d="M69.19,68.06a6.1,6.1,0,0,0,.11,1A2.7,2.7,0,0,1,68,71c-2.48,1-4.82,0-7.21-.44a9.24,9.24,0,0,1-3.91-1.44C54,67.94,53,65.86,54,62.83c2.81-3.7,5.77-2.3,8.75-.27,2,1.34,3.24,3.66,5.75,4.31A2.46,2.46,0,0,1,69.19,68.06Z" transform="translate(49.08 31.11)" style="fill:#be9518"/><path d="M68,69.72,69.3,69c2.34,1.31,1,4.41,2.88,5.95L70.3,76,69,73.93c-1.37-1.7-5.47,1.77-5.33-2.81C64.79,69.67,66.94,71.43,68,69.72Z" transform="translate(49.08 31.11)" style="fill:#40341e"/><path d="M69.19,68.06l-1.33-.15c-.87-1-1.85-2-.91-3.47,1.88-1,3.76-2.09,5.86-.51C73.25,66.75,72.51,68.54,69.19,68.06Z" transform="translate(49.08 31.11)" style="fill:#a67f17"/><path d="M72.82,63.93l-5.59,1a1.58,1.58,0,0,1-1.47-2.11,2.71,2.71,0,0,1,1.8-1.22c1.24-.2,2.4-.73,3.65-.86a3,3,0,0,1,2,.93,1.57,1.57,0,0,1,.17,1.45Z" transform="translate(49.08 31.11)" style="fill:#d6a416"/><path d="M73.41,63.09,72.77,62c.08-1.61,1.2-2.47,2.38-3.28a2.37,2.37,0,0,1,1.38,0l.44.56q.12.44.25.88c-.84,1.33-1.58,2.76-3.17,3.39A2.36,2.36,0,0,1,73.41,63.09Z" transform="translate(49.08 31.11)" style="fill:#3b3014"/><path d="M-14.09-9C-15.41-7.1-16-4.5-18.87-4A5.77,5.77,0,0,1-18-9.16l.76-1.44.12-.68a2.5,2.5,0,0,1,1.31-.39C-14.39-11.34-14-10.35-14.09-9Z" transform="translate(49.08 31.11)" style="fill:#41341e"/><path d="M-18-9.16A8.16,8.16,0,0,1-18.87-4l-1.92-2C-20.43-7.54-19.2-8.34-18-9.16Z" transform="translate(49.08 31.11)" style="fill:#e1a316"/><path d="M-23,2.93Q-23,.47-23-2a4.07,4.07,0,0,1,.76-.12L-21,1c.56,1.1-.08,1.59-1,1.95Z" transform="translate(49.08 31.11)" style="fill:#493913"/><path d="M-17.81-11.73a8.41,8.41,0,0,0,.75-.46l.41.56L-17-11l-.26.42Z" transform="translate(49.08 31.11)" style="fill:#493913"/><path d="M-1.1,36.07q.09.41.19.82L-4,37a20.63,20.63,0,0,1-8.86.11l-2.32-.41c.07-2.31,2.13-2.91,3.51-4.09a9.3,9.3,0,0,1,1.38-.34,13.82,13.82,0,0,0,3.42-.67,7.8,7.8,0,0,1,4,.94C-1.23,33.21-1.95,35-1.1,36.07Z" transform="translate(49.08 31.11)" style="fill:#31291d"/><path d="M-10.91,34.11c-.54,2.36-2.92,1.7-4.32,2.64l-.48.09-3.38-1.74c.58-2.46,2.49-1.85,4.15-1.79C-13.58,33.55-12,32.56-10.91,34.11Z" transform="translate(49.08 31.11)" style="fill:#8b6916"/><path d="M-12.91,37.15-4,37A10.32,10.32,0,0,1-12.91,37.15Z" transform="translate(49.08 31.11)" style="fill:#17140b"/><path d="M89.87,24.06l1,1c1.35,1.48.35,2.89-.13,4.31-1.66,1.69-3.21,1.35-4.7-.24-.76-1.45-1.36-3-2.26-4.37a13,13,0,0,0-2.14-3.26,25.46,25.46,0,0,1-2.82-5.12,6,6,0,0,1-.61-2,6.28,6.28,0,0,1-.14-2.8,10.36,10.36,0,0,1,2.05-2.91,3.3,3.3,0,0,1,1.34-.54c1.45.12,2.93.16,4,1.37a4.29,4.29,0,0,1,.41,3.47c.61,3.31-1.51,7.2,2.13,9.85C89.16,22.41,89.46,23.34,89.87,24.06Z" transform="translate(49.08 31.11)" style="fill:#e0a416"/><path d="M85.87,13.08a2.86,2.86,0,0,1-.93-2.7c-.56-1.1-.93-2.12.91-2.22l1,.88,1,3Z" transform="translate(49.08 31.11)" style="fill:#795b17"/><path d="M89.87,24.06,88,22.94c0-1.41,0-2.81,1-4,1.27,1.09.95,2.63,1.16,4Z" transform="translate(49.08 31.11)" style="fill:#916b14"/><path d="M89.79,29c.79-1.2,1.76-2.34,1.08-3.94,1.73,2,1.81,4.56,2,7-.59.9-.41,2.81-2.43,1.88C88.69,32.58,89.51,30.78,89.79,29Z" transform="translate(49.08 31.11)" style="fill:#4e3d17"/><path d="M94.87,41c-.85-1-1.18-2.57-2.72-3a1.08,1.08,0,0,1-.45-1A1.45,1.45,0,0,1,93.13,36l1.81-4Q94.9,36.48,94.87,41Z" transform="translate(49.08 31.11)" style="fill:#111110"/><path d="M93.13,36l-1.07,1.13A2.13,2.13,0,0,1,90.46,35a1.62,1.62,0,0,1,.74-1.14l1.69-1.76Z" transform="translate(49.08 31.11)" style="fill:#846319"/><path d="M83.09,48.87,81,52c-.9-.61-1.61.15-2.39.33-2.78-.23-5,1-7.08,2.67-1.64.94-3.28,1.84-5.27,1.26a7.26,7.26,0,0,1-2-1.22,1.55,1.55,0,0,0-1.36,0,4.42,4.42,0,0,1-1.15.41c-1.17.2-2.22.87-3.45.76a3.31,3.31,0,0,1-2.51-1.81A4.92,4.92,0,0,1,55.52,52,5.9,5.9,0,0,1,56,49.7a5.75,5.75,0,0,1,2.34-1.82c2.88-1,6.25.49,8.87-1.8.56-.33,1.2-.46,1.78-.73A11.59,11.59,0,0,1,71.14,44a4.55,4.55,0,0,1,1.19-.27,3.81,3.81,0,0,0,1.94-.91c1.12-1.54,1.68-3.76,4.24-3.53,1.3.33,2.26,1.37,2,2.49-.77,2.88,1.29,4.14,2.81,5.77A1.58,1.58,0,0,1,83.09,48.87Z" transform="translate(49.08 31.11)" style="fill:#372e1f"/><path d="M83.09,48.87a4.86,4.86,0,0,1-.33-.66,8.33,8.33,0,0,1,8.76-4.66l.59.5c-.63,2.87-3.77,3-5.31,4.82Z" transform="translate(49.08 31.11)" style="fill:#b58516"/><path d="M79.11,51.1c.83-.15,1.68-.33,1.88.88-.55.12-.94.35-.74,1l-.42,1c-.39.89-.91,1.6-2,1.4a2.18,2.18,0,0,1-1.32-1.51C76.36,52,77.93,51.76,79.11,51.1Z" transform="translate(49.08 31.11)" style="fill:#d39f17"/><path d="M85.86,8.16l-.91,2.22c-2.15,1-3.22-.24-4-2-.32-1.09-.24-1.85,1.21-1.48L83.06,5C84.28,5.78,85.73,6.4,85.86,8.16Z" transform="translate(49.08 31.11)" style="fill:#4d3d1d"/><path d="M-24.88,27.83-25.07,26a1.94,1.94,0,0,1,1.28-1.65,2.64,2.64,0,0,1,1.48.1,6.23,6.23,0,0,1,2.61,3.64A3.56,3.56,0,0,1-20.35,31a2.22,2.22,0,0,1-1.36.59C-23.82,31.24-23.94,29.19-24.88,27.83Z" transform="translate(49.08 31.11)" style="fill:#ad8018"/><path d="M-24.16,25l-.9,1L-28,24.84-28.08,22a2.91,2.91,0,0,1,3-1.34C-23.13,21.74-23.58,23.37-24.16,25Z" transform="translate(49.08 31.11)" style="fill:#5b471c"/><path d="M-24.88,27.83l2.73,3.33c.16.76.08,1.26-.89.85A5.94,5.94,0,0,1-24.88,27.83Z" transform="translate(49.08 31.11)" style="fill:#362b13"/><path d="M-23,32l.89-.85,1.11-.19c.85-.41,1.25.1,1.56.77a1.82,1.82,0,0,1-1.35,2.11l-2.06-1Q-23,32.44-23,32Z" transform="translate(49.08 31.11)" style="fill:#684f18"/><path d="M78,54.83,79.83,54c0,2.28-2.17,3.34-2.86,5.23l0-.48C74.55,56.73,75,55.46,78,54.83Z" transform="translate(49.08 31.11)" style="fill:#bc9017"/><path d="M92,38.91c1.48,1.33.57,3.52,1.78,5L92.1,44a2.2,2.2,0,0,1-.5-.11,3.46,3.46,0,0,1-.24-4.56Z" transform="translate(49.08 31.11)" style="fill:#9e7415"/><path d="M23,59l3-2c1.54.47,1.72,1.7,1.69,3a3.35,3.35,0,0,0,.4,2c-.69,1.2-1.94.82-3,1.05Z" transform="translate(49.08 31.11)" style="fill:#51461e"/><path d="M35-22l.86-1.82,2.19.55,3,.52A1.42,1.42,0,0,1,41-21.3c-1.39,1.73-3.12,1.4-4.89.8C35.26-20.67,34.66-21,35-22Z" transform="translate(49.08 31.11)" style="fill:#71551a"/><path d="M53.75-19.88,56-18a2.45,2.45,0,0,1,.83,1.88c-.52,2.27-2.2,3.12-4.28,3.47a5,5,0,0,1-2.33-.4,3.7,3.7,0,0,1-1.66-3.57,5.3,5.3,0,0,1,1.84-4.32C51.89-21.8,52.8-20.76,53.75-19.88Z" transform="translate(49.08 31.11)" style="fill:#ce9617"/><path d="M60.26-17.14l1.81.2c.37,1.36-.59,2.3-1.06,3.39a2.84,2.84,0,0,1-1.42.53c-1.78-.21-3-1-2.86-3,.63-.81,1.19-1.82,2.47-1Z" transform="translate(49.08 31.11)" style="fill:#362c1a"/><path d="M53.75-19.88,51-20.9c-1.12.7-2.17.86-3-.42,1.54-1.22,3.32-.63,5-.67l2.13,1.87Z" transform="translate(49.08 31.11)" style="fill:#2a2415"/><path d="M59.2-17,57-16c-.34.4-.67.41-1,0L56-18C57.16-17.94,58.48-18.42,59.2-17Z" transform="translate(49.08 31.11)" style="fill:#c18d17"/><path d="M-25.86,20.83c-.28,1.27-1.07,1.55-2.22,1.15A3.86,3.86,0,0,1-28.94,19l2,1C-26,19.62-25.85,20.11-25.86,20.83Z" transform="translate(49.08 31.11)" style="fill:#3e311a"/><path d="M28.82-19c-.9-1.38-.13-2.58.42-3.81L31-23.11C30.32-21.71,30.1-20.09,28.82-19Z" transform="translate(49.08 31.11)" style="fill:#da9d16"/><path d="M41-22.05a5.42,5.42,0,0,0,.12-.7l3.84-.18a2.25,2.25,0,0,1-.47,3.22,2.59,2.59,0,0,1-1.39.31A3,3,0,0,1,41-22.05Z" transform="translate(49.08 31.11)" style="fill:#a37814"/><path d="M44.32-20.51l.59-2.43L47-23v1.82C46.34-20,45.51-19.53,44.32-20.51Z" transform="translate(49.08 31.11)" style="fill:#1f1d17"/><path d="M60.91-14l1.17-2.93,1.67.15c.67.8,1.8,1.36,1.49,2.7-1.16-.34-2.33-.83-3.37.27A.78.78,0,0,1,60.91-14Z" transform="translate(49.08 31.11)" style="fill:#ad7f16"/><path d="M-14.09-9-15.45-11a2.6,2.6,0,0,1-1.42-.84l-.19-.37A5.3,5.3,0,0,0-17-13l4.91-2A7,7,0,0,1-14.09-9Z" transform="translate(49.08 31.11)" style="fill:#362d1f"/><path d="M91.18,35l.89,2.12a4,4,0,0,0,.08.83,1.75,1.75,0,0,0-.09.94l-.23.44c-.65.78.21,2.6-1.57,2.53a2.2,2.2,0,0,1-1.91-2C87.93,37.54,87.73,35.17,91.18,35Z" transform="translate(49.08 31.11)" style="fill:#8b6919"/><path d="M65,89a3.2,3.2,0,0,1,3.19-2.92q-.13.39-.24.79Z" transform="translate(49.08 31.11)" style="fill:#dda516"/><path d="M44.32-20.51,47-21.18l1-.15,3,.42L50-17c-1.32,1.62-1.59,3.77-2.72,5.49-.35.6-.79,1.13-1.17,1.7-.89,1.82-2.54,2.6-4.32,3.21a3.07,3.07,0,0,0-2.72,2.55c-.87,1.39-1.45,3-2.75,4.06a61.5,61.5,0,0,0-6.86,3c-3.23-.36-3.73-2.73-3.89-5.32a6.88,6.88,0,0,1,.21-1.54,3.37,3.37,0,0,1,1.39-1.65C28.57-6.9,29.4-8.79,31-10l.09-1.22c.78-1.29,2.24-1.43,3.42-2,2.08-.61,1.33-3.21,2.92-4.16a7.61,7.61,0,0,1,4.39-3.16,2.27,2.27,0,0,1,1.25.57Z" transform="translate(49.08 31.11)" style="fill:#e1a816"/><path d="M-20.84,33.86-20,32c.79-1.31,2.07-1.46,3.42-1.44a7.64,7.64,0,0,1,1.54.18,2.9,2.9,0,0,1,1.26.87c.73,1.49-.17,2.41-1.17,3.29-1.39-.1-2.79-.59-4.14.19A3.06,3.06,0,0,0-20,35Z" transform="translate(49.08 31.11)" style="fill:#c99516"/><path d="M45.11,92.28c-1.68-1-4.78,1.19-5-1.59C40,88.11,42.78,87.14,45.27,87s5.51,1.08,5.34,3.39C50.38,93.73,46.88,91.11,45.11,92.28Z" transform="translate(49.08 31.11)" style="fill:#dba615"/><path d="M57,51.88l0,2.18c-.6,1.07-.18,2.48-1.14,3.42a6,6,0,0,0-.6,2.88,3.42,3.42,0,0,1-.47,1.16,9.19,9.19,0,0,1-.89.88,5.82,5.82,0,0,0-1.15,2.21c-.15.66-.26,1.33-.42,2A6.29,6.29,0,0,1,50.68,69c-1.94,1.44-3.34.44-4.63-1l.11-.12c-1.47-.63,1.65-1.36-.05-2a4.7,4.7,0,0,0-2.59-1.53A26.21,26.21,0,0,1,40.32,62L40,61c-.37-1.34-2.8-1.31-2.21-3.29,2.6-2,5.86-2.63,8.8-3.93a20.42,20.42,0,0,0,4.05-2c.35-.27.69-.54,1-.83C53.82,49.16,55.47,50.09,57,51.88Z" transform="translate(49.08 31.11)" style="fill:#342c1f"/><path d="M40.32,62C41.65,62,43,62,44,63c1.31.58,2,1.79,2.75,2.86s-.24,1.34-.61,1.93l-3,.06Z" transform="translate(49.08 31.11)" style="fill:#3f361e"/><path d="M38,57.94c.58,1.08,2.08,1.54,2,3a6.52,6.52,0,0,0-5-1c-1.35-.15-2.78.33-4-.55a2.17,2.17,0,0,1-.48-1.34c.7-2.9,3.22-2.85,5.4-3.34a2.91,2.91,0,0,1,2.39,1.74A1.39,1.39,0,0,1,38,57.94Z" transform="translate(49.08 31.11)" style="fill:#71601c"/><path d="M30.83,59.38c1.47-.29,2.92-.48,4.18.63a18.38,18.38,0,0,1-6.95,2c-.76-.31-1-.78-.41-1.46C28.21,58.82,29.48,59,30.83,59.38Z" transform="translate(49.08 31.11)" style="fill:#342d1f"/><path d="M55.06,75,53,77.29v-.37a28.05,28.05,0,0,1-3.11-3.4,2.61,2.61,0,0,1,.88-4.25,3.31,3.31,0,0,1,1.47-.12c1.52,1.1,3.81,1.3,4.33,3.6C56.71,73.95,55.82,74.44,55.06,75Z" transform="translate(49.08 31.11)" style="fill:#b99218"/><path d="M55.06,75l1.2-2a2.1,2.1,0,0,1,1.31-.7c1.85.47,4.23-.59,5.43,1.82L62,75Z" transform="translate(49.08 31.11)" style="fill:#dba816"/><path d="M50.14,71.05l1.12,1.88c.28,1.31,1.07,2.84-1.27,3.07l-3-4a4.8,4.8,0,0,1,0-1A2.14,2.14,0,0,1,50.14,71.05Z" transform="translate(49.08 31.11)" style="fill:#66531c"/><path d="M50,76l1.26-3.07a4.63,4.63,0,0,1,1.73,4l-3.12,1Z" transform="translate(49.08 31.11)" style="fill:#967719"/><path d="M50.14,71.05,47,71,46,68c1.31.14,2.63.79,3.94,0a1.73,1.73,0,0,1,1,2Z" transform="translate(49.08 31.11)" style="fill:#5f4e1c"/><path d="M18.9-6a35.1,35.1,0,0,1,1.54-4.08c1.49-2.88,4.42-2.75,7.57.24a4.25,4.25,0,0,1-.36,3.6,7,7,0,0,1-1.16,2c-1.29,2.17.55,4.77-1,6.92-1.93,1.1-3.8,2.37-6.2,2a19.14,19.14,0,0,1-2.48-.34,2.83,2.83,0,0,1-1.65-1.7,9.59,9.59,0,0,1-.06-3.11c.86-1.5.83-3.36,1.93-4.76A1.55,1.55,0,0,1,18.9-6Z" transform="translate(49.08 31.11)" style="fill:#e1a916"/><path d="M-14.13,18.06a7.26,7.26,0,0,0,4.43,2.1,8.1,8.1,0,0,1,.66,1,13,13,0,0,0,.72,1.7A12.32,12.32,0,0,0-6,25.17a2.4,2.4,0,0,1,.41,1.38A2.47,2.47,0,0,1-7,28.2a9.94,9.94,0,0,1-3.88.13,11.41,11.41,0,0,1-4-2.38c-1.87-1.42-2.07-3.42-1.91-5.54C-16.46,19-14.92,19-14.13,18.06Z" transform="translate(49.08 31.11)" style="fill:#d49d17"/><path d="M-22,3-21,1l2,.19c1.46,2.52-.83,4.49-1,6.76L-19,9.81c.62.77,1.75,1.36.9,2.63a2.89,2.89,0,0,1-3,.57,3.06,3.06,0,0,1-1.61-1.76c-.16-.8.12-1.6,0-2.39a3.84,3.84,0,0,1,.59-3.72Z" transform="translate(49.08 31.11)" style="fill:#392f1e"/><path d="M-12-3.87-10.33-4c1.93-1.73,0-4.27,1.27-6.13.17-1.17,1.2-1.35,2-1.75-.6,2.19-1.5,4.26-.11,6.62,1.22,2.08-1.17,3.65-2.1,4.39C-10.86.38-10.79-2.61-12-3.16l-.68-.35Z" transform="translate(49.08 31.11)" style="fill:#56431d"/><path d="M15.89,2l.94,1c1.5.65,2.52,1.62,2.28,3.44A3.76,3.76,0,0,1,17.45,9a4.94,4.94,0,0,1-2.23.44,14.46,14.46,0,0,1-1.51-.06,2.73,2.73,0,0,1-1.91-1.06A1.16,1.16,0,0,1,12,7l1-1c1.85-.78,1.29-2.61,1.74-4A.83.83,0,0,1,15.89,2Z" transform="translate(49.08 31.11)" style="fill:#40341e"/><path d="M38-17c-1.53,1.2,2.81,6.33-3.09,4.59A1.55,1.55,0,0,1,35-14.81a4,4,0,0,1,1.85-3.32A1.28,1.28,0,0,1,38-17Z" transform="translate(49.08 31.11)" style="fill:#69501c"/><path d="M-2,12.92l1-.7a2.81,2.81,0,0,1,2.24,1.61c.34,1.92,1.52,3.8.39,5.83A3.45,3.45,0,0,1-.23,21.1a3.12,3.12,0,0,1-3.54-1.47A3.1,3.1,0,0,1-4,18.05C-3.17,16.41-3,14.49-2,12.92Z" transform="translate(49.08 31.11)" style="fill:#58461d"/><path d="M-21,12.16l3,.09c1-.28,1.67.3,2.41.77,1.12,1.88-.79,2.72-1.38,4a1.76,1.76,0,0,1-2-.19C-20.06,15.45-22.77,14.74-21,12.16Z" transform="translate(49.08 31.11)" style="fill:#ad8018"/><path d="M-3.26,2-2,1A1.15,1.15,0,0,1-1,2l-.2,4.39C-3.45,7.08-3.33,4.18-5,4-5.77,2.15-3.6,2.85-3.26,2Z" transform="translate(49.08 31.11)" style="fill:#3e321e"/><path d="M.1,14.19l-1.09-2,5.12-2a2.22,2.22,0,0,1,1.66,2.31,2.91,2.91,0,0,1-.63,1.45C3.54,15.32,1.87,15.81.1,14.19Z" transform="translate(49.08 31.11)" style="fill:#70571b"/><path d="M-3,18l-.06,1.13c-1.3,2.34-2.67,4.56-6,3.73-.64-.44-1.28-.89-1-1.84q.13-.46.27-.91L-8,19.67c.82-.78.54-2.53,2.24-2.54a3.55,3.55,0,0,1,1-.1C-3.83,16.62-3.29,17.1-3,18Z" transform="translate(49.08 31.11)" style="fill:#614c1c"/><path d="M-20,8c-1.25-2.49.82-4.49,1-6.76L-17,1a.66.66,0,0,1,.23.69Q-16.89,2-17,2c-1.21,1-.54,2,0,3,.59,2-1.52,1.13-2.08,1.91Z" transform="translate(49.08 31.11)" style="fill:#45371e"/><path d="M7-5c.86-.4.86-2.16,2.12-1.66S10-4.91,9.4-4.16,9-.72,7-3.12A1.19,1.19,0,0,1,7-5Z" transform="translate(49.08 31.11)" style="fill:#52401d"/><path d="M43.07-20,41.9-20c-1.51.84-3,1.62-4.84,1.12L35.82-20.1q-.42-.42-.17-.62a.65.65,0,0,1,.42-.15L41-22.05A2.52,2.52,0,0,1,43.07-20Z" transform="translate(49.08 31.11)" style="fill:#db9e16"/><path d="M26.29-7,28-9.87l1.75,0c1.54,1.43.62,2.65-.32,3.87C28-5,27.13-6,26.29-7Z" transform="translate(49.08 31.11)" style="fill:#46381e"/><path d="M-18,16.31l1,.72q0,.62,0,1.24a3,3,0,0,1-.23,2.23,1.86,1.86,0,0,1-1.25.89c-1.59-.12-2.29-1.24-2.85-2.52C-21.65,16.11-21.48,14-18,16.31Z" transform="translate(49.08 31.11)" style="fill:#c69217"/><path d="M17.83-5.08,16.19-.8A1.45,1.45,0,0,1,14.9-2.07c-.12-1.83.87-3.27,1.66-4.78C17.83-6.87,17.59-5.8,17.83-5.08Z" transform="translate(49.08 31.11)" style="fill:#75591b"/><path d="M12,7,12,8a2.76,2.76,0,0,1-.72,1.36,3.08,3.08,0,0,1-2.84,1.06A2.52,2.52,0,0,1,6,8.73C7.44,6.17,9.93,7.25,12,7Z" transform="translate(49.08 31.11)" style="fill:#d7a116"/><path d="M7-5,7-3.12,3-2.83a1.76,1.76,0,0,1-1.92.14A1.42,1.42,0,0,1,.74-3.92c.57-.87,1.72-.38,2.39-1Z" transform="translate(49.08 31.11)" style="fill:#5c471c"/><path d="M1-2.91l2,.08C3-.6,3.27,1.87-.09,2-.73.6,0-.68.15-2A2,2,0,0,1,1-2.91Z" transform="translate(49.08 31.11)" style="fill:#dda316"/><path d="M-3,18l-1.85-1c.8-1.48.7-3.57,2.84-4.12C-2,14.69-2,16.47-3,18Z" transform="translate(49.08 31.11)" style="fill:#2b251f"/><path d="M37.06-18.85A6.82,6.82,0,0,1,41.9-20c-.68,1.77-2.57,2-3.85,3L36.9-18.13A4,4,0,0,0,37.06-18.85Z" transform="translate(49.08 31.11)" style="fill:#493a1d"/><path d="M6,8.73l3.18.21c-.07,3-1,4.56-4.17,2.62l-.87-1.39Z" transform="translate(49.08 31.11)" style="fill:#29231f"/><path d="M-17,2V1c.26-1-.12-2.26,1-3,1-.22,1.46,0,1.11,1.12S-13.07,3.44-17,2Z" transform="translate(49.08 31.11)" style="fill:#4b3b1d"/><path d="M1-2.91Q1-2.43.9-2C.17-1.07.63,1.42-1.78,0c1.59-1.54,0-3.6.83-5.25C.08-5.44.59-4.83,1-4Z" transform="translate(49.08 31.11)" style="fill:#5a461c"/><path d="M-1.78,0,.9-2C2-.29,1.7,1-.09,2l-.45,0L-1,2-2,1A3.39,3.39,0,0,1-1.78,0Z" transform="translate(49.08 31.11)" style="fill:#49391d"/><path d="M14.9-2.07,16.19-.8,15.89,2h-1c-.46.46-.7.34-.76-.28C14.56.52,13.38-1.06,14.9-2.07Z" transform="translate(49.08 31.11)" style="fill:#56441d"/><path d="M35-14.81,35-12.37l-3.87,1.13C31.46-13.49,33.53-13.84,35-14.81Z" transform="translate(49.08 31.11)" style="fill:#5a451c"/><path d="M-19.09,6.91-17,5l2.9.94q.42.28.34.62t-.21.36C-15.7,8.32-17.39,6.86-19.09,6.91Z" transform="translate(49.08 31.11)" style="fill:#a67c18"/><path d="M-5.81,17.13-8,19.67l-.83-3c.15-.94-.32-2.1.93-2.66Z" transform="translate(49.08 31.11)" style="fill:#d49d17"/><path d="M-11.14,6.18A2.82,2.82,0,0,1-8.88,8.3,4.85,4.85,0,0,1-13.1,7.09C-12.76,6.11-11.84,6.39-11.14,6.18Z" transform="translate(49.08 31.11)" style="fill:#7a5c1b"/><path d="M-7.95,14c-.05,1,.3,2.1-.93,2.66C-9.3,15.81-10,15-9.51,14-9.1,13.18-8.48,13.62-7.95,14Z" transform="translate(49.08 31.11)" style="fill:#52401d"/><path d="M28.94-6l.81-3.89L31-10c0,2.25-.15,4.45-2.2,5.94A1.41,1.41,0,0,1,28.94-6Z" transform="translate(49.08 31.11)" style="fill:#d99f17"/><path d="M-17.93,19.78l1-1.51,2.84-.21c.15,1.38-.82,1.7-1.86,2A1.17,1.17,0,0,1-17.93,19.78Z" transform="translate(49.08 31.11)" style="fill:#795c1b"/><path d="M36.07-20.87l-.24.76c-.91-.26-2.39.86-2.63-.83-.11-.76,1-1,1.79-1.08Z" transform="translate(49.08 31.11)" style="fill:#ac7f18"/><path d="M-15.6,13A2.65,2.65,0,0,1-18,12.25L-19,9.81A3.85,3.85,0,0,1-15.6,13Z" transform="translate(49.08 31.11)" style="fill:#3b301e"/><path d="M-11.14,6.18l-2,.91Q-13.55,7-14,6.93a2.82,2.82,0,0,0-.12-1C-12.88,3-12,4.85-11.14,6.18Z" transform="translate(49.08 31.11)" style="fill:#3c311e"/><path d="M-14.87-.86-16-2a3.61,3.61,0,0,1,4-1.89q0,.35,0,.71C-13.41-3-14.16-2-14.87-.86Z" transform="translate(49.08 31.11)" style="fill:#6d531b"/><path d="M-3.26,2-5,4c-.6-.23-1.48-.48-1-1.27C-5.38,1.77-4.21,2.08-3.26,2Z" transform="translate(49.08 31.11)" style="fill:#dda316"/><path d="M17.83-5.08,16.56-6.85A1.18,1.18,0,0,1,18-7.9c1.17.14,1,1.05,1,1.87Z" transform="translate(49.08 31.11)" style="fill:#5a451d"/><path d="M14.1,1.75a2.26,2.26,0,0,0,.76.28C14.41,3.43,15.75,5.67,13,6Z" transform="translate(49.08 31.11)" style="fill:#d7a116"/><path d="M1-4-.94-5.22c1.41-.79,2.71.13,4.07.27Z" transform="translate(49.08 31.11)" style="fill:#dda316"/><path d="M-9.06-10.18c-.08,2.12.58,4.38-1.27,6.13C-9.54-6-10.39-8.32-9.06-10.18Z" transform="translate(49.08 31.11)" style="fill:#56431d"/><path d="M63,74.14c-1.91-.84-4.35,1.1-6-1.14a2.31,2.31,0,0,1,.64-1.09c1.11-.63,2.36-1,3.48-1.56a4.09,4.09,0,0,1,1.25-.25A2.08,2.08,0,0,1,64,71c.77,2.53,3.67,1.4,5,2.92Z" transform="translate(49.08 31.11)" style="fill:#5c491c"/><path d="M18,31.28,20,29a3.67,3.67,0,0,1,2.16-1.29c.57-.16,1.17-.21,1.75-.38a5.21,5.21,0,0,0,1.88-1.68,5.94,5.94,0,0,1,2.12-1.89c1.77-.18,3.4-1,5.16-1.16a4.42,4.42,0,0,1,3.26,1.06c2.62-.07,4.78-3.6,7.75-1.1a9.76,9.76,0,0,1,1.82.94,18.76,18.76,0,0,0,3.31,1.34c2.64.77,4.24,2.2,3.38,5.23-.93,1.44-2.55,1.7-4,2.27a9.39,9.39,0,0,1-2.11.08c-1.05-.07-1.89-.78-2.89-1a3.2,3.2,0,0,0-1.08.11c-.82.6-1.15,1.57-1.78,2.32a10.29,10.29,0,0,1-3.23,2.33c-3,.8-6.18-.44-9.06,1.08-2.46,0-3.41,2-4.73,3.49-2.26.75-1.93,3.49-3.61,4.69-2.48,1.78-4.78,1.66-6.85-.67A6.23,6.23,0,0,1,13,39h0c.92-.78,2.25-1,3-2.08a2.08,2.08,0,0,1,.17-.91C17.43,34.7,16.85,32.64,18,31.28Z" transform="translate(49.08 31.11)" style="fill:#e8c217"/><path d="M5,11.56c2.42.76,3.07-1.29,4.17-2.62l1.77-1c1.23.93,3.1,1.17,3.42,3.11.28,2.36,0,4.75.48,7.1.17,1.06.52,2.08.61,3.15,0,.83,0,1.65,0,2.48-.3,1.59,0,3.66-2.7,3.31A1.28,1.28,0,0,1,12,27c-.86-.37-1.82-.6-2.22-1.6a7.12,7.12,0,0,1-.28-2,9.16,9.16,0,0,0-.83-3.64c-.15-.38-.3-.76-.46-1.14a6.32,6.32,0,0,0-1.87-2.39,3.68,3.68,0,0,1-1.58-3.39Z" transform="translate(49.08 31.11)" style="fill:#e1ac16"/><path d="M28,25l-1.11,2c-1.16.61-1.29,2.29-2.71,2.63A2,2,0,0,1,23,29.12L20,29q-.13-.42-.24-.84a2.43,2.43,0,0,1-.25-1.53c1.64-2.75,3.87-4.3,7.23-3.52A2.33,2.33,0,0,1,28,25Z" transform="translate(49.08 31.11)" style="fill:#3f351e"/><path d="M16,36.93c-.83.92.83,5.36-3,2.08l.84-2.84C14.3,37.16,15.09,37.19,16,36.93Z" transform="translate(49.08 31.11)" style="fill:#e2be17"/><path d="M8.14,29.17,7,30c-1.89,1.82-4.21,1.6-6.54,1.35C-1.57,29.06.08,27.9,2,27.23a5.93,5.93,0,0,1,5.09.45A3,3,0,0,1,8.14,29.17Z" transform="translate(49.08 31.11)" style="fill:#e1b016"/><path d="M18,31.28c0,1.81.33,3.8-1.9,4.73C15.51,33.93,16.84,32.64,18,31.28Z" transform="translate(49.08 31.11)" style="fill:#d4af18"/><path d="M20,27.53c-.07.21-.15.41-.23.62L15.82,27c-1.69-.09-1.3-1.15-1-2.17.93-.8,2-.5,3-.3A2.86,2.86,0,0,1,20,27.53Z" transform="translate(49.08 31.11)" style="fill:#39301f"/><path d="M15.06,25l.77,2c-1,1.3-2,1.16-3.06.09,1.18-1.27,1.25-2.88,1.41-4.48C15.47,23.07,15.82,23.85,15.06,25Z" transform="translate(49.08 31.11)" style="fill:#dcae17"/><path d="M8.14,33.18l-2.21-.26c-.83-.52-1.68-1-.88-2.2a1.89,1.89,0,0,1,2,.2C7.63,31.57,10.17,31.28,8.14,33.18Z" transform="translate(49.08 31.11)" style="fill:#c09918"/><path d="M7.06,30.91,5,31.22c-1.3.83-2.55,1-3.72-.24C2.92,29.14,5.06,30.1,7,30Q7,30.47,7.06,30.91Z" transform="translate(49.08 31.11)" style="fill:#69551c"/><path d="M10,29l-1.85.17-.2-.26c-.85-1.67-.68-3.1,1-4.19a1.4,1.4,0,0,1,1.43.46A4.26,4.26,0,0,1,10,29Z" transform="translate(49.08 31.11)" style="fill:#e1b016"/><path d="M10,29l-.22-3.93a.7.7,0,0,1,1.06,0L12,27Z" transform="translate(49.08 31.11)" style="fill:#4f411d"/><path d="M14,44c2,1.6,4,1.32,6.09.15a2.81,2.81,0,0,1,1,1A3.36,3.36,0,0,1,20,49.07l-4.39.28L13.86,48A2.86,2.86,0,0,1,14,44Z" transform="translate(49.08 31.11)" style="fill:#74621c"/><path d="M14,44,13.86,48C10.7,45.25,12.05,42.12,13,39,13,40.75,12.81,42.53,14,44Z" transform="translate(49.08 31.11)" style="fill:#e2be17"/><path d="M9,24.86l-1.1,4.05c-2.13,1-5.46-1.83-6.69,2.08L5,31.22l1,1.7L0,33c-.79,1-2.12.37-3.05,1L-7,33.07c-1,.16-2,.55-3,.71a2.78,2.78,0,0,1-.93.32c-1.35.26-2.56,1.23-4,.8l1-2.95c-.14-2.89,2-3.4,4.1-3.93.43,0,.88,0,1.31,0,1,0,2,.58,2.91-.19a2.29,2.29,0,0,0,.48-1A1.92,1.92,0,0,0-6,25.31c-1.13-.53-2.66-.12-3.41-1.49A1.63,1.63,0,0,1-9,22c2.75.68,2.88-4.17,5.95-2.82.89,1.18,2.07.73,3.2.57l.47-.11v-.48c.46-1.72-3.39-3-.5-5l4.67-1.33,3.23,2A18.13,18.13,0,0,0,9.77,20.1,10.27,10.27,0,0,1,9,24.86Z" transform="translate(49.08 31.11)" style="fill:#e3b016"/><path d="M-3.05,34A3.2,3.2,0,0,1,0,33l-1.1,3.07C-2.33,35.9-2.52,34.77-3.05,34Z" transform="translate(49.08 31.11)" style="fill:#55451d"/><path d="M26.84,44,26,42.83c-2.37-3.56.21-5,2.76-6.47,2.74-1.82,5.34-.3,8,.33,1.46,1.36,1.38,3.1,1.24,4.86-.46,2.19-2.44,3.68-2.77,5.93a3.13,3.13,0,0,1-5.72-.25C28.73,46.05,28.34,44.59,26.84,44Z" transform="translate(49.08 31.11)" style="fill:#d9bd19"/><path d="M29.15,37.31c-1.22,1.75-3.6,2.83-3.2,5.52A3.2,3.2,0,0,0,23,42,1.27,1.27,0,0,1,23,40c1.72-1.22.45-5.75,4.66-4.22C29,35.45,29.33,36.14,29.15,37.31Z" transform="translate(49.08 31.11)" style="fill:#4c411e"/><path d="M30.83,59.38c-.73,1.3-2.08.94-3.18,1.2C26.33,59.73,26.15,58.35,26,57a1.68,1.68,0,0,1,.2-.93,2.34,2.34,0,0,1,1.88-.87c2.14.29,2.41,2.08,2.92,3.66A.41.41,0,0,0,30.83,59.38Z" transform="translate(49.08 31.11)" style="fill:#2b2620"/><path d="M26.84,44c2.8-2.11,2.4.94,3.23,2a5.67,5.67,0,0,1,.62,3.48,1.94,1.94,0,0,1-1,.95,2,2,0,0,1-1.35-.4A16,16,0,0,0,26.84,44Z" transform="translate(49.08 31.11)" style="fill:#4e441d"/><path d="M28.31,50l.2-.06c1.71.71,1.88,2.13,1.7,3.71A3,3,0,0,1,27.77,56H26.19A5.6,5.6,0,0,1,28.31,50Z" transform="translate(49.08 31.11)" style="fill:#4b401e"/><path d="M23,40v4a1.76,1.76,0,0,1-.89,1.51,1.48,1.48,0,0,1-1.66-.45,2.57,2.57,0,0,0-.33-.89A5.5,5.5,0,0,1,23,40Z" transform="translate(49.08 31.11)" style="fill:#3f361e"/><path d="M20.45,45.06,22,45a5.07,5.07,0,0,1-.09,5L20,49.07C19.17,47.61,20,46.35,20.45,45.06Z" transform="translate(49.08 31.11)" style="fill:#352e1f"/><path d="M21.9,50,22,45l1-1C24,46.24,23.12,48.14,21.9,50Z" transform="translate(49.08 31.11)" style="fill:#dec119"/><path d="M63.06-10C65-7.54,70.58-9.27,70-3.94l-.58.47A4.28,4.28,0,0,1,68-3.14c-2.89-.63-5.58-1.65-7.55-4a4,4,0,0,1-.57-1.34,3.88,3.88,0,0,1,0-1.43,3.14,3.14,0,0,1,.7-1.19,2.09,2.09,0,0,1,1.28-.34C62.53-11.26,62.75-10.6,63.06-10Z" transform="translate(49.08 31.11)" style="fill:#5a461c"/><path d="M70-3.94c2.47.34,3.88,2,4.95,4A1.78,1.78,0,0,1,73.5,2.52C70,1.57,67.84,0,70.06-4Z" transform="translate(49.08 31.11)" style="fill:#332a1f"/><path d="M82.14,6.91,80.93,8.39q.06.34.09.67a2.13,2.13,0,0,1-2.16-.15c-1.32-1.23-2.51-2.53-2.21-4.54a1.7,1.7,0,0,1,2.6-.44Z" transform="translate(49.08 31.11)" style="fill:#52401d"/><path d="M79.25,3.93,77,5c-1.9.61-2.45-.75-3-2.08q0-.7,0-1.4L74.93.1Z" transform="translate(49.08 31.11)" style="fill:#42351e"/><path d="M63.06-10l-1-.86c-.88-.89-2.81-1-2.1-3a6.34,6.34,0,0,1,1-.09,8.53,8.53,0,0,1,1,.19C62.5-12.62,63.83-11.66,63.06-10Z" transform="translate(49.08 31.11)" style="fill:#76591b"/><path d="M-18,16.31c-3-.82-2.2,1.13-2,2.67a2,2,0,0,1-2.52.19A2.74,2.74,0,0,1-23.92,17a9.46,9.46,0,0,1-.94-5.15,6.1,6.1,0,0,1,3-.92l.92,1.23C-20.62,14-17.92,14.17-18,16.31Z" transform="translate(49.08 31.11)" style="fill:#6d531b"/><path d="M-25.86,20.83l-1-.85.87-1.09a2.52,2.52,0,0,1,3.1.85c.52.76,1,1.54,1.49,2.34a3,3,0,0,1,.17,1.35,2,2,0,0,1-2,1.58l-.91,0Z" transform="translate(49.08 31.11)" style="fill:#ab7f18"/><path d="M-23.91,20.83-26,18.88-23.92,17l1.93.92a1.71,1.71,0,0,1,.46,1.26C-21.86,20.4-22.29,21.47-23.91,20.83Z" transform="translate(49.08 31.11)" style="fill:#5e481c"/><path d="M-21.88,10.93c-.48,1.94-1.9.87-3,.93a2.71,2.71,0,0,1-.09-.72A3,3,0,0,0-23,9a.5.5,0,0,1,.89.06Z" transform="translate(49.08 31.11)" style="fill:#b88718"/><path d="M-22.11,9.06A4.36,4.36,0,0,0-23,9c-1.13-1.15-1.06-2.53-.75-4l1.63.09Q-22.11,7.1-22.11,9.06Z" transform="translate(49.08 31.11)" style="fill:#86641a"/><path d="M54,61.2l-.15-1.13c2.34-2.84,5.12-1.09,7.76-.74l1.64.36c1.27.72,2.28,1.6,2,3.26C64.77,64,64,64.68,62.74,64.11c-2.51-.63-4.8-2.88-7.65-1C53.4,63.19,53.4,62.38,54,61.2Z" transform="translate(49.08 31.11)" style="fill:#53441d"/><path d="M54,61.2l1.05,1.86c-1.39,3,1.46,3.72,2.8,5.25a1,1,0,0,1-.33,1.4,3.24,3.24,0,0,1-4.42-.6,9.74,9.74,0,0,1-1-3c-.12-1-.09-2-.12-3a3,3,0,0,1,.88-2Z" transform="translate(49.08 31.11)" style="fill:#5b4b1d"/><path d="M62.74,64.11,65,63a.81.81,0,0,1,1.16.09l1.05,1.81.64,3C65.35,67.73,63.29,66.94,62.74,64.11Z" transform="translate(49.08 31.11)" style="fill:#473a1d"/><path d="M64,71l-1.85-.11c-1-.21-1.53-.68-1-1.76,2.36-.66,4.49,1.48,6.87.59C66.9,71,65.45,71,64,71Z" transform="translate(49.08 31.11)" style="fill:#362d1e"/><path d="M61.09,69.13l1,1.76-.46.36a3.36,3.36,0,0,1-2.64.47,2,2,0,0,1-1.16-2.29q0-.57,0-1.13Z" transform="translate(49.08 31.11)" style="fill:#614e1c"/><path d="M76.23,59.11c-.9,1.27-1.69,2.66-3.46,2.87L71.33,62c-1.73-.11-3.46,0-5.19-.18a3.86,3.86,0,0,1-1.34-.66c.67-4.19,5-6.15,9.21-4.08A7,7,0,0,1,76.23,59.11Z" transform="translate(49.08 31.11)" style="fill:#bc9017"/><path d="M66,61.23c1.82,0,3.76-.89,5.31.82-1,.9-2.22.75-3.42.77C67.34,62.21,65.67,62.92,66,61.23Z" transform="translate(49.08 31.11)" style="fill:#53441d"/><path d="M66,61.23l1.9,1.59-1.74.26L65,63l-2-1.94a1.64,1.64,0,0,1,2-.39Z" transform="translate(49.08 31.11)" style="fill:#3a311f"/><path d="M65.06,60.66l-2,.39a2.19,2.19,0,0,0-.87-.12,2.09,2.09,0,0,1-.83-1.22c.37-2.63,1.94-4,4.53-4.19L71,52.72c1.87.7,4.14-.42,5.79,1.26l1.18.86c-1,1.13-1.81,2.32-1,3.92a1.2,1.2,0,0,1-.78.35C72.42,59,68.51,58.18,65.06,60.66Z" transform="translate(49.08 31.11)" style="fill:#c49817"/><path d="M-16.87-11.82l1.42.84L-17-11Q-16.93-11.42-16.87-11.82Z" transform="translate(49.08 31.11)" style="fill:#9b7113"/><path d="M-10,33.78c.83-.94,1.25-3.66,3-.71C-7.21,36.54-8.87,34-10,33.78Z" transform="translate(49.08 31.11)" style="fill:#dba616"/><path d="M74,1.57l1,.77C74.88,5.82,78.51,6,80,8l1,1.06c-.06,1.32-.42,2.45-1.85,2.9-1.77.47-3.66.07-5.39.8-1.28-.17-1.7-1.16-2.06-2.14a.63.63,0,0,1-.16-.42c0,.08-.08.08-.06.14a3,3,0,0,1,.5,1.08c.55,1.72,1.69,1.77,3.08,1.13,2.22-1.17,3.54.77,5.2,1.5q.35.19.68.41c.84,1.56.4,3.28.58,4.92.12,2.19,2.3,3.19,3,5.07.9,1.17,1.41,2.64,2.62,3.59.75.71,1.41,1.65,2.66,1,1.44,1.34,1.16,3.18,1.41,4.86q0,.55,0,1.11a4.12,4.12,0,0,0-1.06,4.93c.93,2,.91-.94,1.71-.59l-.22,4.58a36.53,36.53,0,0,1-8.84,4.27c-7.47-.17-2.91-5.27-3.4-8.3-1-2.4,2.48-3.74,1.48-6.14-.39-1.15-.74-2.33-2-2.87a7.56,7.56,0,0,1-1.16-.64,27.62,27.62,0,0,1-4.8-4.84A5.1,5.1,0,0,1,72.56,23c-.07,0-.26-.14-.31-.09a8.14,8.14,0,0,1-5-1.41,3.33,3.33,0,0,1-.63-1.23C66,18,64.25,16.08,64.52,13.56c0-1.15,0-2.3.12-3.45a9,9,0,0,1,.69-1.87,3.8,3.8,0,0,0-.12-3A6.89,6.89,0,0,0,62.8,2.49c-1-.73-2.22-1.25-3.2-2.07-1.61-1-3-2.32-5.08-2.35A19.93,19.93,0,0,0,52-1.54a14.64,14.64,0,0,0-3.71,1A8.25,8.25,0,0,1,45.68,0c-1.32-.13-2-1.17-2.91-1.94C40.76-3.49,39-5.15,40.89-8L45-11c3-.84,5.91-2.31,9.14-1a8.72,8.72,0,0,0,3.11,1.43A5.77,5.77,0,0,1,61.14-9.1l-.1,0c1.11,4.09,4.7,3.57,7.7,4.14l1.32,1C71-1.9,71.85.3,74,1.57Z" transform="translate(49.08 31.11)" style="fill:#e1a616"/><path d="M73.78,11.91c1.81-1.4,3.6-.33,5.4.05l1.11,2.09c-1.8.07-3.55-1.06-5.38-.22a1.82,1.82,0,0,1-1.4-.88A1.1,1.1,0,0,1,73.78,11.91Z" transform="translate(49.08 31.11)" style="fill:#7c5e1b"/><path d="M84.27,24.83c-1.54-1-3.26-1.81-3.49-3.95A1.78,1.78,0,0,1,83,21a3.65,3.65,0,0,1,1.86,3.2Q85.08,25,84.27,24.83Z" transform="translate(49.08 31.11)" style="fill:#5a461c"/><path d="M83,21l-2.23-.11L81,14.46C83,16.23,81.61,19,83,21Z" transform="translate(49.08 31.11)" style="fill:#72571b"/><path d="M84.27,24.83a6.77,6.77,0,0,0,.6-.63A5.57,5.57,0,0,1,87.12,28C85,28,84.9,26.18,84.27,24.83Z" transform="translate(49.08 31.11)" style="fill:#664e1c"/><path d="M79.56,29l-.1,0c2,.6,1.07,3.05,2.5,4,2.83.57,4.1,1.67,1.29,4-1.24,1-2.59,1.94-3.89,2.9-3.75.74-1.46,4-2.44,5.88-2,1.66-3.26-.53-4.87-.91l.08,0c-2.16-.65-1.24,1.53-2,2.17l-1.35,1.45a4.4,4.4,0,0,1-1-.92c-.62-3.58-2.85-6.2-5.23-8.73a2.24,2.24,0,0,1,1-1.81c1.45-.75,3.2-.36,4.61-1.23,1.21-.66,1.55-2.08,2.56-2.92,1.51-1.06,2.26-2.78,3.58-4C76.09,27.3,77.79,29.1,79.56,29Z" transform="translate(49.08 31.11)" style="fill:#e2ab16"/><path d="M59.24,49.05c-.4,1-1.32,1-2.15,1.13-1.57,1.13-4.87-.76-5,2.88L52,53c-1.59.76-3.77-.15-5,1.75-2.11,1.1-4.27.87-6.46.29a3.9,3.9,0,0,1-2.08-4,5.78,5.78,0,0,1,.4-1.51,26.4,26.4,0,0,1,1.87-2.43A3.81,3.81,0,0,1,42,46.35c2.08-.15,3.35-1.86,5.07-2.7a6.61,6.61,0,0,1,4.33.72,18.73,18.73,0,0,0,4.29,1.28C57.19,46.49,59.47,46.47,59.24,49.05Z" transform="translate(49.08 31.11)" style="fill:#e4c218"/><path d="M59.24,49.05c-.82-1.78-3.16-.79-4.14-2.28a1.72,1.72,0,0,1,1-1.9,36.47,36.47,0,0,1,4.52-.68c3.13.43,6.25.89,8.45,3.55a1,1,0,0,1-.29.71C65.68,50,62.42,48.87,59.24,49.05Z" transform="translate(49.08 31.11)" style="fill:#5c4c1d"/><path d="M76.84,54c-2.32,1.36-4.14.46-5.79-1.26,2.49-1.54,5-3,8.06-1.62Z" transform="translate(49.08 31.11)" style="fill:#6d551b"/><path d="M65.85,55.53l-4,4.76a1.94,1.94,0,0,1-2.53-.89c-.64-1.62.36-2.68,1.29-3.75.37-.59,1.84-.44,1.17-1.74q.18-.36.32-.73c1.57-1.14,3.18-.85,4.81-.16C67,54,64.63,54,65.85,55.53Z" transform="translate(49.08 31.11)" style="fill:#c09918"/><path d="M54.07,56l2.92-2,1.91.79a2.2,2.2,0,0,1,.88,2.23,3.44,3.44,0,0,1-2.25,2.37C55.29,59.41,52.24,60.19,54.07,56Z" transform="translate(49.08 31.11)" style="fill:#a1841a"/><path d="M52.1,53.06c-1-5.63,3.26-2,5-2.88L57,51.88C55,50.87,53.62,52.26,52.1,53.06Z" transform="translate(49.08 31.11)" style="fill:#715e1c"/><path d="M70.13,47c-.08-1.69-.68-3.42.32-5.12,1.87.29,1.12,2,1.67,2.95Z" transform="translate(49.08 31.11)" style="fill:#5f4c1c"/><path d="M59,57l-.07-2.18c.76-1,1.86-.9,2.92-.94,1.9.53.63,1.32.16,2C61.05,56.53,60.32,57.63,59,57Z" transform="translate(49.08 31.11)" style="fill:#d0a617"/><path d="M66.95,53l-4.81.16c1.38-1.69,3.56-1.26,5.28-1.53C68.48,51.47,67.52,52.6,66.95,53Z" transform="translate(49.08 31.11)" style="fill:#755e1b"/><path d="M72,44.88l4.87.91C74.65,48.92,73.54,45.86,72,44.88Z" transform="translate(49.08 31.11)" style="fill:#4f3f1d"/><path d="M-16.07,32-20,32l-1-1-.26-2.91a2.2,2.2,0,0,1,1.24-.93,3.09,3.09,0,0,1,1.57.1C-17.14,28.52-14.29,29-16.07,32Z" transform="translate(49.08 31.11)" style="fill:#5f4a1c"/><path d="M-20,28l-1.3.06L-23.25,25-22,23c2.82-.3,3.38,1.26,3,3.62A6.72,6.72,0,0,1-20,28Z" transform="translate(49.08 31.11)" style="fill:#624b1c"/><path d="M59.93-13.91l2.1,3H61a4.77,4.77,0,0,1-3.72.78c-1.82-.88-3.9-1.43-4.57-3.72L56-16l1,0C57.44-14.54,59-14.66,59.93-13.91Z" transform="translate(49.08 31.11)" style="fill:#c59017"/><path d="M45.61-11.81c1.13-2,2.06-4.21,4.4-5.21a4.76,4.76,0,0,0,1,3.32c1.13.59,2,1.21.27,2.16C49.42-11.88,47.45-10.55,45.61-11.81Z" transform="translate(49.08 31.11)" style="fill:#4e3d1d"/><path d="M52-12.14,51-13.7l1.66-.11c1.6.72,3.48,1,4.53,2.62a1.68,1.68,0,0,1-.51,1.46q-.41.35-.84.68C55.18-9.23,53.75-8,54-10,54.91-12.2,52.1-10.9,52-12.14Z" transform="translate(49.08 31.11)" style="fill:#5e481c"/><path d="M30,1.9c.84-3.41,3.66-2.77,6.07-3l.56.45a15.44,15.44,0,0,1,1.5,4.86,3.3,3.3,0,0,1-.47,1.46c-1.13,1.09-2.1,2.44-3.86,2.59-2.39-.05-4.86.18-6.83-1.63a2.28,2.28,0,0,1,.1-2.86C27.8,2.78,29.47,3.22,30,1.9Z" transform="translate(49.08 31.11)" style="fill:#e1b016"/><path d="M40.89-8C41.54-6,41.71-3.78,44.12-3a1,1,0,0,1,0,1.38,2.91,2.91,0,0,1-2,1,3.56,3.56,0,0,1-2.17-.61c-.85-1.1-2.44-1.83-1.87-3.65C38.45-6.46,38.67-8.15,40.89-8Z" transform="translate(49.08 31.11)" style="fill:#352b1f"/><path d="M30,1.9c1.57,3-1.65,1.08-2.1,2-1.94.31-2.19-1-2.39-2.44C26.19,0,24-2.4,27-3.1,27.62-1.19,27,1.44,30,1.9Z" transform="translate(49.08 31.11)" style="fill:#3c311e"/><path d="M52-12.14c.62.77,3.93-1,2,2.15-2.76-2.5-6.2.86-9-1l.64-.77Z" transform="translate(49.08 31.11)" style="fill:#e0a416"/><path d="M38-4.94l2.92,2c-.76,1.18-1.29,2.6-3,2.75a2,2,0,0,1-1.77-1l-.11.08A5.74,5.74,0,0,1,38-4.94Z" transform="translate(49.08 31.11)" style="fill:#54421d"/><path d="M27-3.1c-2,1.4-1.09,3.3-.91,5.08a.86.86,0,0,1,0,1.21C25.25,3.24,24.76,3,25,2c.13-2.36-.41-4.79.82-7A1.17,1.17,0,0,1,27-3.69Q27-3.39,27-3.1Z" transform="translate(49.08 31.11)" style="fill:#e0a416"/><path d="M27-3.69,25.8-5l.48-2,2.65,1L28.8-4.09Z" transform="translate(49.08 31.11)" style="fill:#392f1f"/><path d="M-8.78,28.89-13.94,32l-.77,0c-1.42-1.16-.66-2.32,0-3.48a4,4,0,0,1,3.67-1.07C-10.11,27.62-8.82,27.28-8.78,28.89Z" transform="translate(49.08 31.11)" style="fill:#dba616"/><path d="M-13.93,29.09-14.71,32l-1.36,0C-16.15,30-18.9,30-18.87,28c1.69-2,3.21-1.21,4.68.3Z" transform="translate(49.08 31.11)" style="fill:#ae8218"/><path d="M41.14,54.26c1.81-.72,3.86,1.33,5.57-.48C47.77,53.44,48,54,48,54.92c-3.15,1.6-6.28,3.22-10,3V56.77C37.81,54.4,39.61,54.5,41.14,54.26Z" transform="translate(49.08 31.11)" style="fill:#76641c"/><path d="M54.07,56c.07,2.74,1.77,3.17,4,2.84.67-.41,1.32-.52,1.88.19l1.92,1.21a2.76,2.76,0,0,0,.27.65l-8.26-.87C52.75,58.67,51.85,57.28,54.07,56Z" transform="translate(49.08 31.11)" style="fill:#5c4c1d"/><path d="M46.77,65.91A3.41,3.41,0,0,1,44,63c1.22-.38,1.78-2,3.38-1.8C48.22,63,46.4,64.3,46.77,65.91Z" transform="translate(49.08 31.11)" style="fill:#957b1a"/><path d="M53,66l1,2c-.61.73-1,1.78-2.15,1.84q-.45.05-.9.14l-1-2,1.06-2A1.32,1.32,0,0,1,53,66Z" transform="translate(49.08 31.11)" style="fill:#63511c"/><path d="M48,54.92l-1.25-1.14C48,50.24,50.18,52.8,52,53A8,8,0,0,1,48,54.92Z" transform="translate(49.08 31.11)" style="fill:#86701b"/><path d="M52.86,61.11,53,63c-.51.58-.79,1.6-1.91,1C50.14,62.07,50.07,60.69,52.86,61.11Z" transform="translate(49.08 31.11)" style="fill:#b29119"/><path d="M51,64,53,63q0,1.5,0,3L51,65.94Q51,65,51,64Z" transform="translate(49.08 31.11)" style="fill:#a68619"/><path d="M41.14,54.26c.21,2.42-2.37,1.35-3.16,2.52l-2.11-1a11.86,11.86,0,0,1-2.13-.33c-2.88-.69-5.17-1.79-3.81-5.45L30.08,46c.87.81,1.6,1.82,2.91,2,2.39.57,5.28-.53,7.06,2.11Z" transform="translate(49.08 31.11)" style="fill:#cbb119"/><path d="M35.39,55.1a2.88,2.88,0,0,0,.47.63c-1.15,1.78-3.92,1-4.88,3.1A4.4,4.4,0,0,1,27.77,56c.2-.83.14-1.8,1.15-2.21A6.45,6.45,0,0,1,35.39,55.1Z" transform="translate(49.08 31.11)" style="fill:#e6c818"/><path d="M51.85,69.84A1.82,1.82,0,0,1,54,68l3.87,1.44,1.26,1.28c.67,1.21-.14,1.65-1.06,2L57,73l-.75,0C54.62,72.21,52.8,71.62,51.85,69.84Z" transform="translate(49.08 31.11)" style="fill:#d3a617"/><path d="M25,2l.89,1c.71,2.15-.67,4-.83,6A20,20,0,0,1,20,13.46a4.15,4.15,0,0,1-4,0c-2.5-2.38-.62-4.1.89-5.87l.94-1.51c.58-1,.32-2.22,1.17-3.08Z" transform="translate(49.08 31.11)" style="fill:#e2b216"/><path d="M19,3a4,4,0,0,1-1.17,3.08l-1-3Z" transform="translate(49.08 31.11)" style="fill:#d8a617"/><path d="M-19.86,26.6c.27-1.78-.85-2.73-2.15-3.57l.07,0c-.87-.81-.65-1.61,0-2.39,1.44-1.11,2.47.88,3.81.51l.15-1.35L-16,20l2,5a2.46,2.46,0,0,1-.89,2.44C-16.58,27.38-18.31,27.49-19.86,26.6Z" transform="translate(49.08 31.11)" style="fill:#d09917"/><path d="M-15,27.41l1-2.4,3.06,2.33.13.36-3.12,1.38-.3-.33C-14.79,28.49-15.17,28.11-15,27.41Z" transform="translate(49.08 31.11)" style="fill:#a47c18"/><path d="M-8.93,24c1.37.27,2.91-.27,4.09.86-.33,1-1.43.51-2,1a2.73,2.73,0,0,1-3-1.94Q-9.32,23-8.93,24Z" transform="translate(49.08 31.11)" style="fill:#87691a"/><path d="M-8.93,24l-.93-.07c-.44-1.09-2.47-.84-2.21-2.29.15-.86,1.3-.65,2.1-.56L-9,22Z" transform="translate(49.08 31.11)" style="fill:#57441d"/><path d="M-3.13,26.84-3.82,29c-.88.72-1.72.32-2.56-.11a1.69,1.69,0,0,1-.89-1.71L-6,26.15C-4.77,25.15-4.1,26.62-3.13,26.84Z" transform="translate(49.08 31.11)" style="fill:#bd9118"/><path d="M-7.26,27.2l1,1C-6.19,29.86-7,29.65-8,29a5.81,5.81,0,0,0-.81-.09l-2-1.18-.13-.36Z" transform="translate(49.08 31.11)" style="fill:#6b531c"/><path d="M-3.13,26.84-6,26.15a4.82,4.82,0,0,0-.83-.29l2-1Z" transform="translate(49.08 31.11)" style="fill:#54431d"/><path d="M13.26,19l-.16-8c.37-1-.21-2.16.8-2.94l1.25,0c.92,2-.41,4.56,1.58,6.3a3.54,3.54,0,0,1-.56,2.86C15.45,18.23,14.84,19.4,13.26,19Z" transform="translate(49.08 31.11)" style="fill:#4c3e1d"/><path d="M15.45,15l-.3-6.9,1.73-.46C16.43,9.41,15.6,11.24,17,13,17.6,14.56,17.28,15.36,15.45,15Z" transform="translate(49.08 31.11)" style="fill:#d8a617"/><path d="M13.89,8a3.82,3.82,0,0,1-.8,2.94L10.93,8H12Z" transform="translate(49.08 31.11)" style="fill:#362d1e"/><path d="M.6,19.15l2.5,4.73C0,23.37.57,21.23.14,19.74A1.06,1.06,0,0,0,.6,19.15Z" transform="translate(49.08 31.11)" style="fill:#3e331e"/><path d="M-18.08,21.14c-1,1.57-2,.4-3-.07a2.2,2.2,0,0,1-1.18-1.66l.23-1.48L-20,19Z" transform="translate(49.08 31.11)" style="fill:#4d3d1d"/><path d="M58.07,72.74l1.06-2,2.54.54C60.9,72.81,59.52,72.85,58.07,72.74Z" transform="translate(49.08 31.11)" style="fill:#dba816"/><path d="M52,29.83c-.35-2.33-2.63-2.63-4-3.84-1.63-1.7-.54-3.54-.29-5.34a3.39,3.39,0,0,1,1.66-1.74,4.27,4.27,0,0,1,3.87.3A14.49,14.49,0,0,0,56,20.58c3,.89,3.14,3.73,4.07,6A3.32,3.32,0,0,1,60,28.13a3.74,3.74,0,0,1-1.37,1.77c-1.54.77-3.28.49-4.89.92a2.75,2.75,0,0,1-1.31-.4Z" transform="translate(49.08 31.11)" style="fill:#e6ba17"/><path d="M36.08,25,33,24a3.49,3.49,0,0,1-.84-1.13,3.35,3.35,0,0,1,0-1.42c1.32-2-.18-5.77,3.75-6.26,2.69.35,3.09,2.32,3.19,4.5C40,22.57,39.51,24.6,36.08,25Z" transform="translate(49.08 31.11)" style="fill:#42381e"/><path d="M46,31l2,.16a1.77,1.77,0,0,1,1.53,1.28,2.63,2.63,0,0,1-.34,1.41,4.61,4.61,0,0,1-4.75,1.81A6.43,6.43,0,0,1,43,35a4.55,4.55,0,0,1-2.52-3.72c0-1.7,0-3.36,2.46-2l-.2-.06C44.12,29.3,44.69,30.8,46,31Z" transform="translate(49.08 31.11)" style="fill:#60501d"/><path d="M36.08,25c1.93-1,2.62-2.32,1-4.18a3.65,3.65,0,0,1,2.8-1.2c1.62.68,3.68.63,4.53,2.64a1.91,1.91,0,0,1-.34,1.47c-4-1.31-6.32.62-8,5.25Z" transform="translate(49.08 31.11)" style="fill:#483d1e"/><path d="M44.08,23.69a4.08,4.08,0,0,0,0-.73c.41-1.56-2.05-3.19.09-4.72a5.41,5.41,0,0,1,4-1.07c1.18.5,2.19,1.13,1.72,2.69l-1,1c-1.14,1.52-.93,4.41-4,4Z" transform="translate(49.08 31.11)" style="fill:#3e341e"/><path d="M29.15,37.31l-1.48-1.49c2.7-3.23,6-.87,9-1,.91-.52,1.3,0,1.55.79C37.88,36.81,37,37,35.94,36.86,33.74,38,31.29,35.26,29.15,37.31Z" transform="translate(49.08 31.11)" style="fill:#4d421e"/><path d="M33,23.08q0,.47,0,.94c-1.52,1.11-3.29.94-5,1l-1.1-1.23A2.45,2.45,0,0,1,28.19,21C30.48,20.09,31.81,21.41,33,23.08Z" transform="translate(49.08 31.11)" style="fill:#252020"/><path d="M38,35.84l-1.3-1,3.36-2.22.61.21a25.65,25.65,0,0,1,3,1,1.9,1.9,0,0,0,.48.21C42.39,38.3,41.17,38.64,38,35.84Z" transform="translate(49.08 31.11)" style="fill:#4a3f1e"/><path d="M44.93,24.83l4-4L48,26A3.66,3.66,0,0,1,44.93,24.83Z" transform="translate(49.08 31.11)" style="fill:#e0b016"/><path d="M23.81,29.16l3.07-2.22-1.89,5C22.42,31.92,23.83,30.24,23.81,29.16Z" transform="translate(49.08 31.11)" style="fill:#705e1c"/><path d="M43,29.23c-2.4-.22-1.89,1.46-1.87,2.83.16.91-.23,1.28-1.13,1.14a.64.64,0,0,0,.07-.57C40.67,31.19,38.39,27.27,43,29.23Z" transform="translate(49.08 31.11)" style="fill:#e6ba17"/><path d="M48.94,32,48,31.14l4-1.32L52,30.3a1.42,1.42,0,0,1-.1,2.1A2.35,2.35,0,0,1,48.94,32Z" transform="translate(49.08 31.11)" style="fill:#74601b"/><path d="M46,31c-2.33,1.63-2.31-.9-3.21-1.81A3.46,3.46,0,0,1,46,31Z" transform="translate(49.08 31.11)" style="fill:#e6ba17"/><path d="M23.81,29.16c.16,1,0,2.15,1.17,2.76-2.82.6-1.68-1.62-2-2.8A1.35,1.35,0,0,1,23.81,29.16Z" transform="translate(49.08 31.11)" style="fill:#d4af18"/><path d="M9,24.86a3.48,3.48,0,0,1-.1-4.79c-.43-.93-1-1.9.81-1.87l.39.85c.19,1.34,1.34,2.48.83,4l-.15,2-1.06,0A2,2,0,0,1,9,24.86Z" transform="translate(49.08 31.11)" style="fill:#65511c"/><path d="M9.76,18.2l-.81,1.87C8.47,18.38,6.27,17,8,14.91A4.85,4.85,0,0,1,9.76,18.2Z" transform="translate(49.08 31.11)" style="fill:#896b1a"/><path d="M15.06,25l-.89-2.39L14,21a2.06,2.06,0,0,1,2.23-.45A3.93,3.93,0,0,1,18.07,24,3.12,3.12,0,0,1,16.92,26Z" transform="translate(49.08 31.11)" style="fill:#69561c"/><path d="M15.84,20.94,14,21c-.91-.43-1-1.18-.73-2l1.49-1.91.68.18C16.52,18.38,17.07,19.56,15.84,20.94Z" transform="translate(49.08 31.11)" style="fill:#362d1f"/><path d="M11,23l-.83-4C11.07,20.23,12.18,21.38,11,23Z" transform="translate(49.08 31.11)" style="fill:#dcae17"/><path d="M16.92,26l0-1.73c-.79-2.4-.06-5.18-1.82-7.34l-.34.11.7-2.12L17,13l3.2-1.07a2,2,0,0,1,2.14.68,1.06,1.06,0,0,0,.45.16c0-1.6,1-2.68,1.67-3.91C25.16,7.79,25.37,6.26,27,6c2.39.17,4.92-.56,7.06,1.14A3.53,3.53,0,0,1,36.31,9.8c0,1.9-.78,3.66-1.15,5.49L35,16c-1,1.94,2.72,5.36-1.94,6.15-1.63.52-3.23-2.17-4.87,0l-1.26,1.69L20,27.53Z" transform="translate(49.08 31.11)" style="fill:#e3b617"/><path d="M-8,29l1.67-.79,2.48.84C-5.24,32.45-6.59,29.56-8,29Z" transform="translate(49.08 31.11)" style="fill:#916f19"/><path d="M38,35.84c2.6,1.4,4.06-1.25,6.13-1.73l4.73-1.36c3.46,1.06,5.38,3.11,4.51,7a3.5,3.5,0,0,1-1.18,2c-1.3,1-3.12.45-4.45,1.42a4.61,4.61,0,0,0-1.82,1.73C45,46.4,43.41,47.08,42,48h0c-1.91,1.52-3.91.51-5.89.23a2.74,2.74,0,0,1-1.17-.94,7.56,7.56,0,0,1,1-5l.08-5.4C36.32,35.9,37.25,36,38,35.84Z" transform="translate(49.08 31.11)" style="fill:#edcb18"/><path d="M35.09,46.95a1.52,1.52,0,0,0,.77.13c1.44.94,4,.31,4.23,2.95l0,.08C37.44,50.26,35,50,33,48l1.08-1Q34.52,46.26,35.09,46.95Z" transform="translate(49.08 31.11)" style="fill:#3c341f"/><path d="M35.09,46.95l-1,.08c.2-1.74-.36-3.77,1.8-4.76Z" transform="translate(49.08 31.11)" style="fill:#695b1d"/><path d="M35.39,55.1l-6.47-1.27q-.2-1.93-.4-3.85l1.4,0c-.06,1.91.82,2.95,2.78,3A2.48,2.48,0,0,1,35.39,55.1Z" transform="translate(49.08 31.11)" style="fill:#7e6b1b"/><path d="M68.74-5C65-4.24,61.51-3.87,61-9.14,62.7-6.08,66.13-6.29,68.74-5Z" transform="translate(49.08 31.11)" style="fill:#e0a416"/><path d="M55.88-9A2,2,0,0,0,56-9.87a4.58,4.58,0,0,1,5,0q.1.39.17.78Z" transform="translate(49.08 31.11)" style="fill:#e0a416"/><path d="M61-9.88H56l1.21-1.31,3.76.31Q61-10.38,61-9.88Z" transform="translate(49.08 31.11)" style="fill:#493a1d"/><path d="M80,8c-2.74-.95-5.83-1.59-5-5.67,1,.62.1,2.73,2,2.71C78.3,5.74,80,6,80,8Z" transform="translate(49.08 31.11)" style="fill:#e0a416"/><path d="M-22.22,19.41-21,21.07a2.07,2.07,0,0,0-.9,1.95,3.54,3.54,0,0,1-2-2.19Z" transform="translate(49.08 31.11)" style="fill:#88661a"/><path d="M59.06,27c-1.67-1.43-2-3.92-4.07-5-1.54-1.71-.71-3.49-.15-5.26a20.46,20.46,0,0,1,4-3.92,5.34,5.34,0,0,1,3.92-.12,3.09,3.09,0,0,1,1.23.89c1.34,2.26,1.77,5.07,4.09,6.75a2.71,2.71,0,0,0-.1.59c1.67.81,2.17,2,1.13,3.62-1.94,1.77-5,.18-6.84,2.36C61.21,27.74,60.15,28,59.06,27Z" transform="translate(49.08 31.11)" style="fill:#e5b216"/><path d="M68,24.4c1.81-1.17.41-2.32,0-3.47,1.84-.95,3.79,1.59,5.6-.18a1.67,1.67,0,0,1,1.89.33,4,4,0,0,0-1.31,3.66,1.9,1.9,0,0,1-.71,2.18,5.73,5.73,0,0,1-3.16.78,3.51,3.51,0,0,1-2.59-1.78A1.69,1.69,0,0,1,68,24.4Z" transform="translate(49.08 31.11)" style="fill:#57451d"/><path d="M63.86,1.56c1.64,0,2,1.69,3,2.45,1.11,1.6.69,3.26.23,4.93l-1,1.15A2.67,2.67,0,0,1,64,9.31a12.74,12.74,0,0,1-1.43-7.18A1.5,1.5,0,0,1,63.86,1.56Z" transform="translate(49.08 31.11)" style="fill:#7b5d1b"/><path d="M68.06,20.33c-4.15.51-3.18-3.62-4.85-5.36.83-.84.85-2.85,2.86-2C65.77,15.71,67.93,17.75,68.06,20.33Z" transform="translate(49.08 31.11)" style="fill:#5e4a1c"/><path d="M72.95,26l1.2-1.27L79.56,29,74.9,30A2,2,0,0,1,72.3,28.9,2.71,2.71,0,0,1,72.95,26Z" transform="translate(49.08 31.11)" style="fill:#5f4a1c"/><path d="M66.07,13l-2.86,2-.38-1c-1.3-2.5-1.23-4.45,2.08-5.06l1.18,1.14C66,11.06,67,12,66.07,13Z" transform="translate(49.08 31.11)" style="fill:#52411d"/><path d="M73.79,12.88l1.12,1c-1.52.3-1.34,3.51-3.41,2.37C69.23,15,70.93,12.8,71,11a.76.76,0,0,1,1.11-.18C72.62,11.58,72.89,12.48,73.79,12.88Z" transform="translate(49.08 31.11)" style="fill:#5f4a1c"/><path d="M53.61-3.77c3.08-.6,5.2,1.21,7.36,2.92A3.29,3.29,0,0,1,58.17.43,4.71,4.71,0,0,1,54.51-.88,2.88,2.88,0,0,1,53.61-3.77Z" transform="translate(49.08 31.11)" style="fill:#e0a416"/><path d="M45.92-1.07l2.23-.79c1-.38,1.26.33,1.5,1.05-.5,3.18-1.29,6.12-5.35,6.26a2.31,2.31,0,0,1-1.4-1.71,3,3,0,0,1,.16-1.49A6.88,6.88,0,0,1,45.92-1.07Z" transform="translate(49.08 31.11)" style="fill:#614c1c"/><path d="M57.92-1.06l3,.21,2.9,2.42A3.65,3.65,0,0,1,63.1,2c-2,1.61-3.74,1-5.39-.59A2.26,2.26,0,0,1,57.92-1.06Z" transform="translate(49.08 31.11)" style="fill:#86651a"/><path d="M82,33c-3.32.2-1.51-2.78-2.5-4C83.22,28.49,82.4,30.86,82,33Z" transform="translate(49.08 31.11)" style="fill:#70561b"/><path d="M48.94-1.23l-.79-.62c1.08-1.29,2.59-1,4-1.08,1-.3,1.26.29,1.41,1.08A2.61,2.61,0,0,1,51.9.44,2.4,2.4,0,0,1,48.94-1.23Z" transform="translate(49.08 31.11)" style="fill:#83631a"/><path d="M53-2l-.87-1,1.47-.84L55.19-2c.34,1.32,1.75,2.33,1.17,3.93a2.08,2.08,0,0,1-1.2.74C52,2.25,53.19-.19,53-2Z" transform="translate(49.08 31.11)" style="fill:#71561b"/><path d="M72,11h-.48L71,11,69.85,7.92C69.72,6.45,68.31,4.62,71,4a12.85,12.85,0,0,0,1.28,6.14A.54.54,0,0,1,72,11Z" transform="translate(49.08 31.11)" style="fill:#977119"/><path d="M86,43.33c-1.73.7-2.89,1.15-4.31,0C83.15,42.36,84.31,41.93,86,43.33Z" transform="translate(49.08 31.11)" style="fill:#624d1c"/><path d="M45.92-1.07c-.23,1.43-.44,2.87-2,3.54C42.24.95,42.71-.54,44-2a4.35,4.35,0,0,1,.13-1Z" transform="translate(49.08 31.11)" style="fill:#be8f18"/><path d="M71,4c-1.43,1-1,2.55-1.14,3.94C69.32,6.34,67.69,4.44,71,4Z" transform="translate(49.08 31.11)" style="fill:#e0a416"/><path d="M75.46,21.08l-1.89-.33c1-.51,1.49-2.36,2.91-1.46C77,19.61,76.08,20.6,75.46,21.08Z" transform="translate(49.08 31.11)" style="fill:#6d541b"/><path d="M67.11,8.94,66.88,4A3.75,3.75,0,0,1,67.11,8.94Z" transform="translate(49.08 31.11)" style="fill:#e0a416"/><path d="M72,11a7.22,7.22,0,0,0,.29-.89l1.5,1.79a4.57,4.57,0,0,1,0,1C71.78,13.61,72.34,11.87,72,11Z" transform="translate(49.08 31.11)" style="fill:#e0a416"/><path d="M69.07,47.76c-2.78-.11-5.7.52-8.11-1.53-1.4-1.47-3.19-.4-4.77-.72-1.21.07-2.38.67-3.62.27a2.12,2.12,0,0,1-1-1c-.22-3.41,3.06-3.41,4.8-4.9,2,0,3.38-1.65,5.33-1.69a2.21,2.21,0,0,1,1.16.75C68.87,39.26,68.87,39.26,69.07,47.76Z" transform="translate(49.08 31.11)" style="fill:#e4b316"/><path d="M69.92,38.15,64,38c-.74-.53-2-.13-2.38-1.27A2.06,2.06,0,0,1,62,35.39a3.38,3.38,0,0,1,1.22-.77,29,29,0,0,1,4.34-.06c1.24.11,2.38.39,2.91,1.71A1.63,1.63,0,0,1,69.92,38.15Z" transform="translate(49.08 31.11)" style="fill:#52431d"/><path d="M73.14,29l1.76,1c-.83,1.43-1,3.37-3,3.86a6.7,6.7,0,0,0-2.08.27,3.1,3.1,0,0,1-1.34-.41,1.6,1.6,0,0,1-.16-2.47C69.93,30.52,71.21,29,73.14,29Z" transform="translate(49.08 31.11)" style="fill:#5f4b1c"/><path d="M69.86,33l2,.78c-1.16,1-.81,2-.3,3.37.85,2.22-.25,2.08-1.66,1l-.11-2.39A2,2,0,0,1,69.86,33Z" transform="translate(49.08 31.11)" style="fill:#262120"/><path d="M61.91,37,64,38l-1.18.88a4.33,4.33,0,0,0-.92-.15c-1.47-.15-3.37,1.12-4.14-1.28C58.92,35.45,60.36,35.75,61.91,37Z" transform="translate(49.08 31.11)" style="fill:#3f351e"/><path d="M45.25,44l.85-1.75c.94-2.67,2.4-1.06,3.73-.45,1.73.41,1.89,1.79,2,3.21H52c.23.88.08,1.39-1,1l-3.7-.85C46.12,45.68,45.57,45.06,45.25,44Z" transform="translate(49.08 31.11)" style="fill:#39321f"/><path d="M45.25,44l2,1.12C45.59,46.21,44.75,48.91,42,48Z" transform="translate(49.08 31.11)" style="fill:#3d351f"/><path d="M40.08,50c-.9-1.71-3-1.67-4.23-2.95l6.09.93Z" transform="translate(49.08 31.11)" style="fill:#cbb119"/><path d="M51,46l1-1,3.68.15c.58,0,.76.23.48.76l-1,.85C53.71,46.62,52.17,47.29,51,46Z" transform="translate(49.08 31.11)" style="fill:#6d5c1c"/><path d="M56.13,45.92l-.48-.76c1.86-.11,3.77-.5,5.3,1.06Z" transform="translate(49.08 31.11)" style="fill:#d1aa18"/><path d="M60,59.07l-1.88-.19L59,57l3-1.08Z" transform="translate(49.08 31.11)" style="fill:#bf9a18"/><path d="M-15,27.41l.74,1.35L-18.87,28-20,28l.15-1.4C-18,25.46-16.52,26.66-15,27.41Z" transform="translate(49.08 31.11)" style="fill:#6a521b"/><path d="M39.84,20.74l-2.74,0C36.47,19.14,38.17,16.46,35,16l0,.1a16.73,16.73,0,0,1,.47-6,5.59,5.59,0,0,1,1.45-4.9L37,4a8.12,8.12,0,0,1,.55-1.43A3.35,3.35,0,0,1,42.14.91a2.8,2.8,0,0,1,1.29,1.77,16.68,16.68,0,0,0,0,5c-.25,2,.63,3.57,1.62,5.15a3.75,3.75,0,0,1,.09,1.48C43.9,16.86,43.93,20.51,39.84,20.74Z" transform="translate(49.08 31.11)" style="fill:#dbad17"/><path d="M27,6a4.71,4.71,0,0,1-2,3c-.64-.05-.81-.61-1.11-1-1-2.32,1.92-3.09,2-5l.24-1,1.79,1.94Z" transform="translate(49.08 31.11)" style="fill:#68521c"/><path d="M37.86,4A7.52,7.52,0,0,0,37,4a4.3,4.3,0,0,1-.8-5.18l1.64-.08C39.68.5,38.79,2.24,37.86,4Z" transform="translate(49.08 31.11)" style="fill:#b98b18"/><path d="M36.92,5.2,35.84,10c-.23.49-.47.51-.7,0-.45-.92-1.37-1.66-1.08-2.85C35.23,6.82,35.36,5,36.92,5.2Z" transform="translate(49.08 31.11)" style="fill:#54441d"/><path d="M37.86,4l0-5.2C38.05-3.3,39.47-3.16,41-2.91l1,1.12A2.6,2.6,0,0,1,42.16,2C40.39,1.91,39.12,2.93,37.86,4Z" transform="translate(49.08 31.11)" style="fill:#dda816"/><path d="M42.16,2l-.22-3.74L44-2q0,2.25-.08,4.5l.11.57c-.23.53-.52.6-.89.12Z" transform="translate(49.08 31.11)" style="fill:#b98b18"/><path d="M23.92,8,25,9c-2,2.42,2,5.65-1.09,7.91-2.32.28-1.08-2.72-2.77-3-.2-.73-.09-1.61-1-2C20.59,9.84,23.25,9.86,23.92,8Z" transform="translate(49.08 31.11)" style="fill:#4a3c1e"/><path d="M49.93,19.85l-2-1.63c.62-3.58,3.2-3.67,6-3.35a2.49,2.49,0,0,1,1.54,1.88c-.05,1.89-.14,3.77-2.48,4.37Z" transform="translate(49.08 31.11)" style="fill:#64501c"/><path d="M52.06,31.77,52,30.3,53,29.76a2,2,0,0,1,1.48,0c1.6.21,3.22.41,3.33,2.56C55.58,35.51,54.53,35.4,52.06,31.77Z" transform="translate(49.08 31.11)" style="fill:#56471d"/><path d="M57.08,32.16,54,30.07c1.15-1.1,2.75-.49,4-1.05l.9-1.11a1.91,1.91,0,0,1,1.58,1.41C60.37,31.46,59.41,32.64,57.08,32.16Z" transform="translate(49.08 31.11)" style="fill:#65521c"/><path d="M60.18,29.07,58.94,27.9a4,4,0,0,1,.11-.88,2.14,2.14,0,0,0,2.11-2,1.81,1.81,0,0,1,2.38.91,2.9,2.9,0,0,1,.1,1.42C63,28.85,61.92,29.68,60.18,29.07Z" transform="translate(49.08 31.11)" style="fill:#5c4a1c"/><path d="M53,21.13a4.34,4.34,0,0,0,2.06-3.86q.44-.75.94,0L55,22Z" transform="translate(49.08 31.11)" style="fill:#daa616"/><path d="M58,29c-1.05,1.48-2.68.78-4,1.05a8.86,8.86,0,0,0-1-.31A5.31,5.31,0,0,1,58,29Z" transform="translate(49.08 31.11)" style="fill:#e0b016"/><path d="M28.15,22.07c1.67-5.29,3.25.12,4.87,0q0,.48,0,1Z" transform="translate(49.08 31.11)" style="fill:#5d4d1d"/><path d="M60.18,29.07l2.7-2.13a3.86,3.86,0,0,1,5-.46C70,28,70.8,29.67,69,31.89c-.78.45-.52.93,0,1.4.94,1.19.3,1.78-.82,2.19-1.7.25-3.5-.49-5.13.49l-.35.15h-.38c-1.22,1.39-4.86-1.5-4.56,2.58a2.5,2.5,0,0,1-.8,1.27c-1.62,1.11-3.24,2-4.91.08,0-2.91-2.19-4.83-3.15-7.3a3,3,0,0,1,.07-.76l3.11-.22c1.73-.56,3.17,2.61,5,.39Z" transform="translate(49.08 31.11)" style="fill:#e6ba17"/><path d="M40,33.21l1.13-1.14,2.55,1.83A5.23,5.23,0,0,1,40,33.21Z" transform="translate(49.08 31.11)" style="fill:#2e281f"/><path d="M39.84,20.74c2.64-1.7,2.58-5,4.21-7.27a4.14,4.14,0,0,1,1.72,4.35A2,2,0,0,1,44.66,19c-1.2,1.18,2.32,3-.54,4Z" transform="translate(49.08 31.11)" style="fill:#3a311e"/><path d="M44.66,19q.08-.33.19-.66c-.89-2.25.49-5-1.67-7a5.69,5.69,0,0,1-.45-1.59c.34-1.59-.14-3.4,1.29-4.69,2.78-1.21,2.27-5,4.91-6.3L52,0l.56.47C53.26,2,53.63,3.58,52.4,5c.05-.07,0,0,0,0a10.45,10.45,0,0,1,3.5-3l.4.13c.31-.69.84-.74,1.46-.49,1.85-1.24,3.51.46,5.29.34.74,2.29,2.47,4.32,1.81,7L62.83,14H59.17c-1.29-.72-.91-1.76-.54-2.7,0,.09-.12,0-.15.08-.59,2.61-2,4.25-4.74,4.53-1.59,1.63-4.26.54-5.79,2.31C46.73,17.95,46.23,20.76,44.66,19Z" transform="translate(49.08 31.11)" style="fill:#e3ad16"/><path d="M15.08,17c3.1,1.83,1.53,4.81,1.82,7.34l-1.06-3.37A6.28,6.28,0,0,1,15.08,17Z" transform="translate(49.08 31.11)" style="fill:#e2b216"/><path d="M21.18,13.94c1.64.34,1.72,2.13,2.77,3-.15,1.22-.88,2-2.24,3.24C21.36,17.74,22.69,15.61,21.18,13.94Z" transform="translate(49.08 31.11)" style="fill:#725c1b"/><path d="M35.14,10h.7A9.47,9.47,0,0,1,35,16.06C33.79,14,34.16,12,35.14,10Z" transform="translate(49.08 31.11)" style="fill:#56461d"/><path d="M52,40.05c1.69-.2,3.44-.14,4.95-1.13A1.63,1.63,0,0,1,57,41.14c-1.41,1.74-4.38,1.39-5.2,3.9-.89-.88-1.67-1.91-3-2.16-.18-1.82,1.48-1.27,2.31-1.8Z" transform="translate(49.08 31.11)" style="fill:#4f421e"/><path d="M51.13,41.08l-2.31,1.8c-.77-.84-1.47-2-2.72-.6C47.05,38.82,49.21,40.44,51.13,41.08Z" transform="translate(49.08 31.11)" style="fill:#e3bb17"/><path d="M59.94,8c.7,2.12-1.56,3.87-.76,6L56,17.23l-.47-.05-.47.09-1.34-1.36a23.61,23.61,0,0,0,5.37-7.84Q59.48,7.49,59.94,8Z" transform="translate(49.08 31.11)" style="fill:#44371e"/><path d="M63.26,26.16,61.16,25c-.19-2.17,1.12-2.24,2.48-1.51a10.77,10.77,0,0,0,4.34.9l0,.44A3.92,3.92,0,0,1,63.26,26.16Z" transform="translate(49.08 31.11)" style="fill:#4c3e1d"/><path d="M69,31.89l-1-4.79c.39-.94,1.48-.39,2-1l3-.12.19,3C72.84,31.52,71.38,32.38,69,31.89Z" transform="translate(49.08 31.11)" style="fill:#deac16"/><path d="M70,26.14l-2,1-5.05-.16a8.42,8.42,0,0,1,.38-.79L68,24.84C68.24,25.92,69.23,25.85,70,26.14Z" transform="translate(49.08 31.11)" style="fill:#d6a317"/><path d="M57.81,1.64l-1.46.49A4.72,4.72,0,0,1,55.19-2l2.73,1Z" transform="translate(49.08 31.11)" style="fill:#bd8c18"/><path d="M44,5.07l-.28,4.87c-1.59.25-1.65-.91-1.81-2,.16-1.66.06-3.38,1.2-4.79A2.68,2.68,0,0,1,44,3.05Q44,4.06,44,5.07Z" transform="translate(49.08 31.11)" style="fill:#644e1c"/><path d="M55.94,2C55.1,3.43,54.84,5.3,53,6a2.16,2.16,0,0,1-.75-1.15c0-1.57.91-3.21-.33-4.69L52,0a1.84,1.84,0,0,1,1-2C54.44-1,53.67,1.63,55.94,2Z" transform="translate(49.08 31.11)" style="fill:#2e271f"/><path d="M57,41.14,57,38.92a1.33,1.33,0,0,0,.15-.67l.2-.88L58,38l4,.77C60.58,40.16,59.19,41.42,57,41.14Z" transform="translate(49.08 31.11)" style="fill:#332c1f"/><path d="M58,38l-.86.26c.13-4.57,3.28-1.83,5.17-2.13a8.92,8.92,0,0,1-.37.84C60.67,37.59,59,36.67,58,38Z" transform="translate(49.08 31.11)" style="fill:#dbad17"/><path d="M68,35l1-1.71a3.66,3.66,0,0,0,.9-.27l0,2.73L68,36Q67,35.51,68,35Z" transform="translate(49.08 31.11)" style="fill:#deac16"/><path d="M68,35v1L63,36C64.5,34.8,66.26,35,68,35Z" transform="translate(49.08 31.11)" style="fill:#dbad17"/><path d="M41.94,8l1.81,2L44.17,11a2.64,2.64,0,0,1-.1,2.57C42.27,12.13,39.76,10.94,41.94,8Z" transform="translate(49.08 31.11)" style="fill:#5a481d"/><path d="M44.07,13.6l.1-2.57c1.42,2.33.82,4.84.68,7.31L44,13.47Z" transform="translate(49.08 31.11)" style="fill:#d19e17"/><path d="M52.86,4.79,53,6c-.3,2.93-2.84,3.59-5.51,5.69C48.1,8.37,49.15,6.48,51,5A1.39,1.39,0,0,1,52.86,4.79Z" transform="translate(49.08 31.11)" style="fill:#51401d"/><path d="M59.94,8l-.83.06c0-.16,0-.32,0-.48.09-1.25-.05-2.64,1.55-3.12.23-.07.76.15.8.33C61.89,6.28,60.82,7.11,59.94,8Z" transform="translate(49.08 31.11)" style="fill:#83641a"/><path d="M52.86,4.79,51,5A9.43,9.43,0,0,0,51.92.17C53.8,1.39,52.63,3.23,52.86,4.79Z" transform="translate(49.08 31.11)" style="fill:#d19e17"/></svg>