<?xml version="1.0" encoding="utf-8"?>
<!-- Generator: Adobe Illustrator 21.0.0, SVG Export Plug-In . SVG Version: 6.00 Build 0)  -->
<svg version="1.1" id="Layer_1" xmlns="http://www.w3.org/2000/svg" xmlns:xlink="http://www.w3.org/1999/xlink" x="0px" y="0px"
	 viewBox="0 0 351.5 238.1" style="enable-background:new 0 0 351.5 238.1;" xml:space="preserve">
<style type="text/css">
	.st0{fill:none;stroke:#FF0000;stroke-width:0.5;}
	.st1{fill:none;}
	.st2{font-family:'MyriadPro-Regular';}
	.st3{font-size:10px;}
	.st4{font-size:8px;}
	.st5{font-size:6px;}
	.st6{fill:#FFFFFF;}
</style>
<title>OpenSCAD Model</title>
<path class="st0" d="M5.7,238.1h340.2l0.6,0l0.6-0.1l0.6-0.2l0.6-0.2l0.5-0.3l0.5-0.3l0.5-0.4l0.4-0.4l0.4-0.5l0.3-0.5l0.3-0.5
	l0.2-0.6l0.2-0.6l0.1-0.6l0-0.6V5.7l0-0.6l-0.1-0.6l-0.2-0.6L351,3.4l-0.3-0.5l-0.3-0.5L350,1.9l-0.4-0.4l-0.5-0.4l-0.5-0.3
	l-0.5-0.3l-0.6-0.2L347,0.1L346.4,0l-0.6,0L5.7,0L5.1,0L4.5,0.1L3.9,0.3L3.4,0.5L2.8,0.8L2.3,1.1L1.9,1.5L1.5,1.9L1.1,2.3L0.8,2.8
	L0.5,3.4L0.3,3.9L0.1,4.5L0,5.1l0,0.6l0,226.8l0,0.6l0.1,0.6l0.2,0.6l0.2,0.6l0.3,0.5l0.3,0.5l0.4,0.5l0.4,0.4l0.5,0.4l0.5,0.3
	l0.5,0.3l0.6,0.2l0.6,0.2l0.6,0.1L5.7,238.1z M289.1,24.1l-0.4,0l-0.4-0.1l-0.4-0.1l-0.4-0.2l-0.4-0.2l-0.4-0.2l-0.3-0.3l-0.3-0.3
	l-0.3-0.3l-0.2-0.4l-0.2-0.4l-0.2-0.4l-0.1-0.4l-0.1-0.4l0-0.4l0-0.4L285,19l0.1-0.4l0.2-0.4l0.2-0.4l0.2-0.4L286,17l0.3-0.3
	l0.3-0.3l0.4-0.2l0.4-0.2l0.4-0.2l0.4-0.1l0.4-0.1l0.4,0l0.4,0l0.4,0.1l0.4,0.1l0.4,0.2l0.4,0.2l0.4,0.2l0.3,0.3l0.3,0.3l0.3,0.3
	l0.2,0.4l0.2,0.4l0.2,0.4l0.1,0.4l0.1,0.4l0,0.4l0,0.4l-0.1,0.4l-0.1,0.4l-0.2,0.4l-0.2,0.4l-0.2,0.4l-0.3,0.3L292,23l-0.3,0.3
	l-0.4,0.2l-0.4,0.2l-0.4,0.2L290,24l-0.4,0.1L289.1,24.1z M51,24.1l-0.4,0L50.1,24l-0.4-0.1l-0.4-0.2l-0.4-0.2l-0.4-0.2L48.2,23
	l-0.3-0.3l-0.3-0.3L47.3,22l-0.2-0.4L47,21.2l-0.1-0.4l-0.1-0.4l0-0.4l0-0.4l0.1-0.4l0.1-0.4l0.2-0.4l0.2-0.4l0.2-0.4l0.3-0.3
	l0.3-0.3l0.3-0.3l0.4-0.2l0.4-0.2l0.4-0.2l0.4-0.1l0.4-0.1l0.4,0l0.4,0l0.4,0.1l0.4,0.1l0.4,0.2l0.4,0.2l0.4,0.2l0.3,0.3l0.3,0.3
	l0.3,0.3l0.2,0.4l0.2,0.4l0.2,0.4l0.1,0.4l0.1,0.4l0,0.4l0,0.4l-0.1,0.4l-0.1,0.4l-0.2,0.4L54.7,22l-0.2,0.4l-0.3,0.3L53.9,23
	l-0.3,0.3l-0.4,0.2l-0.4,0.2l-0.4,0.2L51.9,24l-0.4,0.1L51,24.1z M289.1,180l-0.4,0l-0.4-0.1l-0.4-0.1l-0.4-0.2l-0.4-0.2l-0.4-0.2
	l-0.3-0.3l-0.3-0.3l-0.3-0.3l-0.2-0.4l-0.2-0.4l-0.2-0.4l-0.1-0.4l-0.1-0.4l0-0.4l0-0.4l0.1-0.4l0.1-0.4l0.2-0.4l0.2-0.4l0.2-0.4
	l0.3-0.3l0.3-0.3l0.3-0.3l0.4-0.2l0.4-0.2l0.4-0.2l0.4-0.1l0.4-0.1l0.4,0l0.4,0l0.4,0.1l0.4,0.1l0.4,0.2l0.4,0.2l0.4,0.2l0.3,0.3
	l0.3,0.3l0.3,0.3l0.2,0.4l0.2,0.4l0.2,0.4l0.1,0.4l0.1,0.4l0,0.4l0,0.4l-0.1,0.4l-0.1,0.4l-0.2,0.4l-0.2,0.4l-0.2,0.4l-0.3,0.3
	l-0.3,0.3l-0.3,0.3l-0.4,0.2l-0.4,0.2l-0.4,0.2l-0.4,0.1l-0.4,0.1L289.1,180z M51,180l-0.4,0l-0.4-0.1l-0.4-0.1l-0.4-0.2l-0.4-0.2
	l-0.4-0.2l-0.3-0.3l-0.3-0.3l-0.3-0.3l-0.2-0.4l-0.2-0.4l-0.2-0.4l-0.1-0.4l-0.1-0.4l0-0.4l0-0.4l0.1-0.4l0.1-0.4l0.2-0.4l0.2-0.4
	l0.2-0.4l0.3-0.3l0.3-0.3l0.3-0.3l0.4-0.2l0.4-0.2l0.4-0.2l0.4-0.1l0.4-0.1l0.4,0l0.4,0l0.4,0.1l0.4,0.1l0.4,0.2l0.4,0.2l0.4,0.2
	l0.3,0.3l0.3,0.3l0.3,0.3l0.2,0.4l0.2,0.4l0.2,0.4l0.1,0.4l0.1,0.4l0,0.4l0,0.4l-0.1,0.4l-0.1,0.4l-0.2,0.4l-0.2,0.4l-0.2,0.4
	l-0.3,0.3l-0.3,0.3l-0.3,0.3l-0.4,0.2l-0.4,0.2l-0.4,0.2l-0.4,0.1l-0.4,0.1L51,180z"/>
<rect x="59.3" y="25.9" class="st1" width="225.9" height="99.7"/>
<text transform="matrix(1 0 0 1 59.2838 32.9885)"><tspan x="0" y="0" class="st2 st3">Spikeling 2.0</tspan><tspan x="0" y="21.6" class="st2 st4">An Open Source Hardware implementation of a spiking neuron for </tspan><tspan x="0" y="31.2" class="st2 st4">neuroscience teaching and outreach</tspan><tspan x="120.6" y="57.6" class="st2 st5">T. Baden, M.J.Y Zimmermann, A.M. Chagas</tspan></text>
<rect x="111.7" y="143.7" class="st1" width="174.7" height="26.3"/>
<text transform="matrix(1 0 0 1 122.5237 147.9834)"><tspan x="0" y="0" class="st2 st5">This project is licensed under the GNU General Public License v3.0</tspan><tspan x="38.1" y="7.2" class="st2 st5">The hardware is licensed under the CERN OHL v1.2</tspan></text>
<g>
	<path d="M161.6,226.6c0-1.2,0-2.4,0-3.6c0.1-0.1,0.2-0.2,0.4-0.2c1-0.2,2-0.4,3-0.6c0.3-0.1,0.5-0.2,0.6-0.5
		c0.3-0.6,0.5-1.3,0.8-1.9c0.2-0.4,0.1-0.7-0.1-1c-0.6-0.8-1.1-1.6-1.7-2.4c-0.2-0.2-0.2-0.4,0-0.6c0.7-0.7,1.5-1.4,2.2-2.2
		c0.2-0.2,0.4-0.2,0.6-0.1c0.8,0.6,1.7,1.1,2.5,1.7c0.3,0.2,0.5,0.3,0.8,0.1c0.7-0.3,1.3-0.6,2-0.8c0.2-0.1,0.4-0.3,0.4-0.5
		c0.2-1.1,0.4-2.1,0.6-3.2c0-0.2,0.1-0.3,0.4-0.3c1.1,0,2.1,0,3.2,0c0.2,0,0.3,0.1,0.4,0.3c0.2,1,0.4,2,0.5,2.9
		c0.1,0.4,0.3,0.7,0.7,0.9c0.6,0.2,1.2,0.5,1.8,0.7c0.3,0.1,0.5,0.1,0.8-0.1c0.8-0.6,1.7-1.2,2.5-1.7c0.3-0.2,0.4-0.2,0.7,0.1
		c0.7,0.7,1.4,1.4,2.1,2.1c0.3,0.3,0.3,0.4,0.1,0.7c-0.6,0.8-1.1,1.6-1.7,2.4c-0.1,0.2-0.2,0.4-0.1,0.7c0.3,0.7,0.6,1.5,1,2.2
		c0.1,0.2,0.3,0.3,0.5,0.4c1,0.2,2,0.4,3,0.5c0.3,0,0.4,0.2,0.4,0.4c0,1,0,2,0,3c0,0.4-0.1,0.4-0.5,0.5c-0.9,0.2-1.9,0.3-2.8,0.5
		c-0.3,0.1-0.5,0.2-0.6,0.5c-0.3,0.7-0.5,1.4-0.8,2.1c-0.1,0.3-0.1,0.6,0.1,0.8c0.6,0.8,1.1,1.6,1.6,2.4c0.2,0.2,0.1,0.4-0.1,0.6
		c-0.7,0.7-1.4,1.4-2.1,2.1c-0.3,0.3-0.4,0.3-0.8,0.1c-0.7-0.5-1.5-1-2.2-1.5c-0.3-0.2-0.5-0.3-0.8,0c-0.2,0.1-0.4,0.2-0.6,0.3
		c-0.4,0.2-0.4,0.2-0.6-0.2c-0.7-1.7-1.4-3.5-2.1-5.2c-0.3-0.8-0.3-0.6,0.3-1.1c1.3-0.9,2-2.2,1.8-3.9c-0.3-2.1-2.2-3.9-4.7-3.4
		c-2.2,0.4-3.6,2.6-3.1,4.8c0.3,1.2,1,2,2,2.7c0.3,0.2,0.3,0.3,0.2,0.6c-0.2,0.5-0.5,1.1-0.7,1.6c-0.5,1.3-1.1,2.6-1.6,4
		c-0.1,0.2-0.2,0.3-0.5,0.2c-0.2-0.2-0.5-0.3-0.8-0.4c-0.3-0.2-0.5-0.1-0.8,0c-0.8,0.5-1.5,1-2.3,1.6c-0.2,0.2-0.4,0.2-0.6-0.1
		c-0.7-0.7-1.4-1.4-2.1-2.1c-0.2-0.2-0.2-0.4-0.1-0.6c0.6-0.8,1.1-1.6,1.6-2.4c0.2-0.2,0.2-0.4,0.1-0.7c-0.3-0.7-0.6-1.4-0.9-2.2
		c-0.1-0.3-0.4-0.5-0.7-0.6c-0.9-0.2-1.9-0.3-2.8-0.5C161.8,226.8,161.7,226.7,161.6,226.6z"/>
</g>
<g>
	<path d="M237.5,230.2c0-1.9,0.1-3.8,0.1-5.6c0-0.5,0-1,0.1-1.5c0.2-1.6,1.2-2.6,2.7-2.9c1.8-0.3,3.4,0.3,4.1,1.7
		c0.8,1.5,0.5,3.6-0.5,4.6c-1.1,1-2.5,1.1-4,0.4c-0.1,0-0.2,0-0.4,0c0,1.1,0,2.2,0,3.2c-0.5,0.1-1.1-0.2-1.5,0.2
		C237.8,230.2,237.7,230.2,237.5,230.2z M243,223.7c0-1.1-0.7-2-1.6-2c-1,0-1.8,0.8-1.8,2c0,1,0.8,2,1.7,2
		C242.2,225.7,243,224.9,243,223.7z"/>
	<path d="M261.2,230.2c-1.2-0.7-2.1-1.5-2-3c0-0.6,0.1-1.1,0.8-1.2c0.7-0.1,0.9,0.3,1,1c0.1,0.7,0.3,1.4,1.1,1.6
		c0.6,0.2,1.1-0.2,1.5-0.6c0.3-0.3,0.3-0.7,0.3-1.1c0-0.6,0.3-1,0.9-0.9c0.6,0,0.8,0.4,0.9,1c0.1,1.4-0.6,2.4-2.3,3.2
		C262.7,230.2,261.9,230.2,261.2,230.2z"/>
	<path d="M238,230.2c0.5-0.4,1-0.1,1.5-0.2c0,0.1,0,0.2,0,0.2C239,230.2,238.5,230.2,238,230.2z"/>
	<path d="M292.6,223.7c0-2.1,1.6-3.7,3.7-3.7c2.1,0,3.7,1.6,3.7,3.8c0,2.1-1.7,3.7-3.8,3.7C294.2,227.4,292.6,225.8,292.6,223.7z
		 M298.2,223.8c0-1.2-0.7-1.9-1.8-2c-1.1,0-1.8,0.7-1.8,1.9c0,1.2,0.7,2,1.8,2C297.4,225.7,298.2,224.9,298.2,223.8z"/>
	<path d="M228.9,223.5c0-2,1.6-3.6,3.7-3.6c2.1,0,3.7,1.7,3.7,3.8c0,2.1-1.7,3.7-3.8,3.7C230.4,227.3,228.9,225.7,228.9,223.5z
		 M234.5,223.7c0-1.1-0.9-2-1.8-2c-1.1,0-1.8,0.8-1.8,2c0,1.2,0.7,2,1.8,2C233.7,225.7,234.5,224.8,234.5,223.7z"/>
	<path d="M340.9,224.3c0.7,1.4,1.8,1.2,2.7,1.1c1.1-0.1,1.1,0.5,1,1.3c0,0.3-0.2,0.4-0.5,0.4c-1.1,0-2.3,0.1-3.3-0.4
		c-1.9-0.9-2.6-3.1-1.7-5c0.8-1.7,3.1-2.3,4.8-1.4c1,0.5,1.8,2.4,1.6,3.5c-0.1,0.6-0.5,0.4-0.9,0.4
		C343.5,224.3,342.3,224.3,340.9,224.3z M342.2,223.2c0.4-0.3,1.2,0.3,1.3-0.5c0.1-0.7-0.6-1-1.3-1c-0.6,0-1.3,0.3-1.2,1
		C340.9,223.4,341.7,222.9,342.2,223.2z"/>
	<path d="M275.9,227.2c-3,0-4.5-1.6-4.2-4.3c0.3-1.9,1.8-3,4.1-2.8c1.6,0.2,2.8,1.8,2.7,3.5c0,0.6-0.3,0.7-0.8,0.7c-1,0-2,0-3,0
		c-0.2,0-0.5-0.1-0.6,0.2c-0.1,0.3,0.2,0.4,0.4,0.6c0.6,0.4,1.3,0.3,1.9,0.3c0.6,0,1.2-0.2,1.3,0.9c0,1.1-0.6,0.9-1.2,0.9
		C276.2,227.2,276.1,227.2,275.9,227.2z M275.2,223.1c0.4-0.2,1.2,0.3,1.2-0.4c0-0.7-0.6-1.1-1.3-1.1c-0.6,0-1.3,0.4-1.2,1
		C273.9,223.5,274.7,222.9,275.2,223.1z"/>
	<path d="M319.3,224.3c0.7,1.3,1.7,1.1,2.6,1.1c0.6,0,1.2-0.1,1.2,0.9c0,1-0.6,0.8-1.1,0.8c-0.8,0-1.6,0-2.4-0.2
		c-1.9-0.7-2.9-2.7-2.2-4.7c0.6-1.9,2.7-2.8,4.6-2.1c1.2,0.5,2.2,2.2,2,3.5c-0.1,0.6-0.5,0.6-0.9,0.6
		C321.9,224.3,320.7,224.3,319.3,224.3z M320.7,223.2c0.4-0.3,1.3,0.4,1.3-0.5c0-0.6-0.6-1-1.3-1c-0.6,0-1.3,0.3-1.3,0.9
		C319.4,223.5,320.2,222.9,320.7,223.2z"/>
	<path d="M250.1,227.2c-3.3,0-5.2-2.5-3.9-5.2c0.7-1.6,2.4-2.3,4.3-1.8c1.3,0.4,2.3,1.9,2.2,3.5c0,0.6-0.3,0.7-0.8,0.7c-1,0-2,0-3,0
		c-0.2,0-0.6-0.1-0.7,0.2c-0.1,0.4,0.2,0.5,0.5,0.6c0.6,0.4,1.2,0.3,1.8,0.3c0.6,0,1.2-0.2,1.3,0.9c0,1.1-0.6,0.9-1.2,0.9
		C250.3,227.2,250.2,227.2,250.1,227.2z M249.2,223.1c0.4-0.2,1.2,0.4,1.3-0.4c0.1-0.6-0.4-1.1-1.1-1c-0.7,0-1.4,0.3-1.4,1.1
		C248,223.4,248.8,222.9,249.2,223.1z"/>
	<path d="M303.6,227.4c-0.4,0-0.8,0-1.1,0c-0.6,0-1.1,0-1.1-0.9c0-0.9,0.3-1.1,1.1-1c0.7,0,1.4,0,2.1,0c0.3,0,0.6-0.1,0.6-0.5
		c0-0.3-0.3-0.4-0.5-0.4c-0.6,0-1.3,0-1.9-0.1c-1.2-0.2-1.7-0.9-1.7-2.1c0-1.1,0.8-1.9,1.9-2c0.9-0.1,1.8,0,2.8,0
		c0.6,0,0.8,0.1,0.9,0.8c0,0.7-0.2,0.9-0.9,0.9c-0.7,0-1.3,0-2,0c-0.3,0-0.6,0.2-0.6,0.5c0,0.3,0.3,0.4,0.6,0.4c0.5,0,1,0,1.5,0
		c1.3,0.1,2,0.8,2,2c0.1,1.3-0.7,2.3-1.9,2.4C304.8,227.4,304.2,227.3,303.6,227.4C303.6,227.3,303.6,227.3,303.6,227.4z"/>
	<path d="M279.8,222.9c0-0.5,0-1.1,0-1.6c-0.1-0.8,0.2-1,1-1c0.8,0,0.9,0.3,0.9,1c0,0.9,0,1.8,0,2.8c0,1,0.5,1.7,1.5,1.7
		c1.1,0,1.4-0.8,1.5-1.7c0-1,0.1-1.9,0-2.9c-0.1-0.8,0.4-0.9,1-0.9c0.6,0,1.1,0,1,0.9c-0.1,1,0,1.9,0,2.9c-0.1,2.2-1.4,3.5-3.5,3.4
		c-2.1,0-3.3-1.3-3.3-3.5C279.7,223.5,279.7,223.2,279.8,222.9z"/>
	<path d="M332.1,224.8c0,0.4,0,0.8,0,1.3c0,0.7,0,1.2-0.9,1.2c-0.9,0-1-0.4-1-1.1c0-0.9,0-1.8,0-2.6c0-1-0.5-1.6-1.5-1.7
		c-1-0.1-1.4,0.7-1.5,1.5c-0.1,1-0.1,2,0,3c0,0.8-0.3,0.9-1,0.9c-0.7,0-1-0.2-0.9-0.9c0.1-1.1,0-2.2,0-3.3c0-1.7,1.1-2.8,2.8-2.9
		c2.1-0.2,3.5,0.7,3.8,2.4C332.1,223.3,332.1,224.1,332.1,224.8C332.1,224.8,332.1,224.8,332.1,224.8z"/>
	<path d="M270.4,224.3c0,0.5,0,1.1,0,1.6c-0.1,0.6-0.4,0.9-1,0.9c-0.5,0-0.9-0.4-0.9-0.9c-0.1-0.9,0-1.8,0-2.6
		c0-0.9-0.3-1.6-1.3-1.7c-1-0.1-1.5,0.5-1.5,1.6c0,0.6-0.3,1.1-1,1c-0.8-0.1-0.9-0.6-0.9-1.3c0.1-1.8,1.4-2.9,3.2-3
		c1.9,0,3.2,1.1,3.4,2.9C270.5,223.3,270.4,223.8,270.4,224.3C270.4,224.3,270.4,224.3,270.4,224.3z"/>
	<path d="M254.4,224.2c0-0.5,0-1,0-1.5c0.2-1.8,1.7-2.9,3.6-2.8c1.8,0.1,3,1.3,3,3.1c0,0.6-0.1,1.1-0.8,1.2c-0.7,0.1-1-0.3-1-1
		c-0.1-0.9-0.5-1.8-1.6-1.6c-1.1,0.2-1.3,1-1.3,1.9c0,0.8,0,1.5,0,2.3c0,0.6-0.2,1-0.8,1c-0.6,0-0.9-0.4-0.9-1
		C254.4,225.3,254.4,224.8,254.4,224.2z"/>
	<path d="M308.2,223.5c0.1-2,2-3.6,4-3.4c0.6,0.1,0.6,0.5,0.6,0.9c0,0.4,0,0.9-0.6,0.8c-0.8,0-1.6,0.2-1.9,1.1
		c-0.5,1.3,0.2,2.4,1.7,2.5c0.8,0,0.9,0.3,0.9,1c0,0.7-0.3,0.8-0.9,0.8C309.7,227.2,308.2,225.7,308.2,223.5z"/>
	<path d="M337,227.2c-2.2,0-3.7-1.5-3.6-3.6c0-2,1.7-3.4,3.8-3.4c0.6,0,0.9,0.1,0.8,0.8c0,0.5,0,0.9-0.7,1c-1.3,0.1-2.1,0.8-2,1.8
		c0.1,1.2,0.8,1.8,2,1.7c0.8-0.1,0.7,0.5,0.7,1C337.9,227.2,337.9,227.2,337,227.2z"/>
	<path d="M290.7,220.2c0.5,0.1,1.4-0.4,1.4,0.8c0,0.6-0.1,1-0.8,0.9c-1.1-0.2-1.4,0.4-1.3,1.4c0,0.9,0,1.8,0,2.8
		c0,0.7,0,1.2-0.9,1.2c-1.1,0-0.9-0.6-0.9-1.2c0-1.1,0-2.2,0-3.3C288.1,220.7,288.6,220.2,290.7,220.2z"/>
	<path d="M316,223.8c0,0.8,0,1.6,0,2.4c0.1,0.8-0.2,1.1-1,1.1c-0.9,0-1-0.4-1-1.1c0-1.7,0-3.3,0-5c0-0.7,0.3-0.9,0.9-0.9
		c0.7,0,1.1,0,1.1,0.9C316,222,316,222.9,316,223.8z"/>
	<path d="M316.3,218.2c-0.1,0.8-0.5,1.2-1.3,1.2c-0.8,0-1.2-0.5-1.2-1.2c0-0.7,0.4-1.1,1.2-1.1C315.9,217.1,316.1,217.7,316.3,218.2
		z"/>
</g>
<g>
	<path class="st6" d="M29.7,235.3c0-6.9,0-13.7,0-20.6c28.6,0,57.2,0,85.8,0c0,6.9,0,13.7,0,20.6C86.9,235.3,58.3,235.3,29.7,235.3z
		 M62.6,219.4c-0.1,0-0.2,0.1-0.3,0.1c-0.4,0.2-0.7,0.4-1.1,0.6c-0.3,0.2-0.6,0.3-0.9,0.5c-0.3,0.1-0.6,0.3-0.8,0.4
		c-0.3,0.2-0.6,0.3-0.9,0.5c-0.3,0.1-0.6,0.3-0.9,0.4c-0.2,0.1-0.5,0.2-0.7,0.3c-0.2,0.1-0.4,0.2-0.6,0.3c-0.2,0.1-0.4,0.2-0.7,0.3
		c-0.2,0.1-0.4,0.2-0.6,0.3c-0.1,0-0.1,0-0.2,0c-0.3-0.2-0.5-0.4-0.8-0.7c-0.5-0.4-1-0.7-1.5-1.1c-0.3-0.2-0.7-0.5-1-0.7
		c-0.4-0.3-0.8-0.5-1.2-0.7c-0.3-0.2-0.6-0.4-1-0.5c-0.3-0.2-0.6-0.3-0.9-0.5c-0.3-0.2-0.6-0.3-0.9-0.4c-0.2-0.1-0.4-0.2-0.7-0.3
		c0,0-0.1,0-0.2,0c0,0,0,0.1,0,0.2c0.2,0.4,0.4,0.8,0.6,1.2c0.1,0.2,0.1,0.3,0.2,0.5c0.1,0.2,0.1,0.5,0.1,0.7c0.1,0.5,0.1,1,0.1,1.6
		c0,0.2,0,0.3,0,0.5c-0.1,0.3-0.1,0.7-0.2,1c-0.1,0.3-0.2,0.6-0.3,1c-0.2,0.5-0.5,1.1-0.9,1.5c-0.2,0.3-0.5,0.6-0.8,0.9
		c-0.4,0.4-0.8,0.7-1.2,1c-0.3,0.2-0.7,0.4-1,0.5c-0.3,0.1-0.7,0.3-1,0.3c-0.3,0-0.7,0.2-1,0.2c-0.7,0.1-1.4,0-2.2-0.1
		c-0.1,0-0.2,0-0.2-0.1c-0.2-0.1-0.5-0.1-0.7-0.2c-0.3-0.1-0.5-0.2-0.8-0.3c-0.3-0.1-0.5-0.3-0.8-0.5c-0.6-0.3-1.1-0.8-1.5-1.3
		c-0.3-0.4-0.6-0.8-0.9-1.2c-0.1-0.2-0.2-0.4-0.3-0.6c-0.1-0.2-0.2-0.5-0.3-0.7c-0.1-0.2-0.1-0.4-0.2-0.6c-0.1-0.3-0.1-0.7-0.2-1
		c0-0.1,0-0.2,0-0.3c0,0-0.1-0.1-0.1-0.1c-0.1,0-0.2,0.1-0.2,0.1c-0.3,0.2-0.6,0.5-0.9,0.7c-0.3,0.3-0.6,0.6-0.9,1
		c-0.1,0.1-0.1,0.2,0,0.3c0.2,0.4,0.6,0.5,1,0.7c0,0-0.1,0-0.1,0.1c-0.2,0.1-0.4,0.3-0.6,0.4c-0.3,0.2-0.3,0.5-0.1,0.8
		c0.1,0.2,0.2,0.4,0.4,0.6c0.2,0.3,0.4,0.6,0.6,0.9c0.3,0.4,0.7,0.8,1.1,1.1c0.3,0.3,0.7,0.6,1.1,0.9c0.3,0.2,0.6,0.4,0.9,0.5
		c0.3,0.2,0.7,0.3,1,0.5c0.1,0.1,0.3,0.1,0.4,0.2c0.2,0.1,0.4,0.1,0.6,0.1c0.4,0.1,0.7,0.2,1.1,0.2c0.5,0,1,0.1,1.5,0
		c0.6,0,1.2,0,1.7-0.1c0.3-0.1,0.6-0.1,0.9-0.1c0.2,0,0.4-0.1,0.6-0.1c0,0,0.1,0,0.1,0c0.1,0,0.2,0,0.3-0.1c0.2-0.1,0.4-0.1,0.6-0.2
		c0.2-0.1,0.4-0.1,0.6-0.2c0.1,0,0.3-0.1,0.4-0.1c0.2-0.1,0.3-0.1,0.5-0.2c0.3-0.1,0.7-0.3,1-0.4c0.3-0.1,0.6-0.3,0.9-0.5
		c0.3-0.1,0.6-0.3,0.8-0.4c0.4-0.3,0.9-0.5,1.3-0.8c0.4-0.3,0.8-0.6,1.2-0.9c0.4-0.3,0.8-0.6,1.1-0.9c0.5-0.4,1-0.9,1.5-1.4
		c0.5-0.5,0.9-0.9,1.3-1.4c0.1-0.1,0.2-0.1,0.3,0c0.5,0.3,0.9,0.7,1.4,1.1c0.5,0.4,1,0.7,1.4,1.1c0.3,0.2,0.6,0.5,0.9,0.7
		c0.3,0.2,0.5,0.4,0.8,0.6c0,0,0.1,0,0.1,0c0,0,0-0.1,0-0.1c0-0.2-0.1-0.3-0.2-0.5c-0.1-0.3-0.2-0.6-0.3-0.9
		c-0.1-0.3-0.2-0.6-0.3-0.9c0-0.1-0.1-0.3-0.2-0.4c-0.2-0.3-0.1-0.4,0.1-0.7c0,0,0.1-0.1,0.1-0.1c0.4-0.4,0.7-0.8,1-1.2
		c0.4-0.5,0.8-0.9,1.3-1.4c0.3-0.4,0.7-0.8,1-1.1C62.6,219.7,62.7,219.6,62.6,219.4z M40.6,216.1c-1.6,0-3.2,0.6-4.4,2
		c-0.9,1-1.4,2.1-1.5,3.4c-0.1,1.8,0.4,3.4,1.7,4.7c1.1,1.1,2.5,1.7,4,1.7c1.7,0,3.1-0.6,4.3-1.7c1.1-1.1,1.7-2.4,1.7-3.9
		c0.1-1.7-0.5-3.3-1.8-4.5C43.6,216.7,42.3,216.1,40.6,216.1z M71.9,220.9c0.1,0,0.2-0.1,0.2-0.1c0.3-0.2,0.6-0.5,0.8-0.8
		c0.1-0.3,0.2-0.6,0.2-0.9c0-0.2-0.1-0.4-0.2-0.6c-0.1-0.3-0.4-0.6-0.7-0.7c-0.1,0-0.2-0.1-0.3-0.1c-0.2-0.1-0.4-0.2-0.6-0.2
		c-0.5,0-0.9-0.1-1.4-0.1c-0.7,0-1.4,0-2.1,0c-0.3,0-0.3,0-0.3,0.3c0,2.4,0,4.7,0,7.1c0,0.3,0,0.3,0.3,0.3c0.9,0,1.8,0,2.6,0
		c0.5,0,1-0.1,1.4-0.2c0.4-0.1,0.7-0.4,1-0.7c0.1-0.1,0.2-0.3,0.3-0.4c0.1-0.3,0.2-0.6,0.2-0.9c0-0.4-0.1-0.8-0.3-1.1
		c-0.3-0.4-0.6-0.6-1.1-0.7C72,221,72,221,71.9,220.9z M83.9,224.5c0,0.1,0,0.2,0,0.2c0,0.4,0,0.4,0.3,0.4c0.4,0,0.8,0,1.2,0
		c0.2,0,0.3,0,0.3-0.3c0-2.6,0-5.1,0-7.7c0-0.2,0-0.3-0.3-0.3c-0.4,0-0.9,0-1.3,0c-0.2,0-0.3,0.1-0.3,0.3c0,0.9,0,1.8,0,2.7
		c0,0,0,0.1,0,0.1c-0.1-0.1-0.1-0.1-0.2-0.2c-0.1-0.1-0.2-0.2-0.4-0.2c-0.5-0.2-1-0.2-1.4-0.1c-0.5,0.1-0.9,0.4-1.2,0.7
		c-0.4,0.5-0.6,1-0.7,1.6c-0.1,0.4,0,0.8,0,1.2c0,0.1,0.1,0.3,0.1,0.4c0,0.1,0,0.2,0.1,0.3c0.1,0.2,0.2,0.4,0.4,0.6
		c0.1,0.2,0.3,0.4,0.5,0.5c0.3,0.2,0.7,0.4,1.1,0.4c0.5,0,0.9-0.1,1.3-0.3C83.5,224.8,83.7,224.7,83.9,224.5z M94.7,220.2
		C94.7,220.2,94.7,220.2,94.7,220.2c0-0.1,0-0.2,0-0.3c0-0.3,0-0.3-0.3-0.3c-0.4,0-0.8,0-1.2,0c-0.3,0-0.3,0.1-0.3,0.3
		c0,1.7,0,3.3,0,5c0,0.2,0,0.3,0.3,0.3c0.4,0,0.9,0,1.3,0c0.2,0,0.3,0,0.3-0.3c0-1,0-2,0-2.9c0-0.4,0.2-0.8,0.7-1
		c0.2-0.1,0.6,0,0.7,0.2c0.2,0.2,0.3,0.5,0.3,0.7c0,1,0,2,0,3c0,0.1,0,0.1,0,0.2c0,0.1,0.1,0.2,0.2,0.2c0.5,0,0.9,0,1.4,0
		c0.2,0,0.3-0.1,0.3-0.3c0-1,0-2,0-3c0-0.5,0-0.9-0.2-1.4c-0.2-0.4-0.4-0.7-0.8-0.9c-0.2-0.1-0.3-0.1-0.5-0.1c-0.2,0-0.5,0-0.7,0
		c-0.4,0-0.7,0.2-1,0.4C95,219.9,94.8,220.1,94.7,220.2z M77.3,224.5C77.3,224.5,77.3,224.5,77.3,224.5c0,0.1,0,0.2,0,0.3
		c0,0.2,0,0.3,0.3,0.3c0.4,0,0.8,0,1.2,0c0.2,0,0.3-0.1,0.3-0.3c0-1.1,0.1-2.3-0.1-3.4c0-0.5-0.2-0.9-0.5-1.3
		c-0.4-0.4-0.8-0.6-1.4-0.7c-0.3,0-0.6,0-0.9,0c-0.2,0-0.4,0.1-0.6,0.1c-0.2,0.1-0.5,0.1-0.7,0.2c-0.2,0.1-0.4,0.2-0.4,0.3
		c0,0.4,0,0.7,0,1.1c0,0.1,0.1,0.2,0.2,0.1c0.1,0,0.1,0,0.2-0.1c0.3-0.2,0.6-0.3,0.9-0.4c0.3-0.1,0.6-0.1,1-0.1
		c0.3,0,0.5,0.2,0.6,0.5c0,0.1,0,0.1-0.1,0.1c-0.2,0-0.4,0.1-0.6,0.1c-0.6,0.1-1.1,0.1-1.7,0.4c-0.3,0.1-0.5,0.4-0.7,0.7
		c-0.2,0.3-0.2,0.7-0.2,1c0,0.3,0.1,0.6,0.3,0.9c0.2,0.4,0.7,0.6,1.1,0.7c0.6,0.1,1.2,0,1.6-0.4C77.1,224.7,77.2,224.6,77.3,224.5z
		 M90.2,222.9c0.4,0,0.8,0,1.3,0c0.1,0,0.3,0,0.4,0c0.1,0,0.1-0.1,0.1-0.1c0-0.7,0-1.4-0.3-2.1c-0.3-0.6-0.8-1-1.5-1.2
		c-0.1,0-0.3,0-0.5,0c-0.3,0-0.6,0-0.9,0c-0.4,0.1-0.8,0.3-1.1,0.6c-0.3,0.3-0.5,0.5-0.7,0.9c-0.1,0.3-0.2,0.6-0.3,0.9
		c0,0.3,0,0.6,0,0.9c0,0.2,0.1,0.4,0.1,0.5c0,0.3,0.2,0.6,0.3,0.8c0.2,0.4,0.6,0.7,1,0.8c0.3,0.1,0.6,0.2,1,0.3c0.3,0,0.7,0,1,0
		c0.2,0,0.5-0.1,0.7-0.1c0.2-0.1,0.4-0.2,0.6-0.2c0.1,0,0.2-0.1,0.2-0.2c0-0.3,0-0.6,0-0.9c0-0.2-0.1-0.3-0.3-0.2
		c-0.4,0.2-0.8,0.4-1.3,0.3c-0.1,0-0.3,0-0.4,0c-0.2,0-0.4-0.1-0.6-0.2c-0.2-0.1-0.3-0.3-0.4-0.5c0-0.1,0-0.1,0-0.2c0,0,0.1,0,0.2,0
		c0.1,0,0.1,0,0.2,0C89.3,222.9,89.7,222.9,90.2,222.9z M108.8,220.2c0,0,0-0.1,0-0.1c0-0.1,0-0.2,0-0.3c0-0.6,0-1.3,0-1.9
		c0-0.3,0-0.5,0-0.8c0-0.2-0.1-0.2-0.2-0.3c-0.2,0-0.4,0-0.6,0c-0.1,0-0.2,0.1-0.2,0.2c0,2.6,0,5.2,0,7.8c0,0.2,0,0.2,0.2,0.2
		c0.2,0,0.3,0,0.5,0c0.3,0,0.4-0.1,0.3-0.4c0-0.1,0-0.1,0-0.2c0,0,0,0,0,0c0,0,0.1,0.1,0.1,0.1c0.1,0.1,0.2,0.2,0.4,0.3
		c0.4,0.2,0.8,0.3,1.3,0.3c0.4-0.1,0.8-0.2,1.2-0.4c0.5-0.4,0.8-0.9,1-1.5c0.1-0.4,0.1-0.7,0.1-1.1c0-0.4,0-0.7-0.1-1.1
		c-0.1-0.4-0.3-0.7-0.6-1c-0.3-0.3-0.6-0.5-1.1-0.6c-0.3,0-0.6,0-1,0c-0.2,0-0.4,0.1-0.6,0.2C109.2,219.8,109,220,108.8,220.2z
		 M105.2,224.4c0,0.1,0,0.1,0,0.2c0,0.1,0,0.2,0,0.2c0,0.2,0.1,0.2,0.2,0.2c0.2,0,0.3,0,0.5,0c0.2,0,0.3,0,0.3-0.3
		c0-1.1,0-2.2,0-3.3c0-0.4-0.1-0.8-0.2-1.2c-0.2-0.5-0.6-0.7-1.1-0.8c-0.4-0.1-0.9-0.1-1.3,0c-0.1,0-0.2,0-0.3,0.1
		c-0.3,0.1-0.5,0.2-0.8,0.3c-0.1,0.1-0.2,0.1-0.2,0.3c0,0.2,0,0.4,0,0.6c0,0.2,0,0.3,0.3,0.2c0,0,0,0,0.1-0.1
		c0.3-0.2,0.6-0.4,0.9-0.4c0.3-0.1,0.6,0,0.9,0c0.2,0,0.4,0.1,0.6,0.3c0.1,0.2,0.1,0.5,0.2,0.7c0,0.1,0,0.1-0.1,0.1
		c-0.2,0-0.4,0.1-0.6,0.1c-0.5,0-1,0.1-1.5,0.3c-0.3,0.1-0.6,0.3-0.8,0.5c-0.2,0.2-0.2,0.4-0.3,0.6c-0.1,0.4-0.1,0.9,0.1,1.3
		c0,0.1,0.1,0.2,0.2,0.2c0.3,0.4,0.7,0.6,1.2,0.6c0.6,0.1,1-0.1,1.5-0.4C105,224.7,105.1,224.6,105.2,224.4z M100.5,220.5
		c0-1.1,0-2.1,0-3.2c0-0.1,0-0.2,0-0.2c0-0.1-0.1-0.1-0.1-0.1c-0.2,0-0.5,0-0.7,0c-0.1,0-0.2,0.1-0.2,0.2c0,0.1,0,0.3,0,0.4
		c0,1.9,0,3.8,0,5.7c0,0.1,0,0.1,0,0.2c0,0.4,0,0.7,0.2,1.1c0.2,0.3,0.4,0.6,0.8,0.7c0.3,0.1,0.5,0,0.8,0c0.2,0,0.2-0.1,0.2-0.3
		c0-0.2,0-0.3,0-0.5c0-0.1-0.1-0.2-0.2-0.2c-0.1,0-0.2,0-0.4,0c-0.1,0-0.2,0-0.2-0.1c-0.2-0.1-0.2-0.2-0.2-0.4
		C100.5,222.7,100.5,221.6,100.5,220.5z M110.8,230.6C110.8,230.6,110.8,230.6,110.8,230.6c0-0.3,0-0.6,0-0.9c0-0.3-0.1-0.3-0.3-0.3
		c0,0-0.1,0.1-0.1,0.1c0,0-0.1,0-0.1,0c-0.5-0.3-0.9-0.1-1.2,0.3c-0.3,0.4-0.4,0.8-0.2,1.3c0.2,0.4,0.4,0.6,0.9,0.6
		c0.2,0,0.3,0,0.4-0.1c0,0,0.1-0.1,0.2,0c0,0.2-0.2,0.5-0.4,0.5c-0.3,0.1-0.6,0-0.9-0.1c0,0-0.1,0-0.2,0c-0.1,0.1,0,0.4,0.1,0.4
		c0.4,0.2,0.8,0.2,1.2,0c0.3-0.1,0.5-0.4,0.5-0.8C110.8,231.3,110.8,231,110.8,230.6z M85.2,231.5c0.1,0.2,0.3,0.2,0.4,0.2
		c0.1,0,0.1-0.1,0.1-0.2c0-0.9,0-1.8,0-2.8c0-0.1-0.1-0.2-0.2-0.2c-0.2,0-0.3,0-0.3,0.1c0,0.3,0,0.5,0,0.8c0,0,0,0.1,0,0.1
		c0,0-0.1,0-0.1,0c-0.6-0.3-1.2,0.1-1.4,0.6c-0.1,0.4-0.1,0.8,0.1,1.1c0.1,0.2,0.3,0.4,0.6,0.4C84.7,231.7,85,231.7,85.2,231.5z
		 M70.8,231.5c0.1,0.1,0.2,0.2,0.4,0.2c0.3,0,0.6,0.1,0.9-0.1c0.3-0.2,0.5-0.6,0.2-0.9c-0.2-0.2-0.4-0.3-0.6-0.3
		c-0.1,0-0.2-0.2-0.2-0.3c0-0.2,0.2-0.2,0.3-0.1c0.1,0,0.3,0,0.4,0.1c0.2,0,0.2,0,0.2-0.2c0-0.1-0.1-0.2-0.2-0.3
		c-0.4-0.1-0.7-0.1-1,0.1c-0.3,0.2-0.3,0.7-0.1,0.9c0.2,0.1,0.4,0.2,0.6,0.3c0.1,0,0.1,0.1,0.2,0.1c0.1,0.1,0,0.3-0.1,0.3
		c-0.2,0.1-0.4,0-0.6-0.1c-0.2-0.1-0.2-0.1-0.3,0.1c-0.4-0.1-0.4,0-0.4-0.4c0-0.4,0-0.8,0-1.1c0-0.1-0.1-0.2-0.1-0.2
		c-0.2-0.1-0.4,0.1-0.4,0.3c0,0.3,0,0.7,0,1c0,0.2,0,0.4,0.1,0.6c0.1,0.2,0.3,0.2,0.4,0.3C70.6,231.7,70.7,231.6,70.8,231.5z
		 M90.7,231.4c0.1,0.1,0.2,0.2,0.3,0.2c0.2,0,0.5,0.1,0.7,0c0.2,0,0.4-0.1,0.5-0.3c0.2-0.4,0-0.7-0.4-0.9c-0.1-0.1-0.3-0.1-0.4-0.2
		c-0.1-0.1-0.2-0.2-0.1-0.3c0-0.1,0.1-0.1,0.2-0.1c0.2,0,0.3,0,0.5,0.1c0.1,0,0.1,0,0.2-0.1c0.1-0.2,0-0.4-0.3-0.4
		c-0.3-0.1-0.6-0.1-0.8,0.1c-0.2,0.2-0.4,0.4-0.3,0.7c0.1,0.2,0.2,0.3,0.4,0.4c0.2,0.1,0.3,0.1,0.5,0.2c0.1,0,0.1,0.1,0.1,0.2
		c0,0-0.1,0.1-0.1,0.1c-0.2,0.1-0.4,0-0.6-0.1c-0.1,0-0.2-0.1-0.3,0.1c0,0,0,0-0.1,0c-0.3,0-0.4-0.1-0.4-0.3c0-0.4,0-0.8,0-1.3
		c0-0.1,0-0.1-0.1-0.2c-0.2-0.1-0.4,0-0.4,0.2c0,0.4,0,0.8,0,1.1c0,0.2,0,0.4,0.1,0.5c0.1,0.2,0.3,0.3,0.5,0.3
		C90.6,231.7,90.7,231.6,90.7,231.4z M99.2,230.1c0,0.4,0,0.9,0,1.3c0,0.1,0.1,0.2,0.2,0.2c0.4,0,0.8,0,1.3,0c0.2,0,0.2-0.1,0.2-0.3
		c0-0.1-0.1-0.2-0.2-0.2c-0.3,0-0.5,0-0.8,0c-0.1,0-0.2,0-0.1-0.1c0-0.2,0-0.3,0-0.5c0-0.1,0-0.2,0.2-0.2c0.1,0,0.1,0,0.2,0
		c0.2,0,0.4,0,0.5,0c0.1,0,0.2-0.1,0.2-0.2c0-0.1,0-0.2-0.2-0.2c-0.2,0-0.5,0-0.7,0c-0.2,0-0.2,0-0.2-0.2c0-0.1,0-0.3,0-0.4
		c0-0.1,0-0.2,0.1-0.1c0.2,0,0.5,0,0.7,0c0.2,0,0.3-0.1,0.3-0.2c0-0.2-0.1-0.2-0.3-0.2c-0.4,0-0.7,0-1.1,0c-0.2,0-0.2,0-0.2,0.2
		C99.2,229.3,99.2,229.7,99.2,230.1z M68.5,230.8C68.5,230.8,68.4,230.8,68.5,230.8c-0.1-0.2-0.2-0.3-0.2-0.5
		c-0.1-0.3-0.2-0.7-0.4-1c-0.1-0.2-0.1-0.4-0.2-0.6c0-0.1-0.3-0.1-0.4-0.1c0,0.1-0.1,0.2,0,0.3c0.1,0.2,0.1,0.3,0.2,0.5
		c0.1,0.2,0.1,0.3,0.2,0.5c0.1,0.2,0.1,0.3,0.2,0.5c0.1,0.3,0.2,0.6,0.3,1c0.1,0.2,0.2,0.3,0.3,0.3c0.3,0,0.3,0,0.4-0.3
		c0.1-0.3,0.2-0.7,0.4-1c0-0.1,0.1-0.3,0.2-0.4c0.1-0.2,0.2-0.5,0.2-0.7c0-0.1,0.1-0.3,0.1-0.4c0-0.1,0-0.2,0-0.2
		c-0.1-0.1-0.4,0-0.4,0.1c-0.1,0.2-0.2,0.5-0.3,0.8c-0.1,0.4-0.3,0.7-0.4,1.1C68.5,230.7,68.5,230.7,68.5,230.8z M88.4,230.8
		C88.4,230.8,88.4,230.8,88.4,230.8c-0.1-0.1-0.2-0.3-0.2-0.4c-0.1-0.4-0.3-0.8-0.4-1.1c-0.1-0.2-0.1-0.4-0.2-0.5
		c-0.1-0.1-0.3-0.2-0.4-0.1c-0.1,0.1-0.1,0.2,0,0.3c0.1,0.3,0.2,0.6,0.3,0.9c0.1,0.2,0.1,0.4,0.2,0.6c0.1,0.3,0.2,0.7,0.4,1
		c0,0.1,0.1,0.2,0.2,0.3c0.2,0.1,0.4,0,0.5-0.2c0.1-0.2,0.1-0.4,0.2-0.6c0.1-0.3,0.2-0.7,0.4-1c0.1-0.2,0.1-0.3,0.2-0.5
		c0.1-0.2,0.1-0.3,0.2-0.5c0-0.1,0-0.2-0.1-0.2c-0.1-0.1-0.3,0-0.4,0.1c-0.1,0.1-0.1,0.2-0.1,0.3c-0.2,0.4-0.3,0.9-0.4,1.3
		C88.6,230.5,88.5,230.6,88.4,230.8z M96.5,230.8C96.5,230.8,96.5,230.8,96.5,230.8c0-0.3,0-0.5,0-0.8c0-0.2-0.1-0.3-0.2-0.4
		c-0.3-0.2-0.7-0.2-1-0.1c-0.2,0.1-0.3,0.2-0.3,0.4c0,0.1,0,0.1,0.1,0.2c0,0,0.1,0,0.2,0c0.1,0,0.2-0.1,0.3-0.1c0.1,0,0.3,0,0.4,0
		c0.1,0,0.1,0.1,0.1,0.2c0,0,0,0.1-0.1,0.1c-0.2,0-0.3,0.1-0.5,0.1c-0.4,0-0.7,0.4-0.7,0.7c0.1,0.6,0.6,0.8,1.1,0.6
		c0.1,0,0.2-0.1,0.3,0c0.2,0.1,0.4,0,0.4-0.2C96.5,231.2,96.5,231,96.5,230.8z M81.1,230.8c0-0.2,0-0.4,0-0.6c0-0.4-0.1-0.7-0.5-0.8
		c-0.3-0.1-0.5-0.1-0.8,0.1c-0.1,0.1-0.3,0.1-0.2,0.3c0,0.1,0,0.2,0.1,0.3c0.1,0,0.2,0,0.2-0.1c0.2-0.1,0.4-0.1,0.6-0.1
		c0.1,0,0.1,0.1,0.1,0.2c-0.1,0-0.1,0.1-0.2,0.1c0,0-0.1,0-0.1,0c-0.2,0.1-0.5,0.1-0.7,0.2c-0.2,0.1-0.3,0.4-0.3,0.6
		c0.1,0.6,0.6,0.8,1.1,0.5c0.1,0,0.1-0.1,0.2,0c0.1,0.1,0.2,0.1,0.3,0c0.1,0,0.1-0.2,0.1-0.2C81.1,231.2,81.1,231,81.1,230.8z
		 M74.6,231.7C74.6,231.7,74.6,231.7,74.6,231.7c0.2,0,0.4,0,0.5-0.1c0.3-0.1,0.4-0.4,0.5-0.6c0.1-0.2,0.1-0.5,0-0.7
		c-0.1-0.7-0.8-0.9-1.4-0.7c-0.4,0.1-0.6,0.4-0.7,0.8c-0.1,0.4,0,0.8,0.2,1.1C74,231.6,74.3,231.7,74.6,231.7z M107.4,231.7
		C107.4,231.7,107.4,231.7,107.4,231.7c0.2,0,0.4,0,0.5-0.1c0.3-0.1,0.4-0.3,0.5-0.6c0.1-0.4,0.1-0.7-0.1-1.1
		c-0.3-0.5-0.8-0.6-1.3-0.4c-0.3,0.1-0.5,0.4-0.6,0.7c-0.1,0.4-0.1,0.7,0.1,1.1C106.7,231.5,107,231.7,107.4,231.7z M104,231.7
		c0.3,0,0.6-0.1,0.8-0.3c0.1-0.1,0.2-0.3,0.2-0.5c0.2-0.4,0-1-0.3-1.3c-0.3-0.3-0.7-0.3-1.1-0.1c-0.4,0.2-0.6,0.4-0.6,0.9
		c0,0.2,0,0.5,0.1,0.7C103.2,231.5,103.5,231.7,104,231.7z M112,230.9C112,230.9,112,230.9,112,230.9C112,230.9,112,230.9,112,230.9
		c-0.2-0.4-0.4-0.8-0.5-1.2c-0.1-0.2-0.1-0.2-0.3-0.2c-0.2,0-0.2,0-0.2,0.2c0.1,0.2,0.1,0.3,0.2,0.5c0.1,0.4,0.3,0.7,0.5,1.1
		c0.1,0.3,0,0.5-0.1,0.7c-0.1,0.2-0.2,0.1-0.4,0.1c0,0-0.1,0.1-0.1,0.1c0,0.1,0,0.2,0,0.2c0,0,0.1,0.1,0.1,0.1
		c0.3,0.1,0.6,0,0.8-0.3c0.2-0.3,0.3-0.7,0.5-1.1c0.1-0.3,0.2-0.6,0.3-0.9c0.1-0.2,0.2-0.4,0.3-0.7c0.1-0.2,0-0.2-0.2-0.2
		c-0.2,0-0.3,0.1-0.4,0.3c-0.1,0.3-0.2,0.6-0.3,0.8C112.1,230.7,112.1,230.8,112,230.9z M76.5,229.6c0-0.1,0-0.1,0-0.1
		c-0.1-0.1-0.2-0.1-0.3-0.1c0,0-0.1,0.1-0.1,0.2c0,0.6,0,1.3,0,1.9c0,0.1,0,0.1,0.1,0.2c0.2,0.1,0.4,0,0.4-0.3c0-0.3,0-0.7,0-1
		c0-0.3,0.2-0.5,0.4-0.5c0.3,0,0.4,0.2,0.4,0.4c0,0,0,0.1,0,0.1c0,0.3,0,0.7,0,1c0,0.1,0,0.2,0.1,0.2c0.2,0.1,0.4,0,0.4-0.2
		c0-0.3,0-0.6,0-1c0-0.2-0.1-0.4-0.1-0.6c-0.1-0.2-0.4-0.4-0.6-0.4C77,229.4,76.8,229.4,76.5,229.6z M82.1,229.6
		C82.1,229.6,82.1,229.6,82.1,229.6C82.1,229.6,82.1,229.5,82.1,229.6c-0.1-0.2-0.3-0.1-0.4-0.1c0,0-0.1,0.1-0.1,0.2
		c0,0.6,0,1.2,0,1.8c0,0.1,0,0.2,0.1,0.2c0.2,0.1,0.4,0,0.4-0.3c0-0.3,0-0.7,0-1c0-0.2,0.1-0.3,0.2-0.4c0.1-0.1,0.3-0.1,0.4-0.1
		c0.1,0,0.2,0.1,0.2,0.2c0,0.1,0,0.3,0,0.4c0,0.3,0,0.6,0,0.9c0,0.1,0,0.2,0.1,0.2c0.2,0.1,0.4,0,0.4-0.2c0-0.4,0-0.9,0-1.3
		c-0.1-0.5-0.4-0.7-0.9-0.7C82.4,229.4,82.2,229.5,82.1,229.6z M94.4,230.5c0-0.3,0-0.6,0-0.9c0-0.1,0-0.2-0.1-0.2
		c-0.3-0.1-0.4,0-0.4,0.3c0,0.4,0,0.8,0,1.1c0,0.1,0,0.1,0,0.2c-0.1,0.2-0.3,0.3-0.5,0.2c-0.1,0-0.2-0.1-0.2-0.3c0-0.4,0-0.8,0-1.2
		c0-0.1,0-0.1,0-0.2c0-0.2-0.1-0.2-0.3-0.2c-0.1,0-0.2,0.1-0.2,0.2c0,0.5,0,0.9,0.1,1.4c0,0.6,0.7,0.8,1.2,0.6c0.1,0,0.1-0.1,0.2,0
		c0.1,0.1,0.2,0.1,0.3,0c0,0,0.1-0.1,0.1-0.2C94.4,231.1,94.4,230.8,94.4,230.5z M102.1,231.7c0.1,0,0.2,0,0.3,0
		c0.3-0.1,0.4-0.2,0.4-0.4c0-0.1-0.1-0.1-0.2-0.1c-0.1,0-0.2,0.1-0.4,0.1c-0.3,0-0.6-0.1-0.6-0.4c0-0.2,0-0.4,0-0.5
		c0-0.2,0.2-0.4,0.5-0.4c0.2,0,0.3,0.1,0.5,0.1c0.1,0,0.1,0,0.2,0c0.1-0.2,0-0.4-0.2-0.5c-0.3-0.1-0.6-0.1-0.8,0.1
		c-0.5,0.2-0.8,0.9-0.6,1.5C101.3,231.4,101.6,231.7,102.1,231.7z M97.5,229.9c0-0.4,0-0.8,0-1.2c0-0.1,0-0.2-0.2-0.3
		c-0.3,0-0.3,0-0.3,0.2c0,0,0,0.1,0,0.1c0,0.8,0,1.6,0,2.4c0,0.3,0.4,0.6,0.7,0.5c0.2,0,0.2-0.2,0.2-0.3c0-0.1-0.1-0.2-0.2-0.2
		c-0.2,0-0.2-0.1-0.2-0.2C97.5,230.6,97.5,230.2,97.5,229.9z M105.4,229.8c0,0.3,0,0.7,0,1c0,0.1,0,0.3,0.1,0.4
		c0.1,0.3,0.4,0.4,0.7,0.3c0.1,0,0.1-0.2,0.2-0.3c0-0.1,0-0.2-0.2-0.2c-0.2,0-0.2-0.1-0.2-0.3c0-0.1,0-0.1,0-0.2c0-0.7,0-1.4,0-2.1
		c0-0.2-0.1-0.2-0.3-0.2c-0.2,0-0.2,0-0.2,0.2C105.4,229.1,105.4,229.4,105.4,229.8z M73.1,230.3c0-0.2,0-0.5,0-0.7
		c0-0.1-0.1-0.2-0.1-0.2c-0.2-0.1-0.4,0-0.4,0.3c0,0.3,0,0.7,0,1c0,0.2,0.1,0.4,0.1,0.6c0.1,0.3,0.4,0.4,0.6,0.3
		c0.2,0,0.2-0.2,0.2-0.3c0-0.1-0.1-0.2-0.2-0.2c-0.1,0-0.2-0.1-0.2-0.2C73.1,230.8,73.1,230.5,73.1,230.3z M70.5,228.8
		c0-0.2-0.2-0.3-0.3-0.3c-0.1,0-0.3,0.2-0.3,0.3c0,0.2,0.1,0.3,0.3,0.3C70.3,229.1,70.5,228.9,70.5,228.8z M72.6,228.8
		c0,0.1,0.1,0.3,0.3,0.3c0.1,0,0.3-0.2,0.3-0.3c0-0.1-0.1-0.3-0.3-0.3C72.7,228.5,72.6,228.6,72.6,228.8z M89.8,228.8
		c0,0.2,0.1,0.3,0.3,0.3c0.1,0,0.3-0.2,0.3-0.3c0-0.1-0.2-0.3-0.3-0.3C90,228.5,89.8,228.6,89.8,228.8z"/>
	<path d="M62.6,219.4c0.1,0.2,0,0.3-0.1,0.4c-0.3,0.4-0.7,0.8-1,1.1c-0.4,0.5-0.8,0.9-1.3,1.4c-0.4,0.4-0.7,0.8-1,1.2
		c0,0-0.1,0.1-0.1,0.1c-0.2,0.2-0.2,0.4-0.1,0.7c0.1,0.1,0.1,0.3,0.2,0.4c0.1,0.3,0.2,0.6,0.3,0.9c0.1,0.3,0.2,0.6,0.3,0.9
		c0.1,0.2,0.1,0.3,0.2,0.5c0,0,0,0.1,0,0.1c0,0-0.1,0-0.1,0c-0.3-0.2-0.5-0.4-0.8-0.6c-0.3-0.2-0.6-0.5-0.9-0.7
		c-0.5-0.4-1-0.7-1.4-1.1c-0.5-0.4-0.9-0.7-1.4-1.1c-0.2-0.1-0.2-0.1-0.3,0c-0.4,0.5-0.9,1-1.3,1.4c-0.5,0.5-1,0.9-1.5,1.4
		c-0.4,0.3-0.7,0.6-1.1,0.9c-0.4,0.3-0.8,0.6-1.2,0.9c-0.4,0.3-0.9,0.6-1.3,0.8c-0.3,0.2-0.6,0.3-0.8,0.4c-0.3,0.2-0.6,0.3-0.9,0.5
		c-0.3,0.2-0.7,0.3-1,0.4c-0.2,0.1-0.3,0.1-0.5,0.2c-0.1,0.1-0.3,0.1-0.4,0.1c-0.2,0.1-0.4,0.1-0.6,0.2c-0.2,0.1-0.4,0.1-0.6,0.2
		c-0.1,0-0.2,0.1-0.3,0.1c0,0-0.1,0-0.1,0c-0.2,0-0.4,0.1-0.6,0.1c-0.3,0.1-0.6,0.1-0.9,0.1c-0.6,0.1-1.2,0.1-1.7,0.1
		c-0.5,0-1,0-1.5,0c-0.4,0-0.7-0.1-1.1-0.2c-0.2,0-0.4-0.1-0.6-0.1c-0.1,0-0.3-0.1-0.4-0.2c-0.3-0.2-0.7-0.3-1-0.5
		c-0.3-0.2-0.6-0.3-0.9-0.5c-0.4-0.3-0.7-0.5-1.1-0.9c-0.4-0.4-0.7-0.7-1.1-1.1c-0.2-0.3-0.4-0.6-0.6-0.9c-0.1-0.2-0.2-0.4-0.4-0.6
		c-0.2-0.3-0.1-0.6,0.1-0.8c0.2-0.2,0.4-0.3,0.6-0.4c0,0,0.1,0,0.1-0.1c-0.4-0.2-0.8-0.3-1-0.7c-0.1-0.1-0.1-0.2,0-0.3
		c0.2-0.4,0.5-0.7,0.9-1c0.3-0.2,0.6-0.5,0.9-0.7c0.1-0.1,0.2-0.1,0.2-0.1c0,0,0.1,0.1,0.1,0.1c0,0.1,0,0.2,0,0.3
		c0,0.3,0.1,0.7,0.2,1c0,0.2,0.1,0.4,0.2,0.6c0.1,0.2,0.2,0.5,0.3,0.7c0.1,0.2,0.2,0.4,0.3,0.6c0.3,0.4,0.5,0.8,0.9,1.2
		c0.4,0.5,0.9,0.9,1.5,1.3c0.3,0.2,0.5,0.3,0.8,0.5c0.2,0.1,0.5,0.2,0.8,0.3c0.2,0.1,0.5,0.1,0.7,0.2c0.1,0,0.2,0,0.2,0.1
		c0.7,0.1,1.4,0.2,2.2,0.1c0.3,0,0.7-0.2,1-0.2c0.4,0,0.7-0.2,1-0.3c0.4-0.1,0.7-0.3,1-0.5c0.5-0.3,0.9-0.6,1.2-1
		c0.3-0.3,0.5-0.6,0.8-0.9c0.4-0.5,0.6-1,0.9-1.5c0.1-0.3,0.2-0.6,0.3-1c0.1-0.3,0.1-0.7,0.2-1c0-0.1,0-0.3,0-0.5c0-0.5,0-1-0.1-1.6
		c-0.1-0.2-0.1-0.5-0.1-0.7c0-0.2-0.1-0.4-0.2-0.5c-0.2-0.4-0.4-0.8-0.6-1.2c0,0,0-0.1,0-0.2c0,0,0.1,0,0.2,0
		c0.2,0.1,0.5,0.2,0.7,0.3c0.3,0.1,0.6,0.3,0.9,0.4c0.3,0.2,0.6,0.3,0.9,0.5c0.3,0.2,0.6,0.4,1,0.5c0.4,0.2,0.8,0.5,1.2,0.7
		c0.3,0.2,0.7,0.4,1,0.7c0.5,0.4,1,0.7,1.5,1.1c0.3,0.2,0.5,0.4,0.8,0.7c0,0,0.1,0,0.2,0c0.2-0.1,0.4-0.2,0.6-0.3
		c0.2-0.1,0.4-0.2,0.7-0.3c0.2-0.1,0.4-0.2,0.6-0.3c0.2-0.1,0.5-0.2,0.7-0.3c0.3-0.1,0.6-0.3,0.9-0.4c0.3-0.2,0.6-0.3,0.9-0.5
		c0.3-0.1,0.6-0.3,0.8-0.4c0.3-0.2,0.6-0.3,0.9-0.5c0.4-0.2,0.7-0.4,1.1-0.6C62.4,219.5,62.5,219.4,62.6,219.4z"/>
	<path d="M40.6,216.1c1.6,0,3,0.6,4.1,1.7c1.2,1.2,1.9,2.7,1.8,4.5c-0.1,1.5-0.7,2.8-1.7,3.9c-1.2,1.2-2.6,1.8-4.3,1.7
		c-1.5,0-2.9-0.6-4-1.7c-1.3-1.3-1.9-2.9-1.7-4.7c0.1-1.3,0.6-2.5,1.5-3.4C37.4,216.8,39,216.1,40.6,216.1z M44.2,221.6
		c0-2.2-1.7-3.9-3.9-3.9c-2.1,0-3.9,1.6-3.9,3.9c0,2.2,1.7,3.9,3.9,3.9C42.4,225.5,44.1,223.8,44.2,221.6z"/>
	<path d="M71.9,220.9C72,221,72,221,72,221c0.5,0.1,0.8,0.4,1.1,0.7c0.3,0.3,0.3,0.7,0.3,1.1c0,0.3-0.1,0.6-0.2,0.9
		c-0.1,0.2-0.2,0.3-0.3,0.4c-0.3,0.3-0.6,0.6-1,0.7c-0.5,0.2-0.9,0.3-1.4,0.2c-0.9,0-1.8,0-2.6,0c-0.3,0-0.3,0-0.3-0.3
		c0-2.4,0-4.7,0-7.1c0-0.3,0-0.3,0.3-0.3c0.7,0,1.4,0,2.1,0c0.5,0,0.9,0,1.4,0.1c0.2,0,0.4,0.1,0.6,0.2c0.1,0,0.2,0.1,0.3,0.1
		c0.3,0.2,0.5,0.4,0.7,0.7c0.1,0.2,0.1,0.4,0.2,0.6c0.1,0.3,0,0.6-0.2,0.9c-0.2,0.4-0.5,0.6-0.8,0.8C72.1,220.9,72,220.9,71.9,220.9
		z M70.1,221.9C70.1,221.9,70.1,221.9,70.1,221.9c-0.2,0-0.3,0-0.5,0c-0.1,0-0.1,0.1-0.1,0.1c0,0.5,0,1,0,1.5c0,0.1,0,0.2,0.1,0.2
		c0.3,0,0.5,0,0.8,0c0.2,0,0.4-0.1,0.6-0.2c0.4-0.2,0.5-0.5,0.4-0.9c0-0.3-0.4-0.7-0.7-0.7C70.6,221.9,70.4,221.9,70.1,221.9z
		 M70,218.8C70,218.8,70,218.8,70,218.8c-0.1,0-0.2,0-0.3,0c-0.1,0-0.1,0.1-0.1,0.1c0,0.4,0,0.9,0,1.3c0,0.1,0,0.2,0.2,0.2
		c0.2,0,0.5,0,0.7,0c0.3,0,0.6-0.1,0.7-0.4c0.1-0.2,0.1-0.3,0.1-0.5c0-0.4-0.3-0.6-0.6-0.6C70.4,218.8,70.2,218.8,70,218.8z"/>
	<path d="M83.9,224.5c-0.2,0.2-0.4,0.3-0.5,0.4c-0.4,0.2-0.8,0.4-1.3,0.3c-0.4,0-0.8-0.2-1.1-0.4c-0.2-0.1-0.3-0.3-0.5-0.5
		c-0.1-0.2-0.2-0.4-0.4-0.6c0-0.1-0.1-0.2-0.1-0.3c0-0.1-0.1-0.3-0.1-0.4c0-0.4,0-0.8,0-1.2c0.1-0.6,0.3-1.1,0.7-1.6
		c0.3-0.4,0.7-0.6,1.2-0.7c0.5-0.1,1-0.1,1.4,0.1c0.1,0.1,0.2,0.2,0.4,0.2c0.1,0,0.1,0.1,0.2,0.2c0-0.1,0-0.1,0-0.1
		c0-0.9,0-1.8,0-2.7c0-0.2,0.1-0.3,0.3-0.3c0.4,0,0.9,0,1.3,0c0.2,0,0.3,0,0.3,0.3c0,2.6,0,5.1,0,7.7c0,0.2,0,0.3-0.3,0.3
		c-0.4,0-0.8,0-1.2,0c-0.3,0-0.4,0-0.3-0.4C83.9,224.7,83.9,224.6,83.9,224.5z M83.9,222.2C83.9,222.2,83.9,222.2,83.9,222.2
		c0-0.1,0-0.3,0-0.4c0-0.4-0.2-0.7-0.5-0.8c-0.3-0.2-0.6-0.2-0.9-0.1c-0.4,0.2-0.6,0.5-0.7,0.9c-0.1,0.3-0.1,0.6,0,1
		c0,0.4,0.2,0.6,0.5,0.8c0.2,0.1,0.4,0.1,0.6,0.1c0.3,0,0.7-0.4,0.8-0.6C83.8,222.8,83.9,222.5,83.9,222.2z"/>
	<path d="M94.7,220.2c0.1-0.1,0.2-0.3,0.4-0.4c0.3-0.2,0.6-0.4,1-0.4c0.2,0,0.5,0,0.7,0c0.2,0,0.3,0.1,0.5,0.1
		c0.4,0.2,0.6,0.5,0.8,0.9c0.2,0.4,0.2,0.9,0.2,1.4c0,1,0,2,0,3c0,0.2,0,0.3-0.3,0.3c-0.5,0-0.9,0-1.4,0c-0.1,0-0.2-0.1-0.2-0.2
		c0-0.1,0-0.1,0-0.2c0-1,0-2,0-3c0-0.3-0.1-0.5-0.3-0.7c-0.2-0.2-0.5-0.2-0.7-0.2c-0.5,0.2-0.7,0.6-0.7,1c0,1,0,2,0,2.9
		c0,0.2,0,0.3-0.3,0.3c-0.4,0-0.9,0-1.3,0c-0.3,0-0.3,0-0.3-0.3c0-1.7,0-3.3,0-5c0-0.3,0.1-0.3,0.3-0.3c0.4,0,0.8,0,1.2,0
		c0.3,0,0.3,0,0.3,0.3C94.7,220,94.7,220.1,94.7,220.2C94.7,220.2,94.7,220.2,94.7,220.2z"/>
	<path d="M77.3,224.5c-0.1,0.1-0.2,0.2-0.3,0.2c-0.5,0.4-1,0.6-1.6,0.4c-0.4-0.1-0.8-0.3-1.1-0.7c-0.2-0.3-0.3-0.6-0.3-0.9
		c0-0.4,0-0.7,0.2-1c0.2-0.3,0.4-0.5,0.7-0.7c0.5-0.3,1.1-0.3,1.7-0.4c0.2,0,0.4-0.1,0.6-0.1c0.1,0,0.1-0.1,0.1-0.1
		c-0.1-0.3-0.3-0.5-0.6-0.5c-0.3,0-0.7,0-1,0.1c-0.3,0.1-0.6,0.2-0.9,0.4c0,0-0.1,0.1-0.2,0.1c-0.1,0-0.2,0-0.2-0.1
		c0-0.4,0-0.7,0-1.1c0-0.2,0.1-0.3,0.4-0.3c0.2-0.1,0.4-0.1,0.7-0.2c0.2,0,0.4-0.1,0.6-0.1c0.3,0,0.6,0,0.9,0c0.6,0,1,0.3,1.4,0.7
		c0.3,0.4,0.4,0.8,0.5,1.3c0.1,1.1,0,2.3,0.1,3.4c0,0.2,0,0.3-0.3,0.3c-0.4,0-0.8,0-1.2,0c-0.2,0-0.3,0-0.3-0.3
		C77.3,224.8,77.3,224.6,77.3,224.5C77.3,224.5,77.3,224.5,77.3,224.5z M76.3,223.9C76.3,223.9,76.3,223.9,76.3,223.9
		c0.5,0,0.8-0.2,0.9-0.7c0.1-0.2,0.1-0.4,0.1-0.6c0-0.1-0.1-0.1-0.1-0.1c-0.1,0-0.2,0.1-0.3,0.1c-0.3,0-0.5,0-0.8,0.1
		c-0.2,0.1-0.4,0.2-0.4,0.5c0,0.2,0,0.4,0.2,0.5C76.1,223.8,76.2,223.9,76.3,223.9z"/>
	<path d="M90.2,222.9c-0.5,0-0.9,0-1.4,0c-0.1,0-0.1,0-0.2,0c-0.1,0-0.1,0-0.2,0c0,0,0,0.1,0,0.2c0.1,0.2,0.2,0.4,0.4,0.5
		c0.2,0.1,0.4,0.1,0.6,0.2c0.1,0,0.3,0,0.4,0c0.5,0,0.9-0.1,1.3-0.3c0.2-0.1,0.3-0.1,0.3,0.2c0,0.3,0,0.6,0,0.9c0,0.1,0,0.2-0.2,0.2
		c-0.2,0.1-0.4,0.2-0.6,0.2c-0.2,0.1-0.5,0.1-0.7,0.1c-0.3,0-0.7,0-1,0c-0.3,0-0.7-0.2-1-0.3c-0.4-0.2-0.7-0.5-1-0.8
		c-0.2-0.3-0.3-0.5-0.3-0.8c0-0.2-0.1-0.4-0.1-0.5c0-0.3,0-0.6,0-0.9c0-0.3,0.1-0.6,0.3-0.9c0.2-0.3,0.4-0.6,0.7-0.9
		c0.3-0.3,0.7-0.5,1.1-0.6c0.3-0.1,0.6,0,0.9,0c0.2,0,0.3,0,0.5,0c0.7,0.2,1.2,0.5,1.5,1.2c0.4,0.7,0.4,1.4,0.3,2.1
		c0,0-0.1,0.1-0.1,0.1c-0.1,0-0.3,0-0.4,0C91,222.9,90.6,222.9,90.2,222.9z M89.4,221.7c0.2,0,0.5,0,0.7,0c0,0,0,0,0,0
		c0.2,0,0.2,0,0.2-0.2c0,0,0-0.1,0-0.1c0-0.3-0.2-0.6-0.5-0.6c-0.4-0.1-0.7,0-0.9,0.3c-0.1,0.1-0.2,0.3-0.3,0.5
		c-0.1,0.1,0,0.2,0.1,0.2C88.9,221.7,89.1,221.7,89.4,221.7z"/>
	<path d="M108.8,220.2c0.3-0.2,0.5-0.4,0.8-0.6c0.2-0.1,0.4-0.2,0.6-0.2c0.3,0,0.6,0,1,0c0.4,0.1,0.8,0.3,1.1,0.6
		c0.3,0.3,0.4,0.7,0.6,1c0.1,0.4,0.1,0.7,0.1,1.1c0,0.4,0,0.7-0.1,1.1c-0.2,0.6-0.5,1.1-1,1.5c-0.3,0.3-0.7,0.4-1.2,0.4
		c-0.5,0.1-0.9-0.1-1.3-0.3c-0.1-0.1-0.3-0.2-0.4-0.3c0,0-0.1-0.1-0.1-0.1c0,0,0,0,0,0c0,0.1,0,0.1,0,0.2c0.1,0.3,0,0.4-0.3,0.4
		c-0.2,0-0.3,0-0.5,0c-0.2,0-0.2,0-0.2-0.2c0-2.6,0-5.2,0-7.8c0-0.2,0.1-0.2,0.2-0.2c0.2,0,0.4,0,0.6,0c0.2,0,0.2,0.1,0.2,0.3
		c0,0.3,0,0.5,0,0.8c0,0.6,0,1.3,0,1.9c0,0.1,0,0.2,0,0.3C108.7,220.2,108.7,220.2,108.8,220.2z M108.7,222.4c0,0.3,0,0.6,0.1,0.9
		c0,0.2,0.1,0.4,0.2,0.5c0.2,0.3,0.5,0.4,0.8,0.5c0.4,0.1,0.7,0,1-0.1c0.4-0.2,0.7-0.6,0.8-1c0.1-0.4,0.2-0.7,0.1-1.1
		c0-0.4-0.1-0.7-0.3-1.1c-0.2-0.3-0.4-0.5-0.7-0.6c-0.4-0.1-0.9-0.1-1.3,0.1c-0.4,0.2-0.6,0.5-0.7,0.9
		C108.8,221.7,108.8,222.1,108.7,222.4z"/>
	<path d="M105.2,224.4c-0.2,0.1-0.3,0.3-0.4,0.3c-0.4,0.3-0.9,0.5-1.5,0.4c-0.5-0.1-0.9-0.2-1.2-0.6c-0.1-0.1-0.1-0.2-0.2-0.2
		c-0.2-0.4-0.3-0.8-0.1-1.3c0.1-0.2,0.1-0.4,0.3-0.6c0.2-0.3,0.5-0.4,0.8-0.5c0.5-0.2,1-0.2,1.5-0.3c0.2,0,0.4-0.1,0.6-0.1
		c0.1,0,0.1-0.1,0.1-0.1c-0.1-0.2,0-0.5-0.2-0.7c-0.1-0.2-0.3-0.3-0.6-0.3c-0.3,0-0.6,0-0.9,0c-0.3,0.1-0.6,0.2-0.9,0.4
		c0,0,0,0-0.1,0.1c-0.2,0.1-0.3,0.1-0.3-0.2c0-0.2,0-0.4,0-0.6c0-0.1,0.1-0.2,0.2-0.3c0.3-0.1,0.5-0.2,0.8-0.3c0.1,0,0.2,0,0.3-0.1
		c0.4,0,0.9-0.1,1.3,0c0.5,0.1,0.9,0.4,1.1,0.8c0.2,0.4,0.3,0.8,0.2,1.2c0,1.1,0,2.2,0,3.3c0,0.2,0,0.3-0.3,0.3c-0.2,0-0.3,0-0.5,0
		c-0.2,0-0.2-0.1-0.2-0.2c0-0.1,0-0.2,0-0.2C105.2,224.6,105.2,224.5,105.2,224.4z M103.8,224.4c0.3,0,0.6-0.1,0.8-0.2
		c0.3-0.2,0.5-0.5,0.6-0.8c0-0.2,0-0.4,0.1-0.7c0-0.2,0-0.2-0.2-0.2c-0.4,0.1-0.9,0.1-1.3,0.2c-0.4,0.1-0.8,0.2-0.8,0.7
		c0,0.4,0.1,0.7,0.4,0.9C103.4,224.3,103.6,224.3,103.8,224.4z"/>
	<path d="M100.5,220.5c0,1.1,0,2.2,0,3.2c0,0.2,0.1,0.3,0.2,0.4c0.1,0,0.1,0,0.2,0.1c0.1,0,0.2,0,0.4,0c0.1,0,0.2,0.1,0.2,0.2
		c0,0.2,0,0.3,0,0.5c0,0.2-0.1,0.2-0.2,0.3c-0.3,0-0.5,0.1-0.8,0c-0.4-0.1-0.6-0.3-0.8-0.7c-0.2-0.3-0.2-0.7-0.2-1.1
		c0-0.1,0-0.1,0-0.2c0-1.9,0-3.8,0-5.7c0-0.1,0-0.3,0-0.4c0-0.1,0.1-0.2,0.2-0.2c0.2,0,0.5,0,0.7,0c0,0,0.1,0.1,0.1,0.1
		c0,0.1,0,0.2,0,0.2C100.5,218.4,100.5,219.4,100.5,220.5z"/>
	<path d="M110.8,230.6c0,0.4,0,0.7,0,1.1c0,0.4-0.2,0.6-0.5,0.8c-0.4,0.2-0.8,0.2-1.2,0c-0.1-0.1-0.2-0.3-0.1-0.4c0,0,0.1-0.1,0.2,0
		c0.3,0.1,0.6,0.1,0.9,0.1c0.2,0,0.4-0.3,0.4-0.5c0-0.1-0.1-0.1-0.2,0c-0.1,0.1-0.3,0.1-0.4,0.1c-0.5,0-0.7-0.2-0.9-0.6
		c-0.2-0.5-0.1-0.9,0.2-1.3c0.2-0.3,0.7-0.5,1.2-0.3c0,0,0.1,0,0.1,0c0,0,0.1-0.1,0.1-0.1c0.2,0,0.3,0,0.3,0.3
		C110.8,230,110.8,230.3,110.8,230.6C110.8,230.6,110.8,230.6,110.8,230.6z M109.8,229.8c-0.2,0-0.4,0.1-0.4,0.2
		c-0.1,0.3-0.2,0.5-0.1,0.8c0.1,0.3,0.3,0.3,0.5,0.3c0.3,0,0.5-0.2,0.4-0.5c0-0.1,0-0.2,0-0.3C110.3,230.1,110.2,229.8,109.8,229.8z
		"/>
	<path d="M85.2,231.5c-0.2,0.2-0.5,0.2-0.8,0.2c-0.3,0-0.5-0.2-0.6-0.4c-0.2-0.4-0.2-0.8-0.1-1.1c0.1-0.5,0.7-1,1.4-0.6
		c0,0,0.1,0,0.1,0c0,0,0-0.1,0-0.1c0-0.3,0-0.5,0-0.8c0-0.2,0.1-0.2,0.3-0.1c0.1,0,0.2,0.1,0.2,0.2c0,0.9,0,1.8,0,2.8
		c0,0.1-0.1,0.2-0.1,0.2C85.5,231.7,85.4,231.6,85.2,231.5z M85.3,230.5c0,0,0-0.1,0-0.2c0-0.2,0-0.4-0.2-0.5
		c-0.2-0.1-0.4-0.1-0.6,0c-0.1,0.1-0.2,0.2-0.2,0.3c0,0.2,0,0.4,0,0.6c0,0.2,0.1,0.3,0.3,0.3c0.2,0.1,0.4,0.1,0.5-0.1
		C85.3,231,85.3,230.8,85.3,230.5z"/>
	<path d="M70.8,231.5c0,0.2-0.2,0.2-0.3,0.2c-0.2,0-0.3-0.1-0.4-0.3c-0.1-0.2-0.1-0.4-0.1-0.6c0-0.3,0-0.7,0-1
		c0-0.3,0.2-0.4,0.4-0.3c0.1,0,0.1,0.1,0.1,0.2c0,0.4,0,0.8,0,1.1c0,0.4,0,0.4,0.4,0.4c0.1-0.2,0.2-0.2,0.3-0.1
		c0.2,0.1,0.4,0.1,0.6,0.1c0.1,0,0.1-0.2,0.1-0.3c-0.1-0.1-0.1-0.1-0.2-0.1c-0.2-0.1-0.4-0.2-0.6-0.3c-0.2-0.2-0.3-0.7,0.1-0.9
		c0.3-0.2,0.7-0.2,1-0.1c0.1,0,0.2,0.1,0.2,0.3c0,0.2,0,0.2-0.2,0.2c-0.1,0-0.3,0-0.4-0.1c-0.1,0-0.2,0-0.3,0.1
		c0,0.1,0.1,0.2,0.2,0.3c0.2,0.1,0.4,0.2,0.6,0.3c0.3,0.3,0.2,0.8-0.2,0.9c-0.3,0.2-0.6,0.1-0.9,0.1C71,231.6,70.9,231.5,70.8,231.5
		z"/>
	<path d="M90.7,231.4c0,0.2-0.2,0.2-0.3,0.2c-0.2,0-0.4-0.1-0.5-0.3c-0.1-0.2-0.1-0.4-0.1-0.5c0-0.4,0-0.8,0-1.1
		c0-0.2,0.2-0.4,0.4-0.2c0,0,0.1,0.1,0.1,0.2c0,0.4,0,0.8,0,1.3c0,0.3,0.1,0.4,0.4,0.3c0,0,0.1,0,0.1,0c0.1-0.2,0.2-0.1,0.3-0.1
		c0.2,0.1,0.4,0.1,0.6,0.1c0.1,0,0.1-0.1,0.1-0.1c0-0.1,0-0.2-0.1-0.2c-0.1-0.1-0.3-0.1-0.5-0.2c-0.2-0.1-0.3-0.2-0.4-0.4
		c-0.1-0.3,0-0.6,0.3-0.7c0.3-0.2,0.6-0.2,0.8-0.1c0.2,0,0.3,0.2,0.3,0.4c0,0.1-0.1,0.1-0.2,0.1c-0.2,0-0.3-0.1-0.5-0.1
		c-0.1,0-0.2,0.1-0.2,0.1c-0.1,0.1,0,0.2,0.1,0.3c0.1,0.1,0.3,0.1,0.4,0.2c0.4,0.2,0.6,0.5,0.4,0.9c-0.1,0.2-0.3,0.3-0.5,0.3
		c-0.2,0-0.5,0-0.7,0C90.9,231.6,90.8,231.5,90.7,231.4z"/>
	<path d="M99.2,230.1c0-0.4,0-0.9,0-1.3c0-0.2,0-0.2,0.2-0.2c0.4,0,0.7,0,1.1,0c0.2,0,0.3,0.1,0.3,0.2c0,0.2-0.1,0.2-0.3,0.2
		c-0.2,0-0.5,0-0.7,0c-0.1,0-0.1,0-0.1,0.1c0,0.1,0,0.3,0,0.4c0,0.2,0,0.2,0.2,0.2c0.2,0,0.5,0,0.7,0c0.1,0,0.2,0.1,0.2,0.2
		c0,0.1,0,0.2-0.2,0.2c-0.2,0-0.3,0-0.5,0c-0.1,0-0.1,0-0.2,0c-0.1,0-0.2,0.1-0.2,0.2c0,0.2,0,0.3,0,0.5c0,0.1,0.1,0.1,0.1,0.1
		c0.3,0,0.5,0,0.8,0c0.1,0,0.2,0.1,0.2,0.2c0,0.2,0,0.3-0.2,0.3c-0.4,0-0.8,0-1.3,0c-0.1,0-0.2-0.1-0.2-0.2
		C99.2,231,99.2,230.6,99.2,230.1z"/>
	<path d="M68.5,230.8c0-0.1,0.1-0.1,0.1-0.2c0.1-0.4,0.3-0.7,0.4-1.1c0.1-0.2,0.2-0.5,0.3-0.8c0.1-0.1,0.3-0.2,0.4-0.1
		c0,0,0.1,0.2,0,0.2c0,0.1-0.1,0.3-0.1,0.4c-0.1,0.2-0.2,0.5-0.2,0.7c0,0.1-0.1,0.3-0.2,0.4c-0.1,0.3-0.2,0.7-0.4,1
		c-0.1,0.2-0.1,0.3-0.4,0.3c-0.1,0-0.2-0.1-0.3-0.3c-0.1-0.3-0.2-0.6-0.3-1c-0.1-0.2-0.1-0.3-0.2-0.5c-0.1-0.2-0.1-0.3-0.2-0.5
		c-0.1-0.2-0.2-0.3-0.2-0.5c0-0.1,0-0.2,0-0.3c0.1-0.1,0.4,0,0.4,0.1c0.1,0.2,0.2,0.4,0.2,0.6c0.1,0.3,0.2,0.7,0.4,1
		C68.3,230.5,68.4,230.6,68.5,230.8C68.4,230.8,68.5,230.8,68.5,230.8z"/>
	<path d="M88.4,230.8c0.1-0.2,0.1-0.3,0.2-0.5c0.2-0.4,0.3-0.9,0.4-1.3c0-0.1,0.1-0.2,0.1-0.3c0-0.1,0.3-0.1,0.4-0.1
		c0.1,0.1,0.1,0.1,0.1,0.2c-0.1,0.2-0.1,0.3-0.2,0.5c-0.1,0.2-0.1,0.3-0.2,0.5c-0.1,0.3-0.2,0.7-0.4,1c-0.1,0.2-0.1,0.4-0.2,0.6
		c-0.1,0.2-0.3,0.3-0.5,0.2c-0.1,0-0.1-0.2-0.2-0.3c-0.1-0.3-0.2-0.6-0.4-1c-0.1-0.2-0.1-0.4-0.2-0.6c-0.1-0.3-0.2-0.6-0.3-0.9
		c-0.1-0.2-0.1-0.3,0-0.3c0.1-0.1,0.4,0,0.4,0.1c0.1,0.2,0.2,0.4,0.2,0.5c0.1,0.4,0.3,0.8,0.4,1.1C88.3,230.5,88.3,230.7,88.4,230.8
		C88.4,230.8,88.4,230.8,88.4,230.8z"/>
	<path d="M96.5,230.8c0,0.2,0,0.4,0,0.6c0,0.2-0.3,0.3-0.4,0.2c-0.1-0.1-0.2,0-0.3,0c-0.5,0.2-1.1,0-1.1-0.6c0-0.3,0.3-0.7,0.7-0.7
		c0.2,0,0.3-0.1,0.5-0.1c0,0,0.1-0.1,0.1-0.1c0-0.1-0.1-0.2-0.1-0.2c-0.1,0-0.3,0-0.4,0c-0.1,0-0.2,0.1-0.3,0.1c-0.1,0-0.1,0-0.2,0
		c0,0-0.1-0.1-0.1-0.2c0-0.2,0.1-0.3,0.3-0.4c0.4-0.1,0.7-0.1,1,0.1c0.1,0.1,0.2,0.2,0.2,0.4C96.5,230.2,96.5,230.5,96.5,230.8
		C96.5,230.8,96.5,230.8,96.5,230.8z M95.8,230.6c-0.1,0-0.3,0.1-0.5,0.1c-0.1,0.1-0.1,0.2-0.1,0.3c0,0.1,0,0.1,0.1,0.2
		c0.2,0.1,0.4,0.1,0.6-0.2c0.1-0.1,0.1-0.2,0.1-0.3C96,230.7,95.9,230.7,95.8,230.6z"/>
	<path d="M81.1,230.8c0,0.2,0,0.4,0,0.6c0,0.1,0,0.2-0.1,0.2c-0.1,0-0.2,0-0.3,0c-0.1,0-0.1,0-0.2,0c-0.5,0.2-1,0-1.1-0.5
		c0-0.2,0.2-0.5,0.3-0.6c0.2-0.1,0.5-0.1,0.7-0.2c0,0,0.1,0,0.1,0c0.1,0,0.1-0.1,0.2-0.1c0-0.1-0.1-0.2-0.1-0.2
		c-0.2-0.1-0.4,0-0.6,0.1c-0.1,0-0.2,0-0.2,0.1c0-0.1,0-0.2-0.1-0.3c0-0.2,0.1-0.2,0.2-0.3c0.3-0.1,0.5-0.1,0.8-0.1
		c0.4,0.1,0.5,0.3,0.5,0.8C81.1,230.4,81.1,230.6,81.1,230.8z M80.4,230.6c-0.1,0-0.3,0.1-0.4,0.1c-0.1,0.1-0.1,0.2-0.1,0.3
		c0,0,0.1,0.1,0.1,0.1c0.2,0.1,0.4,0.1,0.6-0.2c0.1-0.1,0.1-0.2,0.1-0.3C80.6,230.7,80.5,230.7,80.4,230.6z"/>
	<path d="M74.6,231.7c-0.4,0.1-0.6-0.1-0.8-0.3c-0.2-0.3-0.3-0.7-0.2-1.1c0.1-0.4,0.3-0.7,0.7-0.8c0.6-0.2,1.2,0.1,1.4,0.7
		c0.1,0.3,0.1,0.5,0,0.7c-0.1,0.3-0.2,0.5-0.5,0.6C75,231.6,74.8,231.7,74.6,231.7C74.6,231.7,74.6,231.7,74.6,231.7z M74.6,229.8
		c-0.4,0-0.6,0.2-0.6,0.6c0,0.1,0,0.2,0,0.3c0,0.3,0.1,0.5,0.5,0.6c0.3,0,0.7-0.1,0.6-0.5c0-0.1,0-0.3,0-0.4
		C75.2,230,75,229.8,74.6,229.8z"/>
	<path d="M107.4,231.7c-0.4,0-0.7-0.1-0.9-0.5c-0.2-0.3-0.3-0.7-0.1-1.1c0.1-0.3,0.3-0.6,0.6-0.7c0.5-0.2,1.1-0.1,1.3,0.4
		c0.2,0.3,0.2,0.7,0.1,1.1c-0.1,0.3-0.3,0.5-0.5,0.6C107.7,231.6,107.6,231.7,107.4,231.7C107.4,231.7,107.4,231.7,107.4,231.7z
		 M107.9,230.5C107.9,230.5,107.9,230.5,107.9,230.5c0-0.1,0-0.1,0-0.2c0-0.2-0.1-0.4-0.3-0.5c-0.2-0.1-0.6-0.1-0.7,0.1
		c-0.1,0.1-0.1,0.2-0.2,0.3c-0.1,0.4,0.1,0.8,0.5,0.9c0.3,0.1,0.6-0.1,0.6-0.4C108,230.7,107.9,230.6,107.9,230.5z"/>
	<path d="M104,231.7c-0.5,0-0.8-0.2-1-0.6c-0.1-0.2-0.1-0.5-0.1-0.7c0-0.4,0.3-0.7,0.6-0.9c0.4-0.2,0.8-0.1,1.1,0.1
		c0.4,0.3,0.5,0.8,0.3,1.3c-0.1,0.2-0.1,0.3-0.2,0.5C104.6,231.6,104.3,231.7,104,231.7z M103.4,230.5c0,0.2,0,0.3,0.1,0.4
		c0.2,0.4,0.5,0.4,0.8,0.3c0.1,0,0.2-0.1,0.2-0.2c0.1-0.3,0.1-0.5,0-0.8c-0.1-0.2-0.1-0.3-0.3-0.3c-0.3,0-0.5-0.1-0.7,0.2
		C103.4,230.2,103.4,230.4,103.4,230.5z"/>
	<path d="M112,230.9c0-0.1,0.1-0.2,0.1-0.3c0.1-0.3,0.2-0.6,0.3-0.8c0.1-0.2,0.2-0.3,0.4-0.3c0.2,0,0.2,0.1,0.2,0.2
		c-0.1,0.2-0.2,0.4-0.3,0.7c-0.1,0.3-0.2,0.6-0.3,0.9c-0.2,0.4-0.3,0.7-0.5,1.1c-0.2,0.3-0.4,0.4-0.8,0.3c0,0-0.1-0.1-0.1-0.1
		c0-0.1,0-0.2,0-0.2c0,0,0.1-0.1,0.1-0.1c0.1,0,0.3,0,0.4-0.1c0.1-0.2,0.2-0.5,0.1-0.7c-0.2-0.4-0.3-0.7-0.5-1.1
		c-0.1-0.2-0.1-0.3-0.2-0.5c-0.1-0.2,0-0.2,0.2-0.2c0.3,0,0.3,0,0.3,0.2C111.7,230,111.8,230.4,112,230.9
		C112,230.9,112,230.9,112,230.9C112,230.9,112,230.9,112,230.9z"/>
	<path d="M76.5,229.6c0.2-0.2,0.4-0.2,0.7-0.2c0.2,0,0.6,0.2,0.6,0.4c0.1,0.2,0.1,0.4,0.1,0.6c0,0.3,0,0.6,0,1
		c0,0.2-0.2,0.4-0.4,0.2c-0.1,0-0.1-0.1-0.1-0.2c0-0.3,0-0.7,0-1c0,0,0-0.1,0-0.1c0-0.3-0.1-0.4-0.4-0.4c-0.2,0-0.4,0.2-0.4,0.5
		c0,0.3,0,0.7,0,1c0,0.3-0.2,0.4-0.4,0.3c0,0-0.1-0.1-0.1-0.2c0-0.6,0-1.3,0-1.9c0-0.1,0.1-0.2,0.1-0.2c0.1,0,0.3-0.1,0.3,0.1
		C76.5,229.5,76.5,229.6,76.5,229.6z"/>
	<path d="M82.1,229.6c0.2-0.1,0.3-0.2,0.5-0.2c0.5-0.1,0.8,0.2,0.9,0.7c0.1,0.4,0,0.9,0,1.3c0,0.2-0.2,0.3-0.4,0.2
		c-0.1,0-0.1-0.1-0.1-0.2c0-0.3,0-0.6,0-0.9c0-0.1,0-0.3,0-0.4c0-0.1-0.1-0.2-0.2-0.2c-0.1,0-0.3-0.1-0.4,0.1
		c-0.1,0.1-0.2,0.2-0.2,0.4c0,0.3,0,0.7,0,1c0,0.2-0.2,0.4-0.4,0.3c0,0-0.1-0.1-0.1-0.2c0-0.6,0-1.2,0-1.8c0-0.1,0.1-0.2,0.1-0.2
		C81.8,229.4,82,229.3,82.1,229.6C82.1,229.5,82.1,229.6,82.1,229.6C82.1,229.6,82.1,229.6,82.1,229.6z"/>
	<path d="M94.4,230.5c0,0.3,0,0.6,0,0.9c0,0.1,0,0.2-0.1,0.2c-0.1,0-0.3,0-0.3,0c-0.1-0.1-0.1,0-0.2,0c-0.5,0.3-1.1,0-1.2-0.6
		c0-0.5,0-0.9-0.1-1.4c0-0.1,0-0.2,0.2-0.2c0.2,0,0.3,0,0.3,0.2c0,0.1,0,0.1,0,0.2c0,0.4,0,0.8,0,1.2c0,0.1,0.1,0.2,0.2,0.3
		c0.3,0.1,0.5,0,0.5-0.2c0-0.1,0-0.1,0-0.2c0-0.4,0-0.8,0-1.1c0-0.3,0.1-0.4,0.4-0.3c0,0,0.1,0.1,0.1,0.2
		C94.4,229.9,94.4,230.2,94.4,230.5z"/>
	<path d="M102.1,231.7c-0.5,0-0.8-0.2-1-0.7c-0.2-0.5,0.1-1.2,0.6-1.5c0.3-0.1,0.6-0.1,0.8-0.1c0.2,0,0.3,0.3,0.2,0.5
		c0,0-0.1,0-0.2,0c-0.2,0-0.3-0.1-0.5-0.1c-0.2,0-0.4,0.2-0.5,0.4c0,0.2,0,0.4,0,0.5c0,0.3,0.4,0.4,0.6,0.4c0.1,0,0.2-0.1,0.4-0.1
		c0.1,0,0.1,0,0.2,0.1c0,0.3-0.1,0.4-0.4,0.4C102.3,231.7,102.2,231.7,102.1,231.7z"/>
	<path d="M97.5,229.9c0,0.4,0,0.7,0,1.1c0,0.2,0,0.2,0.2,0.2c0.1,0,0.2,0,0.2,0.2c0,0.1,0,0.2-0.2,0.3c-0.3,0.1-0.7-0.2-0.7-0.5
		c0-0.8,0-1.6,0-2.4c0,0,0-0.1,0-0.1c0-0.2,0.1-0.2,0.3-0.2c0.2,0,0.2,0.1,0.2,0.3C97.5,229.1,97.5,229.5,97.5,229.9z"/>
	<path d="M105.4,229.8c0-0.4,0-0.8,0-1.2c0-0.2,0-0.2,0.2-0.2c0.2,0,0.3,0,0.3,0.2c0,0.7,0,1.4,0,2.1c0,0.1,0,0.1,0,0.2
		c0,0.1,0,0.3,0.2,0.3c0.1,0,0.2,0.1,0.2,0.2c0,0.1,0,0.2-0.2,0.3c-0.3,0.1-0.6-0.1-0.7-0.3c0-0.1-0.1-0.3-0.1-0.4
		C105.4,230.5,105.4,230.2,105.4,229.8z"/>
	<path d="M73.1,230.3c0,0.2,0,0.4,0,0.7c0,0.1,0,0.2,0.2,0.2c0.1,0,0.2,0,0.2,0.2c0,0.1,0,0.3-0.2,0.3c-0.3,0.1-0.5-0.1-0.6-0.3
		c-0.1-0.2-0.1-0.4-0.1-0.6c0-0.3,0-0.7,0-1c0-0.3,0.2-0.4,0.4-0.3c0.1,0,0.1,0.1,0.1,0.2C73.1,229.9,73.1,230.1,73.1,230.3z"/>
	<path d="M70.5,228.8c0,0.1-0.2,0.3-0.3,0.3c-0.1,0-0.3-0.2-0.3-0.3c0-0.2,0.1-0.3,0.3-0.3C70.3,228.5,70.5,228.6,70.5,228.8z"/>
	<path d="M72.6,228.8c0-0.2,0.1-0.3,0.3-0.3c0.2,0,0.3,0.2,0.3,0.3c0,0.1-0.2,0.3-0.3,0.3C72.7,229.1,72.6,228.9,72.6,228.8z"/>
	<path d="M89.8,228.8c0-0.2,0.1-0.3,0.3-0.3c0.1,0,0.3,0.2,0.3,0.3c0,0.1-0.2,0.3-0.3,0.3C90,229.1,89.8,228.9,89.8,228.8z"/>
	<path class="st6" d="M44.2,221.6c0,2.2-1.7,3.9-3.9,3.9c-2.2,0-3.9-1.7-3.9-3.9c0-2.3,1.8-3.9,3.9-3.9
		C42.5,217.7,44.1,219.4,44.2,221.6z M39.3,222.6c1.1,0.1,1.9-0.9,1.9-1.9c0-1.1-0.9-1.9-1.9-1.9c-1,0-1.9,0.8-1.9,1.9
		C37.4,221.7,38.4,222.6,39.3,222.6z"/>
	<path class="st6" d="M70.1,221.9c0.2,0,0.5,0,0.7,0c0.3,0,0.6,0.4,0.7,0.7c0,0.4,0,0.7-0.4,0.9c-0.2,0.1-0.4,0.1-0.6,0.2
		c-0.3,0-0.5,0-0.8,0c-0.1,0-0.1,0-0.1-0.2c0-0.5,0-1,0-1.5c0-0.1,0-0.1,0.1-0.1C69.8,221.9,70,221.9,70.1,221.9
		C70.1,221.9,70.1,221.9,70.1,221.9z"/>
	<path class="st6" d="M70,218.8c0.2,0,0.4,0,0.6,0c0.2,0,0.6,0.3,0.6,0.6c0,0.2,0,0.4-0.1,0.5c-0.1,0.3-0.4,0.4-0.7,0.4
		c-0.2,0-0.5,0-0.7,0c-0.1,0-0.2-0.1-0.2-0.2c0-0.4,0-0.9,0-1.3c0-0.1,0-0.1,0.1-0.1C69.8,218.8,69.9,218.8,70,218.8
		C70,218.8,70,218.8,70,218.8z"/>
	<path class="st6" d="M83.9,222.2c-0.1,0.3-0.1,0.6-0.2,0.9c-0.1,0.2-0.5,0.6-0.8,0.6c-0.2,0-0.4,0-0.6-0.1
		c-0.3-0.2-0.5-0.5-0.5-0.8c0-0.3,0-0.7,0-1c0.1-0.4,0.3-0.7,0.7-0.9c0.3-0.1,0.6-0.1,0.9,0.1c0.3,0.2,0.5,0.5,0.5,0.8
		C83.9,222,83.9,222.1,83.9,222.2C83.9,222.2,83.9,222.2,83.9,222.2z"/>
	<path class="st6" d="M76.3,223.9c-0.1,0-0.3-0.1-0.4-0.1c-0.2-0.1-0.3-0.3-0.2-0.5c0-0.2,0.1-0.4,0.4-0.5c0.3-0.1,0.5-0.1,0.8-0.1
		c0.1,0,0.2,0,0.3-0.1c0.1,0,0.2,0,0.1,0.1c0,0.2,0,0.4-0.1,0.6C77.1,223.7,76.8,223.9,76.3,223.9C76.3,223.9,76.3,223.9,76.3,223.9
		z"/>
	<path class="st6" d="M89.4,221.7c-0.2,0-0.5,0-0.7,0c-0.2,0-0.2,0-0.1-0.2c0.1-0.2,0.1-0.3,0.3-0.5c0.2-0.2,0.5-0.4,0.9-0.3
		c0.3,0.1,0.5,0.3,0.5,0.6c0,0,0,0.1,0,0.1c0,0.2,0,0.2-0.2,0.2c0,0,0,0,0,0C89.8,221.7,89.6,221.7,89.4,221.7z"/>
	<path class="st6" d="M108.7,222.4c0-0.3,0-0.7,0.1-1c0.1-0.4,0.3-0.7,0.7-0.9c0.4-0.2,0.9-0.2,1.3-0.1c0.3,0.1,0.6,0.3,0.7,0.6
		c0.2,0.3,0.2,0.7,0.3,1.1c0,0.4,0,0.8-0.1,1.1c-0.1,0.4-0.4,0.8-0.8,1c-0.3,0.1-0.7,0.2-1,0.1c-0.3-0.1-0.6-0.2-0.8-0.5
		c-0.1-0.2-0.2-0.3-0.2-0.5C108.8,223,108.8,222.7,108.7,222.4z"/>
	<path class="st6" d="M103.8,224.4c-0.1,0-0.3-0.1-0.5-0.1c-0.3-0.1-0.4-0.5-0.4-0.9c0.1-0.5,0.4-0.6,0.8-0.7
		c0.4-0.1,0.9-0.1,1.3-0.2c0.2,0,0.2,0,0.2,0.2c0,0.2,0,0.4-0.1,0.7c-0.1,0.4-0.3,0.6-0.6,0.8C104.4,224.3,104.1,224.3,103.8,224.4z
		"/>
	<path class="st6" d="M109.8,229.8c0.4,0,0.5,0.3,0.5,0.6c0,0.1,0,0.2,0,0.3c0,0.2-0.2,0.4-0.4,0.5c-0.2,0-0.4-0.1-0.5-0.3
		c-0.1-0.3-0.1-0.6,0.1-0.8C109.4,229.9,109.6,229.8,109.8,229.8z"/>
	<path class="st6" d="M85.3,230.5c0,0.2,0,0.4-0.2,0.6c-0.2,0.1-0.4,0.1-0.5,0.1c-0.1-0.1-0.3-0.2-0.3-0.3c0-0.2,0-0.4,0-0.6
		c0-0.1,0.1-0.3,0.2-0.3c0.2-0.1,0.4-0.1,0.6,0c0.2,0.1,0.2,0.3,0.2,0.5C85.3,230.4,85.3,230.5,85.3,230.5z"/>
	<path class="st6" d="M95.8,230.6c0.1,0,0.2,0.1,0.2,0.1c0,0.1,0,0.2-0.1,0.3c-0.1,0.2-0.4,0.2-0.6,0.2c0,0-0.1-0.1-0.1-0.2
		c0-0.1-0.1-0.2,0.1-0.3C95.5,230.7,95.7,230.7,95.8,230.6z"/>
	<path class="st6" d="M80.4,230.6c0.1,0,0.2,0.1,0.2,0.1c0,0.1,0,0.3-0.1,0.3c-0.1,0.2-0.4,0.2-0.6,0.2c0,0-0.1-0.1-0.1-0.1
		c0-0.1-0.1-0.2,0.1-0.3C80.1,230.7,80.2,230.7,80.4,230.6z"/>
	<path class="st6" d="M74.6,229.8c0.3,0,0.6,0.2,0.5,0.5c0,0.1,0,0.3,0,0.4c0,0.4-0.3,0.5-0.6,0.5c-0.3,0-0.5-0.2-0.5-0.6
		c0-0.1,0-0.2,0-0.3C74.1,230,74.3,229.8,74.6,229.8z"/>
	<path class="st6" d="M107.9,230.5c0,0.1,0,0.2,0,0.3c-0.1,0.3-0.3,0.4-0.6,0.4c-0.4-0.1-0.6-0.5-0.5-0.9c0-0.1,0.1-0.2,0.2-0.3
		c0.1-0.2,0.5-0.2,0.7-0.1c0.2,0.1,0.3,0.3,0.3,0.5C107.9,230.4,107.9,230.5,107.9,230.5C107.9,230.5,107.9,230.5,107.9,230.5z"/>
	<path class="st6" d="M103.4,230.5c0-0.1,0-0.3,0.1-0.4c0.1-0.3,0.4-0.3,0.7-0.2c0.2,0,0.3,0.1,0.3,0.3c0.1,0.3,0.1,0.5,0,0.8
		c0,0.1-0.1,0.2-0.2,0.2c-0.3,0.1-0.6,0.1-0.8-0.3C103.4,230.8,103.4,230.7,103.4,230.5z"/>
	<path d="M39.3,222.6c-0.9,0.1-1.9-0.8-1.9-1.9c0-1.1,0.9-1.9,1.9-1.9c1,0,1.9,0.8,1.9,1.9C41.2,221.7,40.4,222.6,39.3,222.6z"/>
</g>
</svg>
