<svg id="Back" xmlns="http://www.w3.org/2000/svg" viewBox="0 0 351.75 238.36"><title>Spikeling V2-2c Back</title><g id="Text"><text transform="translate(110.54 154.94)" style="font-size:6px;font-family:MyriadPro-Regular, Myriad Pro"><tspan style="letter-spacing:-0.006998697916666667em">T</tspan><tspan x="2.94" y="0">his p</tspan><tspan x="14.74" y="0" style="letter-spacing:-0.010009765625em">r</tspan><tspan x="16.64" y="0">oje</tspan><tspan x="24.4" y="0" style="letter-spacing:0.013020833333333334em">c</tspan><tspan x="27.16" y="0">t is li</tspan><tspan x="38.29" y="0" style="letter-spacing:-0.006022135416666667em">c</tspan><tspan x="40.94" y="0">ensed under the GNU </tspan><tspan x="96.15" y="0" style="letter-spacing:0.0048828125em">G</tspan><tspan x="100.05" y="0">ene</tspan><tspan x="109.39" y="0" style="letter-spacing:-0.0048828125em">r</tspan><tspan x="111.33" y="0">al </tspan><tspan x="116.91" y="0" style="letter-spacing:-0.01513671875em">P</tspan><tspan x="120.01" y="0">ublic Li</tspan><tspan x="137.74" y="0" style="letter-spacing:-0.005859375em">c</tspan><tspan x="140.39" y="0">ense v3.0</tspan><tspan x="38.09" y="7.2" style="letter-spacing:-0.006998697916666667em">T</tspan><tspan x="41.03" y="7.2">he ha</tspan><tspan x="54.86" y="7.2" style="letter-spacing:-0.009928385416666666em">r</tspan><tspan x="56.76" y="7.2">d</tspan><tspan x="60.14" y="7.2" style="letter-spacing:-0.004069010416666667em">w</tspan><tspan x="64.53" y="7.2">a</tspan><tspan x="67.43" y="7.2" style="letter-spacing:-0.009928385416666666em">r</tspan><tspan x="69.33" y="7.2">e is li</tspan><tspan x="81.48" y="7.2" style="letter-spacing:-0.006022135416666667em">c</tspan><tspan x="84.13" y="7.2">ensed under the CERN OHL v1.2</tspan></text><text transform="translate(65.32 43.11)" style="font-size:10px;font-family:MyriadPro-Regular, Myriad Pro">Spikeling 2.2<tspan style="font-size:8px"><tspan x="0" y="21.6" style="letter-spacing:-0.0029296875em">A</tspan><tspan x="4.87" y="21.6">n Open </tspan><tspan x="31.21" y="21.6" style="letter-spacing:0.006103515625em">S</tspan><tspan x="35.21" y="21.6">ou</tspan><tspan x="44.01" y="21.6" style="letter-spacing:-0.010009765625em">r</tspan><tspan x="46.54" y="21.6" style="letter-spacing:-0.0059814453125em">c</tspan><tspan x="50.08" y="21.6">e Ha</tspan><tspan x="64.85" y="21.6" style="letter-spacing:-0.010009765625em">r</tspan><tspan x="67.39" y="21.6">d</tspan><tspan x="71.9" y="21.6" style="letter-spacing:-0.0040283203125em">w</tspan><tspan x="77.76" y="21.6">a</tspan><tspan x="81.61" y="21.6" style="letter-spacing:-0.010009765625em">r</tspan><tspan x="84.15" y="21.6">e impleme</tspan><tspan x="119.52" y="21.6" style="letter-spacing:-0.0040283203125em">n</tspan><tspan x="123.93" y="21.6">t</tspan><tspan x="126.58" y="21.6" style="letter-spacing:-0.00390625em">a</tspan><tspan x="130.41" y="21.6">tion of a spi</tspan><tspan x="169.02" y="21.6" style="letter-spacing:0.0169677734375em">k</tspan><tspan x="172.91" y="21.6">ing neu</tspan><tspan x="198.24" y="21.6" style="letter-spacing:-0.010009765625em">r</tspan><tspan x="200.78" y="21.6">on </tspan><tspan x="0" y="31.2" style="letter-spacing:-0.012939453125em">f</tspan><tspan x="2.23" y="31.2">or neu</tspan><tspan x="23.79" y="31.2" style="letter-spacing:-0.010009765625em">r</tspan><tspan x="26.33" y="31.2">oscien</tspan><tspan x="47.79" y="31.2" style="letter-spacing:-0.0059814453125em">c</tspan><tspan x="51.33" y="31.2">e </tspan><tspan x="57.03" y="31.2" style="letter-spacing:-0.0059814453125em">t</tspan><tspan x="59.63" y="31.2">eaching and out</tspan><tspan x="113.95" y="31.2" style="letter-spacing:-0.010009765625em">r</tspan><tspan x="116.49" y="31.2">each</tspan></tspan><tspan style="font-size:6px"><tspan x="105.01" y="57.6" style="letter-spacing:-0.06005859375em">T</tspan><tspan x="107.63" y="57.6">. Baden, M.</tspan><tspan x="134.59" y="57.6" style="letter-spacing:-0.011881510416666666em">J</tspan><tspan x="136.74" y="57.6">.Y Zimme</tspan><tspan x="160.23" y="57.6" style="letter-spacing:0.00390625em">r</tspan><tspan x="162.22" y="57.6">mann, A.M. Chagas</tspan><tspan x="133.16" y="64.8" style="letter-spacing:-0.011067708333333334em">C</tspan><tspan x="136.57" y="64.8" style="letter-spacing:-0.0068359375em">o</tspan><tspan x="139.82" y="64.8" style="letter-spacing:-0.010091145833333334em">v</tspan><tspan x="142.65" y="64.8">er desi</tspan><tspan x="159.06" y="64.8" style="letter-spacing:-0.006022135416666667em">g</tspan><tspan x="162.37" y="64.8">ned </tspan><tspan x="173.37" y="64.8" style="letter-spacing:-0.006998697916666667em">b</tspan><tspan x="176.74" y="64.8">y A. </tspan><tspan x="187.02" y="64.8" style="letter-spacing:0.004069010416666667em">B</tspan><tspan x="190.3" y="64.8">e</tspan><tspan x="193.3" y="64.8" style="letter-spacing:-0.009928385416666666em">r</tspan><tspan x="195.21" y="64.8">enger</tspan></tspan></text></g><g id="Logos"><path id="OSH_Logo" data-name="OSH Logo" d="M161.56,217.61V214a1.32,1.32,0,0,1,.36-.21c1-.2,2-.39,3-.55a.74.74,0,0,0,.63-.5c.26-.64.52-1.29.82-1.91a.85.85,0,0,0-.11-1c-.57-.79-1.1-1.6-1.66-2.39a.4.4,0,0,1,0-.61q1.1-1.07,2.17-2.17a.4.4,0,0,1,.61-.06c.83.59,1.67,1.15,2.49,1.73a.8.8,0,0,0,.83.13l2-.82a.63.63,0,0,0,.42-.52c.19-1.06.4-2.12.59-3.19a.33.33,0,0,1,.38-.33h3.19c.23,0,.35.07.39.32.17,1,.37,2,.53,2.95a1,1,0,0,0,.7.86c.6.21,1.18.47,1.76.72a.74.74,0,0,0,.78-.07L184,204.7c.34-.23.39-.24.67.05l2.08,2.08c.32.32.32.36.07.72L185.18,210a.63.63,0,0,0-.12.66l1,2.22a.65.65,0,0,0,.54.39l3,.55a.39.39,0,0,1,.38.45c0,1,0,2,0,3,0,.38-.07.44-.45.51l-2.8.51a.78.78,0,0,0-.64.54c-.26.71-.54,1.41-.84,2.1a.76.76,0,0,0,.08.82c.56.78,1.09,1.59,1.64,2.37a.36.36,0,0,1-.05.55c-.71.7-1.4,1.41-2.1,2.11-.34.34-.39.34-.78.07-.73-.51-1.47-1-2.19-1.52a.64.64,0,0,0-.84,0,6.22,6.22,0,0,1-.65.35c-.4.22-.4.22-.58-.22q-1.07-2.59-2.15-5.18c-.34-.82-.31-.63.31-1.07a4,4,0,0,0-2.92-7.29,4,4,0,0,0-3.14,4.8,4.07,4.07,0,0,0,2,2.66c.26.16.33.31.2.6-.25.54-.46,1.09-.69,1.64-.55,1.32-1.1,2.64-1.63,4-.1.25-.21.32-.45.16s-.52-.25-.75-.41a.64.64,0,0,0-.81,0c-.75.53-1.51,1-2.27,1.57a.43.43,0,0,1-.64-.05q-1.06-1.08-2.15-2.15a.42.42,0,0,1-.05-.63c.56-.78,1.09-1.58,1.64-2.37a.68.68,0,0,0,.09-.71q-.45-1.07-.86-2.16a.83.83,0,0,0-.7-.56c-.93-.16-1.87-.33-2.8-.51A1.92,1.92,0,0,1,161.56,217.61Z" transform="translate(0.13 0.13)"/><g id="ON_Logo" data-name="ON Logo"><path d="M237.49,223.22q.07-2.82.15-5.64c0-.5,0-1,.07-1.5a3.24,3.24,0,0,1,2.71-2.91,3.65,3.65,0,0,1,4.11,1.7,4.16,4.16,0,0,1-.54,4.58,3.32,3.32,0,0,1-4,.36,1.85,1.85,0,0,0-.41,0V223c-.5.13-1.07-.17-1.52.24Zm5.54-6.5a1.86,1.86,0,0,0-1.63-2,1.89,1.89,0,0,0-1.85,2,1.94,1.94,0,0,0,1.66,2A1.82,1.82,0,0,0,243,216.72Z" transform="translate(0.13 0.13)"/><path d="M261.16,223.22a3.32,3.32,0,0,1-2-3c0-.61.15-1.11.82-1.19s.95.33,1,1a1.68,1.68,0,0,0,1.14,1.64,1.52,1.52,0,0,0,1.54-.64,1.4,1.4,0,0,0,.28-1.06c0-.62.29-1,.9-.93s.83.44.87,1c.1,1.37-.6,2.38-2.28,3.2Z" transform="translate(0.13 0.13)"/><path d="M238,223.22c.46-.41,1-.12,1.52-.24a.28.28,0,0,1,0,.24Z" transform="translate(0.13 0.13)"/><path d="M292.62,216.72a3.64,3.64,0,0,1,3.74-3.73,3.71,3.71,0,1,1-.09,7.43A3.64,3.64,0,0,1,292.62,216.72Zm5.55.06a1.76,1.76,0,0,0-1.79-2,1.73,1.73,0,0,0-1.82,1.9,1.77,1.77,0,0,0,1.76,2A1.83,1.83,0,0,0,298.17,216.78Z" transform="translate(0.13 0.13)"/><path d="M228.92,216.54a3.65,3.65,0,0,1,3.73-3.61,3.71,3.71,0,1,1-.09,7.42A3.59,3.59,0,0,1,228.92,216.54Zm5.54.15a1.94,1.94,0,0,0-1.85-2,1.83,1.83,0,0,0-1.77,2,1.81,1.81,0,0,0,1.83,2A1.84,1.84,0,0,0,234.46,216.69Z" transform="translate(0.13 0.13)"/><path d="M340.92,217.34c.68,1.37,1.76,1.18,2.7,1.11,1.13-.09,1.11.55,1,1.31a.43.43,0,0,1-.49.44,8.05,8.05,0,0,1-3.34-.35,3.59,3.59,0,0,1-1.66-5,3.55,3.55,0,0,1,4.78-1.42,3.73,3.73,0,0,1,1.57,3.47c-.13.57-.54.43-.88.44C343.46,217.35,342.26,217.34,340.92,217.34Zm1.28-1.18c.35-.32,1.19.35,1.27-.46s-.64-1-1.32-1-1.26.35-1.23,1S341.71,215.94,342.2,216.15Z" transform="translate(0.13 0.13)"/><path d="M275.89,220.2c-3,0-4.54-1.62-4.18-4.31.26-1.91,1.85-3,4.06-2.77a3.21,3.21,0,0,1,2.67,3.54c0,.57-.32.69-.81.68q-1.51,0-3,0c-.22,0-.54-.09-.62.24s.2.43.39.57a3.18,3.18,0,0,0,1.94.31c.59,0,1.24-.21,1.26.85s-.6.88-1.21.88Zm-.74-4.06c.41-.23,1.19.31,1.23-.41s-.59-1.08-1.31-1.06-1.28.41-1.24,1C273.89,216.53,274.72,215.87,275.15,216.14Z" transform="translate(0.13 0.13)"/><path d="M319.31,217.33c.69,1.3,1.7,1.14,2.64,1.13.65,0,1.2-.1,1.19.92s-.57.82-1.14.82a7.25,7.25,0,0,1-2.36-.22,3.58,3.58,0,0,1-2.24-4.65,3.52,3.52,0,0,1,4.64-2.07,3.59,3.59,0,0,1,2,3.49c-.08.62-.48.58-.91.58Zm1.35-1.18c.41-.29,1.26.39,1.28-.49,0-.58-.59-1-1.26-1s-1.29.31-1.3.94C319.38,216.54,320.24,215.87,320.67,216.15Z" transform="translate(0.13 0.13)"/><path d="M250.06,220.2c-3.35,0-5.22-2.51-3.92-5.24a3.39,3.39,0,0,1,6.46,1.7c0,.6-.33.68-.8.68q-1.51,0-3,0c-.23,0-.55-.09-.66.2s.23.48.46.65a3.05,3.05,0,0,0,1.83.28c.6,0,1.24-.19,1.25.87s-.63.86-1.23.87Zm-.87-4.07c.42-.24,1.22.37,1.32-.43a1,1,0,0,0-1.13-1c-.73,0-1.44.32-1.42,1.07S248.77,215.93,249.19,216.13Z" transform="translate(0.13 0.13)"/><path d="M303.64,220.36c-.38,0-.76,0-1.13,0-.65,0-1.09,0-1.1-.89s.34-1.07,1.11-1,1.43,0,2.14,0c.31,0,.61-.06.58-.47s-.28-.37-.55-.39a17.22,17.22,0,0,1-1.88-.14,1.76,1.76,0,0,1-1.66-2.11,2,2,0,0,1,1.89-2c.92-.06,1.85,0,2.77,0,.56,0,.84.12.85.76s-.24.9-.88.86-1.34,0-2,0c-.31,0-.6.15-.56.53s.28.39.55.4c.5,0,1,0,1.51,0a1.92,1.92,0,0,1,2,2,2.18,2.18,0,0,1-1.88,2.42,12.68,12.68,0,0,1-1.76,0Z" transform="translate(0.13 0.13)"/><path d="M279.75,215.87c0-.55,0-1.09,0-1.64-.07-.76.21-1,1-1s.91.33.89,1c0,.92,0,1.85,0,2.77s.49,1.66,1.5,1.69,1.42-.75,1.46-1.68a28,28,0,0,0,0-2.89c-.05-.81.37-.87,1-.86s1.07,0,1,.85,0,1.93,0,2.89a3.25,3.25,0,0,1-3.5,3.44c-2.11,0-3.3-1.29-3.31-3.54C279.75,216.54,279.75,216.21,279.75,215.87Z" transform="translate(0.13 0.13)"/><path d="M332.08,217.81c0,.42,0,.84,0,1.26,0,.68,0,1.18-.95,1.17s-1-.36-1-1.11,0-1.76,0-2.64a1.5,1.5,0,0,0-1.46-1.7c-1-.08-1.4.7-1.48,1.53a19.73,19.73,0,0,0,0,3c0,.77-.3.87-1,.89s-1-.21-.92-.93c.05-1.09,0-2.18,0-3.26a2.84,2.84,0,0,1,2.84-2.9c2.11-.16,3.5.7,3.79,2.43a19.48,19.48,0,0,1,.14,2.25Z" transform="translate(0.13 0.13)"/><path d="M270.43,217.35c0,.55,0,1.09,0,1.63a.91.91,0,0,1-1,.91.89.89,0,0,1-.89-.9c-.05-.88,0-1.76,0-2.64s-.3-1.64-1.29-1.69a1.37,1.37,0,0,0-1.55,1.55c0,.63-.25,1.09-1,1s-.92-.61-.88-1.27a3.33,3.33,0,0,1,6.61-.14c0,.5,0,1,0,1.51Z" transform="translate(0.13 0.13)"/><path d="M254.4,217.22c0-.5,0-1,0-1.51a3.15,3.15,0,0,1,3.56-2.78,3,3,0,0,1,3,3.06c0,.58-.06,1.14-.79,1.2s-1-.29-1-1c-.12-.93-.47-1.77-1.65-1.61s-1.35,1-1.31,1.95c0,.75,0,1.51,0,2.26s-.22,1-.85,1a.88.88,0,0,1-.92-1C254.38,218.31,254.39,217.76,254.4,217.22Z" transform="translate(0.13 0.13)"/><path d="M308.21,216.54a3.65,3.65,0,0,1,4-3.38c.65.09.57.47.58.88s0,.86-.61.84a1.79,1.79,0,0,0-1.94,1.07,1.71,1.71,0,0,0,1.68,2.49c.76,0,.87.32.89,1s-.33.79-.91.79A3.52,3.52,0,0,1,308.21,216.54Z" transform="translate(0.13 0.13)"/><path d="M337,220.2a3.47,3.47,0,0,1-3.65-3.62,3.55,3.55,0,0,1,3.76-3.41c.56,0,.87.1.83.75s0,.93-.74,1c-1.27.08-2.05.85-2,1.82a1.69,1.69,0,0,0,2,1.74c.84-.06.7.52.69,1C337.95,220.21,337.93,220.21,337,220.2Z" transform="translate(0.13 0.13)"/><path d="M290.67,213.24c.48.14,1.38-.4,1.38.8,0,.62-.14,1-.83.87-1.11-.16-1.37.44-1.32,1.41s0,1.84,0,2.76c0,.68,0,1.15-.94,1.16s-.87-.62-.87-1.22c0-1.09,0-2.17,0-3.26C288.1,213.72,288.57,213.25,290.67,213.24Z" transform="translate(0.13 0.13)"/><path d="M316,216.77c0,.79,0,1.59,0,2.38s-.17,1.08-1,1.09-1-.36-1-1.1c0-1.67,0-3.34,0-5,0-.75.27-.92.95-.9s1.14,0,1.07.92S316,215.9,316,216.77Z" transform="translate(0.13 0.13)"/><path d="M316.28,211.24c-.14.75-.5,1.19-1.26,1.18a1.07,1.07,0,0,1-1.17-1.17,1.09,1.09,0,0,1,1.21-1.14C315.86,210.12,316.1,210.66,316.28,211.24Z" transform="translate(0.13 0.13)"/></g><g id="BadenLab_Logo" data-name="BadenLab Logo"><path d="M29.75,228.3V207.73H115.5q0,10.28,0,20.57Zm32.84-15.89a2.18,2.18,0,0,0-.29.1l-1.13.6-.94.47-.85.44-.9.45-.86.44-.68.34-.59.31-.65.32c-.2.1-.39.22-.59.31a.23.23,0,0,1-.2,0c-.28-.21-.55-.44-.83-.65-.49-.37-1-.74-1.49-1.09-.34-.24-.68-.46-1-.69s-.76-.5-1.15-.74-.63-.37-1-.54l-.89-.49-.88-.44L47,211.2a.18.18,0,0,0-.17,0,.19.19,0,0,0,0,.17c.18.41.38.81.57,1.21a3,3,0,0,1,.18.52c.06.24.08.49.14.73a6,6,0,0,1,.11,1.56,1.64,1.64,0,0,1,0,.46,9,9,0,0,1-.19,1c-.13.3-.17.65-.3,1a6.39,6.39,0,0,1-.88,1.53c-.25.3-.49.6-.76.88a5.57,5.57,0,0,1-1.23,1,7.66,7.66,0,0,1-1,.54,4.46,4.46,0,0,1-1,.32c-.35,0-.68.17-1,.21a7.22,7.22,0,0,1-2.15-.11l-.24-.05-.68-.21a6.79,6.79,0,0,1-.75-.28c-.28-.14-.55-.3-.82-.47a6,6,0,0,1-1.49-1.27,12.27,12.27,0,0,1-.86-1.19,4,4,0,0,1-.32-.62c-.1-.24-.2-.49-.28-.73a4.13,4.13,0,0,1-.19-.58c-.07-.32-.11-.65-.15-1,0-.1,0-.2,0-.29s-.07-.1-.1-.1a.7.7,0,0,0-.25.11l-.91.73a3.36,3.36,0,0,0-.85,1,.31.31,0,0,0,0,.33,1.73,1.73,0,0,0,1,.69s-.07,0-.1.06c-.21.14-.43.27-.63.43a.58.58,0,0,0-.14.81c.12.21.22.43.35.64a7.89,7.89,0,0,0,.6.91,12.74,12.74,0,0,0,1.07,1.15,10.07,10.07,0,0,0,1.07.86,7.29,7.29,0,0,0,.88.51c.33.17.66.32,1,.47a2.63,2.63,0,0,0,.4.15l.62.14a9.11,9.11,0,0,0,1.07.23,11.79,11.79,0,0,0,1.46,0,8,8,0,0,0,1.74-.11c.29-.07.58-.09.87-.14s.38-.09.57-.14h.08l.34-.07.56-.17.6-.17.4-.14.48-.21c.34-.14.68-.28,1-.43s.59-.31.89-.46.57-.28.84-.44c.45-.27.89-.55,1.32-.84s.83-.58,1.23-.89.75-.6,1.11-.91c.51-.45,1-.89,1.51-1.37s.9-.94,1.35-1.41c.14-.15.16-.15.32,0,.47.35.92.71,1.38,1.06l1.43,1.1.94.73.81.6s.1,0,.12,0a.14.14,0,0,0,0-.12c0-.16-.1-.32-.15-.47s-.23-.6-.33-.9-.2-.63-.3-.94a2.36,2.36,0,0,0-.15-.41.47.47,0,0,1,.09-.68l.1-.1,1-1.2,1.26-1.41c.34-.38.67-.76,1-1.13A.3.3,0,0,0,62.59,212.41Zm-21.94-3.28a5.79,5.79,0,0,0-4.41,2,5.65,5.65,0,0,0-1.5,3.43,5.91,5.91,0,1,0,5.91-5.39Zm31.27,4.8a1.9,1.9,0,0,0,.24-.12A2.08,2.08,0,0,0,73,213a1.45,1.45,0,0,0,.18-.91,2.57,2.57,0,0,0-.18-.6,1.5,1.5,0,0,0-.69-.7,3.27,3.27,0,0,0-.3-.14,2.35,2.35,0,0,0-.57-.18c-.46,0-.93-.06-1.4-.07h-2.1c-.28,0-.32,0-.32.32q0,3.55,0,7.1c0,.28,0,.33.33.33h2.64a4.14,4.14,0,0,0,1.44-.25,2.43,2.43,0,0,0,1-.73,1.43,1.43,0,0,0,.27-.42,2.64,2.64,0,0,0,.18-.88,1.7,1.7,0,0,0-.34-1.12A1.8,1.8,0,0,0,72,214S72,214,71.92,213.93Zm12,3.57c0,.09,0,.15,0,.22,0,.36,0,.41.34.4h1.24c.24,0,.27,0,.27-.28q0-3.83,0-7.66c0-.23,0-.28-.28-.28h-1.3c-.21,0-.28.06-.27.28,0,.89,0,1.79,0,2.68a.52.52,0,0,1,0,.13,2.24,2.24,0,0,0-.17-.16,2.58,2.58,0,0,0-.35-.24,2.26,2.26,0,0,0-1.43-.11,2.15,2.15,0,0,0-1.2.71,2.93,2.93,0,0,0-.73,1.6,6.55,6.55,0,0,0,0,1.17,2.13,2.13,0,0,0,.09.42,1.59,1.59,0,0,0,.08.32,4.11,4.11,0,0,0,.36.64,2,2,0,0,0,.47.48,2.39,2.39,0,0,0,1.11.4,2.06,2.06,0,0,0,1.29-.3A5.49,5.49,0,0,0,83.88,217.5Zm10.83-4.31h0c0-.11,0-.22,0-.33,0-.31,0-.35-.34-.35h-1.2c-.29,0-.34.06-.34.34q0,2.49,0,5c0,.25,0,.29.3.29h1.33c.22,0,.26,0,.26-.26,0-1,0-2,0-2.95a1,1,0,0,1,.68-1,.77.77,0,0,1,.74.17,1.1,1.1,0,0,1,.27.73c0,1,0,2,0,3a1.39,1.39,0,0,0,0,.15.2.2,0,0,0,.22.2H98c.21,0,.25-.06.25-.26,0-1,0-2,0-3a3.92,3.92,0,0,0-.21-1.36,1.55,1.55,0,0,0-.78-.89,1.52,1.52,0,0,0-.49-.15,7,7,0,0,0-.72,0,1.56,1.56,0,0,0-1,.37A4.69,4.69,0,0,0,94.71,213.19Zm-17.44,4.34h0c0,.11,0,.22,0,.33s0,.25.25.25h1.22c.24,0,.29-.05.29-.29,0-1.13.06-2.27-.05-3.41a2.17,2.17,0,0,0-.48-1.28,1.89,1.89,0,0,0-1.4-.67c-.31,0-.62,0-.94,0a3.93,3.93,0,0,0-.63.1c-.23.05-.45.12-.68.18s-.36.18-.36.34c0,.36,0,.71,0,1.07,0,.11.05.15.16.13a.53.53,0,0,0,.17-.06,2.74,2.74,0,0,1,.87-.38,2.57,2.57,0,0,1,1-.07.66.66,0,0,1,.59.52c0,.08,0,.13-.09.14s-.41.09-.62.11a4.64,4.64,0,0,0-1.67.39,1.58,1.58,0,0,0-.69.65,1.93,1.93,0,0,0-.23,1,1.8,1.8,0,0,0,.29.91,1.57,1.57,0,0,0,1.1.69,1.88,1.88,0,0,0,1.63-.44Zm12.92-1.6h1.25a1.77,1.77,0,0,0,.38,0,.2.2,0,0,0,.13-.14,4,4,0,0,0-.33-2.1,2.23,2.23,0,0,0-1.49-1.16,1.81,1.81,0,0,0-.46,0,5.11,5.11,0,0,0-.92,0,2.29,2.29,0,0,0-1.13.57,2.77,2.77,0,0,0-.68.86,3,3,0,0,0-.27.89,5.78,5.78,0,0,0,0,.88,4.25,4.25,0,0,0,.09.54,2.06,2.06,0,0,0,.34.84,2.17,2.17,0,0,0,1,.83,4.19,4.19,0,0,0,1,.28,4.89,4.89,0,0,0,1,0,3.72,3.72,0,0,0,.72-.14c.19-.05.36-.16.55-.21a.2.2,0,0,0,.17-.23c0-.31,0-.63,0-.94s-.08-.29-.29-.17a2.33,2.33,0,0,1-1.27.34,2.4,2.4,0,0,1-.38,0,2.81,2.81,0,0,1-.57-.19.86.86,0,0,1-.41-.53.24.24,0,0,1,0-.17s.1,0,.16,0h1.51Zm18.56-2.7a.42.42,0,0,1,0-.11c0-.1,0-.19,0-.29,0-.63,0-1.26,0-1.88,0-.26,0-.52,0-.79s-.06-.24-.22-.25h-.62a.19.19,0,0,0-.21.22q0,3.88,0,7.77c0,.17,0,.22.22.22h.51c.29,0,.36-.09.31-.38,0-.06,0-.12,0-.18l0,0,.1.1a2.23,2.23,0,0,0,.39.32,2.16,2.16,0,0,0,1.28.27,2.45,2.45,0,0,0,1.17-.42,2.69,2.69,0,0,0,1-1.47,4,4,0,0,0,.15-1.09,3.57,3.57,0,0,0-.13-1.11,2.7,2.7,0,0,0-.57-1,1.83,1.83,0,0,0-1.06-.6,3.94,3.94,0,0,0-1,0,1.49,1.49,0,0,0-.61.18A8,8,0,0,0,108.75,213.23Zm-3.53,4.22c0,.1,0,.15,0,.2s0,.15,0,.23.06.24.25.24H106c.25,0,.28,0,.28-.27,0-1.11,0-2.21,0-3.32a2.72,2.72,0,0,0-.25-1.19,1.51,1.51,0,0,0-1.07-.84,4,4,0,0,0-1.32,0,1,1,0,0,0-.29.05l-.82.34a.26.26,0,0,0-.18.27c0,.19,0,.38,0,.57s0,.25.25.15l.07-.05a2.19,2.19,0,0,1,.9-.43,3.75,3.75,0,0,1,.9,0,.7.7,0,0,1,.55.34,2,2,0,0,1,.19.72c0,.07,0,.12-.1.14s-.41.1-.62.11a6.14,6.14,0,0,0-1.53.29,1.73,1.73,0,0,0-.78.52,1.85,1.85,0,0,0-.19,1.9,1.17,1.17,0,0,0,.15.24,1.79,1.79,0,0,0,1.23.61,1.94,1.94,0,0,0,1.47-.42C105,217.7,105.07,217.59,105.22,217.45Zm-4.74-4q0-1.61,0-3.21a.67.67,0,0,0,0-.23c0-.05-.08-.12-.12-.12-.24,0-.49,0-.74,0a.16.16,0,0,0-.17.19c0,.13,0,.26,0,.4q0,2.87,0,5.74c0,.06,0,.11,0,.17a2.31,2.31,0,0,0,.16,1.05,1.19,1.19,0,0,0,.82.65,1.82,1.82,0,0,0,.79,0c.19,0,.24-.06.24-.26s0-.32,0-.48a.14.14,0,0,0-.16-.16h-.37a.48.48,0,0,1-.21-.05.46.46,0,0,1-.22-.43Q100.48,215.12,100.48,213.5Zm10.28,10.12h0c0-.3,0-.61,0-.91s-.08-.33-.33-.29c0,0-.09.05-.13.06s-.11,0-.14,0a.88.88,0,0,0-1.18.26,1.29,1.29,0,0,0-.17,1.32.83.83,0,0,0,.88.6.65.65,0,0,0,.42-.12s.13-.09.15,0a.52.52,0,0,1-.38.52,1.36,1.36,0,0,1-.85-.1.16.16,0,0,0-.15,0,.32.32,0,0,0,.11.42,1.51,1.51,0,0,0,1.22,0,.85.85,0,0,0,.53-.77C110.77,224.34,110.76,224,110.76,223.62Zm-25.52.86a.32.32,0,0,0,.4.15.28.28,0,0,0,.13-.21c0-.92,0-1.84,0-2.76a.17.17,0,0,0-.17-.2c-.24,0-.31,0-.32.15s0,.51,0,.77a.26.26,0,0,1,0,.13s-.08,0-.11,0a.94.94,0,0,0-1.35.64,1.5,1.5,0,0,0,.11,1.15.74.74,0,0,0,.59.39A.87.87,0,0,0,85.24,224.48Zm-14.45,0c.12.07.24.18.36.18a1.47,1.47,0,0,0,.85-.09.59.59,0,0,0,.18-.95,1.57,1.57,0,0,0-.61-.33c-.13,0-.23-.18-.21-.28s.15-.15.26-.15a2.8,2.8,0,0,1,.44.05c.18,0,.21,0,.22-.17a.26.26,0,0,0-.19-.28,1.06,1.06,0,0,0-1,.13.58.58,0,0,0-.07.9,4.67,4.67,0,0,0,.59.31.79.79,0,0,1,.19.13c.07.07,0,.26-.05.29a.86.86,0,0,1-.64-.06c-.17-.09-.22-.08-.33.08-.42-.06-.37,0-.37-.42s0-.76,0-1.14a.3.3,0,0,0-.12-.22c-.23-.11-.41.05-.4.3s0,.69,0,1a1.22,1.22,0,0,0,.12.64.53.53,0,0,0,.44.26C70.61,224.68,70.75,224.65,70.79,224.47Zm19.94,0c.1.07.17.15.26.17a2.55,2.55,0,0,0,.7,0,.7.7,0,0,0,.52-.34.63.63,0,0,0-.38-.91l-.38-.16a.21.21,0,0,1-.13-.29.28.28,0,0,1,.22-.11,2.77,2.77,0,0,1,.52.07c.09,0,.13,0,.15-.08a.31.31,0,0,0-.26-.42,1.1,1.1,0,0,0-.85.1.61.61,0,0,0-.3.73.74.74,0,0,0,.4.41c.15.08.32.13.47.22a.26.26,0,0,1,.09.2s-.08.11-.14.13a.83.83,0,0,1-.61-.07c-.1,0-.21-.11-.28.05s0,0-.06,0c-.27,0-.35-.07-.35-.34,0-.42,0-.84,0-1.27a.24.24,0,0,0-.07-.17.27.27,0,0,0-.43.24c0,.38,0,.75,0,1.13a1.26,1.26,0,0,0,.11.55.54.54,0,0,0,.46.31A.27.27,0,0,0,90.73,224.45Zm8.48-1.32c0,.44,0,.88,0,1.33,0,.13.05.19.18.18h1.25c.17,0,.2-.06.21-.27s-.06-.2-.2-.2h-.82c-.09,0-.16,0-.15-.14s0-.35,0-.52,0-.18.15-.18h.71c.14,0,.18-.12.18-.24s0-.21-.16-.22-.45,0-.67,0-.22,0-.2-.21a1.77,1.77,0,0,0,0-.4c0-.11,0-.15.13-.15h.73c.2,0,.25-.07.25-.25s-.06-.24-.26-.24H99.42c-.18,0-.21,0-.21.2Q99.21,222.47,99.21,223.13Zm-30.74.68h0l-.16-.49c-.12-.35-.24-.69-.37-1s-.15-.39-.23-.58a.36.36,0,0,0-.42-.07.32.32,0,0,0,0,.26c.05.18.14.35.2.52s.1.32.15.48l.17.46c.12.32.24.64.34,1s.15.32.3.32.34,0,.42-.29.24-.67.36-1l.15-.38.25-.69a3.75,3.75,0,0,0,.14-.4.29.29,0,0,0,0-.23c-.1-.11-.4,0-.45.12s-.17.5-.26.75l-.39,1.09A2.24,2.24,0,0,1,68.47,223.81Zm20,0h-.08c0-.13-.07-.26-.12-.39-.13-.38-.26-.76-.4-1.14-.07-.18-.14-.36-.22-.54a.36.36,0,0,0-.42-.09c-.09.05-.09.15,0,.31s.23.59.34.88.11.37.18.55.23.65.36,1a.5.5,0,0,0,.19.26.34.34,0,0,0,.49-.23c.07-.19.13-.39.2-.58l.37-1,.18-.47.18-.48c0-.09,0-.19-.06-.24a.4.4,0,0,0-.39.07,2.32,2.32,0,0,0-.14.31l-.45,1.3C88.56,223.46,88.49,223.62,88.43,223.79Zm8.09,0h0c0-.27,0-.54,0-.81a.52.52,0,0,0-.24-.43,1.07,1.07,0,0,0-1-.08c-.19.06-.31.16-.29.37A.24.24,0,0,0,95,223s.12,0,.18,0a1.53,1.53,0,0,1,.29-.11,1.08,1.08,0,0,1,.41,0c.05,0,.09.13.11.2s0,.08-.08.09a4.79,4.79,0,0,1-.51.1.77.77,0,0,0-.69.74.73.73,0,0,0,1.11.57c.09,0,.16-.08.26,0a.25.25,0,0,0,.42-.17C96.53,224.21,96.52,224,96.52,223.78Zm-15.43,0c0-.2,0-.39,0-.59,0-.44-.14-.68-.51-.78a1.08,1.08,0,0,0-.81.06c-.12.06-.26.1-.24.27a2.49,2.49,0,0,0,.05.25,1.32,1.32,0,0,0,.23-.07.81.81,0,0,1,.62-.06c.06,0,.1.14.15.21l-.16.1-.1,0a2.31,2.31,0,0,0-.7.2.87.87,0,0,0-.32.62.74.74,0,0,0,1.12.55.21.21,0,0,1,.22,0,.51.51,0,0,0,.34,0c.05,0,.09-.16.1-.25S81.08,224,81.08,223.78Zm-6.47.88v.05a3.68,3.68,0,0,0,.51-.16,1,1,0,0,0,.51-.64,1.51,1.51,0,0,0,0-.74,1,1,0,0,0-1.39-.74,1.05,1.05,0,0,0-.71.82,1.21,1.21,0,0,0,.23,1.07A.82.82,0,0,0,74.62,224.66Zm32.77,0v0a4.62,4.62,0,0,0,.51-.16.91.91,0,0,0,.52-.62,1.38,1.38,0,0,0-.11-1.06,1.05,1.05,0,0,0-1.35-.41,1.07,1.07,0,0,0-.61.68,1.15,1.15,0,0,0,.13,1.07A.88.88,0,0,0,107.38,224.67Zm-3.39,0a.84.84,0,0,0,.78-.33,1.54,1.54,0,0,0,.24-.45,1.18,1.18,0,0,0-.34-1.28,1,1,0,0,0-1.11-.14.94.94,0,0,0-.64.86,1.73,1.73,0,0,0,.06.73A.93.93,0,0,0,104,224.67Zm8-.78h0l0-.07c-.14-.39-.28-.79-.4-1.18-.07-.23-.07-.24-.33-.24s-.25,0-.19.25.11.34.18.5c.15.37.29.74.45,1.1a.78.78,0,0,1-.1.74c-.09.15-.25.11-.39.13a.18.18,0,0,0-.12.1.45.45,0,0,0,0,.23.17.17,0,0,0,.11.1.67.67,0,0,0,.77-.34c.19-.35.34-.72.49-1.08s.22-.57.33-.85.18-.43.27-.65,0-.22-.15-.22-.32.06-.4.29-.19.56-.29.84C112.13,223.66,112.08,223.77,112,223.89Zm-35.48-1.27a.83.83,0,0,0,0-.12c-.08-.15-.22-.08-.33-.08s-.12.1-.12.16c0,.63,0,1.25,0,1.88a.21.21,0,0,0,.09.16c.23.1.4,0,.4-.27s0-.7,0-1a.47.47,0,0,1,.44-.46c.34,0,.37.15.42.43a.7.7,0,0,1,0,.12c0,.33,0,.67,0,1a.3.3,0,0,0,.1.22.27.27,0,0,0,.42-.24c0-.32,0-.64,0-1a3,3,0,0,0-.11-.61.78.78,0,0,0-.61-.43A.94.94,0,0,0,76.55,222.62Zm5.52-.05h0l0,0c-.07-.18-.23-.1-.35-.1s-.11.12-.11.18c0,.61,0,1.22,0,1.84a.23.23,0,0,0,.09.18c.22.11.4,0,.4-.26s0-.67,0-1a.55.55,0,0,1,.19-.42.41.41,0,0,1,.43-.07.41.41,0,0,1,.2.24,1.19,1.19,0,0,1,0,.38c0,.31,0,.63,0,.94a.27.27,0,0,0,.09.19.27.27,0,0,0,.42-.21,10.64,10.64,0,0,0,0-1.34.72.72,0,0,0-.87-.68A2.38,2.38,0,0,0,82.07,222.57Zm12.36,1c0-.31,0-.62,0-.93a.22.22,0,0,0-.09-.17c-.25-.1-.4,0-.4.28s0,.75,0,1.13a.46.46,0,0,1,0,.17c-.08.17-.25.25-.54.2a.24.24,0,0,1-.22-.25q0-.59,0-1.18a.82.82,0,0,0,0-.2c0-.15-.11-.18-.33-.16s-.17.11-.17.22c0,.47,0,.93.06,1.4a.75.75,0,0,0,1.15.55.16.16,0,0,1,.21,0,.51.51,0,0,0,.35,0s.08-.14.08-.22C94.43,224.11,94.43,223.81,94.43,223.52Zm7.68,1.15a1.13,1.13,0,0,0,.26,0c.26-.06.43-.15.4-.42,0-.11-.06-.15-.16-.11a2.57,2.57,0,0,1-.36.1c-.26,0-.63-.06-.64-.41a3.37,3.37,0,0,1,0-.55.47.47,0,0,1,.47-.42c.16,0,.32.05.48.07s.15,0,.17,0a.33.33,0,0,0-.2-.46,1.29,1.29,0,0,0-.84.06,1.23,1.23,0,0,0-.61,1.48A1,1,0,0,0,102.11,224.67Zm-4.59-1.8c0-.39,0-.77,0-1.16,0-.13,0-.24-.18-.25s-.29,0-.33.2a.62.62,0,0,0,0,.12c0,.79,0,1.58,0,2.37a.56.56,0,0,0,.69.49c.15,0,.17-.15.17-.29s-.07-.17-.18-.17-.2-.09-.19-.24C97.52,223.6,97.51,223.23,97.51,222.87Zm7.94,0c0,.35,0,.7,0,1a1.94,1.94,0,0,0,.06.44.54.54,0,0,0,.67.33.24.24,0,0,0,.15-.26.16.16,0,0,0-.18-.18c-.19,0-.2-.13-.21-.26a1.61,1.61,0,0,1,0-.17c0-.7,0-1.4,0-2.1,0-.18-.05-.21-.26-.21s-.24,0-.24.21C105.45,222.05,105.45,222.44,105.45,222.82Zm-32.33.49c0-.23,0-.45,0-.68a.29.29,0,0,0-.11-.21c-.23-.11-.41,0-.41.27s0,.69,0,1a2.57,2.57,0,0,0,.11.59.51.51,0,0,0,.62.32c.17,0,.16-.17.16-.3s-.09-.17-.19-.17-.18-.08-.18-.2S73.12,223.54,73.12,223.32Zm-2.66-1.52a.29.29,0,1,0-.59,0,.32.32,0,0,0,.29.3A.33.33,0,0,0,70.46,221.8Zm2.13,0a.34.34,0,0,0,.26.31.38.38,0,0,0,.33-.31.32.32,0,0,0-.31-.3A.31.31,0,0,0,72.59,221.79Zm17.23,0a.31.31,0,0,0,.27.31.39.39,0,0,0,.32-.31.37.37,0,0,0-.3-.3A.31.31,0,0,0,89.82,221.79Z" transform="translate(0.13 0.13)" style="fill:#fff"/><path d="M62.59,212.41a.3.3,0,0,1-.09.36c-.35.37-.68.75-1,1.13l-1.26,1.41-1,1.2-.1.1a.47.47,0,0,0-.09.68,2.36,2.36,0,0,1,.15.41c.1.31.19.63.3.94s.22.6.33.9.11.31.15.47a.14.14,0,0,1,0,.12s-.09,0-.12,0l-.81-.6-.94-.73-1.43-1.1c-.46-.35-.91-.72-1.38-1.06-.16-.12-.18-.12-.32,0-.45.47-.88,1-1.35,1.41s-1,.92-1.51,1.37q-.54.47-1.11.91c-.4.31-.81.6-1.23.89s-.87.57-1.32.84c-.27.16-.56.3-.84.44s-.59.32-.89.46-.68.29-1,.43l-.48.21-.4.14-.6.17-.56.17-.34.07h-.08c-.19,0-.38.1-.57.14s-.59.07-.87.14a8,8,0,0,1-1.74.11,11.79,11.79,0,0,1-1.46,0,9.11,9.11,0,0,1-1.07-.23l-.62-.14a2.63,2.63,0,0,1-.4-.15c-.33-.15-.67-.3-1-.47a7.29,7.29,0,0,1-.88-.51,10.07,10.07,0,0,1-1.07-.86A12.74,12.74,0,0,1,32.38,221a7.89,7.89,0,0,1-.6-.91c-.13-.21-.23-.42-.35-.64a.58.58,0,0,1,.14-.81c.2-.16.41-.29.63-.43,0,0,.08,0,.1-.06a1.73,1.73,0,0,1-1-.69.31.31,0,0,1,0-.33,3.36,3.36,0,0,1,.85-1l.91-.73a.7.7,0,0,1,.25-.11s.09.06.1.1,0,.2,0,.29c0,.33.09.66.15,1a4.13,4.13,0,0,0,.19.58c.09.25.18.49.28.73a4,4,0,0,0,.32.62,12.27,12.27,0,0,0,.86,1.19,6,6,0,0,0,1.49,1.27c.27.16.54.33.82.47a6.79,6.79,0,0,0,.75.28l.68.21.24.05a7.22,7.22,0,0,0,2.15.11c.35,0,.68-.16,1-.21a4.46,4.46,0,0,0,1-.32,7.66,7.66,0,0,0,1-.54,5.57,5.57,0,0,0,1.23-1c.27-.28.52-.58.76-.88a6.39,6.39,0,0,0,.88-1.53c.13-.3.17-.65.3-1a9,9,0,0,0,.19-1,1.64,1.64,0,0,0,0-.46,6,6,0,0,0-.11-1.56c-.06-.24-.08-.49-.14-.73a3,3,0,0,0-.18-.52c-.18-.41-.38-.81-.57-1.21a.19.19,0,0,1,0-.17.18.18,0,0,1,.17,0l.67.31.88.44.89.49c.32.18.64.35,1,.54s.77.49,1.15.74.69.45,1,.69c.5.36,1,.72,1.49,1.09.28.21.55.44.83.65a.23.23,0,0,0,.2,0c.2-.09.39-.21.59-.31l.65-.32.59-.31.68-.34.86-.44.9-.45.85-.44.94-.47,1.13-.6A2.18,2.18,0,0,1,62.59,212.41Z" transform="translate(0.13 0.13)"/><path d="M40.65,209.13a5.9,5.9,0,1,1-5.91,5.39,5.65,5.65,0,0,1,1.5-3.43A5.79,5.79,0,0,1,40.65,209.13Zm3.5,5.44a3.9,3.9,0,1,0-7.81,0,3.9,3.9,0,1,0,7.81,0Z" transform="translate(0.13 0.13)"/><path d="M71.92,213.93c.06,0,.09.07.12.08a1.8,1.8,0,0,1,1.09.71,1.7,1.7,0,0,1,.34,1.12,2.64,2.64,0,0,1-.18.88,1.43,1.43,0,0,1-.27.42,2.43,2.43,0,0,1-1,.73,4.14,4.14,0,0,1-1.44.25H67.92c-.29,0-.33,0-.33-.33q0-3.55,0-7.1c0-.28,0-.32.32-.32H70c.47,0,.93,0,1.4.07a2.35,2.35,0,0,1,.57.18,3.27,3.27,0,0,1,.3.14,1.5,1.5,0,0,1,.69.7,2.57,2.57,0,0,1,.18.6A1.45,1.45,0,0,1,73,213a2.08,2.08,0,0,1-.81.84A1.9,1.9,0,0,1,71.92,213.93Zm-1.8.94h-.48c-.1,0-.13.05-.13.15,0,.5,0,1,0,1.51,0,.13,0,.17.14.16s.55,0,.82,0a1.7,1.7,0,0,0,.6-.16.84.84,0,0,0,.42-.94.86.86,0,0,0-.67-.68ZM70,211.78h-.34c-.1,0-.13.06-.13.15,0,.45,0,.89,0,1.34,0,.12,0,.19.17.18l.69,0a.76.76,0,0,0,.71-.44,2,2,0,0,0,.08-.52c0-.35-.33-.58-.58-.63A4.83,4.83,0,0,0,70,211.78Z" transform="translate(0.13 0.13)"/><path d="M83.88,217.5a5.49,5.49,0,0,1-.54.42,2.06,2.06,0,0,1-1.29.3,2.39,2.39,0,0,1-1.11-.4,2,2,0,0,1-.47-.48,4.11,4.11,0,0,1-.36-.64,1.59,1.59,0,0,1-.08-.32,2.13,2.13,0,0,1-.09-.42,6.55,6.55,0,0,1,0-1.17,2.93,2.93,0,0,1,.73-1.6,2.15,2.15,0,0,1,1.2-.71,2.26,2.26,0,0,1,1.43.11,2.58,2.58,0,0,1,.35.24,2.24,2.24,0,0,1,.17.16.52.52,0,0,0,0-.13c0-.89,0-1.79,0-2.68,0-.22.06-.28.27-.28h1.3c.24,0,.28,0,.28.28q0,3.83,0,7.66c0,.24,0,.28-.27.28H84.21c-.3,0-.37,0-.34-.4C83.87,217.66,83.88,217.59,83.88,217.5Zm.06-2.26h0c0-.13,0-.26,0-.39a1,1,0,0,0-.52-.83.94.94,0,0,0-.88-.05,1.08,1.08,0,0,0-.65.86,3.92,3.92,0,0,0,0,1,1,1,0,0,0,.51.84,1.31,1.31,0,0,0,.64.11,1,1,0,0,0,.81-.6A8.31,8.31,0,0,0,83.94,215.24Z" transform="translate(0.13 0.13)"/><path d="M94.71,213.19a4.69,4.69,0,0,1,.38-.35,1.56,1.56,0,0,1,1-.37,7,7,0,0,1,.72,0,1.52,1.52,0,0,1,.49.15,1.55,1.55,0,0,1,.78.89,3.92,3.92,0,0,1,.21,1.36c0,1,0,2,0,3,0,.2,0,.26-.25.26H96.6a.2.2,0,0,1-.22-.2,1.39,1.39,0,0,1,0-.15c0-1,0-2,0-3a1.1,1.1,0,0,0-.27-.73.77.77,0,0,0-.74-.17,1,1,0,0,0-.68,1c0,1,0,2,0,2.95,0,.22,0,.26-.26.26H93.09c-.26,0-.3,0-.3-.29q0-2.49,0-5c0-.29.05-.34.34-.34h1.2c.31,0,.34,0,.34.35,0,.11,0,.22,0,.33Z" transform="translate(0.13 0.13)"/><path d="M77.27,217.53l-.25.24a1.88,1.88,0,0,1-1.63.44,1.57,1.57,0,0,1-1.1-.69,1.8,1.8,0,0,1-.29-.91,1.93,1.93,0,0,1,.23-1,1.58,1.58,0,0,1,.69-.65,4.64,4.64,0,0,1,1.67-.39c.21,0,.41-.07.62-.11s.11-.06.09-.14a.66.66,0,0,0-.59-.52,2.57,2.57,0,0,0-1,.07,2.74,2.74,0,0,0-.87.38.53.53,0,0,1-.17.06c-.1,0-.16,0-.16-.13,0-.36,0-.71,0-1.07,0-.16.13-.28.36-.34s.45-.13.68-.18a3.93,3.93,0,0,1,.63-.1c.31,0,.62,0,.94,0a1.89,1.89,0,0,1,1.4.67,2.17,2.17,0,0,1,.48,1.28c.12,1.13,0,2.27.05,3.41,0,.24,0,.29-.29.29H77.57c-.21,0-.25,0-.25-.25s0-.22,0-.33Zm-.93-.63v0a.85.85,0,0,0,.89-.63,2.61,2.61,0,0,0,.09-.55c0-.1-.05-.12-.14-.09a1.32,1.32,0,0,1-.28.07,3.43,3.43,0,0,0-.8.13.51.51,0,0,0-.39.49c0,.2,0,.41.24.5Z" transform="translate(0.13 0.13)"/><path d="M90.19,215.93H88.68c-.06,0-.14,0-.16,0a.24.24,0,0,0,0,.17.86.86,0,0,0,.41.53,2.81,2.81,0,0,0,.57.19,2.4,2.4,0,0,0,.38,0,2.33,2.33,0,0,0,1.27-.34c.21-.11.29-.07.29.17s0,.63,0,.94a.2.2,0,0,1-.17.23c-.19.05-.36.16-.55.21a3.72,3.72,0,0,1-.72.14,4.89,4.89,0,0,1-1,0,4.19,4.19,0,0,1-1-.28,2.17,2.17,0,0,1-1-.83,2.06,2.06,0,0,1-.34-.84,4.25,4.25,0,0,1-.09-.54,5.78,5.78,0,0,1,0-.88,3,3,0,0,1,.27-.89,2.77,2.77,0,0,1,.68-.86,2.29,2.29,0,0,1,1.13-.57,5.11,5.11,0,0,1,.92,0,1.81,1.81,0,0,1,.46,0,2.23,2.23,0,0,1,1.49,1.16,4,4,0,0,1,.33,2.1.2.2,0,0,1-.13.14,1.77,1.77,0,0,1-.38,0Zm-.82-1.24h.69c.16,0,.19,0,.17-.19s0-.06,0-.09a.73.73,0,0,0-.53-.65.83.83,0,0,0-.9.27,2.76,2.76,0,0,0-.25.49c-.06.14,0,.17.12.17Z" transform="translate(0.13 0.13)"/><path d="M108.75,213.23a8,8,0,0,1,.76-.57,1.49,1.49,0,0,1,.61-.18,3.94,3.94,0,0,1,1,0,1.83,1.83,0,0,1,1.06.6,2.7,2.7,0,0,1,.57,1,3.57,3.57,0,0,1,.13,1.11,4,4,0,0,1-.15,1.09,2.69,2.69,0,0,1-1,1.47,2.45,2.45,0,0,1-1.17.42,2.16,2.16,0,0,1-1.28-.27,2.23,2.23,0,0,1-.39-.32l-.1-.1,0,0c0,.06,0,.12,0,.18.05.29,0,.38-.31.38h-.51c-.18,0-.22,0-.22-.22q0-3.88,0-7.77a.19.19,0,0,1,.21-.22h.62c.16,0,.22.07.22.25s0,.52,0,.79c0,.63,0,1.26,0,1.88,0,.1,0,.19,0,.29A.42.42,0,0,0,108.75,213.23Zm0,2.16a8.45,8.45,0,0,0,.1.9,1.39,1.39,0,0,0,.25.51,1.36,1.36,0,0,0,.78.5,1.53,1.53,0,0,0,1-.11,1.48,1.48,0,0,0,.78-1,3.78,3.78,0,0,0,.15-1.12,2.61,2.61,0,0,0-.26-1.09,1.08,1.08,0,0,0-.72-.61,1.77,1.77,0,0,0-1.27.11,1.39,1.39,0,0,0-.71.92A9.12,9.12,0,0,0,108.72,215.39Z" transform="translate(0.13 0.13)"/><path d="M105.22,217.45c-.15.14-.26.25-.38.35a1.94,1.94,0,0,1-1.47.42,1.79,1.79,0,0,1-1.23-.61,1.17,1.17,0,0,1-.15-.24,1.85,1.85,0,0,1,.19-1.9,1.73,1.73,0,0,1,.78-.52,6.14,6.14,0,0,1,1.53-.29c.21,0,.41-.08.62-.11s.12-.06.1-.14a2,2,0,0,0-.19-.72.7.7,0,0,0-.55-.34,3.75,3.75,0,0,0-.9,0,2.19,2.19,0,0,0-.9.43l-.07.05c-.21.1-.25.07-.25-.15s0-.38,0-.57a.26.26,0,0,1,.18-.27l.82-.34a1,1,0,0,1,.29-.05,4,4,0,0,1,1.32,0,1.51,1.51,0,0,1,1.07.84,2.72,2.72,0,0,1,.25,1.19c0,1.11,0,2.21,0,3.32,0,.24,0,.27-.28.27h-.52c-.18,0-.24-.05-.25-.24s0-.15,0-.23S105.22,217.55,105.22,217.45Zm-1.44-.09a1.56,1.56,0,0,0,.8-.24,1.23,1.23,0,0,0,.56-.81c0-.22,0-.45.07-.67s0-.24-.21-.2c-.44.07-.89.13-1.33.22s-.75.23-.81.7a.76.76,0,0,0,.4.86A3.93,3.93,0,0,0,103.77,217.36Z" transform="translate(0.13 0.13)"/><path d="M100.48,213.5q0,1.62,0,3.24a.46.46,0,0,0,.22.43.48.48,0,0,0,.21.05h.37a.14.14,0,0,1,.16.16c0,.16,0,.32,0,.48s-.05.23-.24.26a1.82,1.82,0,0,1-.79,0,1.19,1.19,0,0,1-.82-.65,2.31,2.31,0,0,1-.16-1.05c0-.06,0-.11,0-.17q0-2.87,0-5.74c0-.13,0-.26,0-.4a.16.16,0,0,1,.17-.19c.25,0,.49,0,.74,0,0,0,.1.07.12.12a.67.67,0,0,1,0,.23Q100.48,211.89,100.48,213.5Z" transform="translate(0.13 0.13)"/><path d="M110.76,223.62c0,.36,0,.72,0,1.08a.85.85,0,0,1-.53.77,1.51,1.51,0,0,1-1.22,0,.32.32,0,0,1-.11-.42.16.16,0,0,1,.15,0,1.36,1.36,0,0,0,.85.1.52.52,0,0,0,.38-.52c0-.12-.11-.06-.15,0a.65.65,0,0,1-.42.12.83.83,0,0,1-.88-.6,1.29,1.29,0,0,1,.17-1.32.88.88,0,0,1,1.18-.26s.1,0,.14,0,.09-.06.13-.06c.25,0,.32,0,.33.29s0,.61,0,.91Zm-1-.77c-.24,0-.37.06-.44.22a1.1,1.1,0,0,0-.06.84.47.47,0,0,0,.52.32.45.45,0,0,0,.44-.47,1.13,1.13,0,0,1,0-.34A.44.44,0,0,0,109.8,222.85Z" transform="translate(0.13 0.13)"/><path d="M85.24,224.48a.87.87,0,0,1-.76.19.74.74,0,0,1-.59-.39,1.5,1.5,0,0,1-.11-1.15.94.94,0,0,1,1.35-.64s.1,0,.11,0a.26.26,0,0,0,0-.13c0-.26,0-.51,0-.77s.09-.17.32-.15a.17.17,0,0,1,.17.2c0,.92,0,1.84,0,2.76a.28.28,0,0,1-.13.21A.32.32,0,0,1,85.24,224.48Zm0-.93s0-.11,0-.17a.48.48,0,0,0-.2-.47.57.57,0,0,0-.56,0,.51.51,0,0,0-.22.31,3,3,0,0,0,0,.62.39.39,0,0,0,.26.35.52.52,0,0,0,.54-.05A.62.62,0,0,0,85.25,223.55Z" transform="translate(0.13 0.13)"/><path d="M70.79,224.47c0,.17-.18.21-.33.19a.53.53,0,0,1-.44-.26,1.22,1.22,0,0,1-.12-.64c0-.34,0-.69,0-1s.17-.41.4-.3a.3.3,0,0,1,.12.22c0,.38,0,.76,0,1.14s0,.36.37.42c.11-.16.16-.17.33-.08a.86.86,0,0,0,.64.06c.09,0,.13-.22.05-.29a.79.79,0,0,0-.19-.13,4.67,4.67,0,0,1-.59-.31.58.58,0,0,1,.07-.9,1.06,1.06,0,0,1,1-.13.26.26,0,0,1,.19.28c0,.19,0,.21-.22.17a2.8,2.8,0,0,0-.44-.05c-.11,0-.24,0-.26.15s.09.24.21.28a1.57,1.57,0,0,1,.61.33.59.59,0,0,1-.18.95,1.47,1.47,0,0,1-.85.09C71,224.65,70.92,224.54,70.79,224.47Z" transform="translate(0.13 0.13)"/><path d="M90.73,224.45a.27.27,0,0,1-.34.21.54.54,0,0,1-.46-.31,1.26,1.26,0,0,1-.11-.55c0-.38,0-.75,0-1.13a.27.27,0,0,1,.43-.24.24.24,0,0,1,.07.17c0,.42,0,.84,0,1.27,0,.27.08.35.35.34,0,0,.06,0,.06,0s.17-.1.28-.05a.83.83,0,0,0,.61.07c.06,0,.14-.08.14-.13a.26.26,0,0,0-.09-.2c-.15-.09-.31-.14-.47-.22a.74.74,0,0,1-.4-.41.61.61,0,0,1,.3-.73,1.1,1.1,0,0,1,.85-.1.31.31,0,0,1,.26.42c0,.1-.07.1-.15.08a2.77,2.77,0,0,0-.52-.07.28.28,0,0,0-.22.11.21.21,0,0,0,.13.29l.38.16a.63.63,0,0,1,.38.91.7.7,0,0,1-.52.34,2.55,2.55,0,0,1-.7,0C90.9,224.6,90.83,224.51,90.73,224.45Z" transform="translate(0.13 0.13)"/><path d="M99.21,223.13q0-.66,0-1.31c0-.18,0-.2.21-.2h1.11c.19,0,.26.06.26.24s-.06.24-.25.25h-.73c-.11,0-.14,0-.13.15a1.77,1.77,0,0,1,0,.4c0,.18,0,.22.2.21s.45,0,.67,0,.16.11.16.22,0,.23-.18.24h-.71c-.13,0-.16.06-.15.18s0,.35,0,.52.05.14.15.14h.82c.15,0,.2.05.2.2s0,.27-.21.27H99.39c-.13,0-.18-.05-.18-.18C99.21,224,99.21,223.57,99.21,223.13Z" transform="translate(0.13 0.13)"/><path d="M68.47,223.81a2.24,2.24,0,0,0,.1-.2l.39-1.09c.09-.25.17-.5.26-.75s.35-.23.45-.12a.29.29,0,0,1,0,.23,3.75,3.75,0,0,1-.14.4l-.25.69-.15.38c-.12.33-.25.67-.36,1s-.15.3-.42.29-.24-.12-.3-.32-.23-.64-.34-1l-.17-.46c-.05-.16-.1-.32-.15-.48s-.15-.34-.2-.52a.32.32,0,0,1,0-.26.36.36,0,0,1,.42.07c.09.19.16.38.23.58s.25.69.37,1l.16.49Z" transform="translate(0.13 0.13)"/><path d="M88.43,223.79c.06-.16.13-.33.19-.49l.45-1.3a2.32,2.32,0,0,1,.14-.31.4.4,0,0,1,.39-.07c.1.06.09.15.06.24l-.18.48-.18.47-.37,1c-.07.19-.13.39-.2.58a.34.34,0,0,1-.49.23.5.5,0,0,1-.19-.26c-.13-.32-.24-.65-.36-1s-.11-.37-.18-.55-.22-.59-.34-.88-.07-.26,0-.31a.36.36,0,0,1,.42.09c.08.18.15.35.22.54.14.38.27.76.4,1.14,0,.13.08.26.12.39Z" transform="translate(0.13 0.13)"/><path d="M96.52,223.78c0,.22,0,.43,0,.65a.25.25,0,0,1-.42.17c-.1-.08-.16,0-.26,0a.73.73,0,0,1-1.11-.57.77.77,0,0,1,.69-.74,4.79,4.79,0,0,0,.51-.1s.09-.07.08-.09-.06-.18-.11-.2a1.08,1.08,0,0,0-.41,0,1.53,1.53,0,0,0-.29.11c-.06,0-.14,0-.18,0a.24.24,0,0,1-.07-.17c0-.21.11-.31.29-.37a1.07,1.07,0,0,1,1,.08.52.52,0,0,1,.24.43c0,.27,0,.54,0,.81Zm-.69-.16-.45.15c-.13.05-.08.18-.08.27a.2.2,0,0,0,.09.15A.45.45,0,0,0,96,224a.73.73,0,0,0,.06-.34S95.91,223.65,95.82,223.62Z" transform="translate(0.13 0.13)"/><path d="M81.08,223.78c0,.2,0,.39,0,.59s0,.23-.1.25a.51.51,0,0,1-.34,0,.21.21,0,0,0-.22,0A.74.74,0,0,1,79.3,224a.87.87,0,0,1,.32-.62,2.31,2.31,0,0,1,.7-.2l.1,0,.16-.1c0-.07-.08-.19-.15-.21a.81.81,0,0,0-.62.06,1.32,1.32,0,0,1-.23.07,2.49,2.49,0,0,1-.05-.25c0-.17.12-.21.24-.27a1.08,1.08,0,0,1,.81-.06c.37.1.5.34.51.78C81.09,223.39,81.08,223.58,81.08,223.78Zm-.71-.16c-.14,0-.3.09-.44.15s-.08.19-.07.29a.18.18,0,0,0,.1.13.44.44,0,0,0,.55-.16.81.81,0,0,0,.06-.35S80.46,223.65,80.37,223.62Z" transform="translate(0.13 0.13)"/><path d="M74.62,224.66a.82.82,0,0,1-.83-.34,1.21,1.21,0,0,1-.23-1.07,1.05,1.05,0,0,1,.71-.82,1,1,0,0,1,1.39.74,1.51,1.51,0,0,1,0,.74,1,1,0,0,1-.51.64,3.68,3.68,0,0,1-.51.16Zm0-1.81a.49.49,0,0,0-.56.55q0,.13,0,.26a.49.49,0,0,0,.46.56c.29,0,.67-.1.62-.48a1.61,1.61,0,0,1,0-.38A.45.45,0,0,0,74.63,222.85Z" transform="translate(0.13 0.13)"/><path d="M107.38,224.67a.88.88,0,0,1-.89-.45,1.15,1.15,0,0,1-.13-1.07,1.07,1.07,0,0,1,.61-.68,1.05,1.05,0,0,1,1.35.41,1.38,1.38,0,0,1,.11,1.06.91.91,0,0,1-.52.62,4.62,4.62,0,0,1-.51.16Zm.56-1.13h0c0-.05,0-.1,0-.15a.5.5,0,0,0-.25-.49.63.63,0,0,0-.71.11,1.16,1.16,0,0,0-.16.34.69.69,0,0,0,.5.88.52.52,0,0,0,.61-.39A1.47,1.47,0,0,0,107.94,223.54Z" transform="translate(0.13 0.13)"/><path d="M104,224.67a.93.93,0,0,1-1-.62,1.73,1.73,0,0,1-.06-.73.94.94,0,0,1,.64-.86,1,1,0,0,1,1.11.14,1.18,1.18,0,0,1,.34,1.28,1.54,1.54,0,0,1-.24.45A.84.84,0,0,1,104,224.67Zm-.61-1.14a1.39,1.39,0,0,0,.08.39c.2.36.47.36.8.26a.37.37,0,0,0,.21-.22,1.38,1.38,0,0,0,0-.77.38.38,0,0,0-.32-.32c-.27,0-.54-.05-.68.24A2.08,2.08,0,0,0,103.39,223.53Z" transform="translate(0.13 0.13)"/><path d="M112,223.89c0-.11.1-.23.15-.34.1-.28.2-.56.29-.84s.16-.3.4-.29.22.07.15.22-.18.43-.27.65-.21.57-.33.85-.3.73-.49,1.08a.67.67,0,0,1-.77.34.17.17,0,0,1-.11-.1.45.45,0,0,1,0-.23.18.18,0,0,1,.12-.1c.14,0,.3,0,.39-.13a.78.78,0,0,0,.1-.74c-.16-.36-.31-.73-.45-1.1-.07-.17-.13-.33-.18-.5s0-.25.19-.25.26,0,.33.24c.13.4.27.79.4,1.18l0,.07Z" transform="translate(0.13 0.13)"/><path d="M76.55,222.62a.94.94,0,0,1,.67-.24.78.78,0,0,1,.61.43,3,3,0,0,1,.11.61c0,.32,0,.64,0,1a.27.27,0,0,1-.42.24.3.3,0,0,1-.1-.22c0-.33,0-.67,0-1a.7.7,0,0,0,0-.12c0-.27-.08-.44-.42-.43a.47.47,0,0,0-.44.46c0,.35,0,.7,0,1s-.17.37-.4.27a.21.21,0,0,1-.09-.16c0-.63,0-1.25,0-1.88,0-.06.07-.16.12-.16s.25-.07.33.08A.83.83,0,0,1,76.55,222.62Z" transform="translate(0.13 0.13)"/><path d="M82.07,222.57a2.38,2.38,0,0,1,.48-.18.72.72,0,0,1,.87.68,10.64,10.64,0,0,1,0,1.34.27.27,0,0,1-.42.21.27.27,0,0,1-.09-.19c0-.31,0-.63,0-.94a1.19,1.19,0,0,0,0-.38.41.41,0,0,0-.2-.24.41.41,0,0,0-.43.07.55.55,0,0,0-.19.42c0,.33,0,.67,0,1s-.18.37-.4.26a.23.23,0,0,1-.09-.18c0-.61,0-1.22,0-1.84,0-.07.07-.18.11-.18s.28-.08.35.1l0,0Z" transform="translate(0.13 0.13)"/><path d="M94.43,223.52c0,.29,0,.59,0,.88,0,.08,0,.21-.08.22a.51.51,0,0,1-.35,0,.16.16,0,0,0-.21,0,.75.75,0,0,1-1.15-.55c0-.47,0-.93-.06-1.4,0-.11,0-.2.17-.22s.29,0,.33.16a.82.82,0,0,1,0,.2q0,.59,0,1.18a.24.24,0,0,0,.22.25c.29.06.46,0,.54-.2a.46.46,0,0,0,0-.17c0-.38,0-.75,0-1.13s.15-.38.4-.28a.22.22,0,0,1,.09.17C94.43,222.9,94.43,223.21,94.43,223.52Z" transform="translate(0.13 0.13)"/><path d="M102.11,224.67a1,1,0,0,1-1-.71,1.23,1.23,0,0,1,.61-1.48,1.29,1.29,0,0,1,.84-.06.33.33,0,0,1,.2.46s-.11,0-.17,0-.32-.07-.48-.07a.47.47,0,0,0-.47.42,3.37,3.37,0,0,0,0,.55c0,.35.38.45.64.41a2.57,2.57,0,0,0,.36-.1c.11,0,.15,0,.16.11,0,.27-.13.36-.4.42A1.13,1.13,0,0,1,102.11,224.67Z" transform="translate(0.13 0.13)"/><path d="M97.51,222.87c0,.37,0,.73,0,1.1,0,.15,0,.24.19.24s.19,0,.18.17,0,.24-.17.29a.56.56,0,0,1-.69-.49c0-.79,0-1.58,0-2.37a.62.62,0,0,1,0-.12c0-.2.08-.22.33-.2s.18.13.18.25C97.51,222.09,97.51,222.48,97.51,222.87Z" transform="translate(0.13 0.13)"/><path d="M105.45,222.82c0-.39,0-.77,0-1.16,0-.18,0-.21.24-.21s.26,0,.26.21c0,.7,0,1.4,0,2.1a1.61,1.61,0,0,0,0,.17c0,.13,0,.27.21.26a.16.16,0,0,1,.18.18.24.24,0,0,1-.15.26.54.54,0,0,1-.67-.33,1.94,1.94,0,0,1-.06-.44C105.44,223.52,105.45,223.17,105.45,222.82Z" transform="translate(0.13 0.13)"/><path d="M73.12,223.32c0,.22,0,.44,0,.66s0,.19.18.2.2,0,.19.17,0,.26-.16.3a.51.51,0,0,1-.62-.32,2.57,2.57,0,0,1-.11-.59c0-.34,0-.69,0-1s.18-.38.41-.27a.29.29,0,0,1,.11.21C73.13,222.87,73.12,223.09,73.12,223.32Z" transform="translate(0.13 0.13)"/><path d="M70.46,221.8a.33.33,0,0,1-.29.3.32.32,0,0,1-.29-.3.29.29,0,1,1,.59,0Z" transform="translate(0.13 0.13)"/><path d="M72.59,221.79a.31.31,0,0,1,.28-.3.32.32,0,0,1,.31.3.38.38,0,0,1-.33.31A.34.34,0,0,1,72.59,221.79Z" transform="translate(0.13 0.13)"/><path d="M89.82,221.79a.31.31,0,0,1,.29-.3.37.37,0,0,1,.3.3.39.39,0,0,1-.32.31A.31.31,0,0,1,89.82,221.79Z" transform="translate(0.13 0.13)"/><path d="M44.15,214.57a3.9,3.9,0,1,1-3.9-3.91A3.86,3.86,0,0,1,44.15,214.57Zm-4.84,1a1.9,1.9,0,0,0,1.93-1.87,1.91,1.91,0,1,0-3.83,0A1.91,1.91,0,0,0,39.31,215.56Z" transform="translate(0.13 0.13)" style="fill:#fff"/><path d="M70.11,214.87l.72,0a.86.86,0,0,1,.67.68.84.84,0,0,1-.42.94,1.7,1.7,0,0,1-.6.16c-.27,0-.54,0-.82,0s-.14,0-.14-.16c0-.5,0-1,0-1.51,0-.1,0-.15.13-.15h.48Z" transform="translate(0.13 0.13)" style="fill:#fff"/><path d="M70,211.78a4.83,4.83,0,0,1,.61,0c.25,0,.62.28.58.63a2,2,0,0,1-.08.52.76.76,0,0,1-.71.44l-.69,0c-.13,0-.17-.06-.17-.18,0-.45,0-.89,0-1.34,0-.09,0-.15.13-.15H70Z" transform="translate(0.13 0.13)" style="fill:#fff"/><path d="M83.94,215.24a8.31,8.31,0,0,1-.18.89,1,1,0,0,1-.81.6,1.31,1.31,0,0,1-.64-.11,1,1,0,0,1-.51-.84,3.92,3.92,0,0,1,0-1,1.08,1.08,0,0,1,.65-.86.94.94,0,0,1,.88.05,1,1,0,0,1,.52.83c0,.13,0,.26,0,.39Z" transform="translate(0.13 0.13)" style="fill:#fff"/><path d="M76.34,216.89l-.38-.13c-.23-.09-.25-.3-.24-.5a.51.51,0,0,1,.39-.49,3.43,3.43,0,0,1,.8-.13,1.32,1.32,0,0,0,.28-.07c.09,0,.15,0,.14.09a2.61,2.61,0,0,1-.09.55.85.85,0,0,1-.89.63Z" transform="translate(0.13 0.13)" style="fill:#fff"/><path d="M89.37,214.69h-.71c-.16,0-.18,0-.12-.17a2.76,2.76,0,0,1,.25-.49.83.83,0,0,1,.9-.27.73.73,0,0,1,.53.65s0,.06,0,.09,0,.19-.17.19h-.69Z" transform="translate(0.13 0.13)" style="fill:#fff"/><path d="M108.72,215.39a9.12,9.12,0,0,1,.13-1,1.39,1.39,0,0,1,.71-.92,1.77,1.77,0,0,1,1.27-.11,1.08,1.08,0,0,1,.72.61,2.61,2.61,0,0,1,.26,1.09,3.78,3.78,0,0,1-.15,1.12,1.48,1.48,0,0,1-.78,1,1.53,1.53,0,0,1-1,.11,1.36,1.36,0,0,1-.78-.5,1.39,1.39,0,0,1-.25-.51A8.45,8.45,0,0,1,108.72,215.39Z" transform="translate(0.13 0.13)" style="fill:#fff"/><path d="M103.77,217.36a3.93,3.93,0,0,1-.51-.14.76.76,0,0,1-.4-.86c.05-.47.37-.61.81-.7s.89-.14,1.33-.22c.21,0,.24,0,.21.2s0,.45-.07.67a1.23,1.23,0,0,1-.56.81A1.56,1.56,0,0,1,103.77,217.36Z" transform="translate(0.13 0.13)" style="fill:#fff"/><path d="M109.8,222.85a.44.44,0,0,1,.48.57,1.13,1.13,0,0,0,0,.34.45.45,0,0,1-.44.47.47.47,0,0,1-.52-.32,1.1,1.1,0,0,1,.06-.84C109.43,222.9,109.56,222.85,109.8,222.85Z" transform="translate(0.13 0.13)" style="fill:#fff"/><path d="M85.25,223.55a.62.62,0,0,1-.19.59.52.52,0,0,1-.54.05.39.39,0,0,1-.26-.35,3,3,0,0,1,0-.62.51.51,0,0,1,.22-.31.57.57,0,0,1,.56,0,.48.48,0,0,1,.2.47C85.26,223.44,85.25,223.5,85.25,223.55Z" transform="translate(0.13 0.13)" style="fill:#fff"/><path d="M95.82,223.62c.08,0,.19.05.19.07A.73.73,0,0,1,96,224a.45.45,0,0,1-.56.16.2.2,0,0,1-.09-.15c0-.09-.06-.22.08-.27Z" transform="translate(0.13 0.13)" style="fill:#fff"/><path d="M80.37,223.62c.09,0,.2.05.2.07a.81.81,0,0,1-.06.35.44.44,0,0,1-.55.16.18.18,0,0,1-.1-.13c0-.1-.06-.23.07-.29S80.23,223.67,80.37,223.62Z" transform="translate(0.13 0.13)" style="fill:#fff"/><path d="M74.63,222.85a.45.45,0,0,1,.53.52,1.61,1.61,0,0,0,0,.38c0,.38-.34.53-.62.48a.49.49,0,0,1-.46-.56q0-.13,0-.26A.49.49,0,0,1,74.63,222.85Z" transform="translate(0.13 0.13)" style="fill:#fff"/><path d="M107.94,223.54a1.47,1.47,0,0,1,0,.31.52.52,0,0,1-.61.39.69.69,0,0,1-.5-.88A1.16,1.16,0,0,1,107,223a.63.63,0,0,1,.71-.11.5.5,0,0,1,.25.49c0,.05,0,.1,0,.15Z" transform="translate(0.13 0.13)" style="fill:#fff"/><path d="M103.39,223.53a2.08,2.08,0,0,1,.11-.42c.14-.29.41-.28.68-.24a.38.38,0,0,1,.32.32,1.38,1.38,0,0,1,0,.77.37.37,0,0,1-.21.22c-.33.1-.6.1-.8-.26A1.39,1.39,0,0,1,103.39,223.53Z" transform="translate(0.13 0.13)" style="fill:#fff"/><path d="M39.31,215.56a1.91,1.91,0,0,1,0-3.82,1.93,1.93,0,0,1,1.91,1.95A1.9,1.9,0,0,1,39.31,215.56Z" transform="translate(0.13 0.13)"/></g></g><g id="Laser_cut" data-name="Laser cut"><g id="Screw_M3" data-name="Screw M3"><circle id="Screw_M3-2" data-name="Screw_M3" cx="51.15" cy="19.97" r="4.25" style="fill:#fff;stroke:red;stroke-width:0.25px"/><circle id="Screw_M3-3" data-name="Screw_M3" cx="289.26" cy="181.54" r="4.25" style="fill:#fff;stroke:red;stroke-width:0.25px"/><circle id="Screw_M3-4" data-name="Screw_M3" cx="51.15" cy="181.54" r="4.25" style="fill:#fff;stroke:red;stroke-width:0.25px"/><circle id="Screw_M3-5" data-name="Screw_M3" cx="289.26" cy="19.97" r="4.25" style="fill:#fff;stroke:red;stroke-width:0.25px"/></g><rect id="Board_cut" data-name="Board cut" width="351.5" height="238.11" rx="12" ry="12" transform="translate(351.62 238.24) rotate(-180)" style="fill:none;stroke:red;stroke-width:0.25px"/></g></svg>