M48
; DRILL file {KiCad (6.0.4)} date Wed Jun  1 21:34:04 2022
; FORMAT={-:-/ absolute / inch / decimal}
; #@! TF.CreationDate,2022-06-01T21:34:04+02:00
; #@! TF.GenerationSoftware,Kicad,Pcbnew,(6.0.4)
; #@! TF.FileFunction,Plated,1,2,PTH
FMAT,2
INCH
; #@! TA.AperFunction,Plated,PTH,ViaDrill
T1C0.0157
; #@! TA.AperFunction,Plated,PTH,ComponentDrill
T2C0.0236
; #@! TA.AperFunction,Plated,PTH,ComponentDrill
T3C0.0295
; #@! TA.AperFunction,Plated,PTH,ComponentDrill
T4C0.0315
; #@! TA.AperFunction,Plated,PTH,ComponentDrill
T5C0.0354
; #@! TA.AperFunction,Plated,PTH,ComponentDrill
T6C0.0394
; #@! TA.AperFunction,Plated,PTH,ComponentDrill
T7C0.0409
; #@! TA.AperFunction,Plated,PTH,ComponentDrill
T8C0.0433
; #@! TA.AperFunction,Plated,PTH,ComponentDrill
T9C0.0709
%
G90
G05
T1
X4.3307Y-2.5197
X4.5021Y-4.9074
X4.9213Y-2.5197
X5.2362Y-4.4094
X5.3937Y-3.7402
X5.3937Y-3.8976
X5.3937Y-4.0551
X5.3996Y-3.5374
X5.4331Y-3.3858
X5.5906Y-3.7402
X5.6299Y-3.3858
X5.6693Y-3.8976
X5.748Y-4.0551
X6.1417Y-4.3701
X6.2205Y-4.2913
X6.378Y-2.2047
X6.4173Y-2.2835
X6.4567Y-2.3622
X6.4567Y-4.0551
X6.4567Y-4.5669
X6.4961Y-2.4409
X6.5748Y-2.2047
X6.6142Y-2.2835
X6.6281Y-4.9074
X6.6535Y-2.3622
X6.6929Y-2.4409
X6.6929Y-4.2126
X7.3228Y-2.2835
X7.8346Y-4.2913
X7.9921Y-4.2913
T2
X7.7165Y-2.7165
X7.7953Y-2.7165
T4
X5.1673Y-4.5835
X5.1673Y-4.9835
X6.8472Y-4.4094
X6.9654Y-2.7657
X6.9654Y-2.9724
X6.9654Y-3.1791
X6.9654Y-3.3858
X6.9654Y-3.5925
X6.9654Y-3.7992
X7.2472Y-4.4094
X7.3654Y-2.7657
X7.3654Y-2.9724
X7.3654Y-3.1791
X7.3654Y-3.3858
X7.3654Y-3.5925
X7.3654Y-3.7992
X8.0413Y-4.6524
X8.0413Y-5.0524
T5
X5.4813Y-4.7736
X5.5813Y-4.7736
X7.4803Y-3.2677
X7.4803Y-3.5039
X7.4803Y-3.7402
X7.4803Y-3.9764
X7.4803Y-4.2126
X7.4803Y-4.4488
X7.5803Y-3.2677
X7.5803Y-3.5039
X7.5803Y-3.7402
X7.5803Y-3.9764
X7.5803Y-4.2126
X7.5803Y-4.4488
X7.7165Y-3.2677
X7.7165Y-3.5039
X7.7165Y-3.7402
X7.7165Y-3.9764
X7.7165Y-4.2126
X7.7165Y-4.4488
X7.7559Y-2.2348
X7.7559Y-2.3198
X7.7559Y-2.4048
X7.7559Y-2.4898
X7.8165Y-3.2677
X7.8165Y-3.5039
X7.8165Y-3.7402
X7.8165Y-3.9764
X7.8165Y-4.2126
X7.8165Y-4.4488
T6
X4.1043Y-2.9744
X4.1043Y-4.3031
X4.2028Y-2.9744
X4.2028Y-4.3031
X4.3012Y-2.9744
X4.3012Y-4.3031
X4.6457Y-5.061
X4.7441Y-5.061
X4.8425Y-5.061
X5.935Y-5.061
X6.0335Y-5.061
X6.1319Y-5.061
X6.939Y-5.061
X7.0374Y-5.061
X7.1358Y-5.061
X7.2244Y-2.2126
X7.2244Y-2.5118
X8.2874Y-3.8602
X8.2874Y-4.4606
X8.3858Y-3.8602
X8.3858Y-4.4606
X8.4843Y-3.8602
X8.4843Y-4.4606
T7
X5.7853Y-2.1374
X5.7853Y-2.2374
X5.7853Y-2.3374
X5.7853Y-2.4374
X5.7853Y-2.5374
X5.7853Y-2.6374
X5.7853Y-2.7374
X5.7853Y-2.8374
X5.7853Y-2.9374
X5.7853Y-3.0374
X5.7853Y-3.1374
X5.7853Y-3.2374
X5.7853Y-3.3374
X5.7853Y-3.4374
X5.7853Y-3.5374
X5.7853Y-3.6374
X5.7853Y-3.7374
X5.7853Y-3.8374
X5.7853Y-3.9374
X6.7853Y-2.1374
X6.7853Y-2.2374
X6.7853Y-2.3374
X6.7853Y-2.4374
X6.7853Y-2.5374
X6.7853Y-2.6374
X6.7853Y-2.7374
X6.7853Y-2.8374
X6.7853Y-2.9374
X6.7853Y-3.0374
X6.7853Y-3.1374
X6.7853Y-3.2374
X6.7853Y-3.3374
X6.7853Y-3.4374
X6.7853Y-3.5374
X6.7853Y-3.6374
X6.7853Y-3.7374
X6.7853Y-3.8374
X6.7853Y-3.9374
T8
X7.5197Y-4.6949
X7.5197Y-4.872
X7.7756Y-4.6949
X7.7756Y-4.872
T3
G00X4.0118Y-4.7035
M15
G01X3.9803Y-4.7035
M16
G05
G00X4.0453Y-3.6024
M15
G01X4.0453Y-3.6575
M16
G05
G00X4.0465Y-2.2736
M15
G01X4.0465Y-2.3287
M16
G05
G00X4.2323Y-5.0184
M15
G01X4.2874Y-5.0184
M16
G05
G00X4.2677Y-4.7153
M15
G01X4.2677Y-4.7704
M16
G05
G00X4.3484Y-3.6378
M15
G01X4.2933Y-3.6378
M16
G05
G00X4.3497Y-2.3091
M15
G01X4.2945Y-2.3091
M16
G05
G00X4.3661Y-4.6562
M15
G01X4.3346Y-4.6562
M16
G05
G00X4.3602Y-3.3819
M15
G01X4.3602Y-3.3504
M16
G05
G00X4.3615Y-2.0531
M15
G01X4.3615Y-2.0217
M16
G05
G00X4.4075Y-3.7362
M15
G01X4.4075Y-3.7047
M16
G05
G00X4.4087Y-2.4075
M15
G01X4.4087Y-2.376
M16
G05
G00X8.1995Y-2.1693
M15
G01X8.1995Y-2.2008
M16
G05
G00X8.2539Y-4.6936
M15
G01X8.2224Y-4.6936
M16
G05
G00X8.2468Y-2.5236
M15
G01X8.2468Y-2.5551
M16
G05
G00X8.2586Y-2.2677
M15
G01X8.3137Y-2.2677
M16
G05
G00X8.4744Y-5.0086
M15
G01X8.5295Y-5.0086
M16
G05
G00X8.5098Y-4.7055
M15
G01X8.5098Y-4.7606
M16
G05
G00X8.5618Y-2.3031
M15
G01X8.5618Y-2.248
M16
G05
G00X8.6083Y-4.6464
M15
G01X8.5768Y-4.6464
M16
G05
T9
G00X4.0295Y-2.7047
M15
G01X4.0295Y-2.6929
M16
G05
G00X4.0295Y-4.0335
M15
G01X4.0295Y-4.0217
M16
G05
G00X4.376Y-2.7047
M15
G01X4.376Y-2.6929
M16
G05
G00X4.376Y-4.0335
M15
G01X4.376Y-4.0217
M16
G05
G00X4.5709Y-4.7913
M15
G01X4.5709Y-4.7795
M16
G05
G00X4.9173Y-4.7913
M15
G01X4.9173Y-4.7795
M16
G05
G00X5.8602Y-4.7913
M15
G01X5.8602Y-4.7795
M16
G05
G00X6.2067Y-4.7913
M15
G01X6.2067Y-4.7795
M16
G05
G00X6.8642Y-4.7913
M15
G01X6.8642Y-4.7795
M16
G05
G00X7.2106Y-4.7913
M15
G01X7.2106Y-4.7795
M16
G05
G00X8.2126Y-3.5906
M15
G01X8.2126Y-3.5787
M16
G05
G00X8.2126Y-4.1909
M15
G01X8.2126Y-4.1791
M16
G05
G00X8.5591Y-3.5906
M15
G01X8.5591Y-3.5787
M16
G05
G00X8.5591Y-4.1909
M15
G01X8.5591Y-4.1791
M16
G05
T0
M30
