%TF.GenerationSoftware,KiCad,Pcbnew,(6.0.4)*%
%TF.CreationDate,2022-06-01T21:34:53+02:00*%
%TF.ProjectId,Spikeling_ESP32,5370696b-656c-4696-9e67-5f4553503332,rev?*%
%TF.SameCoordinates,Original*%
%TF.FileFunction,Legend,Top*%
%TF.FilePolarity,Positive*%
%FSLAX46Y46*%
G04 Gerber Fmt 4.6, Leading zero omitted, Abs format (unit mm)*
G04 Created by KiCad (PCBNEW (6.0.4)) date 2022-06-01 21:34:53*
%MOMM*%
%LPD*%
G01*
G04 APERTURE LIST*
%ADD10C,0.150000*%
%ADD11C,0.120000*%
%ADD12C,0.127000*%
G04 APERTURE END LIST*
D10*
%TO.C,Spike LED*%
X193452380Y-65654761D02*
X193595238Y-65702380D01*
X193833333Y-65702380D01*
X193928571Y-65654761D01*
X193976190Y-65607142D01*
X194023809Y-65511904D01*
X194023809Y-65416666D01*
X193976190Y-65321428D01*
X193928571Y-65273809D01*
X193833333Y-65226190D01*
X193642857Y-65178571D01*
X193547619Y-65130952D01*
X193500000Y-65083333D01*
X193452380Y-64988095D01*
X193452380Y-64892857D01*
X193500000Y-64797619D01*
X193547619Y-64750000D01*
X193642857Y-64702380D01*
X193880952Y-64702380D01*
X194023809Y-64750000D01*
X194452380Y-65035714D02*
X194452380Y-66035714D01*
X194452380Y-65083333D02*
X194547619Y-65035714D01*
X194738095Y-65035714D01*
X194833333Y-65083333D01*
X194880952Y-65130952D01*
X194928571Y-65226190D01*
X194928571Y-65511904D01*
X194880952Y-65607142D01*
X194833333Y-65654761D01*
X194738095Y-65702380D01*
X194547619Y-65702380D01*
X194452380Y-65654761D01*
X195357142Y-65702380D02*
X195357142Y-65035714D01*
X195357142Y-64702380D02*
X195309523Y-64750000D01*
X195357142Y-64797619D01*
X195404761Y-64750000D01*
X195357142Y-64702380D01*
X195357142Y-64797619D01*
X195833333Y-65702380D02*
X195833333Y-64702380D01*
X195928571Y-65321428D02*
X196214285Y-65702380D01*
X196214285Y-65035714D02*
X195833333Y-65416666D01*
X197023809Y-65654761D02*
X196928571Y-65702380D01*
X196738095Y-65702380D01*
X196642857Y-65654761D01*
X196595238Y-65559523D01*
X196595238Y-65178571D01*
X196642857Y-65083333D01*
X196738095Y-65035714D01*
X196928571Y-65035714D01*
X197023809Y-65083333D01*
X197071428Y-65178571D01*
X197071428Y-65273809D01*
X196595238Y-65369047D01*
X198738095Y-65702380D02*
X198261904Y-65702380D01*
X198261904Y-64702380D01*
X199071428Y-65178571D02*
X199404761Y-65178571D01*
X199547619Y-65702380D02*
X199071428Y-65702380D01*
X199071428Y-64702380D01*
X199547619Y-64702380D01*
X199976190Y-65702380D02*
X199976190Y-64702380D01*
X200214285Y-64702380D01*
X200357142Y-64750000D01*
X200452380Y-64845238D01*
X200500000Y-64940476D01*
X200547619Y-65130952D01*
X200547619Y-65273809D01*
X200500000Y-65464285D01*
X200452380Y-65559523D01*
X200357142Y-65654761D01*
X200214285Y-65702380D01*
X199976190Y-65702380D01*
%TO.C,Mode6*%
X189127142Y-80492380D02*
X189127142Y-79492380D01*
X189460476Y-80206666D01*
X189793809Y-79492380D01*
X189793809Y-80492380D01*
X190412857Y-80492380D02*
X190317619Y-80444761D01*
X190270000Y-80397142D01*
X190222380Y-80301904D01*
X190222380Y-80016190D01*
X190270000Y-79920952D01*
X190317619Y-79873333D01*
X190412857Y-79825714D01*
X190555714Y-79825714D01*
X190650952Y-79873333D01*
X190698571Y-79920952D01*
X190746190Y-80016190D01*
X190746190Y-80301904D01*
X190698571Y-80397142D01*
X190650952Y-80444761D01*
X190555714Y-80492380D01*
X190412857Y-80492380D01*
X191603333Y-80492380D02*
X191603333Y-79492380D01*
X191603333Y-80444761D02*
X191508095Y-80492380D01*
X191317619Y-80492380D01*
X191222380Y-80444761D01*
X191174761Y-80397142D01*
X191127142Y-80301904D01*
X191127142Y-80016190D01*
X191174761Y-79920952D01*
X191222380Y-79873333D01*
X191317619Y-79825714D01*
X191508095Y-79825714D01*
X191603333Y-79873333D01*
X192460476Y-80444761D02*
X192365238Y-80492380D01*
X192174761Y-80492380D01*
X192079523Y-80444761D01*
X192031904Y-80349523D01*
X192031904Y-79968571D01*
X192079523Y-79873333D01*
X192174761Y-79825714D01*
X192365238Y-79825714D01*
X192460476Y-79873333D01*
X192508095Y-79968571D01*
X192508095Y-80063809D01*
X192031904Y-80159047D01*
X193365238Y-79492380D02*
X193174761Y-79492380D01*
X193079523Y-79540000D01*
X193031904Y-79587619D01*
X192936666Y-79730476D01*
X192889047Y-79920952D01*
X192889047Y-80301904D01*
X192936666Y-80397142D01*
X192984285Y-80444761D01*
X193079523Y-80492380D01*
X193270000Y-80492380D01*
X193365238Y-80444761D01*
X193412857Y-80397142D01*
X193460476Y-80301904D01*
X193460476Y-80063809D01*
X193412857Y-79968571D01*
X193365238Y-79920952D01*
X193270000Y-79873333D01*
X193079523Y-79873333D01*
X192984285Y-79920952D01*
X192936666Y-79968571D01*
X192889047Y-80063809D01*
%TO.C,Mode1*%
X189127142Y-110492380D02*
X189127142Y-109492380D01*
X189460476Y-110206666D01*
X189793809Y-109492380D01*
X189793809Y-110492380D01*
X190412857Y-110492380D02*
X190317619Y-110444761D01*
X190270000Y-110397142D01*
X190222380Y-110301904D01*
X190222380Y-110016190D01*
X190270000Y-109920952D01*
X190317619Y-109873333D01*
X190412857Y-109825714D01*
X190555714Y-109825714D01*
X190650952Y-109873333D01*
X190698571Y-109920952D01*
X190746190Y-110016190D01*
X190746190Y-110301904D01*
X190698571Y-110397142D01*
X190650952Y-110444761D01*
X190555714Y-110492380D01*
X190412857Y-110492380D01*
X191603333Y-110492380D02*
X191603333Y-109492380D01*
X191603333Y-110444761D02*
X191508095Y-110492380D01*
X191317619Y-110492380D01*
X191222380Y-110444761D01*
X191174761Y-110397142D01*
X191127142Y-110301904D01*
X191127142Y-110016190D01*
X191174761Y-109920952D01*
X191222380Y-109873333D01*
X191317619Y-109825714D01*
X191508095Y-109825714D01*
X191603333Y-109873333D01*
X192460476Y-110444761D02*
X192365238Y-110492380D01*
X192174761Y-110492380D01*
X192079523Y-110444761D01*
X192031904Y-110349523D01*
X192031904Y-109968571D01*
X192079523Y-109873333D01*
X192174761Y-109825714D01*
X192365238Y-109825714D01*
X192460476Y-109873333D01*
X192508095Y-109968571D01*
X192508095Y-110063809D01*
X192031904Y-110159047D01*
X193460476Y-110492380D02*
X192889047Y-110492380D01*
X193174761Y-110492380D02*
X193174761Y-109492380D01*
X193079523Y-109635238D01*
X192984285Y-109730476D01*
X192889047Y-109778095D01*
%TO.C,10k\u03A9 SW pull-down*%
X172095238Y-114822380D02*
X171523809Y-114822380D01*
X171809523Y-114822380D02*
X171809523Y-113822380D01*
X171714285Y-113965238D01*
X171619047Y-114060476D01*
X171523809Y-114108095D01*
X172714285Y-113822380D02*
X172809523Y-113822380D01*
X172904761Y-113870000D01*
X172952380Y-113917619D01*
X173000000Y-114012857D01*
X173047619Y-114203333D01*
X173047619Y-114441428D01*
X173000000Y-114631904D01*
X172952380Y-114727142D01*
X172904761Y-114774761D01*
X172809523Y-114822380D01*
X172714285Y-114822380D01*
X172619047Y-114774761D01*
X172571428Y-114727142D01*
X172523809Y-114631904D01*
X172476190Y-114441428D01*
X172476190Y-114203333D01*
X172523809Y-114012857D01*
X172571428Y-113917619D01*
X172619047Y-113870000D01*
X172714285Y-113822380D01*
X173476190Y-114822380D02*
X173476190Y-113822380D01*
X173571428Y-114441428D02*
X173857142Y-114822380D01*
X173857142Y-114155714D02*
X173476190Y-114536666D01*
X174238095Y-114822380D02*
X174476190Y-114822380D01*
X174476190Y-114631904D01*
X174380952Y-114584285D01*
X174285714Y-114489047D01*
X174238095Y-114346190D01*
X174238095Y-114108095D01*
X174285714Y-113965238D01*
X174380952Y-113870000D01*
X174523809Y-113822380D01*
X174714285Y-113822380D01*
X174857142Y-113870000D01*
X174952380Y-113965238D01*
X175000000Y-114108095D01*
X175000000Y-114346190D01*
X174952380Y-114489047D01*
X174857142Y-114584285D01*
X174761904Y-114631904D01*
X174761904Y-114822380D01*
X175000000Y-114822380D01*
X176142857Y-114774761D02*
X176285714Y-114822380D01*
X176523809Y-114822380D01*
X176619047Y-114774761D01*
X176666666Y-114727142D01*
X176714285Y-114631904D01*
X176714285Y-114536666D01*
X176666666Y-114441428D01*
X176619047Y-114393809D01*
X176523809Y-114346190D01*
X176333333Y-114298571D01*
X176238095Y-114250952D01*
X176190476Y-114203333D01*
X176142857Y-114108095D01*
X176142857Y-114012857D01*
X176190476Y-113917619D01*
X176238095Y-113870000D01*
X176333333Y-113822380D01*
X176571428Y-113822380D01*
X176714285Y-113870000D01*
X177047619Y-113822380D02*
X177285714Y-114822380D01*
X177476190Y-114108095D01*
X177666666Y-114822380D01*
X177904761Y-113822380D01*
X179047619Y-114155714D02*
X179047619Y-115155714D01*
X179047619Y-114203333D02*
X179142857Y-114155714D01*
X179333333Y-114155714D01*
X179428571Y-114203333D01*
X179476190Y-114250952D01*
X179523809Y-114346190D01*
X179523809Y-114631904D01*
X179476190Y-114727142D01*
X179428571Y-114774761D01*
X179333333Y-114822380D01*
X179142857Y-114822380D01*
X179047619Y-114774761D01*
X180380952Y-114155714D02*
X180380952Y-114822380D01*
X179952380Y-114155714D02*
X179952380Y-114679523D01*
X180000000Y-114774761D01*
X180095238Y-114822380D01*
X180238095Y-114822380D01*
X180333333Y-114774761D01*
X180380952Y-114727142D01*
X181000000Y-114822380D02*
X180904761Y-114774761D01*
X180857142Y-114679523D01*
X180857142Y-113822380D01*
X181523809Y-114822380D02*
X181428571Y-114774761D01*
X181380952Y-114679523D01*
X181380952Y-113822380D01*
X181904761Y-114441428D02*
X182666666Y-114441428D01*
X183571428Y-114822380D02*
X183571428Y-113822380D01*
X183571428Y-114774761D02*
X183476190Y-114822380D01*
X183285714Y-114822380D01*
X183190476Y-114774761D01*
X183142857Y-114727142D01*
X183095238Y-114631904D01*
X183095238Y-114346190D01*
X183142857Y-114250952D01*
X183190476Y-114203333D01*
X183285714Y-114155714D01*
X183476190Y-114155714D01*
X183571428Y-114203333D01*
X184190476Y-114822380D02*
X184095238Y-114774761D01*
X184047619Y-114727142D01*
X184000000Y-114631904D01*
X184000000Y-114346190D01*
X184047619Y-114250952D01*
X184095238Y-114203333D01*
X184190476Y-114155714D01*
X184333333Y-114155714D01*
X184428571Y-114203333D01*
X184476190Y-114250952D01*
X184523809Y-114346190D01*
X184523809Y-114631904D01*
X184476190Y-114727142D01*
X184428571Y-114774761D01*
X184333333Y-114822380D01*
X184190476Y-114822380D01*
X184857142Y-114155714D02*
X185047619Y-114822380D01*
X185238095Y-114346190D01*
X185428571Y-114822380D01*
X185619047Y-114155714D01*
X186000000Y-114155714D02*
X186000000Y-114822380D01*
X186000000Y-114250952D02*
X186047619Y-114203333D01*
X186142857Y-114155714D01*
X186285714Y-114155714D01*
X186380952Y-114203333D01*
X186428571Y-114298571D01*
X186428571Y-114822380D01*
%TO.C,Stim-Strength*%
X205754761Y-112488095D02*
X205802380Y-112345238D01*
X205802380Y-112107142D01*
X205754761Y-112011904D01*
X205707142Y-111964285D01*
X205611904Y-111916666D01*
X205516666Y-111916666D01*
X205421428Y-111964285D01*
X205373809Y-112011904D01*
X205326190Y-112107142D01*
X205278571Y-112297619D01*
X205230952Y-112392857D01*
X205183333Y-112440476D01*
X205088095Y-112488095D01*
X204992857Y-112488095D01*
X204897619Y-112440476D01*
X204850000Y-112392857D01*
X204802380Y-112297619D01*
X204802380Y-112059523D01*
X204850000Y-111916666D01*
X205135714Y-111630952D02*
X205135714Y-111250000D01*
X204802380Y-111488095D02*
X205659523Y-111488095D01*
X205754761Y-111440476D01*
X205802380Y-111345238D01*
X205802380Y-111250000D01*
X205802380Y-110916666D02*
X205135714Y-110916666D01*
X204802380Y-110916666D02*
X204850000Y-110964285D01*
X204897619Y-110916666D01*
X204850000Y-110869047D01*
X204802380Y-110916666D01*
X204897619Y-110916666D01*
X205802380Y-110440476D02*
X205135714Y-110440476D01*
X205230952Y-110440476D02*
X205183333Y-110392857D01*
X205135714Y-110297619D01*
X205135714Y-110154761D01*
X205183333Y-110059523D01*
X205278571Y-110011904D01*
X205802380Y-110011904D01*
X205278571Y-110011904D02*
X205183333Y-109964285D01*
X205135714Y-109869047D01*
X205135714Y-109726190D01*
X205183333Y-109630952D01*
X205278571Y-109583333D01*
X205802380Y-109583333D01*
X205421428Y-109107142D02*
X205421428Y-108345238D01*
X205754761Y-107916666D02*
X205802380Y-107773809D01*
X205802380Y-107535714D01*
X205754761Y-107440476D01*
X205707142Y-107392857D01*
X205611904Y-107345238D01*
X205516666Y-107345238D01*
X205421428Y-107392857D01*
X205373809Y-107440476D01*
X205326190Y-107535714D01*
X205278571Y-107726190D01*
X205230952Y-107821428D01*
X205183333Y-107869047D01*
X205088095Y-107916666D01*
X204992857Y-107916666D01*
X204897619Y-107869047D01*
X204850000Y-107821428D01*
X204802380Y-107726190D01*
X204802380Y-107488095D01*
X204850000Y-107345238D01*
X205135714Y-107059523D02*
X205135714Y-106678571D01*
X204802380Y-106916666D02*
X205659523Y-106916666D01*
X205754761Y-106869047D01*
X205802380Y-106773809D01*
X205802380Y-106678571D01*
X205802380Y-106345238D02*
X205135714Y-106345238D01*
X205326190Y-106345238D02*
X205230952Y-106297619D01*
X205183333Y-106250000D01*
X205135714Y-106154761D01*
X205135714Y-106059523D01*
X205754761Y-105345238D02*
X205802380Y-105440476D01*
X205802380Y-105630952D01*
X205754761Y-105726190D01*
X205659523Y-105773809D01*
X205278571Y-105773809D01*
X205183333Y-105726190D01*
X205135714Y-105630952D01*
X205135714Y-105440476D01*
X205183333Y-105345238D01*
X205278571Y-105297619D01*
X205373809Y-105297619D01*
X205469047Y-105773809D01*
X205135714Y-104869047D02*
X205802380Y-104869047D01*
X205230952Y-104869047D02*
X205183333Y-104821428D01*
X205135714Y-104726190D01*
X205135714Y-104583333D01*
X205183333Y-104488095D01*
X205278571Y-104440476D01*
X205802380Y-104440476D01*
X205135714Y-103535714D02*
X205945238Y-103535714D01*
X206040476Y-103583333D01*
X206088095Y-103630952D01*
X206135714Y-103726190D01*
X206135714Y-103869047D01*
X206088095Y-103964285D01*
X205754761Y-103535714D02*
X205802380Y-103630952D01*
X205802380Y-103821428D01*
X205754761Y-103916666D01*
X205707142Y-103964285D01*
X205611904Y-104011904D01*
X205326190Y-104011904D01*
X205230952Y-103964285D01*
X205183333Y-103916666D01*
X205135714Y-103821428D01*
X205135714Y-103630952D01*
X205183333Y-103535714D01*
X205135714Y-103202380D02*
X205135714Y-102821428D01*
X204802380Y-103059523D02*
X205659523Y-103059523D01*
X205754761Y-103011904D01*
X205802380Y-102916666D01*
X205802380Y-102821428D01*
X205802380Y-102488095D02*
X204802380Y-102488095D01*
X205802380Y-102059523D02*
X205278571Y-102059523D01*
X205183333Y-102107142D01*
X205135714Y-102202380D01*
X205135714Y-102345238D01*
X205183333Y-102440476D01*
X205230952Y-102488095D01*
%TO.C,Noise*%
X177190476Y-114952380D02*
X177190476Y-113952380D01*
X177761904Y-114952380D01*
X177761904Y-113952380D01*
X178380952Y-114952380D02*
X178285714Y-114904761D01*
X178238095Y-114857142D01*
X178190476Y-114761904D01*
X178190476Y-114476190D01*
X178238095Y-114380952D01*
X178285714Y-114333333D01*
X178380952Y-114285714D01*
X178523809Y-114285714D01*
X178619047Y-114333333D01*
X178666666Y-114380952D01*
X178714285Y-114476190D01*
X178714285Y-114761904D01*
X178666666Y-114857142D01*
X178619047Y-114904761D01*
X178523809Y-114952380D01*
X178380952Y-114952380D01*
X179142857Y-114952380D02*
X179142857Y-114285714D01*
X179142857Y-113952380D02*
X179095238Y-114000000D01*
X179142857Y-114047619D01*
X179190476Y-114000000D01*
X179142857Y-113952380D01*
X179142857Y-114047619D01*
X179571428Y-114904761D02*
X179666666Y-114952380D01*
X179857142Y-114952380D01*
X179952380Y-114904761D01*
X180000000Y-114809523D01*
X180000000Y-114761904D01*
X179952380Y-114666666D01*
X179857142Y-114619047D01*
X179714285Y-114619047D01*
X179619047Y-114571428D01*
X179571428Y-114476190D01*
X179571428Y-114428571D01*
X179619047Y-114333333D01*
X179714285Y-114285714D01*
X179857142Y-114285714D01*
X179952380Y-114333333D01*
X180809523Y-114904761D02*
X180714285Y-114952380D01*
X180523809Y-114952380D01*
X180428571Y-114904761D01*
X180380952Y-114809523D01*
X180380952Y-114428571D01*
X180428571Y-114333333D01*
X180523809Y-114285714D01*
X180714285Y-114285714D01*
X180809523Y-114333333D01*
X180857142Y-114428571D01*
X180857142Y-114523809D01*
X180380952Y-114619047D01*
%TO.C,Synapse In 1*%
X114654761Y-60535714D02*
X114702380Y-60392857D01*
X114702380Y-60154761D01*
X114654761Y-60059523D01*
X114607142Y-60011904D01*
X114511904Y-59964285D01*
X114416666Y-59964285D01*
X114321428Y-60011904D01*
X114273809Y-60059523D01*
X114226190Y-60154761D01*
X114178571Y-60345238D01*
X114130952Y-60440476D01*
X114083333Y-60488095D01*
X113988095Y-60535714D01*
X113892857Y-60535714D01*
X113797619Y-60488095D01*
X113750000Y-60440476D01*
X113702380Y-60345238D01*
X113702380Y-60107142D01*
X113750000Y-59964285D01*
X114035714Y-59630952D02*
X114702380Y-59392857D01*
X114035714Y-59154761D02*
X114702380Y-59392857D01*
X114940476Y-59488095D01*
X114988095Y-59535714D01*
X115035714Y-59630952D01*
X114035714Y-58773809D02*
X114702380Y-58773809D01*
X114130952Y-58773809D02*
X114083333Y-58726190D01*
X114035714Y-58630952D01*
X114035714Y-58488095D01*
X114083333Y-58392857D01*
X114178571Y-58345238D01*
X114702380Y-58345238D01*
X114702380Y-57440476D02*
X114178571Y-57440476D01*
X114083333Y-57488095D01*
X114035714Y-57583333D01*
X114035714Y-57773809D01*
X114083333Y-57869047D01*
X114654761Y-57440476D02*
X114702380Y-57535714D01*
X114702380Y-57773809D01*
X114654761Y-57869047D01*
X114559523Y-57916666D01*
X114464285Y-57916666D01*
X114369047Y-57869047D01*
X114321428Y-57773809D01*
X114321428Y-57535714D01*
X114273809Y-57440476D01*
X114035714Y-56964285D02*
X115035714Y-56964285D01*
X114083333Y-56964285D02*
X114035714Y-56869047D01*
X114035714Y-56678571D01*
X114083333Y-56583333D01*
X114130952Y-56535714D01*
X114226190Y-56488095D01*
X114511904Y-56488095D01*
X114607142Y-56535714D01*
X114654761Y-56583333D01*
X114702380Y-56678571D01*
X114702380Y-56869047D01*
X114654761Y-56964285D01*
X114654761Y-56107142D02*
X114702380Y-56011904D01*
X114702380Y-55821428D01*
X114654761Y-55726190D01*
X114559523Y-55678571D01*
X114511904Y-55678571D01*
X114416666Y-55726190D01*
X114369047Y-55821428D01*
X114369047Y-55964285D01*
X114321428Y-56059523D01*
X114226190Y-56107142D01*
X114178571Y-56107142D01*
X114083333Y-56059523D01*
X114035714Y-55964285D01*
X114035714Y-55821428D01*
X114083333Y-55726190D01*
X114654761Y-54869047D02*
X114702380Y-54964285D01*
X114702380Y-55154761D01*
X114654761Y-55250000D01*
X114559523Y-55297619D01*
X114178571Y-55297619D01*
X114083333Y-55250000D01*
X114035714Y-55154761D01*
X114035714Y-54964285D01*
X114083333Y-54869047D01*
X114178571Y-54821428D01*
X114273809Y-54821428D01*
X114369047Y-55297619D01*
X114702380Y-53630952D02*
X113702380Y-53630952D01*
X114035714Y-53154761D02*
X114702380Y-53154761D01*
X114130952Y-53154761D02*
X114083333Y-53107142D01*
X114035714Y-53011904D01*
X114035714Y-52869047D01*
X114083333Y-52773809D01*
X114178571Y-52726190D01*
X114702380Y-52726190D01*
X114702380Y-50964285D02*
X114702380Y-51535714D01*
X114702380Y-51250000D02*
X113702380Y-51250000D01*
X113845238Y-51345238D01*
X113940476Y-51440476D01*
X113988095Y-51535714D01*
%TO.C,Synapse Out*%
X209500000Y-67654761D02*
X209642857Y-67702380D01*
X209880952Y-67702380D01*
X209976190Y-67654761D01*
X210023809Y-67607142D01*
X210071428Y-67511904D01*
X210071428Y-67416666D01*
X210023809Y-67321428D01*
X209976190Y-67273809D01*
X209880952Y-67226190D01*
X209690476Y-67178571D01*
X209595238Y-67130952D01*
X209547619Y-67083333D01*
X209500000Y-66988095D01*
X209500000Y-66892857D01*
X209547619Y-66797619D01*
X209595238Y-66750000D01*
X209690476Y-66702380D01*
X209928571Y-66702380D01*
X210071428Y-66750000D01*
X210404761Y-67035714D02*
X210642857Y-67702380D01*
X210880952Y-67035714D02*
X210642857Y-67702380D01*
X210547619Y-67940476D01*
X210500000Y-67988095D01*
X210404761Y-68035714D01*
X211261904Y-67035714D02*
X211261904Y-67702380D01*
X211261904Y-67130952D02*
X211309523Y-67083333D01*
X211404761Y-67035714D01*
X211547619Y-67035714D01*
X211642857Y-67083333D01*
X211690476Y-67178571D01*
X211690476Y-67702380D01*
X212595238Y-67702380D02*
X212595238Y-67178571D01*
X212547619Y-67083333D01*
X212452380Y-67035714D01*
X212261904Y-67035714D01*
X212166666Y-67083333D01*
X212595238Y-67654761D02*
X212500000Y-67702380D01*
X212261904Y-67702380D01*
X212166666Y-67654761D01*
X212119047Y-67559523D01*
X212119047Y-67464285D01*
X212166666Y-67369047D01*
X212261904Y-67321428D01*
X212500000Y-67321428D01*
X212595238Y-67273809D01*
X213071428Y-67035714D02*
X213071428Y-68035714D01*
X213071428Y-67083333D02*
X213166666Y-67035714D01*
X213357142Y-67035714D01*
X213452380Y-67083333D01*
X213500000Y-67130952D01*
X213547619Y-67226190D01*
X213547619Y-67511904D01*
X213500000Y-67607142D01*
X213452380Y-67654761D01*
X213357142Y-67702380D01*
X213166666Y-67702380D01*
X213071428Y-67654761D01*
X213928571Y-67654761D02*
X214023809Y-67702380D01*
X214214285Y-67702380D01*
X214309523Y-67654761D01*
X214357142Y-67559523D01*
X214357142Y-67511904D01*
X214309523Y-67416666D01*
X214214285Y-67369047D01*
X214071428Y-67369047D01*
X213976190Y-67321428D01*
X213928571Y-67226190D01*
X213928571Y-67178571D01*
X213976190Y-67083333D01*
X214071428Y-67035714D01*
X214214285Y-67035714D01*
X214309523Y-67083333D01*
X215166666Y-67654761D02*
X215071428Y-67702380D01*
X214880952Y-67702380D01*
X214785714Y-67654761D01*
X214738095Y-67559523D01*
X214738095Y-67178571D01*
X214785714Y-67083333D01*
X214880952Y-67035714D01*
X215071428Y-67035714D01*
X215166666Y-67083333D01*
X215214285Y-67178571D01*
X215214285Y-67273809D01*
X214738095Y-67369047D01*
X216595238Y-66702380D02*
X216785714Y-66702380D01*
X216880952Y-66750000D01*
X216976190Y-66845238D01*
X217023809Y-67035714D01*
X217023809Y-67369047D01*
X216976190Y-67559523D01*
X216880952Y-67654761D01*
X216785714Y-67702380D01*
X216595238Y-67702380D01*
X216500000Y-67654761D01*
X216404761Y-67559523D01*
X216357142Y-67369047D01*
X216357142Y-67035714D01*
X216404761Y-66845238D01*
X216500000Y-66750000D01*
X216595238Y-66702380D01*
X217880952Y-67035714D02*
X217880952Y-67702380D01*
X217452380Y-67035714D02*
X217452380Y-67559523D01*
X217500000Y-67654761D01*
X217595238Y-67702380D01*
X217738095Y-67702380D01*
X217833333Y-67654761D01*
X217880952Y-67607142D01*
X218214285Y-67035714D02*
X218595238Y-67035714D01*
X218357142Y-66702380D02*
X218357142Y-67559523D01*
X218404761Y-67654761D01*
X218500000Y-67702380D01*
X218595238Y-67702380D01*
%TO.C,Synapse 1 Gain*%
X114654761Y-74488095D02*
X114702380Y-74345238D01*
X114702380Y-74107142D01*
X114654761Y-74011904D01*
X114607142Y-73964285D01*
X114511904Y-73916666D01*
X114416666Y-73916666D01*
X114321428Y-73964285D01*
X114273809Y-74011904D01*
X114226190Y-74107142D01*
X114178571Y-74297619D01*
X114130952Y-74392857D01*
X114083333Y-74440476D01*
X113988095Y-74488095D01*
X113892857Y-74488095D01*
X113797619Y-74440476D01*
X113750000Y-74392857D01*
X113702380Y-74297619D01*
X113702380Y-74059523D01*
X113750000Y-73916666D01*
X114035714Y-73583333D02*
X114702380Y-73345238D01*
X114035714Y-73107142D02*
X114702380Y-73345238D01*
X114940476Y-73440476D01*
X114988095Y-73488095D01*
X115035714Y-73583333D01*
X114035714Y-72726190D02*
X114702380Y-72726190D01*
X114130952Y-72726190D02*
X114083333Y-72678571D01*
X114035714Y-72583333D01*
X114035714Y-72440476D01*
X114083333Y-72345238D01*
X114178571Y-72297619D01*
X114702380Y-72297619D01*
X114702380Y-71392857D02*
X114178571Y-71392857D01*
X114083333Y-71440476D01*
X114035714Y-71535714D01*
X114035714Y-71726190D01*
X114083333Y-71821428D01*
X114654761Y-71392857D02*
X114702380Y-71488095D01*
X114702380Y-71726190D01*
X114654761Y-71821428D01*
X114559523Y-71869047D01*
X114464285Y-71869047D01*
X114369047Y-71821428D01*
X114321428Y-71726190D01*
X114321428Y-71488095D01*
X114273809Y-71392857D01*
X114035714Y-70916666D02*
X115035714Y-70916666D01*
X114083333Y-70916666D02*
X114035714Y-70821428D01*
X114035714Y-70630952D01*
X114083333Y-70535714D01*
X114130952Y-70488095D01*
X114226190Y-70440476D01*
X114511904Y-70440476D01*
X114607142Y-70488095D01*
X114654761Y-70535714D01*
X114702380Y-70630952D01*
X114702380Y-70821428D01*
X114654761Y-70916666D01*
X114654761Y-70059523D02*
X114702380Y-69964285D01*
X114702380Y-69773809D01*
X114654761Y-69678571D01*
X114559523Y-69630952D01*
X114511904Y-69630952D01*
X114416666Y-69678571D01*
X114369047Y-69773809D01*
X114369047Y-69916666D01*
X114321428Y-70011904D01*
X114226190Y-70059523D01*
X114178571Y-70059523D01*
X114083333Y-70011904D01*
X114035714Y-69916666D01*
X114035714Y-69773809D01*
X114083333Y-69678571D01*
X114654761Y-68821428D02*
X114702380Y-68916666D01*
X114702380Y-69107142D01*
X114654761Y-69202380D01*
X114559523Y-69250000D01*
X114178571Y-69250000D01*
X114083333Y-69202380D01*
X114035714Y-69107142D01*
X114035714Y-68916666D01*
X114083333Y-68821428D01*
X114178571Y-68773809D01*
X114273809Y-68773809D01*
X114369047Y-69250000D01*
X114702380Y-67059523D02*
X114702380Y-67630952D01*
X114702380Y-67345238D02*
X113702380Y-67345238D01*
X113845238Y-67440476D01*
X113940476Y-67535714D01*
X113988095Y-67630952D01*
X113750000Y-65345238D02*
X113702380Y-65440476D01*
X113702380Y-65583333D01*
X113750000Y-65726190D01*
X113845238Y-65821428D01*
X113940476Y-65869047D01*
X114130952Y-65916666D01*
X114273809Y-65916666D01*
X114464285Y-65869047D01*
X114559523Y-65821428D01*
X114654761Y-65726190D01*
X114702380Y-65583333D01*
X114702380Y-65488095D01*
X114654761Y-65345238D01*
X114607142Y-65297619D01*
X114273809Y-65297619D01*
X114273809Y-65488095D01*
X114702380Y-64440476D02*
X114178571Y-64440476D01*
X114083333Y-64488095D01*
X114035714Y-64583333D01*
X114035714Y-64773809D01*
X114083333Y-64869047D01*
X114654761Y-64440476D02*
X114702380Y-64535714D01*
X114702380Y-64773809D01*
X114654761Y-64869047D01*
X114559523Y-64916666D01*
X114464285Y-64916666D01*
X114369047Y-64869047D01*
X114321428Y-64773809D01*
X114321428Y-64535714D01*
X114273809Y-64440476D01*
X114702380Y-63964285D02*
X114035714Y-63964285D01*
X113702380Y-63964285D02*
X113750000Y-64011904D01*
X113797619Y-63964285D01*
X113750000Y-63916666D01*
X113702380Y-63964285D01*
X113797619Y-63964285D01*
X114035714Y-63488095D02*
X114702380Y-63488095D01*
X114130952Y-63488095D02*
X114083333Y-63440476D01*
X114035714Y-63345238D01*
X114035714Y-63202380D01*
X114083333Y-63107142D01*
X114178571Y-63059523D01*
X114702380Y-63059523D01*
%TO.C,Mode3*%
X189127142Y-98492380D02*
X189127142Y-97492380D01*
X189460476Y-98206666D01*
X189793809Y-97492380D01*
X189793809Y-98492380D01*
X190412857Y-98492380D02*
X190317619Y-98444761D01*
X190270000Y-98397142D01*
X190222380Y-98301904D01*
X190222380Y-98016190D01*
X190270000Y-97920952D01*
X190317619Y-97873333D01*
X190412857Y-97825714D01*
X190555714Y-97825714D01*
X190650952Y-97873333D01*
X190698571Y-97920952D01*
X190746190Y-98016190D01*
X190746190Y-98301904D01*
X190698571Y-98397142D01*
X190650952Y-98444761D01*
X190555714Y-98492380D01*
X190412857Y-98492380D01*
X191603333Y-98492380D02*
X191603333Y-97492380D01*
X191603333Y-98444761D02*
X191508095Y-98492380D01*
X191317619Y-98492380D01*
X191222380Y-98444761D01*
X191174761Y-98397142D01*
X191127142Y-98301904D01*
X191127142Y-98016190D01*
X191174761Y-97920952D01*
X191222380Y-97873333D01*
X191317619Y-97825714D01*
X191508095Y-97825714D01*
X191603333Y-97873333D01*
X192460476Y-98444761D02*
X192365238Y-98492380D01*
X192174761Y-98492380D01*
X192079523Y-98444761D01*
X192031904Y-98349523D01*
X192031904Y-97968571D01*
X192079523Y-97873333D01*
X192174761Y-97825714D01*
X192365238Y-97825714D01*
X192460476Y-97873333D01*
X192508095Y-97968571D01*
X192508095Y-98063809D01*
X192031904Y-98159047D01*
X192841428Y-97492380D02*
X193460476Y-97492380D01*
X193127142Y-97873333D01*
X193270000Y-97873333D01*
X193365238Y-97920952D01*
X193412857Y-97968571D01*
X193460476Y-98063809D01*
X193460476Y-98301904D01*
X193412857Y-98397142D01*
X193365238Y-98444761D01*
X193270000Y-98492380D01*
X192984285Y-98492380D01*
X192889047Y-98444761D01*
X192841428Y-98397142D01*
%TO.C,Voltage Membrane*%
X113690476Y-113702380D02*
X114023809Y-114702380D01*
X114357142Y-113702380D01*
X114833333Y-114702380D02*
X114738095Y-114654761D01*
X114690476Y-114607142D01*
X114642857Y-114511904D01*
X114642857Y-114226190D01*
X114690476Y-114130952D01*
X114738095Y-114083333D01*
X114833333Y-114035714D01*
X114976190Y-114035714D01*
X115071428Y-114083333D01*
X115119047Y-114130952D01*
X115166666Y-114226190D01*
X115166666Y-114511904D01*
X115119047Y-114607142D01*
X115071428Y-114654761D01*
X114976190Y-114702380D01*
X114833333Y-114702380D01*
X115738095Y-114702380D02*
X115642857Y-114654761D01*
X115595238Y-114559523D01*
X115595238Y-113702380D01*
X115976190Y-114035714D02*
X116357142Y-114035714D01*
X116119047Y-113702380D02*
X116119047Y-114559523D01*
X116166666Y-114654761D01*
X116261904Y-114702380D01*
X116357142Y-114702380D01*
X117119047Y-114702380D02*
X117119047Y-114178571D01*
X117071428Y-114083333D01*
X116976190Y-114035714D01*
X116785714Y-114035714D01*
X116690476Y-114083333D01*
X117119047Y-114654761D02*
X117023809Y-114702380D01*
X116785714Y-114702380D01*
X116690476Y-114654761D01*
X116642857Y-114559523D01*
X116642857Y-114464285D01*
X116690476Y-114369047D01*
X116785714Y-114321428D01*
X117023809Y-114321428D01*
X117119047Y-114273809D01*
X118023809Y-114035714D02*
X118023809Y-114845238D01*
X117976190Y-114940476D01*
X117928571Y-114988095D01*
X117833333Y-115035714D01*
X117690476Y-115035714D01*
X117595238Y-114988095D01*
X118023809Y-114654761D02*
X117928571Y-114702380D01*
X117738095Y-114702380D01*
X117642857Y-114654761D01*
X117595238Y-114607142D01*
X117547619Y-114511904D01*
X117547619Y-114226190D01*
X117595238Y-114130952D01*
X117642857Y-114083333D01*
X117738095Y-114035714D01*
X117928571Y-114035714D01*
X118023809Y-114083333D01*
X118880952Y-114654761D02*
X118785714Y-114702380D01*
X118595238Y-114702380D01*
X118500000Y-114654761D01*
X118452380Y-114559523D01*
X118452380Y-114178571D01*
X118500000Y-114083333D01*
X118595238Y-114035714D01*
X118785714Y-114035714D01*
X118880952Y-114083333D01*
X118928571Y-114178571D01*
X118928571Y-114273809D01*
X118452380Y-114369047D01*
X120119047Y-114702380D02*
X120119047Y-113702380D01*
X120452380Y-114416666D01*
X120785714Y-113702380D01*
X120785714Y-114702380D01*
X121642857Y-114654761D02*
X121547619Y-114702380D01*
X121357142Y-114702380D01*
X121261904Y-114654761D01*
X121214285Y-114559523D01*
X121214285Y-114178571D01*
X121261904Y-114083333D01*
X121357142Y-114035714D01*
X121547619Y-114035714D01*
X121642857Y-114083333D01*
X121690476Y-114178571D01*
X121690476Y-114273809D01*
X121214285Y-114369047D01*
X122119047Y-114702380D02*
X122119047Y-114035714D01*
X122119047Y-114130952D02*
X122166666Y-114083333D01*
X122261904Y-114035714D01*
X122404761Y-114035714D01*
X122500000Y-114083333D01*
X122547619Y-114178571D01*
X122547619Y-114702380D01*
X122547619Y-114178571D02*
X122595238Y-114083333D01*
X122690476Y-114035714D01*
X122833333Y-114035714D01*
X122928571Y-114083333D01*
X122976190Y-114178571D01*
X122976190Y-114702380D01*
X123452380Y-114702380D02*
X123452380Y-113702380D01*
X123452380Y-114083333D02*
X123547619Y-114035714D01*
X123738095Y-114035714D01*
X123833333Y-114083333D01*
X123880952Y-114130952D01*
X123928571Y-114226190D01*
X123928571Y-114511904D01*
X123880952Y-114607142D01*
X123833333Y-114654761D01*
X123738095Y-114702380D01*
X123547619Y-114702380D01*
X123452380Y-114654761D01*
X124357142Y-114702380D02*
X124357142Y-114035714D01*
X124357142Y-114226190D02*
X124404761Y-114130952D01*
X124452380Y-114083333D01*
X124547619Y-114035714D01*
X124642857Y-114035714D01*
X125404761Y-114702380D02*
X125404761Y-114178571D01*
X125357142Y-114083333D01*
X125261904Y-114035714D01*
X125071428Y-114035714D01*
X124976190Y-114083333D01*
X125404761Y-114654761D02*
X125309523Y-114702380D01*
X125071428Y-114702380D01*
X124976190Y-114654761D01*
X124928571Y-114559523D01*
X124928571Y-114464285D01*
X124976190Y-114369047D01*
X125071428Y-114321428D01*
X125309523Y-114321428D01*
X125404761Y-114273809D01*
X125880952Y-114035714D02*
X125880952Y-114702380D01*
X125880952Y-114130952D02*
X125928571Y-114083333D01*
X126023809Y-114035714D01*
X126166666Y-114035714D01*
X126261904Y-114083333D01*
X126309523Y-114178571D01*
X126309523Y-114702380D01*
X127166666Y-114654761D02*
X127071428Y-114702380D01*
X126880952Y-114702380D01*
X126785714Y-114654761D01*
X126738095Y-114559523D01*
X126738095Y-114178571D01*
X126785714Y-114083333D01*
X126880952Y-114035714D01*
X127071428Y-114035714D01*
X127166666Y-114083333D01*
X127214285Y-114178571D01*
X127214285Y-114273809D01*
X126738095Y-114369047D01*
%TO.C,100\u03A9 Stim-LED*%
X202332380Y-128511904D02*
X202332380Y-129083333D01*
X202332380Y-128797619D02*
X201332380Y-128797619D01*
X201475238Y-128892857D01*
X201570476Y-128988095D01*
X201618095Y-129083333D01*
X201332380Y-127892857D02*
X201332380Y-127797619D01*
X201380000Y-127702380D01*
X201427619Y-127654761D01*
X201522857Y-127607142D01*
X201713333Y-127559523D01*
X201951428Y-127559523D01*
X202141904Y-127607142D01*
X202237142Y-127654761D01*
X202284761Y-127702380D01*
X202332380Y-127797619D01*
X202332380Y-127892857D01*
X202284761Y-127988095D01*
X202237142Y-128035714D01*
X202141904Y-128083333D01*
X201951428Y-128130952D01*
X201713333Y-128130952D01*
X201522857Y-128083333D01*
X201427619Y-128035714D01*
X201380000Y-127988095D01*
X201332380Y-127892857D01*
X201332380Y-126940476D02*
X201332380Y-126845238D01*
X201380000Y-126750000D01*
X201427619Y-126702380D01*
X201522857Y-126654761D01*
X201713333Y-126607142D01*
X201951428Y-126607142D01*
X202141904Y-126654761D01*
X202237142Y-126702380D01*
X202284761Y-126750000D01*
X202332380Y-126845238D01*
X202332380Y-126940476D01*
X202284761Y-127035714D01*
X202237142Y-127083333D01*
X202141904Y-127130952D01*
X201951428Y-127178571D01*
X201713333Y-127178571D01*
X201522857Y-127130952D01*
X201427619Y-127083333D01*
X201380000Y-127035714D01*
X201332380Y-126940476D01*
X202332380Y-126226190D02*
X202332380Y-125988095D01*
X202141904Y-125988095D01*
X202094285Y-126083333D01*
X201999047Y-126178571D01*
X201856190Y-126226190D01*
X201618095Y-126226190D01*
X201475238Y-126178571D01*
X201380000Y-126083333D01*
X201332380Y-125940476D01*
X201332380Y-125750000D01*
X201380000Y-125607142D01*
X201475238Y-125511904D01*
X201618095Y-125464285D01*
X201856190Y-125464285D01*
X201999047Y-125511904D01*
X202094285Y-125607142D01*
X202141904Y-125702380D01*
X202332380Y-125702380D01*
X202332380Y-125464285D01*
X202284761Y-124321428D02*
X202332380Y-124178571D01*
X202332380Y-123940476D01*
X202284761Y-123845238D01*
X202237142Y-123797619D01*
X202141904Y-123750000D01*
X202046666Y-123750000D01*
X201951428Y-123797619D01*
X201903809Y-123845238D01*
X201856190Y-123940476D01*
X201808571Y-124130952D01*
X201760952Y-124226190D01*
X201713333Y-124273809D01*
X201618095Y-124321428D01*
X201522857Y-124321428D01*
X201427619Y-124273809D01*
X201380000Y-124226190D01*
X201332380Y-124130952D01*
X201332380Y-123892857D01*
X201380000Y-123750000D01*
X201665714Y-123464285D02*
X201665714Y-123083333D01*
X201332380Y-123321428D02*
X202189523Y-123321428D01*
X202284761Y-123273809D01*
X202332380Y-123178571D01*
X202332380Y-123083333D01*
X202332380Y-122750000D02*
X201665714Y-122750000D01*
X201332380Y-122750000D02*
X201380000Y-122797619D01*
X201427619Y-122750000D01*
X201380000Y-122702380D01*
X201332380Y-122750000D01*
X201427619Y-122750000D01*
X202332380Y-122273809D02*
X201665714Y-122273809D01*
X201760952Y-122273809D02*
X201713333Y-122226190D01*
X201665714Y-122130952D01*
X201665714Y-121988095D01*
X201713333Y-121892857D01*
X201808571Y-121845238D01*
X202332380Y-121845238D01*
X201808571Y-121845238D02*
X201713333Y-121797619D01*
X201665714Y-121702380D01*
X201665714Y-121559523D01*
X201713333Y-121464285D01*
X201808571Y-121416666D01*
X202332380Y-121416666D01*
X201951428Y-120940476D02*
X201951428Y-120178571D01*
X202332380Y-119226190D02*
X202332380Y-119702380D01*
X201332380Y-119702380D01*
X201808571Y-118892857D02*
X201808571Y-118559523D01*
X202332380Y-118416666D02*
X202332380Y-118892857D01*
X201332380Y-118892857D01*
X201332380Y-118416666D01*
X202332380Y-117988095D02*
X201332380Y-117988095D01*
X201332380Y-117750000D01*
X201380000Y-117607142D01*
X201475238Y-117511904D01*
X201570476Y-117464285D01*
X201760952Y-117416666D01*
X201903809Y-117416666D01*
X202094285Y-117464285D01*
X202189523Y-117511904D01*
X202284761Y-117607142D01*
X202332380Y-117750000D01*
X202332380Y-117988095D01*
%TO.C,Stimulus Out*%
X208809523Y-116654761D02*
X208952380Y-116702380D01*
X209190476Y-116702380D01*
X209285714Y-116654761D01*
X209333333Y-116607142D01*
X209380952Y-116511904D01*
X209380952Y-116416666D01*
X209333333Y-116321428D01*
X209285714Y-116273809D01*
X209190476Y-116226190D01*
X209000000Y-116178571D01*
X208904761Y-116130952D01*
X208857142Y-116083333D01*
X208809523Y-115988095D01*
X208809523Y-115892857D01*
X208857142Y-115797619D01*
X208904761Y-115750000D01*
X209000000Y-115702380D01*
X209238095Y-115702380D01*
X209380952Y-115750000D01*
X209666666Y-116035714D02*
X210047619Y-116035714D01*
X209809523Y-115702380D02*
X209809523Y-116559523D01*
X209857142Y-116654761D01*
X209952380Y-116702380D01*
X210047619Y-116702380D01*
X210380952Y-116702380D02*
X210380952Y-116035714D01*
X210380952Y-115702380D02*
X210333333Y-115750000D01*
X210380952Y-115797619D01*
X210428571Y-115750000D01*
X210380952Y-115702380D01*
X210380952Y-115797619D01*
X210857142Y-116702380D02*
X210857142Y-116035714D01*
X210857142Y-116130952D02*
X210904761Y-116083333D01*
X211000000Y-116035714D01*
X211142857Y-116035714D01*
X211238095Y-116083333D01*
X211285714Y-116178571D01*
X211285714Y-116702380D01*
X211285714Y-116178571D02*
X211333333Y-116083333D01*
X211428571Y-116035714D01*
X211571428Y-116035714D01*
X211666666Y-116083333D01*
X211714285Y-116178571D01*
X211714285Y-116702380D01*
X212619047Y-116035714D02*
X212619047Y-116702380D01*
X212190476Y-116035714D02*
X212190476Y-116559523D01*
X212238095Y-116654761D01*
X212333333Y-116702380D01*
X212476190Y-116702380D01*
X212571428Y-116654761D01*
X212619047Y-116607142D01*
X213238095Y-116702380D02*
X213142857Y-116654761D01*
X213095238Y-116559523D01*
X213095238Y-115702380D01*
X214047619Y-116035714D02*
X214047619Y-116702380D01*
X213619047Y-116035714D02*
X213619047Y-116559523D01*
X213666666Y-116654761D01*
X213761904Y-116702380D01*
X213904761Y-116702380D01*
X214000000Y-116654761D01*
X214047619Y-116607142D01*
X214476190Y-116654761D02*
X214571428Y-116702380D01*
X214761904Y-116702380D01*
X214857142Y-116654761D01*
X214904761Y-116559523D01*
X214904761Y-116511904D01*
X214857142Y-116416666D01*
X214761904Y-116369047D01*
X214619047Y-116369047D01*
X214523809Y-116321428D01*
X214476190Y-116226190D01*
X214476190Y-116178571D01*
X214523809Y-116083333D01*
X214619047Y-116035714D01*
X214761904Y-116035714D01*
X214857142Y-116083333D01*
X216285714Y-115702380D02*
X216476190Y-115702380D01*
X216571428Y-115750000D01*
X216666666Y-115845238D01*
X216714285Y-116035714D01*
X216714285Y-116369047D01*
X216666666Y-116559523D01*
X216571428Y-116654761D01*
X216476190Y-116702380D01*
X216285714Y-116702380D01*
X216190476Y-116654761D01*
X216095238Y-116559523D01*
X216047619Y-116369047D01*
X216047619Y-116035714D01*
X216095238Y-115845238D01*
X216190476Y-115750000D01*
X216285714Y-115702380D01*
X217571428Y-116035714D02*
X217571428Y-116702380D01*
X217142857Y-116035714D02*
X217142857Y-116559523D01*
X217190476Y-116654761D01*
X217285714Y-116702380D01*
X217428571Y-116702380D01*
X217523809Y-116654761D01*
X217571428Y-116607142D01*
X217904761Y-116035714D02*
X218285714Y-116035714D01*
X218047619Y-115702380D02*
X218047619Y-116559523D01*
X218095238Y-116654761D01*
X218190476Y-116702380D01*
X218285714Y-116702380D01*
%TO.C,Mode10*%
X194650952Y-92492380D02*
X194650952Y-91492380D01*
X194984285Y-92206666D01*
X195317619Y-91492380D01*
X195317619Y-92492380D01*
X195936666Y-92492380D02*
X195841428Y-92444761D01*
X195793809Y-92397142D01*
X195746190Y-92301904D01*
X195746190Y-92016190D01*
X195793809Y-91920952D01*
X195841428Y-91873333D01*
X195936666Y-91825714D01*
X196079523Y-91825714D01*
X196174761Y-91873333D01*
X196222380Y-91920952D01*
X196270000Y-92016190D01*
X196270000Y-92301904D01*
X196222380Y-92397142D01*
X196174761Y-92444761D01*
X196079523Y-92492380D01*
X195936666Y-92492380D01*
X197127142Y-92492380D02*
X197127142Y-91492380D01*
X197127142Y-92444761D02*
X197031904Y-92492380D01*
X196841428Y-92492380D01*
X196746190Y-92444761D01*
X196698571Y-92397142D01*
X196650952Y-92301904D01*
X196650952Y-92016190D01*
X196698571Y-91920952D01*
X196746190Y-91873333D01*
X196841428Y-91825714D01*
X197031904Y-91825714D01*
X197127142Y-91873333D01*
X197984285Y-92444761D02*
X197889047Y-92492380D01*
X197698571Y-92492380D01*
X197603333Y-92444761D01*
X197555714Y-92349523D01*
X197555714Y-91968571D01*
X197603333Y-91873333D01*
X197698571Y-91825714D01*
X197889047Y-91825714D01*
X197984285Y-91873333D01*
X198031904Y-91968571D01*
X198031904Y-92063809D01*
X197555714Y-92159047D01*
X198984285Y-92492380D02*
X198412857Y-92492380D01*
X198698571Y-92492380D02*
X198698571Y-91492380D01*
X198603333Y-91635238D01*
X198508095Y-91730476D01*
X198412857Y-91778095D01*
X199603333Y-91492380D02*
X199698571Y-91492380D01*
X199793809Y-91540000D01*
X199841428Y-91587619D01*
X199889047Y-91682857D01*
X199936666Y-91873333D01*
X199936666Y-92111428D01*
X199889047Y-92301904D01*
X199841428Y-92397142D01*
X199793809Y-92444761D01*
X199698571Y-92492380D01*
X199603333Y-92492380D01*
X199508095Y-92444761D01*
X199460476Y-92397142D01*
X199412857Y-92301904D01*
X199365238Y-92111428D01*
X199365238Y-91873333D01*
X199412857Y-91682857D01*
X199460476Y-91587619D01*
X199508095Y-91540000D01*
X199603333Y-91492380D01*
%TO.C,Mode8*%
X195127142Y-104492380D02*
X195127142Y-103492380D01*
X195460476Y-104206666D01*
X195793809Y-103492380D01*
X195793809Y-104492380D01*
X196412857Y-104492380D02*
X196317619Y-104444761D01*
X196270000Y-104397142D01*
X196222380Y-104301904D01*
X196222380Y-104016190D01*
X196270000Y-103920952D01*
X196317619Y-103873333D01*
X196412857Y-103825714D01*
X196555714Y-103825714D01*
X196650952Y-103873333D01*
X196698571Y-103920952D01*
X196746190Y-104016190D01*
X196746190Y-104301904D01*
X196698571Y-104397142D01*
X196650952Y-104444761D01*
X196555714Y-104492380D01*
X196412857Y-104492380D01*
X197603333Y-104492380D02*
X197603333Y-103492380D01*
X197603333Y-104444761D02*
X197508095Y-104492380D01*
X197317619Y-104492380D01*
X197222380Y-104444761D01*
X197174761Y-104397142D01*
X197127142Y-104301904D01*
X197127142Y-104016190D01*
X197174761Y-103920952D01*
X197222380Y-103873333D01*
X197317619Y-103825714D01*
X197508095Y-103825714D01*
X197603333Y-103873333D01*
X198460476Y-104444761D02*
X198365238Y-104492380D01*
X198174761Y-104492380D01*
X198079523Y-104444761D01*
X198031904Y-104349523D01*
X198031904Y-103968571D01*
X198079523Y-103873333D01*
X198174761Y-103825714D01*
X198365238Y-103825714D01*
X198460476Y-103873333D01*
X198508095Y-103968571D01*
X198508095Y-104063809D01*
X198031904Y-104159047D01*
X199079523Y-103920952D02*
X198984285Y-103873333D01*
X198936666Y-103825714D01*
X198889047Y-103730476D01*
X198889047Y-103682857D01*
X198936666Y-103587619D01*
X198984285Y-103540000D01*
X199079523Y-103492380D01*
X199270000Y-103492380D01*
X199365238Y-103540000D01*
X199412857Y-103587619D01*
X199460476Y-103682857D01*
X199460476Y-103730476D01*
X199412857Y-103825714D01*
X199365238Y-103873333D01*
X199270000Y-103920952D01*
X199079523Y-103920952D01*
X198984285Y-103968571D01*
X198936666Y-104016190D01*
X198889047Y-104111428D01*
X198889047Y-104301904D01*
X198936666Y-104397142D01*
X198984285Y-104444761D01*
X199079523Y-104492380D01*
X199270000Y-104492380D01*
X199365238Y-104444761D01*
X199412857Y-104397142D01*
X199460476Y-104301904D01*
X199460476Y-104111428D01*
X199412857Y-104016190D01*
X199365238Y-103968571D01*
X199270000Y-103920952D01*
%TO.C,50\u03A9_CharliePlex4*%
X176095238Y-98202380D02*
X175619047Y-98202380D01*
X175571428Y-98678571D01*
X175619047Y-98630952D01*
X175714285Y-98583333D01*
X175952380Y-98583333D01*
X176047619Y-98630952D01*
X176095238Y-98678571D01*
X176142857Y-98773809D01*
X176142857Y-99011904D01*
X176095238Y-99107142D01*
X176047619Y-99154761D01*
X175952380Y-99202380D01*
X175714285Y-99202380D01*
X175619047Y-99154761D01*
X175571428Y-99107142D01*
X176761904Y-98202380D02*
X176857142Y-98202380D01*
X176952380Y-98250000D01*
X177000000Y-98297619D01*
X177047619Y-98392857D01*
X177095238Y-98583333D01*
X177095238Y-98821428D01*
X177047619Y-99011904D01*
X177000000Y-99107142D01*
X176952380Y-99154761D01*
X176857142Y-99202380D01*
X176761904Y-99202380D01*
X176666666Y-99154761D01*
X176619047Y-99107142D01*
X176571428Y-99011904D01*
X176523809Y-98821428D01*
X176523809Y-98583333D01*
X176571428Y-98392857D01*
X176619047Y-98297619D01*
X176666666Y-98250000D01*
X176761904Y-98202380D01*
X177476190Y-99202380D02*
X177714285Y-99202380D01*
X177714285Y-99011904D01*
X177619047Y-98964285D01*
X177523809Y-98869047D01*
X177476190Y-98726190D01*
X177476190Y-98488095D01*
X177523809Y-98345238D01*
X177619047Y-98250000D01*
X177761904Y-98202380D01*
X177952380Y-98202380D01*
X178095238Y-98250000D01*
X178190476Y-98345238D01*
X178238095Y-98488095D01*
X178238095Y-98726190D01*
X178190476Y-98869047D01*
X178095238Y-98964285D01*
X178000000Y-99011904D01*
X178000000Y-99202380D01*
X178238095Y-99202380D01*
X178428571Y-99297619D02*
X179190476Y-99297619D01*
X180000000Y-99107142D02*
X179952380Y-99154761D01*
X179809523Y-99202380D01*
X179714285Y-99202380D01*
X179571428Y-99154761D01*
X179476190Y-99059523D01*
X179428571Y-98964285D01*
X179380952Y-98773809D01*
X179380952Y-98630952D01*
X179428571Y-98440476D01*
X179476190Y-98345238D01*
X179571428Y-98250000D01*
X179714285Y-98202380D01*
X179809523Y-98202380D01*
X179952380Y-98250000D01*
X180000000Y-98297619D01*
X180428571Y-99202380D02*
X180428571Y-98202380D01*
X180857142Y-99202380D02*
X180857142Y-98678571D01*
X180809523Y-98583333D01*
X180714285Y-98535714D01*
X180571428Y-98535714D01*
X180476190Y-98583333D01*
X180428571Y-98630952D01*
X181761904Y-99202380D02*
X181761904Y-98678571D01*
X181714285Y-98583333D01*
X181619047Y-98535714D01*
X181428571Y-98535714D01*
X181333333Y-98583333D01*
X181761904Y-99154761D02*
X181666666Y-99202380D01*
X181428571Y-99202380D01*
X181333333Y-99154761D01*
X181285714Y-99059523D01*
X181285714Y-98964285D01*
X181333333Y-98869047D01*
X181428571Y-98821428D01*
X181666666Y-98821428D01*
X181761904Y-98773809D01*
X182238095Y-99202380D02*
X182238095Y-98535714D01*
X182238095Y-98726190D02*
X182285714Y-98630952D01*
X182333333Y-98583333D01*
X182428571Y-98535714D01*
X182523809Y-98535714D01*
X183000000Y-99202380D02*
X182904761Y-99154761D01*
X182857142Y-99059523D01*
X182857142Y-98202380D01*
X183380952Y-99202380D02*
X183380952Y-98535714D01*
X183380952Y-98202380D02*
X183333333Y-98250000D01*
X183380952Y-98297619D01*
X183428571Y-98250000D01*
X183380952Y-98202380D01*
X183380952Y-98297619D01*
X184238095Y-99154761D02*
X184142857Y-99202380D01*
X183952380Y-99202380D01*
X183857142Y-99154761D01*
X183809523Y-99059523D01*
X183809523Y-98678571D01*
X183857142Y-98583333D01*
X183952380Y-98535714D01*
X184142857Y-98535714D01*
X184238095Y-98583333D01*
X184285714Y-98678571D01*
X184285714Y-98773809D01*
X183809523Y-98869047D01*
X184714285Y-99202380D02*
X184714285Y-98202380D01*
X185095238Y-98202380D01*
X185190476Y-98250000D01*
X185238095Y-98297619D01*
X185285714Y-98392857D01*
X185285714Y-98535714D01*
X185238095Y-98630952D01*
X185190476Y-98678571D01*
X185095238Y-98726190D01*
X184714285Y-98726190D01*
X185857142Y-99202380D02*
X185761904Y-99154761D01*
X185714285Y-99059523D01*
X185714285Y-98202380D01*
X186619047Y-99154761D02*
X186523809Y-99202380D01*
X186333333Y-99202380D01*
X186238095Y-99154761D01*
X186190476Y-99059523D01*
X186190476Y-98678571D01*
X186238095Y-98583333D01*
X186333333Y-98535714D01*
X186523809Y-98535714D01*
X186619047Y-98583333D01*
X186666666Y-98678571D01*
X186666666Y-98773809D01*
X186190476Y-98869047D01*
X187000000Y-99202380D02*
X187523809Y-98535714D01*
X187000000Y-98535714D02*
X187523809Y-99202380D01*
X188333333Y-98535714D02*
X188333333Y-99202380D01*
X188095238Y-98154761D02*
X187857142Y-98869047D01*
X188476190Y-98869047D01*
%TO.C,Mode12*%
X194650952Y-80492380D02*
X194650952Y-79492380D01*
X194984285Y-80206666D01*
X195317619Y-79492380D01*
X195317619Y-80492380D01*
X195936666Y-80492380D02*
X195841428Y-80444761D01*
X195793809Y-80397142D01*
X195746190Y-80301904D01*
X195746190Y-80016190D01*
X195793809Y-79920952D01*
X195841428Y-79873333D01*
X195936666Y-79825714D01*
X196079523Y-79825714D01*
X196174761Y-79873333D01*
X196222380Y-79920952D01*
X196270000Y-80016190D01*
X196270000Y-80301904D01*
X196222380Y-80397142D01*
X196174761Y-80444761D01*
X196079523Y-80492380D01*
X195936666Y-80492380D01*
X197127142Y-80492380D02*
X197127142Y-79492380D01*
X197127142Y-80444761D02*
X197031904Y-80492380D01*
X196841428Y-80492380D01*
X196746190Y-80444761D01*
X196698571Y-80397142D01*
X196650952Y-80301904D01*
X196650952Y-80016190D01*
X196698571Y-79920952D01*
X196746190Y-79873333D01*
X196841428Y-79825714D01*
X197031904Y-79825714D01*
X197127142Y-79873333D01*
X197984285Y-80444761D02*
X197889047Y-80492380D01*
X197698571Y-80492380D01*
X197603333Y-80444761D01*
X197555714Y-80349523D01*
X197555714Y-79968571D01*
X197603333Y-79873333D01*
X197698571Y-79825714D01*
X197889047Y-79825714D01*
X197984285Y-79873333D01*
X198031904Y-79968571D01*
X198031904Y-80063809D01*
X197555714Y-80159047D01*
X198984285Y-80492380D02*
X198412857Y-80492380D01*
X198698571Y-80492380D02*
X198698571Y-79492380D01*
X198603333Y-79635238D01*
X198508095Y-79730476D01*
X198412857Y-79778095D01*
X199365238Y-79587619D02*
X199412857Y-79540000D01*
X199508095Y-79492380D01*
X199746190Y-79492380D01*
X199841428Y-79540000D01*
X199889047Y-79587619D01*
X199936666Y-79682857D01*
X199936666Y-79778095D01*
X199889047Y-79920952D01*
X199317619Y-80492380D01*
X199936666Y-80492380D01*
%TO.C,Mode11*%
X194650952Y-86492380D02*
X194650952Y-85492380D01*
X194984285Y-86206666D01*
X195317619Y-85492380D01*
X195317619Y-86492380D01*
X195936666Y-86492380D02*
X195841428Y-86444761D01*
X195793809Y-86397142D01*
X195746190Y-86301904D01*
X195746190Y-86016190D01*
X195793809Y-85920952D01*
X195841428Y-85873333D01*
X195936666Y-85825714D01*
X196079523Y-85825714D01*
X196174761Y-85873333D01*
X196222380Y-85920952D01*
X196270000Y-86016190D01*
X196270000Y-86301904D01*
X196222380Y-86397142D01*
X196174761Y-86444761D01*
X196079523Y-86492380D01*
X195936666Y-86492380D01*
X197127142Y-86492380D02*
X197127142Y-85492380D01*
X197127142Y-86444761D02*
X197031904Y-86492380D01*
X196841428Y-86492380D01*
X196746190Y-86444761D01*
X196698571Y-86397142D01*
X196650952Y-86301904D01*
X196650952Y-86016190D01*
X196698571Y-85920952D01*
X196746190Y-85873333D01*
X196841428Y-85825714D01*
X197031904Y-85825714D01*
X197127142Y-85873333D01*
X197984285Y-86444761D02*
X197889047Y-86492380D01*
X197698571Y-86492380D01*
X197603333Y-86444761D01*
X197555714Y-86349523D01*
X197555714Y-85968571D01*
X197603333Y-85873333D01*
X197698571Y-85825714D01*
X197889047Y-85825714D01*
X197984285Y-85873333D01*
X198031904Y-85968571D01*
X198031904Y-86063809D01*
X197555714Y-86159047D01*
X198984285Y-86492380D02*
X198412857Y-86492380D01*
X198698571Y-86492380D02*
X198698571Y-85492380D01*
X198603333Y-85635238D01*
X198508095Y-85730476D01*
X198412857Y-85778095D01*
X199936666Y-86492380D02*
X199365238Y-86492380D01*
X199650952Y-86492380D02*
X199650952Y-85492380D01*
X199555714Y-85635238D01*
X199460476Y-85730476D01*
X199365238Y-85778095D01*
%TO.C,Mode9*%
X195127142Y-98492380D02*
X195127142Y-97492380D01*
X195460476Y-98206666D01*
X195793809Y-97492380D01*
X195793809Y-98492380D01*
X196412857Y-98492380D02*
X196317619Y-98444761D01*
X196270000Y-98397142D01*
X196222380Y-98301904D01*
X196222380Y-98016190D01*
X196270000Y-97920952D01*
X196317619Y-97873333D01*
X196412857Y-97825714D01*
X196555714Y-97825714D01*
X196650952Y-97873333D01*
X196698571Y-97920952D01*
X196746190Y-98016190D01*
X196746190Y-98301904D01*
X196698571Y-98397142D01*
X196650952Y-98444761D01*
X196555714Y-98492380D01*
X196412857Y-98492380D01*
X197603333Y-98492380D02*
X197603333Y-97492380D01*
X197603333Y-98444761D02*
X197508095Y-98492380D01*
X197317619Y-98492380D01*
X197222380Y-98444761D01*
X197174761Y-98397142D01*
X197127142Y-98301904D01*
X197127142Y-98016190D01*
X197174761Y-97920952D01*
X197222380Y-97873333D01*
X197317619Y-97825714D01*
X197508095Y-97825714D01*
X197603333Y-97873333D01*
X198460476Y-98444761D02*
X198365238Y-98492380D01*
X198174761Y-98492380D01*
X198079523Y-98444761D01*
X198031904Y-98349523D01*
X198031904Y-97968571D01*
X198079523Y-97873333D01*
X198174761Y-97825714D01*
X198365238Y-97825714D01*
X198460476Y-97873333D01*
X198508095Y-97968571D01*
X198508095Y-98063809D01*
X198031904Y-98159047D01*
X198984285Y-98492380D02*
X199174761Y-98492380D01*
X199270000Y-98444761D01*
X199317619Y-98397142D01*
X199412857Y-98254285D01*
X199460476Y-98063809D01*
X199460476Y-97682857D01*
X199412857Y-97587619D01*
X199365238Y-97540000D01*
X199270000Y-97492380D01*
X199079523Y-97492380D01*
X198984285Y-97540000D01*
X198936666Y-97587619D01*
X198889047Y-97682857D01*
X198889047Y-97920952D01*
X198936666Y-98016190D01*
X198984285Y-98063809D01*
X199079523Y-98111428D01*
X199270000Y-98111428D01*
X199365238Y-98063809D01*
X199412857Y-98016190D01*
X199460476Y-97920952D01*
%TO.C,10\u03A9 RC*%
X179857142Y-78202380D02*
X179285714Y-78202380D01*
X179571428Y-78202380D02*
X179571428Y-77202380D01*
X179476190Y-77345238D01*
X179380952Y-77440476D01*
X179285714Y-77488095D01*
X180476190Y-77202380D02*
X180571428Y-77202380D01*
X180666666Y-77250000D01*
X180714285Y-77297619D01*
X180761904Y-77392857D01*
X180809523Y-77583333D01*
X180809523Y-77821428D01*
X180761904Y-78011904D01*
X180714285Y-78107142D01*
X180666666Y-78154761D01*
X180571428Y-78202380D01*
X180476190Y-78202380D01*
X180380952Y-78154761D01*
X180333333Y-78107142D01*
X180285714Y-78011904D01*
X180238095Y-77821428D01*
X180238095Y-77583333D01*
X180285714Y-77392857D01*
X180333333Y-77297619D01*
X180380952Y-77250000D01*
X180476190Y-77202380D01*
X181190476Y-78202380D02*
X181428571Y-78202380D01*
X181428571Y-78011904D01*
X181333333Y-77964285D01*
X181238095Y-77869047D01*
X181190476Y-77726190D01*
X181190476Y-77488095D01*
X181238095Y-77345238D01*
X181333333Y-77250000D01*
X181476190Y-77202380D01*
X181666666Y-77202380D01*
X181809523Y-77250000D01*
X181904761Y-77345238D01*
X181952380Y-77488095D01*
X181952380Y-77726190D01*
X181904761Y-77869047D01*
X181809523Y-77964285D01*
X181714285Y-78011904D01*
X181714285Y-78202380D01*
X181952380Y-78202380D01*
X183714285Y-78202380D02*
X183380952Y-77726190D01*
X183142857Y-78202380D02*
X183142857Y-77202380D01*
X183523809Y-77202380D01*
X183619047Y-77250000D01*
X183666666Y-77297619D01*
X183714285Y-77392857D01*
X183714285Y-77535714D01*
X183666666Y-77630952D01*
X183619047Y-77678571D01*
X183523809Y-77726190D01*
X183142857Y-77726190D01*
X184714285Y-78107142D02*
X184666666Y-78154761D01*
X184523809Y-78202380D01*
X184428571Y-78202380D01*
X184285714Y-78154761D01*
X184190476Y-78059523D01*
X184142857Y-77964285D01*
X184095238Y-77773809D01*
X184095238Y-77630952D01*
X184142857Y-77440476D01*
X184190476Y-77345238D01*
X184285714Y-77250000D01*
X184428571Y-77202380D01*
X184523809Y-77202380D01*
X184666666Y-77250000D01*
X184714285Y-77297619D01*
%TO.C,Photodiode*%
X136566428Y-117452380D02*
X136566428Y-116452380D01*
X136947380Y-116452380D01*
X137042619Y-116500000D01*
X137090238Y-116547619D01*
X137137857Y-116642857D01*
X137137857Y-116785714D01*
X137090238Y-116880952D01*
X137042619Y-116928571D01*
X136947380Y-116976190D01*
X136566428Y-116976190D01*
X137566428Y-117452380D02*
X137566428Y-116452380D01*
X137995000Y-117452380D02*
X137995000Y-116928571D01*
X137947380Y-116833333D01*
X137852142Y-116785714D01*
X137709285Y-116785714D01*
X137614047Y-116833333D01*
X137566428Y-116880952D01*
X138614047Y-117452380D02*
X138518809Y-117404761D01*
X138471190Y-117357142D01*
X138423571Y-117261904D01*
X138423571Y-116976190D01*
X138471190Y-116880952D01*
X138518809Y-116833333D01*
X138614047Y-116785714D01*
X138756904Y-116785714D01*
X138852142Y-116833333D01*
X138899761Y-116880952D01*
X138947380Y-116976190D01*
X138947380Y-117261904D01*
X138899761Y-117357142D01*
X138852142Y-117404761D01*
X138756904Y-117452380D01*
X138614047Y-117452380D01*
X139233095Y-116785714D02*
X139614047Y-116785714D01*
X139375952Y-116452380D02*
X139375952Y-117309523D01*
X139423571Y-117404761D01*
X139518809Y-117452380D01*
X139614047Y-117452380D01*
X140090238Y-117452380D02*
X139995000Y-117404761D01*
X139947380Y-117357142D01*
X139899761Y-117261904D01*
X139899761Y-116976190D01*
X139947380Y-116880952D01*
X139995000Y-116833333D01*
X140090238Y-116785714D01*
X140233095Y-116785714D01*
X140328333Y-116833333D01*
X140375952Y-116880952D01*
X140423571Y-116976190D01*
X140423571Y-117261904D01*
X140375952Y-117357142D01*
X140328333Y-117404761D01*
X140233095Y-117452380D01*
X140090238Y-117452380D01*
X141280714Y-117452380D02*
X141280714Y-116452380D01*
X141280714Y-117404761D02*
X141185476Y-117452380D01*
X140995000Y-117452380D01*
X140899761Y-117404761D01*
X140852142Y-117357142D01*
X140804523Y-117261904D01*
X140804523Y-116976190D01*
X140852142Y-116880952D01*
X140899761Y-116833333D01*
X140995000Y-116785714D01*
X141185476Y-116785714D01*
X141280714Y-116833333D01*
X141756904Y-117452380D02*
X141756904Y-116785714D01*
X141756904Y-116452380D02*
X141709285Y-116500000D01*
X141756904Y-116547619D01*
X141804523Y-116500000D01*
X141756904Y-116452380D01*
X141756904Y-116547619D01*
X142375952Y-117452380D02*
X142280714Y-117404761D01*
X142233095Y-117357142D01*
X142185476Y-117261904D01*
X142185476Y-116976190D01*
X142233095Y-116880952D01*
X142280714Y-116833333D01*
X142375952Y-116785714D01*
X142518809Y-116785714D01*
X142614047Y-116833333D01*
X142661666Y-116880952D01*
X142709285Y-116976190D01*
X142709285Y-117261904D01*
X142661666Y-117357142D01*
X142614047Y-117404761D01*
X142518809Y-117452380D01*
X142375952Y-117452380D01*
X143566428Y-117452380D02*
X143566428Y-116452380D01*
X143566428Y-117404761D02*
X143471190Y-117452380D01*
X143280714Y-117452380D01*
X143185476Y-117404761D01*
X143137857Y-117357142D01*
X143090238Y-117261904D01*
X143090238Y-116976190D01*
X143137857Y-116880952D01*
X143185476Y-116833333D01*
X143280714Y-116785714D01*
X143471190Y-116785714D01*
X143566428Y-116833333D01*
X144423571Y-117404761D02*
X144328333Y-117452380D01*
X144137857Y-117452380D01*
X144042619Y-117404761D01*
X143995000Y-117309523D01*
X143995000Y-116928571D01*
X144042619Y-116833333D01*
X144137857Y-116785714D01*
X144328333Y-116785714D01*
X144423571Y-116833333D01*
X144471190Y-116928571D01*
X144471190Y-117023809D01*
X143995000Y-117119047D01*
%TO.C,Stim-Frequency*%
X205654761Y-97857142D02*
X205702380Y-97714285D01*
X205702380Y-97476190D01*
X205654761Y-97380952D01*
X205607142Y-97333333D01*
X205511904Y-97285714D01*
X205416666Y-97285714D01*
X205321428Y-97333333D01*
X205273809Y-97380952D01*
X205226190Y-97476190D01*
X205178571Y-97666666D01*
X205130952Y-97761904D01*
X205083333Y-97809523D01*
X204988095Y-97857142D01*
X204892857Y-97857142D01*
X204797619Y-97809523D01*
X204750000Y-97761904D01*
X204702380Y-97666666D01*
X204702380Y-97428571D01*
X204750000Y-97285714D01*
X205035714Y-97000000D02*
X205035714Y-96619047D01*
X204702380Y-96857142D02*
X205559523Y-96857142D01*
X205654761Y-96809523D01*
X205702380Y-96714285D01*
X205702380Y-96619047D01*
X205702380Y-96285714D02*
X205035714Y-96285714D01*
X204702380Y-96285714D02*
X204750000Y-96333333D01*
X204797619Y-96285714D01*
X204750000Y-96238095D01*
X204702380Y-96285714D01*
X204797619Y-96285714D01*
X205702380Y-95809523D02*
X205035714Y-95809523D01*
X205130952Y-95809523D02*
X205083333Y-95761904D01*
X205035714Y-95666666D01*
X205035714Y-95523809D01*
X205083333Y-95428571D01*
X205178571Y-95380952D01*
X205702380Y-95380952D01*
X205178571Y-95380952D02*
X205083333Y-95333333D01*
X205035714Y-95238095D01*
X205035714Y-95095238D01*
X205083333Y-95000000D01*
X205178571Y-94952380D01*
X205702380Y-94952380D01*
X205321428Y-94476190D02*
X205321428Y-93714285D01*
X205178571Y-92904761D02*
X205178571Y-93238095D01*
X205702380Y-93238095D02*
X204702380Y-93238095D01*
X204702380Y-92761904D01*
X205702380Y-92380952D02*
X205035714Y-92380952D01*
X205226190Y-92380952D02*
X205130952Y-92333333D01*
X205083333Y-92285714D01*
X205035714Y-92190476D01*
X205035714Y-92095238D01*
X205654761Y-91380952D02*
X205702380Y-91476190D01*
X205702380Y-91666666D01*
X205654761Y-91761904D01*
X205559523Y-91809523D01*
X205178571Y-91809523D01*
X205083333Y-91761904D01*
X205035714Y-91666666D01*
X205035714Y-91476190D01*
X205083333Y-91380952D01*
X205178571Y-91333333D01*
X205273809Y-91333333D01*
X205369047Y-91809523D01*
X205035714Y-90476190D02*
X206035714Y-90476190D01*
X205654761Y-90476190D02*
X205702380Y-90571428D01*
X205702380Y-90761904D01*
X205654761Y-90857142D01*
X205607142Y-90904761D01*
X205511904Y-90952380D01*
X205226190Y-90952380D01*
X205130952Y-90904761D01*
X205083333Y-90857142D01*
X205035714Y-90761904D01*
X205035714Y-90571428D01*
X205083333Y-90476190D01*
X205035714Y-89571428D02*
X205702380Y-89571428D01*
X205035714Y-90000000D02*
X205559523Y-90000000D01*
X205654761Y-89952380D01*
X205702380Y-89857142D01*
X205702380Y-89714285D01*
X205654761Y-89619047D01*
X205607142Y-89571428D01*
X205654761Y-88714285D02*
X205702380Y-88809523D01*
X205702380Y-89000000D01*
X205654761Y-89095238D01*
X205559523Y-89142857D01*
X205178571Y-89142857D01*
X205083333Y-89095238D01*
X205035714Y-89000000D01*
X205035714Y-88809523D01*
X205083333Y-88714285D01*
X205178571Y-88666666D01*
X205273809Y-88666666D01*
X205369047Y-89142857D01*
X205035714Y-88238095D02*
X205702380Y-88238095D01*
X205130952Y-88238095D02*
X205083333Y-88190476D01*
X205035714Y-88095238D01*
X205035714Y-87952380D01*
X205083333Y-87857142D01*
X205178571Y-87809523D01*
X205702380Y-87809523D01*
X205654761Y-86904761D02*
X205702380Y-87000000D01*
X205702380Y-87190476D01*
X205654761Y-87285714D01*
X205607142Y-87333333D01*
X205511904Y-87380952D01*
X205226190Y-87380952D01*
X205130952Y-87333333D01*
X205083333Y-87285714D01*
X205035714Y-87190476D01*
X205035714Y-87000000D01*
X205083333Y-86904761D01*
X205035714Y-86571428D02*
X205702380Y-86333333D01*
X205035714Y-86095238D02*
X205702380Y-86333333D01*
X205940476Y-86428571D01*
X205988095Y-86476190D01*
X206035714Y-86571428D01*
%TO.C,Synapse 2 Gain*%
X114904761Y-108738095D02*
X114952380Y-108595238D01*
X114952380Y-108357142D01*
X114904761Y-108261904D01*
X114857142Y-108214285D01*
X114761904Y-108166666D01*
X114666666Y-108166666D01*
X114571428Y-108214285D01*
X114523809Y-108261904D01*
X114476190Y-108357142D01*
X114428571Y-108547619D01*
X114380952Y-108642857D01*
X114333333Y-108690476D01*
X114238095Y-108738095D01*
X114142857Y-108738095D01*
X114047619Y-108690476D01*
X114000000Y-108642857D01*
X113952380Y-108547619D01*
X113952380Y-108309523D01*
X114000000Y-108166666D01*
X114285714Y-107833333D02*
X114952380Y-107595238D01*
X114285714Y-107357142D02*
X114952380Y-107595238D01*
X115190476Y-107690476D01*
X115238095Y-107738095D01*
X115285714Y-107833333D01*
X114285714Y-106976190D02*
X114952380Y-106976190D01*
X114380952Y-106976190D02*
X114333333Y-106928571D01*
X114285714Y-106833333D01*
X114285714Y-106690476D01*
X114333333Y-106595238D01*
X114428571Y-106547619D01*
X114952380Y-106547619D01*
X114952380Y-105642857D02*
X114428571Y-105642857D01*
X114333333Y-105690476D01*
X114285714Y-105785714D01*
X114285714Y-105976190D01*
X114333333Y-106071428D01*
X114904761Y-105642857D02*
X114952380Y-105738095D01*
X114952380Y-105976190D01*
X114904761Y-106071428D01*
X114809523Y-106119047D01*
X114714285Y-106119047D01*
X114619047Y-106071428D01*
X114571428Y-105976190D01*
X114571428Y-105738095D01*
X114523809Y-105642857D01*
X114285714Y-105166666D02*
X115285714Y-105166666D01*
X114333333Y-105166666D02*
X114285714Y-105071428D01*
X114285714Y-104880952D01*
X114333333Y-104785714D01*
X114380952Y-104738095D01*
X114476190Y-104690476D01*
X114761904Y-104690476D01*
X114857142Y-104738095D01*
X114904761Y-104785714D01*
X114952380Y-104880952D01*
X114952380Y-105071428D01*
X114904761Y-105166666D01*
X114904761Y-104309523D02*
X114952380Y-104214285D01*
X114952380Y-104023809D01*
X114904761Y-103928571D01*
X114809523Y-103880952D01*
X114761904Y-103880952D01*
X114666666Y-103928571D01*
X114619047Y-104023809D01*
X114619047Y-104166666D01*
X114571428Y-104261904D01*
X114476190Y-104309523D01*
X114428571Y-104309523D01*
X114333333Y-104261904D01*
X114285714Y-104166666D01*
X114285714Y-104023809D01*
X114333333Y-103928571D01*
X114904761Y-103071428D02*
X114952380Y-103166666D01*
X114952380Y-103357142D01*
X114904761Y-103452380D01*
X114809523Y-103500000D01*
X114428571Y-103500000D01*
X114333333Y-103452380D01*
X114285714Y-103357142D01*
X114285714Y-103166666D01*
X114333333Y-103071428D01*
X114428571Y-103023809D01*
X114523809Y-103023809D01*
X114619047Y-103500000D01*
X114047619Y-101880952D02*
X114000000Y-101833333D01*
X113952380Y-101738095D01*
X113952380Y-101500000D01*
X114000000Y-101404761D01*
X114047619Y-101357142D01*
X114142857Y-101309523D01*
X114238095Y-101309523D01*
X114380952Y-101357142D01*
X114952380Y-101928571D01*
X114952380Y-101309523D01*
X114000000Y-99595238D02*
X113952380Y-99690476D01*
X113952380Y-99833333D01*
X114000000Y-99976190D01*
X114095238Y-100071428D01*
X114190476Y-100119047D01*
X114380952Y-100166666D01*
X114523809Y-100166666D01*
X114714285Y-100119047D01*
X114809523Y-100071428D01*
X114904761Y-99976190D01*
X114952380Y-99833333D01*
X114952380Y-99738095D01*
X114904761Y-99595238D01*
X114857142Y-99547619D01*
X114523809Y-99547619D01*
X114523809Y-99738095D01*
X114952380Y-98690476D02*
X114428571Y-98690476D01*
X114333333Y-98738095D01*
X114285714Y-98833333D01*
X114285714Y-99023809D01*
X114333333Y-99119047D01*
X114904761Y-98690476D02*
X114952380Y-98785714D01*
X114952380Y-99023809D01*
X114904761Y-99119047D01*
X114809523Y-99166666D01*
X114714285Y-99166666D01*
X114619047Y-99119047D01*
X114571428Y-99023809D01*
X114571428Y-98785714D01*
X114523809Y-98690476D01*
X114952380Y-98214285D02*
X114285714Y-98214285D01*
X113952380Y-98214285D02*
X114000000Y-98261904D01*
X114047619Y-98214285D01*
X114000000Y-98166666D01*
X113952380Y-98214285D01*
X114047619Y-98214285D01*
X114285714Y-97738095D02*
X114952380Y-97738095D01*
X114380952Y-97738095D02*
X114333333Y-97690476D01*
X114285714Y-97595238D01*
X114285714Y-97452380D01*
X114333333Y-97357142D01*
X114428571Y-97309523D01*
X114952380Y-97309523D01*
%TO.C,Synapse in 2*%
X114904761Y-94535714D02*
X114952380Y-94392857D01*
X114952380Y-94154761D01*
X114904761Y-94059523D01*
X114857142Y-94011904D01*
X114761904Y-93964285D01*
X114666666Y-93964285D01*
X114571428Y-94011904D01*
X114523809Y-94059523D01*
X114476190Y-94154761D01*
X114428571Y-94345238D01*
X114380952Y-94440476D01*
X114333333Y-94488095D01*
X114238095Y-94535714D01*
X114142857Y-94535714D01*
X114047619Y-94488095D01*
X114000000Y-94440476D01*
X113952380Y-94345238D01*
X113952380Y-94107142D01*
X114000000Y-93964285D01*
X114285714Y-93630952D02*
X114952380Y-93392857D01*
X114285714Y-93154761D02*
X114952380Y-93392857D01*
X115190476Y-93488095D01*
X115238095Y-93535714D01*
X115285714Y-93630952D01*
X114285714Y-92773809D02*
X114952380Y-92773809D01*
X114380952Y-92773809D02*
X114333333Y-92726190D01*
X114285714Y-92630952D01*
X114285714Y-92488095D01*
X114333333Y-92392857D01*
X114428571Y-92345238D01*
X114952380Y-92345238D01*
X114952380Y-91440476D02*
X114428571Y-91440476D01*
X114333333Y-91488095D01*
X114285714Y-91583333D01*
X114285714Y-91773809D01*
X114333333Y-91869047D01*
X114904761Y-91440476D02*
X114952380Y-91535714D01*
X114952380Y-91773809D01*
X114904761Y-91869047D01*
X114809523Y-91916666D01*
X114714285Y-91916666D01*
X114619047Y-91869047D01*
X114571428Y-91773809D01*
X114571428Y-91535714D01*
X114523809Y-91440476D01*
X114285714Y-90964285D02*
X115285714Y-90964285D01*
X114333333Y-90964285D02*
X114285714Y-90869047D01*
X114285714Y-90678571D01*
X114333333Y-90583333D01*
X114380952Y-90535714D01*
X114476190Y-90488095D01*
X114761904Y-90488095D01*
X114857142Y-90535714D01*
X114904761Y-90583333D01*
X114952380Y-90678571D01*
X114952380Y-90869047D01*
X114904761Y-90964285D01*
X114904761Y-90107142D02*
X114952380Y-90011904D01*
X114952380Y-89821428D01*
X114904761Y-89726190D01*
X114809523Y-89678571D01*
X114761904Y-89678571D01*
X114666666Y-89726190D01*
X114619047Y-89821428D01*
X114619047Y-89964285D01*
X114571428Y-90059523D01*
X114476190Y-90107142D01*
X114428571Y-90107142D01*
X114333333Y-90059523D01*
X114285714Y-89964285D01*
X114285714Y-89821428D01*
X114333333Y-89726190D01*
X114904761Y-88869047D02*
X114952380Y-88964285D01*
X114952380Y-89154761D01*
X114904761Y-89250000D01*
X114809523Y-89297619D01*
X114428571Y-89297619D01*
X114333333Y-89250000D01*
X114285714Y-89154761D01*
X114285714Y-88964285D01*
X114333333Y-88869047D01*
X114428571Y-88821428D01*
X114523809Y-88821428D01*
X114619047Y-89297619D01*
X114952380Y-87630952D02*
X114285714Y-87630952D01*
X113952380Y-87630952D02*
X114000000Y-87678571D01*
X114047619Y-87630952D01*
X114000000Y-87583333D01*
X113952380Y-87630952D01*
X114047619Y-87630952D01*
X114285714Y-87154761D02*
X114952380Y-87154761D01*
X114380952Y-87154761D02*
X114333333Y-87107142D01*
X114285714Y-87011904D01*
X114285714Y-86869047D01*
X114333333Y-86773809D01*
X114428571Y-86726190D01*
X114952380Y-86726190D01*
X114047619Y-85535714D02*
X114000000Y-85488095D01*
X113952380Y-85392857D01*
X113952380Y-85154761D01*
X114000000Y-85059523D01*
X114047619Y-85011904D01*
X114142857Y-84964285D01*
X114238095Y-84964285D01*
X114380952Y-85011904D01*
X114952380Y-85583333D01*
X114952380Y-84964285D01*
%TO.C,Mode2*%
X189127142Y-104492380D02*
X189127142Y-103492380D01*
X189460476Y-104206666D01*
X189793809Y-103492380D01*
X189793809Y-104492380D01*
X190412857Y-104492380D02*
X190317619Y-104444761D01*
X190270000Y-104397142D01*
X190222380Y-104301904D01*
X190222380Y-104016190D01*
X190270000Y-103920952D01*
X190317619Y-103873333D01*
X190412857Y-103825714D01*
X190555714Y-103825714D01*
X190650952Y-103873333D01*
X190698571Y-103920952D01*
X190746190Y-104016190D01*
X190746190Y-104301904D01*
X190698571Y-104397142D01*
X190650952Y-104444761D01*
X190555714Y-104492380D01*
X190412857Y-104492380D01*
X191603333Y-104492380D02*
X191603333Y-103492380D01*
X191603333Y-104444761D02*
X191508095Y-104492380D01*
X191317619Y-104492380D01*
X191222380Y-104444761D01*
X191174761Y-104397142D01*
X191127142Y-104301904D01*
X191127142Y-104016190D01*
X191174761Y-103920952D01*
X191222380Y-103873333D01*
X191317619Y-103825714D01*
X191508095Y-103825714D01*
X191603333Y-103873333D01*
X192460476Y-104444761D02*
X192365238Y-104492380D01*
X192174761Y-104492380D01*
X192079523Y-104444761D01*
X192031904Y-104349523D01*
X192031904Y-103968571D01*
X192079523Y-103873333D01*
X192174761Y-103825714D01*
X192365238Y-103825714D01*
X192460476Y-103873333D01*
X192508095Y-103968571D01*
X192508095Y-104063809D01*
X192031904Y-104159047D01*
X192889047Y-103587619D02*
X192936666Y-103540000D01*
X193031904Y-103492380D01*
X193270000Y-103492380D01*
X193365238Y-103540000D01*
X193412857Y-103587619D01*
X193460476Y-103682857D01*
X193460476Y-103778095D01*
X193412857Y-103920952D01*
X192841428Y-104492380D01*
X193460476Y-104492380D01*
%TO.C,Mode4*%
X189127142Y-92492380D02*
X189127142Y-91492380D01*
X189460476Y-92206666D01*
X189793809Y-91492380D01*
X189793809Y-92492380D01*
X190412857Y-92492380D02*
X190317619Y-92444761D01*
X190270000Y-92397142D01*
X190222380Y-92301904D01*
X190222380Y-92016190D01*
X190270000Y-91920952D01*
X190317619Y-91873333D01*
X190412857Y-91825714D01*
X190555714Y-91825714D01*
X190650952Y-91873333D01*
X190698571Y-91920952D01*
X190746190Y-92016190D01*
X190746190Y-92301904D01*
X190698571Y-92397142D01*
X190650952Y-92444761D01*
X190555714Y-92492380D01*
X190412857Y-92492380D01*
X191603333Y-92492380D02*
X191603333Y-91492380D01*
X191603333Y-92444761D02*
X191508095Y-92492380D01*
X191317619Y-92492380D01*
X191222380Y-92444761D01*
X191174761Y-92397142D01*
X191127142Y-92301904D01*
X191127142Y-92016190D01*
X191174761Y-91920952D01*
X191222380Y-91873333D01*
X191317619Y-91825714D01*
X191508095Y-91825714D01*
X191603333Y-91873333D01*
X192460476Y-92444761D02*
X192365238Y-92492380D01*
X192174761Y-92492380D01*
X192079523Y-92444761D01*
X192031904Y-92349523D01*
X192031904Y-91968571D01*
X192079523Y-91873333D01*
X192174761Y-91825714D01*
X192365238Y-91825714D01*
X192460476Y-91873333D01*
X192508095Y-91968571D01*
X192508095Y-92063809D01*
X192031904Y-92159047D01*
X193365238Y-91825714D02*
X193365238Y-92492380D01*
X193127142Y-91444761D02*
X192889047Y-92159047D01*
X193508095Y-92159047D01*
%TO.C,Current In*%
X103000000Y-117107142D02*
X102952380Y-117154761D01*
X102809523Y-117202380D01*
X102714285Y-117202380D01*
X102571428Y-117154761D01*
X102476190Y-117059523D01*
X102428571Y-116964285D01*
X102380952Y-116773809D01*
X102380952Y-116630952D01*
X102428571Y-116440476D01*
X102476190Y-116345238D01*
X102571428Y-116250000D01*
X102714285Y-116202380D01*
X102809523Y-116202380D01*
X102952380Y-116250000D01*
X103000000Y-116297619D01*
X103857142Y-116535714D02*
X103857142Y-117202380D01*
X103428571Y-116535714D02*
X103428571Y-117059523D01*
X103476190Y-117154761D01*
X103571428Y-117202380D01*
X103714285Y-117202380D01*
X103809523Y-117154761D01*
X103857142Y-117107142D01*
X104333333Y-117202380D02*
X104333333Y-116535714D01*
X104333333Y-116726190D02*
X104380952Y-116630952D01*
X104428571Y-116583333D01*
X104523809Y-116535714D01*
X104619047Y-116535714D01*
X104952380Y-117202380D02*
X104952380Y-116535714D01*
X104952380Y-116726190D02*
X105000000Y-116630952D01*
X105047619Y-116583333D01*
X105142857Y-116535714D01*
X105238095Y-116535714D01*
X105952380Y-117154761D02*
X105857142Y-117202380D01*
X105666666Y-117202380D01*
X105571428Y-117154761D01*
X105523809Y-117059523D01*
X105523809Y-116678571D01*
X105571428Y-116583333D01*
X105666666Y-116535714D01*
X105857142Y-116535714D01*
X105952380Y-116583333D01*
X106000000Y-116678571D01*
X106000000Y-116773809D01*
X105523809Y-116869047D01*
X106428571Y-116535714D02*
X106428571Y-117202380D01*
X106428571Y-116630952D02*
X106476190Y-116583333D01*
X106571428Y-116535714D01*
X106714285Y-116535714D01*
X106809523Y-116583333D01*
X106857142Y-116678571D01*
X106857142Y-117202380D01*
X107190476Y-116535714D02*
X107571428Y-116535714D01*
X107333333Y-116202380D02*
X107333333Y-117059523D01*
X107380952Y-117154761D01*
X107476190Y-117202380D01*
X107571428Y-117202380D01*
X108666666Y-117202380D02*
X108666666Y-116202380D01*
X109142857Y-116535714D02*
X109142857Y-117202380D01*
X109142857Y-116630952D02*
X109190476Y-116583333D01*
X109285714Y-116535714D01*
X109428571Y-116535714D01*
X109523809Y-116583333D01*
X109571428Y-116678571D01*
X109571428Y-117202380D01*
%TO.C,50\u03A9_CharliePlex3*%
X176095238Y-92952380D02*
X175619047Y-92952380D01*
X175571428Y-93428571D01*
X175619047Y-93380952D01*
X175714285Y-93333333D01*
X175952380Y-93333333D01*
X176047619Y-93380952D01*
X176095238Y-93428571D01*
X176142857Y-93523809D01*
X176142857Y-93761904D01*
X176095238Y-93857142D01*
X176047619Y-93904761D01*
X175952380Y-93952380D01*
X175714285Y-93952380D01*
X175619047Y-93904761D01*
X175571428Y-93857142D01*
X176761904Y-92952380D02*
X176857142Y-92952380D01*
X176952380Y-93000000D01*
X177000000Y-93047619D01*
X177047619Y-93142857D01*
X177095238Y-93333333D01*
X177095238Y-93571428D01*
X177047619Y-93761904D01*
X177000000Y-93857142D01*
X176952380Y-93904761D01*
X176857142Y-93952380D01*
X176761904Y-93952380D01*
X176666666Y-93904761D01*
X176619047Y-93857142D01*
X176571428Y-93761904D01*
X176523809Y-93571428D01*
X176523809Y-93333333D01*
X176571428Y-93142857D01*
X176619047Y-93047619D01*
X176666666Y-93000000D01*
X176761904Y-92952380D01*
X177476190Y-93952380D02*
X177714285Y-93952380D01*
X177714285Y-93761904D01*
X177619047Y-93714285D01*
X177523809Y-93619047D01*
X177476190Y-93476190D01*
X177476190Y-93238095D01*
X177523809Y-93095238D01*
X177619047Y-93000000D01*
X177761904Y-92952380D01*
X177952380Y-92952380D01*
X178095238Y-93000000D01*
X178190476Y-93095238D01*
X178238095Y-93238095D01*
X178238095Y-93476190D01*
X178190476Y-93619047D01*
X178095238Y-93714285D01*
X178000000Y-93761904D01*
X178000000Y-93952380D01*
X178238095Y-93952380D01*
X178428571Y-94047619D02*
X179190476Y-94047619D01*
X180000000Y-93857142D02*
X179952380Y-93904761D01*
X179809523Y-93952380D01*
X179714285Y-93952380D01*
X179571428Y-93904761D01*
X179476190Y-93809523D01*
X179428571Y-93714285D01*
X179380952Y-93523809D01*
X179380952Y-93380952D01*
X179428571Y-93190476D01*
X179476190Y-93095238D01*
X179571428Y-93000000D01*
X179714285Y-92952380D01*
X179809523Y-92952380D01*
X179952380Y-93000000D01*
X180000000Y-93047619D01*
X180428571Y-93952380D02*
X180428571Y-92952380D01*
X180857142Y-93952380D02*
X180857142Y-93428571D01*
X180809523Y-93333333D01*
X180714285Y-93285714D01*
X180571428Y-93285714D01*
X180476190Y-93333333D01*
X180428571Y-93380952D01*
X181761904Y-93952380D02*
X181761904Y-93428571D01*
X181714285Y-93333333D01*
X181619047Y-93285714D01*
X181428571Y-93285714D01*
X181333333Y-93333333D01*
X181761904Y-93904761D02*
X181666666Y-93952380D01*
X181428571Y-93952380D01*
X181333333Y-93904761D01*
X181285714Y-93809523D01*
X181285714Y-93714285D01*
X181333333Y-93619047D01*
X181428571Y-93571428D01*
X181666666Y-93571428D01*
X181761904Y-93523809D01*
X182238095Y-93952380D02*
X182238095Y-93285714D01*
X182238095Y-93476190D02*
X182285714Y-93380952D01*
X182333333Y-93333333D01*
X182428571Y-93285714D01*
X182523809Y-93285714D01*
X183000000Y-93952380D02*
X182904761Y-93904761D01*
X182857142Y-93809523D01*
X182857142Y-92952380D01*
X183380952Y-93952380D02*
X183380952Y-93285714D01*
X183380952Y-92952380D02*
X183333333Y-93000000D01*
X183380952Y-93047619D01*
X183428571Y-93000000D01*
X183380952Y-92952380D01*
X183380952Y-93047619D01*
X184238095Y-93904761D02*
X184142857Y-93952380D01*
X183952380Y-93952380D01*
X183857142Y-93904761D01*
X183809523Y-93809523D01*
X183809523Y-93428571D01*
X183857142Y-93333333D01*
X183952380Y-93285714D01*
X184142857Y-93285714D01*
X184238095Y-93333333D01*
X184285714Y-93428571D01*
X184285714Y-93523809D01*
X183809523Y-93619047D01*
X184714285Y-93952380D02*
X184714285Y-92952380D01*
X185095238Y-92952380D01*
X185190476Y-93000000D01*
X185238095Y-93047619D01*
X185285714Y-93142857D01*
X185285714Y-93285714D01*
X185238095Y-93380952D01*
X185190476Y-93428571D01*
X185095238Y-93476190D01*
X184714285Y-93476190D01*
X185857142Y-93952380D02*
X185761904Y-93904761D01*
X185714285Y-93809523D01*
X185714285Y-92952380D01*
X186619047Y-93904761D02*
X186523809Y-93952380D01*
X186333333Y-93952380D01*
X186238095Y-93904761D01*
X186190476Y-93809523D01*
X186190476Y-93428571D01*
X186238095Y-93333333D01*
X186333333Y-93285714D01*
X186523809Y-93285714D01*
X186619047Y-93333333D01*
X186666666Y-93428571D01*
X186666666Y-93523809D01*
X186190476Y-93619047D01*
X187000000Y-93952380D02*
X187523809Y-93285714D01*
X187000000Y-93285714D02*
X187523809Y-93952380D01*
X187809523Y-92952380D02*
X188428571Y-92952380D01*
X188095238Y-93333333D01*
X188238095Y-93333333D01*
X188333333Y-93380952D01*
X188380952Y-93428571D01*
X188428571Y-93523809D01*
X188428571Y-93761904D01*
X188380952Y-93857142D01*
X188333333Y-93904761D01*
X188238095Y-93952380D01*
X187952380Y-93952380D01*
X187857142Y-93904761D01*
X187809523Y-93857142D01*
%TO.C,10k\u03A9 PD pull-down*%
X134072380Y-128357142D02*
X134072380Y-128928571D01*
X134072380Y-128642857D02*
X133072380Y-128642857D01*
X133215238Y-128738095D01*
X133310476Y-128833333D01*
X133358095Y-128928571D01*
X133072380Y-127738095D02*
X133072380Y-127642857D01*
X133120000Y-127547619D01*
X133167619Y-127500000D01*
X133262857Y-127452380D01*
X133453333Y-127404761D01*
X133691428Y-127404761D01*
X133881904Y-127452380D01*
X133977142Y-127500000D01*
X134024761Y-127547619D01*
X134072380Y-127642857D01*
X134072380Y-127738095D01*
X134024761Y-127833333D01*
X133977142Y-127880952D01*
X133881904Y-127928571D01*
X133691428Y-127976190D01*
X133453333Y-127976190D01*
X133262857Y-127928571D01*
X133167619Y-127880952D01*
X133120000Y-127833333D01*
X133072380Y-127738095D01*
X134072380Y-126976190D02*
X133072380Y-126976190D01*
X133691428Y-126880952D02*
X134072380Y-126595238D01*
X133405714Y-126595238D02*
X133786666Y-126976190D01*
X134072380Y-126214285D02*
X134072380Y-125976190D01*
X133881904Y-125976190D01*
X133834285Y-126071428D01*
X133739047Y-126166666D01*
X133596190Y-126214285D01*
X133358095Y-126214285D01*
X133215238Y-126166666D01*
X133120000Y-126071428D01*
X133072380Y-125928571D01*
X133072380Y-125738095D01*
X133120000Y-125595238D01*
X133215238Y-125500000D01*
X133358095Y-125452380D01*
X133596190Y-125452380D01*
X133739047Y-125500000D01*
X133834285Y-125595238D01*
X133881904Y-125690476D01*
X134072380Y-125690476D01*
X134072380Y-125452380D01*
X134072380Y-124261904D02*
X133072380Y-124261904D01*
X133072380Y-123880952D01*
X133120000Y-123785714D01*
X133167619Y-123738095D01*
X133262857Y-123690476D01*
X133405714Y-123690476D01*
X133500952Y-123738095D01*
X133548571Y-123785714D01*
X133596190Y-123880952D01*
X133596190Y-124261904D01*
X134072380Y-123261904D02*
X133072380Y-123261904D01*
X133072380Y-123023809D01*
X133120000Y-122880952D01*
X133215238Y-122785714D01*
X133310476Y-122738095D01*
X133500952Y-122690476D01*
X133643809Y-122690476D01*
X133834285Y-122738095D01*
X133929523Y-122785714D01*
X134024761Y-122880952D01*
X134072380Y-123023809D01*
X134072380Y-123261904D01*
X133405714Y-121500000D02*
X134405714Y-121500000D01*
X133453333Y-121500000D02*
X133405714Y-121404761D01*
X133405714Y-121214285D01*
X133453333Y-121119047D01*
X133500952Y-121071428D01*
X133596190Y-121023809D01*
X133881904Y-121023809D01*
X133977142Y-121071428D01*
X134024761Y-121119047D01*
X134072380Y-121214285D01*
X134072380Y-121404761D01*
X134024761Y-121500000D01*
X133405714Y-120166666D02*
X134072380Y-120166666D01*
X133405714Y-120595238D02*
X133929523Y-120595238D01*
X134024761Y-120547619D01*
X134072380Y-120452380D01*
X134072380Y-120309523D01*
X134024761Y-120214285D01*
X133977142Y-120166666D01*
X134072380Y-119547619D02*
X134024761Y-119642857D01*
X133929523Y-119690476D01*
X133072380Y-119690476D01*
X134072380Y-119023809D02*
X134024761Y-119119047D01*
X133929523Y-119166666D01*
X133072380Y-119166666D01*
X133691428Y-118642857D02*
X133691428Y-117880952D01*
X134072380Y-116976190D02*
X133072380Y-116976190D01*
X134024761Y-116976190D02*
X134072380Y-117071428D01*
X134072380Y-117261904D01*
X134024761Y-117357142D01*
X133977142Y-117404761D01*
X133881904Y-117452380D01*
X133596190Y-117452380D01*
X133500952Y-117404761D01*
X133453333Y-117357142D01*
X133405714Y-117261904D01*
X133405714Y-117071428D01*
X133453333Y-116976190D01*
X134072380Y-116357142D02*
X134024761Y-116452380D01*
X133977142Y-116500000D01*
X133881904Y-116547619D01*
X133596190Y-116547619D01*
X133500952Y-116500000D01*
X133453333Y-116452380D01*
X133405714Y-116357142D01*
X133405714Y-116214285D01*
X133453333Y-116119047D01*
X133500952Y-116071428D01*
X133596190Y-116023809D01*
X133881904Y-116023809D01*
X133977142Y-116071428D01*
X134024761Y-116119047D01*
X134072380Y-116214285D01*
X134072380Y-116357142D01*
X133405714Y-115690476D02*
X134072380Y-115500000D01*
X133596190Y-115309523D01*
X134072380Y-115119047D01*
X133405714Y-114928571D01*
X133405714Y-114547619D02*
X134072380Y-114547619D01*
X133500952Y-114547619D02*
X133453333Y-114500000D01*
X133405714Y-114404761D01*
X133405714Y-114261904D01*
X133453333Y-114166666D01*
X133548571Y-114119047D01*
X134072380Y-114119047D01*
%TO.C,Photodiode Gain*%
X147297619Y-114702380D02*
X147297619Y-113702380D01*
X147678571Y-113702380D01*
X147773809Y-113750000D01*
X147821428Y-113797619D01*
X147869047Y-113892857D01*
X147869047Y-114035714D01*
X147821428Y-114130952D01*
X147773809Y-114178571D01*
X147678571Y-114226190D01*
X147297619Y-114226190D01*
X148297619Y-114702380D02*
X148297619Y-113702380D01*
X148726190Y-114702380D02*
X148726190Y-114178571D01*
X148678571Y-114083333D01*
X148583333Y-114035714D01*
X148440476Y-114035714D01*
X148345238Y-114083333D01*
X148297619Y-114130952D01*
X149345238Y-114702380D02*
X149250000Y-114654761D01*
X149202380Y-114607142D01*
X149154761Y-114511904D01*
X149154761Y-114226190D01*
X149202380Y-114130952D01*
X149250000Y-114083333D01*
X149345238Y-114035714D01*
X149488095Y-114035714D01*
X149583333Y-114083333D01*
X149630952Y-114130952D01*
X149678571Y-114226190D01*
X149678571Y-114511904D01*
X149630952Y-114607142D01*
X149583333Y-114654761D01*
X149488095Y-114702380D01*
X149345238Y-114702380D01*
X149964285Y-114035714D02*
X150345238Y-114035714D01*
X150107142Y-113702380D02*
X150107142Y-114559523D01*
X150154761Y-114654761D01*
X150250000Y-114702380D01*
X150345238Y-114702380D01*
X150821428Y-114702380D02*
X150726190Y-114654761D01*
X150678571Y-114607142D01*
X150630952Y-114511904D01*
X150630952Y-114226190D01*
X150678571Y-114130952D01*
X150726190Y-114083333D01*
X150821428Y-114035714D01*
X150964285Y-114035714D01*
X151059523Y-114083333D01*
X151107142Y-114130952D01*
X151154761Y-114226190D01*
X151154761Y-114511904D01*
X151107142Y-114607142D01*
X151059523Y-114654761D01*
X150964285Y-114702380D01*
X150821428Y-114702380D01*
X152011904Y-114702380D02*
X152011904Y-113702380D01*
X152011904Y-114654761D02*
X151916666Y-114702380D01*
X151726190Y-114702380D01*
X151630952Y-114654761D01*
X151583333Y-114607142D01*
X151535714Y-114511904D01*
X151535714Y-114226190D01*
X151583333Y-114130952D01*
X151630952Y-114083333D01*
X151726190Y-114035714D01*
X151916666Y-114035714D01*
X152011904Y-114083333D01*
X152488095Y-114702380D02*
X152488095Y-114035714D01*
X152488095Y-113702380D02*
X152440476Y-113750000D01*
X152488095Y-113797619D01*
X152535714Y-113750000D01*
X152488095Y-113702380D01*
X152488095Y-113797619D01*
X153107142Y-114702380D02*
X153011904Y-114654761D01*
X152964285Y-114607142D01*
X152916666Y-114511904D01*
X152916666Y-114226190D01*
X152964285Y-114130952D01*
X153011904Y-114083333D01*
X153107142Y-114035714D01*
X153250000Y-114035714D01*
X153345238Y-114083333D01*
X153392857Y-114130952D01*
X153440476Y-114226190D01*
X153440476Y-114511904D01*
X153392857Y-114607142D01*
X153345238Y-114654761D01*
X153250000Y-114702380D01*
X153107142Y-114702380D01*
X154297619Y-114702380D02*
X154297619Y-113702380D01*
X154297619Y-114654761D02*
X154202380Y-114702380D01*
X154011904Y-114702380D01*
X153916666Y-114654761D01*
X153869047Y-114607142D01*
X153821428Y-114511904D01*
X153821428Y-114226190D01*
X153869047Y-114130952D01*
X153916666Y-114083333D01*
X154011904Y-114035714D01*
X154202380Y-114035714D01*
X154297619Y-114083333D01*
X155154761Y-114654761D02*
X155059523Y-114702380D01*
X154869047Y-114702380D01*
X154773809Y-114654761D01*
X154726190Y-114559523D01*
X154726190Y-114178571D01*
X154773809Y-114083333D01*
X154869047Y-114035714D01*
X155059523Y-114035714D01*
X155154761Y-114083333D01*
X155202380Y-114178571D01*
X155202380Y-114273809D01*
X154726190Y-114369047D01*
X156916666Y-113750000D02*
X156821428Y-113702380D01*
X156678571Y-113702380D01*
X156535714Y-113750000D01*
X156440476Y-113845238D01*
X156392857Y-113940476D01*
X156345238Y-114130952D01*
X156345238Y-114273809D01*
X156392857Y-114464285D01*
X156440476Y-114559523D01*
X156535714Y-114654761D01*
X156678571Y-114702380D01*
X156773809Y-114702380D01*
X156916666Y-114654761D01*
X156964285Y-114607142D01*
X156964285Y-114273809D01*
X156773809Y-114273809D01*
X157821428Y-114702380D02*
X157821428Y-114178571D01*
X157773809Y-114083333D01*
X157678571Y-114035714D01*
X157488095Y-114035714D01*
X157392857Y-114083333D01*
X157821428Y-114654761D02*
X157726190Y-114702380D01*
X157488095Y-114702380D01*
X157392857Y-114654761D01*
X157345238Y-114559523D01*
X157345238Y-114464285D01*
X157392857Y-114369047D01*
X157488095Y-114321428D01*
X157726190Y-114321428D01*
X157821428Y-114273809D01*
X158297619Y-114702380D02*
X158297619Y-114035714D01*
X158297619Y-113702380D02*
X158250000Y-113750000D01*
X158297619Y-113797619D01*
X158345238Y-113750000D01*
X158297619Y-113702380D01*
X158297619Y-113797619D01*
X158773809Y-114035714D02*
X158773809Y-114702380D01*
X158773809Y-114130952D02*
X158821428Y-114083333D01*
X158916666Y-114035714D01*
X159059523Y-114035714D01*
X159154761Y-114083333D01*
X159202380Y-114178571D01*
X159202380Y-114702380D01*
%TO.C,1nF RC*%
X195023809Y-72952380D02*
X194452380Y-72952380D01*
X194738095Y-72952380D02*
X194738095Y-71952380D01*
X194642857Y-72095238D01*
X194547619Y-72190476D01*
X194452380Y-72238095D01*
X195452380Y-72285714D02*
X195452380Y-72952380D01*
X195452380Y-72380952D02*
X195500000Y-72333333D01*
X195595238Y-72285714D01*
X195738095Y-72285714D01*
X195833333Y-72333333D01*
X195880952Y-72428571D01*
X195880952Y-72952380D01*
X196690476Y-72428571D02*
X196357142Y-72428571D01*
X196357142Y-72952380D02*
X196357142Y-71952380D01*
X196833333Y-71952380D01*
X198547619Y-72952380D02*
X198214285Y-72476190D01*
X197976190Y-72952380D02*
X197976190Y-71952380D01*
X198357142Y-71952380D01*
X198452380Y-72000000D01*
X198500000Y-72047619D01*
X198547619Y-72142857D01*
X198547619Y-72285714D01*
X198500000Y-72380952D01*
X198452380Y-72428571D01*
X198357142Y-72476190D01*
X197976190Y-72476190D01*
X199547619Y-72857142D02*
X199500000Y-72904761D01*
X199357142Y-72952380D01*
X199261904Y-72952380D01*
X199119047Y-72904761D01*
X199023809Y-72809523D01*
X198976190Y-72714285D01*
X198928571Y-72523809D01*
X198928571Y-72380952D01*
X198976190Y-72190476D01*
X199023809Y-72095238D01*
X199119047Y-72000000D01*
X199261904Y-71952380D01*
X199357142Y-71952380D01*
X199500000Y-72000000D01*
X199547619Y-72047619D01*
%TO.C,50\u03A9_CharliePlex2*%
X176095238Y-87702380D02*
X175619047Y-87702380D01*
X175571428Y-88178571D01*
X175619047Y-88130952D01*
X175714285Y-88083333D01*
X175952380Y-88083333D01*
X176047619Y-88130952D01*
X176095238Y-88178571D01*
X176142857Y-88273809D01*
X176142857Y-88511904D01*
X176095238Y-88607142D01*
X176047619Y-88654761D01*
X175952380Y-88702380D01*
X175714285Y-88702380D01*
X175619047Y-88654761D01*
X175571428Y-88607142D01*
X176761904Y-87702380D02*
X176857142Y-87702380D01*
X176952380Y-87750000D01*
X177000000Y-87797619D01*
X177047619Y-87892857D01*
X177095238Y-88083333D01*
X177095238Y-88321428D01*
X177047619Y-88511904D01*
X177000000Y-88607142D01*
X176952380Y-88654761D01*
X176857142Y-88702380D01*
X176761904Y-88702380D01*
X176666666Y-88654761D01*
X176619047Y-88607142D01*
X176571428Y-88511904D01*
X176523809Y-88321428D01*
X176523809Y-88083333D01*
X176571428Y-87892857D01*
X176619047Y-87797619D01*
X176666666Y-87750000D01*
X176761904Y-87702380D01*
X177476190Y-88702380D02*
X177714285Y-88702380D01*
X177714285Y-88511904D01*
X177619047Y-88464285D01*
X177523809Y-88369047D01*
X177476190Y-88226190D01*
X177476190Y-87988095D01*
X177523809Y-87845238D01*
X177619047Y-87750000D01*
X177761904Y-87702380D01*
X177952380Y-87702380D01*
X178095238Y-87750000D01*
X178190476Y-87845238D01*
X178238095Y-87988095D01*
X178238095Y-88226190D01*
X178190476Y-88369047D01*
X178095238Y-88464285D01*
X178000000Y-88511904D01*
X178000000Y-88702380D01*
X178238095Y-88702380D01*
X178428571Y-88797619D02*
X179190476Y-88797619D01*
X180000000Y-88607142D02*
X179952380Y-88654761D01*
X179809523Y-88702380D01*
X179714285Y-88702380D01*
X179571428Y-88654761D01*
X179476190Y-88559523D01*
X179428571Y-88464285D01*
X179380952Y-88273809D01*
X179380952Y-88130952D01*
X179428571Y-87940476D01*
X179476190Y-87845238D01*
X179571428Y-87750000D01*
X179714285Y-87702380D01*
X179809523Y-87702380D01*
X179952380Y-87750000D01*
X180000000Y-87797619D01*
X180428571Y-88702380D02*
X180428571Y-87702380D01*
X180857142Y-88702380D02*
X180857142Y-88178571D01*
X180809523Y-88083333D01*
X180714285Y-88035714D01*
X180571428Y-88035714D01*
X180476190Y-88083333D01*
X180428571Y-88130952D01*
X181761904Y-88702380D02*
X181761904Y-88178571D01*
X181714285Y-88083333D01*
X181619047Y-88035714D01*
X181428571Y-88035714D01*
X181333333Y-88083333D01*
X181761904Y-88654761D02*
X181666666Y-88702380D01*
X181428571Y-88702380D01*
X181333333Y-88654761D01*
X181285714Y-88559523D01*
X181285714Y-88464285D01*
X181333333Y-88369047D01*
X181428571Y-88321428D01*
X181666666Y-88321428D01*
X181761904Y-88273809D01*
X182238095Y-88702380D02*
X182238095Y-88035714D01*
X182238095Y-88226190D02*
X182285714Y-88130952D01*
X182333333Y-88083333D01*
X182428571Y-88035714D01*
X182523809Y-88035714D01*
X183000000Y-88702380D02*
X182904761Y-88654761D01*
X182857142Y-88559523D01*
X182857142Y-87702380D01*
X183380952Y-88702380D02*
X183380952Y-88035714D01*
X183380952Y-87702380D02*
X183333333Y-87750000D01*
X183380952Y-87797619D01*
X183428571Y-87750000D01*
X183380952Y-87702380D01*
X183380952Y-87797619D01*
X184238095Y-88654761D02*
X184142857Y-88702380D01*
X183952380Y-88702380D01*
X183857142Y-88654761D01*
X183809523Y-88559523D01*
X183809523Y-88178571D01*
X183857142Y-88083333D01*
X183952380Y-88035714D01*
X184142857Y-88035714D01*
X184238095Y-88083333D01*
X184285714Y-88178571D01*
X184285714Y-88273809D01*
X183809523Y-88369047D01*
X184714285Y-88702380D02*
X184714285Y-87702380D01*
X185095238Y-87702380D01*
X185190476Y-87750000D01*
X185238095Y-87797619D01*
X185285714Y-87892857D01*
X185285714Y-88035714D01*
X185238095Y-88130952D01*
X185190476Y-88178571D01*
X185095238Y-88226190D01*
X184714285Y-88226190D01*
X185857142Y-88702380D02*
X185761904Y-88654761D01*
X185714285Y-88559523D01*
X185714285Y-87702380D01*
X186619047Y-88654761D02*
X186523809Y-88702380D01*
X186333333Y-88702380D01*
X186238095Y-88654761D01*
X186190476Y-88559523D01*
X186190476Y-88178571D01*
X186238095Y-88083333D01*
X186333333Y-88035714D01*
X186523809Y-88035714D01*
X186619047Y-88083333D01*
X186666666Y-88178571D01*
X186666666Y-88273809D01*
X186190476Y-88369047D01*
X187000000Y-88702380D02*
X187523809Y-88035714D01*
X187000000Y-88035714D02*
X187523809Y-88702380D01*
X187857142Y-87797619D02*
X187904761Y-87750000D01*
X188000000Y-87702380D01*
X188238095Y-87702380D01*
X188333333Y-87750000D01*
X188380952Y-87797619D01*
X188428571Y-87892857D01*
X188428571Y-87988095D01*
X188380952Y-88130952D01*
X187809523Y-88702380D01*
X188428571Y-88702380D01*
%TO.C,100\u03A9 Spike LED*%
X176932857Y-72952380D02*
X176361428Y-72952380D01*
X176647142Y-72952380D02*
X176647142Y-71952380D01*
X176551904Y-72095238D01*
X176456666Y-72190476D01*
X176361428Y-72238095D01*
X177551904Y-71952380D02*
X177647142Y-71952380D01*
X177742380Y-72000000D01*
X177790000Y-72047619D01*
X177837619Y-72142857D01*
X177885238Y-72333333D01*
X177885238Y-72571428D01*
X177837619Y-72761904D01*
X177790000Y-72857142D01*
X177742380Y-72904761D01*
X177647142Y-72952380D01*
X177551904Y-72952380D01*
X177456666Y-72904761D01*
X177409047Y-72857142D01*
X177361428Y-72761904D01*
X177313809Y-72571428D01*
X177313809Y-72333333D01*
X177361428Y-72142857D01*
X177409047Y-72047619D01*
X177456666Y-72000000D01*
X177551904Y-71952380D01*
X178504285Y-71952380D02*
X178599523Y-71952380D01*
X178694761Y-72000000D01*
X178742380Y-72047619D01*
X178790000Y-72142857D01*
X178837619Y-72333333D01*
X178837619Y-72571428D01*
X178790000Y-72761904D01*
X178742380Y-72857142D01*
X178694761Y-72904761D01*
X178599523Y-72952380D01*
X178504285Y-72952380D01*
X178409047Y-72904761D01*
X178361428Y-72857142D01*
X178313809Y-72761904D01*
X178266190Y-72571428D01*
X178266190Y-72333333D01*
X178313809Y-72142857D01*
X178361428Y-72047619D01*
X178409047Y-72000000D01*
X178504285Y-71952380D01*
X179218571Y-72952380D02*
X179456666Y-72952380D01*
X179456666Y-72761904D01*
X179361428Y-72714285D01*
X179266190Y-72619047D01*
X179218571Y-72476190D01*
X179218571Y-72238095D01*
X179266190Y-72095238D01*
X179361428Y-72000000D01*
X179504285Y-71952380D01*
X179694761Y-71952380D01*
X179837619Y-72000000D01*
X179932857Y-72095238D01*
X179980476Y-72238095D01*
X179980476Y-72476190D01*
X179932857Y-72619047D01*
X179837619Y-72714285D01*
X179742380Y-72761904D01*
X179742380Y-72952380D01*
X179980476Y-72952380D01*
X181123333Y-72904761D02*
X181266190Y-72952380D01*
X181504285Y-72952380D01*
X181599523Y-72904761D01*
X181647142Y-72857142D01*
X181694761Y-72761904D01*
X181694761Y-72666666D01*
X181647142Y-72571428D01*
X181599523Y-72523809D01*
X181504285Y-72476190D01*
X181313809Y-72428571D01*
X181218571Y-72380952D01*
X181170952Y-72333333D01*
X181123333Y-72238095D01*
X181123333Y-72142857D01*
X181170952Y-72047619D01*
X181218571Y-72000000D01*
X181313809Y-71952380D01*
X181551904Y-71952380D01*
X181694761Y-72000000D01*
X182123333Y-72285714D02*
X182123333Y-73285714D01*
X182123333Y-72333333D02*
X182218571Y-72285714D01*
X182409047Y-72285714D01*
X182504285Y-72333333D01*
X182551904Y-72380952D01*
X182599523Y-72476190D01*
X182599523Y-72761904D01*
X182551904Y-72857142D01*
X182504285Y-72904761D01*
X182409047Y-72952380D01*
X182218571Y-72952380D01*
X182123333Y-72904761D01*
X183028095Y-72952380D02*
X183028095Y-72285714D01*
X183028095Y-71952380D02*
X182980476Y-72000000D01*
X183028095Y-72047619D01*
X183075714Y-72000000D01*
X183028095Y-71952380D01*
X183028095Y-72047619D01*
X183504285Y-72952380D02*
X183504285Y-71952380D01*
X183599523Y-72571428D02*
X183885238Y-72952380D01*
X183885238Y-72285714D02*
X183504285Y-72666666D01*
X184694761Y-72904761D02*
X184599523Y-72952380D01*
X184409047Y-72952380D01*
X184313809Y-72904761D01*
X184266190Y-72809523D01*
X184266190Y-72428571D01*
X184313809Y-72333333D01*
X184409047Y-72285714D01*
X184599523Y-72285714D01*
X184694761Y-72333333D01*
X184742380Y-72428571D01*
X184742380Y-72523809D01*
X184266190Y-72619047D01*
X186409047Y-72952380D02*
X185932857Y-72952380D01*
X185932857Y-71952380D01*
X186742380Y-72428571D02*
X187075714Y-72428571D01*
X187218571Y-72952380D02*
X186742380Y-72952380D01*
X186742380Y-71952380D01*
X187218571Y-71952380D01*
X187647142Y-72952380D02*
X187647142Y-71952380D01*
X187885238Y-71952380D01*
X188028095Y-72000000D01*
X188123333Y-72095238D01*
X188170952Y-72190476D01*
X188218571Y-72380952D01*
X188218571Y-72523809D01*
X188170952Y-72714285D01*
X188123333Y-72809523D01*
X188028095Y-72904761D01*
X187885238Y-72952380D01*
X187647142Y-72952380D01*
%TO.C,Spike Buzzer*%
X178809523Y-67654761D02*
X178952380Y-67702380D01*
X179190476Y-67702380D01*
X179285714Y-67654761D01*
X179333333Y-67607142D01*
X179380952Y-67511904D01*
X179380952Y-67416666D01*
X179333333Y-67321428D01*
X179285714Y-67273809D01*
X179190476Y-67226190D01*
X179000000Y-67178571D01*
X178904761Y-67130952D01*
X178857142Y-67083333D01*
X178809523Y-66988095D01*
X178809523Y-66892857D01*
X178857142Y-66797619D01*
X178904761Y-66750000D01*
X179000000Y-66702380D01*
X179238095Y-66702380D01*
X179380952Y-66750000D01*
X179809523Y-67035714D02*
X179809523Y-68035714D01*
X179809523Y-67083333D02*
X179904761Y-67035714D01*
X180095238Y-67035714D01*
X180190476Y-67083333D01*
X180238095Y-67130952D01*
X180285714Y-67226190D01*
X180285714Y-67511904D01*
X180238095Y-67607142D01*
X180190476Y-67654761D01*
X180095238Y-67702380D01*
X179904761Y-67702380D01*
X179809523Y-67654761D01*
X180714285Y-67702380D02*
X180714285Y-67035714D01*
X180714285Y-66702380D02*
X180666666Y-66750000D01*
X180714285Y-66797619D01*
X180761904Y-66750000D01*
X180714285Y-66702380D01*
X180714285Y-66797619D01*
X181190476Y-67702380D02*
X181190476Y-66702380D01*
X181285714Y-67321428D02*
X181571428Y-67702380D01*
X181571428Y-67035714D02*
X181190476Y-67416666D01*
X182380952Y-67654761D02*
X182285714Y-67702380D01*
X182095238Y-67702380D01*
X182000000Y-67654761D01*
X181952380Y-67559523D01*
X181952380Y-67178571D01*
X182000000Y-67083333D01*
X182095238Y-67035714D01*
X182285714Y-67035714D01*
X182380952Y-67083333D01*
X182428571Y-67178571D01*
X182428571Y-67273809D01*
X181952380Y-67369047D01*
X183952380Y-67178571D02*
X184095238Y-67226190D01*
X184142857Y-67273809D01*
X184190476Y-67369047D01*
X184190476Y-67511904D01*
X184142857Y-67607142D01*
X184095238Y-67654761D01*
X184000000Y-67702380D01*
X183619047Y-67702380D01*
X183619047Y-66702380D01*
X183952380Y-66702380D01*
X184047619Y-66750000D01*
X184095238Y-66797619D01*
X184142857Y-66892857D01*
X184142857Y-66988095D01*
X184095238Y-67083333D01*
X184047619Y-67130952D01*
X183952380Y-67178571D01*
X183619047Y-67178571D01*
X185047619Y-67035714D02*
X185047619Y-67702380D01*
X184619047Y-67035714D02*
X184619047Y-67559523D01*
X184666666Y-67654761D01*
X184761904Y-67702380D01*
X184904761Y-67702380D01*
X185000000Y-67654761D01*
X185047619Y-67607142D01*
X185428571Y-67035714D02*
X185952380Y-67035714D01*
X185428571Y-67702380D01*
X185952380Y-67702380D01*
X186238095Y-67035714D02*
X186761904Y-67035714D01*
X186238095Y-67702380D01*
X186761904Y-67702380D01*
X187523809Y-67654761D02*
X187428571Y-67702380D01*
X187238095Y-67702380D01*
X187142857Y-67654761D01*
X187095238Y-67559523D01*
X187095238Y-67178571D01*
X187142857Y-67083333D01*
X187238095Y-67035714D01*
X187428571Y-67035714D01*
X187523809Y-67083333D01*
X187571428Y-67178571D01*
X187571428Y-67273809D01*
X187095238Y-67369047D01*
X188000000Y-67702380D02*
X188000000Y-67035714D01*
X188000000Y-67226190D02*
X188047619Y-67130952D01*
X188095238Y-67083333D01*
X188190476Y-67035714D01*
X188285714Y-67035714D01*
X186111428Y-56570952D02*
X186111428Y-55809047D01*
X186492380Y-56190000D02*
X185730476Y-56190000D01*
%TO.C,50\u03A9 CharliePlex1*%
X176095238Y-82452380D02*
X175619047Y-82452380D01*
X175571428Y-82928571D01*
X175619047Y-82880952D01*
X175714285Y-82833333D01*
X175952380Y-82833333D01*
X176047619Y-82880952D01*
X176095238Y-82928571D01*
X176142857Y-83023809D01*
X176142857Y-83261904D01*
X176095238Y-83357142D01*
X176047619Y-83404761D01*
X175952380Y-83452380D01*
X175714285Y-83452380D01*
X175619047Y-83404761D01*
X175571428Y-83357142D01*
X176761904Y-82452380D02*
X176857142Y-82452380D01*
X176952380Y-82500000D01*
X177000000Y-82547619D01*
X177047619Y-82642857D01*
X177095238Y-82833333D01*
X177095238Y-83071428D01*
X177047619Y-83261904D01*
X177000000Y-83357142D01*
X176952380Y-83404761D01*
X176857142Y-83452380D01*
X176761904Y-83452380D01*
X176666666Y-83404761D01*
X176619047Y-83357142D01*
X176571428Y-83261904D01*
X176523809Y-83071428D01*
X176523809Y-82833333D01*
X176571428Y-82642857D01*
X176619047Y-82547619D01*
X176666666Y-82500000D01*
X176761904Y-82452380D01*
X177476190Y-83452380D02*
X177714285Y-83452380D01*
X177714285Y-83261904D01*
X177619047Y-83214285D01*
X177523809Y-83119047D01*
X177476190Y-82976190D01*
X177476190Y-82738095D01*
X177523809Y-82595238D01*
X177619047Y-82500000D01*
X177761904Y-82452380D01*
X177952380Y-82452380D01*
X178095238Y-82500000D01*
X178190476Y-82595238D01*
X178238095Y-82738095D01*
X178238095Y-82976190D01*
X178190476Y-83119047D01*
X178095238Y-83214285D01*
X178000000Y-83261904D01*
X178000000Y-83452380D01*
X178238095Y-83452380D01*
X180000000Y-83357142D02*
X179952380Y-83404761D01*
X179809523Y-83452380D01*
X179714285Y-83452380D01*
X179571428Y-83404761D01*
X179476190Y-83309523D01*
X179428571Y-83214285D01*
X179380952Y-83023809D01*
X179380952Y-82880952D01*
X179428571Y-82690476D01*
X179476190Y-82595238D01*
X179571428Y-82500000D01*
X179714285Y-82452380D01*
X179809523Y-82452380D01*
X179952380Y-82500000D01*
X180000000Y-82547619D01*
X180428571Y-83452380D02*
X180428571Y-82452380D01*
X180857142Y-83452380D02*
X180857142Y-82928571D01*
X180809523Y-82833333D01*
X180714285Y-82785714D01*
X180571428Y-82785714D01*
X180476190Y-82833333D01*
X180428571Y-82880952D01*
X181761904Y-83452380D02*
X181761904Y-82928571D01*
X181714285Y-82833333D01*
X181619047Y-82785714D01*
X181428571Y-82785714D01*
X181333333Y-82833333D01*
X181761904Y-83404761D02*
X181666666Y-83452380D01*
X181428571Y-83452380D01*
X181333333Y-83404761D01*
X181285714Y-83309523D01*
X181285714Y-83214285D01*
X181333333Y-83119047D01*
X181428571Y-83071428D01*
X181666666Y-83071428D01*
X181761904Y-83023809D01*
X182238095Y-83452380D02*
X182238095Y-82785714D01*
X182238095Y-82976190D02*
X182285714Y-82880952D01*
X182333333Y-82833333D01*
X182428571Y-82785714D01*
X182523809Y-82785714D01*
X183000000Y-83452380D02*
X182904761Y-83404761D01*
X182857142Y-83309523D01*
X182857142Y-82452380D01*
X183380952Y-83452380D02*
X183380952Y-82785714D01*
X183380952Y-82452380D02*
X183333333Y-82500000D01*
X183380952Y-82547619D01*
X183428571Y-82500000D01*
X183380952Y-82452380D01*
X183380952Y-82547619D01*
X184238095Y-83404761D02*
X184142857Y-83452380D01*
X183952380Y-83452380D01*
X183857142Y-83404761D01*
X183809523Y-83309523D01*
X183809523Y-82928571D01*
X183857142Y-82833333D01*
X183952380Y-82785714D01*
X184142857Y-82785714D01*
X184238095Y-82833333D01*
X184285714Y-82928571D01*
X184285714Y-83023809D01*
X183809523Y-83119047D01*
X184714285Y-83452380D02*
X184714285Y-82452380D01*
X185095238Y-82452380D01*
X185190476Y-82500000D01*
X185238095Y-82547619D01*
X185285714Y-82642857D01*
X185285714Y-82785714D01*
X185238095Y-82880952D01*
X185190476Y-82928571D01*
X185095238Y-82976190D01*
X184714285Y-82976190D01*
X185857142Y-83452380D02*
X185761904Y-83404761D01*
X185714285Y-83309523D01*
X185714285Y-82452380D01*
X186619047Y-83404761D02*
X186523809Y-83452380D01*
X186333333Y-83452380D01*
X186238095Y-83404761D01*
X186190476Y-83309523D01*
X186190476Y-82928571D01*
X186238095Y-82833333D01*
X186333333Y-82785714D01*
X186523809Y-82785714D01*
X186619047Y-82833333D01*
X186666666Y-82928571D01*
X186666666Y-83023809D01*
X186190476Y-83119047D01*
X187000000Y-83452380D02*
X187523809Y-82785714D01*
X187000000Y-82785714D02*
X187523809Y-83452380D01*
X188428571Y-83452380D02*
X187857142Y-83452380D01*
X188142857Y-83452380D02*
X188142857Y-82452380D01*
X188047619Y-82595238D01*
X187952380Y-82690476D01*
X187857142Y-82738095D01*
%TO.C,Mode Button*%
X189773809Y-126702380D02*
X189773809Y-125702380D01*
X190107142Y-126416666D01*
X190440476Y-125702380D01*
X190440476Y-126702380D01*
X191059523Y-126702380D02*
X190964285Y-126654761D01*
X190916666Y-126607142D01*
X190869047Y-126511904D01*
X190869047Y-126226190D01*
X190916666Y-126130952D01*
X190964285Y-126083333D01*
X191059523Y-126035714D01*
X191202380Y-126035714D01*
X191297619Y-126083333D01*
X191345238Y-126130952D01*
X191392857Y-126226190D01*
X191392857Y-126511904D01*
X191345238Y-126607142D01*
X191297619Y-126654761D01*
X191202380Y-126702380D01*
X191059523Y-126702380D01*
X192250000Y-126702380D02*
X192250000Y-125702380D01*
X192250000Y-126654761D02*
X192154761Y-126702380D01*
X191964285Y-126702380D01*
X191869047Y-126654761D01*
X191821428Y-126607142D01*
X191773809Y-126511904D01*
X191773809Y-126226190D01*
X191821428Y-126130952D01*
X191869047Y-126083333D01*
X191964285Y-126035714D01*
X192154761Y-126035714D01*
X192250000Y-126083333D01*
X193107142Y-126654761D02*
X193011904Y-126702380D01*
X192821428Y-126702380D01*
X192726190Y-126654761D01*
X192678571Y-126559523D01*
X192678571Y-126178571D01*
X192726190Y-126083333D01*
X192821428Y-126035714D01*
X193011904Y-126035714D01*
X193107142Y-126083333D01*
X193154761Y-126178571D01*
X193154761Y-126273809D01*
X192678571Y-126369047D01*
X194678571Y-126178571D02*
X194821428Y-126226190D01*
X194869047Y-126273809D01*
X194916666Y-126369047D01*
X194916666Y-126511904D01*
X194869047Y-126607142D01*
X194821428Y-126654761D01*
X194726190Y-126702380D01*
X194345238Y-126702380D01*
X194345238Y-125702380D01*
X194678571Y-125702380D01*
X194773809Y-125750000D01*
X194821428Y-125797619D01*
X194869047Y-125892857D01*
X194869047Y-125988095D01*
X194821428Y-126083333D01*
X194773809Y-126130952D01*
X194678571Y-126178571D01*
X194345238Y-126178571D01*
X195773809Y-126035714D02*
X195773809Y-126702380D01*
X195345238Y-126035714D02*
X195345238Y-126559523D01*
X195392857Y-126654761D01*
X195488095Y-126702380D01*
X195630952Y-126702380D01*
X195726190Y-126654761D01*
X195773809Y-126607142D01*
X196107142Y-126035714D02*
X196488095Y-126035714D01*
X196250000Y-125702380D02*
X196250000Y-126559523D01*
X196297619Y-126654761D01*
X196392857Y-126702380D01*
X196488095Y-126702380D01*
X196678571Y-126035714D02*
X197059523Y-126035714D01*
X196821428Y-125702380D02*
X196821428Y-126559523D01*
X196869047Y-126654761D01*
X196964285Y-126702380D01*
X197059523Y-126702380D01*
X197535714Y-126702380D02*
X197440476Y-126654761D01*
X197392857Y-126607142D01*
X197345238Y-126511904D01*
X197345238Y-126226190D01*
X197392857Y-126130952D01*
X197440476Y-126083333D01*
X197535714Y-126035714D01*
X197678571Y-126035714D01*
X197773809Y-126083333D01*
X197821428Y-126130952D01*
X197869047Y-126226190D01*
X197869047Y-126511904D01*
X197821428Y-126607142D01*
X197773809Y-126654761D01*
X197678571Y-126702380D01*
X197535714Y-126702380D01*
X198297619Y-126035714D02*
X198297619Y-126702380D01*
X198297619Y-126130952D02*
X198345238Y-126083333D01*
X198440476Y-126035714D01*
X198583333Y-126035714D01*
X198678571Y-126083333D01*
X198726190Y-126178571D01*
X198726190Y-126702380D01*
%TO.C,ESP32-WROOM dev module*%
X149305590Y-103678543D02*
X149639052Y-103678543D01*
X149781964Y-104202555D02*
X149305590Y-104202555D01*
X149305590Y-103202169D01*
X149781964Y-103202169D01*
X150163064Y-104154918D02*
X150305976Y-104202555D01*
X150544163Y-104202555D01*
X150639438Y-104154918D01*
X150687075Y-104107280D01*
X150734713Y-104012005D01*
X150734713Y-103916731D01*
X150687075Y-103821456D01*
X150639438Y-103773818D01*
X150544163Y-103726181D01*
X150353613Y-103678543D01*
X150258338Y-103630906D01*
X150210701Y-103583269D01*
X150163064Y-103487994D01*
X150163064Y-103392719D01*
X150210701Y-103297444D01*
X150258338Y-103249807D01*
X150353613Y-103202169D01*
X150591800Y-103202169D01*
X150734713Y-103249807D01*
X151163450Y-104202555D02*
X151163450Y-103202169D01*
X151544549Y-103202169D01*
X151639824Y-103249807D01*
X151687461Y-103297444D01*
X151735099Y-103392719D01*
X151735099Y-103535631D01*
X151687461Y-103630906D01*
X151639824Y-103678543D01*
X151544549Y-103726181D01*
X151163450Y-103726181D01*
X152068561Y-103202169D02*
X152687847Y-103202169D01*
X152354385Y-103583269D01*
X152497298Y-103583269D01*
X152592572Y-103630906D01*
X152640210Y-103678543D01*
X152687847Y-103773818D01*
X152687847Y-104012005D01*
X152640210Y-104107280D01*
X152592572Y-104154918D01*
X152497298Y-104202555D01*
X152211473Y-104202555D01*
X152116198Y-104154918D01*
X152068561Y-104107280D01*
X153068947Y-103297444D02*
X153116584Y-103249807D01*
X153211859Y-103202169D01*
X153450046Y-103202169D01*
X153545321Y-103249807D01*
X153592958Y-103297444D01*
X153640596Y-103392719D01*
X153640596Y-103487994D01*
X153592958Y-103630906D01*
X153021309Y-104202555D01*
X153640596Y-104202555D01*
X154069333Y-103821456D02*
X154831532Y-103821456D01*
X155212631Y-103202169D02*
X155450818Y-104202555D01*
X155641368Y-103487994D01*
X155831918Y-104202555D01*
X156070105Y-103202169D01*
X157022853Y-104202555D02*
X156689391Y-103726181D01*
X156451204Y-104202555D02*
X156451204Y-103202169D01*
X156832304Y-103202169D01*
X156927578Y-103249807D01*
X156975216Y-103297444D01*
X157022853Y-103392719D01*
X157022853Y-103535631D01*
X156975216Y-103630906D01*
X156927578Y-103678543D01*
X156832304Y-103726181D01*
X156451204Y-103726181D01*
X157642140Y-103202169D02*
X157832690Y-103202169D01*
X157927964Y-103249807D01*
X158023239Y-103345081D01*
X158070877Y-103535631D01*
X158070877Y-103869093D01*
X158023239Y-104059643D01*
X157927964Y-104154918D01*
X157832690Y-104202555D01*
X157642140Y-104202555D01*
X157546865Y-104154918D01*
X157451590Y-104059643D01*
X157403953Y-103869093D01*
X157403953Y-103535631D01*
X157451590Y-103345081D01*
X157546865Y-103249807D01*
X157642140Y-103202169D01*
X158690163Y-103202169D02*
X158880713Y-103202169D01*
X158975988Y-103249807D01*
X159071263Y-103345081D01*
X159118900Y-103535631D01*
X159118900Y-103869093D01*
X159071263Y-104059643D01*
X158975988Y-104154918D01*
X158880713Y-104202555D01*
X158690163Y-104202555D01*
X158594888Y-104154918D01*
X158499614Y-104059643D01*
X158451976Y-103869093D01*
X158451976Y-103535631D01*
X158499614Y-103345081D01*
X158594888Y-103249807D01*
X158690163Y-103202169D01*
X159547637Y-104202555D02*
X159547637Y-103202169D01*
X159881099Y-103916731D01*
X160214561Y-103202169D01*
X160214561Y-104202555D01*
X161881871Y-104202555D02*
X161881871Y-103202169D01*
X161881871Y-104154918D02*
X161786596Y-104202555D01*
X161596046Y-104202555D01*
X161500772Y-104154918D01*
X161453134Y-104107280D01*
X161405497Y-104012005D01*
X161405497Y-103726181D01*
X161453134Y-103630906D01*
X161500772Y-103583269D01*
X161596046Y-103535631D01*
X161786596Y-103535631D01*
X161881871Y-103583269D01*
X162739345Y-104154918D02*
X162644070Y-104202555D01*
X162453520Y-104202555D01*
X162358245Y-104154918D01*
X162310608Y-104059643D01*
X162310608Y-103678543D01*
X162358245Y-103583269D01*
X162453520Y-103535631D01*
X162644070Y-103535631D01*
X162739345Y-103583269D01*
X162786982Y-103678543D01*
X162786982Y-103773818D01*
X162310608Y-103869093D01*
X163120444Y-103535631D02*
X163358631Y-104202555D01*
X163596818Y-103535631D01*
X164740117Y-104202555D02*
X164740117Y-103535631D01*
X164740117Y-103630906D02*
X164787754Y-103583269D01*
X164883029Y-103535631D01*
X165025941Y-103535631D01*
X165121216Y-103583269D01*
X165168854Y-103678543D01*
X165168854Y-104202555D01*
X165168854Y-103678543D02*
X165216491Y-103583269D01*
X165311766Y-103535631D01*
X165454678Y-103535631D01*
X165549953Y-103583269D01*
X165597590Y-103678543D01*
X165597590Y-104202555D01*
X166216877Y-104202555D02*
X166121602Y-104154918D01*
X166073965Y-104107280D01*
X166026327Y-104012005D01*
X166026327Y-103726181D01*
X166073965Y-103630906D01*
X166121602Y-103583269D01*
X166216877Y-103535631D01*
X166359789Y-103535631D01*
X166455064Y-103583269D01*
X166502702Y-103630906D01*
X166550339Y-103726181D01*
X166550339Y-104012005D01*
X166502702Y-104107280D01*
X166455064Y-104154918D01*
X166359789Y-104202555D01*
X166216877Y-104202555D01*
X167407813Y-104202555D02*
X167407813Y-103202169D01*
X167407813Y-104154918D02*
X167312538Y-104202555D01*
X167121988Y-104202555D01*
X167026713Y-104154918D01*
X166979076Y-104107280D01*
X166931438Y-104012005D01*
X166931438Y-103726181D01*
X166979076Y-103630906D01*
X167026713Y-103583269D01*
X167121988Y-103535631D01*
X167312538Y-103535631D01*
X167407813Y-103583269D01*
X168312924Y-103535631D02*
X168312924Y-104202555D01*
X167884187Y-103535631D02*
X167884187Y-104059643D01*
X167931824Y-104154918D01*
X168027099Y-104202555D01*
X168170012Y-104202555D01*
X168265286Y-104154918D01*
X168312924Y-104107280D01*
X168932210Y-104202555D02*
X168836936Y-104154918D01*
X168789298Y-104059643D01*
X168789298Y-103202169D01*
X169694409Y-104154918D02*
X169599134Y-104202555D01*
X169408585Y-104202555D01*
X169313310Y-104154918D01*
X169265672Y-104059643D01*
X169265672Y-103678543D01*
X169313310Y-103583269D01*
X169408585Y-103535631D01*
X169599134Y-103535631D01*
X169694409Y-103583269D01*
X169742047Y-103678543D01*
X169742047Y-103773818D01*
X169265672Y-103869093D01*
%TO.C,Mode7*%
X195127142Y-110492380D02*
X195127142Y-109492380D01*
X195460476Y-110206666D01*
X195793809Y-109492380D01*
X195793809Y-110492380D01*
X196412857Y-110492380D02*
X196317619Y-110444761D01*
X196270000Y-110397142D01*
X196222380Y-110301904D01*
X196222380Y-110016190D01*
X196270000Y-109920952D01*
X196317619Y-109873333D01*
X196412857Y-109825714D01*
X196555714Y-109825714D01*
X196650952Y-109873333D01*
X196698571Y-109920952D01*
X196746190Y-110016190D01*
X196746190Y-110301904D01*
X196698571Y-110397142D01*
X196650952Y-110444761D01*
X196555714Y-110492380D01*
X196412857Y-110492380D01*
X197603333Y-110492380D02*
X197603333Y-109492380D01*
X197603333Y-110444761D02*
X197508095Y-110492380D01*
X197317619Y-110492380D01*
X197222380Y-110444761D01*
X197174761Y-110397142D01*
X197127142Y-110301904D01*
X197127142Y-110016190D01*
X197174761Y-109920952D01*
X197222380Y-109873333D01*
X197317619Y-109825714D01*
X197508095Y-109825714D01*
X197603333Y-109873333D01*
X198460476Y-110444761D02*
X198365238Y-110492380D01*
X198174761Y-110492380D01*
X198079523Y-110444761D01*
X198031904Y-110349523D01*
X198031904Y-109968571D01*
X198079523Y-109873333D01*
X198174761Y-109825714D01*
X198365238Y-109825714D01*
X198460476Y-109873333D01*
X198508095Y-109968571D01*
X198508095Y-110063809D01*
X198031904Y-110159047D01*
X198841428Y-109492380D02*
X199508095Y-109492380D01*
X199079523Y-110492380D01*
%TO.C,Mode5*%
X189127142Y-86492380D02*
X189127142Y-85492380D01*
X189460476Y-86206666D01*
X189793809Y-85492380D01*
X189793809Y-86492380D01*
X190412857Y-86492380D02*
X190317619Y-86444761D01*
X190270000Y-86397142D01*
X190222380Y-86301904D01*
X190222380Y-86016190D01*
X190270000Y-85920952D01*
X190317619Y-85873333D01*
X190412857Y-85825714D01*
X190555714Y-85825714D01*
X190650952Y-85873333D01*
X190698571Y-85920952D01*
X190746190Y-86016190D01*
X190746190Y-86301904D01*
X190698571Y-86397142D01*
X190650952Y-86444761D01*
X190555714Y-86492380D01*
X190412857Y-86492380D01*
X191603333Y-86492380D02*
X191603333Y-85492380D01*
X191603333Y-86444761D02*
X191508095Y-86492380D01*
X191317619Y-86492380D01*
X191222380Y-86444761D01*
X191174761Y-86397142D01*
X191127142Y-86301904D01*
X191127142Y-86016190D01*
X191174761Y-85920952D01*
X191222380Y-85873333D01*
X191317619Y-85825714D01*
X191508095Y-85825714D01*
X191603333Y-85873333D01*
X192460476Y-86444761D02*
X192365238Y-86492380D01*
X192174761Y-86492380D01*
X192079523Y-86444761D01*
X192031904Y-86349523D01*
X192031904Y-85968571D01*
X192079523Y-85873333D01*
X192174761Y-85825714D01*
X192365238Y-85825714D01*
X192460476Y-85873333D01*
X192508095Y-85968571D01*
X192508095Y-86063809D01*
X192031904Y-86159047D01*
X193412857Y-85492380D02*
X192936666Y-85492380D01*
X192889047Y-85968571D01*
X192936666Y-85920952D01*
X193031904Y-85873333D01*
X193270000Y-85873333D01*
X193365238Y-85920952D01*
X193412857Y-85968571D01*
X193460476Y-86063809D01*
X193460476Y-86301904D01*
X193412857Y-86397142D01*
X193365238Y-86444761D01*
X193270000Y-86492380D01*
X193031904Y-86492380D01*
X192936666Y-86444761D01*
X192889047Y-86397142D01*
D11*
%TO.C,Spike LED*%
X195455000Y-62561500D02*
X195920000Y-62561500D01*
X198080000Y-62561500D02*
X198545000Y-62561500D01*
X198080000Y-62256184D02*
G75*
G03*
X198080429Y-57747021I-1080000J2254684D01*
G01*
X195919173Y-57213685D02*
G75*
G03*
X195455170Y-62561500I1080827J-2787815D01*
G01*
X198544830Y-62561500D02*
G75*
G03*
X198080827Y-57213685I-1544830J2560000D01*
G01*
X195919571Y-57747021D02*
G75*
G03*
X195920000Y-62256184I1080429J-2254479D01*
G01*
%TO.C,Mode6*%
X189710000Y-81764000D02*
X189710000Y-81920000D01*
X189710000Y-84080000D02*
X189710000Y-84236000D01*
X190229039Y-84080000D02*
G75*
G03*
X192311130Y-84079837I1040961J1080000D01*
G01*
X189710000Y-84235516D02*
G75*
G03*
X192942335Y-84078608I1560000J1235516D01*
G01*
X192311130Y-81920163D02*
G75*
G03*
X190229039Y-81920000I-1041130J-1079837D01*
G01*
X192942335Y-81921392D02*
G75*
G03*
X189710000Y-81764484I-1672335J-1078608D01*
G01*
%TO.C,Mode1*%
X189710000Y-111764000D02*
X189710000Y-111920000D01*
X189710000Y-114080000D02*
X189710000Y-114236000D01*
X189710000Y-114235516D02*
G75*
G03*
X192942335Y-114078608I1560000J1235516D01*
G01*
X192942335Y-111921392D02*
G75*
G03*
X189710000Y-111764484I-1672335J-1078608D01*
G01*
X190229039Y-114080000D02*
G75*
G03*
X192311130Y-114079837I1040961J1080000D01*
G01*
X192311130Y-111920163D02*
G75*
G03*
X190229039Y-111920000I-1041130J-1079837D01*
G01*
%TO.C,10k\u03A9 SW pull-down*%
X175730000Y-113370000D02*
X182270000Y-113370000D01*
X182270000Y-110630000D02*
X175730000Y-110630000D01*
X183040000Y-112000000D02*
X182270000Y-112000000D01*
X175730000Y-110630000D02*
X175730000Y-113370000D01*
X174960000Y-112000000D02*
X175730000Y-112000000D01*
X182270000Y-113370000D02*
X182270000Y-110630000D01*
%TO.C,Stim-Strength*%
X207979000Y-112420000D02*
X207979000Y-108483000D01*
X207979000Y-112420000D02*
X209300000Y-112420000D01*
X213871000Y-112420000D02*
X214630000Y-112420000D01*
X218020000Y-104116000D02*
X218020000Y-100180000D01*
X218020000Y-112420000D02*
X218020000Y-108483000D01*
X216370000Y-112420000D02*
X218020000Y-112420000D01*
X207979000Y-100180000D02*
X218020000Y-100180000D01*
X207979000Y-104116000D02*
X207979000Y-100180000D01*
X211750000Y-112420000D02*
X212130000Y-112420000D01*
%TO.C,Noise*%
X183770000Y-119366000D02*
X183770000Y-115430000D01*
X173729000Y-115430000D02*
X183770000Y-115430000D01*
X173729000Y-127670000D02*
X173729000Y-123733000D01*
X182120000Y-127670000D02*
X183770000Y-127670000D01*
X173729000Y-127670000D02*
X175050000Y-127670000D01*
X179621000Y-127670000D02*
X180380000Y-127670000D01*
X177500000Y-127670000D02*
X177880000Y-127670000D01*
X183770000Y-127670000D02*
X183770000Y-123733000D01*
X173729000Y-119366000D02*
X173729000Y-115430000D01*
%TO.C,Synapse In 1*%
X100381500Y-62150000D02*
X112181500Y-62150000D01*
X112181500Y-62150000D02*
X112181500Y-50350000D01*
X112181500Y-50350000D02*
X100381500Y-50350000D01*
X100381500Y-50350000D02*
X100381500Y-62150000D01*
%TO.C,Synapse Out*%
X219868500Y-54100000D02*
X208068500Y-54100000D01*
X208068500Y-54100000D02*
X208068500Y-65900000D01*
X208068500Y-65900000D02*
X219868500Y-65900000D01*
X219868500Y-65900000D02*
X219868500Y-54100000D01*
%TO.C,Synapse 1 Gain*%
X101729000Y-74670000D02*
X101729000Y-70733000D01*
X101729000Y-66366000D02*
X101729000Y-62430000D01*
X111770000Y-66366000D02*
X111770000Y-62430000D01*
X107621000Y-74670000D02*
X108380000Y-74670000D01*
X111770000Y-74670000D02*
X111770000Y-70733000D01*
X101729000Y-62430000D02*
X111770000Y-62430000D01*
X101729000Y-74670000D02*
X103050000Y-74670000D01*
X105500000Y-74670000D02*
X105880000Y-74670000D01*
X110120000Y-74670000D02*
X111770000Y-74670000D01*
%TO.C,Mode3*%
X189710000Y-102080000D02*
X189710000Y-102236000D01*
X189710000Y-99764000D02*
X189710000Y-99920000D01*
X192311130Y-99920163D02*
G75*
G03*
X190229039Y-99920000I-1041130J-1079837D01*
G01*
X189710000Y-102235516D02*
G75*
G03*
X192942335Y-102078608I1560000J1235516D01*
G01*
X190229039Y-102080000D02*
G75*
G03*
X192311130Y-102079837I1040961J1080000D01*
G01*
X192942335Y-99921392D02*
G75*
G03*
X189710000Y-99764484I-1672335J-1078608D01*
G01*
%TO.C,Voltage Membrane*%
X121371000Y-127670000D02*
X122130000Y-127670000D01*
X125520000Y-127670000D02*
X125520000Y-123733000D01*
X115479000Y-115430000D02*
X125520000Y-115430000D01*
X123870000Y-127670000D02*
X125520000Y-127670000D01*
X119250000Y-127670000D02*
X119630000Y-127670000D01*
X125520000Y-119366000D02*
X125520000Y-115430000D01*
X115479000Y-127670000D02*
X115479000Y-123733000D01*
X115479000Y-119366000D02*
X115479000Y-115430000D01*
X115479000Y-127670000D02*
X116800000Y-127670000D01*
%TO.C,100\u03A9 Stim-LED*%
X202880000Y-126520000D02*
X205620000Y-126520000D01*
X204250000Y-127290000D02*
X204250000Y-126520000D01*
X204250000Y-119210000D02*
X204250000Y-119980000D01*
X202880000Y-119980000D02*
X202880000Y-126520000D01*
X205620000Y-119980000D02*
X202880000Y-119980000D01*
X205620000Y-126520000D02*
X205620000Y-119980000D01*
%TO.C,Stimulus Out*%
X219650000Y-129618500D02*
X207850000Y-129618500D01*
X207850000Y-129618500D02*
X207850000Y-117818500D01*
X207850000Y-117818500D02*
X219650000Y-117818500D01*
X219650000Y-117818500D02*
X219650000Y-129618500D01*
%TO.C,Mode10*%
X195710000Y-93764000D02*
X195710000Y-93920000D01*
X195710000Y-96080000D02*
X195710000Y-96236000D01*
X198942335Y-93921392D02*
G75*
G03*
X195710000Y-93764484I-1672335J-1078608D01*
G01*
X196229039Y-96080000D02*
G75*
G03*
X198311130Y-96079837I1040961J1080000D01*
G01*
X198311130Y-93920163D02*
G75*
G03*
X196229039Y-93920000I-1041130J-1079837D01*
G01*
X195710000Y-96235516D02*
G75*
G03*
X198942335Y-96078608I1560000J1235516D01*
G01*
%TO.C,Mode8*%
X195710000Y-108080000D02*
X195710000Y-108236000D01*
X195710000Y-105764000D02*
X195710000Y-105920000D01*
X195710000Y-108235516D02*
G75*
G03*
X198942335Y-108078608I1560000J1235516D01*
G01*
X198311130Y-105920163D02*
G75*
G03*
X196229039Y-105920000I-1041130J-1079837D01*
G01*
X196229039Y-108080000D02*
G75*
G03*
X198311130Y-108079837I1040961J1080000D01*
G01*
X198942335Y-105921392D02*
G75*
G03*
X195710000Y-105764484I-1672335J-1078608D01*
G01*
%TO.C,50\u03A9_CharliePlex4*%
X185270000Y-95130000D02*
X178730000Y-95130000D01*
X177960000Y-96500000D02*
X178730000Y-96500000D01*
X186040000Y-96500000D02*
X185270000Y-96500000D01*
X185270000Y-97870000D02*
X185270000Y-95130000D01*
X178730000Y-97870000D02*
X185270000Y-97870000D01*
X178730000Y-95130000D02*
X178730000Y-97870000D01*
%TO.C,Mode12*%
X195710000Y-81764000D02*
X195710000Y-81920000D01*
X195710000Y-84080000D02*
X195710000Y-84236000D01*
X196229039Y-84080000D02*
G75*
G03*
X198311130Y-84079837I1040961J1080000D01*
G01*
X195710000Y-84235516D02*
G75*
G03*
X198942335Y-84078608I1560000J1235516D01*
G01*
X198942335Y-81921392D02*
G75*
G03*
X195710000Y-81764484I-1672335J-1078608D01*
G01*
X198311130Y-81920163D02*
G75*
G03*
X196229039Y-81920000I-1041130J-1079837D01*
G01*
%TO.C,Mode11*%
X195710000Y-87764000D02*
X195710000Y-87920000D01*
X195710000Y-90080000D02*
X195710000Y-90236000D01*
X195710000Y-90235516D02*
G75*
G03*
X198942335Y-90078608I1560000J1235516D01*
G01*
X196229039Y-90080000D02*
G75*
G03*
X198311130Y-90079837I1040961J1080000D01*
G01*
X198942335Y-87921392D02*
G75*
G03*
X195710000Y-87764484I-1672335J-1078608D01*
G01*
X198311130Y-87920163D02*
G75*
G03*
X196229039Y-87920000I-1041130J-1079837D01*
G01*
%TO.C,Mode9*%
X195710000Y-99764000D02*
X195710000Y-99920000D01*
X195710000Y-102080000D02*
X195710000Y-102236000D01*
X196229039Y-102080000D02*
G75*
G03*
X198311130Y-102079837I1040961J1080000D01*
G01*
X198311130Y-99920163D02*
G75*
G03*
X196229039Y-99920000I-1041130J-1079837D01*
G01*
X195710000Y-102235516D02*
G75*
G03*
X198942335Y-102078608I1560000J1235516D01*
G01*
X198942335Y-99921392D02*
G75*
G03*
X195710000Y-99764484I-1672335J-1078608D01*
G01*
%TO.C,10\u03A9 RC*%
X186040000Y-75500000D02*
X185270000Y-75500000D01*
X178730000Y-76870000D02*
X185270000Y-76870000D01*
X185270000Y-74130000D02*
X178730000Y-74130000D01*
X178730000Y-74130000D02*
X178730000Y-76870000D01*
X177960000Y-75500000D02*
X178730000Y-75500000D01*
X185270000Y-76870000D02*
X185270000Y-74130000D01*
%TO.C,Photodiode*%
X137935000Y-119705000D02*
X137935000Y-122795000D01*
X143485000Y-121250462D02*
G75*
G03*
X137935000Y-119705170I-2990000J462D01*
G01*
X137935000Y-122794830D02*
G75*
G03*
X143485000Y-121249538I2560000J1544830D01*
G01*
X142995000Y-121250000D02*
G75*
G03*
X142995000Y-121250000I-2500000J0D01*
G01*
%TO.C,Stim-Frequency*%
X207979000Y-97170000D02*
X209300000Y-97170000D01*
X213871000Y-97170000D02*
X214630000Y-97170000D01*
X211750000Y-97170000D02*
X212130000Y-97170000D01*
X207979000Y-97170000D02*
X207979000Y-93233000D01*
X216370000Y-97170000D02*
X218020000Y-97170000D01*
X218020000Y-88866000D02*
X218020000Y-84930000D01*
X207979000Y-84930000D02*
X218020000Y-84930000D01*
X218020000Y-97170000D02*
X218020000Y-93233000D01*
X207979000Y-88866000D02*
X207979000Y-84930000D01*
%TO.C,Synapse 2 Gain*%
X101729000Y-96180000D02*
X111770000Y-96180000D01*
X101729000Y-100116000D02*
X101729000Y-96180000D01*
X105500000Y-108420000D02*
X105880000Y-108420000D01*
X101729000Y-108420000D02*
X103050000Y-108420000D01*
X111770000Y-108420000D02*
X111770000Y-104483000D01*
X110120000Y-108420000D02*
X111770000Y-108420000D01*
X111770000Y-100116000D02*
X111770000Y-96180000D01*
X107621000Y-108420000D02*
X108380000Y-108420000D01*
X101729000Y-108420000D02*
X101729000Y-104483000D01*
%TO.C,Synapse in 2*%
X100350000Y-95900000D02*
X112150000Y-95900000D01*
X112150000Y-95900000D02*
X112150000Y-84100000D01*
X112150000Y-84100000D02*
X100350000Y-84100000D01*
X100350000Y-84100000D02*
X100350000Y-95900000D01*
%TO.C,Mode2*%
X189710000Y-108080000D02*
X189710000Y-108236000D01*
X189710000Y-105764000D02*
X189710000Y-105920000D01*
X192942335Y-105921392D02*
G75*
G03*
X189710000Y-105764484I-1672335J-1078608D01*
G01*
X189710000Y-108235516D02*
G75*
G03*
X192942335Y-108078608I1560000J1235516D01*
G01*
X192311130Y-105920163D02*
G75*
G03*
X190229039Y-105920000I-1041130J-1079837D01*
G01*
X190229039Y-108080000D02*
G75*
G03*
X192311130Y-108079837I1040961J1080000D01*
G01*
%TO.C,Mode4*%
X189710000Y-93764000D02*
X189710000Y-93920000D01*
X189710000Y-96080000D02*
X189710000Y-96236000D01*
X190229039Y-96080000D02*
G75*
G03*
X192311130Y-96079837I1040961J1080000D01*
G01*
X192311130Y-93920163D02*
G75*
G03*
X190229039Y-93920000I-1041130J-1079837D01*
G01*
X192942335Y-93921392D02*
G75*
G03*
X189710000Y-93764484I-1672335J-1078608D01*
G01*
X189710000Y-96235516D02*
G75*
G03*
X192942335Y-96078608I1560000J1235516D01*
G01*
%TO.C,Current In*%
X111900000Y-129868500D02*
X100100000Y-129868500D01*
X100100000Y-129868500D02*
X100100000Y-118068500D01*
X100100000Y-118068500D02*
X111900000Y-118068500D01*
X111900000Y-118068500D02*
X111900000Y-129868500D01*
%TO.C,50\u03A9_CharliePlex3*%
X177960000Y-91250000D02*
X178730000Y-91250000D01*
X178730000Y-89880000D02*
X178730000Y-92620000D01*
X186040000Y-91250000D02*
X185270000Y-91250000D01*
X185270000Y-89880000D02*
X178730000Y-89880000D01*
X185270000Y-92620000D02*
X185270000Y-89880000D01*
X178730000Y-92620000D02*
X185270000Y-92620000D01*
%TO.C,10k\u03A9 PD pull-down*%
X129880000Y-118230000D02*
X129880000Y-124770000D01*
X132620000Y-118230000D02*
X129880000Y-118230000D01*
X131250000Y-125540000D02*
X131250000Y-124770000D01*
X131250000Y-117460000D02*
X131250000Y-118230000D01*
X129880000Y-124770000D02*
X132620000Y-124770000D01*
X132620000Y-124770000D02*
X132620000Y-118230000D01*
%TO.C,Photodiode Gain*%
X158270000Y-119366000D02*
X158270000Y-115430000D01*
X152000000Y-127670000D02*
X152380000Y-127670000D01*
X154121000Y-127670000D02*
X154880000Y-127670000D01*
X148229000Y-119366000D02*
X148229000Y-115430000D01*
X148229000Y-127670000D02*
X148229000Y-123733000D01*
X156620000Y-127670000D02*
X158270000Y-127670000D01*
X148229000Y-127670000D02*
X149550000Y-127670000D01*
X158270000Y-127670000D02*
X158270000Y-123733000D01*
X148229000Y-115430000D02*
X158270000Y-115430000D01*
%TO.C,1nF RC*%
X198121000Y-69840000D02*
X198121000Y-70760000D01*
X198401000Y-69840000D02*
X198401000Y-70552000D01*
X198641000Y-69840000D02*
X198641000Y-70304000D01*
X198361000Y-69840000D02*
X198361000Y-70587000D01*
X198601000Y-67649000D02*
X198601000Y-68160000D01*
X198521000Y-69840000D02*
X198521000Y-70438000D01*
X197881000Y-69840000D02*
X197881000Y-70889000D01*
X198321000Y-69840000D02*
X198321000Y-70619000D01*
X198761000Y-69840000D02*
X198761000Y-70142000D01*
X198081000Y-67215000D02*
X198081000Y-68160000D01*
X197881000Y-67111000D02*
X197881000Y-68160000D01*
X198281000Y-69840000D02*
X198281000Y-70650000D01*
X197440000Y-69840000D02*
X197440000Y-71034000D01*
X197761000Y-69840000D02*
X197761000Y-70940000D01*
X197961000Y-67149000D02*
X197961000Y-68160000D01*
X197400000Y-66958000D02*
X197400000Y-68160000D01*
X197721000Y-69840000D02*
X197721000Y-70954000D01*
X198201000Y-69840000D02*
X198201000Y-70708000D01*
X197360000Y-66950000D02*
X197360000Y-68160000D01*
X198481000Y-69840000D02*
X198481000Y-70478000D01*
X198801000Y-67920000D02*
X198801000Y-68160000D01*
X198401000Y-67448000D02*
X198401000Y-68160000D01*
X198241000Y-67320000D02*
X198241000Y-68160000D01*
X198561000Y-67604000D02*
X198561000Y-68160000D01*
X197320000Y-66944000D02*
X197320000Y-68160000D01*
X198201000Y-67292000D02*
X198201000Y-68160000D01*
X198721000Y-67800000D02*
X198721000Y-68160000D01*
X198801000Y-69840000D02*
X198801000Y-70080000D01*
X199001000Y-68336000D02*
X199001000Y-69664000D01*
X197560000Y-69840000D02*
X197560000Y-71005000D01*
X198521000Y-67562000D02*
X198521000Y-68160000D01*
X197761000Y-67060000D02*
X197761000Y-68160000D01*
X198441000Y-69840000D02*
X198441000Y-70516000D01*
X197200000Y-66929000D02*
X197200000Y-68160000D01*
X198921000Y-68141000D02*
X198921000Y-69859000D01*
X197721000Y-67046000D02*
X197721000Y-68160000D01*
X197080000Y-66921000D02*
X197080000Y-71079000D01*
X198441000Y-67484000D02*
X198441000Y-68160000D01*
X198481000Y-67522000D02*
X198481000Y-68160000D01*
X197240000Y-69840000D02*
X197240000Y-71067000D01*
X197640000Y-67018000D02*
X197640000Y-68160000D01*
X197000000Y-66920000D02*
X197000000Y-71080000D01*
X198161000Y-67265000D02*
X198161000Y-68160000D01*
X198041000Y-69840000D02*
X198041000Y-70808000D01*
X197640000Y-69840000D02*
X197640000Y-70982000D01*
X199041000Y-68463000D02*
X199041000Y-69537000D01*
X197520000Y-66984000D02*
X197520000Y-68160000D01*
X197480000Y-69840000D02*
X197480000Y-71025000D01*
X197520000Y-69840000D02*
X197520000Y-71016000D01*
X198601000Y-69840000D02*
X198601000Y-70351000D01*
X198361000Y-67413000D02*
X198361000Y-68160000D01*
X197160000Y-66926000D02*
X197160000Y-71074000D01*
X197921000Y-67130000D02*
X197921000Y-68160000D01*
X197040000Y-66920000D02*
X197040000Y-71080000D01*
X198721000Y-69840000D02*
X198721000Y-70200000D01*
X197680000Y-69840000D02*
X197680000Y-70968000D01*
X198161000Y-69840000D02*
X198161000Y-70735000D01*
X194730199Y-67805000D02*
X195130199Y-67805000D01*
X197480000Y-66975000D02*
X197480000Y-68160000D01*
X197680000Y-67032000D02*
X197680000Y-68160000D01*
X198281000Y-67350000D02*
X198281000Y-68160000D01*
X198641000Y-67696000D02*
X198641000Y-68160000D01*
X198001000Y-67170000D02*
X198001000Y-68160000D01*
X197120000Y-66923000D02*
X197120000Y-71077000D01*
X198041000Y-67192000D02*
X198041000Y-68160000D01*
X197600000Y-67006000D02*
X197600000Y-68160000D01*
X197921000Y-69840000D02*
X197921000Y-70870000D01*
X197360000Y-69840000D02*
X197360000Y-71050000D01*
X197240000Y-66933000D02*
X197240000Y-68160000D01*
X197841000Y-67093000D02*
X197841000Y-68160000D01*
X198881000Y-68060000D02*
X198881000Y-69940000D01*
X198081000Y-69840000D02*
X198081000Y-70785000D01*
X197600000Y-69840000D02*
X197600000Y-70994000D01*
X198961000Y-68232000D02*
X198961000Y-69768000D01*
X197280000Y-69840000D02*
X197280000Y-71062000D01*
X197280000Y-66938000D02*
X197280000Y-68160000D01*
X197440000Y-66966000D02*
X197440000Y-68160000D01*
X198121000Y-67240000D02*
X198121000Y-68160000D01*
X197320000Y-69840000D02*
X197320000Y-71056000D01*
X197801000Y-67076000D02*
X197801000Y-68160000D01*
X198681000Y-67746000D02*
X198681000Y-68160000D01*
X197560000Y-66995000D02*
X197560000Y-68160000D01*
X197801000Y-69840000D02*
X197801000Y-70924000D01*
X198321000Y-67381000D02*
X198321000Y-68160000D01*
X198241000Y-69840000D02*
X198241000Y-70680000D01*
X199081000Y-68630000D02*
X199081000Y-69370000D01*
X198841000Y-67987000D02*
X198841000Y-70013000D01*
X194930199Y-67605000D02*
X194930199Y-68005000D01*
X197200000Y-69840000D02*
X197200000Y-71071000D01*
X198561000Y-69840000D02*
X198561000Y-70396000D01*
X197400000Y-69840000D02*
X197400000Y-71042000D01*
X197841000Y-69840000D02*
X197841000Y-70907000D01*
X197961000Y-69840000D02*
X197961000Y-70851000D01*
X198761000Y-67858000D02*
X198761000Y-68160000D01*
X198001000Y-69840000D02*
X198001000Y-70830000D01*
X198681000Y-69840000D02*
X198681000Y-70254000D01*
X199120000Y-69000000D02*
G75*
G03*
X199120000Y-69000000I-2120000J0D01*
G01*
%TO.C,50\u03A9_CharliePlex2*%
X177960000Y-86000000D02*
X178730000Y-86000000D01*
X185270000Y-87370000D02*
X185270000Y-84630000D01*
X178730000Y-84630000D02*
X178730000Y-87370000D01*
X185270000Y-84630000D02*
X178730000Y-84630000D01*
X178730000Y-87370000D02*
X185270000Y-87370000D01*
X186040000Y-86000000D02*
X185270000Y-86000000D01*
%TO.C,100\u03A9 Spike LED*%
X185270000Y-71620000D02*
X185270000Y-68880000D01*
X177960000Y-70250000D02*
X178730000Y-70250000D01*
X178730000Y-68880000D02*
X178730000Y-71620000D01*
X178730000Y-71620000D02*
X185270000Y-71620000D01*
X185270000Y-68880000D02*
X178730000Y-68880000D01*
X186040000Y-70250000D02*
X185270000Y-70250000D01*
%TO.C,Spike Buzzer*%
X189600000Y-60000000D02*
G75*
G03*
X189600000Y-60000000I-6100000J0D01*
G01*
%TO.C,50\u03A9 CharliePlex1*%
X178730000Y-82120000D02*
X185270000Y-82120000D01*
X185270000Y-79380000D02*
X178730000Y-79380000D01*
X177960000Y-80750000D02*
X178730000Y-80750000D01*
X185270000Y-82120000D02*
X185270000Y-79380000D01*
X178730000Y-79380000D02*
X178730000Y-82120000D01*
X186040000Y-80750000D02*
X185270000Y-80750000D01*
%TO.C,Mode Button*%
X190750000Y-120750000D02*
X190750000Y-122250000D01*
X192000000Y-124750000D02*
X196500000Y-124750000D01*
X197750000Y-122250000D02*
X197750000Y-120750000D01*
X196500000Y-118250000D02*
X192000000Y-118250000D01*
D12*
%TO.C,ESP32-WROOM dev module*%
X145747500Y-50300000D02*
X173647500Y-50300000D01*
X173647500Y-104700000D02*
X145747500Y-104700000D01*
X173647500Y-50300000D02*
X173647500Y-104700000D01*
X145747500Y-104700000D02*
X145747500Y-50300000D01*
D11*
%TO.C,Mode7*%
X195710000Y-114080000D02*
X195710000Y-114236000D01*
X195710000Y-111764000D02*
X195710000Y-111920000D01*
X198311130Y-111920163D02*
G75*
G03*
X196229039Y-111920000I-1041130J-1079837D01*
G01*
X198942335Y-111921392D02*
G75*
G03*
X195710000Y-111764484I-1672335J-1078608D01*
G01*
X195710000Y-114235516D02*
G75*
G03*
X198942335Y-114078608I1560000J1235516D01*
G01*
X196229039Y-114080000D02*
G75*
G03*
X198311130Y-114079837I1040961J1080000D01*
G01*
%TO.C,Mode5*%
X189710000Y-87764000D02*
X189710000Y-87920000D01*
X189710000Y-90080000D02*
X189710000Y-90236000D01*
X190229039Y-90080000D02*
G75*
G03*
X192311130Y-90079837I1040961J1080000D01*
G01*
X192942335Y-87921392D02*
G75*
G03*
X189710000Y-87764484I-1672335J-1078608D01*
G01*
X189710000Y-90235516D02*
G75*
G03*
X192942335Y-90078608I1560000J1235516D01*
G01*
X192311130Y-87920163D02*
G75*
G03*
X190229039Y-87920000I-1041130J-1079837D01*
G01*
%TD*%
M02*
