%TF.GenerationSoftware,KiCad,Pcbnew,(6.0.4)*%
%TF.CreationDate,2022-06-01T21:34:53+02:00*%
%TF.ProjectId,Spikeling_ESP32,5370696b-656c-4696-9e67-5f4553503332,rev?*%
%TF.SameCoordinates,Original*%
%TF.FileFunction,Soldermask,Bot*%
%TF.FilePolarity,Negative*%
%FSLAX46Y46*%
G04 Gerber Fmt 4.6, Leading zero omitted, Abs format (unit mm)*
G04 Created by KiCad (PCBNEW (6.0.4)) date 2022-06-01 21:34:53*
%MOMM*%
%LPD*%
G01*
G04 APERTURE LIST*
G04 Aperture macros list*
%AMRoundRect*
0 Rectangle with rounded corners*
0 $1 Rounding radius*
0 $2 $3 $4 $5 $6 $7 $8 $9 X,Y pos of 4 corners*
0 Add a 4 corners polygon primitive as box body*
4,1,4,$2,$3,$4,$5,$6,$7,$8,$9,$2,$3,0*
0 Add four circle primitives for the rounded corners*
1,1,$1+$1,$2,$3*
1,1,$1+$1,$4,$5*
1,1,$1+$1,$6,$7*
1,1,$1+$1,$8,$9*
0 Add four rect primitives between the rounded corners*
20,1,$1+$1,$2,$3,$4,$5,0*
20,1,$1+$1,$4,$5,$6,$7,0*
20,1,$1+$1,$6,$7,$8,$9,0*
20,1,$1+$1,$8,$9,$2,$3,0*%
G04 Aperture macros list end*
%ADD10R,1.800000X1.800000*%
%ADD11C,1.800000*%
%ADD12C,1.600000*%
%ADD13O,1.600000X1.600000*%
%ADD14RoundRect,0.750000X0.750000X-1.250000X0.750000X1.250000X-0.750000X1.250000X-0.750000X-1.250000X0*%
%ADD15RoundRect,0.381000X0.381000X-0.762000X0.381000X0.762000X-0.381000X0.762000X-0.381000X-0.762000X0*%
%ADD16RoundRect,0.381000X-0.381000X0.762000X-0.381000X-0.762000X0.381000X-0.762000X0.381000X0.762000X0*%
%ADD17RoundRect,0.381000X0.762000X0.381000X-0.762000X0.381000X-0.762000X-0.381000X0.762000X-0.381000X0*%
%ADD18RoundRect,0.381000X-0.762000X-0.381000X0.762000X-0.381000X0.762000X0.381000X-0.762000X0.381000X0*%
%ADD19R,1.200000X1.200000*%
%ADD20C,1.200000*%
%ADD21R,2.000000X2.000000*%
%ADD22C,2.000000*%
%ADD23R,1.560000X1.560000*%
%ADD24C,1.560000*%
G04 APERTURE END LIST*
D10*
%TO.C,Spike LED*%
X197000000Y-63240000D03*
D11*
X197000000Y-61081000D03*
X197000000Y-58922000D03*
X197000000Y-56763000D03*
%TD*%
D10*
%TO.C,Mode6*%
X190000000Y-83000000D03*
D11*
X192540000Y-83000000D03*
%TD*%
D10*
%TO.C,Mode1*%
X190000000Y-113000000D03*
D11*
X192540000Y-113000000D03*
%TD*%
D12*
%TO.C,10k\u03A9 SW pull-down*%
X184080000Y-112000000D03*
D13*
X173920000Y-112000000D03*
%TD*%
D10*
%TO.C,Stim-Strength*%
X210500000Y-113300000D03*
D11*
X213000000Y-113300000D03*
X215500000Y-113300000D03*
D14*
X217400000Y-106300000D03*
X208600000Y-106300000D03*
%TD*%
D10*
%TO.C,Noise*%
X176250000Y-128550000D03*
D11*
X178750000Y-128550000D03*
X181250000Y-128550000D03*
D14*
X183150000Y-121550000D03*
X174350000Y-121550000D03*
%TD*%
D15*
%TO.C,Synapse In 1*%
X110781500Y-51750000D03*
D16*
X102781500Y-58450000D03*
D17*
X109781500Y-58650000D03*
D15*
X111981500Y-60750000D03*
%TD*%
D16*
%TO.C,Synapse Out*%
X209468500Y-64500000D03*
D15*
X217468500Y-57800000D03*
D16*
X208268500Y-55500000D03*
D18*
X210468500Y-57600000D03*
%TD*%
D10*
%TO.C,Synapse 1 Gain*%
X104250000Y-75550000D03*
D11*
X106750000Y-75550000D03*
X109250000Y-75550000D03*
D14*
X102350000Y-68550000D03*
X111150000Y-68550000D03*
%TD*%
D10*
%TO.C,Mode3*%
X190000000Y-101000000D03*
D11*
X192540000Y-101000000D03*
%TD*%
D10*
%TO.C,Voltage Membrane*%
X118000000Y-128550000D03*
D11*
X120500000Y-128550000D03*
X123000000Y-128550000D03*
D14*
X124900000Y-121550000D03*
X116100000Y-121550000D03*
%TD*%
D12*
%TO.C,100\u03A9 Stim-LED*%
X204250000Y-128330000D03*
D13*
X204250000Y-118170000D03*
%TD*%
D17*
%TO.C,Stimulus Out*%
X209250000Y-119218500D03*
D18*
X215950000Y-127218500D03*
D17*
X218250000Y-118018500D03*
D16*
X216150000Y-120218500D03*
%TD*%
D10*
%TO.C,Mode10*%
X196000000Y-95000000D03*
D11*
X198540000Y-95000000D03*
%TD*%
D10*
%TO.C,Mode8*%
X196000000Y-107000000D03*
D11*
X198540000Y-107000000D03*
%TD*%
D12*
%TO.C,50\u03A9_CharliePlex4*%
X176920000Y-96500000D03*
D13*
X187080000Y-96500000D03*
%TD*%
D10*
%TO.C,Mode12*%
X196000000Y-83000000D03*
D11*
X198540000Y-83000000D03*
%TD*%
D10*
%TO.C,Mode11*%
X196000000Y-89000000D03*
D11*
X198540000Y-89000000D03*
%TD*%
D10*
%TO.C,Mode9*%
X196000000Y-101000000D03*
D11*
X198540000Y-101000000D03*
%TD*%
D12*
%TO.C,10\u03A9 RC*%
X176920000Y-75500000D03*
D13*
X187080000Y-75500000D03*
%TD*%
D10*
%TO.C,Photodiode*%
X139225000Y-121250000D03*
D11*
X141765000Y-121250000D03*
%TD*%
D10*
%TO.C,Stim-Frequency*%
X210500000Y-98050000D03*
D11*
X213000000Y-98050000D03*
X215500000Y-98050000D03*
D14*
X217400000Y-91050000D03*
X208600000Y-91050000D03*
%TD*%
D10*
%TO.C,Synapse 2 Gain*%
X104250000Y-109300000D03*
D11*
X106750000Y-109300000D03*
X109250000Y-109300000D03*
D14*
X102350000Y-102300000D03*
X111150000Y-102300000D03*
%TD*%
D15*
%TO.C,Synapse in 2*%
X110750000Y-85500000D03*
D16*
X102750000Y-92200000D03*
D17*
X109750000Y-92400000D03*
D15*
X111950000Y-94500000D03*
%TD*%
D10*
%TO.C,Mode2*%
X190000000Y-107000000D03*
D11*
X192540000Y-107000000D03*
%TD*%
D10*
%TO.C,Mode4*%
X190000000Y-95000000D03*
D11*
X192540000Y-95000000D03*
%TD*%
D17*
%TO.C,Current In*%
X101500000Y-119468500D03*
D18*
X108200000Y-127468500D03*
D17*
X110500000Y-118268500D03*
D16*
X108400000Y-120468500D03*
%TD*%
D12*
%TO.C,50\u03A9_CharliePlex3*%
X176920000Y-91250000D03*
D13*
X187080000Y-91250000D03*
%TD*%
D12*
%TO.C,10k\u03A9 PD pull-down*%
X131250000Y-116420000D03*
D13*
X131250000Y-126580000D03*
%TD*%
D10*
%TO.C,Photodiode Gain*%
X150750000Y-128550000D03*
D11*
X153250000Y-128550000D03*
X155750000Y-128550000D03*
D14*
X148850000Y-121550000D03*
X157650000Y-121550000D03*
%TD*%
D19*
%TO.C,1nF RC*%
X196000000Y-69000000D03*
D20*
X198000000Y-69000000D03*
%TD*%
D12*
%TO.C,50\u03A9_CharliePlex2*%
X176920000Y-86000000D03*
D13*
X187080000Y-86000000D03*
%TD*%
D12*
%TO.C,100\u03A9 Spike LED*%
X176920000Y-70250000D03*
D13*
X187080000Y-70250000D03*
%TD*%
D21*
%TO.C,Spike Buzzer*%
X183500000Y-56200000D03*
D22*
X183500000Y-63800000D03*
%TD*%
D12*
%TO.C,50\u03A9 CharliePlex1*%
X176920000Y-80750000D03*
D13*
X187080000Y-80750000D03*
%TD*%
D22*
%TO.C,Mode Button*%
X191000000Y-119250000D03*
X197500000Y-119250000D03*
X197500000Y-123750000D03*
X191000000Y-123750000D03*
%TD*%
D23*
%TO.C,ESP32-WROOM dev module*%
X172347500Y-100010000D03*
D24*
X172347500Y-97470000D03*
X172347500Y-94930000D03*
X172347500Y-92390000D03*
X172347500Y-89850000D03*
X172347500Y-87310000D03*
X172347500Y-84770000D03*
X172347500Y-82230000D03*
X172347500Y-79690000D03*
X172347500Y-77150000D03*
X172347500Y-74610000D03*
X172347500Y-72070000D03*
X172347500Y-69530000D03*
X172347500Y-66990000D03*
X172347500Y-64450000D03*
X172347500Y-61910000D03*
X172347500Y-59370000D03*
X172347500Y-56830000D03*
X172347500Y-54290000D03*
X146947500Y-100010000D03*
X146947500Y-97470000D03*
X146947500Y-94930000D03*
X146947500Y-92390000D03*
X146947500Y-89850000D03*
X146947500Y-87310000D03*
X146947500Y-84770000D03*
X146947500Y-82230000D03*
X146947500Y-79690000D03*
X146947500Y-77150000D03*
X146947500Y-74610000D03*
X146947500Y-72070000D03*
X146947500Y-69530000D03*
X146947500Y-66990000D03*
X146947500Y-64450000D03*
X146947500Y-61910000D03*
X146947500Y-59370000D03*
X146947500Y-56830000D03*
X146947500Y-54290000D03*
%TD*%
D10*
%TO.C,Mode7*%
X196000000Y-113000000D03*
D11*
X198540000Y-113000000D03*
%TD*%
D10*
%TO.C,Mode5*%
X190000000Y-89000000D03*
D11*
X192540000Y-89000000D03*
%TD*%
M02*
